<?xml version="1.0" standalone="no"?>
<!DOCTYPE svg PUBLIC "-//W3C//DTD SVG 1.1//EN" "http://www.w3.org/Graphics/SVG/1.1/DTD/svg11.dtd" >
<svg xmlns="http://www.w3.org/2000/svg">
<metadata>
Created by FontPrep 20130207 at Fri Jul 14 13:43:44 2017
 By Richard Lyon
Copyright 1981-1983, 1989,1993, 1998 Heidelberger Druckmaschinen AG. All rights reserved. The digitally encoded machine readable outline data for producing the Typefaces licensed are the property of Heidelberger Druckmaschinen AG and/or its subsidiaries, represented by Linotype Library GmbH, Dupont Strasse 1, 61352 Bad Homburg Germany. Portions (c) 1996-1998 Microsoft Corporation. All Rights Reserved. 
</metadata>
<defs>
<font id="89218288b35da0b1dbd2aea7e58b4c6b" horiz-adv-x='1024' >
  <font-face 
    font-family="PalatinoLinotype-Roman"
    font-weight="400"
    font-stretch="normal"
    units-per-em="2048"
    panose-1="2 4 5 2 5 5 5 3 3 4"
    ascent="1638"
    descent="-410"
    x-height="932"
    cap-height="1413"
    bbox="-348 -597 2907 2150"
    underline-thickness="120"
    underline-position="-148"
    unicode-range="U+0020-FFFC"
  />
<missing-glyph horiz-adv-x="1097" 
d="M520 585q0 77 -75 77q-55 0 -87 -42t-31 -108q0 -66 49 -118q50 -52 134 -52t144 64t61 169q0 105 -78 184q-79 79 -195 79t-202 -90t-87 -216q0 -167 111 -277q112 -110 280 -110q168 -1 280 127t113 304t-91 284t-255 146l39 73q183 -39 294 -171t111 -332t-144 -354
q-143 -154 -353 -155q-210 0 -342 130t-133 332q-1 159 113 275t266 116t256 -96q106 -96 106 -236q0 -142 -90 -231t-209 -89t-187 70t-68 168t54 160t130 62t116 -39q38 -39 38 -97q0 -96 -105 -117l-26 43q63 22 63 67z" />
    <glyph glyph-name="IJ" unicode="IJ" horiz-adv-x="1372" 
d="M343 1405q36 0 289 8l8 -7v-50l-8 -7q-135 -4 -156 -18q-22 -15 -28 -55t-5 -112l-2 -230v-463l1 -195q0 -168 20 -190q10 -10 37 -18t133 -12l8 -6v-50l-8 -8l-287 8q-31 0 -286 -8l-8 8v50l8 6q144 6 160 21q17 14 23 45t7 138l1 211v463l-2 195q-1 170 -15 186t-41 23
t-133 11l-8 7v50l8 7l125 -4q123 -4 159 -4zM1126 216q0 -158 -28 -258t-98 -186q-138 -168 -292 -169q-21 0 -42 5q4 85 0 154l19 13q51 -38 103 -38q100 1 129 69q19 46 19 259v869l-2 195q0 169 -20 191q-10 11 -36 18t-134 11l-7 7v50l7 7q254 -8 288 -8t286 8l7 -7v-50
l-7 -7q-136 -4 -157 -18q-21 -15 -27 -55t-6 -112l-2 -230v-718z" />
    <glyph glyph-name="ij" unicode="ij" horiz-adv-x="1037" 
d="M381 607v-226q0 -21 4 -141q5 -120 9 -140t13 -29t22 -11t108 -9l9 -8v-42l-8 -9q-124 8 -240 8t-241 -8l-9 9v42l9 8q97 6 109 9q12 2 22 12t14 30t8 128q4 110 4 166v197q0 127 -10 194q-2 15 -16 23q-13 8 -52 8l-84 1l-9 8v43l8 8q191 23 322 75l19 -13
q-11 -131 -11 -333zM288 1400q46 0 80 -33q33 -33 33 -79t-33 -80q-34 -33 -80 -33q-46 1 -80 33t-33 79q-1 47 33 80t80 33zM887 573v-184l3 -319q0 -165 -27 -305q-27 -139 -121 -239t-217 -100q-7 0 -21 1l-10 57l9 13q22 -2 45 -2q23 1 55 19q73 42 95 148t22 349v582
q0 137 -6 174t-20 44t-51 7l-85 1l-9 8v43l9 8q190 23 322 75l18 -13q-11 -131 -11 -367zM800 1400q46 0 79 -32t33 -80q0 -47 -33 -80t-79 -33t-80 33q-33 34 -33 80t33 79q34 33 80 33z" />
    <glyph glyph-name="uniFB00" unicode="ff" horiz-adv-x="1333" 
d="M294 0q-104 0 -237 -8l-8 9v42l8 8q97 6 110 9t22 12.5t12.5 29t8 129t4.5 165.5v386l-129 -7l-9 8v25l7 10l131 67v60q0 100 9 151.5t33.5 95t85.5 110t107 109t80 57t76 14.5t86 -15l-1 -164l-23 -9q-56 50 -119 50t-101 -21.5t-52 -70t-14 -160.5v-207h484v60
q0 126 15 180.5t46 97.5t118.5 133.5t128.5 108t84 17.5t84 -15v-164l-23 -9q-56 50 -119 50t-101 -21.5t-52 -70t-14 -160.5v-207h107q83 0 156 6l10 -11l-18 -88l-9 -10q-30 1 -39 1l-131 1h-76v-403q0 -32 4.5 -146.5t8.5 -134.5t13.5 -29t31 -13t137.5 -7l8 -8v-42
l-8 -9l-278 8q-115 0 -241 -8l-8 9v42l8 8q97 6 110 9t22 12.5t12.5 29t8 129t4.5 165.5v388h-484v-403q0 -32 4.5 -146.5t8.5 -134.5t13.5 -29t31 -13t112.5 -7l8 -8v-42l-8 -9q-153 8 -257 8z" />
    <glyph glyph-name="uniFB01" unicode="fi" horiz-adv-x="1239" 
d="M931 1400q46 0 79 -32.5t33 -79.5t-32.5 -80t-79.5 -33t-80 32.5t-33 79.5t33.5 80t79.5 33zM214 396v386l-129 -7l-9 8v25l7 10l131 67v60q0 100 9 151.5t33.5 95t85.5 110t107 109t80 57t76 14.5t86 -15l-1 -164l-23 -9q-56 50 -119 50t-101 -21.5t-52 -70t-14 -160.5
v-207h248q127 0 204.5 14.5t182.5 53.5l18 -13q-10 -131 -10 -333v-226q0 -22 4 -141.5t8.5 -139.5t13.5 -29t22 -11.5t108 -8.5l9 -8v-42l-9 -9q-124 8 -236 8t-244 -8l-9 9v42l9 8q96 6 117 11t30 54.5t9 279.5v197q0 192 -10 203.5t-20.5 17t-85.5 5.5l-97 -1l-6 -29
l-10 -5h-246v-403q0 -32 4.5 -146.5t8.5 -134.5t13.5 -29t31 -13t112.5 -7l8 -8v-42l-8 -9l-253 8q-108 0 -241 -8l-8 9v42l8 8q97 6 110 9t22 12.5t12.5 29t8 129t4.5 165.5z" />
    <glyph glyph-name="uniFB02" unicode="fl" horiz-adv-x="1245" 
d="M280 0q-90 0 -223 -8l-8 9v42l8 8q97 6 110 9t22 12.5t12.5 29t8 129t4.5 165.5v386l-129 -7l-9 8v25l7 10l131 67v60q0 100 9 151.5t33 95t86 110.5t108 109t80 56.5t74 14.5t107 -15v-59q181 21 312 73l19 -12q-11 -115 -11 -461v-627q0 -22 4 -141.5t8.5 -139.5
t14 -29t22 -11.5t107.5 -8.5l9 -8v-42l-8 -9q-124 8 -236 8t-245 -8l-8 9v42l8 8q97 6 109.5 9t22 12.5t13 29t8 129t4.5 165.5v518l-5 240q-3 139 -8.5 159t-18.5 27t-121 7v-44l-22 -9q-73 50 -142 50t-104.5 -24t-48.5 -70.5t-13 -157.5v-207h107q83 0 157 6l9 -11
l-18 -88l-9 -10q-30 1 -39 1l-130 1h-77v-403q0 -32 4.5 -146.5t8.5 -134.5t13.5 -29t31 -13t112.5 -7l8 -8v-42l-8 -9q-181 8 -271 8z" />
    <glyph glyph-name="uniFB03" unicode="ffi" horiz-adv-x="1884" 
d="M1576 1400q46 0 79 -32.5t33 -79.5t-33 -80t-79 -33t-79.5 32.5t-33.5 79.5t33.5 80t79.5 33zM940 0q-104 0 -238 -8l-8 9v42l8 8q97 6 110 9t22 12.5t12.5 29t8 129t4.5 165.5v388h-478v-403q0 -32 4.5 -146.5t8.5 -134.5t13.5 -29t31 -13t112.5 -7l8 -8v-42l-8 -9
q-121 8 -241 8t-253 -8l-8 9v42l8 8q97 6 110 9t22 12.5t12.5 29t8 129t4.5 165.5v386l-129 -7l-9 8v25l7 10l131 67v60q0 100 9 151.5t33.5 95t85.5 110t107 109t80 57t76 14.5t86 -15l-1 -164l-23 -9q-56 50 -119 50t-101 -21.5t-52 -70t-14 -160.5v-207h478v60
q0 100 9 151.5t33 95t85.5 110t107.5 109t80 57t77 14.5t84 -15v-164l-23 -9q-56 50 -119 50t-101 -21.5t-52 -70t-14 -160.5v-207h248q127 0 204 14.5t183 53.5l18 -13q-11 -131 -11 -333v-226q0 -22 4.5 -141.5t9 -139.5t13.5 -29t21.5 -11.5t108.5 -8.5l8 -8v-42l-8 -9
q-123 8 -239 8t-242 -8l-8 9v42l9 8q96 6 109 9t22 12.5t12.5 29t8 129t4.5 165.5v197q0 192 -10 203.5t-20.5 17t-85.5 5.5l-97 -1l-6 -29l-10 -5h-246v-403q0 -32 4.5 -146.5t8.5 -134.5t13.5 -29t31 -13t112.5 -7l8 -8v-42l-8 -9q-152 8 -256 8z" />
    <glyph glyph-name="uniFB04" unicode="ffl" horiz-adv-x="1894" 
d="M863 784h-482v-403q0 -32 4.5 -146.5t8.5 -134.5t13.5 -29t31 -13t112.5 -7l8 -8v-42l-8 -9q-169 8 -265 8t-229 -8l-8 9v42l8 8q97 6 110 9t22 12.5t12.5 29t8 129t4.5 165.5v386l-129 -7l-9 8v25l7 10l131 67v60q0 100 9 151.5t33.5 95t85.5 110t107 109t80 57t76 14.5
t86 -15l-1 -164l-23 -9q-56 50 -119 50t-101 -21.5t-52 -70t-14 -160.5v-207h482v60q0 100 8.5 151.5t33 95t86 110.5t107.5 109t80.5 56.5t73.5 14.5t108 -15v-59q181 21 312 73l18 -12q-11 -115 -11 -461v-627q0 -22 4.5 -141.5t9 -139.5t13.5 -29t21.5 -11.5t108.5 -8.5
l8 -8v-42l-8 -9q-124 8 -240 8t-241 -8l-8 9v42l9 8q96 6 109 9t22 12.5t12.5 29t8 129t4.5 165.5v518l-4 240q-3 139 -8.5 159t-18.5 27t-121 7v-44l-22 -9q-74 50 -142 50t-104.5 -24t-49 -70.5t-12.5 -157.5v-207h106q83 0 157 6l9 -11l-17 -88l-9 -10q-31 1 -39 1
l-131 1h-76v-403q0 -32 4 -146.5t8 -134.5t13.5 -29t31 -13t112.5 -7l9 -8v-42l-9 -9q-170 8 -269 8t-224 -8l-9 9v42l9 8q97 6 109.5 9t22 12.5t13 29t8 129t4.5 165.5v388z" />
    <glyph glyph-name="S_S. RQD" unicode="SS" horiz-adv-x="2151" 
d="M500 56q92 0 176 39t131 115t47 155q0 80 -22 129q-22 48 -64 78q-40 30 -92 44t-154 32q-102 16 -158 29q-136 31 -212 116q-76 84 -76 224q0 187 130 307t342 119q212 0 383 -85l7 -12q-22 -92 -27 -262l-9 -8h-52l-8 7q-2 120 -6 151t-91 77t-181 46t-167 -34
q-74 -34 -112 -107q-38 -72 -38 -140t23 -114q24 -46 60 -72t84 -39t202 -35t234 -58t128 -112q48 -77 49 -186q1 -213 -173 -355t-401 -142t-383 74l-6 13q10 63 15 294l8 8h49l8 -8q6 -128 14 -156t54 -60t120 -52q76 -20 168 -20zM1576 56q92 0 176 39t131 115t47 155
q0 80 -22 129q-22 48 -64 78q-40 30 -92 44t-154 32q-102 16 -158 29q-136 31 -212 116q-76 84 -76 224q0 187 130 307t342 119q212 0 383 -85l7 -12q-22 -92 -27 -262l-9 -8h-52l-8 7q-2 120 -6 151t-91 77t-181 46t-167 -34q-74 -34 -112 -107q-38 -72 -38 -140t23 -114
q24 -46 60 -72t84 -39t202 -35t234 -58t128 -112q48 -77 49 -186q1 -213 -173 -355t-401 -142t-383 74l-6 13q10 63 15 294l8 8h49l8 -8q6 -128 14 -156t54 -60t120 -52q76 -20 168 -20z" />
    <glyph glyph-name="c_h. RQD" unicode="ch" horiz-adv-x="2064" 
d="M629 73q92 0 218 60l21 -26l-40 -67q-129 -71 -288 -71q-220 0 -340 131t-120 324q0 275 142 379q38 28 128 78q90 49 137 65q46 16 127 16q155 0 254 -59q-19 -113 -29 -252l-9 -8h-41l-9 9q-4 84 -11 113t-79 62t-155 33q-82 0 -146 -34q-129 -70 -129 -301
q0 -91 26 -179t68 -146t113 -92q70 -35 162 -35zM1220 1008v-247q84 69 130 113t87 62q40 19 122 19q81 0 153 -31q72 -32 108 -74q64 -75 65 -243v-176q0 -17 5 -249q4 -95 22 -113t123 -18l8 -8v-43l-8 -8q-127 8 -161 8t-157 -8l-12 11q13 130 13 339v131q0 118 -6 170
q-6 53 -33 95q-59 90 -187 89q-68 -1 -114 -19t-92 -62t-56 -74t-10 -113v-178q0 -21 4 -141t8 -140t14 -29q9 -9 22 -11t108 -9l9 -8v-42l-8 -9q-125 8 -241 8t-240 -8l-9 9v42l9 8q98 6 110 9q12 2 22 12t12 30q4 20 8 128q4 110 5 166v518l-4 212q-5 191 -14 202
q-8 11 -23 15t-121 4l-9 9v42l8 9q191 22 322 74l19 -12q-11 -115 -11 -461z" />
    <glyph glyph-name="c_k. RQD" unicode="ck" horiz-adv-x="1986" 
d="M629 73q92 0 218 60l21 -26l-40 -67q-129 -71 -288 -71q-220 0 -340 131t-120 324q0 275 142 379q38 28 128 78q90 49 137 65q46 16 127 16q155 0 254 -59q-19 -113 -29 -252l-9 -8h-41l-9 9q-4 84 -11 113t-79 62t-155 33q-82 0 -146 -34q-129 -70 -129 -301
q0 -91 26 -179t68 -146t113 -92q70 -35 162 -35zM1219 1008v-469q34 21 134 101q99 80 211 184t115 112q85 -3 105 -3t90 3l9 -9v-39l-8 -9q-51 -3 -77 -13t-108 -66t-192 -147l-97 -79q53 -62 185 -194t215 -206q82 -74 107 -84t53 -10v-43q-37 -7 -191 -61
q-104 90 -132 119l-162 165q-41 41 -110 104l-147 136v-119q0 -21 4 -141q5 -120 9 -140t13 -29t22 -11t108 -9l9 -8v-42l-8 -9q-124 8 -240 8t-241 -8l-9 9v42l9 8q97 6 109 9q12 2 22 12t14 30t8 128q4 110 4 166v518l-4 212q-5 191 -14 202q-8 11 -23 15t-121 4l-9 9v42
l8 9q191 22 322 74l19 -12q-11 -115 -11 -461z" />
    <glyph glyph-name="f_t. RQD" unicode="ft" horiz-adv-x="1333" 
d="M214 396v386l-129 -7l-9 8v25l7 10l131 67v60q0 100 9 151.5t33.5 95t85.5 110t107 109t80 57t76 14.5t86 -15l-1 -164l-23 -9q-56 50 -119 50t-101 -21.5t-52 -70t-14 -160.5v-207h488l1 29q0 229 -6 276q103 36 169 77l24 -20q-10 -63 -24 -366q50 -1 133 -1t144 6
l7 -7l-19 -84l-8 -9q-51 1 -110 1t-147 -1l-6 -407q0 -141 10 -209t120 -68q67 0 124 35l24 -36q-24 -17 -115 -100q-52 -24 -105 -24q-226 0 -226 218l5 171v236l3 182h-486v-403q0 -32 4.5 -146.5t8.5 -134.5t13.5 -29t31 -13t137.5 -7l8 -8v-42l-8 -9l-278 8
q-108 0 -241 -8l-8 9v42l8 8q97 6 110 9t22 12.5t12.5 29t8 129t4.5 165.5z" />
    <glyph glyph-name="f_f_t. RQD" unicode="fft" horiz-adv-x="1980" 
d="M1032 784v-403q0 -32 4.5 -146.5t8.5 -134.5t13.5 -29t31 -13t137.5 -7l8 -8v-42l-8 -9l-278 8q-115 0 -241 -8l-8 9v42l8 8q97 6 110 9t22 12.5t12.5 29t8 129t4.5 165.5v388h-484v-403q0 -32 4.5 -146.5t8.5 -134.5t13.5 -29t31 -13t137.5 -7l8 -8v-42l-8 -9l-278 8
q-108 0 -241 -8l-8 9v42l8 8q97 6 110 9t22 12.5t12.5 29t8 129t4.5 165.5v386l-129 -7l-9 8v25l7 10l131 67v60q0 100 9 151.5t33.5 95t85.5 110t107 109t80 57t76 14.5t86 -15l-1 -164l-23 -9q-56 50 -119 50t-101 -21.5t-52 -70t-14 -160.5v-207h484v60q0 126 15 180.5
t46 97.5t118.5 133.5t128.5 108t84 17.5t84 -15v-164l-23 -9q-56 50 -119 50t-101 -21.5t-52 -70t-14 -160.5v-207h484l1 29q0 228 -6 276q102 36 169 77l24 -20q-10 -63 -24 -366q50 -1 133 -1t144 6l7 -7l-19 -84l-9 -9q-51 1 -110 1t-146 -1l-7 -407q0 -141 10 -209
t121 -68q63 0 124 35l24 -36q-24 -17 -115 -100q-53 -24 -106 -24q-226 0 -226 218l6 171v236q1 91 3 182h-482z" />
    <glyph glyph-name="f_b. RQD" unicode="fb" horiz-adv-x="1830" 
d="M1031 258q0 -48 10.5 -67.5t72.5 -65t169 -45.5q143 0 223 108.5t80 274.5t-75 263.5t-210 97.5q-91 0 -169 -54t-101 -137v-375zM864 402v530q0 44 -2 129l-5 154q-5 109 -11.5 118.5t-18 11.5t-59.5 2h-57v-44l-24 -9q-56 50 -133 50t-113 -24.5t-48 -73t-12 -154.5
v-207h107q27 0 71 2l86 4l9 -11l-18 -88l-9 -10q-13 0 -39 1l-207 1v-403q0 -71 4 -161l5 -108q8 -49 38 -52.5t123 -8.5l8 -8v-42l-8 -9q-189 8 -275 8t-219 -8l-8 9v42l8 8l104 7q36 2 39.5 27.5t8.5 149.5t5 161v388l-129 -9l-9 8v25l7 10l131 67v60q0 91 7.5 143.5
t49.5 125t148 170.5t190 98q51 0 102 -15v-59q185 30 312 73l19 -12q-11 -115 -11 -461v-255q72 95 155 148.5t208 53.5q166 0 266.5 -114.5t100.5 -304.5t-120 -333q-27 -31 -127 -104t-160 -101q-61 -28 -169 -28t-226 81l-81 -76l-33 13q19 182 19 414z" />
    <glyph glyph-name="f_f_b. RQD" unicode="ffb" horiz-adv-x="2481" 
d="M1681 258q0 -48 10.5 -67.5t72.5 -65t169 -45.5q143 0 223 108.5t80 274.5t-75 263.5t-210 97.5q-91 0 -169 -54t-101 -137v-375zM1514 402v530q0 66 -5 223.5t-8.5 168.5t-14 17t-68.5 6h-57v-44l-24 -9q-56 50 -133 50t-113 -24.5t-48 -73t-12 -154.5v-207h107
q27 0 71 2l86 4l9 -11l-18 -88l-9 -10q-13 0 -39 1l-207 1v-403q0 -71 4 -159l6 -109q3 -50 35 -53.5t125 -8.5l8 -8v-42l-8 -9q-189 8 -275 8t-219 -8l-8 9v42l8 8l104 7q36 2 39.5 27.5t8.5 149.5t5 161v388h-483v-403q0 -71 4 -163l5 -107q8 -48 38 -51.5t123 -8.5l8 -8
v-42l-8 -9q-189 8 -275 8t-219 -8l-8 9v42l8 8l104 7q15 1 28 12.5t19 115.5t6 210v388l-129 -9l-9 8v25l7 10l131 67v60q0 91 7.5 143.5t49.5 125t148 170.5t190 98q38 0 82 -15v-164l-24 -9q-56 50 -123 50t-103 -24.5t-48 -73t-12 -154.5v-207h483v60q0 91 7.5 143.5
t49.5 125t148 170.5t190 98q51 0 102 -15v-59q179 27 312 73l19 -12q-11 -115 -11 -461v-255q72 95 155 148.5t208 53.5q166 0 266.5 -114.5t100.5 -304.5t-120 -333q-27 -31 -127 -104t-160 -101q-61 -28 -169 -28t-226 81l-81 -76l-33 13q19 182 19 414z" />
    <glyph glyph-name="f_h. RQD" unicode="fh" horiz-adv-x="1875" 
d="M1708 0q-58 0 -180 -8l-12 11q13 143 13 339v131q0 102 -3.5 154.5t-45 126t-164.5 73.5q-124 0 -203.5 -67t-79.5 -125l-2 -78v-176q0 -69 5 -153l7 -116q3 -45 27 -50.5t118 -10.5l8 -8v-42l-8 -9q-188 8 -268 8t-213 -8l-8 9v42l8 8l104 7q16 1 27 11.5t13.5 22.5
t7.5 132t5 172v518q0 355 -9.5 387.5t-22 39t-61.5 6.5h-60v-44l-22 -9q-73 50 -141 50t-103.5 -23.5t-49.5 -68.5t-14 -160v-207h107q87 0 157 6l9 -11l-18 -88l-9 -10q-27 1 -39 1l-207 1v-403q0 -71 5 -166l6 -103q5 -49 35.5 -52.5t123.5 -8.5l8 -8v-42l-8 -9
q-189 8 -275 8t-219 -8l-8 9v42l8 8l104 7q15 1 28 12.5t19 115.5t6 210v386l-129 -7l-9 8v25l7 10l131 67v60q0 119 14.5 176t63.5 122.5t114.5 130t106.5 86.5t87 22t111 -15v-59q188 26 312 73l19 -12q-11 -115 -11 -461v-247q12 8 79 68l77 69q62 57 171 57t193.5 -44
t114.5 -110.5t30 -193.5v-176q0 -9 3.5 -157.5t7.5 -168.5t16.5 -37t122.5 -17l8 -8v-43l-8 -8q-80 8 -138 8z" />
    <glyph glyph-name="f_f_h. RQD" unicode="ffh" horiz-adv-x="2526" 
d="M2358 0q-58 0 -180 -8l-12 11q13 143 13 339v131q0 102 -3.5 154.5t-45 126t-164.5 73.5q-124 0 -203.5 -67t-79.5 -125l-2 -78v-176q0 -69 3 -155l4 -114q5 -44 30.5 -50t119.5 -11l8 -8v-42l-8 -9q-188 8 -268 8t-213 -8l-8 9v42l8 8l104 7q15 1 28 12.5t19 115.5
t6 210v518q0 355 -9.5 387.5t-22 39t-61.5 6.5h-60v-44l-22 -9q-73 50 -141 50t-103.5 -23.5t-49.5 -68.5t-14 -160v-207h107q87 0 157 6l9 -11l-18 -88l-9 -10q-27 1 -39 1l-207 1v-403q0 -71 3 -159l6 -111q8 -48 38 -51.5t123 -8.5l8 -8v-42l-8 -9q-189 8 -275 8t-219 -8
l-8 9v42l8 8l104 7q16 1 27 11.5t13.5 22.5t7.5 132t5 172v388h-483v-403q0 -71 4 -181l6 -89q7 -48 37 -51.5t123 -8.5l8 -8v-42l-8 -9q-189 8 -275 8t-219 -8l-8 9v42l8 8l104 7q15 1 28 12.5t19 115.5t6 210v386l-129 -7l-9 8v25l7 10l131 67v60q0 91 7.5 143.5t49.5 125
t148 170.5t190 98q38 0 82 -15v-164l-24 -9q-56 50 -123 50t-103 -24.5t-48 -73t-12 -154.5v-207h483v60q0 119 14.5 176t63.5 122.5t114.5 130t106.5 86.5t87 22t111 -15v-59q188 26 312 73l19 -12q-11 -115 -11 -461v-247q12 8 79 68l77 69q62 57 171 57t193.5 -44
t114.5 -110.5t30 -193.5v-176q0 -9 3.5 -157.5t7.5 -168.5t16.5 -37t122.5 -17l8 -8v-43l-8 -8q-80 8 -138 8z" />
    <glyph glyph-name="f_k. RQD" unicode="fk" horiz-adv-x="1798" 
d="M1031 381q0 -69 5 -153l7 -116q3 -45 27 -50.5t118 -10.5l8 -8v-42l-8 -9q-188 8 -268 8t-213 -8l-8 9v42l8 8l104 7q36 2 39.5 27.5t8.5 149.5t5 161v518q0 408 -12.5 420.5t-84.5 12.5h-56v-44l-22 -9q-73 50 -141 50t-103.5 -23.5t-49.5 -68.5t-14 -160v-207h107
q87 0 157 6l9 -11l-18 -88l-9 -10q-27 1 -39 1l-207 1v-403q0 -71 5 -175l7 -98q3 -45 34 -48.5t124 -8.5l8 -8v-42l-8 -9q-189 8 -275 8t-219 -8l-8 9v42l8 8l104 7q36 2 39.5 27.5t8.5 149.5t5 161v386l-129 -7l-9 8v25l7 10l131 67v60q0 108 11 163.5t51.5 113.5
t120.5 138t118.5 101t84.5 21t111 -15v-59q181 26 312 73l19 -12q-11 -115 -11 -461v-469q123 82 282.5 228t177.5 169q70 -3 93 -3t102 3l9 -9v-39l-8 -9q-49 -3 -74.5 -11.5t-78 -45t-224.5 -169.5l-99 -81l137 -141q309 -318 356.5 -334.5t68.5 -16.5v-43
q-75 -19 -191 -61l-131 122l-172 169q-81 79 -147 140l-101 93v-119z" />
    <glyph glyph-name="f_f_k. RQD" unicode="ffk" horiz-adv-x="2449" 
d="M1681 381q0 -69 3 -176l4 -80q2 -46 16.5 -55t27 -11.5t106.5 -7.5l8 -8v-42l-8 -9q-188 8 -268 8t-213 -8l-8 9v42l8 8l104 7q36 2 39.5 27.5t8.5 149.5t5 161v518q0 408 -12.5 420.5t-84.5 12.5h-56v-44l-22 -9q-73 50 -141 50t-103.5 -23.5t-49.5 -68.5t-14 -160v-207
h107q87 0 157 6l9 -11l-18 -88l-9 -10q-27 1 -39 1l-207 1v-405q0 -69 3 -159l6 -105q4 -37 18.5 -46t32 -11t110.5 -7l8 -8v-42l-8 -9q-189 8 -275 8t-219 -8l-8 9v42l8 8l104 7q35 2 39 26t9 149.5t5 160.5v390h-483v-403q0 -71 5 -172l7 -101q3 -45 34 -48.5t123 -8.5
l8 -8v-42l-8 -9q-188 8 -274 8t-219 -8l-8 9v42l8 8l104 7q15 1 28 12.5t19 115.5t6 210v388l-129 -9l-9 8v25l7 10l131 67v60q0 91 7.5 143.5t49.5 125t148 170.5t190 98q38 0 82 -15v-164l-24 -9q-56 50 -123 50t-103 -24.5t-48 -73t-12 -154.5v-207h483v60
q0 108 11 163.5t51.5 113.5t120.5 138t118.5 101t84.5 21t111 -15v-59q181 26 312 73l19 -12q-11 -115 -11 -461v-469q123 82 282.5 228t177.5 169q70 -3 93 -3t102 3l9 -9v-39l-8 -9q-49 -3 -74.5 -11.5t-78 -45t-224.5 -169.5l-99 -81l137 -141q309 -318 356.5 -334.5
t68.5 -16.5v-43q-75 -19 -191 -61l-131 122l-172 169q-81 79 -147 140l-101 93v-119z" />
    <glyph glyph-name="f_j. RQD" unicode="fj" horiz-adv-x="1173" 
d="M936 1175q-46 0 -79 33.5t-33 79.5t32 79t80 33t80.5 -32t32.5 -80t-33.5 -80.5t-79.5 -32.5zM1027 573v-503q0 -205 -34 -334.5t-124 -219.5t-207 -90q-8 0 -22 1l-10 57l10 13q21 -2 34 -2q63 0 111 58.5t59.5 172t11.5 285.5v582q0 178 -4.5 195t-13 26.5t-62.5 10.5
l-85 2l-22 -43h-288v-403q0 -71 5 -177l5 -91q6 -50 36.5 -53.5t123.5 -8.5l8 -8v-42l-8 -9q-189 8 -275 8t-219 -8l-8 9v42l8 8l104 7q15 1 28 12.5t19 115.5t6 210v388l-129 -9l-9 8v25l7 10l131 67v60q0 91 7.5 143.5t49.5 125t148 170.5t190 98q38 0 82 -15v-164l-24 -9
q-56 50 -123 50t-103 -24.5t-48 -73t-12 -154.5v-207h246q179 0 309 42l80 26l18 -13q-7 -92 -7 -367z" />
    <glyph glyph-name="t_t. RQD" unicode="tt" horiz-adv-x="1273" 
d="M1120 787q-59 0 -147 -1l-6 -407q0 -149 12.5 -213t117.5 -64q67 0 124 35l24 -36q-24 -17 -115 -100q-52 -24 -106 -24q-225 0 -225 218l5 171v420h-436l-6 -407q0 -149 12.5 -213t117.5 -64q67 0 124 35l24 -36q-24 -17 -115 -100q-52 -24 -106 -24q-225 0 -225 218
l5 171v415h-41q-45 0 -103 -4l-9 8v26l7 10q94 35 152 65q0 261 -6 304q103 36 169 77l24 -20q-10 -65 -24 -361h439q0 283 -3 304q103 36 169 77l24 -20q-10 -63 -24 -366q50 -1 138 -1t139 6l7 -7l-19 -84l-8 -9q-51 1 -110 1z" />
    <glyph glyph-name=".notdef" horiz-adv-x="1097" 
d="M520 585q0 77 -75 77q-55 0 -87 -42t-31 -108q0 -66 49 -118q50 -52 134 -52t144 64t61 169q0 105 -78 184q-79 79 -195 79t-202 -90t-87 -216q0 -167 111 -277q112 -110 280 -110q168 -1 280 127t113 304t-91 284t-255 146l39 73q183 -39 294 -171t111 -332t-144 -354
q-143 -154 -353 -155q-210 0 -342 130t-133 332q-1 159 113 275t266 116t256 -96q106 -96 106 -236q0 -142 -90 -231t-209 -89t-187 70t-68 168t54 160t130 62t116 -39q38 -39 38 -97q0 -96 -105 -117l-26 43q63 22 63 67z" />
    <glyph glyph-name="glyph1" horiz-adv-x="0" 
 />
    <glyph glyph-name="glyph2" horiz-adv-x="1536" 
 />
    <glyph glyph-name="space" unicode=" " horiz-adv-x="512" 
 />
    <glyph glyph-name="space" unicode="&#xa0;" horiz-adv-x="512" 
 />
    <glyph glyph-name="exclam" unicode="!" horiz-adv-x="569" 
d="M260 221q49 0 84.5 -34.5t35.5 -84.5t-35 -85t-85 -35t-84.5 35t-34.5 85t35 84.5t84 34.5zM379 1428v-106q1 -6 -27 -288t-51 -596l-55 -50l-19 10q-8 201 -47 593l-20 226q-4 62 -4 131q81 38 156 80h67z" />
    <glyph glyph-name="quotedbl" unicode="&#x22;" horiz-adv-x="760" 
d="M105 1385q0 20 25 43q26 23 66 23t64 -23t25 -43q0 -20 -8 -70l-61 -355h-42l-60 355q-9 50 -9 70zM475 1385q0 20 25 43q26 23 66 23t64 -23t25 -43q0 -20 -8 -70l-61 -355h-42l-60 355q-9 50 -9 70z" />
    <glyph glyph-name="quotedbl" unicode="&#x2ba;" horiz-adv-x="760" 
d="M105 1385q0 20 25 43q26 23 66 23t64 -23t25 -43q0 -20 -8 -70l-61 -355h-42l-60 355q-9 50 -9 70zM475 1385q0 20 25 43q26 23 66 23t64 -23t25 -43q0 -20 -8 -70l-61 -355h-42l-60 355q-9 50 -9 70z" />
    <glyph glyph-name="numbersign" unicode="#" horiz-adv-x="981" 
d="M339 515h227l76 423h-227zM172 0l69 381h-148l24 134h148l76 423h-148l24 133h148l60 334h74l-60 -334h227l60 334h75l-60 -334h147l-23 -133h-148l-76 -423h147l-24 -134h-147l-69 -381h-74l68 381h-227l-69 -381h-74z" />
    <glyph glyph-name="dollar" unicode="$" 
d="M797 339q0 114 -55.5 174t-211.5 84v-551q116 3 191.5 91t75.5 202zM213 990q0 -110 69 -158t165 -58v513q-63 -7 -111.5 -33t-85.5 -90t-37 -174zM447 41v566q-104 15 -169.5 32.5t-143 81.5t-77.5 218t95.5 272t294.5 149q-1 96 -4 126l10 9h71l10 -9q-2 -8 -4 -122
q242 -19 334 -82l4 -13q-15 -57 -21 -135l-8 -104l-8 -9h-40l-8 8q-4 98 -17 165q-83 94 -236 97v-528q123 -17 275.5 -58t152.5 -274q0 -119 -52 -217.5t-137 -156t-239 -88.5q2 -153 6 -198l-9 -9h-74l-10 9q2 33 4 194q-212 4 -381 80l-8 15q17 109 28 285l9 8h45l8 -9
q3 -155 6 -178q61 -61 126.5 -93t166.5 -32z" />
    <glyph glyph-name="percent" unicode="%" horiz-adv-x="1720" 
d="M1473 328q0 272 -172 272q-84 0 -136 -75.5t-52 -238.5t60 -212.5t116 -49.5q87 0 135.5 80.5t48.5 223.5zM955 304q0 140 97.5 242t249.5 102q94 0 170 -39t116 -118t40 -165t-41.5 -171t-124.5 -134t-180 -49q-140 0 -233.5 96t-93.5 236zM249 1082q0 -144 48.5 -208.5
t132.5 -64.5t131.5 82t47.5 215q0 279 -172 279q-89 0 -138.5 -79.5t-49.5 -223.5zM91 1089q0 141 98 242.5t250 101.5q93 0 169 -39t116.5 -117.5t40.5 -166.5t-43 -173t-126.5 -132.5t-177.5 -47.5q-138 0 -232.5 95.5t-94.5 236.5zM1303 1466l-789 -1531l-12 -6h-72
l-6 10l789 1531l10 7h74z" />
    <glyph glyph-name="ampersand" unicode="&#x26;" horiz-adv-x="1593" 
d="M268 432q0 -137 99.5 -245t234.5 -108t257 93q-186 197 -266.5 308.5t-153.5 241.5q-99 -70 -135 -142t-36 -148zM730 1156q0 60 -30.5 101.5t-80.5 41.5t-89.5 -42.5t-39.5 -133.5t52 -241q82 58 135 136t53 138zM1410 115q40 0 106 36l12 -6l7 -31l-3 -14
q-81 -57 -168 -129q-32 -7 -70 -7q-179 0 -370 157q-132 -98 -222 -128t-192 -30q-203 0 -310.5 121.5t-107.5 278.5q0 268 314 437q-60 144 -60 251t33 153.5t111.5 112t114 79t76.5 13.5q92 0 138.5 -52.5t46.5 -135.5q0 -209 -291 -407q63 -127 190 -286t224 -235
q102 112 102 234t-32.5 142.5t-84.5 20.5t-106 2l-9 13l65 95q59 -9 171 -9l409 9l9 -9q-15 -59 -20 -121l-10 -8q-115 19 -184 19t-94 -1q12 -42 12 -89q0 -176 -167 -345q183 -131 360 -131z" />
    <glyph glyph-name="quotesingle" unicode="'" horiz-adv-x="426" 
d="M123 1385q0 20 25.5 43t65.5 23t64.5 -23t24.5 -43t-8 -70l-61 -355h-42l-60 355q-9 50 -9 70z" />
    <glyph glyph-name="quotesingle" unicode="&#x2b9;" horiz-adv-x="426" 
d="M123 1385q0 20 25.5 43t65.5 23t64.5 -23t24.5 -43t-8 -70l-61 -355h-42l-60 355q-9 50 -9 70z" />
    <glyph glyph-name="parenleft" unicode="(" horiz-adv-x="682" 
d="M121 458q0 256 64 435t178.5 329t202.5 213l11 -1l31 -39v-11q-312 -336 -312 -878q0 -300 69.5 -512.5t242.5 -420.5l-1 -12l-37 -33l-12 -1q-209 177 -323 426t-114 505z" />
    <glyph glyph-name="parenright" unicode=")" horiz-adv-x="682" 
d="M386 506q0 542 -312 878v11l31 39l11 1q154 -113 299.5 -361.5t145.5 -589.5q0 -276 -110.5 -524.5t-326.5 -432.5l-12 1l-38 33v12q173 208 242.5 421t69.5 512z" />
    <glyph glyph-name="asterisk" unicode="*" horiz-adv-x="797" 
d="M418 1060l132 -244l-3 -26q-27 -12 -67 -36l-55 -33l-25 9l-43 302l-218 -204l-27 3q-35 92 -54 123l10 28q66 17 259 106l-260 125q-2 0 -8 2l-4 22q21 34 71 124h24l207 -216l59 285l16 11q66 -22 130 -36l5 -20q-23 -39 -67 -112.5t-82 -151.5l280 47l19 -14
q3 -51 25 -131l-20 -16q-133 33 -304 53z" />
    <glyph glyph-name="plus" unicode="+" 
d="M994 576h-424v-424h-116v424h-424v112h424v424h116v-424h424v-112z" />
    <glyph glyph-name="comma" unicode="," horiz-adv-x="512" 
d="M-14 -288q137 228 153.5 306t28.5 175q6 3 66 17t138 43l25 -28q-127 -295 -301 -499l-85 -39z" />
    <glyph glyph-name="hyphen" unicode="-" horiz-adv-x="682" 
d="M45 430v14l45 134h535v-15l-48 -133h-532z" />
    <glyph glyph-name="hyphen" unicode="&#x2011;" horiz-adv-x="682" 
d="M45 430v14l45 134h535v-15l-48 -133h-532z" />
    <glyph glyph-name="hyphen" unicode="&#x2010;" horiz-adv-x="682" 
d="M45 430v14l45 134h535v-15l-48 -133h-532z" />
    <glyph glyph-name="hyphen" unicode="&#xad;" horiz-adv-x="682" 
d="M45 430v14l45 134h535v-15l-48 -133h-532z" />
    <glyph glyph-name="period" unicode="." horiz-adv-x="512" 
d="M255 221q49 0 84.5 -34.5t35.5 -84.5t-34.5 -85t-84.5 -35t-85 34.5t-35 84.5t35 85t84 35z" />
    <glyph glyph-name="slash" unicode="/" horiz-adv-x="656" 
d="M0 -236l540 1717l10 8h100l6 -10l-540 -1716l-11 -9h-98z" />
    <glyph glyph-name="zero" unicode="0" 
d="M514 30q90 0 177.5 89t87.5 547q0 342 -65.5 506t-205.5 164t-207 -127t-67 -555t95 -526t185 -98zM488 -40q-426 0 -426 672q0 158 18 300t110 309t334 167q134 0 235.5 -69t146 -212t44.5 -389q0 -400 -122.5 -589t-339.5 -189z" />
    <glyph glyph-name="one" unicode="1" 
d="M617 883v-371q0 -356 9 -388.5t23.5 -44.5t40.5 -15.5t155 -10.5l7 -8v-45l-7 -8q-219 8 -298 8t-344 -8l-7 8v45l8 8q150 11 171.5 16t33 17.5t18.5 47.5t11.5 207t4.5 176v394q0 290 -1.5 315t-17.5 25q-9 0 -55 -20l-99 -44q-62 -27 -117 -57l-18 6l-10 82l10 10
q100 29 253 93t219 98l26 -10q-16 -438 -16 -526z" />
    <glyph glyph-name="two" unicode="2" 
d="M466 0q-302 0 -420 -10l-12 10v46l335 355q207 219 268 339t61 233t-74 194t-200 81q-81 0 -141 -25t-80.5 -56t-59.5 -174l-9 -8h-41l-10 9q23 135 32 267q94 92 175.5 117.5t179.5 25.5t194.5 -40t155.5 -129.5t59 -192.5t-34.5 -191.5t-101 -171t-181.5 -197.5
l-312 -318h395q182 0 303 13l7 -8q-6 -35 -6 -87t6 -81l-7 -11q-180 10 -482 10z" />
    <glyph glyph-name="three" unicode="3" 
d="M854 1108q0 -184 -223 -341q173 -21 243.5 -103.5t70.5 -199.5q0 -192 -174 -345.5t-402 -153.5q-134 0 -265 58q-18 118 -67 284l5 15l37 14l14 -7q35 -92 75 -152t115 -92t173 -32t198 71t100 278q0 133 -69.5 209t-192.5 76q-42 0 -75 -8t-102 -36l-11 10l22 109
q81 -5 108 -5q117 0 185.5 83t68.5 189t-71.5 173t-158.5 67q-154 0 -250 -96q-17 -34 -54 -134l-10 -9h-45l-8 9l60 232q125 141 339 141q163 0 263.5 -86.5t100.5 -217.5z" />
    <glyph glyph-name="four" unicode="4" 
d="M144 492h427l9 711q-96 -137 -242 -376t-194 -335zM571 291v74h-219q-191 0 -323 -6l-17 54q174 326 581 944l141 57l25 -12q-11 -170 -11 -421l-3 -282v-207q138 1 213 6l9 -10q-3 -56 1 -120l-10 -9q-97 6 -162 6h-51v-67q0 -194 25 -219.5t189 -27.5l9 -8v-43l-8 -8
q-176 8 -332 8t-299 -8l-8 8v43l8 8q148 4 175.5 9t47 29t19.5 202z" />
    <glyph glyph-name="five" unicode="5" 
d="M502 1379q172 0 380 12l4 -10q-7 -49 -7 -81t3 -80l-10 -6q-114 8 -340 8t-269 -2q-15 -118 -21 -416q82 60 148 81.5t159 21.5t193 -50t149.5 -145t49.5 -205q0 -203 -167.5 -373.5t-428.5 -170.5q-114 0 -214 51q-24 78 -99 258l2 13l35 20l12 -3q83 -151 103.5 -171.5
t93.5 -48t164 -27.5t207 65.5t116 295.5q0 231 -114.5 290.5t-186.5 59.5t-118 -15t-76.5 -38.5t-72.5 -69.5l-41 12l11 215q4 61 4 123v178l-8 210l13 10q154 -12 326 -12z" />
    <glyph glyph-name="six" unicode="6" 
d="M252 417q0 -87 28.5 -184t91.5 -150t142 -53t141 41t94.5 128.5t32.5 184.5t-32 173.5t-93 119t-131 42.5t-130.5 -29t-93 -66t-41.5 -78.5t-9 -128.5zM628 838q80 0 203.5 -68t123.5 -318q0 -167 -81 -279.5t-172 -161t-209 -48.5q-201 0 -312 150.5t-111 391.5
q0 516 289 698t432 215l73 -35v-12q-109 -23 -248.5 -109t-234.5 -231t-110 -350q35 25 85 63t76.5 54t71 28t124.5 12z" />
    <glyph glyph-name="seven" unicode="7" 
d="M524 1222q-282 0 -306.5 -11.5t-31 -22.5t-14.5 -76l-18 -141l-9 -8h-42l-9 8l5 274q0 47 -5 145l20 10q55 -6 223.5 -13t298.5 -7t370 14l8 -8v-52l-144 -255q-420 -750 -544 -1079l-10 -8q-56 5 -94 5t-87 -5l-21 21q36 54 149 232l183 292l172 281l150 258
q48 84 76 136l-10 10h-310z" />
    <glyph glyph-name="eight" unicode="8" 
d="M207 340q0 -143 80 -224.5t206 -81.5q86 0 156 40t104.5 109.5t34.5 151.5q0 118 -82.5 184t-288.5 154q-118 -70 -164 -150.5t-46 -182.5zM752 1104q0 96 -66 163t-174 67t-178.5 -59.5t-70.5 -153.5t45.5 -153.5t260.5 -162.5q107 67 145 135t38 164zM110 1030
q0 153 113 262.5t308 109.5q99 0 183.5 -34.5t130.5 -103t46 -154.5t-54 -166.5t-191 -163.5v-9q117 -56 173.5 -95t92.5 -105.5t36 -169.5t-68.5 -212.5t-180.5 -166.5t-232 -57q-175 0 -289 97.5t-114 245.5t78.5 243.5t193.5 148.5v9q-111 59 -168.5 135.5t-57.5 185.5z
" />
    <glyph glyph-name="nine" unicode="9" 
d="M225 991q0 -87 30.5 -170.5t93.5 -129t165 -45.5t173.5 79.5t71.5 240.5t-70.5 265.5t-192.5 104.5t-196.5 -88t-74.5 -257zM420 522q-115 0 -241.5 81.5t-126.5 310.5t130.5 360t324.5 131t314.5 -141t120.5 -406q0 -398 -183.5 -575t-310 -241.5t-249.5 -81.5l-66 32
v19q278 64 437 244.5t179 441.5q-147 -175 -329 -175z" />
    <glyph glyph-name="colon" unicode=":" horiz-adv-x="512" 
d="M255 221q49 0 84.5 -34.5t35.5 -84.5t-34.5 -85t-84.5 -35t-85 34.5t-35 84.5t35 85t84 35zM256 928q49 0 84 -35t35 -85t-34.5 -84.5t-84.5 -34.5t-85 35.5t-35 85.5t35.5 84t84.5 34z" />
    <glyph glyph-name="semicolon" unicode=";" horiz-adv-x="512" 
d="M21 -290q137 230 153.5 307.5t28.5 174.5q100 20 204 61l25 -29q-127 -296 -301 -500l-84 -37zM292 928q49 0 84 -35.5t35 -84.5t-34.5 -84t-84.5 -35t-85 35t-35 85t35.5 84.5t84.5 34.5z" />
    <glyph glyph-name="less" unicode="&#x3c;" 
d="M994 116l-964 466v100l964 466v-126l-816 -390l816 -390v-126z" />
    <glyph glyph-name="equal" unicode="=" 
d="M994 424h-964v112h964v-112zM994 728h-964v112h964v-112z" />
    <glyph glyph-name="greater" unicode="&#x3e;" 
d="M994 582l-964 -466v126l816 390l-816 390v126l964 -466v-100z" />
    <glyph glyph-name="question" unicode="?" horiz-adv-x="909" 
d="M406 221q49 0 84 -34.5t35 -84.5t-34.5 -85t-84.5 -35t-85.5 35t-35.5 85t36 84.5t85 34.5zM304 501q0 59 29 111.5t119 153.5t128.5 166t38.5 129q0 99 -73 164.5t-178 65.5q-59 0 -128 -27q-28 -27 -50 -75l-38 -76l-12 -8l-44 5l-6 14l77 232q117 76 239 76
t210.5 -38.5t139 -114.5t50.5 -155t-20.5 -134t-60 -107.5t-131.5 -134.5t-148 -142t-56 -118q0 -59 40 -103l-2 -14l-26 -20h-16q-82 63 -82 150z" />
    <glyph glyph-name="at" unicode="@" horiz-adv-x="1399" 
d="M511 524q0 -197 114 -197q101 0 153 114t75.5 215.5t23.5 159.5t-29 95.5t-86 37.5t-111.5 -52.5t-97 -161t-42.5 -211.5zM660 -42q-272 0 -442 167t-170 426q0 294 212.5 495.5t520.5 201.5q247 0 408.5 -134t161.5 -356q0 -190 -119 -346.5t-264 -156.5
q-66 0 -106.5 36.5t-40.5 92.5q0 12 2 33l-11 2q-45 -75 -99.5 -114t-144.5 -39t-142 67.5t-52 189.5q0 174 106.5 323.5t273.5 149.5q115 0 156 -91l13 70l106 23l11 -11q-26 -97 -71.5 -308t-45.5 -263q0 -102 84 -103q63 0 122.5 55t99 157.5t39.5 230.5
q0 227 -140 335.5t-341 108.5q-149 0 -295.5 -74.5t-237.5 -228t-91 -326.5t60.5 -296.5t177.5 -192.5t267 -69t272.5 48.5t203.5 121.5l8 -8q-12 -23 -15 -48q-205 -169 -477 -169z" />
    <glyph glyph-name="A" unicode="A" horiz-adv-x="1593" 
d="M500 553h506l-251 603zM1182 101.5q0 24.5 -14 60.5l-123 305h-579l-109 -256q-29 -69 -29 -97.5t27 -40.5t136 -13l9 -8v-52l-8 -8q-129 8 -232.5 8t-215.5 -8l-9 8v52l9 8q73 1 94 7.5t37.5 26t66.5 127.5l105 228l272 616q77 181 153 362h65l484 -1138
q79 -181 97 -198t36.5 -23.5t82.5 -7.5l8 -8v-52l-8 -8q-106 9 -231.5 6.5t-291.5 -6.5l-8 8v52l8 8q112 2 140 9.5t28 32z" />
    <glyph glyph-name="B" unicode="B" horiz-adv-x="1251" 
d="M586 77q112 0 193 46t119.5 127.5t38.5 177.5q0 144 -81.5 230.5t-352.5 86.5q-45 0 -108 -4v-341l2 -305q77 -18 189 -18zM877 1097q0 236 -309 236q-93 0 -164 -15q-9 -90 -9 -314v-180q50 -4 113 -4q207 0 288 74t81 203zM204 511v367l-1 227q0 196 -18 214t-73 24
l-76 6l-8 7v50l8 7q171 -8 264 -8l390 10q135 0 214 -27t127 -95.5t48 -167.5t-80 -194t-260 -136q108 -10 178 -29t150.5 -81.5t80.5 -218.5t-128.5 -315t-447.5 -159l-288 8q-68 0 -167 -8l-8 8v33l8 10q58 26 67 36t14.5 177t5.5 255z" />
    <glyph glyph-name="C" unicode="C" horiz-adv-x="1452" 
d="M988 70q223 0 390 120l17 -21l-38 -93q-222 -113 -474 -113q-361 0 -586.5 205t-225.5 536q0 228 112.5 398.5t297 255t414.5 84.5q133 0 263 -28t217 -67l7 -10q-23 -56 -43 -277l-7 -8h-47l-8 8l-10 170q-73 58 -176.5 90.5t-215.5 32.5q-169 0 -303 -72.5t-208 -209.5
t-74 -337t87 -351t237.5 -232t373.5 -81z" />
    <glyph glyph-name="D" unicode="D" horiz-adv-x="1585" 
d="M635 81q233 0 372.5 78t208.5 231t69 345q0 283 -151 439t-476 156q-134 0 -258 -20q-8 -164 -8 -370v-314l2 -294q0 -86 6 -231q102 -20 235 -20zM206 511v367l-1 227q0 151 -7 179t-17 40t-67 19l-76 6l-8 7v50l8 7q173 -8 236 -8l468 10q200 0 328 -37.5t279 -178
t151 -428.5q0 -135 -47 -267t-204.5 -322t-574.5 -190l-388 8q-69 0 -167 -8l-8 8v33l8 10q59 30 67.5 37.5t14 175t5.5 255.5z" />
    <glyph glyph-name="E" unicode="E" horiz-adv-x="1251" 
d="M636 1407q212 0 468 6l5 -7q-25 -96 -37 -301l-6 -8h-49l-9 8q1 9 1 55t-13 123q-101 45 -342 45q-79 0 -202 -11l-4 -160l-6 -386q108 -6 200 -6q196 0 220 15t31 94l4 62l8 8h46l8 -8q-2 -109 -5 -219l5 -225l-8 -8h-46l-8 8l-7 60q-9 70 -13 84q-5 14 -19 23
q-32 22 -239 22q-58 0 -177 -5q-5 -84 -5 -287t5 -302h184q243 0 304 6t116 29q9 23 29.5 106.5t23.5 104.5l10 7h48l8 -7q-9 -43 -17.5 -150t-8.5 -183l-7 -8q-191 6 -500 6l-272 2q-95 0 -198 -8l-8 8v33l8 10q59 30 67.5 37.5t14 175t5.5 255.5v367l-1 227q0 151 -7 179
t-17 40t-67 19l-76 6l-8 7v50l8 7q343 -6 555 -6z" />
    <glyph glyph-name="F" unicode="F" horiz-adv-x="1139" 
d="M636 677q-149 0 -200 -3v-203l1 -195q2 -170 16 -185.5t41 -23t133 -11.5l8 -6v-50l-8 -8q-255 8 -287 8t-286 -8l-8 8v50l8 6q145 6 160.5 21t22 45t7.5 136l1 213v463l-2 195q-1 170 -15 186t-41 23t-133 11l-8 7v50l8 7q424 -6 578 -6t405 6l8 -7q-16 -50 -21 -113.5
t-11 -179.5l-8 -8h-47l-7 8q-2 7 -8 69t-17 109q-104 35 -236 35t-243 -12q-11 -78 -11 -380v-173q126 -2 192 -2t127 6.5t73 12.5t18.5 22.5t12.5 72.5l6 54l7 8h51l8 -9l-7 -219l7 -237l-9 -8h-50l-7 8l-4 85q-5 91 -40.5 106.5t-184.5 15.5z" />
    <glyph glyph-name="G" unicode="G" horiz-adv-x="1563" 
d="M1412 262q0 -82 11 -184l-6 -10q-273 -105 -529 -105t-435 84t-284 249t-105 392q0 346 236.5 550t617.5 204q280 0 503 -95l7 -11q-18 -67 -42 -281l-8 -7h-46l-8 8l-5 106q-3 52 -9.5 69t-130.5 69.5t-299 52.5t-316 -76t-212.5 -221.5t-71.5 -326.5t77 -339.5
t221 -247.5t337 -89t310 63q9 32 9 129v111q0 79 -10 98.5t-49.5 27.5t-170.5 10l-9 9v44l9 9l61 -2q157 -5 235 -5t188 6l10 -8v-30l-4 -12l-49 -29q-18 -11 -21 -17t-7.5 -59.5t-4.5 -135.5z" />
    <glyph glyph-name="H" unicode="H" horiz-adv-x="1704" 
d="M346 1405q32 0 286 8l8 -7v-50l-8 -7q-135 -4 -156.5 -18t-27 -54.5t-5.5 -112.5l-2 -230v-140q219 -6 451 -6t372 6v140l-2 195q-1 168 -15 185t-41 24t-134 11l-7 7v50l7 7q256 -8 288 -8t286 8l8 -7v-50l-8 -7q-136 -4 -157.5 -18t-26.5 -54.5t-6 -112.5l-2 -230v-463
l2 -195q1 -168 15.5 -184.5t41 -24t133.5 -11.5l8 -6v-50l-8 -8q-256 8 -288 8t-286 -8l-7 8v50l7 6q146 6 161 20.5t22 45.5t7 138l2 211v228q-296 6 -416 6t-407 -6v-228l1 -195q1 -168 15.5 -184.5t41.5 -24t133 -11.5l8 -6v-50l-8 -8q-254 8 -286 8t-287 -8l-8 8v50l8 6
q144 6 160 20.5t22.5 45.5t7.5 138l1 211v463l-2 195q-1 170 -15 186t-41 23t-133 11l-8 7v50l8 7q255 -8 287 -8z" />
    <glyph glyph-name="I" unicode="I" horiz-adv-x="690" 
d="M343 1405q36 0 289 8l8 -7v-50l-8 -7q-135 -4 -156.5 -18t-27 -54.5t-5.5 -112.5l-2 -230v-463l1 -195q0 -168 20 -190q10 -11 37 -18.5t133 -11.5l8 -6v-50l-8 -8l-287 8q-31 0 -286 -8l-8 8v50l8 6q144 6 160 20.5t22.5 45.5t7.5 138l1 211v463l-2 195q-1 170 -15 186
t-41 23t-133 11l-8 7v50l8 7l125 -4q123 -4 159 -4z" />
    <glyph glyph-name="J" unicode="J" horiz-adv-x="682" 
d="M436 216q0 -158 -28 -258.5t-132 -227.5t-258 -127q-21 0 -42 5q4 85 0 154l19 13q51 -38 103 -38q100 0 124 57.5t24 270.5v869l-2 195q-1 169 -15.5 185.5t-41 23.5t-133.5 11l-7 7v50l7 7q254 -8 288 -8t286 8l7 -7v-50l-7 -7q-136 -4 -157.5 -18t-27 -54.5
t-5.5 -112.5l-2 -230v-718z" />
    <glyph glyph-name="K" unicode="K" horiz-adv-x="1487" 
d="M343 1405q36 0 289 8l8 -7v-50l-8 -7q-135 -4 -156.5 -18t-27 -54.5t-5.5 -112.5l-2 -230v-210q251 227 279 254l184 184q156 157 170 178v65l10 8q76 -4 131 -4t193 3l10 -9v-47l-8 -8q-93 0 -138 -14t-239 -192l-405 -370l602 -557q145 -135 162.5 -147t72.5 -14l7 -8
v-42l-7 -8q-57 4 -107 4t-175 -4q-91 86 -159.5 152t-582.5 536v-213l1 -195q1 -168 15.5 -184.5t41.5 -24t133 -11.5l8 -6v-50l-8 -8l-287 8q-31 0 -286 -8l-8 8v50l8 6q144 6 160 20.5t22.5 45.5t7.5 138l1 211v463l-2 195q-1 170 -15 186t-41 23t-133 11l-8 7v50l8 7
l125 -4q123 -4 159 -4z" />
    <glyph glyph-name="L" unicode="L" horiz-adv-x="1251" 
d="M329 1405q36 0 289 8l8 -7v-50l-8 -7q-135 -4 -156.5 -18t-27 -54.5t-5.5 -112.5l-2 -230v-442q0 -166 2 -232l5 -173h204q244 0 304.5 6t116.5 29q11 25 31.5 115t21.5 104l9 8h49l7 -8q-8 -40 -16.5 -155t-8.5 -186l-8 -8q-190 6 -499 6l-292 2q-100 0 -204 -8l-8 8v33
l8 10q62 32 68 39t12.5 129t6.5 294v429l-2 195q-1 170 -15 186t-41 23t-133 11l-8 7v50l8 7q248 -8 284 -8z" />
    <glyph glyph-name="M" unicode="M" horiz-adv-x="1937" 
d="M1690 470q0 -339 12.5 -366t37.5 -36.5t142 -12.5l8 -7v-49l-9 -8q-163 9 -265 9t-298 -9l-9 8v48l8 8q110 3 136.5 11t37.5 26.5t13 73.5t5 304v734l-345 -722q-130 -271 -227 -510h-39q-56 129 -92 206l-478 993v-699q0 -343 12.5 -368t37.5 -35t142 -12l8 -8v-48
l-9 -9l-64 3q-99 5 -151 5t-258 -8l-8 8v48l8 9q110 2 136 10t37.5 27t13 71t4.5 307v458q0 341 -12 367t-37 36t-142 12l-8 8v48l9 9q69 -5 183 -5t195 5q84 -194 161 -351l379 -778l342 713q139 289 187 416q96 -5 184 -5t203 5l9 -8v-49l-8 -7q-110 -3 -136.5 -11
t-37.5 -26.5t-12.5 -72.5t-5.5 -305v-461z" />
    <glyph glyph-name="N" unicode="N" horiz-adv-x="1702" 
d="M235 424v808q0 92 -50.5 102.5t-127.5 11.5l-8 8v47l8 9q138 -5 210 -5t137 5l319 -414l469 -588q85 -107 173 -203v774q0 227 -8.5 280.5t-26.5 69.5t-135 18l-8 8v46l8 9q81 -5 225 -5t205 5l9 -9v-46l-8 -8q-131 -2 -150.5 -34.5t-19.5 -333.5v-475l1 -275
q2 -135 4 -271q-50 17 -173 42l-284 344l-678 847v-767q0 -247 8.5 -289.5t23 -60t137.5 -18.5l8 -8v-47l-8 -8q-53 7 -185 7t-244 -7l-9 9v46l9 8q126 2 147.5 31t21.5 337z" />
    <glyph glyph-name="O" unicode="O" horiz-adv-x="1610" 
d="M256 755q0 -123 40 -263t118 -240q155 -199 414 -199q155 0 276 71t184 220.5t63 343.5t-72 357t-205 237t-295 74q-243 0 -383 -152t-140 -449zM48 706q0 302 190 504q217 232 568.5 231.5t553.5 -186t202 -506.5q0 -226 -99 -406t-283.5 -280t-414.5 -100
q-339 0 -533 217q-96 108 -140 250t-44 276z" />
    <glyph glyph-name="P" unicode="P" horiz-adv-x="1237" 
d="M1187 1102q0 -201 -149.5 -318.5t-321.5 -117.5q-62 0 -138 14l-17 61l9 10q75 -17 122 -17q131 0 210.5 86t79.5 222t-82.5 217t-249.5 81q-91 0 -200 -34q-9 -77 -9 -372v-463l1 -195q1 -168 15.5 -184.5t41.5 -24t133 -11.5l8 -6v-50l-8 -8q-255 8 -288 8t-285 -8
l-8 8v50l8 6q144 6 160 20.5t22.5 45.5t7.5 138l1 211v463l-2 195q-1 170 -15 186t-41 23t-133 11l-8 7v50l8 7q252 -8 321 -8l364 9q140 0 231.5 -29t151.5 -106t60 -177z" />
    <glyph glyph-name="Q" unicode="Q" horiz-adv-x="1610" 
d="M256 755q0 -122 39.5 -262.5t156.5 -290t376 -149.5q155 0 276 71t184 220.5t63 343.5t-72 357t-205 237t-295 74q-243 0 -383 -152t-140 -449zM48 704q0 324 214.5 530.5t554.5 206.5q221 0 390 -81t262 -238t93 -375t-108.5 -417.5t-298.5 -278.5t-332 -88
q84 -12 298 -97t329 -86q41 0 99 18l10 -7v-34l-4 -10q-14 -11 -72 -43t-86 -62q-73 0 -156 24.5t-269 88.5t-230 64q-42 0 -68.5 -10.5t-73.5 -38.5l-49 -28l-10 6v46l6 12q159 123 254 157q-263 0 -418.5 88.5t-245 264.5t-89.5 388z" />
    <glyph glyph-name="R" unicode="R" horiz-adv-x="1368" 
d="M1176 1104q0 -84 -69 -211t-342 -179q28 -39 101 -135l142 -188q219 -295 246 -311t43.5 -19t52.5 -3l8 -8v-47l-9 -9q-49 6 -117 6t-152 -6q-69 84 -229 308t-340 428l10 31q52 -3 81 -3q173 0 271 83t98 223t-87.5 207t-215.5 67t-221 -29q-15 -22 -15 -375v-463
l1 -195q1 -168 15.5 -184.5t41.5 -24t133 -11.5l8 -6v-50l-8 -8l-287 8q-31 0 -286 -8l-8 8v50l8 6q144 6 160 20.5t22.5 45.5t7.5 138l1 211v463l-2 195q-1 170 -15 186t-41 23t-133 11l-8 7v50l8 7q183 -8 285 -8l408 9q253 0 343 -92t90 -218z" />
    <glyph glyph-name="S" unicode="S" horiz-adv-x="1075" 
d="M500 56q92 0 176 39t131 114.5t47 155.5t-22.5 129t-63 78.5t-92.5 44.5t-154 31t-198 38t-172 106.5t-76 224.5q0 187 130 306.5t342 119.5t383 -85l7 -12q-22 -92 -27 -262l-9 -8h-52l-8 7q-2 120 -6 151t-91 77t-181 46t-167.5 -34t-111.5 -106.5t-38 -140.5
t23 -113.5t59.5 -72t85 -39.5t201.5 -35t233.5 -57.5t129 -112.5t48.5 -186q0 -213 -173.5 -355t-400.5 -142t-383 74l-6 13q10 63 15 294l8 8h49l8 -8q5 -128 13.5 -156.5t54 -60t121 -51.5t167.5 -20z" />
    <glyph glyph-name="T" unicode="T" horiz-adv-x="1255" 
d="M918 1315h-189q-8 -226 -8 -261v-583l2 -195q2 -171 15.5 -186t40.5 -22.5t134 -11.5l7 -6v-50l-7 -8q-256 8 -287 8t-284 -8l-8 8v50l8 6q144 6 160 20.5t23 45.5t7 138l2 211v583q0 16 -8 261h-149q-221 0 -234 -20.5t-22 -111.5l-10 -92l-9 -9h-46l-8 8q-2 241 -9 314
l9 9q174 -8 583 -8t576 8l9 -9q-9 -90 -9 -314l-8 -8h-47l-8 9l-11 92q-8 74 -12.5 90.5t-21 29t-181.5 12.5z" />
    <glyph glyph-name="U" unicode="U" horiz-adv-x="1593" 
d="M322 1405q36 0 289 8l8 -7v-50l-8 -7q-135 -4 -156.5 -18t-27 -54.5t-5.5 -112.5l-2 -230v-318q0 -156 6 -230q13 -144 103 -219t303 -75q110 0 205.5 30.5t145.5 88.5t65.5 152.5t15.5 262.5v308q0 340 -12 366t-37.5 36.5t-141.5 12.5l-8 8v47l8 9q148 -8 230.5 -8
t242.5 8l9 -8v-48l-9 -8q-141 -3 -157.5 -19t-22 -39t-7.5 -132l-3 -225v-304q0 -182 -14 -287q-24 -181 -170 -280.5t-410 -99.5t-401 113q-62 51 -89 107.5t-35 133t-8 233.5v384l-2 195q-1 170 -15 186t-41 23t-133 11l-8 7v50l8 7q248 -8 284 -8z" />
    <glyph glyph-name="V" unicode="V" horiz-adv-x="1479" 
d="M286 1405q104 0 269 8l8 -8v-55l-8 -8q-121 0 -144.5 -8t-23.5 -24q0 -39 89 -270l313 -791l261 656q27 67 79 216t52 177t-24.5 34.5t-146.5 16.5l-9 8v48l9 8q174 -8 218 -8t207 8l8 -8v-48l-8 -8q-72 -3 -87 -11t-26.5 -31t-71.5 -158l-312 -768q-105 -257 -149 -399
h-101q-15 44 -125 336l-340 841q-58 144 -73 163.5t-120 26.5l-9 9v46l9 9q152 -8 256 -8z" />
    <glyph glyph-name="W" unicode="W" horiz-adv-x="2048" 
d="M272 1405q97 0 256 8l9 -9v-44l-8 -8q-111 -4 -133.5 -11t-22.5 -31t20 -135t36 -181l157 -693l247 615q97 244 191 511h64q80 -251 165 -487l235 -652l170 597q102 369 102 424q0 27 -25 33.5t-144 9.5l-8 9v44l8 8q169 -8 203 -8t210 8l8 -8v-45l-8 -7
q-57 -2 -76 -10.5t-33 -26t-40 -102.5l-161 -523q-22 -73 -81 -296l-111 -414h-102q-104 310 -172 496l-228 617l-199 -494l-107 -280q-42 -111 -67 -181l-55 -158h-101l-91 417l-193 823q-23 98 -48 109.5t-108 21.5l-8 8v44l8 9q144 -8 241 -8z" />
    <glyph glyph-name="X" unicode="X" horiz-adv-x="1366" 
d="M1203 1414q13 0 98 3l8 -9v-45l-8 -8q-63 -3 -83.5 -11.5t-53 -42.5t-132.5 -169l-261 -352l339 -548q91 -148 117 -159t90 -12l8 -8v-49l-8 -8q-95 4 -140 4t-148 -4q-60 89 -111 177l-263 449l-73 -101q-144 -198 -339 -525q-65 4 -103 4t-100 -4l-9 9v48l8 8
q67 1 90 12.5t59 57t141 191.5l273 379l-177 301q-20 34 -87.5 131.5t-106 135.5t-57.5 44t-105 6l-9 9v42l9 9l283 47q37 -24 79.5 -79.5t123.5 -195.5l168 -292l382 558q85 -3 98 -3z" />
    <glyph glyph-name="Y" unicode="Y" horiz-adv-x="1366" 
d="M1243 1409q30 0 77 4l8 -8v-19q-50 -55 -155 -199.5t-156.5 -226t-126.5 -205t-82 -148.5t-7 -59v-147l1 -150q2 -145 22 -167q10 -10 36 -17t132 -11l8 -6v-50l-8 -8l-287 8q-32 0 -286 -8l-8 8v50l8 6q144 6 160 20.5t22 42t7 112.5l2 171v190q-22 54 -147 259l-88 143
q-184 298 -258 320q-19 6 -102 5l-9 9v42l9 9l283 47q30 -21 58.5 -53t120.5 -180t268 -497l102 162l327 555q39 -4 69 -4z" />
    <glyph glyph-name="Z" unicode="Z" horiz-adv-x="1366" 
d="M168 1250q0 84 -5 154l9 9q357 -8 546 -8t573 8l9 -9v-51q-110 -130 -154 -186l-833 -1073l405 -7q415 0 444.5 23.5t34.5 35t16 68.5l22 134l9 8h47l8 -8q-7 -64 -14 -348l-9 -8q-422 8 -630 8t-601 -8l-9 9v48l241 298l571 735q130 166 175 238h-41l-161 1
q-533 0 -553 -26t-26 -73l-14 -132l-9 -9h-47l-9 9q5 76 5 160z" />
    <glyph glyph-name="bracketleft" unicode="[" horiz-adv-x="682" 
d="M180 370q0 592 -1.5 744.5t-10.5 275.5l18 23q116 -5 188 -5t204 5l9 -7v-57l-5 -7q-21 -2 -96 -6t-92.5 -11t-27 -22.5t-16.5 -120.5t-7 -656v-415l3 -236q4 -149 12 -175t18.5 -35t31.5 -13t170 -8l9 -10v-52l-9 -10l-186 5q-84 0 -203 -5l-21 18q12 188 12 780z" />
    <glyph glyph-name="backslash" unicode="\" horiz-adv-x="1241" 
d="M926 -236l-7 -10h-98l-11 9l-540 1716l7 10h99l10 -8z" />
    <glyph glyph-name="bracketright" unicode="]" horiz-adv-x="682" 
d="M300 1408q72 0 186 5l18 -23q-12 -108 -12 -760t1.5 -774.5t10.5 -265.5l-21 -18q-121 5 -181 5t-208 -5l-9 10v52l9 10l131 3q75 2 89.5 54t14.5 624l-1 346l-2 340q-3 267 -17 287t-30.5 27t-92.5 11t-96 6l-5 7v57l9 7q134 -5 206 -5z" />
    <glyph glyph-name="asciicircum" unicode="^" 
d="M969 671h-127l-330 624l-330 -624h-127l395 749h124z" />
    <glyph glyph-name="underscore" unicode="_" 
d="M0 -328v120h1024v-120h-1024z" />
    <glyph glyph-name="grave" unicode="`" horiz-adv-x="682" 
d="M510 1117l-3 -13l-29 -15l-13 4l-294 374l17 25l13 3l72 -14q23 -5 84 -15z" />
    <glyph glyph-name="a" unicode="a" 
d="M258 252q0 -156 155 -156q133 0 263 154v270q-280 -47 -349 -101t-69 -167zM511 954q115 0 191 -43q144 -81 144 -258l-5 -201v-298q0 -61 8.5 -74t19.5 -17.5t41 -7.5l57 -5l8 -9v-40l-8 -8q-73 6 -134.5 6t-145.5 -6l-15 14l4 161l-218 -170q-55 -23 -127.5 -23
t-130.5 29q-118 60 -118 207t92 229.5t502 140.5q0 148 -66 208.5t-177 60.5q-58 0 -105.5 -17t-54.5 -27.5t-54 -122.5l-7 -5l-39 10l-8 10v124q178 132 346 132z" />
    <glyph glyph-name="b" unicode="b" horiz-adv-x="1133" 
d="M316 258q0 -47 4.5 -61.5t40 -44t91.5 -51t116 -21.5q142 0 222.5 110t80.5 279q0 226 -100.5 290.5t-192.5 64.5t-167 -58.5t-95 -132.5v-375zM470 -30q-109 0 -226 81l-81 -76l-33 13q19 182 19 414v530l-4 192q-5 193 -13.5 204t-23 15t-121.5 4l-9 9v42l8 9
q191 22 322 74l19 -12q-11 -115 -11 -461v-255q19 25 71 76.5t109.5 88.5t176.5 37t204.5 -56t127 -149.5t41.5 -197.5t-34 -195t-72 -137t-143 -122t-161.5 -102t-165.5 -26z" />
    <glyph glyph-name="c" unicode="c" horiz-adv-x="909" 
d="M629 73q92 0 218 60l21 -26l-40 -67q-129 -71 -288 -71q-220 0 -340 131t-120 324q0 275 90 341t180.5 116t136.5 65.5t127 15.5q155 0 254 -59q-19 -113 -29 -252l-9 -8h-41l-9 9q-4 84 -11 113t-79.5 62t-154.5 33t-178.5 -52t-96.5 -283q0 -92 26 -179.5t68.5 -145
t112.5 -92.5t162 -35z" />
    <glyph glyph-name="d" unicode="d" horiz-adv-x="1251" 
d="M555 865q-84 0 -188.5 -65.5t-104.5 -309.5q0 -175 88.5 -281t227.5 -106t196.5 90.5t63.5 147.5t6 209v171q-128 144 -289 144zM1011 1008v-655q0 -241 12.5 -260.5t33 -28.5t116.5 -17l9 -8v-38l-9 -9q-108 7 -165 7t-157 -7l-11 11q3 98 3 120t1 55q-55 -40 -123 -100
t-93 -79q-46 -23 -131 -23q-138 0 -234.5 68t-137.5 173.5t-41 217.5t42.5 216.5t121 152.5t171 99.5t201.5 51.5t224 -63l-4 223q-3 198 -12.5 211t-24 17t-121.5 4l-9 9v42l8 9q191 22 322 74l19 -12q-11 -115 -11 -461z" />
    <glyph glyph-name="e" unicode="e" horiz-adv-x="981" 
d="M504 545q195 0 225 5q1 24 1 37q0 155 -63 230.5t-177 75.5t-180.5 -85t-66.5 -252q66 -11 261 -11zM582.5 73q133.5 0 285.5 91l16 -17l-32 -72q-166 -107 -331 -107q-120 0 -227.5 47t-175 159t-67.5 243.5t26 216t54.5 125.5t96.5 91q150 110 308 110q120 0 212 -56
q166 -102 165 -332q0 -31 -3 -60l-11 -11q-113 -25 -335 -25h-321q2 -207 104 -305t235.5 -98z" />
    <glyph glyph-name="f" unicode="f" horiz-adv-x="682" 
d="M214 396v386l-129 -7l-9 8v25l7 10l131 67v60q0 100 9 151.5t33.5 95t85.5 110t107 109t80 57t76 14.5t86 -15l-1 -164l-23 -9q-56 50 -119 50t-101 -21.5t-52 -70t-14 -160.5v-207h107q83 0 157 6l9 -11l-18 -88l-9 -10q-30 1 -39 1l-130 1h-77v-403q0 -32 4.5 -146.5
t8.5 -134.5t13.5 -29t31 -13t137.5 -7l8 -8v-42l-8 -9l-278 8q-108 0 -241 -8l-8 9v42l8 8q97 6 110 9t22 12.5t12.5 29t8 129t4.5 165.5z" />
    <glyph glyph-name="g" unicode="g" horiz-adv-x="1139" 
d="M570 -19q-148 0 -172.5 -4t-69.5 -34t-73.5 -81.5t-28.5 -115.5q0 -113 84 -184t206 -71t211.5 44t132 118t42.5 142t-35.5 116.5t-92 59t-204.5 10.5zM290 652q0 -61 24 -131t77.5 -106t131.5 -36t142.5 57.5t64.5 171.5t-59 197t-159 83t-161 -59.5t-61 -176.5z
M902 664q0 -66 -32.5 -133t-125 -142t-264.5 -75h-46q-59 -47 -76 -70t-17 -57t40.5 -52t167.5 -18l224 3q106 0 162.5 -25t91.5 -89.5t35 -155.5t-71.5 -200.5t-206.5 -166.5t-255 -57t-196.5 19t-134 57.5t-92.5 100.5t-35 114q0 100 53 180l181 101q-87 27 -109.5 53.5
t-22.5 64.5t25 89l161 116q-142 37 -191.5 111t-49.5 158t35 158t105.5 118t158 69.5t159.5 25.5q125 0 238 -81q181 0 289 4l8 -18q-41 -63 -51 -82h-186q28 -54 28 -120z" />
    <glyph glyph-name="h" unicode="h" horiz-adv-x="1192" 
d="M348 1008v-247q84 69 130 113t86.5 62.5t122.5 18.5t153.5 -31t122 -90t50.5 -227v-176q0 -17 5 -249q3 -95 21.5 -113t123.5 -18l8 -8v-43l-8 -8q-127 8 -161 8t-157 -8l-12 11q13 130 13 339v131q0 118 -5.5 170t-49 118t-171.5 66q-68 0 -113.5 -18.5t-92.5 -62.5
t-56.5 -73.5t-9.5 -113.5v-178q0 -22 4 -141.5t8.5 -139.5t13.5 -29t22 -11.5t108 -8.5l9 -8v-42l-8 -9q-125 8 -241 8t-240 -8l-9 9v42l9 8q97 6 109.5 9t22 12.5t13 29t8 129t4.5 165.5v518l-4 212q-5 191 -13.5 202t-23.5 15t-121 4l-9 9v42l8 9q191 22 322 74l19 -12
q-11 -115 -11 -461z" />
    <glyph glyph-name="i" unicode="i" horiz-adv-x="596" 
d="M381 607v-226q0 -22 4 -141.5t8.5 -139.5t13.5 -29t22 -11.5t108 -8.5l9 -8v-42l-8 -9q-125 8 -240.5 8t-240.5 -8l-9 9v42l9 8q97 6 109.5 9t22 12.5t13 29t8 129t4.5 165.5v197q0 127 -10 194q-2 16 -15.5 23.5t-52.5 7.5l-84 1l-9 8v43l8 8q191 23 322 75l19 -13
q-11 -131 -11 -333zM288.5 1400q46.5 0 79.5 -33t33 -79.5t-33 -79.5t-79.5 -33t-80 32.5t-33.5 79.5t33.5 80t80 33z" />
    <glyph glyph-name="j" unicode="j" horiz-adv-x="479" 
d="M329 573v-184l3 -319q0 -165 -27 -305t-121 -239.5t-217 -99.5q-7 0 -21 1l-10 57l9 13q22 -2 45 -2t75.5 30t74.5 136.5t22 349.5v582q0 137 -6.5 174t-20 44t-50.5 7l-85 1l-9 8v43l9 8q190 23 322 75l18 -13q-11 -131 -11 -367zM242 1400q46 0 79 -32.5t33 -79.5
t-33 -80t-79 -33t-79.5 33.5t-33.5 79.5t33.5 79t79.5 33z" />
    <glyph glyph-name="k" unicode="k" horiz-adv-x="1139" 
d="M372 1008v-469q34 20 134 100.5t211.5 184t114.5 112.5q85 -3 105 -3t90 3l9 -9v-39l-8 -9q-50 -3 -76.5 -13t-108 -66t-192.5 -147l-97 -79q53 -62 185.5 -194.5t214.5 -205.5t107 -83.5t53 -10.5v-43q-37 -7 -191 -61q-104 90 -132 119l-162 165q-41 41 -110 104
l-147 136v-119q0 -22 4 -141.5t8.5 -139.5t13.5 -29t22 -11.5t108 -8.5l9 -8v-42l-8 -9q-125 8 -241 8t-240 -8l-9 9v42l9 8q97 6 109.5 9t22 12.5t13 29t8 129t4.5 165.5v518l-4 212q-5 191 -13.5 202t-23.5 15t-121 4l-9 9v42l8 9q191 22 322 74l19 -12q-11 -115 -11 -461
z" />
    <glyph glyph-name="l" unicode="l" horiz-adv-x="596" 
d="M382 1008v-627q0 -22 4 -141.5t8.5 -139.5t13.5 -29t22 -11.5t108 -8.5l9 -8v-42l-8 -9q-125 8 -241 8t-240 -8l-9 9v42l9 8q97 6 109.5 9t22 12.5t13 29t8 129t4.5 165.5v518l-4 212q-5 191 -13.5 202t-23.5 15t-121 4l-9 9v42l8 9q191 22 322 74l19 -12
q-11 -115 -11 -461z" />
    <glyph glyph-name="m" unicode="m" horiz-adv-x="1808" 
d="M689 955q100 0 175 -49.5t111 -136.5q135 128 157.5 142t71.5 28.5t113 14.5t130 -34t105 -89t45.5 -119t6.5 -176v-105q0 -336 23 -358t127 -22l8 -8v-43l-8 -8q-127 8 -162 8t-155 -8l-13 11q13 130 13 339v120q0 159 -15 222.5t-70 104t-120 40.5t-112 -21.5
t-84.5 -64t-41.5 -79t-4 -134.5v-125q0 -44 4 -165t8.5 -141t14 -28.5t22 -11t107.5 -8.5l9 -8v-42l-8 -9q-125 8 -237 8t-244 -8l-9 9v42l9 8q97 6 109.5 9t22 12.5t13 29t8 129t4.5 165.5v114q0 113 -15.5 174t-66.5 103t-119 42t-118 -23.5t-81.5 -58t-39 -64.5
t-7.5 -130v-148q0 -44 4 -165t8.5 -141t14 -28.5t22 -11t107.5 -8.5l9 -8v-42l-8 -9q-125 8 -241 8t-240 -8l-9 9v42l9 8q97 6 109.5 9t22 12.5t13 29t8 129t4.5 165.5v197q0 127 -6.5 168.5t-19.5 49t-52 7.5l-84 1l-9 8v43l8 8q191 23 322 75l19 -13q-6 -66 -8 -158l95 87
q40 37 53 47.5t61 24.5t101 14z" />
    <glyph glyph-name="n" unicode="n" horiz-adv-x="1192" 
d="M710 955q60 0 131.5 -31t122 -90t50.5 -227v-176q0 -17 5 -249q2 -95 21 -113t124 -18l8 -8v-43l-8 -8q-126 8 -162 8t-156 -8l-12 11q13 130 13 339v131q0 118 -5.5 170t-49 118t-171.5 66q-52 0 -89 -10.5t-83 -43t-68 -61t-26.5 -53t-4.5 -104.5v-174q0 -22 4 -141.5
t8.5 -139.5t13.5 -29t22 -11.5t108 -8.5l9 -8v-42l-8 -9q-125 8 -241 8t-240 -8l-9 9v42l9 8q97 6 109.5 9t22 12.5t13 29t8 129t4.5 165.5v197q0 127 -6.5 168.5t-19.5 49t-52 7.5l-84 1l-9 8v43l8 8q191 23 322 75l19 -13q-6 -67 -8 -176q81 66 127 110t64.5 52.5t62 18.5
t103.5 10z" />
    <glyph glyph-name="o" unicode="o" horiz-adv-x="1118" 
d="M257 545.5q0 -158.5 36 -269t114 -177.5t187 -67t186 93.5t77 294t-83.5 336.5t-240.5 136q-130 0 -203 -94t-73 -252.5zM68 453.5q0 123.5 49 234t170.5 191t288.5 80.5q210 0 342 -132.5t132 -351t-151.5 -366.5t-365.5 -148q-140 0 -250 75.5t-162.5 184.5
t-52.5 232.5z" />
    <glyph glyph-name="p" unicode="p" horiz-adv-x="1231" 
d="M970 473q0 104 -36.5 184t-113 126t-146.5 46t-119.5 -18.5t-93 -54.5t-62.5 -68.5t-20 -54t-1 -47.5v-388q114 -116 264 -116q97 0 171.5 49t115.5 143.5t41 198.5zM728 955q106 0 173 -22.5t157 -104t90 -278.5q0 -143 -60.5 -244.5t-83 -121.5t-88.5 -60t-120 -78
q-52 -38 -86 -55.5t-132 -17.5t-200 53v-213q0 -22 4 -141.5t8.5 -139.5t13.5 -29t22 -11.5t108 -8.5l9 -8v-42l-8 -9q-125 8 -240 8t-240 -8l-9 9v42l9 8q96 6 109 9t22.5 12.5t13 30.5t8 134t4.5 170v766q0 156 -7.5 183.5t-19 34.5t-51.5 7l-84 1l-9 8v43l8 8
q191 23 321 75l19 -12q-10 -114 -11 -202q136 124 190 164t160 40z" />
    <glyph glyph-name="q" unicode="q" horiz-adv-x="1147" 
d="M558 873q-133 0 -216 -104t-83 -272q0 -111 41.5 -212.5t113 -146.5t155.5 -45q134 0 241 132q3 250 3 351t-3 193q-34 34 -104 69t-148 35zM977 445v-632q0 -22 4 -141.5t8.5 -139.5t14 -29t22 -11.5t107.5 -8.5l9 -8v-42l-8 -9q-124 8 -236 8t-245 -8l-8 9v42l8 8
q97 6 109.5 9t22 12.5t13 30.5t8 134t4.5 170v297l-214 -134q-24 -15 -35.5 -20t-85.5 -5q-183 0 -289.5 134.5t-106.5 317.5q0 254 163 372q24 17 177 102q96 52 215 52t255 -70l103 65l37 -22q-29 -79 -40.5 -146.5t-11.5 -336.5z" />
    <glyph glyph-name="r" unicode="r" horiz-adv-x="809" 
d="M681 955q42 0 81 -18l7 -14q-16 -133 -18 -234h-45q-40 92 -129 92q-62 0 -108 -39.5t-61.5 -99t-15.5 -150.5v-111q0 -30 4 -147t8.5 -135t14 -26.5t25 -11.5t142.5 -10l9 -8v-42l-9 -9q-133 8 -263 8t-255 -8l-9 9v42l9 8q97 6 109.5 9t22 12.5t13 29t8 129t4.5 165.5
v197q0 127 -6.5 168.5t-19.5 49t-52 7.5l-84 1l-9 8v43l8 8q191 23 322 75l19 -13q-6 -58 -9 -206l75 95q37 47 65.5 72.5t66.5 39.5t80 14z" />
    <glyph glyph-name="s" unicode="s" horiz-adv-x="868" 
d="M436 35q90 0 153.5 57t63.5 139t-69.5 113t-181.5 57t-152.5 39.5t-98.5 62.5t-58 173q0 125 106.5 205.5t265.5 80.5q67 0 146 -18.5t120 -35.5l9 -14q-8 -40 -10 -210l-9 -9h-40l-9 9q-4 61 -11 85.5t-36 53t-82 48t-113 19.5t-127 -29t-67 -137t130 -138l109 -28
q140 -34 233.5 -72.5t93.5 -180.5t-114 -241t-274 -99t-335 45l-5 13l10 67q6 40 8 195l9 9h43l9 -9q2 -84 10 -144q31 -47 107 -76.5t166 -29.5z" />
    <glyph glyph-name="t" unicode="t" horiz-adv-x="668" 
d="M199 781h-41q-45 0 -103 -4l-9 8v26l7 10q94 35 152 65q0 261 -6 304q103 36 169 77l24 -20q-10 -63 -24 -366q50 -1 138 -1t139 6l7 -7l-19 -84l-8 -9q-51 1 -110 1t-147 -1l-6 -407q0 -141 10 -209t120 -68q67 0 124 35l24 -36q-24 -17 -115 -100q-52 -24 -106 -24
q-225 0 -225 218l5 171v415z" />
    <glyph glyph-name="u" unicode="u" horiz-adv-x="1235" 
d="M354 607v-233q0 -128 20 -178q40 -103 185 -103t229 109q40 52 46.5 70t8.5 101l3 112v108q0 127 -10 194q-2 16 -15.5 23.5t-52.5 7.5l-84 1l-9 8v43l8 8q191 23 322 75l19 -13q-11 -131 -11 -333v-176q0 -315 12 -341t27 -33.5t89 -7.5h28l9 -8v-40l-8 -9
q-141 8 -195.5 8t-134.5 -7l-9 8q6 102 9 173q-63 -48 -140 -126t-207 -78t-192.5 35.5t-88.5 98t-26 215.5l1 79v195q-1 127 -11 194q-2 16 -15 23.5t-52 7.5l-84 1l-9 8v43l8 8q191 23 322 75l19 -13q-11 -131 -11 -333z" />
    <glyph glyph-name="v" unicode="v" horiz-adv-x="1157" 
d="M278 925q99 0 216 7l8 -8v-44l-8 -8q-104 -3 -121 -14.5t-17 -35.5t40 -123l122 -304l96 -227l100 227l83 206q76 185 76 231q0 19 -22 27.5t-111 12.5l-8 8v43l9 9q124 -7 181 -7t183 7l9 -9v-43l-8 -8q-59 -5 -78.5 -17t-38 -46.5t-106.5 -214.5l-96 -205
q-24 -52 -173 -407h-104l-62 157l-279 648q-31 73 -57 78t-74 7l-8 8v43l9 9q140 -7 239 -7z" />
    <glyph glyph-name="w" unicode="w" horiz-adv-x="1708" 
d="M267 925q157 0 239 7l9 -9v-41l-7 -8q-109 -1 -129.5 -12t-20.5 -34t29 -123l93 -322q22 -75 56 -175q27 65 76 174l147 329q53 117 98 236h49l90 -242l204 -510l75 197q137 356 137 407.5t-22 61.5t-118 13l-9 8v42l9 8q116 -7 206 -7t177 7l8 -8v-41l-8 -9
q-54 -2 -84 -17.5t-108 -199.5l-144 -347l-71 -186q-33 -87 -48 -143h-94l-276 698l-207 -455l-98 -243h-96l-135 448q-83 276 -107.5 338.5t-37.5 75.5t-28 18t-85 13l-7 8v41l9 9q72 -7 229 -7z" />
    <glyph glyph-name="x" unicode="x" horiz-adv-x="1057" 
d="M86 864q-14 0 -30 -1l-10 7l-8 40l8 10q102 12 225 38q69 -57 204 -267l74 -117l63 80q73 95 205 285q47 -7 74 -7t71 7l8 -8v-40l-8 -8q-33 -3 -60.5 -16t-149.5 -160l-60 -72q-18 -21 -35 -43l-62 -80l37 -57q261 -375 293.5 -390t70.5 -15l8 -8v-41l-8 -8
q-74 7 -100 7t-142 -7q-82 103 -165 231l-102 154q-103 -117 -276 -385q-69 7 -85 7t-82 -7l-8 9v40l9 8q37 1 60.5 11.5t57 44t118.5 137.5l161 199l-85 127q-170 250 -213.5 272.5t-57.5 22.5z" />
    <glyph glyph-name="y" unicode="y" horiz-adv-x="1139" 
d="M233 -442q64 0 116.5 70.5t148.5 311.5q-38 107 -77 202l-159 394q-113 276 -127.5 293.5t-29.5 27.5t-81 19l-8 8v40l9 8q115 -7 246.5 -7t208.5 7l8 -8v-40l-7 -8q-11 -1 -61.5 -4.5t-63 -16t-12.5 -29t31 -110t60 -165.5l63 -156q62 -154 96 -227l53 117q28 64 80 194
l83 212q41 105 41 129t-16 32t-71 14l-42 6l-7 8v44l8 8q84 -7 194 -7t173 7l8 -8v-44l-8 -8q-66 -2 -100.5 -42t-176.5 -350l-98 -215l-231 -540q-30 -70 -74 -150q-84 -151 -246 -151q-63 0 -119 33q34 84 51 154h24q49 -53 113 -53z" />
    <glyph glyph-name="z" unicode="z" 
d="M462 857q-221 0 -236.5 -16t-34.5 -135l-6 -32l-8 -8h-40l-9 9q10 159 10 183t-2 68l8 7q372 -8 542 -8t237 8l8 -8v-48q-69 -76 -215 -262l-262 -333q-116 -147 -163 -213h70l200 3q110 1 185 9t87.5 13.5t15.5 10t17.5 62.5t22.5 108l9 8h45l9 -9q-24 -178 -27 -274
l-8 -8q-300 9 -446 9t-417 -9l-9 8l-9 38q129 137 247 285l221 274q104 126 194 260h-236z" />
    <glyph glyph-name="braceleft" unicode="{" horiz-adv-x="682" 
d="M119 575q158 0 158 231v379q0 87 17 146q28 98 116 133q61 24 182 24v-25q-86 0 -126 -57t-40 -188v-378q0 -118 -34 -183t-136 -95q106 -30 138 -94t32 -187v-371q0 -189 87 -229q27 -12 79 -12v-25q-194 0 -254 64t-61 258v345q0 88 -12.5 129.5t-50.5 75.5t-95 34v25z
" />
    <glyph glyph-name="bar" unicode="|" 
d="M454 0v1497h115v-1497h-115z" />
    <glyph glyph-name="braceright" unicode="}" horiz-adv-x="682" 
d="M406 806q0 -231 158 -231v-25q-57 0 -95 -34t-50.5 -75.5t-12.5 -129.5v-345q0 -194 -60 -258t-255 -64v25q91 0 129 60t37 181v371q1 123 33 187t137 94q-102 30 -136 95t-34 183v378q0 131 -40 188t-126 57v25q121 0 182 -24q88 -35 116 -133q17 -59 17 -146v-379z" />
    <glyph glyph-name="asciitilde" unicode="~" 
d="M719 511q-58 0 -212 63t-194 63t-80.5 -25.5t-112.5 -140.5l-64 73q83 134 139.5 171.5t119.5 37.5t209 -63t191 -63q108 0 190 153l63 -70q-103 -199 -249 -199z" />
    <glyph glyph-name="exclamdown" unicode="&#xa1;" horiz-adv-x="569" 
d="M157 -516v105q0 7 27 289t51 595l55 50l19 -9q8 -201 46 -594l20 -225q4 -62 4 -132q-81 -37 -156 -79h-66zM274 690q-48 0 -83.5 34.5t-35.5 84.5t34.5 85.5t84.5 35.5t85 -35t35 -86t-36 -85t-84 -34z" />
    <glyph glyph-name="cent" unicode="&#xa2;" 
d="M304 503q0 -130 55 -247t173 -162v720q-228 -31 -228 -311zM616 -52q0 -85 5 -153l-9 -7h-74l-9 7q1 31 1 62t2 67v48q-189 14 -298 134.5t-109 310.5q0 245 93 311t184 112.5t130 58.5v88q0 66 -3 111l9 7h71l10 -7q-3 -33 -3 -106v-79q23 1 50 1q148 0 247 -56
q-19 -108 -29 -239l-9 -8h-41l-9 9q-4 91 -13 112.5t-69.5 50t-126.5 33.5v-743q39 -4 58 -4q93 0 218 58l21 -25l-40 -64q-119 -62 -257 -67v-23z" />
    <glyph glyph-name="sterling" unicode="&#xa3;" 
d="M24 -40v103q40 36 101 69q44 65 71.5 160.5t27.5 276.5l-1 68q-138 0 -189 -7l-10 10l14 73l9 8q61 -5 176 -5v68q0 201 25.5 278.5t68.5 119.5t142 109.5t167 90t170 22.5t175 -49l6 -15q-16 -107 -20 -256l-9 -9h-41l-9 9q-1 5 -3 44q-7 104 -69.5 142.5t-153.5 38.5
t-160.5 -61.5t-89 -179.5t-26.5 -352h119q142 0 251 5l7 -5l-17 -76l-10 -8q-146 5 -256 5h-102q-10 -167 -69 -291t-121 -214q124 29 204 29t222 -16t186 -16q46 0 61 11t21 55l15 108l8 9h44l8 -8q-8 -144 -10 -300q-65 -36 -143 -36t-261 46t-260 45q-76 0 -132 -10
q-9 -9 -33 -36t-56 -53h-48z" />
    <glyph glyph-name="currency" unicode="&#xa4;" 
d="M252 476q0 -106 76 -182.5t183 -76.5t183.5 76.5t76.5 183.5t-75.5 183.5t-183.5 76.5t-184 -77.5t-76 -183.5zM513 133q-123 0 -225 83l-182 -196l-76 76l199 184q-61 90 -61 196t61 198l-199 184l76 77l182 -197q100 83 224 83q64 0 114.5 -19t109.5 -64l181 196
l76 -76l-199 -184q62 -92 62 -197t-62 -197l199 -184l-76 -76l-181 196q-100 -83 -223 -83z" />
    <glyph glyph-name="yen" unicode="&#xa5;" 
d="M612 556v-56h309l9 -8v-64l-9 -8h-309v-79l1 -21q1 -26 1 -122t23 -117.5t167 -25.5l7 -6v-50l-7 -8q-290 9 -311 9t-249 -9l-8 8v50l8 6q143 4 167 26.5t24 162.5l1 100v76h-312l-8 8v64l9 8h311v32q0 22 -4 39.5t-52 125.5h-255l-9 8v65l8 8h220l-155 328
q-68 143 -104.5 179t-95.5 40l-9 8v44l7 9q43 6 121 24t100 18t41 -14t35.5 -46.5t59.5 -141.5l211 -529l224 520q40 93 77 196l80 -5q2 0 78 5v-28q-118 -164 -265 -469l-67 -138h240l8 -8v-65l-8 -8h-274q-36 -90 -36 -141z" />
    <glyph glyph-name="brokenbar" unicode="&#xa6;" 
d="M454 0v591h115v-591h-115zM454 1497h115v-591h-115v591z" />
    <glyph glyph-name="section" unicode="&#xa7;" 
d="M816 423q0 74 -47 124.5t-202 100.5t-289 98q-36 -31 -61.5 -78.5t-25.5 -91.5q0 -133 165 -191l213 -76q155 -54 176 -63q71 103 71 177zM499 -353q76 0 146.5 33.5t105.5 95.5t35 124t-31.5 111t-110.5 83t-244 90t-254.5 109.5t-89.5 183.5q0 129 58 192.5t111 103.5
q-118 85 -118 210q0 153 129 304t350 151q143 0 258 -68l5 -14q-20 -154 -25 -294l-7 -7h-49l-8 7q-6 141 -10 167q-92 99 -232 99t-216.5 -68t-76.5 -175t81.5 -154t208.5 -87t282 -92t155 -238q0 -93 -42.5 -161.5t-118.5 -131.5q72 -48 97 -96t25 -114q0 -166 -144 -315
t-364 -149q-181 0 -308 90l-5 12q21 122 25 295l8 9h48l9 -9q4 -78 16 -174q108 -123 301 -123z" />
    <glyph glyph-name="dieresis" unicode="&#xa8;" horiz-adv-x="682" 
d="M129 1163q-45 0 -77 32t-32 77t32 77t78 32t77 -31.5t31 -77.5t-32 -77.5t-77 -31.5zM552 1163q-45 0 -77 31.5t-32 77.5t31.5 77.5t77.5 31.5t77.5 -31.5t31.5 -77.5t-32 -77.5t-77 -31.5z" />
    <glyph glyph-name="copyright" unicode="&#xa9;" horiz-adv-x="1530" 
d="M771 277q-179 0 -292 118.5t-113 304.5t114.5 305t309.5 119q151 0 289 -53v-219h-53q-10 129 -69 174t-152 45t-196.5 -71.5t-103.5 -275.5q0 -120 45 -205t104.5 -130.5t137.5 -45.5t126 19.5t77.5 51t62.5 87.5l41 -18q-45 -88 -115.5 -147t-212.5 -59zM113 703
q0 -166 84.5 -319t238.5 -242t328 -89t326 87t239.5 239.5t87.5 326.5t-87.5 325t-239 238.5t-325.5 87.5t-330 -89.5t-239 -244t-83 -320.5zM22 706q0 186 95 361.5t272 278t375 102.5t371 -99.5t272.5 -273t99.5 -371.5t-99.5 -370.5t-271.5 -271.5t-370 -99t-376 102
t-273 278.5t-95 362.5z" />
    <glyph glyph-name="ordfeminine" unicode="&#xaa;" horiz-adv-x="682" 
d="M193 989q0 -87 87 -87q70 0 154 94v148q-125 -21 -156 -34q-85 -34 -85 -121zM612 648h-542v76h542v-76zM536 838q-39 0 -91 -4l-14 13q1 12 2 82l-122 -101q-35 -14 -91 -14t-102.5 42.5t-46.5 121.5q1 79 47 120q80 70 316 97q0 104 -48 138q-33 23 -83 23
q-49 0 -77 -14t-31 -25l-26 -73l-10 -6l-29 7l-9 10q1 14 1 36v44q112 82 211 82t160 -49t59 -137l-3 -118v-176q1 -31 5 -39t30 -12l38 -4l9 -9v-30l-10 -9q-46 4 -85 4z" />
    <glyph glyph-name="guillemotleft" unicode="&#xab;" 
d="M679 460q62 -106 231 -324l-1 -11l-37 -26l-12 2q-138 141 -251 251l-97 96v24q15 16 95 94l113 110l140 143l12 2l37 -26l1 -11q-187 -245 -231 -324zM102 448v24q15 16 95 94l114 110l139 143l12 2l37 -26l2 -11q-188 -245 -232 -324q25 -41 100.5 -147t131.5 -177
l-2 -11l-37 -26l-12 2q-137 141 -250 251z" />
    <glyph glyph-name="logicalnot" unicode="&#xac;" 
d="M994 280h-116v432h-848v112h964v-544z" />
    <glyph glyph-name="registered" unicode="&#xae;" horiz-adv-x="1530" 
d="M634 741h56q129 0 190 43t61 137q0 177 -192 177h-59q-39 0 -47.5 -15.5t-8.5 -59.5v-282zM423 327v31q22 1 44 1t34 6t16.5 20.5t4.5 59.5v573q0 51 -6.5 65t-20.5 17.5t-72 4.5v32h335q299 0 299 -190q0 -89 -56.5 -148.5t-171.5 -77.5q72 -20 107 -75.5t74 -143.5
t62.5 -115t80.5 -29v-31h-80q-53 0 -82 12t-53 52.5t-62 137.5t-58 122.5t-42 37t-86 11.5h-56v-255q0 -47 6.5 -66.5t65.5 -19.5q8 0 27 -1v-31h-310zM113 703q0 -166 84.5 -319t238.5 -242t328 -89t326 87t239.5 239.5t87.5 326.5t-87.5 325t-239 238.5t-325.5 87.5
t-330 -89.5t-239 -244t-83 -320.5zM22 706q0 186 95 361.5t272 278t375 102.5t371 -99.5t272.5 -273t99.5 -371.5t-99.5 -370.5t-271.5 -271.5t-370 -99t-376 102t-273 278.5t-95 362.5z" />
    <glyph glyph-name="macron" unicode="&#xaf;" horiz-adv-x="682" 
d="M656 1215h-630v105h630v-105z" />
    <glyph glyph-name="macron" unicode="&#x2c9;" horiz-adv-x="682" 
d="M656 1215h-630v105h630v-105z" />
    <glyph glyph-name="degree" unicode="&#xb0;" horiz-adv-x="819" 
d="M410 1330q-93 0 -160 -66t-67 -160t66.5 -160.5t160.5 -66.5t160 66t66 160q0 60 -31 114.5t-84.5 83.5t-110.5 29zM410 1411q78 0 151 -40t115 -112.5t42 -155.5q0 -127 -90 -217.5t-218 -90.5t-218 90.5t-90 217.5q0 82 42.5 155.5t115 113t150.5 39.5z" />
    <glyph glyph-name="plusminus" unicode="&#xb1;" 
d="M994 0h-964v112h964v-112zM994 606h-424v-369h-116v369h-424v112h424v369h116v-369h424v-112z" />
    <glyph glyph-name="uni00B2" unicode="&#xb2;" horiz-adv-x="655" 
d="M433 1140q0 64 -42.5 110.5t-102.5 46.5t-99 -15t-49 -36.5t-31 -96.5l-10 -8h-30l-12 10q15 83 20 164q60 56 111.5 72t107.5 16q115 0 189 -62t74 -169t-62.5 -182t-133.5 -144l-177 -174h222q106 0 188 8l10 -10q-4 -22 -4 -52t4 -51l-9 -13q-115 6 -293 6t-264 -6
l-12 10v34l206 211q123 126 161 196.5t38 134.5z" />
    <glyph glyph-name="uni00B3" unicode="&#xb3;" horiz-adv-x="655" 
d="M599 841q0 -116 -108 -208.5t-250 -92.5q-87 0 -169 36q-11 72 -42 173l5 15l29 10l14 -7q16 -42 52.5 -101.5t154.5 -59.5t150.5 71t32.5 137t-40.5 108.5t-97.5 42.5t-124 -27l-14 12l16 75q54 -3 72 -3q70 0 109 47t39 107t-43 96.5t-111 36.5t-126 -54
q-10 -20 -32 -79l-10 -8h-33l-10 11l38 142q79 88 197 88t182 -53.5t64 -134.5q0 -47 -24 -91.5t-100 -104.5q179 -29 179 -184z" />
    <glyph glyph-name="acute" unicode="&#xb4;" horiz-adv-x="682" 
d="M510 1467l-294 -374l-13 -4l-29 15l-3 13l153 349l156 29l13 -3z" />
    <glyph glyph-name="mu" unicode="&#xb5;" horiz-adv-x="1325" 
d="M514 -27q-129 0 -199 92l-20 -4q6 -395 51 -594l-15 -22q-56 -9 -123 -12l-18 14q10 419 19 837q0 448 -22 651l174 18l21 -20q-15 -138 -15 -330q0 -336 61.5 -426t167.5 -90t178 51t106 137.5t34 292.5t-8 367l170 18l21 -20q-7 -66 -15.5 -241.5t-8.5 -291.5
t11 -220.5t113 -104.5q40 0 90 23l-8 -46q-124 -70 -224 -70t-119 64t-21 144l-15 9q-82 -114 -169.5 -170t-216.5 -56z" />
    <glyph glyph-name="mu" unicode="&#x3bc;" horiz-adv-x="1325" 
d="M514 -27q-129 0 -199 92l-20 -4q6 -395 51 -594l-15 -22q-56 -9 -123 -12l-18 14q10 419 19 837q0 448 -22 651l174 18l21 -20q-15 -138 -15 -330q0 -336 61.5 -426t167.5 -90t178 51t106 137.5t34 292.5t-8 367l170 18l21 -20q-7 -66 -15.5 -241.5t-8.5 -291.5
t11 -220.5t113 -104.5q40 0 90 23l-8 -46q-124 -70 -224 -70t-119 64t-21 144l-15 9q-82 -114 -169.5 -170t-216.5 -56z" />
    <glyph glyph-name="paragraph" unicode="&#xb6;" horiz-adv-x="1286" 
d="M720 -232h140v1582h-140v-1582zM305 1078q0 -115 75 -191.5t191 -99.5v563q-139 -8 -202.5 -82.5t-63.5 -189.5zM439 1423l397 -10q122 0 372 8v-64q-116 -2 -143 -10t-38.5 -27t-13 -73.5t-4.5 -304.5v-766q0 -343 12.5 -368.5t38.5 -35.5t148 -11v-65l-421 7
q-96 0 -415 -7v65q114 1 142 9.5t39.5 27t13 75.5t4.5 303v535q-194 5 -344 118.5t-150 280.5q0 132 91 222.5t271 90.5z" />
    <glyph glyph-name="periodcentered" unicode="&#xb7;" horiz-adv-x="512" 
d="M256 733q48 0 83.5 -34.5t35.5 -84.5t-34.5 -85t-84.5 -35t-85 35t-35 85t36 84.5t84 34.5z" />
    <glyph glyph-name="periodcentered" unicode="&#x2219;" horiz-adv-x="512" 
d="M256 733q48 0 83.5 -34.5t35.5 -84.5t-34.5 -85t-84.5 -35t-85 35t-35 85t36 84.5t84 34.5z" />
    <glyph glyph-name="cedilla" unicode="&#xb8;" horiz-adv-x="682" 
d="M287 -372q106 0 106 81q0 32 -27.5 53.5t-62.5 21.5t-68 -10l-16 14l98 212h77l-66 -150q41 6 58 6q75 0 118 -39t43 -107t-67 -111t-165 -43t-176 28l-4 11l23 49l10 5q58 -21 119 -21z" />
    <glyph glyph-name="uni00B9" unicode="&#xb9;" horiz-adv-x="655" 
d="M399 1088v-218q0 -190 4.5 -218t18 -34t112.5 -11l9 -10v-32l-9 -10q-135 5 -186 5t-211 -5l-10 10v32l10 10q98 6 109.5 9.5t17.5 14t10.5 99t4.5 143.5v232q0 149 -5 194q-3 -1 -73 -31t-91 -41l-19 5l-7 57l10 10q63 18 156.5 55.5t134.5 58.5l24 -9
q-10 -268 -10 -316z" />
    <glyph glyph-name="ordmasculine" unicode="&#xba;" horiz-adv-x="682" 
d="M348 859q168 -1 167 235q0 102 -39 180q-51 99 -151 99q-161 0 -161 -218q0 -112 40 -193q52 -103 144 -103zM612 648h-542v76h542v-76zM648 1126q0 -132 -93 -222t-224 -90t-214 87.5t-83 217.5t90 214t224 84q133 0 216.5 -79.5t83.5 -211.5z" />
    <glyph glyph-name="guillemotright" unicode="&#xbb;" 
d="M501 472v-24q-16 -17 -96 -94l-113 -110l-139 -143l-13 -2l-37 26l-1 11q188 245 231 324q-24 41 -99.5 147t-131.5 177l1 11l37 26l13 -2q137 -141 250 -251zM743 460q-62 106 -231 324l1 11l37 26l12 -2q138 -141 251 -251l97 -96v-24q-15 -17 -95 -94l-113 -110
l-140 -143l-12 -2l-37 26l-1 11q187 245 231 324z" />
    <glyph glyph-name="onequarter" unicode="&#xbc;" horiz-adv-x="1652" 
d="M399 1088v-218q1 -190 5 -218t18 -34t112 -11l9 -10v-32l-9 -10q-135 5 -186 5t-211 -5l-10 10v32l10 10q97 5 109 9t18 14t10 100q4 88 5 143v232q0 149 -5 194q-3 -1 -73 -31t-91 -41l-19 5l-7 57l10 10q62 17 156 55t135 59l24 -9q-10 -268 -10 -316zM324 -24
l909 1425l11 8h80l5 -10l-910 -1427l-11 -7h-78zM1114 306h240l5 387q-84 -121 -157 -239t-88 -148zM1354 180v36h-126q-114 0 -203 -4l-13 40q108 197 357 562q53 23 92 36l23 -10q-9 -130 -9 -420v-114q65 0 125 3l11 -10q-2 -29 0 -78l-11 -9q-68 4 -101 4h-24v-33
q0 -109 11 -123t115 -15l10 -9v-31l-10 -10q-111 5 -204 5t-186 -5l-10 9v32l9 9q91 3 107 5q17 2 27 15q10 12 10 115z" />
    <glyph glyph-name="onehalf" unicode="&#xbd;" horiz-adv-x="1652" 
d="M399 1088v-218q1 -190 5 -218t18 -34t112 -11l9 -10v-32l-9 -10q-135 5 -186 5t-211 -5l-10 10v32l10 10q97 5 109 9t18 14t10 100q4 88 5 143v232q0 149 -5 194q-3 -1 -73 -31t-91 -41l-19 5l-7 57l10 10q62 17 156 55t135 59l24 -9q-10 -268 -10 -316zM324 -24
l909 1425l11 8h80l5 -10l-910 -1427l-11 -7h-78zM1431 580q-1 64 -43 110t-102 47q-60 0 -99 -15q-39 -14 -49 -36t-31 -97l-10 -8h-30l-12 10q15 83 20 164q59 56 111 72t108 16q115 0 189 -62t74 -169t-84 -208q-41 -49 -112 -118l-177 -174h222q106 0 188 8l10 -10
q-4 -22 -4 -52t4 -51l-9 -13q-115 6 -293 6t-264 -6l-12 10v34l206 211q123 126 161 196q38 71 38 135z" />
    <glyph glyph-name="threequarters" unicode="&#xbe;" horiz-adv-x="1652" 
d="M599 841q0 -117 -108 -209t-250 -92q-87 0 -169 36q-11 72 -42 173l5 15l29 10l14 -7q16 -42 40 -82q48 -79 167 -79t163 97q20 45 20 111t-40 109q-40 42 -98 42q-57 0 -124 -27l-14 12l16 75q54 -3 72 -3q70 0 109 48t39 106q0 60 -42 96t-112 37q-68 0 -126 -54
q-10 -20 -32 -79l-10 -8h-33l-10 11l38 142q79 88 197 88q118 1 182 -53t64 -135q0 -47 -24 -91t-100 -105q179 -29 179 -184zM324 -24l909 1425l11 8h80l5 -10l-910 -1427l-11 -7h-78zM1114 306h240l5 387q-84 -121 -157 -239t-88 -148zM1354 180v36h-126q-114 0 -203 -4
l-13 40q108 197 357 562q53 23 92 36l23 -10q-9 -130 -9 -420v-114q65 0 125 3l11 -10q-2 -29 0 -78l-11 -9q-68 4 -101 4h-24v-33q0 -109 11 -123t115 -15l10 -9v-31l-10 -10q-111 5 -204 5t-186 -5l-10 9v32l9 9q91 3 107 5q17 2 27 15q10 12 10 115z" />
    <glyph glyph-name="questiondown" unicode="&#xbf;" horiz-adv-x="909" 
d="M606 410q0 -58 -29 -110t-119 -154t-128.5 -166.5t-38.5 -128.5q0 -100 73 -165.5t177 -65.5q57 0 129 27q27 28 50 75l38 76l12 8l44 -5l6 -14l-78 -232q-116 -76 -236 -76t-208.5 36t-141 113t-52.5 158t20.5 135.5t60 107t131.5 134.5t147.5 141t55.5 118
q0 60 -39 104l1 15l27 19h16q82 -63 82 -150zM505 690q-49 0 -84.5 34.5t-35.5 84.5t34.5 85.5t84.5 35.5t85 -35.5t35 -84.5t-35 -84.5t-84 -35.5z" />
    <glyph glyph-name="Agrave" unicode="&#xc0;" horiz-adv-x="1593" 
d="M500 553h506l-251 603zM1182 102q0 24 -14 60l-123 305h-579l-109 -256q-29 -69 -29 -97t27 -41q27 -12 136 -13l9 -8v-52l-8 -8q-128 8 -232 8t-216 -8l-9 8v52l9 8q73 2 94 8q22 6 38 26t66 127l105 228l272 616q77 181 153 362h65l484 -1138q79 -181 97 -198t36 -23
t83 -8l8 -8v-52l-8 -8q-105 8 -231 6t-292 -6l-8 8v52l8 8q112 2 140 10t28 32zM916 1563l-25 -24l-15 4l-200 156l-210 157l12 31l10 7l187 -26l97 -120q16 -20 142 -171z" />
    <glyph glyph-name="Aacute" unicode="&#xc1;" horiz-adv-x="1593" 
d="M500 553h506l-251 603zM1182 102q0 24 -14 60l-123 305h-579l-109 -256q-29 -69 -29 -97t27 -41q27 -12 136 -13l9 -8v-52l-8 -8q-128 8 -232 8t-216 -8l-9 8v52l9 8q73 2 94 8q22 6 38 26t66 127l105 228l272 616q77 181 153 362h65l484 -1138q79 -181 97 -198t36 -23
t83 -8l8 -8v-52l-8 -8q-105 8 -231 6t-292 -6l-8 8v52l8 8q112 2 140 10t28 32zM1103 1856l-210 -157l-200 -156l-15 -4l-25 24l2 14l144 174q3 3 95 117l187 26l10 -7z" />
    <glyph glyph-name="Acircumflex" unicode="&#xc2;" horiz-adv-x="1593" 
d="M500 553h506l-251 603zM1182 101.5q0 24.5 -14 60.5l-123 305h-579l-109 -256q-29 -69 -29 -97.5t27 -40.5t136 -13l9 -8v-52l-8 -8q-129 8 -232.5 8t-215.5 -8l-9 8v52l9 8q73 1 94 7.5t37.5 26t66.5 127.5l105 228l272 616q77 181 153 362h65l484 -1138
q79 -181 97 -198t36.5 -23.5t82.5 -7.5l8 -8v-52l-8 -8q-106 9 -231.5 6.5t-291.5 -6.5l-8 8v52l8 8q112 2 140 9.5t28 32zM1124 1550l-7 -11h-62l-264 234l-264 -234h-62l-7 10l288 356h96z" />
    <glyph glyph-name="Atilde" unicode="&#xc3;" horiz-adv-x="1593" 
d="M500 553h506l-251 603zM1182 102q0 24 -14 60l-123 305h-579l-109 -256q-29 -69 -29 -97t27 -41q27 -12 136 -13l9 -8v-52l-8 -8q-128 8 -232 8t-216 -8l-9 8v52l9 8q73 2 94 8q22 6 38 26t66 127l105 228l272 616q77 181 153 362h65l484 -1138q79 -181 97 -198t36 -23
t83 -8l8 -8v-52l-8 -8q-105 8 -231 6t-292 -6l-8 8v52l8 8q112 2 140 10t28 32zM932 1603q-72 -1 -173 49t-137 50q-89 0 -123 -99h-45l-7 8q17 88 79 153t134 65q71 1 171 -49t141 -50q81 0 121 99h45l7 -7q-19 -88 -80 -154t-133 -65z" />
    <glyph glyph-name="Adieresis" unicode="&#xc4;" horiz-adv-x="1593" 
d="M500 553h506l-251 603zM1182 102q0 24 -14 60l-123 305h-579l-109 -256q-29 -69 -29 -97t27 -41q27 -12 136 -13l9 -8v-52l-8 -8q-128 8 -232 8t-216 -8l-9 8v52l9 8q73 2 94 8q22 6 38 26t66 127l105 228l272 616q77 181 153 362h65l484 -1138q79 -181 97 -198t36 -23
t83 -8l8 -8v-52l-8 -8q-105 8 -231 6t-292 -6l-8 8v52l8 8q112 2 140 10t28 32zM545 1594q-47 0 -80 32t-33 80q0 47 33 80t80 33t79 -33t33 -80q-1 -48 -33 -80t-79 -32zM1038 1594q-47 0 -80 32t-33 80q0 47 33 80t80 33q48 0 80 -33t32 -80q0 -48 -32 -80t-80 -32z" />
    <glyph glyph-name="Aring" unicode="&#xc5;" horiz-adv-x="1593" 
d="M500 553h506l-251 603zM1182 102q0 24 -14 60l-123 305h-579l-109 -256q-29 -69 -29 -97t27 -41q27 -12 136 -13l9 -8v-52l-8 -8q-128 8 -232 8t-216 -8l-9 8v52l9 8q73 2 94 8q22 6 38 26t66 127l105 228l272 616q77 181 153 362h65l484 -1138q79 -181 97 -198t36 -23
t83 -8l8 -8v-52l-8 -8q-105 8 -231 6t-292 -6l-8 8v52l8 8q112 2 140 10t28 32zM912 1717q0 59 -34 105t-87 46t-87 -46t-34 -102q0 -58 32 -106t87 -48t89 46t34 105zM999 1731q1 -71 -27 -115q-60 -96 -182 -95q-121 -1 -180 95q-27 44 -27 114t60 127q60 56 148 56
q88 1 148 -55t60 -127z" />
    <glyph glyph-name="AE" unicode="&#xc6;" horiz-adv-x="1933" 
d="M516 578h448l4 454q0 117 -4 300h-25q-19 -29 -45 -74zM1222 1404q168 0 556 9l9 -9q-1 -9 -14 -84t-22 -216l-9 -9h-46l-9 8q-1 111 -12 180q-129 42 -332 42q-68 0 -187 -8q-11 -131 -11 -243v-304q86 -6 177 -6q195 0 214.5 15.5t26.5 80.5t9 76l9 8h48l9 -7
q-7 -117 -7 -205t7 -241l-8 -8h-49l-9 8l-7 95q-4 43 -11 55.5t-21 20t-95 14t-293 -0.5v-358q0 -114 4 -229h186q207 0 269 4t126 30q15 40 50 208l9 8h49l8 -8q-16 -137 -18 -179.5t-9 -149.5l-10 -9q-419 8 -633 8t-316 -8l-8 8v32l6 9q58 25 88 49q9 42 12 140l6 187v77
q-103 6 -254 6t-242 -6q-37 -60 -112 -201t-75 -173q0 -31 35.5 -44t134.5 -16l9 -8v-53l-8 -7q-122 8 -223 8t-221 -8l-8 7v54l9 7q56 0 90.5 16t90.5 129l536 944q78 137 78 160q0 24 -22 29t-169 15l-9 9v44l8 7q442 -9 610 -9z" />
    <glyph glyph-name="Ccedilla" unicode="&#xc7;" horiz-adv-x="1452" 
d="M988 70q223 0 390 120l17 -21l-38 -93q-225 -113 -482 -113l-46 -105q33 6 61 6q84 0 129.5 -40.5t45.5 -105.5t-62 -116t-172 -51t-191 29l-5 12l24 51l11 5q62 -22 121 -22t85.5 26t26.5 60t-28.5 55t-65.5 21t-69 -10l-18 14l78 175q-331 24 -530 227t-199 510
q0 228 113 398.5t297 255t414 84.5q133 0 263 -28t217 -67l7 -10q-23 -56 -43 -277l-7 -8h-47l-8 8l-10 170q-73 58 -176.5 90.5t-215.5 32.5q-169 0 -303 -72.5t-208 -209.5t-74 -337t87 -351t237.5 -232t373.5 -81z" />
    <glyph glyph-name="Egrave" unicode="&#xc8;" horiz-adv-x="1251" 
d="M636 1407q212 0 468 6l5 -7q-25 -96 -37 -301l-6 -8h-49l-9 8q1 9 1 55t-13 123q-101 45 -342 45q-79 0 -202 -11l-4 -160l-6 -386q108 -6 200 -6q196 0 220 15t31 94l4 62l8 8h46l8 -8q-2 -109 -5 -219l5 -225l-8 -8h-46l-8 8l-7 60q-9 70 -13 84q-5 14 -19 23
q-32 22 -239 22q-58 0 -177 -5q-5 -84 -5 -287t5 -302h184q243 0 304 6t116 29q10 22 30 106t23 105l10 7h48l8 -7q-9 -43 -17 -150t-9 -183l-7 -8q-191 6 -500 6l-272 2q-95 0 -198 -8l-8 8v33l8 10q60 29 68 37t14 176t5 255v367l-1 227q0 151 -7 179t-17 40t-67 19l-76 6
l-8 7v50l8 7q343 -6 555 -6zM756 1563l-25 -24l-15 4l-200 156l-210 157l12 31l10 7l187 -26l97 -120q16 -20 142 -171z" />
    <glyph glyph-name="Eacute" unicode="&#xc9;" horiz-adv-x="1251" 
d="M636 1407q212 0 468 6l5 -7q-25 -96 -37 -301l-6 -8h-49l-9 8q1 9 1 55t-13 123q-101 45 -342 45q-79 0 -202 -11l-4 -160l-6 -386q108 -6 200 -6q196 0 220 15t31 94l4 62l8 8h46l8 -8q-2 -109 -5 -219l5 -225l-8 -8h-46l-8 8l-7 60q-9 70 -13 84q-5 14 -19 23
q-32 22 -239 22q-58 0 -177 -5q-5 -84 -5 -287t5 -302h184q243 0 304 6t116 29q10 22 30 106t23 105l10 7h48l8 -7q-9 -43 -17 -150t-9 -183l-7 -8q-191 6 -500 6l-272 2q-95 0 -198 -8l-8 8v33l8 10q60 29 68 37t14 176t5 255v367l-1 227q0 151 -7 179t-17 40t-67 19l-76 6
l-8 7v50l8 7q343 -6 555 -6zM1036 1856l-210 -157l-200 -156l-15 -4l-25 24l2 14l144 174q3 3 95 117l187 26l10 -7z" />
    <glyph glyph-name="Ecircumflex" unicode="&#xca;" horiz-adv-x="1251" 
d="M636 1407q212 0 468 6l5 -7q-25 -96 -37 -301l-6 -8h-49l-9 8q1 9 1 55t-13 123q-101 45 -342 45q-79 0 -202 -11l-4 -160l-6 -386q108 -6 200 -6q196 0 220 15t31 94l4 62l8 8h46l8 -8q-2 -109 -5 -219l5 -225l-8 -8h-46l-8 8l-7 60q-9 70 -13 84q-5 14 -19 23
q-32 22 -239 22q-58 0 -177 -5q-5 -84 -5 -287t5 -302h184q243 0 304 6t116 29q9 23 29.5 106.5t23.5 104.5l10 7h48l8 -7q-9 -43 -17.5 -150t-8.5 -183l-7 -8q-191 6 -500 6l-272 2q-95 0 -198 -8l-8 8v33l8 10q59 30 67.5 37.5t14 175t5.5 255.5v367l-1 227q0 151 -7 179
t-17 40t-67 19l-76 6l-8 7v50l8 7q343 -6 555 -6zM969 1550l-7 -11h-62l-264 234l-264 -234h-62l-7 10l288 356h96z" />
    <glyph glyph-name="Edieresis" unicode="&#xcb;" horiz-adv-x="1251" 
d="M636 1407q212 0 468 6l5 -7q-25 -96 -37 -301l-6 -8h-49l-9 8q1 9 1 55t-13 123q-101 45 -342 45q-79 0 -202 -11l-4 -160l-6 -386q108 -6 200 -6q196 0 220 15t31 94l4 62l8 8h46l8 -8q-2 -109 -5 -219l5 -225l-8 -8h-46l-8 8l-7 60q-9 70 -13 84q-5 14 -19 23
q-32 22 -239 22q-58 0 -177 -5q-5 -84 -5 -287t5 -302h184q243 0 304 6t116 29q10 22 30 106t23 105l10 7h48l8 -7q-9 -43 -17 -150t-9 -183l-7 -8q-191 6 -500 6l-272 2q-95 0 -198 -8l-8 8v33l8 10q60 29 68 37t14 176t5 255v367l-1 227q0 151 -7 179t-17 40t-67 19l-76 6
l-8 7v50l8 7q343 -6 555 -6zM390 1604q-47 0 -80 32t-33 80q0 47 33 80t80 33q48 0 80 -33t32 -80q0 -48 -32 -80t-80 -32zM883 1604q-47 0 -80 32t-33 80q0 47 33 80t80 33t79 -33t33 -80q-1 -48 -33 -80t-79 -32z" />
    <glyph glyph-name="Igrave" unicode="&#xcc;" horiz-adv-x="690" 
d="M343 1405q36 0 289 8l8 -7v-50l-8 -7q-135 -4 -156 -18q-22 -15 -28 -55t-5 -112l-2 -230v-463l1 -195q0 -168 20 -190q10 -10 37 -18t133 -12l8 -6v-50l-8 -8l-287 8q-31 0 -286 -8l-8 8v50l8 6q144 6 160 21q17 14 23 45t7 138l1 211v463l-2 195q-1 170 -15 186t-41 23
t-133 11l-8 7v50l8 7l125 -4q123 -4 159 -4zM416 1563l-25 -24l-15 4l-200 156l-210 157l12 31l10 7l187 -26l97 -120q16 -20 142 -171z" />
    <glyph glyph-name="Iacute" unicode="&#xcd;" horiz-adv-x="690" 
d="M343 1405q36 0 289 8l8 -7v-50l-8 -7q-135 -4 -156 -18q-22 -15 -28 -55t-5 -112l-2 -230v-463l1 -195q0 -168 20 -190q10 -10 37 -18t133 -12l8 -6v-50l-8 -8l-287 8q-31 0 -286 -8l-8 8v50l8 6q144 6 160 21q17 14 23 45t7 138l1 211v463l-2 195q-1 170 -15 186t-41 23
t-133 11l-8 7v50l8 7l125 -4q123 -4 159 -4zM706 1856l-210 -157l-200 -156l-15 -4l-25 24l2 14l144 174q3 3 95 117l187 26l10 -7z" />
    <glyph glyph-name="Icircumflex" unicode="&#xce;" horiz-adv-x="690" 
d="M343 1405q36 0 289 8l8 -7v-50l-8 -7q-135 -4 -156 -18q-22 -15 -28 -55t-5 -112l-2 -230v-463l1 -195q0 -168 20 -190q10 -10 37 -18t133 -12l8 -6v-50l-8 -8l-287 8q-31 0 -286 -8l-8 8v50l8 6q144 6 160 21q17 14 23 45t7 138l1 211v463l-2 195q-1 170 -15 186t-41 23
t-133 11l-8 7v50l8 7l125 -4q123 -4 159 -4zM684 1550l-7 -11h-62l-264 234l-264 -234h-62l-7 10l288 356h96z" />
    <glyph glyph-name="Idieresis" unicode="&#xcf;" horiz-adv-x="690" 
d="M343 1405q36 0 289 8l8 -7v-50l-8 -7q-135 -4 -156 -18q-22 -15 -28 -55t-5 -112l-2 -230v-463l1 -195q0 -168 20 -190q10 -10 37 -18t133 -12l8 -6v-50l-8 -8l-287 8q-31 0 -286 -8l-8 8v50l8 6q144 6 160 21q17 14 23 45t7 138l1 211v463l-2 195q-1 170 -15 186t-41 23
t-133 11l-8 7v50l8 7l125 -4q123 -4 159 -4zM105 1604q-47 0 -80 32t-33 80q0 47 33 80t80 33t79 -33t33 -80q-1 -48 -33 -80t-79 -32zM598 1604q-47 0 -80 32t-33 80q0 47 33 80t80 33q48 0 80 -33t32 -80q0 -48 -32 -80t-80 -32z" />
    <glyph glyph-name="Eth" unicode="&#xd0;" horiz-adv-x="1585" 
d="M392 684v-58l2 -294q0 -86 6 -231q103 -20 235 -20q233 0 373 78t208 231q69 153 69 345q0 283 -151 439t-475 156q-135 0 -259 -20q-8 -164 -8 -370v-179h331l10 -10v-57l-10 -10h-331zM207 511v173h-171l-10 10v56l11 11h170v117l-2 227q0 151 -7 179t-17 40t-66 19
l-77 6l-8 7v50l8 7q173 -8 236 -8l468 10q193 1 321 -35t226 -123q211 -187 211 -484q0 -135 -46 -267t-134 -237q-228 -277 -645 -277l-389 8q-69 0 -167 -8l-7 8v33l8 10q59 29 67 37t14 176t6 255z" />
    <glyph glyph-name="Ntilde" unicode="&#xd1;" horiz-adv-x="1702" 
d="M235 424v808q0 92 -69 106q-32 6 -109 8l-8 8v47l8 9q138 -5 210 -5t137 5l319 -414l469 -588q85 -107 173 -203v774q-1 227 -9 280q-8 54 -26 70t-135 18l-8 8v46l8 9q81 -5 225 -5t205 5l9 -9v-46l-8 -8q-131 -2 -147 -29q-23 -38 -23 -339v-475l1 -275q2 -135 4 -271
q-50 17 -173 42l-284 344l-678 847v-767q0 -248 8 -290t17 -52q21 -25 144 -26l8 -8v-47l-8 -8q-53 7 -185 7t-244 -7l-9 9v46l9 8q126 2 144 27q24 33 25 341zM1007 1603q-72 -1 -173 49t-137 50q-89 0 -123 -99h-45l-7 8q18 88 80 153t133 65q71 1 171 -49t141 -50
q81 0 121 99h45l7 -7q-19 -88 -80 -154t-133 -65z" />
    <glyph glyph-name="Ograve" unicode="&#xd2;" horiz-adv-x="1610" 
d="M256 755q0 -123 40 -263t118 -240q155 -199 414 -199q155 0 276 71q121 70 184 220t63 344t-72 357t-205 237t-295 74q-243 0 -383 -152t-140 -449zM48 706q0 302 190 504q217 232 568 231q352 1 554 -185t202 -507q0 -226 -99 -406t-283 -280t-415 -100q-339 0 -533 217
q-96 108 -140 250t-44 276zM916 1563l-25 -24l-15 4l-200 156l-210 157l12 31l10 7l187 -26l97 -120q16 -20 142 -171z" />
    <glyph glyph-name="Oacute" unicode="&#xd3;" horiz-adv-x="1610" 
d="M256 755q0 -123 40 -263t118 -240q155 -199 414 -199q155 0 276 71q121 70 184 220t63 344t-72 357t-205 237t-295 74q-243 0 -383 -152t-140 -449zM48 706q0 302 190 504q217 232 568 231q352 1 554 -185t202 -507q0 -226 -99 -406t-283 -280t-415 -100q-339 0 -533 217
q-96 108 -140 250t-44 276zM1166 1856l-210 -157l-200 -156l-15 -4l-25 24l2 14l144 174q3 3 95 117l187 26l10 -7z" />
    <glyph glyph-name="Ocircumflex" unicode="&#xd4;" horiz-adv-x="1610" 
d="M256 755q0 -123 40 -263t118 -240q155 -199 414 -199q155 0 276 71t184 220.5t63 343.5t-72 357t-205 237t-295 74q-243 0 -383 -152t-140 -449zM48 706q0 302 190 504q217 232 568.5 231.5t553.5 -186t202 -506.5q0 -226 -99 -406t-283.5 -280t-414.5 -100
q-339 0 -533 217q-96 108 -140 250t-44 276zM1149 1550l-7 -11h-62l-264 234l-264 -234h-62l-7 10l288 356h96z" />
    <glyph glyph-name="Otilde" unicode="&#xd5;" horiz-adv-x="1610" 
d="M256 755q0 -123 40 -263t118 -240q155 -199 414 -199q155 0 276 71q121 70 184 220t63 344t-72 357t-205 237t-295 74q-243 0 -383 -152t-140 -449zM48 706q0 302 190 504q217 232 568 231q352 1 554 -185t202 -507q0 -226 -99 -406t-283 -280t-415 -100q-339 0 -533 217
q-96 108 -140 250t-44 276zM947 1603q-72 -1 -173 49t-137 50q-89 0 -123 -99h-45l-7 8q18 88 80 153t133 65q71 1 171 -49t141 -50q81 0 121 99h45l7 -7q-19 -88 -80 -154t-133 -65z" />
    <glyph glyph-name="Odieresis" unicode="&#xd6;" horiz-adv-x="1610" 
d="M256 755q0 -123 40 -263t118 -240q155 -199 414 -199q155 0 276 71q121 70 184 220t63 344t-72 357t-205 237t-295 74q-243 0 -383 -152t-140 -449zM48 706q0 302 190 504q217 232 568 231q352 1 554 -185t202 -507q0 -226 -99 -406t-283 -280t-415 -100q-339 0 -533 217
q-96 108 -140 250t-44 276zM565 1604q-47 0 -80 32t-33 80q0 47 33 80t80 33t79 -33t33 -80q-1 -48 -33 -80t-79 -32zM1058 1604q-47 0 -80 32t-33 80q0 47 33 80t80 33q48 0 80 -33t32 -80q0 -48 -32 -80t-80 -32z" />
    <glyph glyph-name="multiply" unicode="&#xd7;" 
d="M901 335l-80 -78l-309 296l-308 -296l-81 78l307 297l-307 297l81 78l308 -296l309 296l80 -78l-307 -297z" />
    <glyph glyph-name="Oslash" unicode="&#xd8;" horiz-adv-x="1706" 
d="M1397 677q0 253 -84 399l-860 -812q64 -77 153 -144t265 -67t351 121t175 503zM304 746q0 -196 101 -403l860 809q-41 53 -73 81.5t-121 75.5t-246 47q-156 0 -278 -71.5t-182.5 -207t-60.5 -331.5zM816 -38q-310 0 -498 175l-178 -168h-12l-49 51v12l179 173
q-160 214 -160 497q0 333 217 536t565 203q156 0 276 -42t236 -129l173 160h12l47 -46l1 -12l-172 -163q155 -183 155 -443t-111 -436.5t-289.5 -272t-391.5 -95.5z" />
    <glyph glyph-name="Ugrave" unicode="&#xd9;" horiz-adv-x="1593" 
d="M322 1405q36 0 289 8l8 -7v-50l-8 -7q-135 -4 -156 -18q-21 -15 -27 -55t-6 -112l-2 -230v-318q0 -156 6 -230q13 -144 103 -219t303 -75q110 0 206 30t145 89t65 153t16 262v308q0 340 -12 366t-38 36t-141 13l-8 8v47l8 9q149 -8 231 -8t242 8l9 -8v-48l-9 -8
q-141 -3 -157 -19q-17 -16 -23 -39t-7 -132l-3 -225v-304q0 -182 -14 -287q-24 -181 -170 -280q-146 -100 -410 -100t-401 113q-62 52 -89 108t-35 132t-8 234v384l-2 195q-1 170 -15 186t-41 23t-133 11l-8 7v50l8 7q248 -8 284 -8zM901 1563l-25 -24l-15 4l-200 156
l-210 157l12 31l10 7l187 -26l97 -120q16 -20 142 -171z" />
    <glyph glyph-name="Uacute" unicode="&#xda;" horiz-adv-x="1593" 
d="M322 1405q36 0 289 8l8 -7v-50l-8 -7q-135 -4 -156 -18q-21 -15 -27 -55t-6 -112l-2 -230v-318q0 -156 6 -230q13 -144 103 -219t303 -75q110 0 206 30t145 89t65 153t16 262v308q0 340 -12 366t-38 36t-141 13l-8 8v47l8 9q149 -8 231 -8t242 8l9 -8v-48l-9 -8
q-141 -3 -157 -19q-17 -16 -23 -39t-7 -132l-3 -225v-304q0 -182 -14 -287q-24 -181 -170 -280q-146 -100 -410 -100t-401 113q-62 52 -89 108t-35 132t-8 234v384l-2 195q-1 170 -15 186t-41 23t-133 11l-8 7v50l8 7q248 -8 284 -8zM1161 1856l-210 -157l-200 -156l-15 -4
l-25 24l2 14l144 174q3 3 95 117l187 26l10 -7z" />
    <glyph glyph-name="Ucircumflex" unicode="&#xdb;" horiz-adv-x="1593" 
d="M322 1405q36 0 289 8l8 -7v-50l-8 -7q-135 -4 -156 -18q-21 -15 -27 -55t-6 -112l-2 -230v-318q0 -156 6 -230q13 -144 103 -219t303 -75q110 0 206 30t145 89t65 153t16 262v308q0 340 -12 366t-38 36t-141 13l-8 8v47l8 9q149 -8 231 -8t242 8l9 -8v-48l-9 -8
q-141 -3 -157 -19q-17 -16 -23 -39t-7 -132l-3 -225v-304q0 -182 -14 -287q-24 -181 -170 -280q-146 -100 -410 -100t-401 113q-62 52 -89 108t-35 132t-8 234v384l-2 195q-1 170 -15 186t-41 23t-133 11l-8 7v50l8 7q248 -8 284 -8zM1159 1550l-7 -11h-62l-264 234
l-264 -234h-62l-7 10l288 356h96z" />
    <glyph glyph-name="Udieresis" unicode="&#xdc;" horiz-adv-x="1593" 
d="M322 1405q36 0 289 8l8 -7v-50l-8 -7q-135 -4 -156 -18q-21 -15 -27 -55t-6 -112l-2 -230v-318q0 -156 6 -230q13 -144 103 -219t303 -75q110 0 206 30t145 89t65 153t16 262v308q0 340 -12 366t-38 36t-141 13l-8 8v47l8 9q149 -8 231 -8t242 8l9 -8v-48l-9 -8
q-141 -3 -157 -19q-17 -16 -23 -39t-7 -132l-3 -225v-304q0 -182 -14 -287q-24 -181 -170 -280q-146 -100 -410 -100t-401 113q-62 52 -89 108t-35 132t-8 234v384l-2 195q-1 170 -15 186t-41 23t-133 11l-8 7v50l8 7q248 -8 284 -8zM585 1604q-47 0 -80 32t-33 80
q0 47 33 80t80 33t79 -33t33 -80q-1 -48 -33 -80t-79 -32zM1078 1604q-47 0 -80 32t-33 80q0 47 33 80t80 33q48 0 80 -33t32 -80q0 -48 -32 -80t-80 -32z" />
    <glyph glyph-name="Yacute" unicode="&#xdd;" horiz-adv-x="1366" 
d="M1243 1409q30 0 77 4l8 -8v-19q-50 -56 -155 -200t-157 -226t-126 -204q-75 -124 -82 -149t-7 -59v-147l1 -150q2 -145 22 -167q10 -10 36 -17t132 -11l8 -6v-50l-8 -8l-287 8q-32 0 -286 -8l-8 8v50l8 6q144 6 160 21q16 13 22 41t7 113l2 171v190q-22 54 -147 259
l-88 143q-184 298 -258 320q-19 6 -102 5l-9 9v42l9 9l283 47q30 -21 58 -53t121 -180q92 -148 268 -497l102 162l327 555q39 -4 69 -4zM1066 1856l-210 -157l-200 -156l-15 -4l-25 24l2 14l144 174q3 3 95 117l187 26l10 -7z" />
    <glyph glyph-name="Thorn" unicode="&#xde;" horiz-adv-x="1237" 
d="M368 1405q36 0 289 8l8 -7v-50l-8 -7q-100 -4 -130.5 -10.5t-44.5 -24.5t-16 -208q53 -3 98 -3l213 2q131 0 265.5 -69.5t134.5 -248.5q0 -102 -57.5 -206t-163.5 -164t-241 -60q-52 0 -106 13l-18 66l11 6q54 -15 115 -15t158.5 62.5t97.5 238.5q0 292 -336 292
q-73 0 -171 -15v-534l1 -195q1 -168 15.5 -184.5t41.5 -24t133 -11.5l8 -6v-50l-8 -8q-247 8 -283 8t-290 -8l-8 8v50l8 6q144 6 160 20.5t22.5 45.5t7.5 138l1 211v463l-2 195q-1 170 -15 186t-41 23t-133 11l-8 7v50l8 7q248 -8 284 -8z" />
    <glyph glyph-name="germandbls" unicode="&#xdf;" horiz-adv-x="1139" 
d="M754 62q72 0 120.5 44t48.5 102t-19.5 91t-58.5 63t-137 94t-133.5 103t-35.5 88q0 48 7.5 68t25.5 42l108 134q34 43 158 43q8 0 33 -1q23 92 23 169q0 132 -74 210.5t-176 78.5t-167.5 -49t-92 -130t-26.5 -244v-587l7 -222q2 -62 13 -79t27 -20.5t101 -7.5
q28 53 50 161l9 8h37l9 -8v-86q71 -65 143 -65zM191 955q0 105 20.5 165.5t71 122.5t122 123t135.5 89t154 28t201.5 -55.5t111.5 -251.5q0 -80 -25.5 -197t-48.5 -182l-15 -7q-86 47 -140 47t-83 -28.5t-29 -68.5t28 -67t134 -87t166 -104t60 -173q0 -128 -99 -214
t-144 -105t-127 -19t-161 46v-16l-8 -9q-123 8 -239 8t-242 -8l-8 9v42l8 8l74 4q48 3 58 17t14 36.5t7.5 145t3.5 142.5v382h-119l-9 8v23l8 10l120 63v73z" />
    <glyph glyph-name="agrave" unicode="&#xe0;" 
d="M258 252q0 -156 155 -156q133 0 263 154v270q-280 -47 -349 -101t-69 -167zM511 954q115 0 191 -43q144 -81 144 -258l-5 -201v-298q1 -61 9 -74q8 -14 19 -18t41 -7l57 -5l8 -9v-40l-8 -8q-73 6 -135 6t-145 -6l-15 14l4 161l-218 -170q-56 -23 -128 -23t-130 29
q-118 60 -118 207t92 229t502 141q0 149 -66 209t-177 60q-57 0 -105 -17t-55 -27t-54 -123l-7 -5l-39 10l-8 10v124q178 132 346 132zM540 1117l-3 -13l-29 -15l-13 4l-294 374l17 25l13 3l72 -14q23 -5 84 -15z" />
    <glyph glyph-name="aacute" unicode="&#xe1;" 
d="M258 252q0 -156 155 -156q133 0 263 154v270q-280 -47 -349 -101t-69 -167zM511 954q115 0 191 -43q144 -81 144 -258l-5 -201v-298q1 -61 9 -74q8 -14 19 -18t41 -7l57 -5l8 -9v-40l-8 -8q-73 6 -135 6t-145 -6l-15 14l4 161l-218 -170q-56 -23 -128 -23t-130 29
q-118 60 -118 207t92 229t502 141q0 149 -66 209t-177 60q-57 0 -105 -17t-55 -27t-54 -123l-7 -5l-39 10l-8 10v124q178 132 346 132zM780 1467l-294 -374l-13 -4l-29 15l-3 13l153 349l156 29l13 -3z" />
    <glyph glyph-name="acircumflex" unicode="&#xe2;" 
d="M258 252q0 -156 155 -156q133 0 263 154v270q-280 -47 -349 -101t-69 -167zM511 954q115 0 191 -43q144 -81 144 -258l-5 -201v-298q0 -61 8.5 -74t19.5 -17.5t41 -7.5l57 -5l8 -9v-40l-8 -8q-73 6 -134.5 6t-145.5 -6l-15 14l4 161l-218 -170q-55 -23 -127.5 -23
t-130.5 29q-118 60 -118 207t92 229.5t502 140.5q0 148 -66 208.5t-177 60.5q-58 0 -105.5 -17t-54.5 -27.5t-54 -122.5l-7 -5l-39 10l-8 10v124q178 132 346 132zM811 1120l-7 -10h-58l-255 248l-255 -248h-58l-7 10l261 362h118z" />
    <glyph glyph-name="atilde" unicode="&#xe3;" 
d="M258 252q0 -156 155 -156q133 0 263 154v270q-280 -47 -349 -101t-69 -167zM511 954q115 0 191 -43q144 -81 144 -258l-5 -201v-298q1 -61 9 -74q8 -14 19 -18t41 -7l57 -5l8 -9v-40l-8 -8q-73 6 -135 6t-145 -6l-15 14l4 161l-218 -170q-56 -23 -128 -23t-130 29
q-118 60 -118 207t92 229t502 141q0 149 -66 209t-177 60q-57 0 -105 -17t-55 -27t-54 -123l-7 -5l-39 10l-8 10v124q178 132 346 132zM630 1170q-70 0 -170 51t-141 51q-78 0 -117 -101h-50l-6 7q18 87 79 151t130 64t171 -51t143 -51q75 0 114 106h52l6 -7
q-21 -92 -81 -156t-130 -64z" />
    <glyph glyph-name="adieresis" unicode="&#xe4;" 
d="M258 252q0 -156 155 -156q133 0 263 154v270q-280 -47 -349 -101t-69 -167zM511 954q115 0 191 -43q144 -81 144 -258l-5 -201v-298q1 -61 9 -74q8 -14 19 -18t41 -7l57 -5l8 -9v-40l-8 -8q-73 6 -135 6t-145 -6l-15 14l4 161l-218 -170q-56 -23 -128 -23t-130 29
q-118 60 -118 207t92 229t502 141q0 149 -66 209t-177 60q-57 0 -105 -17t-55 -27t-54 -123l-7 -5l-39 10l-8 10v124q178 132 346 132zM294 1163q-45 0 -77 32t-32 77t32 77q31 32 77 32q46 1 78 -31t31 -78q0 -46 -32 -77q-32 -32 -77 -32zM717 1163q-45 0 -77 32
q-32 31 -32 77t32 78t77 31q45 1 77 -31t32 -78t-32 -77q-32 -32 -77 -32z" />
    <glyph glyph-name="aring" unicode="&#xe5;" 
d="M258 252q0 -156 155 -156q133 0 263 154v270q-280 -47 -349 -101t-69 -167zM511 954q115 0 191 -43q144 -81 144 -258l-5 -201v-298q1 -61 9 -74q8 -14 19 -18t41 -7l57 -5l8 -9v-40l-8 -8q-73 6 -135 6t-145 -6l-15 14l4 161l-218 -170q-56 -23 -128 -23t-130 29
q-118 60 -118 207t92 229t502 141q0 149 -66 209t-177 60q-57 0 -105 -17t-55 -27t-54 -123l-7 -5l-39 10l-8 10v124q178 132 346 132zM607 1281q0 54 -30 98q-29 44 -85 44t-86 -43t-31 -100q1 -57 33 -98t85 -41t83 43t31 97zM691 1268q1 -66 -59 -119t-130 -53t-114 26
q-96 54 -97 160q0 78 59 132t129 54t116 -26t71 -68q25 -40 25 -106z" />
    <glyph glyph-name="ae" unicode="&#xe6;" horiz-adv-x="1552" 
d="M223 246q0 -50 41 -99t124 -49t151.5 46.5t103.5 98.5v237q-112 -4 -202.5 -28.5t-126.5 -40.5t-51 -31.5t-27.5 -49.5t-12.5 -84zM1072 545q195 0 225 5q1 24 1 37q0 151 -61 228.5t-177 77.5t-182.5 -85t-66.5 -252q66 -11 261 -11zM1149 73q132 0 287 91l16 -17
l-32 -72q-166 -107 -316 -107q-303 0 -424 217q-165 -144 -233 -194q-69 -21 -136 -21q-131 0 -198.5 73.5t-67.5 174.5t51.5 159t87 76.5t156 50.5t303.5 42q0 302 -236 302q-86 0 -177 -43q-15 -26 -28 -61l-23 -56l-12 -5l-35 8l-8 11v117q14 8 62 35.5t87 49.5l58 30
q49 25 131 25t136.5 -17t89 -43t74.5 -75q168 136 342 136q120 0 248.5 -80t128.5 -308q0 -29 -4 -60l-10 -11q-113 -25 -335 -25h-321q2 -207 104 -305t234 -98z" />
    <glyph glyph-name="ccedilla" unicode="&#xe7;" horiz-adv-x="909" 
d="M629 73q92 0 218 60l21 -26l-40 -67q-126 -69 -276 -71l-48 -111q33 6 62 6q81 0 127.5 -39t46.5 -96t-49 -117.5t-195 -60.5q-97 0 -181 29l-4 12l24 51l11 5q60 -22 120 -22t86.5 26t26.5 60t-27.5 55t-65.5 21t-71 -10l-18 14l81 180q-184 16 -291 142.5t-107 314.5
q0 270 90 336t180.5 116t136.5 65.5t127 15.5q155 0 254 -59q-19 -113 -29 -252l-9 -8h-41l-9 9q-4 84 -11 113t-79.5 62t-154.5 33t-178.5 -52t-96.5 -283q0 -92 26 -179.5t68.5 -145t112.5 -92.5t162 -35z" />
    <glyph glyph-name="egrave" unicode="&#xe8;" horiz-adv-x="981" 
d="M504 545q195 0 225 5q1 24 1 37q0 155 -63 231t-177 75q-114 0 -180 -85t-67 -252q66 -11 261 -11zM582 73q133 0 286 91l16 -17l-32 -72q-166 -107 -331 -107q-119 0 -227 47t-176 159t-67 244q0 132 26 216q27 84 55 125t96 91q150 110 308 110q120 0 212 -56
q166 -102 165 -332q0 -31 -3 -60l-11 -11q-113 -25 -335 -25h-321q2 -207 104 -305t235 -98zM560 1117l-3 -13l-29 -15l-13 4l-294 374l17 25l13 3l72 -14q23 -5 84 -15z" />
    <glyph glyph-name="eacute" unicode="&#xe9;" horiz-adv-x="981" 
d="M504 545q195 0 225 5q1 24 1 37q0 155 -63 231t-177 75q-114 0 -180 -85t-67 -252q66 -11 261 -11zM582 73q133 0 286 91l16 -17l-32 -72q-166 -107 -331 -107q-119 0 -227 47t-176 159t-67 244q0 132 26 216q27 84 55 125t96 91q150 110 308 110q120 0 212 -56
q166 -102 165 -332q0 -31 -3 -60l-11 -11q-113 -25 -335 -25h-321q2 -207 104 -305t235 -98zM810 1467l-294 -374l-13 -4l-29 15l-3 13l153 349l156 29l13 -3z" />
    <glyph glyph-name="ecircumflex" unicode="&#xea;" horiz-adv-x="981" 
d="M504 545q195 0 225 5q1 24 1 37q0 155 -63 230.5t-177 75.5t-180.5 -85t-66.5 -252q66 -11 261 -11zM582.5 73q133.5 0 285.5 91l16 -17l-32 -72q-166 -107 -331 -107q-120 0 -227.5 47t-175 159t-67.5 243.5t26 216t54.5 125.5t96.5 91q150 110 308 110q120 0 212 -56
q166 -102 165 -332q0 -31 -3 -60l-11 -11q-113 -25 -335 -25h-321q2 -207 104 -305t235.5 -98zM831 1120l-7 -10h-58l-255 248l-255 -248h-58l-7 10l261 362h118z" />
    <glyph glyph-name="edieresis" unicode="&#xeb;" horiz-adv-x="981" 
d="M504 545q195 0 225 5q1 24 1 37q0 155 -63 231t-177 75q-114 0 -180 -85t-67 -252q66 -11 261 -11zM582 73q133 0 286 91l16 -17l-32 -72q-166 -107 -331 -107q-119 0 -227 47t-176 159t-67 244q0 132 26 216q27 84 55 125t96 91q150 110 308 110q120 0 212 -56
q166 -102 165 -332q0 -31 -3 -60l-11 -11q-113 -25 -335 -25h-321q2 -207 104 -305t235 -98zM294 1163q-45 0 -77 32t-32 77t32 77q31 32 77 32q46 1 78 -31t31 -78q0 -46 -32 -77q-32 -32 -77 -32zM717 1163q-45 0 -77 32q-32 31 -32 77t32 78t77 31q45 1 77 -31t32 -78
t-32 -77q-32 -32 -77 -32z" />
    <glyph glyph-name="igrave" unicode="&#xec;" horiz-adv-x="596" 
d="M381 607v-226q0 -21 4 -141q5 -120 9 -140t13 -29t22 -11t108 -9l9 -8v-42l-8 -9q-124 8 -240 8t-241 -8l-9 9v42l9 8q97 6 109 9q12 2 22 12t14 30t8 128q4 110 4 166v197q0 127 -10 194q-2 15 -16 23q-13 8 -52 8l-84 1l-9 8v43l8 8q191 23 322 75l19 -13
q-11 -131 -11 -333zM330 1117l-3 -13l-29 -15l-13 4l-294 374l17 25l13 3l72 -14q23 -5 84 -15z" />
    <glyph glyph-name="iacute" unicode="&#xed;" horiz-adv-x="596" 
d="M381 607v-226q0 -21 4 -141q5 -120 9 -140t13 -29t22 -11t108 -9l9 -8v-42l-8 -9q-124 8 -240 8t-241 -8l-9 9v42l9 8q97 6 109 9q12 2 22 12t14 30t8 128q4 110 4 166v197q0 127 -10 194q-2 15 -16 23q-13 8 -52 8l-84 1l-9 8v43l8 8q191 23 322 75l19 -13
q-11 -131 -11 -333zM550 1467l-294 -374l-13 -4l-29 15l-3 13l153 349l156 29l13 -3z" />
    <glyph glyph-name="icircumflex" unicode="&#xee;" horiz-adv-x="596" 
d="M381 607v-226q0 -21 4 -141q5 -120 9 -140t13 -29t22 -11t108 -9l9 -8v-42l-8 -9q-124 8 -240 8t-241 -8l-9 9v42l9 8q97 6 109 9q12 2 22 12t14 30t8 128q4 110 4 166v197q0 127 -10 194q-2 15 -16 23q-13 8 -52 8l-84 1l-9 8v43l8 8q191 23 322 75l19 -13
q-11 -131 -11 -333zM591 1120l-7 -10h-58l-255 248l-255 -248h-58l-7 10l261 362h118z" />
    <glyph glyph-name="idieresis" unicode="&#xef;" horiz-adv-x="596" 
d="M381 607v-226q0 -21 4 -141q5 -120 9 -140t13 -29t22 -11t108 -9l9 -8v-42l-8 -9q-124 8 -240 8t-241 -8l-9 9v42l9 8q97 6 109 9q12 2 22 12t14 30t8 128q4 110 4 166v197q0 127 -10 194q-2 15 -16 23q-13 8 -52 8l-84 1l-9 8v43l8 8q191 23 322 75l19 -13
q-11 -131 -11 -333zM49 1163q-45 0 -77 32t-32 77t32 77t78 32q46 1 76 -31q32 -32 32 -78t-32 -77q-32 -32 -77 -32zM472 1163q-45 0 -77 32q-32 31 -32 77q-1 46 31 78t78 31q46 1 78 -31t31 -78q0 -46 -32 -77q-32 -32 -77 -32z" />
    <glyph glyph-name="eth" unicode="&#xf0;" horiz-adv-x="1118" 
d="M266 514q0 -108 34 -227t104 -188.5t167 -69.5q139 0 215 139t76 329t-88.5 294t-220.5 104q-96 0 -165.5 -51.5t-95.5 -136.5t-26 -193zM1042 544q0 -164 -60.5 -296.5t-180.5 -209.5t-273 -77q-196 0 -324 132t-128 351q0 146 57.5 265.5t175 186.5t238.5 67t240 -51
q-72 173 -199 292l-279 -131l-12 3l-28 44l4 13l269 127q-87 81 -238 161l-1 13l52 51l15 1q176 -102 265 -176l284 136l12 -3l27 -43l-3 -12l-257 -128q201 -201 272.5 -376.5t71.5 -339.5z" />
    <glyph glyph-name="ntilde" unicode="&#xf1;" horiz-adv-x="1192" 
d="M710 955q60 0 132 -31q72 -32 108 -74q64 -75 64 -243v-176q0 -17 5 -249q2 -95 21 -113t124 -18l8 -8v-43l-8 -8q-126 8 -162 8t-156 -8l-12 11q13 130 13 339v131q1 118 -5 170q-6 53 -34 95q-59 90 -187 89q-52 -1 -89 -11t-83 -42t-68 -62q-23 -28 -27 -52t-4 -105
v-174q0 -21 4 -141t8 -140t14 -29q9 -9 22 -11t108 -9l9 -8v-42l-8 -9q-125 8 -241 8t-240 -8l-9 9v42l9 8q98 6 110 9q12 2 22 12t12 30q4 20 8 128q4 110 5 166v197q-1 127 -11 194q-2 15 -15 23t-52 8l-84 1l-9 8v43l8 8q191 23 322 75l19 -13q-6 -67 -8 -176
q81 66 127 110t64 52q18 9 62 19t104 10zM758 1170q-70 0 -170 51t-141 51q-78 0 -117 -101h-50l-6 7q18 87 79 151t130 64t171 -51t143 -51q75 0 114 106h52l6 -7q-21 -92 -81 -156t-130 -64z" />
    <glyph glyph-name="ograve" unicode="&#xf2;" horiz-adv-x="1118" 
d="M257 546q0 -158 36 -270q36 -110 114 -177t187 -67t186 94t77 294q1 200 -83 336t-241 136q-130 0 -203 -94t-73 -252zM68 454q0 124 49 234t171 190t288 81q210 -1 342 -133t132 -350t-152 -367q-152 -148 -365 -148q-140 -1 -250 75q-111 76 -163 185t-52 233z
M580 1117l-3 -13l-29 -15l-13 4l-294 374l17 25l13 3l72 -14q23 -5 84 -15z" />
    <glyph glyph-name="oacute" unicode="&#xf3;" horiz-adv-x="1118" 
d="M257 546q0 -158 36 -270q36 -110 114 -177t187 -67t186 94t77 294q1 200 -83 336t-241 136q-130 0 -203 -94t-73 -252zM68 454q0 124 49 234t171 190t288 81q210 -1 342 -133t132 -350t-152 -367q-152 -148 -365 -148q-140 -1 -250 75q-111 76 -163 185t-52 233z
M820 1467l-294 -374l-13 -4l-29 15l-3 13l153 349l156 29l13 -3z" />
    <glyph glyph-name="ocircumflex" unicode="&#xf4;" horiz-adv-x="1118" 
d="M257 545.5q0 -158.5 36 -269t114 -177.5t187 -67t186 93.5t77 294t-83.5 336.5t-240.5 136q-130 0 -203 -94t-73 -252.5zM68 453.5q0 123.5 49 234t170.5 191t288.5 80.5q210 0 342 -132.5t132 -351t-151.5 -366.5t-365.5 -148q-140 0 -250 75.5t-162.5 184.5
t-52.5 232.5zM871 1120l-7 -10h-58l-255 248l-255 -248h-58l-7 10l261 362h118z" />
    <glyph glyph-name="otilde" unicode="&#xf5;" horiz-adv-x="1118" 
d="M257 546q0 -158 36 -270q36 -110 114 -177t187 -67t186 94t77 294q1 200 -83 336t-241 136q-130 0 -203 -94t-73 -252zM68 454q0 124 49 234t171 190t288 81q210 -1 342 -133t132 -350t-152 -367q-152 -148 -365 -148q-140 -1 -250 75q-111 76 -163 185t-52 233z
M678 1170q-70 0 -170 51t-141 51q-78 0 -117 -101h-50l-6 7q18 87 79 151t130 64t171 -51t143 -51q75 0 114 106h52l6 -7q-21 -92 -81 -156t-130 -64z" />
    <glyph glyph-name="odieresis" unicode="&#xf6;" horiz-adv-x="1118" 
d="M257 546q0 -158 36 -270q36 -110 114 -177t187 -67t186 94t77 294q1 200 -83 336t-241 136q-130 0 -203 -94t-73 -252zM68 454q0 124 49 234t171 190t288 81q210 -1 342 -133t132 -350t-152 -367q-152 -148 -365 -148q-140 -1 -250 75q-111 76 -163 185t-52 233z
M339 1163q-45 0 -77 32t-32 77t32 77t78 32q46 1 76 -31q32 -32 32 -78t-32 -77q-32 -32 -77 -32zM762 1163q-45 0 -77 32q-32 31 -32 77q-1 46 31 78t78 31q46 1 78 -31t31 -78q0 -46 -32 -77q-32 -32 -77 -32z" />
    <glyph glyph-name="divide" unicode="&#xf7;" 
d="M512 234q-41 0 -70 29t-29 70t29 69.5t70 28.5t70 -28.5t29 -69.5t-29 -70t-70 -29zM994 576h-964v112h964v-112zM512 831q-41 0 -70 29t-29 70t29 69.5t70 28.5t70 -28.5t29 -69.5t-29 -70t-70 -29z" />
    <glyph glyph-name="oslash" unicode="&#xf8;" horiz-adv-x="1118" 
d="M585 32q118 0 195 93t77 257t-38 278l-484 -474q96 -154 250 -154zM533 892q-130 0 -203 -94t-73 -260t42 -279l486 477q-85 156 -252 156zM68 474q0 202 144 343.5t349 141.5t337 -113l123 121h12l44 -42v-12l-126 -123q99 -126 99 -304q0 -229 -151.5 -377t-364.5 -148
q-178 0 -307 119l-125 -122h-12l-44 40v12l129 127q-107 135 -107 337z" />
    <glyph glyph-name="ugrave" unicode="&#xf9;" horiz-adv-x="1235" 
d="M354 607v-233q0 -128 20 -178q40 -103 185 -103t229 109q40 52 47 70q6 18 8 101l3 112v108q0 127 -10 194q-2 15 -16 23q-13 8 -52 8l-84 1l-9 8v43l8 8q191 23 322 75l19 -13q-11 -131 -11 -333v-176q0 -315 12 -341t27 -34t89 -7h28l9 -8v-40l-8 -9q-142 8 -196 8
t-134 -7l-9 8q6 102 9 173q-63 -48 -140 -126t-207 -78q-131 0 -193 36t-88 98t-26 215l1 79v195q-1 127 -11 194q-2 15 -15 23t-52 8l-84 1l-9 8v43l8 8q191 23 322 75l19 -13q-11 -131 -11 -333zM620 1117l-3 -13l-29 -15l-13 4l-294 374l17 25l13 3l72 -14q23 -5 84 -15z
" />
    <glyph glyph-name="uacute" unicode="&#xfa;" horiz-adv-x="1235" 
d="M354 607v-233q0 -128 20 -178q40 -103 185 -103t229 109q40 52 47 70q6 18 8 101l3 112v108q0 127 -10 194q-2 15 -16 23q-13 8 -52 8l-84 1l-9 8v43l8 8q191 23 322 75l19 -13q-11 -131 -11 -333v-176q0 -315 12 -341t27 -34t89 -7h28l9 -8v-40l-8 -9q-142 8 -196 8
t-134 -7l-9 8q6 102 9 173q-63 -48 -140 -126t-207 -78q-131 0 -193 36t-88 98t-26 215l1 79v195q-1 127 -11 194q-2 15 -15 23t-52 8l-84 1l-9 8v43l8 8q191 23 322 75l19 -13q-11 -131 -11 -333zM840 1467l-294 -374l-13 -4l-29 15l-3 13l153 349l156 29l13 -3z" />
    <glyph glyph-name="ucircumflex" unicode="&#xfb;" horiz-adv-x="1235" 
d="M354 607v-233q0 -128 20 -178q40 -103 185 -103t229 109q40 52 47 70q6 18 8 101l3 112v108q0 127 -10 194q-2 15 -16 23q-13 8 -52 8l-84 1l-9 8v43l8 8q191 23 322 75l19 -13q-11 -131 -11 -333v-176q0 -315 12 -341t27 -34t89 -7h28l9 -8v-40l-8 -9q-142 8 -196 8
t-134 -7l-9 8q6 102 9 173q-63 -48 -140 -126t-207 -78q-131 0 -193 36t-88 98t-26 215l1 79v195q-1 127 -11 194q-2 15 -15 23t-52 8l-84 1l-9 8v43l8 8q191 23 322 75l19 -13q-11 -131 -11 -333zM911 1120l-7 -10h-58l-255 248l-255 -248h-58l-7 10l261 362h118z" />
    <glyph glyph-name="udieresis" unicode="&#xfc;" horiz-adv-x="1235" 
d="M354 607v-233q0 -128 20 -178q40 -103 185 -103t229 109q40 52 47 70q6 18 8 101l3 112v108q0 127 -10 194q-2 15 -16 23q-13 8 -52 8l-84 1l-9 8v43l8 8q191 23 322 75l19 -13q-11 -131 -11 -333v-176q0 -315 12 -341t27 -34t89 -7h28l9 -8v-40l-8 -9q-142 8 -196 8
t-134 -7l-9 8q6 102 9 173q-63 -48 -140 -126t-207 -78q-131 0 -193 36t-88 98t-26 215l1 79v195q-1 127 -11 194q-2 15 -15 23t-52 8l-84 1l-9 8v43l8 8q191 23 322 75l19 -13q-11 -131 -11 -333zM369 1163q-45 0 -77 32t-32 77t32 77t78 32q46 1 76 -31q32 -32 32 -78
t-32 -77q-32 -32 -77 -32zM792 1163q-45 0 -77 32q-32 31 -32 77q-1 46 31 78t78 31q46 1 78 -31t31 -78q0 -46 -32 -77q-32 -32 -77 -32z" />
    <glyph glyph-name="yacute" unicode="&#xfd;" horiz-adv-x="1139" 
d="M233 -442q65 0 117 70t148 312q-38 107 -77 202l-159 394q-113 276 -128 294q-14 17 -29 27t-81 19l-8 8v40l9 8q115 -7 247 -7t208 7l8 -8v-40l-7 -8q-11 0 -61 -4t-64 -16q-12 -12 -12 -30q0 -16 31 -110t60 -165l63 -156q62 -154 96 -227l53 117q28 64 80 194l83 212
q41 105 41 129t-16 32t-71 14l-42 6l-7 8v44l8 8q84 -7 194 -7t173 7l8 -8v-44l-8 -8q-66 -2 -101 -42t-176 -350l-98 -215l-231 -540q-30 -70 -74 -150q-84 -151 -246 -151q-63 0 -119 33q34 84 51 154h24q49 -53 113 -53zM870 1467l-294 -374l-13 -4l-29 15l-3 13l153 349
l156 29l13 -3z" />
    <glyph glyph-name="thorn" unicode="&#xfe;" horiz-adv-x="1231" 
d="M970 473q0 104 -36.5 184t-113 126t-146.5 46t-119.5 -18.5t-93 -54.5t-62.5 -68.5t-20 -54t-1 -47.5v-388q114 -116 264 -116q97 0 171.5 49t115.5 143.5t41 198.5zM728 955q106 0 173 -22.5t157 -104t90 -278.5q0 -143 -60.5 -244.5t-83 -121.5t-88.5 -60t-120 -78
q-52 -38 -86 -55.5t-132 -17.5t-200 53v-213q0 -22 4 -141.5t8.5 -139.5t13.5 -29t22 -11.5t108 -8.5l9 -8v-42l-8 -9q-125 8 -240 8t-240 -8l-9 9v42l9 8q96 6 109 9t22.5 12.5t13 30.5t8 134t4.5 170v1075q-9 401 -17 414t-24 16t-62 3h-59l-9 8v43l8 8q191 23 321 75
l19 -12q-12 -114 -11 -718q136 124 190 164t160 40z" />
    <glyph glyph-name="ydieresis" unicode="&#xff;" horiz-adv-x="1139" 
d="M233 -442q65 0 117 70t148 312q-38 107 -77 202l-159 394q-113 276 -128 294q-14 17 -29 27t-81 19l-8 8v40l9 8q115 -7 247 -7t208 7l8 -8v-40l-7 -8q-11 0 -61 -4t-64 -16q-12 -12 -12 -30q0 -16 31 -110t60 -165l63 -156q62 -154 96 -227l53 117q28 64 80 194l83 212
q41 105 41 129t-16 32t-71 14l-42 6l-7 8v44l8 8q84 -7 194 -7t173 7l8 -8v-44l-8 -8q-66 -2 -101 -42t-176 -350l-98 -215l-231 -540q-30 -70 -74 -150q-84 -151 -246 -151q-63 0 -119 33q34 84 51 154h24q49 -53 113 -53zM379 1163q-45 0 -77 32t-32 77t32 77t78 32
q46 1 76 -31q32 -32 32 -78t-32 -77q-32 -32 -77 -32zM802 1163q-45 0 -77 32q-32 31 -32 77q-1 46 31 78t78 31q46 1 78 -31t31 -78q0 -46 -32 -77q-32 -32 -77 -32z" />
    <glyph glyph-name="Amacron" unicode="&#x100;" horiz-adv-x="1593" 
d="M500 553h506l-251 603zM1182 102q0 24 -14 60l-123 305h-579l-109 -256q-29 -69 -29 -97t27 -41q27 -12 136 -13l9 -8v-52l-8 -8q-128 8 -232 8t-216 -8l-9 8v52l9 8q73 2 94 8q22 6 38 26t66 127l105 228l272 616q77 181 153 362h65l484 -1138q79 -181 97 -198t36 -23
t83 -8l8 -8v-52l-8 -8q-105 8 -231 6t-292 -6l-8 8v52l8 8q112 2 140 10t28 32zM1120 1665h-648v102h648v-102z" />
    <glyph glyph-name="amacron" unicode="&#x101;" 
d="M258 252q0 -156 155 -156q133 0 263 154v270q-280 -47 -349 -101t-69 -167zM511 954q115 0 191 -43q144 -81 144 -258l-5 -201v-298q1 -61 9 -74q8 -14 19 -18t41 -7l57 -5l8 -9v-40l-8 -8q-73 6 -135 6t-145 -6l-15 14l4 161l-218 -170q-56 -23 -128 -23t-130 29
q-118 60 -118 207t92 229t502 141q0 149 -66 209t-177 60q-57 0 -105 -17t-55 -27t-54 -123l-7 -5l-39 10l-8 10v124q178 132 346 132zM816 1215h-630v105h630v-105z" />
    <glyph glyph-name="Abreve" unicode="&#x102;" horiz-adv-x="1593" 
d="M500 553h506l-251 603zM1182 101.5q0 24.5 -14 60.5l-123 305h-579l-109 -256q-29 -69 -29 -97.5t27 -40.5t136 -13l9 -8v-52l-8 -8q-129 8 -232.5 8t-215.5 -8l-9 8v52l9 8q73 1 94 7.5t37.5 26t66.5 127.5l105 228l272 616q77 181 153 362h65l484 -1138
q79 -181 97 -198t36.5 -23.5t82.5 -7.5l8 -8v-52l-8 -8q-106 9 -231.5 6.5t-291.5 -6.5l-8 8v52l8 8q112 2 140 9.5t28 32zM798.5 1555q-160.5 0 -242.5 112q-63 86 -63 204l5 7h53q39 -193 246 -193t244 193h53l5 -7q0 -109 -60 -197q-80 -119 -240.5 -119z" />
    <glyph glyph-name="abreve" unicode="&#x103;" 
d="M258 252q0 -156 155 -156q133 0 263 154v270q-280 -47 -349 -101t-69 -167zM511 954q115 0 191 -43q144 -81 144 -258l-5 -201v-298q0 -61 8.5 -74t19.5 -17.5t41 -7.5l57 -5l8 -9v-40l-8 -8q-73 6 -134.5 6t-145.5 -6l-15 14l4 161l-218 -170q-55 -23 -127.5 -23
t-130.5 29q-118 60 -118 207t92 229.5t502 140.5q0 148 -66 208.5t-177 60.5q-58 0 -105.5 -17t-54.5 -27.5t-54 -122.5l-7 -5l-39 10l-8 10v124q178 132 346 132zM501 1094q-169 0 -243 152q-36 74 -41 178l8 8h54q15 -93 74.5 -152.5t147.5 -59.5t147.5 59.5t74.5 152.5
h54l8 -8q-7 -151 -81.5 -240.5t-202.5 -89.5z" />
    <glyph glyph-name="Aogonek" unicode="&#x104;" horiz-adv-x="1593" 
d="M1006 553l-251 603l-255 -603h506zM1182 104q0 23 -14 58l-123 305h-579l-109 -256q-29 -67 -29 -93t17 -38t41 -15.5t105 -4.5l9 -8v-52l-8 -8q-128 8 -232 8t-216 -8l-9 8v52l9 8q107 0 130 31.5t67 127.5l106 230l272 616q14 31 153 362h65l484 -1138
q75 -177 102.5 -202.5t113.5 -26.5l8 -8v-52l-8 -8q-45 5 -155 8q-125 -115 -125 -193q0 -43 28 -72.5t75 -29.5q81 0 181 74l13 -1l22 -29v-14q-146 -130 -275 -130q-71 0 -119 44.5t-48 122.5q0 122 172 228l-292 -8l-8 8v52l8 8l80 2q88 0 88 42z" />
    <glyph glyph-name="aogonek" unicode="&#x105;" 
d="M258 242q0 -59 39 -102.5t116 -43.5q133 0 263 154v270q-300 -51 -359 -110t-59 -168zM741 -190q0 -42 29.5 -73.5t73.5 -31.5q80 0 178 85l16 -1l27 -37v-14q-101 -89 -164 -113.5t-125 -24.5t-110 49t-48 115t39 118.5t130 115.5q-62 -2 -100 -5l-15 14l4 161
l-128 -100q-67 -53 -90 -70q-55 -23 -120 -23q-119 0 -187.5 63.5t-68.5 161.5t37 166t83.5 96.5t180 64t293.5 54.5q0 62 -8.5 106t-57.5 103.5t-177 59.5q-70 0 -111.5 -18.5t-45.5 -22.5t-57 -126l-7 -5l-39 10l-8 10v124q114 73 186.5 102.5t159.5 29.5q155 0 245 -81
t90 -220l-5 -201v-298q0 -77 19 -87t50 -12l57 -5l8 -9v-40l-8 -8q-59 5 -95 5q-73 -66 -102 -106t-29 -82z" />
    <glyph glyph-name="Cacute" unicode="&#x106;" horiz-adv-x="1452" 
d="M988 70q223 0 390 120l17 -21l-38 -93q-222 -113 -474 -113q-361 0 -587 205t-225 536q1 228 113 398t296 256q184 84 415 84q133 0 263 -28t217 -67l7 -10q-23 -56 -43 -277l-7 -8h-47l-8 8l-10 170q-73 58 -177 90t-215 33q-169 -1 -303 -73t-208 -210t-74 -336
q0 -200 87 -351t237 -232t374 -81zM1186 1856l-210 -157l-200 -156l-15 -4l-25 24l2 14l144 174q3 3 95 117l187 26l10 -7z" />
    <glyph glyph-name="cacute" unicode="&#x107;" horiz-adv-x="909" 
d="M629 73q92 0 218 60l21 -26l-40 -67q-129 -71 -288 -71q-220 0 -340 131t-120 324q0 275 142 379q38 28 128 78q90 49 137 65q46 16 127 16q155 0 254 -59q-19 -113 -29 -252l-9 -8h-41l-9 9q-4 84 -11 113t-79 62t-155 33q-82 0 -146 -34q-129 -70 -129 -301
q0 -91 26 -179t68 -146t113 -92q70 -35 162 -35zM820 1467l-294 -374l-13 -4l-29 15l-3 13l153 349l156 29l13 -3z" />
    <glyph glyph-name="Ccircumflex" unicode="&#x108;" horiz-adv-x="1452" 
d="M988 70q223 0 390 120l17 -21l-38 -93q-222 -113 -474 -113q-361 0 -587 205t-225 536q1 228 113 398t296 256q184 84 415 84q133 0 263 -28t217 -67l7 -10q-23 -56 -43 -277l-7 -8h-47l-8 8l-10 170q-73 58 -177 90t-215 33q-169 -1 -303 -73t-208 -210t-74 -336
q0 -200 87 -351t237 -232t374 -81zM1194 1550l-7 -11h-62l-264 234l-264 -234h-62l-7 10l288 356h96z" />
    <glyph glyph-name="ccircumflex" unicode="&#x109;" horiz-adv-x="909" 
d="M629 73q92 0 218 60l21 -26l-40 -67q-129 -71 -288 -71q-220 0 -340 131t-120 324q0 275 142 379q38 28 128 78q90 49 137 65q46 16 127 16q155 0 254 -59q-19 -113 -29 -252l-9 -8h-41l-9 9q-4 84 -11 113t-79 62t-155 33q-82 0 -146 -34q-129 -70 -129 -301
q0 -91 26 -179t68 -146t113 -92q70 -35 162 -35zM851 1120l-7 -10h-58l-255 248l-255 -248h-58l-7 10l261 362h118z" />
    <glyph glyph-name="Cdotaccent" unicode="&#x10a;" horiz-adv-x="1452" 
d="M988 70q223 0 390 120l17 -21l-38 -93q-222 -113 -474 -113q-361 0 -587 205t-225 536q1 228 113 398t296 256q184 84 415 84q133 0 263 -28t217 -67l7 -10q-23 -56 -43 -277l-7 -8h-47l-8 8l-10 170q-73 58 -177 90t-215 33q-169 -1 -303 -73t-208 -210t-74 -336
q0 -200 87 -351t237 -232t374 -81zM862 1604q-47 0 -80 32t-33 80q0 47 33 80t80 33q48 0 80 -33t32 -80q0 -48 -32 -80t-80 -32z" />
    <glyph glyph-name="cdotaccent" unicode="&#x10b;" horiz-adv-x="909" 
d="M629 73q92 0 218 60l21 -26l-40 -67q-129 -71 -288 -71q-220 0 -340 131t-120 324q0 275 142 379q38 28 128 78q90 49 137 65q46 16 127 16q155 0 254 -59q-19 -113 -29 -252l-9 -8h-41l-9 9q-4 84 -11 113t-79 62t-155 33q-82 0 -146 -34q-129 -70 -129 -301
q0 -91 26 -179t68 -146t113 -92q70 -35 162 -35zM560 1163q-46 0 -78 32t-32 78q0 47 32 79t79 32t79 -32t31 -79q-1 -46 -33 -78t-78 -32z" />
    <glyph glyph-name="Ccaron" unicode="&#x10c;" horiz-adv-x="1452" 
d="M988 70q223 0 390 120l17 -21l-38 -93q-222 -113 -474 -113q-361 0 -587 205t-225 536q1 228 113 398t296 256q184 84 415 84q133 0 263 -28t217 -67l7 -10q-23 -56 -43 -277l-7 -8h-47l-8 8l-10 170q-73 58 -177 90t-215 33q-169 -1 -303 -73t-208 -210t-74 -336
q0 -200 87 -351t237 -232t374 -81zM1222 1894l-280 -355h-126l-286 355l6 11h63l277 -253l274 253h65z" />
    <glyph glyph-name="ccaron" unicode="&#x10d;" horiz-adv-x="909" 
d="M629 73q92 0 218 60l21 -26l-40 -67q-129 -71 -288 -71q-220 0 -340 131t-120 324q0 275 142 379q38 28 128 78q90 49 137 65q46 16 127 16q155 0 254 -59q-19 -113 -29 -252l-9 -8h-41l-9 9q-4 84 -11 113t-79 62t-155 33q-82 0 -146 -34q-129 -70 -129 -301
q0 -91 26 -179t68 -146t113 -92q70 -35 162 -35zM871 1472l-261 -362h-128l-251 362l7 10h58l250 -246l250 246h68z" />
    <glyph glyph-name="Dcaron" unicode="&#x10e;" horiz-adv-x="1585" 
d="M635 81q233 0 373 78t208 231q69 153 69 345q0 283 -151 439t-476 156q-134 0 -258 -20q-8 -164 -8 -370v-314l2 -294q0 -86 6 -231q102 -20 235 -20zM206 511v367l-1 227q0 151 -7 179t-17 40t-67 19l-76 6l-8 7v50l8 7q173 -8 236 -8l468 10q200 1 328 -37t228 -130
q202 -188 202 -477q0 -135 -47 -267t-133 -236q-228 -275 -646 -276l-388 8q-69 0 -167 -8l-8 8v33l8 10q59 29 67 37t14 176t6 255zM1082 1894l-280 -355h-126l-286 355l6 11h63l277 -253l274 253h65z" />
    <glyph glyph-name="dcaron" unicode="&#x10f;" horiz-adv-x="1379" 
d="M555 865q-85 1 -157 -45q-136 -86 -136 -330q0 -175 88 -281t228 -106t218 124q36 57 42 114t6 209v171q-128 144 -289 144zM1011 1008v-655q1 -241 13 -261q12 -19 32 -28t117 -17l9 -8v-38l-9 -9q-108 7 -165 7t-157 -7l-11 11q3 98 3 120t1 55q-55 -40 -123 -100
t-93 -79q-46 -23 -131 -23q-139 0 -235 68t-137 174t-41 217q0 113 42 217t122 152q78 48 170 100t202 51q109 0 224 -63l-4 223q-3 198 -13 211q-9 13 -23 17t-122 4l-9 9v42l8 9q191 22 322 74l19 -12q-11 -115 -11 -461zM1275 1240q0 29 -34 30q-121 4 -121 109
q0 47 32 75t86 28q52 0 86 -40t34 -107q0 -227 -231 -248l-9 35q157 39 157 118z" />
    <glyph glyph-name="Dcroat" unicode="&#x110;" horiz-adv-x="1585" 
d="M392 684v-58l2 -294q0 -86 6 -231q103 -20 235 -20q233 0 372.5 78t208.5 231t69 345q0 283 -151 439t-475 156q-135 0 -259 -20q-8 -164 -8 -370v-179h331l10 -10v-57l-10 -10h-331zM207 511v173h-171l-10 10v56l11 11h170v117l-2 227q0 151 -7 179t-17 40t-66 19l-77 6
l-8 7v50l8 7q173 -8 236 -8l468 10q193 0 321 -35.5t282.5 -172.5t154.5 -434q0 -136 -46.5 -267.5t-204 -322.5t-574.5 -191l-389 8q-69 0 -167 -8l-7 8v33l8 10q59 30 67 37.5t14 175t6 255.5z" />
    <glyph glyph-name="dcroat" unicode="&#x111;" horiz-adv-x="1251" 
d="M555 865q-84 0 -188.5 -65.5t-104.5 -309.5q0 -175 88.5 -281t227.5 -106t196.5 90.5t63.5 147.5t6 209v171q-128 144 -289 144zM1011 1092v-739q0 -241 12.5 -260.5t33 -28.5t116.5 -17l9 -8v-38l-9 -9q-108 7 -165 7t-157 -7l-11 11q3 98 3 120t1 55q-55 -40 -123 -100
t-93 -79q-46 -23 -131 -23q-138 0 -234.5 68t-137.5 173.5t-41 217.5t42.5 216.5t121 152.5t171 99.5t201.5 51.5t224 -63q-1 39 -4 200h-289l-12 10v63l11 11h288q-2 117 -7.5 138.5t-22 27t-126.5 5.5l-9 9v42l8 9q191 22 322 74l19 -12q-11 -123 -11 -293h167l10 -11v-63
l-10 -10h-167z" />
    <glyph glyph-name="Emacron" unicode="&#x112;" horiz-adv-x="1251" 
d="M636 1407q212 0 468 6l5 -7q-25 -96 -37 -301l-6 -8h-49l-9 8q1 9 1 55t-13 123q-101 45 -342 45q-79 0 -202 -11l-4 -160l-6 -386q108 -6 200 -6q196 0 220 15t31 94l4 62l8 8h46l8 -8q-2 -109 -5 -219l5 -225l-8 -8h-46l-8 8l-7 60q-9 70 -13 84q-5 14 -19 23
q-32 22 -239 22q-58 0 -177 -5q-5 -84 -5 -287t5 -302h184q243 0 304 6t116 29q10 22 30 106t23 105l10 7h48l8 -7q-9 -43 -17 -150t-9 -183l-7 -8q-191 6 -500 6l-272 2q-95 0 -198 -8l-8 8v33l8 10q60 29 68 37t14 176t5 255v367l-1 227q0 151 -7 179t-17 40t-67 19l-76 6
l-8 7v50l8 7q343 -6 555 -6zM960 1665h-648v102h648v-102z" />
    <glyph glyph-name="emacron" unicode="&#x113;" horiz-adv-x="981" 
d="M504 545q195 0 225 5q1 24 1 37q0 155 -63 231t-177 75q-114 0 -180 -85t-67 -252q66 -11 261 -11zM582 73q133 0 286 91l16 -17l-32 -72q-166 -107 -331 -107q-119 0 -227 47t-176 159t-67 244q0 132 26 216q27 84 55 125t96 91q150 110 308 110q120 0 212 -56
q166 -102 165 -332q0 -31 -3 -60l-11 -11q-113 -25 -335 -25h-321q2 -207 104 -305t235 -98zM811 1215h-630v105h630v-105z" />
    <glyph glyph-name="Ebreve" unicode="&#x114;" horiz-adv-x="1251" 
d="M636 1407q212 0 468 6l5 -7q-25 -96 -37 -301l-6 -8h-49l-9 8q1 9 1 55t-13 123q-101 45 -342 45q-79 0 -202 -11l-4 -160l-6 -386q108 -6 200 -6q196 0 220 15t31 94l4 62l8 8h46l8 -8q-2 -109 -5 -219l5 -225l-8 -8h-46l-8 8l-7 60q-9 70 -13 84q-5 14 -19 23
q-32 22 -239 22q-58 0 -177 -5q-5 -84 -5 -287t5 -302h184q243 0 304 6t116 29q10 22 30 106t23 105l10 7h48l8 -7q-9 -43 -17 -150t-9 -183l-7 -8q-191 6 -500 6l-272 2q-95 0 -198 -8l-8 8v33l8 10q60 29 68 37t14 176t5 255v367l-1 227q0 151 -7 179t-17 40t-67 19l-76 6
l-8 7v50l8 7q343 -6 555 -6zM648 1555q-160 0 -242 112q-63 86 -63 204l5 7h53q39 -193 246 -193t244 193h53l5 -7q0 -109 -60 -197q-81 -119 -241 -119z" />
    <glyph glyph-name="ebreve" unicode="&#x115;" horiz-adv-x="981" 
d="M504 545q195 0 225 5q1 24 1 37q0 155 -63 231t-177 75q-114 0 -180 -85t-67 -252q66 -11 261 -11zM582 73q133 0 286 91l16 -17l-32 -72q-166 -107 -331 -107q-119 0 -227 47t-176 159t-67 244q0 132 26 216q27 84 55 125t96 91q150 110 308 110q120 0 212 -56
q166 -102 165 -332q0 -31 -3 -60l-11 -11q-113 -25 -335 -25h-321q2 -207 104 -305t235 -98zM511 1094q-169 0 -243 152q-36 74 -41 178l8 8h54q15 -92 75 -152t147 -60t147 60t75 152h54l8 -8q-7 -150 -81 -240t-203 -90z" />
    <glyph glyph-name="Edotaccent" unicode="&#x116;" horiz-adv-x="1251" 
d="M636 1407q212 0 468 6l5 -7q-25 -96 -37 -301l-6 -8h-49l-9 8q1 9 1 55t-13 123q-101 45 -342 45q-79 0 -202 -11l-4 -160l-6 -386q108 -6 200 -6q196 0 220 15t31 94l4 62l8 8h46l8 -8q-2 -109 -5 -219l5 -225l-8 -8h-46l-8 8l-7 60q-9 70 -13 84q-5 14 -19 23
q-32 22 -239 22q-58 0 -177 -5q-5 -84 -5 -287t5 -302h184q243 0 304 6t116 29q10 22 30 106t23 105l10 7h48l8 -7q-9 -43 -17 -150t-9 -183l-7 -8q-191 6 -500 6l-272 2q-95 0 -198 -8l-8 8v33l8 10q60 29 68 37t14 176t5 255v367l-1 227q0 151 -7 179t-17 40t-67 19l-76 6
l-8 7v50l8 7q343 -6 555 -6zM637 1604q-47 0 -80 32t-33 80q0 47 33 80t80 33t79 -33t33 -80q-1 -48 -33 -80t-79 -32z" />
    <glyph glyph-name="edotaccent" unicode="&#x117;" horiz-adv-x="981" 
d="M504 545q195 0 225 5q1 24 1 37q0 155 -63 231t-177 75q-114 0 -180 -85t-67 -252q66 -11 261 -11zM582 73q133 0 286 91l16 -17l-32 -72q-166 -107 -331 -107q-119 0 -227 47t-176 159t-67 244q0 132 26 216q27 84 55 125t96 91q150 110 308 110q120 0 212 -56
q166 -102 165 -332q0 -31 -3 -60l-11 -11q-113 -25 -335 -25h-321q2 -207 104 -305t235 -98zM510 1163q-46 0 -78 32t-32 78q0 47 32 79t79 32t79 -32t31 -79q-1 -46 -33 -78t-78 -32z" />
    <glyph glyph-name="Eogonek" unicode="&#x118;" horiz-adv-x="1251" 
d="M842 -193q0 -102 103 -102q81 0 181 74l13 -1l22 -29v-14q-146 -130 -262 -130t-148 58.5t-32 108.5q0 124 168 224l-527 4q-95 0 -198 -8l-8 8v33l8 10q72 37 81 77l6 391v367q0 356 -7 407.5t-85 57.5l-76 6l-8 7v50l8 7l438 -6q331 0 585 6l5 -7q-25 -96 -37 -301
l-6 -8h-49l-9 8q1 9 1 55t-13 123q-101 45 -342 45q-79 0 -202 -11l-10 -546q108 -6 263 -6t169.5 24.5t18.5 84.5l4 62l8 8h46l8 -8l-5 -211q0 -29 5 -233l-8 -8h-46l-8 8l-9 82q-7 65 -31.5 86t-237.5 21q-58 0 -177 -5q-5 -84 -5 -287t5 -302h184q276 0 328.5 9t91.5 26
q27 93 53 211l10 7h48l8 -7q-26 -218 -26 -333l-9 -8l-169 3q-119 -110 -119 -188z" />
    <glyph glyph-name="eogonek" unicode="&#x119;" horiz-adv-x="981" 
d="M504 545q195 0 225 5q1 24 1 37q0 155 -63 230.5t-177 75.5t-180.5 -85t-66.5 -252q66 -11 261 -11zM582 73q133 0 286 91l16 -17l-32 -72q-62 -41 -140 -73t-136 -67.5t-58 -114.5q0 -42 26 -73.5t90 -31.5t166 75l16 -1l27 -37v-14q-150 -138 -274 -138
q-98 0 -135.5 58.5t-37.5 110.5q0 112 131 199q-225 0 -350.5 130t-125.5 346q0 105 26 189.5t54.5 125.5t137.5 121t267 80q120 0 248.5 -79.5t128.5 -308.5q0 -29 -3 -60l-11 -11q-113 -25 -335 -25h-321q2 -207 104 -305t235 -98z" />
    <glyph glyph-name="Ecaron" unicode="&#x11a;" horiz-adv-x="1251" 
d="M636 1407q212 0 468 6l5 -7q-25 -96 -37 -301l-6 -8h-49l-9 8q1 9 1 55t-13 123q-101 45 -342 45q-79 0 -202 -11l-4 -160l-6 -386q108 -6 200 -6q196 0 220 15t31 94l4 62l8 8h46l8 -8q-2 -109 -5 -219l5 -225l-8 -8h-46l-8 8l-7 60q-9 70 -13 84q-5 14 -19 23
q-32 22 -239 22q-58 0 -177 -5q-5 -84 -5 -287t5 -302h184q243 0 304 6t116 29q10 22 30 106t23 105l10 7h48l8 -7q-9 -43 -17 -150t-9 -183l-7 -8q-191 6 -500 6l-272 2q-95 0 -198 -8l-8 8v33l8 10q60 29 68 37t14 176t5 255v367l-1 227q0 151 -7 179t-17 40t-67 19l-76 6
l-8 7v50l8 7q343 -6 555 -6zM1007 1894l-280 -355h-126l-286 355l6 11h63l277 -253l274 253h65z" />
    <glyph glyph-name="ecaron" unicode="&#x11b;" horiz-adv-x="981" 
d="M504 545q195 0 225 5q1 24 1 37q0 155 -63 231t-177 75q-114 0 -180 -85t-67 -252q66 -11 261 -11zM582 73q133 0 286 91l16 -17l-32 -72q-166 -107 -331 -107q-119 0 -227 47t-176 159t-67 244q0 132 26 216q27 84 55 125t96 91q150 110 308 110q120 0 212 -56
q166 -102 165 -332q0 -31 -3 -60l-11 -11q-113 -25 -335 -25h-321q2 -207 104 -305t235 -98zM821 1472l-261 -362h-128l-251 362l7 10h58l250 -246l250 246h68z" />
    <glyph glyph-name="Gcircumflex" unicode="&#x11c;" horiz-adv-x="1563" 
d="M1412 262q0 -82 11 -184l-6 -10q-273 -105 -529 -105t-435 84t-284 249t-105 392q0 346 236 550t618 204q280 0 503 -95l7 -11q-18 -67 -42 -281l-8 -7h-46l-8 8l-5 106q-3 52 -7 61q-10 25 -133 78q-124 52 -299 52t-316 -76q-140 -75 -212 -221t-72 -327t77 -339
t221 -248q144 -89 337 -89t310 63q9 32 9 129v111q0 78 -10 98t-50 28t-170 10l-9 9v44l9 9l61 -2q157 -5 235 -5t188 6l10 -8v-30l-4 -12l-49 -29q-18 -11 -21 -17q-4 -5 -8 -59t-4 -136zM1199 1550l-7 -11h-62l-264 234l-264 -234h-62l-7 10l288 356h96z" />
    <glyph glyph-name="gcircumflex" unicode="&#x11d;" horiz-adv-x="1139" 
d="M570 -19q-148 0 -172 -4t-70 -34q-46 -29 -74 -81t-28 -116q0 -113 84 -184t206 -71t212 44t132 118t42 142q0 69 -36 117t-92 58t-204 11zM290 652q0 -61 24 -131t78 -106t131 -36q79 0 143 58q64 57 64 171t-59 197t-159 83t-160 -60q-62 -60 -62 -176zM902 664
q0 -66 -32 -133t-91 -114q-127 -103 -299 -103h-46q-59 -47 -76 -70t-17 -57q1 -34 41 -52t167 -18l224 3q107 0 163 -25t91 -89t35 -156q0 -90 -72 -200t-206 -167q-135 -57 -255 -57q-121 0 -197 19t-134 57t-92 101q-35 62 -35 114q0 100 53 180l181 101q-87 28 -109 54
t-23 64q0 38 25 89l161 116q-141 37 -191 111t-50 158t35 158t105 118t158 70t160 25q125 0 238 -81q181 0 289 4l8 -18q-41 -63 -51 -82h-186q28 -54 28 -120zM846 1120l-7 -10h-58l-255 248l-255 -248h-58l-7 10l261 362h118z" />
    <glyph glyph-name="Gbreve" unicode="&#x11e;" horiz-adv-x="1563" 
d="M1412 262q0 -82 11 -184l-6 -10q-273 -105 -529 -105t-435 84t-284 249t-105 392q0 346 236 550t618 204q280 0 503 -95l7 -11q-18 -67 -42 -281l-8 -7h-46l-8 8l-5 106q-3 52 -7 61q-10 25 -133 78q-124 52 -299 52t-316 -76q-140 -75 -212 -221t-72 -327t77 -339
t221 -248q144 -89 337 -89t310 63q9 32 9 129v111q0 78 -10 98t-50 28t-170 10l-9 9v44l9 9l61 -2q157 -5 235 -5t188 6l10 -8v-30l-4 -12l-49 -29q-18 -11 -21 -17q-4 -5 -8 -59t-4 -136zM878 1555q-160 0 -242 112q-63 86 -63 204l5 7h53q39 -193 246 -193t244 193h53
l5 -7q0 -109 -60 -197q-81 -119 -241 -119z" />
    <glyph glyph-name="gbreve" unicode="&#x11f;" horiz-adv-x="1139" 
d="M570 -19q-148 0 -172 -4t-70 -34q-46 -29 -74 -81t-28 -116q0 -113 84 -184t206 -71t212 44t132 118t42 142q0 69 -36 117t-92 58t-204 11zM290 652q0 -61 24 -131t78 -106t131 -36q79 0 143 58q64 57 64 171t-59 197t-159 83t-160 -60q-62 -60 -62 -176zM902 664
q0 -66 -32 -133t-91 -114q-127 -103 -299 -103h-46q-59 -47 -76 -70t-17 -57q1 -34 41 -52t167 -18l224 3q107 0 163 -25t91 -89t35 -156q0 -90 -72 -200t-206 -167q-135 -57 -255 -57q-121 0 -197 19t-134 57t-92 101q-35 62 -35 114q0 100 53 180l181 101q-87 28 -109 54
t-23 64q0 38 25 89l161 116q-141 37 -191 111t-50 158t35 158t105 118t158 70t160 25q125 0 238 -81q181 0 289 4l8 -18q-41 -63 -51 -82h-186q28 -54 28 -120zM531 1094q-169 0 -243 152q-36 74 -41 178l8 8h54q15 -92 75 -152t147 -60t147 60t75 152h54l8 -8
q-7 -150 -81 -240t-203 -90z" />
    <glyph glyph-name="Gdotaccent" unicode="&#x120;" horiz-adv-x="1563" 
d="M1412 262q0 -82 11 -184l-6 -10q-273 -105 -529 -105t-435 84t-284 249t-105 392q0 346 236 550t618 204q280 0 503 -95l7 -11q-18 -67 -42 -281l-8 -7h-46l-8 8l-5 106q-3 52 -7 61q-10 25 -133 78q-124 52 -299 52t-316 -76q-140 -75 -212 -221t-72 -327t77 -339
t221 -248q144 -89 337 -89t310 63q9 32 9 129v111q0 78 -10 98t-50 28t-170 10l-9 9v44l9 9l61 -2q157 -5 235 -5t188 6l10 -8v-30l-4 -12l-49 -29q-18 -11 -21 -17q-4 -5 -8 -59t-4 -136zM867 1604q-47 0 -80 32t-33 80q0 47 33 80t80 33t79 -33t33 -80q-1 -48 -33 -80
t-79 -32z" />
    <glyph glyph-name="gdotaccent" unicode="&#x121;" horiz-adv-x="1139" 
d="M570 -19q-148 0 -172 -4t-70 -34q-46 -29 -74 -81t-28 -116q0 -113 84 -184t206 -71t212 44t132 118t42 142q0 69 -36 117t-92 58t-204 11zM290 652q0 -61 24 -131t78 -106t131 -36q79 0 143 58q64 57 64 171t-59 197t-159 83t-160 -60q-62 -60 -62 -176zM902 664
q0 -66 -32 -133t-91 -114q-127 -103 -299 -103h-46q-59 -47 -76 -70t-17 -57q1 -34 41 -52t167 -18l224 3q107 0 163 -25t91 -89t35 -156q0 -90 -72 -200t-206 -167q-135 -57 -255 -57q-121 0 -197 19t-134 57t-92 101q-35 62 -35 114q0 100 53 180l181 101q-87 28 -109 54
t-23 64q0 38 25 89l161 116q-141 37 -191 111t-50 158t35 158t105 118t158 70t160 25q125 0 238 -81q181 0 289 4l8 -18q-41 -63 -51 -82h-186q28 -54 28 -120zM520 1163q-46 0 -78 32t-32 78q0 47 32 79t79 32t79 -32t31 -79q-1 -46 -33 -78t-78 -32z" />
    <glyph glyph-name="uni0122" unicode="&#x122;" horiz-adv-x="1563" 
d="M1412 262q0 -82 11 -184l-6 -10q-273 -105 -529 -105t-435 84t-284 249t-105 392q0 346 236 550t618 204q280 0 503 -95l7 -11q-18 -67 -42 -281l-8 -7h-46l-8 8l-5 106q-3 52 -7 61q-10 25 -133 78q-124 52 -299 52t-316 -76q-140 -75 -212 -221t-72 -327t77 -339
t221 -248q144 -89 337 -89t310 63q9 32 9 129v111q0 78 -10 98t-50 28t-170 10l-9 9v44l9 9l61 -2q157 -5 235 -5t188 6l10 -8v-30l-4 -12l-49 -29q-18 -11 -21 -17q-4 -5 -8 -59t-4 -136zM902 -391q0 32 -40 33q-134 5 -134 124q0 52 36 84t96 31q60 0 96 -45
q37 -45 37 -120q0 -254 -258 -277l-8 41q175 28 175 129z" />
    <glyph glyph-name="uni0123" unicode="&#x123;" horiz-adv-x="1139" 
d="M570 -19q-148 0 -172 -4t-70 -34q-46 -29 -74 -81t-28 -116q0 -113 84 -184t206 -71t212 44t132 118t42 142q0 69 -36 117t-92 58t-204 11zM290 652q0 -61 24 -131t78 -106t131 -36q79 0 143 58q64 57 64 171t-59 197t-159 83t-160 -60q-62 -60 -62 -176zM902 664
q0 -66 -32 -133t-91 -114q-127 -103 -299 -103h-46q-59 -47 -76 -70t-17 -57q1 -34 41 -52t167 -18l224 3q107 0 163 -25t91 -89t35 -156q0 -90 -72 -200t-206 -167q-135 -57 -255 -57q-121 0 -197 19t-134 57t-92 101q-35 62 -35 114q0 100 53 180l181 101q-87 28 -109 54
t-23 64q0 38 25 89l161 116q-141 37 -191 111t-50 158t35 158t105 118t158 70t160 25q125 0 238 -81q181 0 289 4l8 -18q-41 -63 -51 -82h-186q28 -54 28 -120zM484 1338q0 -29 34 -30q121 -4 121 -109q-1 -47 -33 -75t-84 -28t-87 40q-34 40 -34 107q0 227 231 248l8 -35
q-156 -27 -156 -118z" />
    <glyph glyph-name="Hcircumflex" unicode="&#x124;" horiz-adv-x="1704" 
d="M346 1405q32 0 286 8l8 -7v-50l-8 -7q-135 -4 -156 -18q-22 -15 -28 -55t-5 -112l-2 -230v-140q219 -6 451 -6t372 6v140l-2 195q-1 168 -20 191q-9 11 -36 18t-134 11l-7 7v50l7 7q256 -8 288 -8t286 8l8 -7v-50l-8 -7q-136 -4 -157 -18q-22 -15 -27 -55t-6 -112
l-2 -230v-463l2 -195q0 -168 20 -190q10 -10 36 -18t134 -12l8 -6v-50l-8 -8q-256 8 -288 8t-286 -8l-7 8v50l7 6q146 6 161 21q15 14 22 45t7 138l2 211v228q-296 6 -416 6t-407 -6v-228l1 -195q0 -168 20 -190q10 -10 37 -18t133 -12l8 -6v-50l-8 -8q-254 8 -286 8
t-287 -8l-8 8v50l8 6q144 6 160 21q17 14 23 45t7 138l1 211v463l-2 195q-1 170 -15 186t-41 23t-133 11l-8 7v50l8 7q255 -8 287 -8zM1194 1550l-7 -11h-62l-264 234l-264 -234h-62l-7 10l288 356h96z" />
    <glyph glyph-name="hcircumflex" unicode="&#x125;" horiz-adv-x="1192" 
d="M348 1008v-247q84 69 130 113t87 62q40 19 122 19q81 0 153 -31q72 -32 108 -74q64 -75 65 -243v-176q0 -17 5 -249q4 -95 22 -113t123 -18l8 -8v-43l-8 -8q-127 8 -161 8t-157 -8l-12 11q13 130 13 339v131q0 118 -6 170q-6 53 -33 95q-59 90 -187 89q-68 -1 -114 -19
t-92 -62t-56 -74t-10 -113v-178q0 -21 4 -141t8 -140t14 -29q9 -9 22 -11t108 -9l9 -8v-42l-8 -9q-125 8 -241 8t-240 -8l-9 9v42l9 8q98 6 110 9q12 2 22 12t12 30q4 20 8 128q4 110 5 166v518l-4 212q-5 191 -14 202q-8 11 -23 15t-121 4l-9 9v42l8 9q191 22 322 74
l19 -12q-11 -115 -11 -461zM561 1553l-7 -10h-58l-255 248l-255 -248h-58l-7 10l261 362h118z" />
    <glyph glyph-name="Hbar" unicode="&#x126;" horiz-adv-x="1704" 
d="M900 788q238 0 364 6v211l-415 3l-408 -2v-212q221 -6 459 -6zM346 1405q32 0 286 8l8 -7v-50l-8 -7q-102 -4 -132 -11t-43.5 -25.5t-15.5 -219.5l415 -2l408 1q0 198 -14 218t-43 27.5t-135 11.5l-7 7v50l7 7q256 -8 288 -8t286 8l8 -7v-50l-8 -7q-101 -4 -131 -11
t-44.5 -26.5t-14.5 -217.5l190 3l8 -7v-81l-8 -7l-191 2l-1 -85v-448l2 -195q1 -168 15.5 -184.5t41 -24t133.5 -11.5l8 -6v-50l-8 -8q-256 8 -288 8t-286 -8l-7 8v50l7 6q146 6 161 20.5t22 45.5t7 138l2 211v228q-296 6 -416 6t-407 -6v-228l1 -195q1 -168 15.5 -184.5
t41.5 -24t133 -11.5l8 -6v-50l-8 -8q-254 8 -286 8t-287 -8l-8 8v50l8 6q144 6 160 20.5t22.5 45.5t7.5 138l1 211v533q-183 -2 -191 -2l-8 7v81l8 7l106 -1q9 0 85 -1q-2 197 -16 216.5t-43.5 26.5t-131.5 11l-8 7v50l8 7q255 -8 287 -8z" />
    <glyph glyph-name="hbar" unicode="&#x127;" horiz-adv-x="1192" 
d="M349 1176h294l11 -11v-63l-11 -10h-294v-331q85 69 131 113t85 62.5t122 18.5t154.5 -31t122 -90t50.5 -227v-176q0 -17 5 -249q2 -95 21 -113t124 -18l8 -8v-43l-8 -8q-126 8 -162 8t-156 -8l-12 11q13 130 13 339v131q0 118 -5.5 170t-49 118t-171.5 66
q-68 0 -113.5 -18.5t-93 -62.5t-56.5 -73.5t-9 -113.5v-178q0 -22 4 -141.5t8.5 -139.5t13.5 -29t21.5 -11.5t108.5 -8.5l9 -8v-42l-9 -9q-123 8 -239 8t-242 -8l-8 9v42l9 8q96 6 109 9t22.5 12.5t12.5 29t7.5 129t4.5 165.5v518q-1 89 -3 178h-161l-12 10v63l11 11h160
q-4 130 -10 146t-24.5 20.5t-122.5 4.5l-8 9v42l8 9q191 22 322 74l18 -12q-10 -124 -10 -293z" />
    <glyph glyph-name="Itilde" unicode="&#x128;" horiz-adv-x="690" 
d="M343 1405q36 0 289 8l8 -7v-50l-8 -7q-135 -4 -156 -18q-22 -15 -28 -55t-5 -112l-2 -230v-463l1 -195q0 -168 20 -190q10 -10 37 -18t133 -12l8 -6v-50l-8 -8l-287 8q-31 0 -286 -8l-8 8v50l8 6q144 6 160 21q17 14 23 45t7 138l1 211v463l-2 195q-1 170 -15 186t-41 23
t-133 11l-8 7v50l8 7l125 -4q123 -4 159 -4zM487 1603q-72 -1 -173 49t-137 50q-89 0 -123 -99h-45l-7 8q18 88 80 153t133 65q71 1 171 -49t141 -50q81 0 121 99h45l7 -7q-19 -88 -80 -154t-133 -65z" />
    <glyph glyph-name="itilde" unicode="&#x129;" horiz-adv-x="596" 
d="M381 607v-226q0 -21 4 -141q5 -120 9 -140t13 -29t22 -11t108 -9l9 -8v-42l-8 -9q-124 8 -240 8t-241 -8l-9 9v42l9 8q97 6 109 9q12 2 22 12t14 30t8 128q4 110 4 166v197q0 127 -10 194q-2 15 -16 23q-13 8 -52 8l-84 1l-9 8v43l8 8q191 23 322 75l19 -13
q-11 -131 -11 -333zM400 1170q-70 0 -170 51t-141 51q-78 0 -117 -101h-50l-6 7q18 87 79 151t130 64t171 -51t143 -51q75 0 114 106h52l6 -7q-21 -92 -81 -156t-130 -64z" />
    <glyph glyph-name="Imacron" unicode="&#x12a;" horiz-adv-x="690" 
d="M343 1405q36 0 289 8l8 -7v-50l-8 -7q-135 -4 -156 -18q-22 -15 -28 -55t-5 -112l-2 -230v-463l1 -195q0 -168 20 -190q10 -10 37 -18t133 -12l8 -6v-50l-8 -8l-287 8q-31 0 -286 -8l-8 8v50l8 6q144 6 160 21q17 14 23 45t7 138l1 211v463l-2 195q-1 170 -15 186t-41 23
t-133 11l-8 7v50l8 7l125 -4q123 -4 159 -4zM675 1665h-648v102h648v-102z" />
    <glyph glyph-name="imacron" unicode="&#x12b;" horiz-adv-x="596" 
d="M381 607v-226q0 -21 4 -141q5 -120 9 -140t13 -29t22 -11t108 -9l9 -8v-42l-8 -9q-124 8 -240 8t-241 -8l-9 9v42l9 8q97 6 109 9q12 2 22 12t14 30t8 128q4 110 4 166v197q0 127 -10 194q-2 15 -16 23q-13 8 -52 8l-84 1l-9 8v43l8 8q191 23 322 75l19 -13
q-11 -131 -11 -333zM566 1215h-630v105h630v-105z" />
    <glyph glyph-name="Ibreve" unicode="&#x12c;" horiz-adv-x="690" 
d="M343 1405q36 0 289 8l8 -7v-50l-8 -7q-135 -4 -156 -18q-22 -15 -28 -55t-5 -112l-2 -230v-463l1 -195q0 -168 20 -190q10 -10 37 -18t133 -12l8 -6v-50l-8 -8l-287 8q-31 0 -286 -8l-8 8v50l8 6q144 6 160 21q17 14 23 45t7 138l1 211v463l-2 195q-1 170 -15 186t-41 23
t-133 11l-8 7v50l8 7l125 -4q123 -4 159 -4zM344 1555q-160 0 -243 112q-63 86 -63 204l5 7h53q39 -193 246 -193t244 193h53l5 -7q0 -109 -60 -197q-80 -119 -240 -119z" />
    <glyph glyph-name="ibreve" unicode="&#x12d;" horiz-adv-x="596" 
d="M381 607v-226q0 -21 4 -141q5 -120 9 -140t13 -29t22 -11t108 -9l9 -8v-42l-8 -9q-124 8 -240 8t-241 -8l-9 9v42l9 8q97 6 109 9q12 2 22 12t14 30t8 128q4 110 4 166v197q0 127 -10 194q-2 15 -16 23q-13 8 -52 8l-84 1l-9 8v43l8 8q191 23 322 75l19 -13
q-11 -131 -11 -333zM271 1094q-169 0 -243 152q-36 74 -41 178l8 8h54q15 -92 75 -152t147 -60t147 60t75 152h54l8 -8q-7 -150 -81 -240t-203 -90z" />
    <glyph glyph-name="Iogonek" unicode="&#x12e;" horiz-adv-x="690" 
d="M299 -194q0 -101 104 -101q81 0 181 74l13 -1l22 -29v-14q-146 -130 -275 -130q-70 0 -119 45.5t-49 121.5q0 115 172 228q-42 0 -289 -8l-8 8v50l8 6q112 5 137.5 13.5t39 31t13.5 159.5l1 98v576l-2 195q0 124 -8.5 160.5t-36.5 45.5t-144 14l-8 7v50l8 7l286 -8
q34 0 287 8l8 -7v-50l-8 -7q-131 -3 -159.5 -19.5t-29.5 -165.5l-2 -230v-658q0 -154 17 -181.5t53 -31.5t121 -7l8 -6v-50l-8 -8l-209 6q-124 -111 -124 -192z" />
    <glyph glyph-name="iogonek" unicode="&#x12f;" horiz-adv-x="596" 
d="M203 -192q0 -40 29 -71.5t74 -31.5q78 0 178 85l15 -1l28 -37l-1 -14q-101 -89 -163.5 -113.5t-124.5 -24.5t-110 50t-48 114t37.5 116t132.5 120q-66 0 -193 -8l-9 9v42l9 8q97 6 109.5 9t22 12.5t13 29t8 129t4.5 165.5v197q0 127 -6.5 168.5t-19.5 49t-52 7.5l-84 1
l-9 8v43l8 8q191 23 322 75l19 -13q-11 -131 -11 -333v-226q0 -22 4 -141.5t8.5 -139.5t13.5 -29t22 -11.5t108 -8.5l9 -8v-42l-8 -9q-128 8 -203 8l-9 -9q-76 -69 -99.5 -106t-23.5 -77zM288 1400q46 0 79.5 -33t33.5 -79t-33.5 -79.5t-79.5 -33.5t-79.5 32.5t-33.5 79.5
t33.5 80t79.5 33z" />
    <glyph glyph-name="Idotaccent" unicode="&#x130;" horiz-adv-x="690" 
d="M343 1405q36 0 289 8l8 -7v-50l-8 -7q-135 -4 -156 -18q-22 -15 -28 -55t-5 -112l-2 -230v-463l1 -195q0 -168 20 -190q10 -10 37 -18t133 -12l8 -6v-50l-8 -8l-287 8q-31 0 -286 -8l-8 8v50l8 6q144 6 160 21q17 14 23 45t7 138l1 211v463l-2 195q-1 170 -15 186t-41 23
t-133 11l-8 7v50l8 7l125 -4q123 -4 159 -4zM352 1604q-47 0 -80 32t-33 80q0 47 33 80t80 33q48 0 80 -33t32 -80q0 -48 -32 -80t-80 -32z" />
    <glyph glyph-name="dotlessi" unicode="&#x131;" horiz-adv-x="596" 
d="M381 607v-226q0 -22 4 -141.5t8.5 -139.5t13.5 -29t22 -11.5t108 -8.5l9 -8v-42l-8 -9q-125 8 -240.5 8t-240.5 -8l-9 9v42l9 8q97 6 109.5 9t22 12.5t13 29t8 129t4.5 165.5v197q0 127 -10 194q-2 16 -15.5 23.5t-52.5 7.5l-84 1l-9 8v43l8 8q191 23 322 75l19 -13
q-11 -131 -11 -333z" />
    <glyph glyph-name="Jcircumflex" unicode="&#x134;" horiz-adv-x="682" 
d="M436 216q0 -158 -28 -258t-98 -186q-138 -169 -292 -169q-21 0 -42 5q4 85 0 154l19 13q51 -38 103 -38q100 1 129 69q19 46 19 259v869l-2 195q0 169 -20 191q-10 11 -36 18t-134 11l-7 7v50l7 7q254 -8 288 -8t286 8l7 -7v-50l-7 -7q-136 -4 -157 -18q-21 -15 -27 -55
t-6 -112l-2 -230v-718zM674 1550l-7 -11h-62l-264 234l-264 -234h-62l-7 10l288 356h96z" />
    <glyph glyph-name="jcircumflex" unicode="&#x135;" horiz-adv-x="479" 
d="M329 573v-184l3 -319q0 -340 -106.5 -492t-258.5 -152q-7 0 -22 1l-9 57l9 13q21 -2 34 -2q78 0 130.5 86.5t52.5 429.5v582q0 149 -7.5 180t-23.5 37.5t-47 7.5l-84 1l-9 8v43l8 8q191 23 322 75l19 -13q-11 -131 -11 -367zM543 1120l-7 -10h-58l-255 248l-255 -248h-58
l-7 10l261 362h118z" />
    <glyph glyph-name="uni0136" unicode="&#x136;" horiz-adv-x="1487" 
d="M343 1405q36 0 289 8l8 -7v-50l-8 -7q-135 -4 -156 -18q-22 -15 -28 -55t-5 -112l-2 -230v-210q251 226 363 338l184 184q72 72 86 94v65l10 8q76 -4 131 -4t193 3l10 -9v-47l-8 -8q-93 0 -127 -10q-56 -17 -250 -196l-405 -370l602 -557q144 -135 162 -147t73 -14l7 -8
v-42l-7 -8q-57 4 -107 4t-175 -4q-91 86 -159 152t-583 536v-213l1 -195q0 -168 20 -190q10 -10 37 -18t133 -12l8 -6v-50l-8 -8l-287 8q-31 0 -286 -8l-8 8v50l8 6q144 6 160 21q17 14 23 45t7 138l1 211v463l-2 195q-1 170 -15 186t-41 23t-133 11l-8 7v50l8 7l125 -4
q123 -4 159 -4zM832 -391q0 32 -40 33q-134 5 -134 124q0 52 36 84t96 31q60 0 96 -45q37 -45 37 -120q0 -254 -258 -277l-8 41q175 28 175 129z" />
    <glyph glyph-name="uni0137" unicode="&#x137;" horiz-adv-x="1139" 
d="M372 1008v-469q34 21 134 101t212 184t114 112q85 -3 105 -3t90 3l9 -9v-39l-8 -9q-50 -3 -76 -13t-108 -66t-193 -147l-97 -79q54 -62 186 -194t214 -206t107 -84t53 -10v-43q-37 -7 -191 -61q-104 90 -132 119l-162 165q-41 41 -110 104l-147 136v-119q0 -21 4 -141
t8 -140t14 -29q9 -9 22 -11t108 -9l9 -8v-42l-8 -9q-125 8 -241 8t-240 -8l-9 9v42l9 8q98 6 110 9q12 2 22 12t12 30q4 20 8 128q4 110 5 166v518l-4 212q-5 191 -14 202q-8 11 -23 15t-121 4l-9 9v42l8 9q191 22 322 74l19 -12q-11 -115 -11 -461zM635 -358q0 29 -34 30
q-121 4 -121 109q0 47 32 75t86 28q52 0 86 -40t34 -107q0 -227 -231 -248l-9 35q157 39 157 118z" />
    <glyph glyph-name="kgreenlandic" unicode="&#x138;" horiz-adv-x="1073" 
d="M945 0q-57 0 -118 -6q-224 266 -433 462h-8v-78q0 -234 7 -264.5t19.5 -40.5t25 -14t80.5 -10l8 -7v-42l-8 -8q-100 8 -218 8t-213 -8l-8 8v42l8 7q64 6 83 11.5t31.5 21.5t15 77.5t2.5 218.5v215l-4 124q-3 83 -18 91.5t-56 9.5l-53 1l-9 8v43l8 8q147 18 291 75l19 -13
q-11 -162 -11 -388v-70h8q126 109 246 231l129 132q11 11 11 24t-18 18v39l8 8q86 -8 125 -8t105 8l7 -8v-42l-7 -7q-54 -5 -90.5 -23t-119.5 -93l-234 -212l420 -453q45 -48 83 -48l5 -5v-43l-5 -6q-57 6 -114 6z" />
    <glyph glyph-name="Lacute" unicode="&#x139;" horiz-adv-x="1251" 
d="M329 1405q36 0 289 8l8 -7v-50l-8 -7q-135 -4 -156 -18q-22 -15 -28 -55t-5 -112l-2 -230v-442q0 -166 2 -232l5 -173h204q244 0 304 6t117 29q11 25 31 115t22 104l9 8h49l7 -8q-9 -40 -17 -155t-8 -186l-8 -8q-190 6 -499 6l-292 2q-100 0 -204 -8l-8 8v33l8 10
q62 32 68 39q7 7 13 129t6 294v429l-2 195q-1 170 -15 186t-41 23t-133 11l-8 7v50l8 7q248 -8 284 -8zM736 1856l-210 -157l-200 -156l-15 -4l-25 24l2 14l144 174q3 3 95 117l187 26l10 -7z" />
    <glyph glyph-name="lacute" unicode="&#x13a;" horiz-adv-x="596" 
d="M382 1008v-627q0 -21 4 -141t8 -140t14 -29q9 -9 22 -11t108 -9l9 -8v-42l-8 -9q-125 8 -241 8t-240 -8l-9 9v42l9 8q98 6 110 9q12 2 22 12t12 30q4 20 8 128q4 110 5 166v518l-4 212q-5 191 -14 202q-8 11 -23 15t-121 4l-9 9v42l8 9q191 22 322 74l19 -12
q-11 -115 -11 -461zM540 1917l-294 -374l-13 -4l-29 15l-3 13l153 349l156 29l13 -3z" />
    <glyph glyph-name="uni013B" unicode="&#x13b;" horiz-adv-x="1251" 
d="M329 1405q36 0 289 8l8 -7v-50l-8 -7q-135 -4 -156 -18q-22 -15 -28 -55t-5 -112l-2 -230v-442q0 -166 2 -232l5 -173h204q244 0 304 6t117 29q11 25 31 115t22 104l9 8h49l7 -8q-9 -40 -17 -155t-8 -186l-8 -8q-190 6 -499 6l-292 2q-100 0 -204 -8l-8 8v33l8 10
q62 32 68 39q7 7 13 129t6 294v429l-2 195q-1 170 -15 186t-41 23t-133 11l-8 7v50l8 7q248 -8 284 -8zM702 -391q0 32 -40 33q-134 5 -134 124q0 52 36 84t96 31q60 0 96 -45q37 -45 37 -120q0 -254 -258 -277l-8 41q175 28 175 129z" />
    <glyph glyph-name="uni013C" unicode="&#x13c;" horiz-adv-x="596" 
d="M382 1008v-627q0 -21 4 -141t8 -140t14 -29q9 -9 22 -11t108 -9l9 -8v-42l-8 -9q-125 8 -241 8t-240 -8l-9 9v42l9 8q98 6 110 9q12 2 22 12t12 30q4 20 8 128q4 110 5 166v518l-4 212q-5 191 -14 202q-8 11 -23 15t-121 4l-9 9v42l8 9q191 22 322 74l19 -12
q-11 -115 -11 -461zM345 -358q0 29 -34 30q-121 4 -121 109q0 47 32 75t86 28q52 0 86 -40t34 -107q0 -227 -231 -248l-9 35q157 39 157 118z" />
    <glyph glyph-name="Lcaron" unicode="&#x13d;" horiz-adv-x="1251" 
d="M329 1405q36 0 289 8l8 -7v-50l-8 -7q-135 -4 -156 -18q-22 -15 -28 -55t-5 -112l-2 -230v-442q0 -166 2 -232l5 -173h204q244 0 304 6t117 29q11 25 31 115t22 104l9 8h49l7 -8q-9 -40 -17 -155t-8 -186l-8 -8q-190 6 -499 6l-292 2q-100 0 -204 -8l-8 8v33l8 10
q62 32 68 39q7 7 13 129t6 294v429l-2 195q-1 170 -15 186t-41 23t-133 11l-8 7v50l8 7q248 -8 284 -8zM882 1140q0 32 -40 33q-134 5 -134 124q0 51 36 83t96 32t96 -45q37 -45 37 -120q0 -254 -258 -277l-8 41q175 28 175 129z" />
    <glyph glyph-name="lcaron" unicode="&#x13e;" horiz-adv-x="752" 
d="M382 1008v-627q0 -21 4 -141t8 -140t14 -29q9 -9 22 -11t108 -9l9 -8v-42l-8 -9q-125 8 -241 8t-240 -8l-9 9v42l9 8q98 6 110 9q12 2 22 12t12 30q4 20 8 128q4 110 5 166v518l-4 212q-5 191 -14 202q-8 11 -23 15t-121 4l-9 9v42l8 9q191 22 322 74l19 -12
q-11 -115 -11 -461zM645 1240q0 29 -34 30q-121 4 -121 109q0 47 32 75t86 28q52 0 86 -40t34 -107q0 -227 -231 -248l-9 35q157 39 157 118z" />
    <glyph glyph-name="Ldot" unicode="&#x13f;" horiz-adv-x="1251" 
d="M329 1405q36 0 289 8l8 -7v-50l-8 -7q-135 -4 -156 -18q-22 -15 -28 -55t-5 -112l-2 -230v-442q0 -166 2 -232l5 -173h204q244 0 304 6t117 29q11 25 31 115t22 104l9 8h49l7 -8q-9 -40 -17 -155t-8 -186l-8 -8q-190 6 -499 6l-292 2q-100 0 -204 -8l-8 8v33l8 10
q62 32 68 39q7 7 13 129t6 294v429l-2 195q-1 170 -15 186t-41 23t-133 11l-8 7v50l8 7q248 -8 284 -8zM688 648q-47 0 -80 32t-33 80q0 47 33 80t80 33q48 0 80 -33t32 -80q0 -48 -32 -80t-80 -32z" />
    <glyph glyph-name="ldot" unicode="&#x140;" horiz-adv-x="697" 
d="M382 1008v-627q0 -21 4 -141t8 -140t14 -29q9 -9 22 -11t108 -9l9 -8v-42l-8 -9q-125 8 -241 8t-240 -8l-9 9v42l9 8q98 6 110 9q12 2 22 12t12 30q4 20 8 128q4 110 5 166v518l-4 212q-5 191 -14 202q-8 11 -23 15t-121 4l-9 9v42l8 9q191 22 322 74l19 -12
q-11 -115 -11 -461zM580 702q-46 0 -78 32t-32 78t32 78t79 33q47 -1 79 -33t31 -78t-33 -78t-78 -32z" />
    <glyph glyph-name="Lslash" unicode="&#x141;" horiz-adv-x="1251" 
d="M427 492q0 -214 7 -405h205q242 0 302.5 6t116.5 29q11 25 31.5 115t21.5 104l9 8h49l8 -8q-9 -40 -17.5 -155t-8.5 -186l-7 -8q-191 6 -499 6l-292 2q-99 0 -204 -8l-8 8v33l8 10q62 32 68 39t12.5 129t6.5 294v87l-182 -105l-11 3l-36 61l2 12l227 130v241l-1 195
q-1 169 -15.5 185.5t-41.5 23.5t-133 11l-8 7v50l8 7q249 -8 285 -8t289 8l7 -7v-50l-7 -7q-136 -4 -157.5 -18t-27 -54.5t-5.5 -112.5l-2 -230v-132l282 162l12 -2l34 -60l-3 -12l-325 -188v-210z" />
    <glyph glyph-name="lslash" unicode="&#x142;" horiz-adv-x="596" 
d="M381 1008v-124l207 120l12 -3l29 -50l-3 -11l-245 -141v-418q0 -22 4.5 -141.5t9 -139.5t13.5 -29t21.5 -11.5t108.5 -8.5l8 -8v-42l-8 -9q-124 8 -236 8t-245 -8l-8 9v42l9 8q96 6 109 9t22 12.5t12.5 29t8 129t4.5 165.5v307l-196 -113l-12 3l-25 48l3 12l230 134v127
l-4 212q-3 190 -12.5 201.5t-24 15.5t-121.5 4l-8 9v42l8 9q191 22 322 74l18 -12q-11 -115 -11 -461z" />
    <glyph glyph-name="Nacute" unicode="&#x143;" horiz-adv-x="1702" 
d="M235 424v808q0 92 -69 106q-32 6 -109 8l-8 8v47l8 9q138 -5 210 -5t137 5l319 -414l469 -588q85 -107 173 -203v774q-1 227 -9 280q-8 54 -26 70t-135 18l-8 8v46l8 9q81 -5 225 -5t205 5l9 -9v-46l-8 -8q-131 -2 -147 -29q-23 -38 -23 -339v-475l1 -275q2 -135 4 -271
q-50 17 -173 42l-284 344l-678 847v-767q0 -248 8 -290t17 -52q21 -25 144 -26l8 -8v-47l-8 -8q-53 7 -185 7t-244 -7l-9 9v46l9 8q126 2 144 27q24 33 25 341zM1186 1856l-210 -157l-200 -156l-15 -4l-25 24l2 14l144 174q3 3 95 117l187 26l10 -7z" />
    <glyph glyph-name="nacute" unicode="&#x144;" horiz-adv-x="1192" 
d="M710 955q60 0 132 -31q72 -32 108 -74q64 -75 64 -243v-176q0 -17 5 -249q2 -95 21 -113t124 -18l8 -8v-43l-8 -8q-126 8 -162 8t-156 -8l-12 11q13 130 13 339v131q1 118 -5 170q-6 53 -34 95q-59 90 -187 89q-52 -1 -89 -11t-83 -42t-68 -62q-23 -28 -27 -52t-4 -105
v-174q0 -21 4 -141t8 -140t14 -29q9 -9 22 -11t108 -9l9 -8v-42l-8 -9q-125 8 -241 8t-240 -8l-9 9v42l9 8q98 6 110 9q12 2 22 12t12 30q4 20 8 128q4 110 5 166v197q-1 127 -11 194q-2 15 -15 23t-52 8l-84 1l-9 8v43l8 8q191 23 322 75l19 -13q-6 -67 -8 -176
q81 66 127 110t64 52q18 9 62 19t104 10zM890 1467l-294 -374l-13 -4l-29 15l-3 13l153 349l156 29l13 -3z" />
    <glyph glyph-name="uni0145" unicode="&#x145;" horiz-adv-x="1702" 
d="M235 424v808q0 92 -69 106q-32 6 -109 8l-8 8v47l8 9q138 -5 210 -5t137 5l319 -414l469 -588q85 -107 173 -203v774q-1 227 -9 280q-8 54 -26 70t-135 18l-8 8v46l8 9q81 -5 225 -5t205 5l9 -9v-46l-8 -8q-131 -2 -147 -29q-23 -38 -23 -339v-475l1 -275q2 -135 4 -271
q-50 17 -173 42l-284 344l-678 847v-767q0 -248 8 -290t17 -52q21 -25 144 -26l8 -8v-47l-8 -8q-53 7 -185 7t-244 -7l-9 9v46l9 8q126 2 144 27q24 33 25 341zM892 -391q0 32 -40 33q-134 5 -134 124q0 52 36 84t96 31q60 0 96 -45q37 -45 37 -120q0 -254 -258 -277l-8 41
q175 28 175 129z" />
    <glyph glyph-name="uni0146" unicode="&#x146;" horiz-adv-x="1192" 
d="M710 955q60 0 132 -31q72 -32 108 -74q64 -75 64 -243v-176q0 -17 5 -249q2 -95 21 -113t124 -18l8 -8v-43l-8 -8q-126 8 -162 8t-156 -8l-12 11q13 130 13 339v131q1 118 -5 170q-6 53 -34 95q-59 90 -187 89q-52 -1 -89 -11t-83 -42t-68 -62q-23 -28 -27 -52t-4 -105
v-174q0 -21 4 -141t8 -140t14 -29q9 -9 22 -11t108 -9l9 -8v-42l-8 -9q-125 8 -241 8t-240 -8l-9 9v42l9 8q98 6 110 9q12 2 22 12t12 30q4 20 8 128q4 110 5 166v197q-1 127 -11 194q-2 15 -15 23t-52 8l-84 1l-9 8v43l8 8q191 23 322 75l19 -13q-6 -67 -8 -176
q81 66 127 110t64 52q18 9 62 19t104 10zM665 -358q0 29 -34 30q-121 4 -121 109q0 47 32 75t86 28q52 0 86 -40t34 -107q0 -227 -231 -248l-9 35q157 39 157 118z" />
    <glyph glyph-name="Ncaron" unicode="&#x147;" horiz-adv-x="1702" 
d="M235 424v808q0 92 -69 106q-32 6 -109 8l-8 8v47l8 9q138 -5 210 -5t137 5l319 -414l469 -588q85 -107 173 -203v774q-1 227 -9 280q-8 54 -26 70t-135 18l-8 8v46l8 9q81 -5 225 -5t205 5l9 -9v-46l-8 -8q-131 -2 -147 -29q-23 -38 -23 -339v-475l1 -275q2 -135 4 -271
q-50 17 -173 42l-284 344l-678 847v-767q0 -248 8 -290t17 -52q21 -25 144 -26l8 -8v-47l-8 -8q-53 7 -185 7t-244 -7l-9 9v46l9 8q126 2 144 27q24 33 25 341zM1202 1894l-280 -355h-126l-286 355l6 11h63l277 -253l274 253h65z" />
    <glyph glyph-name="ncaron" unicode="&#x148;" horiz-adv-x="1192" 
d="M710 955q60 0 132 -31q72 -32 108 -74q64 -75 64 -243v-176q0 -17 5 -249q2 -95 21 -113t124 -18l8 -8v-43l-8 -8q-126 8 -162 8t-156 -8l-12 11q13 130 13 339v131q1 118 -5 170q-6 53 -34 95q-59 90 -187 89q-52 -1 -89 -11t-83 -42t-68 -62q-23 -28 -27 -52t-4 -105
v-174q0 -21 4 -141t8 -140t14 -29q9 -9 22 -11t108 -9l9 -8v-42l-8 -9q-125 8 -241 8t-240 -8l-9 9v42l9 8q98 6 110 9q12 2 22 12t12 30q4 20 8 128q4 110 5 166v197q-1 127 -11 194q-2 15 -15 23t-52 8l-84 1l-9 8v43l8 8q191 23 322 75l19 -13q-6 -67 -8 -176
q81 66 127 110t64 52q18 9 62 19t104 10zM931 1472l-261 -362h-128l-251 362l7 10h58l250 -246l250 246h68z" />
    <glyph glyph-name="napostrophe" unicode="&#x149;" horiz-adv-x="1477" 
d="M994 955q60 0 132 -31q72 -32 108 -74q64 -75 65 -243v-176q0 -17 5 -249q2 -95 21 -113t124 -18l8 -8v-43l-8 -8q-127 8 -163 8t-155 -8l-12 11q13 130 13 339v131q0 118 -6 170q-6 53 -33 95q-59 90 -187 89q-52 -1 -89 -11t-83 -42t-68 -62q-22 -28 -26 -52t-5 -105
v-174q0 -21 4 -141q5 -120 9 -140t13 -29t22 -11t108 -9l9 -8v-42l-8 -9q-124 8 -240 8t-241 -8l-9 9v42l9 8q97 6 109 9q12 2 22 12t14 30t8 128q4 110 4 166v197q0 127 -10 194q-2 15 -16 23q-13 8 -52 8l-84 1l-9 8v43l8 8q191 23 322 75l19 -13q-6 -67 -8 -176
q80 66 126 110t66 52q18 9 61 19t103 10zM225 1239q0 29 -34 30q-121 4 -121 109q0 46 32 74t86 29q52 -1 86 -41t34 -106q0 -227 -231 -248l-9 35q157 39 157 118z" />
    <glyph glyph-name="Eng" unicode="&#x14a;" horiz-adv-x="1702" 
d="M1456 979v-979q0 -280 -61 -361.5t-170 -81.5q-71 0 -125 42l-5 11l44 100l12 5q43 -28 87 -28q81 0 118 49t37 202v62h-98q-20 20 -78 85l-135 162l-756 944v-767q0 -257 10 -298.5t36 -55t123 -14.5l8 -8v-47l-8 -8q-53 7 -185 7t-244 -7l-9 9v46l9 8q131 2 146 28.5
t20 183.5l1 50q2 100 2 106v808q0 87 -45 100t-133 14l-8 8v47l8 9q138 -5 210 -5t137 5q10 -10 54 -69l265 -345l469 -588q86 -108 173 -203v774q0 36 -2 100l-1 54q-3 150 -18 181.5t-149 32.5l-8 8v46l8 9q81 -5 225 -5t205 5l9 -9v-46l-8 -8q-93 -1 -114.5 -10
t-38.5 -35.5t-17 -322.5z" />
    <glyph glyph-name="eng" unicode="&#x14b;" horiz-adv-x="1155" 
d="M183 396v197q0 135 -6.5 173t-20 45t-53.5 7t-82 1l-9 8v43l8 9q191 22 322 74l18 -12q-6 -77 -7 -177q2 1 74 65l78 69q63 57 189 57q76 0 147.5 -31.5t122 -90.5t50.5 -226v-471q0 -81 -16 -145.5t-63.5 -145t-131 -173t-193.5 -92.5q-65 0 -130 32l46 120h26
q53 -43 116 -43t102.5 35.5t58 99t18.5 190.5v459q0 118 -5.5 170t-49 118t-171.5 66q-52 0 -89.5 -10.5t-83 -43t-67.5 -61t-26.5 -53t-4.5 -104.5v-174q0 -17 4 -138.5t8.5 -142t13.5 -29.5t22.5 -12t107.5 -8l9 -8v-42l-8 -9l-241 8q-104 0 -240 -8l-9 9v42l9 8
q110 6 126 16.5t19 34.5q12 97 12 294z" />
    <glyph glyph-name="Omacron" unicode="&#x14c;" horiz-adv-x="1610" 
d="M256 755q0 -123 40 -263t118 -240q155 -199 414 -199q155 0 276 71q121 70 184 220t63 344t-72 357t-205 237t-295 74q-243 0 -383 -152t-140 -449zM48 706q0 302 190 504q217 232 568 231q352 1 554 -185t202 -507q0 -226 -99 -406t-283 -280t-415 -100q-339 0 -533 217
q-96 108 -140 250t-44 276zM1125 1665h-648v102h648v-102z" />
    <glyph glyph-name="omacron" unicode="&#x14d;" horiz-adv-x="1118" 
d="M257 546q0 -158 36 -270q36 -110 114 -177t187 -67t186 94t77 294q1 200 -83 336t-241 136q-130 0 -203 -94t-73 -252zM68 454q0 124 49 234t171 190t288 81q210 -1 342 -133t132 -350t-152 -367q-152 -148 -365 -148q-140 -1 -250 75q-111 76 -163 185t-52 233z
M866 1215h-630v105h630v-105z" />
    <glyph glyph-name="Obreve" unicode="&#x14e;" horiz-adv-x="1610" 
d="M256 755q0 -123 40 -263t118 -240q155 -199 414 -199q155 0 276 71q121 70 184 220t63 344t-72 357t-205 237t-295 74q-243 0 -383 -152t-140 -449zM48 706q0 302 190 504q217 232 568 231q352 1 554 -185t202 -507q0 -226 -99 -406t-283 -280t-415 -100q-339 0 -533 217
q-96 108 -140 250t-44 276zM804 1555q-160 0 -243 112q-63 86 -63 204l5 7h53q39 -193 246 -193t244 193h53l5 -7q0 -109 -60 -197q-80 -119 -240 -119z" />
    <glyph glyph-name="obreve" unicode="&#x14f;" horiz-adv-x="1118" 
d="M257 546q0 -158 36 -270q36 -110 114 -177t187 -67t186 94t77 294q1 200 -83 336t-241 136q-130 0 -203 -94t-73 -252zM68 454q0 124 49 234t171 190t288 81q210 -1 342 -133t132 -350t-152 -367q-152 -148 -365 -148q-140 -1 -250 75q-111 76 -163 185t-52 233z
M551 1094q-169 0 -243 152q-36 74 -41 178l8 8h54q15 -92 75 -152t147 -60t147 60t75 152h54l8 -8q-7 -150 -81 -240t-203 -90z" />
    <glyph glyph-name="Ohungarumlaut" unicode="&#x150;" horiz-adv-x="1610" 
d="M256 755q0 -123 40 -263t118 -240q155 -199 414 -199q155 0 276 71q121 70 184 220t63 344t-72 357t-205 237t-295 74q-243 0 -383 -152t-140 -449zM48 706q0 302 190 504q217 232 568 231q352 1 554 -185t202 -507q0 -226 -99 -406t-283 -280t-415 -100q-339 0 -533 217
q-96 108 -140 250t-44 276zM965 1860l-408 -318l-13 -3l-24 23l2 13l241 293l180 26l10 -7zM1324 1860l-408 -318l-13 -3l-24 23l2 13l241 293l180 26l10 -7z" />
    <glyph glyph-name="ohungarumlaut" unicode="&#x151;" horiz-adv-x="1118" 
d="M257 546q0 -158 36 -270q36 -110 114 -177t187 -67t186 94t77 294q1 200 -83 336t-241 136q-130 0 -203 -94t-73 -252zM68 454q0 124 49 234t171 190t288 81q210 -1 342 -133t132 -350t-152 -367q-152 -148 -365 -148q-140 -1 -250 75q-111 76 -163 185t-52 233z
M661 1474l-291 -381l-10 -4l-29 16l-4 10l153 351l154 29l10 -4zM975 1474l-291 -381l-10 -4l-29 16l-4 10l153 351l154 29l10 -4z" />
    <glyph glyph-name="OE" unicode="&#x152;" horiz-adv-x="2044" 
d="M808 1353q-161 0 -287 -70t-185.5 -207.5t-59.5 -303.5t42.5 -303.5t156 -278t355.5 -140.5q147 0 280 66q12 121 12 300v421q0 299 -13 429q-140 87 -301 87zM1963 -8q-409 8 -581 8t-348 -16t-246 -17q-196 0 -355.5 79t-260 249.5t-100.5 386.5t86 384.5t266 270
t396 101.5q56 0 208 -17t332 -17t567 9l9 -9q-1 -9 -14 -84t-22 -216l-9 -10h-46l-9 9q-1 111 -12 180q-130 42 -313 42q-84 0 -203 -8q-11 -131 -11 -243v-304q88 -7 170 -7t144.5 5.5t73.5 13t18 30.5t16 124l9 8h48l9 -7q-7 -116 -7 -203t7 -243l-8 -8h-49l-9 8l-7 95
q-4 43 -11 55.5t-21 20t-95.5 14t-287.5 -0.5v-358q0 -114 4 -229h186q207 0 269 4t126 30q15 40 50 208l9 8h49l9 -8q-17 -164 -26 -329z" />
    <glyph glyph-name="oe" unicode="&#x153;" horiz-adv-x="1694" 
d="M1253 545q175 0 205 5q1 24 1 37q0 151 -61.5 228.5t-177.5 77.5t-182 -85t-66 -252q106 -11 281 -11zM234 551q0 -115 33 -238.5t106 -199.5t186 -76t181.5 98.5t68.5 302.5t-84 330t-222 126q-111 0 -190 -82.5t-79 -260.5zM1310 73q132 0 287 91l16 -17l-32 -72
q-166 -107 -331 -107q-90 0 -165 23.5t-115.5 52.5t-98.5 95q-145 -169 -355 -169t-336.5 136t-126.5 366q0 160 68.5 269t181 164t219.5 55t171.5 -19.5t107 -49.5t97.5 -86q99 94 180.5 124.5t175.5 30.5q177 0 282.5 -103t105.5 -285q0 -31 -4 -60l-11 -11
q-112 -25 -335 -25h-320q2 -207 104 -305t234 -98z" />
    <glyph glyph-name="Racute" unicode="&#x154;" horiz-adv-x="1368" 
d="M1176 1104q0 -84 -44 -165q-94 -173 -367 -225q28 -39 101 -135l142 -188q219 -295 246 -311q28 -16 44 -19t52 -3l8 -8v-47l-9 -9q-49 6 -117 6t-152 -6q-69 84 -229 308t-340 428l10 31q52 -3 81 -3q173 0 271 83t98 223t-88 206q-87 68 -215 68t-221 -29
q-15 -22 -15 -375v-463l1 -195q1 -168 21 -190q10 -10 36 -18q27 -8 133 -12l8 -6v-50l-8 -8l-287 8q-31 0 -286 -8l-8 8v50l8 6q144 6 160 21q16 14 22 45t8 138l1 211v463l-2 195q-1 170 -15 186t-41 23t-133 11l-8 7v50l8 7q183 -8 285 -8l408 9q253 0 343 -92t90 -218z
M966 1856l-210 -157l-200 -156l-15 -4l-25 24l2 14l144 174q3 3 95 117l187 26l10 -7z" />
    <glyph glyph-name="racute" unicode="&#x155;" horiz-adv-x="809" 
d="M681 955q42 0 81 -18l7 -14q-16 -133 -18 -234h-45q-40 92 -129 92q-62 1 -108 -39q-45 -40 -61 -100t-16 -150v-111q0 -30 4 -147t8 -135q4 -19 14 -27t26 -11t142 -10l9 -8v-42l-9 -9q-133 8 -263 8t-255 -8l-9 9v42l9 8q98 6 110 9q12 2 22 12t12 30q4 20 8 128
q4 110 5 166v197q-1 127 -11 194q-2 15 -15 23t-52 8l-84 1l-9 8v43l8 8q191 23 322 75l19 -13q-6 -58 -9 -206l75 95q37 47 65 73t67 39q38 14 80 14zM730 1467l-294 -374l-13 -4l-29 15l-3 13l153 349l156 29l13 -3z" />
    <glyph glyph-name="uni0156" unicode="&#x156;" horiz-adv-x="1368" 
d="M1176 1104q0 -84 -44 -165q-94 -173 -367 -225q28 -39 101 -135l142 -188q219 -295 246 -311q28 -16 44 -19t52 -3l8 -8v-47l-9 -9q-49 6 -117 6t-152 -6q-69 84 -229 308t-340 428l10 31q52 -3 81 -3q173 0 271 83t98 223t-88 206q-87 68 -215 68t-221 -29
q-15 -22 -15 -375v-463l1 -195q1 -168 21 -190q10 -10 36 -18q27 -8 133 -12l8 -6v-50l-8 -8l-287 8q-31 0 -286 -8l-8 8v50l8 6q144 6 160 21q16 14 22 45t8 138l1 211v463l-2 195q-1 170 -15 186t-41 23t-133 11l-8 7v50l8 7q183 -8 285 -8l408 9q253 0 343 -92t90 -218z
M772 -391q0 32 -40 33q-134 5 -134 124q0 52 36 84t96 31q60 0 96 -45q37 -45 37 -120q0 -254 -258 -277l-8 41q175 28 175 129z" />
    <glyph glyph-name="uni0157" unicode="&#x157;" horiz-adv-x="809" 
d="M681 955q42 0 81 -18l7 -14q-16 -133 -18 -234h-45q-40 92 -129 92q-62 1 -108 -39q-45 -40 -61 -100t-16 -150v-111q0 -30 4 -147t8 -135q4 -19 14 -27t26 -11t142 -10l9 -8v-42l-9 -9q-133 8 -263 8t-255 -8l-9 9v42l9 8q98 6 110 9q12 2 22 12t12 30q4 20 8 128
q4 110 5 166v197q-1 127 -11 194q-2 15 -15 23t-52 8l-84 1l-9 8v43l8 8q191 23 322 75l19 -13q-6 -58 -9 -206l75 95q37 47 65 73t67 39q38 14 80 14zM355 -358q0 29 -34 30q-121 4 -121 109q0 47 32 75t86 28q52 0 86 -40t34 -107q0 -227 -231 -248l-9 35q157 39 157 118z
" />
    <glyph glyph-name="Rcaron" unicode="&#x158;" horiz-adv-x="1368" 
d="M1176 1104q0 -84 -44 -165q-94 -173 -367 -225q28 -39 101 -135l142 -188q219 -295 246 -311q28 -16 44 -19t52 -3l8 -8v-47l-9 -9q-49 6 -117 6t-152 -6q-69 84 -229 308t-340 428l10 31q52 -3 81 -3q173 0 271 83t98 223t-88 206q-87 68 -215 68t-221 -29
q-15 -22 -15 -375v-463l1 -195q1 -168 21 -190q10 -10 36 -18q27 -8 133 -12l8 -6v-50l-8 -8l-287 8q-31 0 -286 -8l-8 8v50l8 6q144 6 160 21q16 14 22 45t8 138l1 211v463l-2 195q-1 170 -15 186t-41 23t-133 11l-8 7v50l8 7q183 -8 285 -8l408 9q253 0 343 -92t90 -218z
M972 1894l-280 -355h-126l-286 355l6 11h63l277 -253l274 253h65z" />
    <glyph glyph-name="rcaron" unicode="&#x159;" horiz-adv-x="809" 
d="M681 955q42 0 81 -18l7 -14q-16 -133 -18 -234h-45q-40 92 -129 92q-62 1 -108 -39q-45 -40 -61 -100t-16 -150v-111q0 -30 4 -147t8 -135q4 -19 14 -27t26 -11t142 -10l9 -8v-42l-9 -9q-133 8 -263 8t-255 -8l-9 9v42l9 8q98 6 110 9q12 2 22 12t12 30q4 20 8 128
q4 110 5 166v197q-1 127 -11 194q-2 15 -15 23t-52 8l-84 1l-9 8v43l8 8q191 23 322 75l19 -13q-6 -58 -9 -206l75 95q37 47 65 73t67 39q38 14 80 14zM741 1472l-261 -362h-128l-251 362l7 10h58l250 -246l250 246h68z" />
    <glyph glyph-name="Sacute" unicode="&#x15a;" horiz-adv-x="1075" 
d="M500 56q92 0 176 39t131 115t47 155q0 80 -22 129q-22 48 -64 78q-40 30 -92 44t-154 32q-102 16 -158 29q-136 31 -212 116q-76 84 -76 224q0 187 130 307t342 119q212 0 383 -85l7 -12q-22 -92 -27 -262l-9 -8h-52l-8 7q-2 120 -6 151t-91 77t-181 46t-167 -34
q-74 -34 -112 -107q-38 -72 -38 -140t23 -114q24 -46 60 -72t84 -39t202 -35t234 -58t128 -112q48 -77 49 -186q1 -213 -173 -355t-401 -142t-383 74l-6 13q10 63 15 294l8 8h49l8 -8q6 -128 14 -156t54 -60t120 -52q76 -20 168 -20zM906 1856l-210 -157l-200 -156l-15 -4
l-25 24l2 14l144 174q3 3 95 117l187 26l10 -7z" />
    <glyph glyph-name="sacute" unicode="&#x15b;" horiz-adv-x="868" 
d="M436 35q90 0 154 57t63 139q-1 81 -93 123q-46 20 -158 47q-112 25 -152 39q-41 14 -79 46q-78 66 -78 190q1 126 107 206t265 80q67 0 146 -18t120 -36l9 -14q-8 -40 -10 -210l-9 -9h-40l-9 9q-4 62 -11 86t-36 52t-82 48t-113 20t-102 -18q-92 -40 -92 -148t130 -138
l109 -28q141 -34 201 -59q126 -52 126 -194t-114 -241t-274 -99t-335 45l-5 13l10 67q6 40 8 195l9 9h43l9 -9q2 -84 10 -144q31 -47 107 -77t166 -29zM720 1467l-294 -374l-13 -4l-29 15l-3 13l153 349l156 29l13 -3z" />
    <glyph glyph-name="Scircumflex" unicode="&#x15c;" horiz-adv-x="1075" 
d="M500 56q92 0 176 39t131 115t47 155q0 80 -22 129q-22 48 -64 78q-40 30 -92 44t-154 32q-102 16 -158 29q-136 31 -212 116q-76 84 -76 224q0 187 130 307t342 119q212 0 383 -85l7 -12q-22 -92 -27 -262l-9 -8h-52l-8 7q-2 120 -6 151t-91 77t-181 46t-167 -34
q-74 -34 -112 -107q-38 -72 -38 -140t23 -114q24 -46 60 -72t84 -39t202 -35t234 -58t128 -112q48 -77 49 -186q1 -213 -173 -355t-401 -142t-383 74l-6 13q10 63 15 294l8 8h49l8 -8q6 -128 14 -156t54 -60t120 -52q76 -20 168 -20zM884 1550l-7 -11h-62l-264 234
l-264 -234h-62l-7 10l288 356h96z" />
    <glyph glyph-name="scircumflex" unicode="&#x15d;" horiz-adv-x="868" 
d="M436 35q90 0 154 57t63 139q-1 81 -93 123q-46 20 -158 47q-112 25 -152 39q-41 14 -79 46q-78 66 -78 190q1 126 107 206t265 80q67 0 146 -18t120 -36l9 -14q-8 -40 -10 -210l-9 -9h-40l-9 9q-4 62 -11 86t-36 52t-82 48t-113 20t-102 -18q-92 -40 -92 -148t130 -138
l109 -28q141 -34 201 -59q126 -52 126 -194t-114 -241t-274 -99t-335 45l-5 13l10 67q6 40 8 195l9 9h43l9 -9q2 -84 10 -144q31 -47 107 -77t166 -29zM761 1120l-7 -10h-58l-255 248l-255 -248h-58l-7 10l261 362h118z" />
    <glyph glyph-name="Scedilla" unicode="&#x15e;" horiz-adv-x="1075" 
d="M500 56q92 0 176 39t131 114.5t47 155.5t-22.5 129t-63 78.5t-92.5 44.5t-154 31t-198 38t-172 106.5t-76 224.5q0 187 130 306.5t342 119.5t383 -85l7 -12q-22 -92 -27 -262l-9 -8h-52l-8 7q-2 120 -6 151t-91 77t-181 46t-167.5 -34t-111.5 -106.5t-38 -142.5
t26.5 -119t73 -75t92.5 -36t188 -30t222.5 -55.5t129 -112.5t48.5 -186q0 -195 -148.5 -333t-374.5 -160l-47 -109q32 6 61 6q81 0 127.5 -39t46.5 -105t-61.5 -117.5t-170.5 -51.5t-193 29l-4 12l24 51l11 5q62 -22 121 -22t85.5 26t26.5 60t-27.5 55t-65.5 21t-70 -10
l-18 14l75 171q-212 4 -355 74l-6 13q10 63 15 294l8 8h49l8 -8q5 -128 13.5 -156.5t54 -60t121 -51.5t167.5 -20z" />
    <glyph glyph-name="scedilla" unicode="&#x15f;" horiz-adv-x="868" 
d="M436 35q90 0 153.5 57t63.5 139t-69.5 113t-181.5 57t-152.5 39.5t-98.5 62.5t-58 173q0 125 106.5 205.5t265.5 80.5q67 0 146 -18.5t120 -35.5l9 -14q-8 -40 -10 -210l-9 -9h-40l-9 9q-4 61 -11 85.5t-36 53t-82 48t-113 19.5t-127 -29t-67 -137t130 -138l109 -28
q140 -34 233.5 -72.5t93.5 -175.5t-100.5 -234t-268.5 -110l-47 -108q32 6 61 6q84 0 129.5 -40.5t45.5 -105.5t-62 -116t-172 -51t-191 29l-5 12l24 51l11 5q63 -22 121 -22t85 25.5t27 59.5t-28.5 55.5t-65.5 21.5t-69 -10l-18 14l79 173q-145 11 -279 45l-5 13l10 67
q6 40 8 195l9 9h43l9 -9q2 -84 10 -144q31 -47 107 -76.5t166 -29.5z" />
    <glyph glyph-name="Scaron" unicode="&#x160;" horiz-adv-x="1075" 
d="M500 56q92 0 176 39t131 115t47 155q0 80 -22 129q-22 48 -64 78q-40 30 -92 44t-154 32q-102 16 -158 29q-136 31 -212 116q-76 84 -76 224q0 187 130 307t342 119q212 0 383 -85l7 -12q-22 -92 -27 -262l-9 -8h-52l-8 7q-2 120 -6 151t-91 77t-181 46t-167 -34
q-74 -34 -112 -107q-38 -72 -38 -140t23 -114q24 -46 60 -72t84 -39t202 -35t234 -58t128 -112q48 -77 49 -186q1 -213 -173 -355t-401 -142t-383 74l-6 13q10 63 15 294l8 8h49l8 -8q6 -128 14 -156t54 -60t120 -52q76 -20 168 -20zM892 1894l-280 -355h-126l-286 355l6 11
h63l277 -253l274 253h65z" />
    <glyph glyph-name="scaron" unicode="&#x161;" horiz-adv-x="868" 
d="M436 35q90 0 154 57t63 139q-1 81 -93 123q-46 20 -158 47q-112 25 -152 39q-41 14 -79 46q-78 66 -78 190q1 126 107 206t265 80q67 0 146 -18t120 -36l9 -14q-8 -40 -10 -210l-9 -9h-40l-9 9q-4 62 -11 86t-36 52t-82 48t-113 20t-102 -18q-92 -40 -92 -148t130 -138
l109 -28q141 -34 201 -59q126 -52 126 -194t-114 -241t-274 -99t-335 45l-5 13l10 67q6 40 8 195l9 9h43l9 -9q2 -84 10 -144q31 -47 107 -77t166 -29zM751 1472l-261 -362h-128l-251 362l7 10h58l250 -246l250 246h68z" />
    <glyph glyph-name="uni0162" unicode="&#x162;" horiz-adv-x="1255" 
d="M918 1315h-189q-8 -226 -8 -261v-583l2 -195q2 -171 15 -186q14 -14 41 -22t134 -12l7 -6v-50l-7 -8q-256 8 -287 8t-284 -8l-8 8v50l8 6q144 6 160 21q16 14 23 45t7 138l2 211v583q0 16 -8 261h-149q-221 -1 -237 -25q-10 -16 -19 -107l-10 -92l-9 -9h-46l-8 8
q-2 241 -9 314l9 9q174 -8 583 -8t576 8l9 -9q-9 -90 -9 -314l-8 -8h-47l-8 9l-11 92q-9 75 -13 91t-14 24q-23 18 -188 17zM672 -391q0 32 -40 33q-134 5 -134 124q0 52 36 84t96 31q60 0 96 -45q37 -45 37 -120q0 -254 -258 -277l-8 41q175 28 175 129z" />
    <glyph glyph-name="uni0162" unicode="&#x21a;" horiz-adv-x="1255" 
d="M918 1315h-189q-8 -226 -8 -261v-583l2 -195q2 -171 15 -186q14 -14 41 -22t134 -12l7 -6v-50l-7 -8q-256 8 -287 8t-284 -8l-8 8v50l8 6q144 6 160 21q16 14 23 45t7 138l2 211v583q0 16 -8 261h-149q-221 -1 -237 -25q-10 -16 -19 -107l-10 -92l-9 -9h-46l-8 8
q-2 241 -9 314l9 9q174 -8 583 -8t576 8l9 -9q-9 -90 -9 -314l-8 -8h-47l-8 9l-11 92q-9 75 -13 91t-14 24q-23 18 -188 17zM672 -391q0 32 -40 33q-134 5 -134 124q0 52 36 84t96 31q60 0 96 -45q37 -45 37 -120q0 -254 -258 -277l-8 41q175 28 175 129z" />
    <glyph glyph-name="uni0163" unicode="&#x163;" horiz-adv-x="668" 
d="M199 781h-41q-45 0 -103 -4l-9 8v26l7 10q94 35 152 65q0 261 -6 304q103 36 169 77l24 -20q-10 -63 -24 -366q50 -1 138 -1t139 6l7 -7l-19 -84l-8 -9q-51 1 -110 1t-147 -1l-6 -407q0 -141 6 -185q14 -92 124 -92q67 0 124 35l24 -36q-24 -17 -115 -100
q-52 -24 -106 -24q-225 0 -225 218l5 171v415zM405 -358q0 29 -34 30q-121 4 -121 109q0 47 32 75t86 28q52 0 86 -40t34 -107q0 -227 -231 -248l-9 35q157 39 157 118z" />
    <glyph glyph-name="uni0163" unicode="&#x21b;" horiz-adv-x="668" 
d="M199 781h-41q-45 0 -103 -4l-9 8v26l7 10q94 35 152 65q0 261 -6 304q103 36 169 77l24 -20q-10 -63 -24 -366q50 -1 138 -1t139 6l7 -7l-19 -84l-8 -9q-51 1 -110 1t-147 -1l-6 -407q0 -141 6 -185q14 -92 124 -92q67 0 124 35l24 -36q-24 -17 -115 -100
q-52 -24 -106 -24q-225 0 -225 218l5 171v415zM405 -358q0 29 -34 30q-121 4 -121 109q0 47 32 75t86 28q52 0 86 -40t34 -107q0 -227 -231 -248l-9 35q157 39 157 118z" />
    <glyph glyph-name="Tcaron" unicode="&#x164;" horiz-adv-x="1255" 
d="M918 1315h-189q-8 -226 -8 -261v-583l2 -195q2 -171 15 -186q14 -14 41 -22t134 -12l7 -6v-50l-7 -8q-256 8 -287 8t-284 -8l-8 8v50l8 6q144 6 160 21q16 14 23 45t7 138l2 211v583q0 16 -8 261h-149q-221 -1 -237 -25q-10 -16 -19 -107l-10 -92l-9 -9h-46l-8 8
q-2 241 -9 314l9 9q174 -8 583 -8t576 8l9 -9q-9 -90 -9 -314l-8 -8h-47l-8 9l-11 92q-9 75 -13 91t-14 24q-23 18 -188 17zM982 1894l-280 -355h-126l-286 355l6 11h63l277 -253l274 253h65z" />
    <glyph glyph-name="tcaron" unicode="&#x165;" horiz-adv-x="754" 
d="M199 781h-41q-45 0 -103 -4l-9 8v26l7 10q94 35 152 65q0 261 -6 304q103 36 169 77l24 -20q-10 -63 -24 -366q50 -1 138 -1t139 6l7 -7l-19 -84l-8 -9q-51 1 -110 1t-147 -1l-6 -407q0 -141 6 -185q14 -92 124 -92q67 0 124 35l24 -36q-24 -17 -115 -100
q-52 -24 -106 -24q-225 0 -225 218l5 171v415zM665 1239q0 29 -34 30q-121 4 -121 109q0 46 32 74t86 29q52 -1 86 -41t34 -106q0 -227 -231 -248l-9 35q157 39 157 118z" />
    <glyph glyph-name="Tbar" unicode="&#x166;" horiz-adv-x="1255" 
d="M534 944v110q0 29 -8 261h-191q-124 0 -157 -7.5t-40.5 -23.5t-16.5 -101l-10 -92l-9 -9h-46l-8 8q-2 247 -9 314l9 9q148 -8 580 -8t579 8l9 -9q-9 -98 -9 -314l-8 -8h-47l-8 9l-11 92q-8 75 -12 91t-22.5 28.5t-179.5 12.5h-190q-8 -220 -8 -261v-110l215 2l203 3l7 -7
v-81l-7 -7q-285 5 -418 5v-388l2 -195q1 -169 15 -185t41 -23.5t134 -10.5l7 -7v-50l-7 -8q-248 8 -287 8t-284 -8l-7 8v50l7 7q144 5 167 26t23 177l2 211v388l-418 -5l-8 7v81l8 7q250 -5 418 -5z" />
    <glyph glyph-name="tbar" unicode="&#x167;" horiz-adv-x="668" 
d="M199 566h-41q-45 0 -103 -4l-9 8v27l7 9q92 35 146 62v113h-41q-45 0 -103 -4l-9 8v26l7 10q94 35 152 65q0 261 -6 304q103 36 169 77l24 -20q-10 -63 -24 -366q50 -1 138 -1t139 6l7 -7l-19 -84l-8 -9q-51 1 -110 1t-147 -1l-2 -120q56 -1 137 -1t142 6l7 -6l-19 -85
l-8 -9q-51 2 -97 2t-163 -2l-3 -192q0 -142 10 -209.5t120 -67.5q67 0 124 35l24 -36q-24 -17 -115 -100q-52 -24 -106 -24q-225 0 -225 218l5 171v200z" />
    <glyph glyph-name="Utilde" unicode="&#x168;" horiz-adv-x="1593" 
d="M322 1405q36 0 289 8l8 -7v-50l-8 -7q-135 -4 -156 -18q-21 -15 -27 -55t-6 -112l-2 -230v-318q0 -156 6 -230q13 -144 103 -219t303 -75q110 0 206 30t145 89t65 153t16 262v308q0 340 -12 366t-38 36t-141 13l-8 8v47l8 9q149 -8 231 -8t242 8l9 -8v-48l-9 -8
q-141 -3 -157 -19q-17 -16 -23 -39t-7 -132l-3 -225v-304q0 -182 -14 -287q-24 -181 -170 -280q-146 -100 -410 -100t-401 113q-62 52 -89 108t-35 132t-8 234v384l-2 195q-1 170 -15 186t-41 23t-133 11l-8 7v50l8 7q248 -8 284 -8zM957 1603q-72 -1 -173 49t-137 50
q-89 0 -123 -99h-45l-7 8q18 88 80 153t133 65q71 1 171 -49t141 -50q81 0 121 99h45l7 -7q-19 -88 -80 -154t-133 -65z" />
    <glyph glyph-name="utilde" unicode="&#x169;" horiz-adv-x="1235" 
d="M354 607v-233q0 -128 20 -178q40 -103 185 -103t229 109q40 52 47 70q6 18 8 101l3 112v108q0 127 -10 194q-2 15 -16 23q-13 8 -52 8l-84 1l-9 8v43l8 8q191 23 322 75l19 -13q-11 -131 -11 -333v-176q0 -315 12 -341t27 -34t89 -7h28l9 -8v-40l-8 -9q-142 8 -196 8
t-134 -7l-9 8q6 102 9 173q-63 -48 -140 -126t-207 -78q-131 0 -193 36t-88 98t-26 215l1 79v195q-1 127 -11 194q-2 15 -15 23t-52 8l-84 1l-9 8v43l8 8q191 23 322 75l19 -13q-11 -131 -11 -333zM738 1170q-70 0 -170 51t-141 51q-78 0 -117 -101h-50l-6 7q18 87 79 151
t130 64t171 -51t143 -51q75 0 114 106h52l6 -7q-21 -92 -81 -156t-130 -64z" />
    <glyph glyph-name="Umacron" unicode="&#x16a;" horiz-adv-x="1593" 
d="M322 1405q36 0 289 8l8 -7v-50l-8 -7q-135 -4 -156 -18q-21 -15 -27 -55t-6 -112l-2 -230v-318q0 -156 6 -230q13 -144 103 -219t303 -75q110 0 206 30t145 89t65 153t16 262v308q0 340 -12 366t-38 36t-141 13l-8 8v47l8 9q149 -8 231 -8t242 8l9 -8v-48l-9 -8
q-141 -3 -157 -19q-17 -16 -23 -39t-7 -132l-3 -225v-304q0 -182 -14 -287q-24 -181 -170 -280q-146 -100 -410 -100t-401 113q-62 52 -89 108t-35 132t-8 234v384l-2 195q-1 170 -15 186t-41 23t-133 11l-8 7v50l8 7q248 -8 284 -8zM1145 1665h-648v102h648v-102z" />
    <glyph glyph-name="umacron" unicode="&#x16b;" horiz-adv-x="1235" 
d="M354 607v-233q0 -128 20 -178q40 -103 185 -103t229 109q40 52 47 70q6 18 8 101l3 112v108q0 127 -10 194q-2 15 -16 23q-13 8 -52 8l-84 1l-9 8v43l8 8q191 23 322 75l19 -13q-11 -131 -11 -333v-176q0 -315 12 -341t27 -34t89 -7h28l9 -8v-40l-8 -9q-142 8 -196 8
t-134 -7l-9 8q6 102 9 173q-63 -48 -140 -126t-207 -78q-131 0 -193 36t-88 98t-26 215l1 79v195q-1 127 -11 194q-2 15 -15 23t-52 8l-84 1l-9 8v43l8 8q191 23 322 75l19 -13q-11 -131 -11 -333zM906 1215h-630v105h630v-105z" />
    <glyph glyph-name="Ubreve" unicode="&#x16c;" horiz-adv-x="1593" 
d="M322 1405q36 0 289 8l8 -7v-50l-8 -7q-135 -4 -156 -18q-21 -15 -27 -55t-6 -112l-2 -230v-318q0 -156 6 -230q13 -144 103 -219t303 -75q110 0 206 30t145 89t65 153t16 262v308q0 340 -12 366t-38 36t-141 13l-8 8v47l8 9q149 -8 231 -8t242 8l9 -8v-48l-9 -8
q-141 -3 -157 -19q-17 -16 -23 -39t-7 -132l-3 -225v-304q0 -182 -14 -287q-24 -181 -170 -280q-146 -100 -410 -100t-401 113q-62 52 -89 108t-35 132t-8 234v384l-2 195q-1 170 -15 186t-41 23t-133 11l-8 7v50l8 7q248 -8 284 -8zM824 1555q-160 0 -243 112
q-63 86 -63 204l5 7h53q39 -193 246 -193t244 193h53l5 -7q0 -109 -60 -197q-80 -119 -240 -119z" />
    <glyph glyph-name="ubreve" unicode="&#x16d;" horiz-adv-x="1235" 
d="M354 607v-233q0 -128 20 -178q40 -103 185 -103t229 109q40 52 47 70q6 18 8 101l3 112v108q0 127 -10 194q-2 15 -16 23q-13 8 -52 8l-84 1l-9 8v43l8 8q191 23 322 75l19 -13q-11 -131 -11 -333v-176q0 -315 12 -341t27 -34t89 -7h28l9 -8v-40l-8 -9q-142 8 -196 8
t-134 -7l-9 8q6 102 9 173q-63 -48 -140 -126t-207 -78q-131 0 -193 36t-88 98t-26 215l1 79v195q-1 127 -11 194q-2 15 -15 23t-52 8l-84 1l-9 8v43l8 8q191 23 322 75l19 -13q-11 -131 -11 -333zM591 1094q-169 0 -243 152q-36 74 -41 178l8 8h54q15 -92 75 -152t147 -60
t147 60t75 152h54l8 -8q-7 -150 -81 -240t-203 -90z" />
    <glyph glyph-name="Uring" unicode="&#x16e;" horiz-adv-x="1593" 
d="M322 1405q36 0 289 8l8 -7v-50l-8 -7q-135 -4 -156 -18q-21 -15 -27 -55t-6 -112l-2 -230v-318q0 -156 6 -230q13 -144 103 -219t303 -75q110 0 206 30t145 89t65 153t16 262v308q0 340 -12 366t-38 36t-141 13l-8 8v47l8 9q149 -8 231 -8t242 8l9 -8v-48l-9 -8
q-141 -3 -157 -19q-17 -16 -23 -39t-7 -132l-3 -225v-304q0 -182 -14 -287q-24 -181 -170 -280q-146 -100 -410 -100t-401 113q-62 52 -89 108t-35 132t-8 234v384l-2 195q-1 170 -15 186t-41 23t-133 11l-8 7v50l8 7q248 -8 284 -8zM952 1717q0 59 -34 105t-87 46t-87 -46
t-34 -102q0 -58 32 -106t87 -48t89 46t34 105zM1039 1731q1 -71 -27 -115q-60 -96 -182 -95q-121 -1 -180 95q-27 44 -27 114t60 127q60 56 148 56q88 1 148 -55t60 -127z" />
    <glyph glyph-name="uring" unicode="&#x16f;" horiz-adv-x="1235" 
d="M354 607v-233q0 -128 20 -178q40 -103 185 -103t229 109q40 52 47 70q6 18 8 101l3 112v108q0 127 -10 194q-2 15 -16 23q-13 8 -52 8l-84 1l-9 8v43l8 8q191 23 322 75l19 -13q-11 -131 -11 -333v-176q0 -315 12 -341t27 -34t89 -7h28l9 -8v-40l-8 -9q-142 8 -196 8
t-134 -7l-9 8q6 102 9 173q-63 -48 -140 -126t-207 -78q-131 0 -193 36t-88 98t-26 215l1 79v195q-1 127 -11 194q-2 15 -15 23t-52 8l-84 1l-9 8v43l8 8q191 23 322 75l19 -13q-11 -131 -11 -333zM707 1281q0 54 -30 98q-29 44 -85 44t-86 -43t-31 -100q1 -57 33 -98
t85 -41t83 43t31 97zM791 1268q1 -66 -59 -119t-130 -53t-114 26q-96 54 -97 160q0 78 59 132t129 54t116 -26t71 -68q25 -40 25 -106z" />
    <glyph glyph-name="Uhungarumlaut" unicode="&#x170;" horiz-adv-x="1593" 
d="M322 1405q36 0 289 8l8 -7v-50l-8 -7q-135 -4 -156 -18q-21 -15 -27 -55t-6 -112l-2 -230v-318q0 -156 6 -230q13 -144 103 -219t303 -75q110 0 206 30t145 89t65 153t16 262v308q0 340 -12 366t-38 36t-141 13l-8 8v47l8 9q149 -8 231 -8t242 8l9 -8v-48l-9 -8
q-141 -3 -157 -19q-17 -16 -23 -39t-7 -132l-3 -225v-304q0 -182 -14 -287q-24 -181 -170 -280q-146 -100 -410 -100t-401 113q-62 52 -89 108t-35 132t-8 234v384l-2 195q-1 170 -15 186t-41 23t-133 11l-8 7v50l8 7q248 -8 284 -8zM975 1860l-408 -318l-13 -3l-24 23l2 13
l241 293l180 26l10 -7zM1334 1860l-408 -318l-13 -3l-24 23l2 13l241 293l180 26l10 -7z" />
    <glyph glyph-name="uhungarumlaut" unicode="&#x171;" horiz-adv-x="1235" 
d="M354 607v-233q0 -128 20 -178q40 -103 185 -103t229 109q40 52 47 70q6 18 8 101l3 112v108q0 127 -10 194q-2 15 -16 23q-13 8 -52 8l-84 1l-9 8v43l8 8q191 23 322 75l19 -13q-11 -131 -11 -333v-176q0 -315 12 -341t27 -34t89 -7h28l9 -8v-40l-8 -9q-142 8 -196 8
t-134 -7l-9 8q6 102 9 173q-63 -48 -140 -126t-207 -78q-131 0 -193 36t-88 98t-26 215l1 79v195q-1 127 -11 194q-2 15 -15 23t-52 8l-84 1l-9 8v43l8 8q191 23 322 75l19 -13q-11 -131 -11 -333zM691 1474l-291 -381l-10 -4l-29 16l-4 10l153 351l154 29l10 -4zM1005 1474
l-291 -381l-10 -4l-29 16l-4 10l153 351l154 29l10 -4z" />
    <glyph glyph-name="Uogonek" unicode="&#x172;" horiz-adv-x="1593" 
d="M1356 630q0 -179 -15 -280.5t-50.5 -162.5t-90.5 -102.5t-177 -94.5q-168 -73 -168 -183q0 -43 28 -72.5t75 -29.5q81 0 181 74l13 -1l22 -29v-14q-146 -130 -275 -130q-71 0 -119 44.5t-48 122.5q0 110 129 195q-44 -4 -85 -4q-315 0 -413.5 107.5t-116 189.5t-17.5 290
v384q0 278 -4.5 319t-10.5 55.5t-33.5 25.5t-142.5 15l-8 7v50l8 7l286 -8q34 0 287 8l8 -7v-50l-8 -7q-140 -3 -165 -22.5t-25 -163.5v-111l-1 -118v-318q0 -261 31 -344t126 -131.5t247 -48.5t244 38.5t132 103.5t52 148.5t12 243.5v308q0 274 -6.5 324.5t-16 61t-27 17
t-30.5 8.5t-111 4l-8 8v47l8 9q149 -8 231 -8t242 8l9 -8v-48l-9 -8q-132 0 -158.5 -19.5t-28.5 -170.5l-3 -225v-304z" />
    <glyph glyph-name="uogonek" unicode="&#x173;" horiz-adv-x="1235" 
d="M879 -190q0 -42 29 -73.5t73 -31.5q80 0 179 85l15 -1l27 -37v-14q-101 -89 -163.5 -113.5t-124.5 -24.5t-110 49t-48 115t39 118.5t129 116.5l-84 -6l-9 8q6 102 9 173q-63 -48 -140 -126t-207 -78t-192.5 35.5t-88.5 98t-26 215.5l1 79v195q0 127 -6.5 168.5t-19.5 49
t-52 7.5l-84 1l-9 8v43l8 8q191 23 322 75l19 -13q-11 -131 -11 -333v-233q0 -128 30 -204.5t175 -76.5t207.5 80.5t68.5 98.5t8 101l3 112v108q0 127 -6.5 168.5t-19.5 49t-52 7.5l-84 1l-9 8v43l8 8q191 23 322 75l19 -13q-11 -131 -11 -333v-176q0 -315 12 -341t27 -33.5
t89 -7.5h28l9 -8v-40l-8 -9l-159 8q-76 -69 -104 -108.5t-28 -81.5z" />
    <glyph glyph-name="Wcircumflex" unicode="&#x174;" horiz-adv-x="2048" 
d="M272 1405q97 0 256 8l9 -9v-44l-8 -8q-111 -4 -133 -11t-23 -31q0 -24 20 -134q20 -112 36 -182l157 -693l247 615q97 244 191 511h64q80 -251 165 -487l235 -652l170 597q102 369 102 424q0 27 -25 33t-144 10l-8 9v44l8 8q169 -8 203 -8t210 8l8 -8v-45l-8 -7
q-57 -3 -76 -11t-33 -26t-40 -102l-161 -523q-22 -73 -81 -296l-111 -414h-102q-104 310 -172 496l-228 617l-199 -494l-107 -280q-42 -111 -67 -181l-55 -158h-101l-91 417l-193 823q-23 97 -48 109t-108 22l-8 8v44l8 9q144 -8 241 -8zM1384 1550l-7 -11h-62l-264 234
l-264 -234h-62l-7 10l288 356h96z" />
    <glyph glyph-name="wcircumflex" unicode="&#x175;" horiz-adv-x="1708" 
d="M267 925q157 0 239 7l9 -9v-41l-7 -8q-110 -1 -130 -12t-20 -34t29 -123l93 -322q22 -75 56 -175q27 65 76 174l147 329q53 117 98 236h49l90 -242l204 -510l75 197q137 356 137 427q0 32 -22 42t-118 13l-9 8v42l9 8q116 -7 206 -7t177 7l8 -8v-41l-8 -9q-53 -2 -73 -12
q-40 -21 -119 -205l-144 -347l-71 -186q-33 -87 -48 -143h-94l-276 698l-207 -455l-98 -243h-96l-135 448q-83 276 -108 338q-24 63 -37 76t-28 18t-85 13l-7 8v41l9 9q72 -7 229 -7zM1191 1120l-7 -10h-58l-255 248l-255 -248h-58l-7 10l261 362h118z" />
    <glyph glyph-name="Ycircumflex" unicode="&#x176;" horiz-adv-x="1366" 
d="M1243 1409q30 0 77 4l8 -8v-19q-50 -56 -155 -200t-157 -226t-126 -204q-75 -124 -82 -149t-7 -59v-147l1 -150q2 -145 22 -167q10 -10 36 -17t132 -11l8 -6v-50l-8 -8l-287 8q-32 0 -286 -8l-8 8v50l8 6q144 6 160 21q16 13 22 41t7 113l2 171v190q-22 54 -147 259
l-88 143q-184 298 -258 320q-19 6 -102 5l-9 9v42l9 9l283 47q30 -21 58 -53t121 -180q92 -148 268 -497l102 162l327 555q39 -4 69 -4zM1064 1550l-7 -11h-62l-264 234l-264 -234h-62l-7 10l288 356h96z" />
    <glyph glyph-name="ycircumflex" unicode="&#x177;" horiz-adv-x="1139" 
d="M233 -442q65 0 117 70t148 312q-38 107 -77 202l-159 394q-113 276 -128 294q-14 17 -29 27t-81 19l-8 8v40l9 8q115 -7 247 -7t208 7l8 -8v-40l-7 -8q-11 0 -61 -4t-64 -16q-12 -12 -12 -30q0 -16 31 -110t60 -165l63 -156q62 -154 96 -227l53 117q28 64 80 194l83 212
q41 105 41 129t-16 32t-71 14l-42 6l-7 8v44l8 8q84 -7 194 -7t173 7l8 -8v-44l-8 -8q-66 -2 -101 -42t-176 -350l-98 -215l-231 -540q-30 -70 -74 -150q-84 -151 -246 -151q-63 0 -119 33q34 84 51 154h24q49 -53 113 -53zM911 1120l-7 -10h-58l-255 248l-255 -248h-58
l-7 10l261 362h118z" />
    <glyph glyph-name="Ydieresis" unicode="&#x178;" horiz-adv-x="1366" 
d="M1243 1409q30 0 77 4l8 -8v-19q-50 -56 -155 -200t-157 -226t-126 -204q-75 -124 -82 -149t-7 -59v-147l1 -150q2 -145 22 -167q10 -10 36 -17t132 -11l8 -6v-50l-8 -8l-287 8q-32 0 -286 -8l-8 8v50l8 6q144 6 160 21q16 13 22 41t7 113l2 171v190q-22 54 -147 259
l-88 143q-184 298 -258 320q-19 6 -102 5l-9 9v42l9 9l283 47q30 -21 58 -53t121 -180q92 -148 268 -497l102 162l327 555q39 -4 69 -4zM475 1604q-47 0 -80 32t-33 80q0 47 33 80t80 33t79 -33t33 -80q-1 -48 -33 -80t-79 -32zM968 1604q-47 0 -80 32t-33 80q0 47 33 80
t80 33q48 0 80 -33t32 -80q0 -48 -32 -80t-80 -32z" />
    <glyph glyph-name="Zacute" unicode="&#x179;" horiz-adv-x="1366" 
d="M168 1250q0 84 -5 154l9 9q357 -8 546 -8t573 8l9 -9v-51q-110 -130 -154 -186l-833 -1073l405 -7q416 -1 460 35q14 12 19 24t16 68l22 134l9 8h47l8 -8q-7 -64 -14 -348l-9 -8q-422 8 -630 8t-601 -8l-9 9v48l241 298l571 735q130 166 175 238h-41l-161 1
q-533 1 -563 -39q-10 -12 -16 -60l-14 -132l-9 -9h-47l-9 9q5 76 5 160zM1096 1856l-210 -157l-200 -156l-15 -4l-25 24l2 14l144 174q3 3 95 117l187 26l10 -7z" />
    <glyph glyph-name="zacute" unicode="&#x17a;" 
d="M462 857q-221 -1 -241 -21q-11 -12 -30 -130l-6 -32l-8 -8h-40l-9 9q10 159 10 183t-2 68l8 7q372 -8 542 -8t237 8l8 -8v-48q-69 -76 -215 -262l-262 -333q-116 -147 -163 -213h70l200 3q110 1 185 9q76 7 88 13t15 10t17 63q14 58 23 108l9 8h45l9 -9
q-24 -178 -27 -274l-8 -8q-300 9 -446 9t-417 -9l-9 8l-9 38q129 137 247 285l221 274q104 126 194 260h-236zM820 1467l-294 -374l-13 -4l-29 15l-3 13l153 349l156 29l13 -3z" />
    <glyph glyph-name="Zdotaccent" unicode="&#x17b;" horiz-adv-x="1366" 
d="M168 1250q0 84 -5 154l9 9q357 -8 546 -8t573 8l9 -9v-51q-110 -130 -154 -186l-833 -1073l405 -7q416 -1 460 35q14 12 19 24t16 68l22 134l9 8h47l8 -8q-7 -64 -14 -348l-9 -8q-422 8 -630 8t-601 -8l-9 9v48l241 298l571 735q130 166 175 238h-41l-161 1
q-533 1 -563 -39q-10 -12 -16 -60l-14 -132l-9 -9h-47l-9 9q5 76 5 160zM732 1604q-47 0 -80 32t-33 80q0 47 33 80t80 33q48 0 80 -33t32 -80q0 -48 -32 -80t-80 -32z" />
    <glyph glyph-name="zdotaccent" unicode="&#x17c;" 
d="M462 857q-221 -1 -241 -21q-11 -12 -30 -130l-6 -32l-8 -8h-40l-9 9q10 159 10 183t-2 68l8 7q372 -8 542 -8t237 8l8 -8v-48q-69 -76 -215 -262l-262 -333q-116 -147 -163 -213h70l200 3q110 1 185 9q76 7 88 13t15 10t17 63q14 58 23 108l9 8h45l9 -9
q-24 -178 -27 -274l-8 -8q-300 9 -446 9t-417 -9l-9 8l-9 38q129 137 247 285l221 274q104 126 194 260h-236zM520 1163q-46 0 -78 32t-32 78q0 47 32 79t79 32t79 -32t31 -79q-1 -46 -33 -78t-78 -32z" />
    <glyph glyph-name="Zcaron" unicode="&#x17d;" horiz-adv-x="1366" 
d="M168 1250q0 84 -5 154l9 9q357 -8 546 -8t573 8l9 -9v-51q-110 -130 -154 -186l-833 -1073l405 -7q416 -1 460 35q14 12 19 24t16 68l22 134l9 8h47l8 -8q-7 -64 -14 -348l-9 -8q-422 8 -630 8t-601 -8l-9 9v48l241 298l571 735q130 166 175 238h-41l-161 1
q-533 1 -563 -39q-10 -12 -16 -60l-14 -132l-9 -9h-47l-9 9q5 76 5 160zM1092 1894l-280 -355h-126l-286 355l6 11h63l277 -253l274 253h65z" />
    <glyph glyph-name="zcaron" unicode="&#x17e;" 
d="M462 857q-221 -1 -241 -21q-11 -12 -30 -130l-6 -32l-8 -8h-40l-9 9q10 159 10 183t-2 68l8 7q372 -8 542 -8t237 8l8 -8v-48q-69 -76 -215 -262l-262 -333q-116 -147 -163 -213h70l200 3q110 1 185 9q76 7 88 13t15 10t17 63q14 58 23 108l9 8h45l9 -9
q-24 -178 -27 -274l-8 -8q-300 9 -446 9t-417 -9l-9 8l-9 38q129 137 247 285l221 274q104 126 194 260h-236zM841 1472l-261 -362h-128l-251 362l7 10h58l250 -246l250 246h68z" />
    <glyph glyph-name="longs" unicode="&#x17f;" horiz-adv-x="682" 
d="M214 396v323q0 48 -5 55t-36 7h-88l-9 8v25l7 10l90 43q25 12 33 20t9 98q1 91 14.5 140t44.5 94.5t93 109.5t112 108.5t130 44.5q40 0 82 -15l-1 -164l-23 -9q-56 50 -122 50t-102 -24t-49 -70t-13 -158v-711q0 -273 22 -304q7 -11 25 -17t148 -9l8 -8v-42l-8 -9l-278 8
q-108 0 -241 -8l-8 9v42l8 8q97 6 110 9t22 12.5t12.5 29t8 129t4.5 165.5z" />
    <glyph glyph-name="uni018F" unicode="&#x18f;" horiz-adv-x="1598" 
d="M1151 211.5q127 161.5 140 441.5l-7 11h-958l-15 -11q0 -177 69 -390t417 -213q227 0 354 161.5zM1297 814q0 261 -133.5 404t-398.5 143q-150 0 -267 -80t-232 -264l-43 23l75 240q206 162 464 162q350 0 548.5 -179t198.5 -508q0 -369 -196 -580.5t-531 -211.5
t-468.5 137.5t-176.5 266t-43 358.5l23 17h1171l9 10v62z" />
    <glyph glyph-name="uni018F" unicode="&#x4d8;" horiz-adv-x="1598" 
d="M1151 211.5q127 161.5 140 441.5l-7 11h-958l-15 -11q0 -177 69 -390t417 -213q227 0 354 161.5zM1297 814q0 261 -133.5 404t-398.5 143q-150 0 -267 -80t-232 -264l-43 23l75 240q206 162 464 162q350 0 548.5 -179t198.5 -508q0 -369 -196 -580.5t-531 -211.5
t-468.5 137.5t-176.5 266t-43 358.5l23 17h1171l9 10v62z" />
    <glyph glyph-name="florin" unicode="&#x192;" 
d="M-48 -578q-38 0 -53 4l-5 13q27 67 38 114l15 11q41 -15 93 -15t100 32t76.5 83.5t43 133.5t35.5 262l80 664h-90q-52 0 -135 -5l-15 9v67l15 11q72 -4 147 -4h87q16 123 27.5 186t33 104t78.5 100t133.5 115.5t128 75.5t111.5 19t116 -21l7 -15q-29 -82 -39 -133h-18
q-73 58 -139 58t-124 -40t-86.5 -142t-50.5 -307h102q77 0 196 4l16 -11v-64l-16 -12q-120 5 -193 5h-114l-89 -648q-25 -178 -46.5 -250t-76 -141.5t-135.5 -136t-148.5 -96.5t-105.5 -30z" />
    <glyph glyph-name="Ohorn" unicode="&#x1a0;" horiz-adv-x="1638" 
d="M788 1356q-263 0 -397.5 -158t-134.5 -450t156 -493.5t411 -201.5t391.5 168t136.5 468t-150 483.5t-413 183.5zM1562 749q0 -349 -221 -567.5t-557 -218.5t-536 201t-200 531.5t211.5 538t557.5 207.5q418 0 635 -289q83 36 83 130t-114 124l-4 13l18 56l10 9
q173 -25 173 -192q0 -53 -39.5 -104t-100.5 -79q84 -149 84 -360z" />
    <glyph glyph-name="ohorn" unicode="&#x1a1;" horiz-adv-x="1180" 
d="M572 32q284 0 285 398q0 194 -84 328t-229 134q-287 0 -287 -386q0 -192 85.5 -333t229.5 -141zM1049 486q0 -224 -146 -374.5t-370 -150.5q-134 0 -236.5 64.5t-165.5 176.5t-63 256q0 219 142 360t366 141q153 0 270.5 -75t168.5 -205q71 40 71 122t-102 112l-4 13
l18 53l10 9q68 -12 110 -62t42 -111t-35.5 -112t-91.5 -80q16 -59 16 -137z" />
    <glyph glyph-name="Uhorn" unicode="&#x1af;" horiz-adv-x="1694" 
d="M323 1405q35 0 288 8l8 -7v-50l-8 -7q-135 -2 -161.5 -21t-27.5 -164l-2 -230v-318q0 -252 29 -340q61 -184 384.5 -184t395.5 200q35 96 35 334v308q0 332 -10 359t-29 37.5t-44 14t-108 4.5l-8 8v47l8 9q148 -8 237 -8q189 0 246 35.5t57 97.5q0 89 -116 120l-4 13
l18 55l10 9q81 -11 127 -63t46 -114.5t-24.5 -100.5t-71.5 -62t-126.5 -40.5t-92.5 -30.5t-18 -62.5t-5 -631.5q0 -251 -26 -347t-94 -166q-148 -154 -458 -154q-370 -1 -488 189q-40 64 -50.5 142t-10.5 256l-2 579q-1 156 -15.5 185t-173.5 35l-8 7v50l8 7q250 -8 285 -8z
" />
    <glyph glyph-name="uhorn" unicode="&#x1b0;" horiz-adv-x="1312" 
d="M1013 431q0 -18 3 -134l3 -154q1 -73 33 -87q16 -8 89 -7h28l9 -8v-40l-8 -9l-90 5q-56 3 -108 3t-132 -7l-9 8l9 173q-62 -48 -139 -126t-212 -78t-201.5 44t-84 113.5t-17.5 191.5v274l-3 131q-3 63 -13.5 78.5t-60.5 15.5l-84 1l-9 8v43l8 8q191 23 322 75l19 -13
q-11 -131 -11 -333v-233q0 -98 8 -140q29 -141 187.5 -141t242.5 114q42 56 45.5 77.5t5.5 88.5l3 112v108q0 156 -7 183t-23.5 34.5t-47.5 7.5l-84 1l-9 8v43l8 8q191 23 322 75l20 -14q-6 -100 -12 -295q100 4 149.5 45t49.5 99q0 92 -96 123l-4 13l18 55l10 9
q152 -36 152 -187q0 -72 -72 -140t-207 -76v-154z" />
    <glyph glyph-name="uni01B7" unicode="&#x1b7;" horiz-adv-x="1175" 
d="M743 819q129 0 218.5 -82.5t89.5 -204.5t-77 -257t-216.5 -223.5t-315.5 -88.5q-63 0 -146 22t-102 39q-25 149 -65 292l4 13l37 16l14 -7q56 -157 133 -218.5t217 -61.5t223 99.5t83 259.5q0 286 -270 286q-30 0 -87 -8l-17 47l200 239q53 63 190 238l-5 10h-420
q-73 0 -95 -11.5t-38.5 -43t-46.5 -116.5l-10 -10h-45l-8 11l104 366q216 -20 356 -20t401 11l11 -38q-196 -253 -467 -581q62 22 150 22z" />
    <glyph glyph-name="uni01F4" unicode="&#x1f4;" horiz-adv-x="1563" 
d="M1412 262q0 -82 11 -184l-6 -10q-273 -105 -529 -105t-435 84t-284 249t-105 392q0 346 236 550t618 204q280 0 503 -95l7 -11q-18 -67 -42 -281l-8 -7h-46l-8 8l-5 106q-3 52 -7 61q-10 25 -133 78q-124 52 -299 52t-316 -76q-140 -75 -212 -221t-72 -327t77 -339
t221 -248q144 -89 337 -89t310 63q9 32 9 129v111q0 78 -10 98t-50 28t-170 10l-9 9v44l9 9l61 -2q157 -5 235 -5t188 6l10 -8v-30l-4 -12l-49 -29q-18 -11 -21 -17q-4 -5 -8 -59t-4 -136zM1221 1856l-210 -157l-200 -156l-15 -4l-25 24l2 14l144 174q3 3 95 117l187 26
l10 -7z" />
    <glyph glyph-name="uni01F5" unicode="&#x1f5;" horiz-adv-x="1139" 
d="M570 -19q-148 0 -172 -4t-70 -34q-46 -29 -74 -81t-28 -116q0 -113 84 -184t206 -71t212 44t132 118t42 142q0 69 -36 117t-92 58t-204 11zM290 652q0 -61 24 -131t78 -106t131 -36q79 0 143 58q64 57 64 171t-59 197t-159 83t-160 -60q-62 -60 -62 -176zM902 664
q0 -66 -32 -133t-91 -114q-127 -103 -299 -103h-46q-59 -47 -76 -70t-17 -57q1 -34 41 -52t167 -18l224 3q107 0 163 -25t91 -89t35 -156q0 -90 -72 -200t-206 -167q-135 -57 -255 -57q-121 0 -197 19t-134 57t-92 101q-35 62 -35 114q0 100 53 180l181 101q-87 28 -109 54
t-23 64q0 38 25 89l161 116q-141 37 -191 111t-50 158t35 158t105 118t158 70t160 25q125 0 238 -81q181 0 289 4l8 -18q-41 -63 -51 -82h-186q28 -54 28 -120zM820 1467l-294 -374l-13 -4l-29 15l-3 13l153 349l156 29l13 -3z" />
    <glyph glyph-name="Aringacute" unicode="&#x1fa;" horiz-adv-x="1593" 
d="M1006 553l-251 603l-255 -603h506zM1182 104q0 23 -14 58l-123 305h-579l-109 -256q-29 -67 -29 -93t17 -38t41 -15.5t105 -4.5l9 -8v-52l-8 -8q-128 8 -232 8t-216 -8l-9 8v52l9 8q107 0 130 31.5t67 127.5l106 230l272 616q14 31 153 362h65l484 -1138
q75 -177 102.5 -202.5t113.5 -26.5l8 -8v-52l-8 -8q-56 8 -161 8t-362 -8l-8 8v52l8 8l80 2q88 0 88 42zM810 1772q-48 0 -77.5 -39t-29.5 -93t30 -95t77 -41t76.5 40t29.5 94t-29 94t-77 40zM808 1461q-78 0 -133.5 51.5t-55.5 127.5t56.5 125.5t134.5 49.5t133.5 -51
t55.5 -125t-56.5 -126t-134.5 -52zM1188 2115q-137 -100 -357 -269l-13 -2l-36 30l1 14l213 235l12 5l155 22l14 -7z" />
    <glyph glyph-name="aringacute" unicode="&#x1fb;" 
d="M258 252q0 -156 155 -156q133 0 263 154v270q-280 -47 -349 -101t-69 -167zM511 954q115 0 191 -43q144 -81 144 -258l-5 -201v-298q1 -61 9 -74q8 -14 19 -18t41 -7l57 -5l8 -9v-40l-8 -8q-73 6 -135 6t-145 -6l-15 14l4 161l-218 -170q-56 -23 -128 -23t-130 29
q-118 60 -118 207t92 229t502 141q0 149 -66 209t-177 60q-57 0 -105 -17t-55 -27t-54 -123l-7 -5l-39 10l-8 10v124q178 132 346 132zM607 1281q0 54 -30 98q-29 44 -85 44t-86 -43t-31 -100q1 -57 33 -98t85 -41t83 43t31 97zM691 1268q1 -66 -59 -119t-130 -53t-114 26
q-96 54 -97 160q0 78 59 132t129 54t116 -26t71 -68q25 -40 25 -106zM752 1897l-294 -374l-13 -4l-29 15l-3 13l153 349l156 29l13 -3z" />
    <glyph glyph-name="AEacute" unicode="&#x1fc;" horiz-adv-x="1933" 
d="M516 578h448l4 454q0 117 -4 300h-25q-19 -29 -45 -74zM1222 1404q168 0 556 9l9 -9q-1 -9 -14 -84t-22 -216l-9 -9h-46l-9 8q-1 111 -12 180q-129 42 -332 42q-68 0 -187 -8q-11 -131 -11 -243v-304q86 -6 177 -6q195 0 214 16t27 80q7 65 9 76l9 8h48l9 -7
q-7 -117 -7 -205t7 -241l-8 -8h-49l-9 8l-7 95q-4 44 -11 56t-21 20t-88 13q-88 7 -300 0v-358q0 -114 4 -229h186q207 0 269 4t126 30q15 40 50 208l9 8h49l8 -8q-16 -138 -18 -180t-9 -149l-10 -9q-419 8 -633 8t-316 -8l-8 8v32l6 9q58 25 88 49q9 42 12 140l6 187v77
q-103 6 -254 6t-242 -6q-37 -60 -112 -201t-75 -173q-1 -31 35 -44t135 -16l9 -8v-53l-8 -7q-122 8 -223 8t-221 -8l-8 7v54l9 7q56 0 80 11q45 21 101 134l536 944q78 137 78 160q0 24 -22 29t-169 15l-9 9v44l8 7q442 -9 610 -9zM1603 1856l-210 -157l-200 -156l-15 -4
l-25 24l2 14l144 174q3 3 95 117l187 26l10 -7z" />
    <glyph glyph-name="aeacute" unicode="&#x1fd;" horiz-adv-x="1552" 
d="M223 246q0 -50 41 -98q41 -50 124 -50q84 0 152 46t103 99v237q-112 -4 -202 -28q-91 -25 -127 -41q-36 -15 -51 -31t-27 -50t-13 -84zM1072 545q195 0 225 5q1 24 1 37q0 151 -62 229t-176 77q-116 0 -182 -85t-67 -252q66 -11 261 -11zM1149 73q132 0 287 91l16 -17
l-32 -72q-166 -107 -316 -107q-303 0 -424 217q-165 -144 -233 -194q-69 -21 -136 -21q-131 0 -199 74t-67 174q0 101 71 181q32 37 68 55t156 50q121 32 303 42q0 302 -236 302q-86 0 -177 -43q-15 -26 -28 -61l-23 -56l-12 -5l-35 8l-8 11v117q14 7 62 35t87 50l58 30
q49 25 131 25t136 -17t90 -43q34 -26 74 -75q168 136 342 136q120 0 211 -56q166 -103 166 -332q0 -29 -4 -60l-10 -11q-113 -25 -335 -25h-321q2 -207 104 -305t234 -98zM1062 1467l-294 -374l-13 -4l-29 15l-3 13l153 349l156 29l13 -3z" />
    <glyph glyph-name="Oslashacute" unicode="&#x1fe;" horiz-adv-x="1706" 
d="M1397 677q0 253 -84 399l-860 -812q65 -76 117 -116q126 -95 301 -95q176 -1 297 83q229 158 229 541zM304 746q0 -196 101 -403l860 809q-41 54 -73 82t-87 57q-123 65 -280 65q-156 0 -278 -72q-123 -72 -183 -206q-60 -136 -60 -332zM816 -38q-310 0 -498 175
l-178 -168h-12l-49 51v12l179 173q-160 214 -160 497q0 333 217 536t565 203q156 0 276 -42t236 -129l173 160h12l47 -46l1 -12l-172 -163q155 -183 155 -443t-111 -436t-289 -272t-392 -96zM1166 1856l-210 -157l-200 -156l-15 -4l-25 24l2 14l144 174q3 3 95 117l187 26
l10 -7z" />
    <glyph glyph-name="oslashacute" unicode="&#x1ff;" horiz-adv-x="1118" 
d="M585 32q118 0 195 93t77 257t-38 278l-484 -474q96 -154 250 -154zM533 892q-130 0 -203 -94t-73 -260t42 -279l486 477q-85 156 -252 156zM68 474q0 202 144 344q144 141 349 141t337 -113l123 121h12l44 -42v-12l-126 -123q99 -126 99 -304q0 -229 -152 -377t-364 -148
q-178 0 -307 119l-125 -122h-12l-44 40v12l129 127q-107 135 -107 337zM820 1467l-294 -374l-13 -4l-29 15l-3 13l153 349l156 29l13 -3z" />
    <glyph glyph-name="uni0218" unicode="&#x218;" horiz-adv-x="1075" 
d="M500 56q92 0 176 39t131 115t47 155q0 80 -22 129q-22 48 -64 78q-40 30 -92 44t-154 32q-102 16 -158 29q-136 31 -212 116q-76 84 -76 224q0 187 130 307t342 119q212 0 383 -85l7 -12q-22 -92 -27 -262l-9 -8h-52l-8 7q-2 120 -6 151t-91 77t-181 46t-167 -34
q-74 -34 -112 -107q-38 -72 -38 -140t23 -114q24 -46 60 -72t84 -39t202 -35t234 -58t128 -112q48 -77 49 -186q1 -213 -173 -355t-401 -142t-383 74l-6 13q10 63 15 294l8 8h49l8 -8q6 -128 14 -156t54 -60t120 -52q76 -20 168 -20zM582 -391q0 32 -40 33q-134 5 -134 124
q0 52 36 84t96 31q60 0 96 -45q37 -45 37 -120q0 -254 -258 -277l-8 41q175 28 175 129z" />
    <glyph glyph-name="uni0219" unicode="&#x219;" horiz-adv-x="868" 
d="M436 35q90 0 154 57t63 139q-1 81 -93 123q-46 20 -158 47q-112 25 -152 39q-41 14 -79 46q-78 66 -78 190q1 126 107 206t265 80q67 0 146 -18t120 -36l9 -14q-8 -40 -10 -210l-9 -9h-40l-9 9q-4 62 -11 86t-36 52t-82 48t-113 20t-102 -18q-92 -40 -92 -148t130 -138
l109 -28q141 -34 201 -59q126 -52 126 -194t-114 -241t-274 -99t-335 45l-5 13l10 67q6 40 8 195l9 9h43l9 -9q2 -84 10 -144q31 -47 107 -77t166 -29zM465 -358q0 29 -34 30q-121 4 -121 109q0 47 32 75t86 28q52 0 86 -40t34 -107q0 -227 -231 -248l-9 35q157 39 157 118z
" />
    <glyph glyph-name="uni0259" unicode="&#x259;" horiz-adv-x="999" 
d="M274 331q0 -133 58 -213.5t170 -80.5t177.5 94t65.5 224q0 44 -2 70h-463q-6 -49 -6 -94zM747 484q0 171 -92.5 271.5t-234.5 100.5t-271 -85l-17 18l45 76q155 91 339 91t298 -127t114 -337t-140 -365t-318 -155t-278.5 105.5t-100.5 274.5q0 64 12 123l12 9h632z" />
    <glyph glyph-name="uni0259" unicode="&#x4d9;" horiz-adv-x="999" 
d="M274 331q0 -133 58 -213.5t170 -80.5t177.5 94t65.5 224q0 44 -2 70h-463q-6 -49 -6 -94zM747 484q0 171 -92.5 271.5t-234.5 100.5t-271 -85l-17 18l45 76q155 91 339 91t298 -127t114 -337t-140 -365t-318 -155t-278.5 105.5t-100.5 274.5q0 64 12 123l12 9h632z" />
    <glyph glyph-name="uni0292" unicode="&#x292;" horiz-adv-x="1163" 
d="M979 96q0 -184 -128.5 -348.5t-290 -245t-294.5 -80.5q-45 0 -75 3l-126 230l37 31q80 -78 133 -111t124 -33q191 0 317 125t126 311q0 275 -224 275q-32 0 -52 -6l-21 31q119 156 313 465h-404q-93 0 -118 -31t-65 -149l-10 -10h-45l-7 10q52 242 72 376
q232 -14 371 -14t400 16l12 -31l-198 -290l-159 -239l6 -10q137 0 221.5 -73.5t84.5 -201.5z" />
    <glyph glyph-name="circumflex" unicode="&#x2c6;" horiz-adv-x="682" 
d="M661 1120l-7 -10h-58l-255 248l-255 -248h-58l-7 10l261 362h118z" />
    <glyph glyph-name="caron" unicode="&#x2c7;" horiz-adv-x="682" 
d="M661 1472l-261 -362h-128l-251 362l7 10h58l250 -246l250 246h68z" />
    <glyph glyph-name="breve" unicode="&#x2d8;" horiz-adv-x="682" 
d="M341 1094q-169 0 -224.5 113t-59.5 217l8 8h54q15 -93 74.5 -152.5t147.5 -59.5t147.5 59.5t74.5 152.5h54l8 -8q-7 -151 -81.5 -240.5t-202.5 -89.5z" />
    <glyph glyph-name="dotaccent" unicode="&#x2d9;" horiz-adv-x="682" 
d="M340 1163q-46 0 -78 32t-32 78t32 78.5t79 32.5t78.5 -32.5t31.5 -78.5t-32.5 -78t-78.5 -32z" />
    <glyph glyph-name="ring" unicode="&#x2da;" horiz-adv-x="682" 
d="M457 1281q0 54 -29.5 98t-85.5 44t-86.5 -43t-30.5 -100t32.5 -98t85.5 -41t83.5 43t30.5 97zM541 1268q0 -66 -59.5 -119t-129.5 -53t-140.5 40t-70.5 146q0 78 59 132t129 54t116 -26.5t71 -67t25 -106.5z" />
    <glyph glyph-name="ogonek" unicode="&#x2db;" horiz-adv-x="682" 
d="M293 -385q-70 0 -116.5 49t-46.5 118q0 95 168 218h71q-125 -111 -125 -188q0 -96 103 -96q77 0 167 76h10l27 -38v-10q-146 -129 -258 -129z" />
    <glyph glyph-name="tilde" unicode="&#x2dc;" horiz-adv-x="682" 
d="M478 1170q-70 0 -170 51t-141 51q-78 0 -117 -101h-50l-6 7q18 87 79 151t130 64t171 -51t143 -51q75 0 114 106h52l6 -7q-21 -93 -81 -156.5t-130 -63.5z" />
    <glyph glyph-name="hungarumlaut" unicode="&#x2dd;" horiz-adv-x="682" 
d="M351 1474l-291 -381l-10 -4l-29 16l-4 10l153 351l154 29l10 -4zM665 1474l-291 -381l-10 -4l-29 16l-4 10l153 351l154 29l10 -4z" />
    <glyph glyph-name="gravecomb" unicode="&#x300;" horiz-adv-x="0" 
d="M170 1117l-3 -13l-29 -15l-13 4l-295 374l17 25l13 3l72 -14q41 -8 85 -15z" />
    <glyph glyph-name="acutecomb" unicode="&#x301;" horiz-adv-x="0" 
d="M190 1467l-295 -374l-13 -4l-29 15l-3 13l154 349l156 29l13 -3z" />
    <glyph glyph-name="tildecomb" unicode="&#x303;" horiz-adv-x="0" 
d="M142 1170q-70 0 -174.5 51t-142.5 51q-78 0 -117 -101h-50l-6 7q18 83 77 149t127.5 66t175 -51t144.5 -51q75 0 114 106h52l6 -7q-20 -87 -78 -153.5t-128 -66.5z" />
    <glyph glyph-name="hookabovecomb" unicode="&#x309;" horiz-adv-x="0" 
d="M-59 1128.5q0 36.5 57 97.5q56 61 56 95q0 73 -83 73q-19 0 -42 -9q-7 -7 -30 -51l-8 -5l-23 2l-5 11l29 86q47 29 104 29t99 -33t42 -78t-24 -75t-77 -83q-49 -45 -49 -64.5t14 -35.5l-1 -11l-14 -10h-11q-34 25 -34 61.5z" />
    <glyph glyph-name="uni0312" unicode="&#x312;" horiz-adv-x="682" 
d="M304 1338q0 -29 34 -30q121 -4 121 -109q0 -46 -32.5 -74.5t-84.5 -28.5t-86.5 40.5t-34.5 106.5q0 227 231 248l8 -35q-156 -27 -156 -118z" />
    <glyph glyph-name="dotbelowcomb" unicode="&#x323;" horiz-adv-x="0" 
d="M109 -337.5q0 -45.5 -32 -77.5t-77 -32t-77 32t-32 77t32 77t77.5 32t77 -31.5t31.5 -77z" />
    <glyph glyph-name="uni0326" unicode="&#x326;" horiz-adv-x="0" 
d="M35 -358q0 29 -34 30q-121 4 -121 109q0 46 33 74.5t85 28.5t86 -40.5t34 -106.5q0 -227 -231 -248l-9 35q157 39 157 118z" />
    <glyph glyph-name="uni0374" unicode="&#x374;" horiz-adv-x="512" 
d="M75 810l246 613l16 7l112 -53l4 -20l-341 -567l-10 -2l-24 12z" />
    <glyph glyph-name="uni0375" unicode="&#x375;" horiz-adv-x="512" 
d="M20 -229l246 613l16 7l112 -53l4 -20l-341 -567l-10 -2l-24 12z" />
    <glyph glyph-name="uni037A" unicode="&#x37a;" horiz-adv-x="682" 
d="M290 -471l36 410h30l36 -410l-19 -21h-64z" />
    <glyph glyph-name="uni037E" unicode="&#x37e;" horiz-adv-x="512" 
d="M20 -229l246 613l16 7l112 -53l4 -20l-341 -567l-10 -2l-24 12zM304 669q-54 0 -91.5 37.5t-37.5 91.5t37.5 92t91.5 38t92 -38t38 -91t-38 -91.5t-92 -38.5z" />
    <glyph glyph-name="tonos" unicode="&#x384;" horiz-adv-x="682" 
d="M294 1498h94l19 -21l-48 -410h-36l-48 410z" />
    <glyph glyph-name="dieresistonos" unicode="&#x385;" horiz-adv-x="682" 
d="M294 1498h94l19 -21l-48 -410h-36l-48 410zM602 1392q38 0 65 -27t27 -65t-27 -65.5t-65 -27.5t-65.5 27t-27.5 66t27.5 65.5t65.5 26.5zM80 1392q38 0 65.5 -27t27.5 -65t-26.5 -65.5t-65.5 -27.5t-66 27t-27 66t27 65.5t65 26.5z" />
    <glyph glyph-name="Alphatonos" unicode="&#x386;" horiz-adv-x="1575" 
d="M481 553h510l-247 621zM1164 100q0 24 -15 62l-122 305h-580l-108 -257q-30 -70 -30 -98t29 -40t135 -12l8 -9v-51l-8 -8q-133 8 -226 8t-203 -8l-9 8v51l9 9q73 2 94 8t37 25t66 126l106 230l252 565q129 290 179 413h40l427 -1005l85 -192q47 -106 62 -128t35 -32
t91 -10l8 -9v-51l-8 -8q-104 8 -230 6t-293 -6l-8 8v52l8 8q115 3 142 10q27 6 27 30zM312 1079l210 395l45 2l44 -52l-271 -362z" />
    <glyph glyph-name="Alphatonos" unicode="&#x1fbb;" horiz-adv-x="1575" 
d="M481 553h510l-247 621zM1164 100q0 24 -15 62l-122 305h-580l-108 -257q-30 -70 -30 -98t29 -40t135 -12l8 -9v-51l-8 -8q-133 8 -226 8t-203 -8l-9 8v51l9 9q73 2 94 8t37 25t66 126l106 230l252 565q129 290 179 413h40l427 -1005l85 -192q47 -106 62 -128t35 -32
t91 -10l8 -9v-51l-8 -8q-104 8 -230 6t-293 -6l-8 8v52l8 8q115 3 142 10q27 6 27 30zM312 1079l210 395l45 2l44 -52l-271 -362z" />
    <glyph glyph-name="anoteleia" unicode="&#x387;" horiz-adv-x="444" 
d="M222 928q54 0 92 -38t38 -91t-38 -91.5t-92 -38.5t-91.5 37.5t-37.5 91.5t37.5 92t91.5 38z" />
    <glyph glyph-name="Epsilontonos" unicode="&#x388;" horiz-adv-x="1520" 
d="M900 1407q234 0 473 6l5 -7q-24 -93 -37 -301l-7 -8h-42l-9 8q-1 12 -9 68t-16 79q-8 24 -26 40q-40 37 -184 36h-327q-3 -27 -10 -556q105 -7 200 -7q95 1 159 7t74 18q11 12 17 85l5 61l8 8h46l8 -8q-2 -160 -2 -199l2 -245l-8 -8h-46l-8 8l-7 60q-9 74 -15 88t-32 27
q-27 14 -157 14t-244 -5q-5 -86 -5 -286t5 -303h184q272 -1 327 9t93 26q33 100 53 211l10 7h48l8 -7q-10 -41 -18 -151t-8 -182l-7 -8q-205 6 -500 6l-288 2q-94 0 -171 -8l-8 8v33l8 10q60 29 65 35t7 16t5 109l8 169q3 68 3 139v367q0 352 -6 392t-16 51t-28 15t-119 13
l-8 7v50l8 7q305 -6 539 -6zM0 1079l210 395l45 2l44 -52l-271 -362z" />
    <glyph glyph-name="Epsilontonos" unicode="&#x1fc9;" horiz-adv-x="1520" 
d="M900 1407q234 0 473 6l5 -7q-24 -93 -37 -301l-7 -8h-42l-9 8q-1 12 -9 68t-16 79q-8 24 -26 40q-40 37 -184 36h-327q-3 -27 -10 -556q105 -7 200 -7q95 1 159 7t74 18q11 12 17 85l5 61l8 8h46l8 -8q-2 -160 -2 -199l2 -245l-8 -8h-46l-8 8l-7 60q-9 74 -15 88t-32 27
q-27 14 -157 14t-244 -5q-5 -86 -5 -286t5 -303h184q272 -1 327 9t93 26q33 100 53 211l10 7h48l8 -7q-10 -41 -18 -151t-8 -182l-7 -8q-205 6 -500 6l-288 2q-94 0 -171 -8l-8 8v33l8 10q60 29 65 35t7 16t5 109l8 169q3 68 3 139v367q0 352 -6 392t-16 51t-28 15t-119 13
l-8 7v50l8 7q305 -6 539 -6zM0 1079l210 395l45 2l44 -52l-271 -362z" />
    <glyph glyph-name="Etatonos" unicode="&#x389;" horiz-adv-x="2014" 
d="M560 471v463q0 317 -8 349t-23 46t-160 20l-8 7v50l8 7q154 -8 284 -8t280 8l8 -7v-50l-8 -7q-150 -5 -169 -29q-10 -14 -16 -56q-6 -43 -6 -330v-139q192 -7 432 -7t391 7v139q0 285 -6 330t-22 62t-164 23l-7 7v50l7 7q155 -8 284 -8t281 8l7 -7v-50l-7 -7
q-150 -5 -169 -29q-11 -14 -17 -60t-6 -326v-463q0 -317 8 -349t24 -46t160 -20l7 -6v-50l-7 -8q-160 8 -290 8t-275 -8l-7 8v50l7 6q150 4 169 28q11 14 17 61t6 326v228q-225 6 -381 6t-442 -6v-228q0 -281 6 -328t22 -64q17 -17 163 -23l8 -6v-50l-8 -8q-159 8 -289 8
t-275 -8l-8 8v50l8 6q149 5 168 28q11 13 17 57t6 330zM0 1079l210 395l45 2l44 -52l-271 -362z" />
    <glyph glyph-name="Etatonos" unicode="&#x1fcb;" horiz-adv-x="2014" 
d="M560 471v463q0 317 -8 349t-23 46t-160 20l-8 7v50l8 7q154 -8 284 -8t280 8l8 -7v-50l-8 -7q-150 -5 -169 -29q-10 -14 -16 -56q-6 -43 -6 -330v-139q192 -7 432 -7t391 7v139q0 285 -6 330t-22 62t-164 23l-7 7v50l7 7q155 -8 284 -8t281 8l7 -7v-50l-7 -7
q-150 -5 -169 -29q-11 -14 -17 -60t-6 -326v-463q0 -317 8 -349t24 -46t160 -20l7 -6v-50l-7 -8q-160 8 -290 8t-275 -8l-7 8v50l7 6q150 4 169 28q11 14 17 61t6 326v228q-225 6 -381 6t-442 -6v-228q0 -281 6 -328t22 -64q17 -17 163 -23l8 -6v-50l-8 -8q-159 8 -289 8
t-275 -8l-8 8v50l8 6q149 5 168 28q11 13 17 57t6 330zM0 1079l210 395l45 2l44 -52l-271 -362z" />
    <glyph glyph-name="Iotatonos" unicode="&#x38a;" horiz-adv-x="1000" 
d="M560 471v463q0 317 -8 349t-23 46t-160 20l-8 7v50l8 7q154 -8 284 -8t280 8l8 -7v-50l-8 -7q-150 -5 -169 -29q-10 -14 -16 -56q-6 -43 -6 -330v-463q0 -281 6 -328t22 -64q17 -17 163 -23l8 -6v-50l-8 -8q-159 8 -289 8t-275 -8l-8 8v50l8 6q149 5 168 28q11 13 17 57
t6 330zM0 1079l210 395l45 2l44 -52l-271 -362z" />
    <glyph glyph-name="Iotatonos" unicode="&#x1fdb;" horiz-adv-x="1000" 
d="M560 471v463q0 317 -8 349t-23 46t-160 20l-8 7v50l8 7q154 -8 284 -8t280 8l8 -7v-50l-8 -7q-150 -5 -169 -29q-10 -14 -16 -56q-6 -43 -6 -330v-463q0 -281 6 -328t22 -64q17 -17 163 -23l8 -6v-50l-8 -8q-159 8 -289 8t-275 -8l-8 8v50l8 6q149 5 168 28q11 13 17 57
t6 330zM0 1079l210 395l45 2l44 -52l-271 -362z" />
    <glyph glyph-name="Omicrontonos" unicode="&#x38c;" horiz-adv-x="1734" 
d="M373 737q1 -203 65 -361t194 -249t308 -91t290 78q114 78 175 243t61 333q0 352 -134 516q-134 163 -409 163q-167 1 -295 -71t-192 -214t-63 -347zM158 734q0 208 88 365t269 250q182 93 428 93q357 0 550 -183t193 -513q0 -209 -87 -392t-251 -287t-424 -104
q-258 0 -432 104t-254 281q-80 178 -80 386zM0 1079l210 395l45 2l44 -52l-271 -362z" />
    <glyph glyph-name="Omicrontonos" unicode="&#x1ff9;" horiz-adv-x="1734" 
d="M373 737q1 -203 65 -361t194 -249t308 -91t290 78q114 78 175 243t61 333q0 352 -134 516q-134 163 -409 163q-167 1 -295 -71t-192 -214t-63 -347zM158 734q0 208 88 365t269 250q182 93 428 93q357 0 550 -183t193 -513q0 -209 -87 -392t-251 -287t-424 -104
q-258 0 -432 104t-254 281q-80 178 -80 386zM0 1079l210 395l45 2l44 -52l-271 -362z" />
    <glyph glyph-name="Upsilontonos" unicode="&#x38e;" horiz-adv-x="1715" 
d="M1476 1415q122 1 180 -71t59 -188q0 -13 -1 -37l-33 -19q-26 167 -192 167q-117 1 -227 -93q-150 -128 -198 -446q-12 -76 -11 -181v-76q0 -270 6 -323q6 -52 23 -69t163 -23l8 -6v-50l-8 -8q-159 8 -289 8t-276 -8l-7 8v50l7 6q152 4 170 28q10 14 16 60t6 327v76
q0 271 -120 499t-279 228q-85 0 -147 -56q-32 -28 -75 -97l-18 -3l-16 25q123 271 349 271q122 0 204 -84t122 -238q39 -153 52 -445h52q22 287 80 446t167 241q111 82 233 81zM0 1079l210 395l45 2l44 -52l-271 -362z" />
    <glyph glyph-name="Upsilontonos" unicode="&#x1feb;" horiz-adv-x="1715" 
d="M1476 1415q122 1 180 -71t59 -188q0 -13 -1 -37l-33 -19q-26 167 -192 167q-117 1 -227 -93q-150 -128 -198 -446q-12 -76 -11 -181v-76q0 -270 6 -323q6 -52 23 -69t163 -23l8 -6v-50l-8 -8q-159 8 -289 8t-276 -8l-7 8v50l7 6q152 4 170 28q10 14 16 60t6 327v76
q0 271 -120 499t-279 228q-85 0 -147 -56q-32 -28 -75 -97l-18 -3l-16 25q123 271 349 271q122 0 204 -84t122 -238q39 -153 52 -445h52q22 287 80 446t167 241q111 82 233 81zM0 1079l210 395l45 2l44 -52l-271 -362z" />
    <glyph glyph-name="Omegatonos" unicode="&#x38f;" horiz-adv-x="1746" 
d="M320 153h264v15q-206 84 -316 254t-110 381t86 350t256 214t414 75q352 0 540 -168t188 -460q0 -329 -229 -527q-82 -71 -197 -119v-15h265q88 0 107 26t42 118l8 7h29l8 -7q-27 -193 -36 -311q-142 6 -333 8l-303 6v140q210 28 317 192t107 415q1 249 -59 377
q-122 262 -454 262q-278 0 -418 -175q-74 -93 -98 -203q-25 -110 -25 -237q0 -278 108 -441t316 -190v-140l-636 -14q-9 117 -36 311l8 7h29l8 -7q20 -78 32 -101t36 -33t82 -10zM0 1079l210 395l45 2l44 -52l-271 -362z" />
    <glyph glyph-name="Omegatonos" unicode="&#x1ffb;" horiz-adv-x="1746" 
d="M320 153h264v15q-206 84 -316 254t-110 381t86 350t256 214t414 75q352 0 540 -168t188 -460q0 -329 -229 -527q-82 -71 -197 -119v-15h265q88 0 107 26t42 118l8 7h29l8 -7q-27 -193 -36 -311q-142 6 -333 8l-303 6v140q210 28 317 192t107 415q1 249 -59 377
q-122 262 -454 262q-278 0 -418 -175q-74 -93 -98 -203q-25 -110 -25 -237q0 -278 108 -441t316 -190v-140l-636 -14q-9 117 -36 311l8 7h29l8 -7q20 -78 32 -101t36 -33t82 -10zM0 1079l210 395l45 2l44 -52l-271 -362z" />
    <glyph glyph-name="iotadieresistonos" unicode="&#x390;" horiz-adv-x="615" 
d="M363 538q-1 -216 7 -304t38 -124q30 -34 94 -34q63 0 142 41l17 -39q-155 -103 -286 -103t-166 87q-17 42 -17 118l8 421q0 67 -5 250l-3 50q93 14 162 36l30 -21q-21 -162 -21 -378zM260 1498h94l19 -21l-48 -410h-36l-48 410zM568 1392q38 0 65 -27t27 -65t-27 -66
t-65 -27q-38 0 -66 27q-27 27 -27 66q0 40 27 66q28 26 66 26zM46 1392q38 0 66 -27q27 -27 27 -65q-1 -38 -27 -66q-26 -27 -65 -27t-66 27t-27 66q0 40 27 66t65 26z" />
    <glyph glyph-name="Alpha" unicode="&#x391;" horiz-adv-x="1575" 
d="M481 553h510l-247 621zM1164 100q0 24 -15 62l-122 305h-580l-108 -257q-30 -70 -30 -98t29 -39.5t135 -12.5l8 -9v-51l-8 -8q-133 8 -226 8t-203 -8l-9 8v51l9 9q73 1 94 7.5t37 25.5t66 126l106 230l252 565q129 290 179 413h40l427 -1005l85 -192q47 -105 62 -127.5
t35 -32t91 -10.5l8 -9v-51l-8 -8q-104 8 -230 6t-293 -6l-8 8v52l8 8q115 3 142 9.5t27 30.5z" />
    <glyph glyph-name="Beta" unicode="&#x392;" horiz-adv-x="1243" 
d="M556 77q189 0 281 97t92 257q0 227 -138 271t-239 44t-166 -5v-341l1 -180q0 -24 2 -125q82 -18 167 -18zM474 820q164 0 279 46t115 231q0 237 -306 237q-88 0 -167 -16q-9 -90 -9 -314v-180q44 -4 88 -4zM205 511v367l-2 196q0 209 -10 228t-21 26.5t-26 10t-110 10.5
l-8 7v50l8 7q138 -8 255 -8l388 10q130 0 210.5 -25t131 -94t50.5 -170t-81 -195.5t-259 -135.5q173 -15 290.5 -78.5t117.5 -257.5q0 -238 -146 -330t-226.5 -114.5t-203.5 -22.5l-288 8q-68 0 -158 -8l-8 8v33l8 10q60 29 65 35t6.5 15.5t5.5 109.5l8 169q3 68 3 139z" />
    </font>
</defs>
</svg>
