<?xml version="1.0" standalone="no"?>
<!DOCTYPE svg PUBLIC "-//W3C//DTD SVG 1.1//EN" "http://www.w3.org/Graphics/SVG/1.1/DTD/svg11.dtd" >
<svg xmlns="http://www.w3.org/2000/svg">
<metadata>
Created by FontPrep 20130207 at Fri Jul 14 13:43:49 2017
 By Richard Lyon
Copyright 1981-1983, 1989,1993, 1998 Heidelberger Druckmaschinen AG. All rights reserved. The  digitally encoded machine readable outline data for producing the Typefaces licensed are the property of Heidelberger Druckmaschinen AG and/or its subsidiaries, represented by Linotype Library GmbH, Dupont Strasse 1, 61352 Bad Homburg Germany. Portions (c) 1996-1998 Microsoft Corporation. All Rights Reserved.
</metadata>
<defs>
<font id="056a367646fe820573a082db301ae5ae" horiz-adv-x='1024' >
  <font-face 
    font-family="PalatinoLinotype-Bold"
    font-weight="700"
    font-stretch="normal"
    units-per-em="2048"
    panose-1="2 4 7 2 6 3 5 10 2 4"
    ascent="1638"
    descent="-410"
    x-height="944"
    cap-height="1411"
    bbox="-356 -613 2960 2150"
    underline-thickness="120"
    underline-position="-148"
    unicode-range="U+0020-FFFC"
  />
<missing-glyph horiz-adv-x="1540" 
d="M652 381q-22 -150 -104 -258t-178 -123q139 158 170 381h112zM839 216q0 -68 -21.5 -162.5t-47.5 -146.5q-26 52 -47.5 146.5t-21.5 162.5t20 165h98q20 -97 20 -165zM368 742q-70 0 -70 -66q0 -52 48 -74q-48 -22 -98 -22q-96 0 -147 67t-51 147t56 142t180 62t234 -107
t133 -316h-118q-41 167 -167 167zM1170 0q-96 15 -178 123t-104 258h112q31 -223 170 -381zM1095 478q0 -45 -39 -45h-572q-39 0 -39 45t39 45h572q39 0 39 -45zM980 1206q0 -37 -81 -249.5t-81 -381.5h-96q0 169 -81 381.5t-81 249.5q0 67 73 128t137 114q64 -53 137 -114
t73 -128zM1254 998q124 0 180 -62t56 -142t-51 -147t-147 -67q-50 0 -98 22q48 22 48 74q0 66 -70 66q-126 0 -167 -167h-118q23 209 133 316t234 107z" />
    <glyph glyph-name="IJ" unicode="IJ" horiz-adv-x="1557" 
d="M398 0q-208 0 -308 -6l-9 10v67l10 10q102 6 117 10q29 8 34 37q13 72 13 310v529q0 238 -13 310q-5 29 -34 37q-15 4 -117 10l-10 10v68l10 9q95 -6 307 -6t308 6l10 -9v-68l-10 -10q-102 -6 -117 -10q-29 -8 -34 -37q-13 -72 -13 -310v-529q0 -238 13 -310
q5 -29 34 -37q15 -4 117 -10l10 -10v-67l-9 -10q-101 6 -309 6zM1327 967v-744q0 -201 -46 -321t-179 -236t-260 -117q-42 0 -82 15q5 75 5 185l23 14q81 -73 143 -73q86 0 96 91q13 118 13 354v832q0 237 -13 310q-5 29 -34 37q-7 2 -140 10l-10 10v68l10 9q138 -6 343 -6
t295 6l10 -9v-69l-10 -9q-102 -6 -117 -10q-29 -8 -34 -37q-13 -73 -13 -310z" />
    <glyph glyph-name="ij" unicode="ij" horiz-adv-x="1306" 
d="M341 0q-179 0 -273 -7l-10 10v61l10 10q96 4 118 14t23 49q7 130 7 279v143q0 194 -12 222q-12 27 -34 31q-24 4 -99 7l-10 10v56l10 11q192 17 387 83l21 -13q-13 -182 -13 -307v-319q0 -73 7 -203q1 -39 23 -49t118 -14l11 -10v-61l-10 -10q-95 7 -274 7zM487 1309
q0 -65 -45 -111q-44 -46 -108 -45q-64 -1 -109 45t-45 111t46 110t108 45t108 -45t45 -110zM1087 659v-170l2 -294q2 -328 -56 -476q-108 -273 -344 -273q-17 0 -38 3l-22 72l10 14q18 -2 30 -2q105 0 137 102t31 514v410q0 179 -10 213t-34 40q-24 4 -102 7l-10 10v56
l10 11q191 17 387 83l22 -13q-13 -64 -13 -307zM1107 1309q0 -65 -45 -111q-44 -46 -108 -45q-64 -1 -109 45t-45 110t46 110t108 46t108 -45t45 -110z" />
    <glyph glyph-name="uniFB00" unicode="ff" horiz-adv-x="1383" 
d="M1214 1306q-64 0 -93 -22t-36.5 -65.5t-7.5 -181.5v-140h61q68 0 176 8l14 -11l-23 -114l-10 -10l-143 1q-46 0 -75 -1v-178q1 -454 11 -478t32 -31t106 -9l10 -10v-61l-10 -10l-74 3q-106 4 -232 4t-221 -7l-10 10v61l10 10q80 3 99.5 14.5t21.5 48.5q7 130 7 455v178
h-380v-178q1 -454 11 -478t32 -31t106 -9l10 -10v-61l-10 -10l-74 3q-106 4 -232 4t-221 -7l-10 10v61l10 10q80 3 99.5 14.5t21.5 48.5q7 130 7 455v178q-18 1 -120 -5l-10 10v31l9 14l75 46q34 21 40 28t6 19v15q-1 154 15 197t36 67t141 140l62 59q27 27 68 64
q55 40 134 40q33 0 76 -14q-7 -112 -2 -207l-31 -18q-48 50 -112 50t-93 -22t-36.5 -65.5t-7.5 -181.5v-140h380v31q-1 154 15 197t36 67t141 140l62 59q27 27 68 64q55 40 134 40q33 0 76 -14q-7 -112 -2 -207l-31 -18q-48 50 -112 50z" />
    <glyph glyph-name="uniFB01" unicode="fi" horiz-adv-x="1258" 
d="M584 1306q-64 0 -93 -22t-36.5 -65.5t-7.5 -181.5v-140q335 0 431 25t191 57l21 -13q-13 -182 -13 -307v-319q0 -73 7 -203q2 -37 22 -48.5t109 -14.5l11 -10v-61l-10 -10q-95 7 -264 7t-263 -7l-10 10v61l10 10q89 3 109 14.5t22 48.5q7 130 7 279v143q1 194 -11 222
q-12 27 -36 31t-97 7l-8 -39l-10 -10l-143 1q-46 0 -75 -1v-178q1 -454 11 -478t32 -31t106 -9l10 -10v-61l-10 -10l-74 3q-106 4 -232 4t-221 -7l-10 10v61l10 10q80 3 99.5 14.5t21.5 48.5q7 130 7 455v178q-18 1 -120 -5l-10 10v31l9 14l75 46q34 21 40 28t6 19v15
q-1 154 15 197t36 67t141 140l62 59q27 27 68 64q55 40 134 40q33 0 76 -14q-7 -112 -2 -207l-31 -18q-48 50 -112 50zM1118 1309q0 -65 -45 -110.5t-109 -45.5t-108.5 45.5t-44.5 110.5t45.5 110t107.5 45t108 -45t46 -110z" />
    <glyph glyph-name="uniFB02" unicode="fl" horiz-adv-x="1258" 
d="M1077 850v-258q0 -325 7 -455q2 -37 22 -48.5t109 -14.5l11 -10v-61l-10 -10q-95 7 -264 7t-263 -7l-10 10v61l10 10q89 3 109 14.5t22 48.5q7 130 7 455v335q0 210 -7 340q-2 37 -19 47t-76 14l2 -54l-31 -18q-48 50 -112 50t-93 -22t-36.5 -65.5t-7.5 -181.5v-140h61
q68 0 176 8l14 -11l-23 -114l-10 -10l-143 1q-46 0 -75 -1v-178q1 -454 11 -478t32 -31t106 -9l10 -10v-61l-10 -10l-74 3q-106 4 -232 4t-221 -7l-10 10v61l10 10q80 3 99.5 14.5t21.5 48.5q7 130 7 455v178q-18 1 -120 -5l-10 10v31l9 14l75 46q34 21 40 28t6 19v15
q-1 154 15 197t36 67t141 140l62 59q27 27 68 64q55 40 134 40q33 0 76 -14q-1 -17 -3 -69q168 21 343 78l21 -12q0 -26 -6 -182t-7 -446z" />
    <glyph glyph-name="uniFB03" unicode="ffi" horiz-adv-x="1888" 
d="M1214 1306q-64 0 -93 -22t-36.5 -65.5t-7.5 -181.5v-140q334 0 431 25q96 25 191 57l21 -13q-13 -182 -13 -307v-319q0 -73 7 -203q2 -37 22 -48.5t109 -14.5l11 -10v-61l-10 -10q-95 7 -264 7t-263 -7l-10 10v61l10 10q89 3 109 14.5t22 48.5q7 130 7 279v143
q1 194 -11 222q-12 27 -36 31t-97 7l-8 -39l-10 -10l-143 1q-46 0 -75 -1v-178q1 -454 11 -478t32 -31t106 -9l10 -10v-61l-10 -10l-74 3q-106 4 -232 4t-221 -7l-10 10v61l10 10q80 3 99.5 14.5t21.5 48.5q7 130 7 455v178h-380v-178q1 -454 11 -478t32 -31t106 -9l10 -10
v-61l-10 -10l-74 3q-106 4 -232 4t-221 -7l-10 10v61l10 10q80 3 99.5 14.5t21.5 48.5q7 130 7 455v178q-18 1 -120 -5l-10 10v31l9 14l75 46q34 21 40 28t6 19v15q-1 154 15 197t36 67t141 140l62 59q27 27 68 64q55 40 134 40q33 0 76 -14q-7 -112 -2 -207l-31 -18
q-48 50 -112 50t-93 -22t-36.5 -65.5t-7.5 -181.5v-140h380v31q-1 154 15 197t36 67t141 140l62 59q27 27 68 64q55 40 134 40q33 0 76 -14q-7 -112 -2 -207l-31 -18q-48 50 -112 50zM1748 1309q0 -65 -45 -110.5t-109 -45.5t-108.5 45.5t-44.5 110.5t45.5 110t107.5 45
t108 -45t46 -110z" />
    <glyph glyph-name="uniFB04" unicode="ffl" horiz-adv-x="1888" 
d="M1707 850v-258q0 -325 7 -455q2 -37 22 -48.5t109 -14.5l11 -10v-61l-10 -10q-95 7 -264 7t-263 -7l-10 10v61l10 10q89 3 109 14.5t22 48.5q7 130 7 455v335q0 210 -7 340q-2 37 -19 47t-76 14l2 -54l-31 -18q-48 50 -112 50t-93 -22t-36.5 -65.5t-7.5 -181.5v-140h61
q68 0 176 8l14 -11l-23 -114l-10 -10l-143 1q-46 0 -75 -1v-178q1 -454 11 -478t32 -31t106 -9l10 -10v-61l-10 -10l-74 3q-106 4 -232 4t-221 -7l-10 10v61l10 10q80 3 99.5 14.5t21.5 48.5q7 130 7 455v178h-380v-178q1 -454 11 -478t32 -31t106 -9l10 -10v-61l-10 -10
l-74 3q-106 4 -232 4t-221 -7l-10 10v61l10 10q80 3 99.5 14.5t21.5 48.5q7 130 7 455v178q-18 1 -120 -5l-10 10v31l9 14l75 46q34 21 40 28t6 19v15q-1 154 15 197t36 67t141 140l62 59q27 27 68 64q55 40 134 40q33 0 76 -14q-7 -112 -2 -207l-31 -18q-48 50 -112 50
t-93 -22t-36.5 -65.5t-7.5 -181.5v-140h380v31q-1 154 15 197t36 67t141 140l62 59q27 27 68 64q55 40 134 40q33 0 76 -14q-1 -17 -3 -69q168 21 343 78l21 -12q0 -26 -6 -182t-7 -446z" />
    <glyph glyph-name="S_S. RQD" unicode="SS" horiz-adv-x="2502" 
d="M1144 443q0 -147 -88 -265q-165 -223 -512 -222q-210 0 -412 96l-12 22q28 115 28 327l10 10h64l9 -10v-23q0 -56 12 -148q36 -64 131 -111t200 -47q198 0 274 138q39 71 39 147q0 128 -107 183q-53 27 -171 45q-267 41 -351 103q-127 94 -127 295t142 326t389 125
t391 -75l7 -24q-24 -119 -29 -286l-11 -10h-63l-10 10q-3 120 -10 156q-31 47 -111 81t-168 33q-134 0 -210 -69q-76 -70 -75 -180q0 -110 83 -164q54 -35 255 -67q21 -3 117 -20q187 -33 263 -149q53 -82 53 -227zM2395 443q0 -147 -88 -265q-165 -222 -512 -222
q-210 0 -412 96l-12 22q28 115 28 327l10 10h64l9 -10v-23q0 -56 12 -148q36 -64 131 -111t200 -47q198 0 274 138q39 71 39 147q0 128 -107 183q-53 27 -171 45q-267 41 -351 103q-127 94 -127 295t142 326t389 125t391 -75l7 -24q-24 -119 -29 -286l-11 -10h-63l-10 10
q-3 120 -10 156q-30 47 -110 81t-169 33q-133 0 -209 -69q-76 -70 -76 -180t83 -164q54 -35 255 -67q21 -3 117 -20q187 -33 263 -149q53 -82 53 -227z" />
    <glyph glyph-name="c_h. RQD" unicode="ch" horiz-adv-x="2126" 
d="M549 -44q-223 0 -341 128t-118 342t91 322q25 30 124 100t151 95q52 26 175 26q122 0 211 -41l10 -18q-1 -13 -14 -93l-11 -68q-3 -17 -9 -134l-10 -10h-60l-10 10q-6 89 -14 124q-44 78 -169 78q-212 0 -212 -275q0 -182 72 -297q87 -137 258 -137q96 0 169 41l19 -23
l-44 -99q-136 -71 -268 -71zM1890 0q-73 0 -207 -7l-10 10q18 223 18 344v196q0 244 -176 244q-94 -1 -141 -59t-47 -140v-118q0 -203 7 -333q3 -48 51 -59q8 -2 90 -4l11 -10v-61l-10 -10q-95 7 -274 7t-273 -7l-10 10v61l10 10q82 2 90 4q48 11 51 59q7 130 7 455v335
q0 210 -7 340q-2 37 -22 48.5t-116 14.5l-10 11v55l10 11q193 21 387 83l21 -12q0 -26 -6 -182t-7 -446v-56l176 148q66 27 145 27q159 0 238 -96q64 -78 64 -229l-8 -313q0 -228 28 -245q18 -11 104 -13l9 -10v-59l-10 -11q-110 7 -183 7z" />
    <glyph glyph-name="c_k. RQD" unicode="ck" horiz-adv-x="2113" 
d="M549 -44q-223 0 -341 128t-118 342t91 322q25 30 124 100t151 95q52 26 175 26q122 0 211 -41l10 -18q-1 -13 -14 -93l-11 -68q-3 -17 -9 -134l-10 -10h-60l-10 10q-6 89 -14 124q-44 78 -169 78q-212 0 -212 -275q0 -182 72 -297q87 -137 258 -137q96 0 169 41l19 -23
l-44 -99q-136 -71 -268 -71zM1922 -3q-92 0 -179 -4q-56 102 -220 283t-195 203l7 -342q3 -48 51 -59q8 -2 90 -4l11 -10v-61l-10 -10q-95 7 -274 7t-273 -7l-10 10v61l10 10q82 2 90 4q48 11 51 59q7 130 7 455v335q0 210 -7 340q-2 37 -22 48.5t-116 14.5l-10 11v55l10 11
q193 21 387 83l21 -12l-7 -182t-6 -446v-327l99 81q65 53 182 177l104 110q29 31 46 54q85 -3 145 -3t114 3l10 -10v-60l-10 -10l-73 -4q-45 -2 -77 -25t-90 -70l-84 -69l-115 -104l214 -250q203 -237 235 -253q31 -15 54 -15l10 -11v-61l-10 -10q-68 4 -160 4z" />
    <glyph glyph-name="f_t. RQD" unicode="ft" horiz-adv-x="1331" 
d="M1105 901q109 0 188 7l11 -11l-14 -117l-10 -10h-208v-339q0 -163 4 -199t35 -61.5t77 -25.5t105 22l22 -36q-7 -9 -55 -53t-89 -91q-49 -16 -99 -16q-139 0 -203 81q-27 36 -37 86t-8 139l3 239v254h-380v-178q1 -454 11 -478t32 -31t106 -9l10 -10v-61l-10 -10l-74 3
q-106 4 -232 4t-221 -7l-10 10v61l10 10q80 3 99.5 14.5t21.5 48.5q7 130 7 455v178q-18 1 -120 -5l-10 10v31l9 14l75 46q34 21 40 28t6 19v15q-1 154 15 197t36 67t141 140l62 59q27 27 68 64q55 40 134 40q33 0 76 -14q-7 -112 -2 -207l-31 -18q-48 50 -112 50t-93 -22
t-36.5 -65.5t-7.5 -181.5v-140h380v136q0 85 -8 180q126 40 253 103l26 -20q-12 -124 -17 -222l-9 -173h33z" />
    <glyph glyph-name="f_f_t. RQD" unicode="fft" horiz-adv-x="1961" 
d="M1735 901q109 0 188 7l11 -11l-14 -117l-10 -10h-208v-339q0 -163 4 -199t35 -61.5t77 -25.5t105 22l22 -36q-7 -9 -55 -53t-89 -91q-49 -16 -99 -16q-139 0 -203 81q-27 36 -37 86t-8 139l3 239v254h-380v-178q1 -454 11 -478t32 -31t106 -9l10 -10v-61l-10 -10l-74 3
q-106 4 -232 4t-221 -7l-10 10v61l10 10q80 3 99.5 14.5t21.5 48.5q7 130 7 455v178h-380v-178q1 -454 11 -478t32 -31t106 -9l10 -10v-61l-10 -10l-74 3q-106 4 -232 4t-221 -7l-10 10v61l10 10q80 3 99.5 14.5t21.5 48.5q7 130 7 455v178q-18 1 -120 -5l-10 10v31l9 14
l75 46q34 21 40 28t6 19v15q-1 154 15 197t36 67t141 140l62 59q27 27 68 64q55 40 134 40q33 0 76 -14q-7 -112 -2 -207l-31 -18q-48 50 -112 50t-93 -22t-36.5 -65.5t-7.5 -181.5v-140h380v31q-1 154 15 197t36 67t141 140l62 59q27 27 68 64q55 40 134 40q33 0 76 -14
q-7 -112 -2 -207l-31 -18q-48 50 -112 50t-93 -22t-36.5 -65.5t-7.5 -181.5v-140h380v136q0 85 -8 180q126 40 253 103l26 -20q-12 -124 -17 -222l-9 -173h33z" />
    <glyph glyph-name="f_b. RQD" unicode="fb" horiz-adv-x="1890" 
d="M1277 101q125 -1 187 99t63 255q0 155 -67.5 243t-181.5 88q-66 0 -122 -32t-79 -70v-472q75 -111 200 -111zM197 913v15q-1 154 15 197t36 67t141 140l62 59q27 27 68 64q55 40 134 40q33 0 76 -14q-1 -17 -3 -69q94 10 156 24t186 54l22 -12q-13 -374 -13 -579v-106
l121 101q90 75 207 75q242 0 335 -192q44 -91 44 -202q0 -181 -86 -313q-37 -57 -67 -80t-127 -91l-113 -80q-78 -55 -195 -55t-250 83l-93 -75l-45 16q19 318 19 554v393q0 232 -10 337q-5 52 -53 61q-7 1 -39 3l2 -54l-31 -18q-48 50 -112 50t-93 -22t-36.5 -65.5
t-7.5 -181.5v-140h61q68 0 176 8l14 -11l-23 -114l-10 -10l-143 1q-46 0 -75 -1v-178q1 -454 11 -478t32 -31t106 -9l10 -10v-61l-10 -10l-74 3q-106 4 -232 4t-221 -7l-10 10v61l10 10q80 3 99.5 14.5t21.5 48.5q7 130 7 455v178q-18 1 -120 -5l-10 10v31l9 14l75 46
q34 21 40 28t6 19z" />
    <glyph glyph-name="f_f_b. RQD" unicode="ffb" horiz-adv-x="2520" 
d="M1907 101q125 -1 187 99t63 255q0 155 -67.5 243t-181.5 88q-66 0 -122 -32t-79 -70v-472q75 -111 200 -111zM584 1306q-64 0 -93 -22t-36.5 -65.5t-7.5 -181.5v-140h380v31q-1 154 15 197t36 67t141 140l62 59q27 27 68 64q55 40 134 40q33 0 76 -14q-1 -17 -3 -69
q94 10 156 24t186 54l22 -12q-13 -374 -13 -579v-106l121 101q90 75 207 75q242 0 335 -192q44 -91 44 -202q0 -181 -86 -313q-37 -57 -67 -80t-127 -91l-113 -80q-78 -55 -195 -55t-250 83l-93 -75l-45 16q19 318 19 554v393q0 232 -10 337q-5 52 -53 61q-7 1 -39 3l2 -54
l-31 -18q-48 50 -112 50t-93 -22t-36.5 -65.5t-7.5 -181.5v-140h61q68 0 176 8l14 -11l-23 -114l-10 -10l-143 1q-46 0 -75 -1v-178q1 -454 11 -478t32 -31t106 -9l10 -10v-61l-10 -10l-74 3q-106 4 -232 4t-221 -7l-10 10v61l10 10q80 3 99.5 14.5t21.5 48.5q7 130 7 455
v178h-380v-178q1 -454 11 -478t32 -31t106 -9l10 -10v-61l-10 -10l-74 3q-106 4 -232 4t-221 -7l-10 10v61l10 10q80 3 99.5 14.5t21.5 48.5q7 130 7 455v178q-18 1 -120 -5l-10 10v31l9 14l75 46q34 21 40 28t6 19v15q-1 154 15 197t36 67t141 140l62 59q27 27 68 64
q55 40 134 40q33 0 76 -14q-7 -112 -2 -207l-31 -18q-48 50 -112 50z" />
    <glyph glyph-name="f_h. RQD" unicode="fh" horiz-adv-x="1856" 
d="M1630 0q-63 0 -197 -7l-10 10q18 223 18 344v196q0 244 -176 244q-94 -1 -141 -59t-47 -140v-118q0 -203 7 -333q2 -37 22 -48.5t99 -14.5l11 -10v-61l-10 -10q-95 7 -254 7t-253 -7l-10 10v61l10 10q80 3 99.5 14.5t21.5 48.5q7 130 7 455v335q0 210 -7 340
q-2 37 -19 47t-76 14l2 -54l-31 -18q-48 50 -112 50t-93 -22t-36.5 -65.5t-7.5 -181.5v-140h61q68 0 176 8l14 -11l-23 -114l-10 -10l-143 1q-46 0 -75 -1v-178q1 -454 11 -478t32 -31t106 -9l10 -10v-61l-10 -10l-74 3q-106 4 -232 4t-221 -7l-10 10v61l10 10
q80 3 99.5 14.5t21.5 48.5q7 130 7 455v178q-18 1 -120 -5l-10 10v31l9 14l75 46q34 21 40 28t6 19v15q-1 154 15 197t36 67t141 140l62 59q27 27 68 64q55 40 134 40q33 0 76 -14q-1 -17 -3 -69q168 21 343 78l21 -12q0 -26 -6 -182t-7 -446v-56l176 148q66 27 145 27
q159 0 238 -96q64 -78 64 -229l-8 -313q0 -151 5 -192.5t23.5 -53t83.5 -12.5l9 -10v-59l-10 -11q-110 7 -173 7z" />
    <glyph glyph-name="f_f_h. RQD" unicode="ffh" horiz-adv-x="2486" 
d="M2260 0q-63 0 -197 -7l-10 10q18 223 18 344v196q0 244 -176 244q-94 -1 -141 -59t-47 -140v-118q0 -203 7 -333q2 -37 22 -48.5t99 -14.5l11 -10v-61l-10 -10q-95 7 -254 7t-253 -7l-10 10v61l10 10q80 3 99.5 14.5t21.5 48.5q7 130 7 455v335q0 210 -7 340
q-2 37 -19 47t-76 14l2 -54l-31 -18q-48 50 -112 50t-93 -22t-36.5 -65.5t-7.5 -181.5v-140h61q68 0 176 8l14 -11l-23 -114l-10 -10l-143 1q-46 0 -75 -1v-178q1 -454 11 -478t32 -31t106 -9l10 -10v-61l-10 -10l-74 3q-106 4 -232 4t-221 -7l-10 10v61l10 10
q80 3 99.5 14.5t21.5 48.5q7 130 7 455v178h-380v-178q1 -454 11 -478t32 -31t106 -9l10 -10v-61l-10 -10l-74 3q-106 4 -232 4t-221 -7l-10 10v61l10 10q80 3 99.5 14.5t21.5 48.5q7 130 7 455v178q-18 1 -120 -5l-10 10v31l9 14l75 46q34 21 40 28t6 19v15q-1 154 15 197
t36 67t141 140l62 59q27 27 68 64q55 40 134 40q33 0 76 -14q-7 -112 -2 -207l-31 -18q-48 50 -112 50t-93 -22t-36.5 -65.5t-7.5 -181.5v-140h380v31q-1 154 15 197t36 67t141 140l62 59q27 27 68 64q55 40 134 40q33 0 76 -14q-1 -17 -3 -69q168 21 343 78l21 -12
q0 -26 -6 -182t-7 -446v-56l176 148q66 27 145 27q159 0 238 -96q64 -78 64 -229l-8 -313q0 -151 5 -192.5t23.5 -53t83.5 -12.5l9 -10v-59l-10 -11q-110 7 -173 7z" />
    <glyph glyph-name="f_k. RQD" unicode="fk" horiz-adv-x="1862" 
d="M1077 850v-327l99 81q65 53 182 177l104 110q29 31 46 54q85 -3 145 -3t114 3l10 -10v-60l-10 -10l-73 -4q-44 -2 -76 -25t-91 -70l-84 -69l-115 -104l214 -250q204 -238 245 -258q21 -10 44 -10l10 -11v-61l-10 -10q-67 4 -159 4t-180 -4q-56 102 -220 283t-195 203
l7 -342q2 -37 22 -49t99 -14l11 -10v-61l-10 -10q-95 7 -254 7t-253 -7l-10 10v61l10 10q79 2 99 13.5t22 49.5q7 130 7 455v335q0 210 -7 340q-2 37 -19 47t-76 14l2 -54l-31 -18q-48 50 -112 50t-93 -22t-36.5 -65.5t-7.5 -181.5v-140h61q68 0 176 8l14 -11l-23 -114
l-10 -10l-143 1q-46 0 -75 -1v-178q1 -454 11 -478t32 -31t106 -9l10 -10v-61l-10 -10l-74 3q-106 4 -232 4t-221 -7l-10 10v61l10 10q80 3 99.5 14.5t21.5 48.5q7 130 7 455v178q-18 1 -120 -5l-10 10v31l9 14l75 46q34 21 40 28t6 19v15q-1 154 15 197t36 67t141 140
l62 59q27 27 68 64q55 40 134 40q33 0 76 -14q-1 -17 -3 -69q168 21 343 78l21 -12q0 -26 -6 -182t-7 -446z" />
    <glyph glyph-name="f_f_k. RQD" unicode="ffk" horiz-adv-x="2492" 
d="M1707 850v-327l99 81q65 53 182 177l104 110q29 31 46 54q85 -3 145 -3t114 3l10 -10v-60l-10 -10l-73 -4q-44 -2 -76 -25t-91 -70l-84 -69l-115 -104l214 -250q204 -238 245 -258q21 -10 44 -10l10 -11v-61l-10 -10q-67 4 -159 4t-180 -4q-56 102 -220 283t-195 203
l7 -342q2 -37 22 -49t99 -14l11 -10v-61l-10 -10q-95 7 -254 7t-253 -7l-10 10v61l10 10q79 2 99 13.5t22 49.5q7 130 7 455v335q0 210 -7 340q-2 37 -19 47t-76 14l2 -54l-31 -18q-48 50 -112 50t-93 -22t-36.5 -65.5t-7.5 -181.5v-140h61q68 0 176 8l14 -11l-23 -114
l-10 -10l-143 1q-46 0 -75 -1v-178q1 -454 11 -478t32 -31t106 -9l10 -10v-61l-10 -10l-74 3q-106 4 -232 4t-221 -7l-10 10v61l10 10q80 3 99.5 14.5t21.5 48.5q7 130 7 455v178h-380v-178q1 -454 11 -478t32 -31t106 -9l10 -10v-61l-10 -10l-74 3q-106 4 -232 4t-221 -7
l-10 10v61l10 10q80 3 99.5 14.5t21.5 48.5q7 130 7 455v178q-18 1 -120 -5l-10 10v31l9 14l75 46q34 21 40 28t6 19v15q-1 154 15 197t36 67t141 140l62 59q27 27 68 64q55 40 134 40q33 0 76 -14q-7 -112 -2 -207l-31 -18q-48 50 -112 50t-93 -22t-36.5 -65.5t-7.5 -181.5
v-140h380v31q-1 154 15 197t36 67t141 140l62 59q27 27 68 64q55 40 134 40q33 0 76 -14q-1 -17 -3 -69q168 21 343 78l21 -12q0 -26 -6 -182t-7 -446z" />
    <glyph glyph-name="f_j. RQD" unicode="fj" horiz-adv-x="1316" 
d="M584 1306q-64 0 -93 -22t-36.5 -65.5t-7.5 -181.5v-140h61q75 0 173 4q177 7 387 78l22 -13q-13 -64 -13 -307v-170l2 -294q2 -328 -56 -476q-108 -273 -344 -273q-17 0 -38 3l-22 72l10 14q18 -2 30 -2q105 0 137 102t31 514v410q0 179 -10 213t-34 40q-24 4 -100 7
l-8 -39l-10 -10l-143 1q-46 0 -75 -1v-178q1 -454 11 -478t32 -31t106 -9l10 -10v-61l-10 -10l-74 3q-106 4 -232 4t-221 -7l-10 10v61l10 10q80 3 99.5 14.5t21.5 48.5q7 130 7 455v178q-18 1 -120 -5l-10 10v31l9 14l75 46q34 21 40 28t6 19v15q-1 154 15 197t36 67
t141 140l62 59q27 27 68 64q55 40 134 40q33 0 76 -14q-7 -112 -2 -207l-31 -18q-48 50 -112 50zM1117 1309q0 -65 -44.5 -110.5t-108.5 -45.5t-109 45.5t-45 109.5t46 110t108 46t107.5 -45t45.5 -110z" />
    <glyph glyph-name="t_t. RQD" unicode="tt" horiz-adv-x="1299" 
d="M1073 901q109 0 188 7l11 -11l-14 -117l-10 -10h-208v-339q0 -163 4 -199t35 -61.5t77 -25.5t105 22l22 -36q-7 -9 -55 -53t-89 -91q-49 -16 -99 -16q-139 0 -203 81q-27 36 -37 86t-8 139l3 239v254h-372v-339q1 -163 5 -199t35 -61.5t77 -25.5t104 22l22 -36
q-6 -9 -54 -53t-90 -91q-49 -16 -99 -16q-139 0 -203 81q-26 36 -36 86t-9 139l3 239v250h-27l-53 -2h-41l-11 9v26l8 15q18 12 60 38t64 45v136q0 85 -8 180q126 40 253 103l26 -20q-12 -127 -17 -222l-9 -177h372v136q0 85 -8 180q126 40 253 103l26 -20
q-12 -124 -17 -222l-9 -173h33z" />
    <glyph glyph-name=".notdef" horiz-adv-x="1540" 
d="M652 381q-22 -150 -104 -258t-178 -123q139 158 170 381h112zM839 216q0 -68 -21.5 -162.5t-47.5 -146.5q-26 52 -47.5 146.5t-21.5 162.5t20 165h98q20 -97 20 -165zM368 742q-70 0 -70 -66q0 -52 48 -74q-48 -22 -98 -22q-96 0 -147 67t-51 147t56 142t180 62t234 -107
t133 -316h-118q-41 167 -167 167zM1170 0q-96 15 -178 123t-104 258h112q31 -223 170 -381zM1095 478q0 -45 -39 -45h-572q-39 0 -39 45t39 45h572q39 0 39 -45zM980 1206q0 -37 -81 -249.5t-81 -381.5h-96q0 169 -81 381.5t-81 249.5q0 67 73 128t137 114q64 -53 137 -114
t73 -128zM1254 998q124 0 180 -62t56 -142t-51 -147t-147 -67q-50 0 -98 22q48 22 48 74q0 66 -70 66q-126 0 -167 -167h-118q23 209 133 316t234 107z" />
    <glyph glyph-name="glyph1" horiz-adv-x="0" 
 />
    <glyph glyph-name="glyph2" horiz-adv-x="1536" 
 />
    <glyph glyph-name="space" unicode=" " horiz-adv-x="512" 
 />
    <glyph glyph-name="space" unicode="&#xa0;" horiz-adv-x="512" 
 />
    <glyph glyph-name="exclam" unicode="!" horiz-adv-x="569" 
d="M289 284q64 0 110 -45t46 -111t-45.5 -112.5t-109.5 -46.5t-110 46t-46 111t45.5 111.5t109.5 46.5zM139 1244q0 52 1 79q23 15 205 92l103 -1q1 -30 1 -71t-22 -198l-96 -698l-76 -42l-9 7q-8 41 -22 172.5t-50 369.5t-35 290z" />
    <glyph glyph-name="quotedbl" unicode="&#x22;" horiz-adv-x="789" 
d="M679 1346q0 -12 -7 -49l-69 -360h-68l-48 296q-3 17 -11 59t-8 54q0 44 31 74.5t75 30.5t74.5 -30.5t30.5 -74.5zM321 1346q0 -12 -7 -49l-69 -360h-68l-48 296q-3 17 -11 59t-8 54q0 44 31 74.5t75 30.5t74.5 -30.5t30.5 -74.5z" />
    <glyph glyph-name="quotedbl" unicode="&#x2ba;" horiz-adv-x="789" 
d="M679 1346q0 -12 -7 -49l-69 -360h-68l-48 296q-3 17 -11 59t-8 54q0 44 31 74.5t75 30.5t74.5 -30.5t30.5 -74.5zM321 1346q0 -12 -7 -49l-69 -360h-68l-48 296q-3 17 -11 59t-8 54q0 44 31 74.5t75 30.5t74.5 -30.5t30.5 -74.5z" />
    <glyph glyph-name="numbersign" unicode="#" horiz-adv-x="986" 
d="M340 497h229l77 410h-229zM173 0l63 341h-148l29 156h149l76 410h-148l29 156h148l55 296h76l-56 -296h229l55 296h75l-55 -296h148l-29 -156h-148l-77 -410h148l-29 -156h-148l-64 -341h-75l64 341h-229l-64 -341h-74z" />
    <glyph glyph-name="dollar" unicode="$" 
d="M746 337q0 184 -199 217v-472q91 24 145 92.5t54 162.5zM267 1050q0 -172 183 -208v427q-183 -47 -183 -219zM966 443q0 -190 -113 -318t-306 -155v-197l-11 -11h-76l-10 11v191q-194 0 -384 81l-6 13q19 117 21 307l11 10h60l12 -11l1 -74q1 -49 14 -89
q89 -118 271 -127v496q-201 38 -287 112q-113 97 -113 266q0 241 192 363q87 55 208 70v100l10 11h75l12 -10v-97q197 -8 333 -73l7 -15q-13 -56 -21 -193l-5 -85l-11 -10h-61l-11 10q-3 50 -3 91t-10 64q-64 93 -218 100v-448q203 -29 299 -101q120 -92 120 -282z" />
    <glyph glyph-name="percent" unicode="%" horiz-adv-x="1821" 
d="M575 1105q1 277 -141 277t-142 -288t136 -288q99 0 132 126q15 58 15 173zM1531 339q1 276 -141 276t-142 -288t136 -288q104 0 134 137q13 59 13 163zM787 1101q0 -159 -98 -261.5t-259 -102.5q-211 0 -308 175q-42 76 -42 176q0 160 98 261t256 101t255.5 -95
t97.5 -254zM1314 1482l-749 -1558h-68l-6 15l748 1557h68zM1382 684q150 0 255 -88t105 -254q0 -167 -97.5 -269t-255.5 -102t-255.5 97.5t-97.5 255.5t98 259t248 101z" />
    <glyph glyph-name="ampersand" unicode="&#x26;" horiz-adv-x="1706" 
d="M342 474q0 -87 53.5 -175t133 -142t179.5 -54t196 64q-145 124 -245 241.5t-201 285.5q-116 -71 -116 -220zM798 1162q0 62 -35 102.5t-93 40.5t-95 -43.5t-37 -108.5q0 -113 72 -263q188 130 188 272zM1144 519q0 89 -39 155h-180l-9 12q26 40 65 128q152 -5 332 -5
t312 16l10 -8q-34 -92 -36 -149l-10 -10q-134 12 -292 14q10 -45 10 -100q0 -132 -137 -301q62 -46 150.5 -73.5t138.5 -27.5t67.5 5t111.5 69l14 -6l20 -46l-3 -15q-20 -18 -91.5 -96t-92.5 -107q-72 -17 -117 -17q-187 0 -378 148q-182 -149 -416 -149t-356 123.5
t-122 277.5t88 253t234 169q-68 153 -68 259t34 145l96 113q61 72 84.5 88t76 33t106.5 17q108 0 170 -62t62 -164t-73 -196t-253 -207q77 -122 197 -259.5t230 -219.5q64 104 64 193z" />
    <glyph glyph-name="quotesingle" unicode="'" horiz-adv-x="465" 
d="M338 1346q0 -12 -7 -49l-69 -360h-68l-48 296q-3 17 -11 59t-8 54q0 44 31 74.5t75 30.5t74.5 -30.5t30.5 -74.5z" />
    <glyph glyph-name="quotesingle" unicode="&#x2b9;" horiz-adv-x="465" 
d="M338 1346q0 -12 -7 -49l-69 -360h-68l-48 296q-3 17 -11 59t-8 54q0 44 31 74.5t75 30.5t74.5 -30.5t30.5 -74.5z" />
    <glyph glyph-name="parenleft" unicode="(" horiz-adv-x="682" 
d="M128 624q0 190 47 338t152.5 292t230.5 229h15l39 -35v-15q-68 -83 -140.5 -212t-72.5 -601q0 -315 49.5 -487t163.5 -301v-14l-35 -39l-15 -2q-106 62 -222.5 212.5t-164 297.5t-47.5 337z" />
    <glyph glyph-name="parenright" unicode=")" horiz-adv-x="682" 
d="M554 624q0 -149 -26.5 -266t-95.5 -237.5t-156.5 -211.5t-154.5 -132l-15 2l-36 39v14q105 115 159.5 285t54.5 492q0 480 -72 609t-141 215l-1 15l39 35h16q154 -104 291.5 -321.5t137.5 -537.5z" />
    <glyph glyph-name="asterisk" unicode="*" horiz-adv-x="909" 
d="M816 978l-21 -21q-145 40 -311 70q66 -120 161 -251l-7 -14q-91 -35 -168 -75l-31 13q-3 77 -25 303q-85 -86 -205 -217l-34 4q-31 74 -85 155l8 16l282 107q-142 71 -283 124l-7 15q71 103 91 158l33 1q59 -74 207 -237q19 186 27 296l17 13q84 -38 187 -44l11 -30
q-49 -68 -169 -264q94 15 290 65l11 -8q6 -92 21 -179z" />
    <glyph glyph-name="plus" unicode="+" 
d="M993 515h-392v-386h-177v386h-392v172h392v386h177v-386h392v-172z" />
    <glyph glyph-name="comma" unicode="," horiz-adv-x="512" 
d="M0 -328q136 260 168 539l109 22q81 16 161 50l36 -34q-39 -93 -132.5 -264t-168.5 -275l-143 -63z" />
    <glyph glyph-name="hyphen" unicode="-" horiz-adv-x="682" 
d="M581 392h-532l-15 16q16 26 39 103t28 107h527l19 -20q-39 -66 -66 -206z" />
    <glyph glyph-name="hyphen" unicode="&#x2011;" horiz-adv-x="682" 
d="M581 392h-532l-15 16q16 26 39 103t28 107h527l19 -20q-39 -66 -66 -206z" />
    <glyph glyph-name="hyphen" unicode="&#x2010;" horiz-adv-x="682" 
d="M581 392h-532l-15 16q16 26 39 103t28 107h527l19 -20q-39 -66 -66 -206z" />
    <glyph glyph-name="hyphen" unicode="&#xad;" horiz-adv-x="682" 
d="M581 392h-532l-15 16q16 26 39 103t28 107h527l19 -20q-39 -66 -66 -206z" />
    <glyph glyph-name="period" unicode="." horiz-adv-x="512" 
d="M256 286q64 0 110 -45.5t46 -112.5t-46 -113t-110 -46t-110.5 46.5t-46.5 112.5t46.5 112t110.5 46z" />
    <glyph glyph-name="slash" unicode="/" horiz-adv-x="606" 
d="M-14 -51l486 1550l14 9h134l7 -14l-486 -1551l-13 -8h-135z" />
    <glyph glyph-name="zero" unicode="0" 
d="M712 560q0 391 -56 561q-45 136 -151 136q-107 0 -151 -107t-44 -407t40 -476q19 -84 40 -121q49 -86 134 -86q144 0 173 222q15 116 15 278zM526 1366q225 0 329 -142t104 -518q0 -374 -98 -543q-120 -207 -359 -207t-347 182q-89 150 -89 461t52 461t158 228t250 78z
" />
    <glyph glyph-name="one" unicode="1" 
d="M397 1175q-21 0 -294 -134l-12 7q-6 57 -21 127l1 8q276 78 617 209l21 -15q-14 -203 -17 -411l-3 -393q0 -422 12 -449q12 -26 40 -34t180 -16l13 -10v-61l-11 -12q-139 9 -339 9t-418 -9l-11 11v61l12 10q51 5 118 11t87 15t36 47t16 371v249q0 112 -4 284l-2 75
q0 50 -21 50z" />
    <glyph glyph-name="two" unicode="2" 
d="M497 0q-179 0 -430 -10l-13 12v91l204 208q230 233 302 358t72 250q0 239 -219 239q-122 0 -194 -93q-11 -43 -39 -150l-11 -10h-57l-10 10l37 334q126 126 339 126q213 -1 318 -101t105 -268t-142 -337q-81 -95 -191 -201t-230 -220l2 -13h177q77 0 146 2l173 5
q66 2 115 6l15 -13q-12 -117 -3 -222l-12 -14q-275 11 -454 11z" />
    <glyph glyph-name="three" unicode="3" 
d="M937 464q0 -213 -177.5 -360.5t-416.5 -147.5q-127 0 -244 55q-18 174 -48 294l6 14l50 15l12 -5q99 -253 317 -253q113 0 181.5 73t68.5 201t-73 196t-193 67q-55 0 -119 -18l-12 13q22 71 38 152h82q89 0 154 63t65 149t-57.5 138t-143.5 52q-136 0 -185 -70
q-23 -33 -44 -95l-11 -33l-14 -9l-51 4l-10 13l35 163q15 69 22 135q130 98 312 98q183 0 279 -81t96 -210q0 -186 -222 -302q112 1 208 -79t95 -232z" />
    <glyph glyph-name="four" unicode="4" 
d="M543 1206q-133 -213 -187 -314t-183 -382h359zM672 0q-140 0 -371 -8l-10 11v62l11 11l107 8q79 6 97 25t21 105l4 131h-132l-200 -2q-54 0 -159 -3l-14 83q40 127 220 459t281 459l251 50l18 -17q-18 -193 -18 -629v-235h32q47 0 140 5l12 -11q-3 -98 0 -148l-12 -12
q-16 1 -51 1h-121q0 -220 20 -239q20 -20 72 -24t88 -9l10 -9v-60l-11 -12q-145 8 -285 8z" />
    <glyph glyph-name="five" unicode="5" 
d="M928 483q0 -215 -169 -371t-418 -156q-107 0 -230 47q-6 57 -64 280l6 14l48 17l14 -6q100 -231 321 -231q157 0 221 137q29 62 29 144q0 134 -72 211.5t-192 77.5t-236 -84l-39 22q13 193 13 315v138q0 148 -15 311l13 10q242 -11 378 -11t333 11l9 -16
q-12 -99 -12 -133t3 -79l-10 -13q-123 6 -313 6t-278 -8l-8 -327q146 69 271 69q183 0 290 -102t107 -273z" />
    <glyph glyph-name="six" unicode="6" 
d="M719 344q1 156 -55 236t-148 80q-119 0 -158 -103q-18 -48 -18 -133q0 -220 83 -311q47 -52 118 -52q178 0 178 283zM960 454q0 -288 -204 -431q-96 -67 -240 -67q-204 0 -320 149t-117 417q0 268 98 448q97 178 263 288t373 110l79 -65l-31 -34q-36 6 -68 6
q-154 0 -270 -113q-144 -141 -177 -486q134 125 161 136q64 27 149 27q128 0 216 -100t88 -285z" />
    <glyph glyph-name="seven" unicode="7" 
d="M308 0q-54 0 -117 -5l-10 22l431 743q53 90 82 147l95 185l-7 18h-253l-179 -3q-87 -1 -107 -8t-30.5 -31t-30.5 -189l-11 -11l-62 2l-11 11q6 111 6 221t-6 249l13 11q239 -11 501 -11t384 5l11 -9v-82q-385 -703 -585 -1259l-16 -11q-44 5 -98 5z" />
    <glyph glyph-name="eight" unicode="8" 
d="M731 309q0 144 -129 217q-84 48 -180 87l-27 11q-142 -109 -142 -273q0 -95 35 -154q78 -132 220 -132q99 0 161 68.5t62 175.5zM724 1042q0 98 -58.5 157.5t-153.5 59.5t-146 -54q-51 -55 -51 -131q0 -124 164 -203q23 -12 70 -34l54 -23q121 78 121 228zM954 430
q0 -123 -42 -213q-80 -171 -260 -234q-74 -26 -180 -26q-226 0 -347 170q-54 75 -54 213t97 233q32 31 141 90q-201 113 -201 319q0 233 212 341q92 47 209 47q173 0 269 -84t96 -216q0 -179 -191 -292q139 -59 195 -142t56 -206z" />
    <glyph glyph-name="nine" unicode="9" 
d="M508 664q176 0 176 236q0 185 -54 274t-147 89q-115 0 -156 -125q-22 -67 -22 -158q-1 -156 55 -236t148 -80zM945 797q0 -494 -360 -730q-170 -111 -373 -111l-79 65l24 39q30 -11 74 -11q156 0 273 116q140 137 175 483q-149 -137 -166 -139q-66 -24 -142 -24
q-133 -1 -220 101t-87 284q0 292 205 432q97 66 239 66q268 0 381 -249q56 -123 56 -322z" />
    <glyph glyph-name="colon" unicode=":" horiz-adv-x="512" 
d="M256 286q64 0 110 -45.5t46 -112.5t-46 -113t-110 -46t-110.5 46.5t-46.5 112.5t46.5 112t110.5 46zM256 933q65 0 110.5 -47.5t45.5 -111.5t-45.5 -111t-110.5 -47t-111 46.5t-46 112.5t46 112t111 46z" />
    <glyph glyph-name="semicolon" unicode=";" horiz-adv-x="512" 
d="M-53 -328q136 260 168 539l109 22q81 16 161 50l36 -34q-39 -93 -132.5 -264t-168.5 -275l-143 -63zM265 933q65 0 111 -45.5t46 -111.5t-46 -113t-110 -47t-110.5 46t-46.5 112t45.5 112.5t110.5 46.5z" />
    <glyph glyph-name="less" unicode="&#x3c;" 
d="M993 15l-961 435v154l961 437v-176l-728 -337l728 -337v-176z" />
    <glyph glyph-name="equal" unicode="=" 
d="M993 352h-961v172h961v-172zM993 715h-961v172h961v-172z" />
    <glyph glyph-name="greater" unicode="&#x3e;" 
d="M993 450l-961 -435v176l728 337l-728 337v176l961 -437v-154z" />
    <glyph glyph-name="question" unicode="?" horiz-adv-x="909" 
d="M401 285q64 0 109.5 -46.5t45.5 -111.5t-46 -111.5t-110 -46.5t-109.5 46t-45.5 112t46 112t110 46zM358 396q-47 55 -47 149q0 93 101 213l55 65q101 120 101 224q0 74 -52.5 123.5t-145.5 49.5t-127.5 -30t-76.5 -155l-15 -8l-52 9l-8 15l41 146q19 65 24 124
q113 99 310 99q233 0 304.5 -115t71.5 -204t-43 -166t-141 -154l-68 -53q-180 -141 -180 -225q0 -33 19 -78l-6 -14l-49 -21z" />
    <glyph glyph-name="at" unicode="@" horiz-adv-x="1428" 
d="M541 526q0 -178 94 -178q49 0 109 68t102 257q20 91 20 152q0 116 -90 116q-110 0 -195 -221q-40 -104 -40 -194zM1093 983q-119 -445 -119 -601q0 -68 53 -68q63 0 116 60q125 143 125 390q0 246 -199 360q-108 62 -267 62t-304 -80t-225 -232t-80 -323
q-1 -221 131 -373t386 -152t457 178l17 -16q-7 -24 -18 -59q-214 -171 -497 -171q-397 0 -569 271q-87 137 -87 321t99 340q98 156 276 258q178 100 424 100t422 -136q175 -136 175 -361q0 -262 -204 -420q-109 -84 -216 -84q-67 0 -119 37t-49 133q-111 -159 -232 -159
t-182 70t-61 192q0 194 116 338t302 144q103 0 153 -64l8 41l144 26z" />
    <glyph glyph-name="A" unicode="A" horiz-adv-x="1593" 
d="M702 539q129 0 208 3l-214 524l-205 -524q82 -3 211 -3zM1198 0q-115 0 -273 -6l-9 10v63l10 11l87 5q55 3 55 39q0 21 -28 94l-81 211q-138 2 -249 2t-265 -2l-44 -122q-50 -139 -50 -175.5t47 -43.5q26 -4 102 -8l10 -10v-64l-10 -10q-185 6 -232 6t-209 -6l-10 9v65
l11 10q103 6 126.5 41t176.5 417l261 653q29 76 88 229h142l530 -1247q31 -71 60 -81.5t91 -10.5l9 -11v-64l-9 -10q-222 6 -337 6z" />
    <glyph glyph-name="B" unicode="B" horiz-adv-x="1353" 
d="M931 420q0 300 -315 300q-40 0 -91 -3v-463q0 -75 4 -147q41 -7 115 -7q140 0 214 86t73 234zM888 1084q0 221 -230 221q-76 0 -129 -8q-4 -105 -4 -194v-276q23 -2 92 -2q181 0 238 116q33 67 33 143zM1190 1133q0 -142 -111 -237q-53 -44 -115 -68t-139 -42
q412 -18 412 -335q0 -251 -243 -389q-120 -68 -309 -68q-60 0 -99 1l-239 5q-128 0 -198 -6l-10 10v28l5 12q74 47 82 62t9 130l3 224v507q0 238 -13 310q-5 29 -34 37q-15 4 -117 10l-10 10v68l10 9q89 -6 306 -6l398 9q279 0 366 -127q46 -67 46 -154z" />
    <glyph glyph-name="C" unicode="C" horiz-adv-x="1479" 
d="M897 -43q-522 0 -714 376q-89 174 -89 377q0 328 220 526t607 198q245 0 479 -89l13 -15q-34 -138 -42 -323l-9 -10h-59l-10 11q-3 121 -11 168q-124 141 -364 141t-378 -154t-138 -418q0 -357 246 -548q131 -102 341 -102t401 103l25 -23l-46 -102q-211 -116 -472 -116z
" />
    <glyph glyph-name="D" unicode="D" horiz-adv-x="1702" 
d="M1301 738q0 277 -134 426q-71 78 -173 109t-238 31t-221 -13q-10 -112 -10 -542l2 -437q1 -146 8 -194q88 -14 180 -14q199 0 319 60t193 214q74 154 74 360zM1608 786q0 -339 -228 -569t-640 -223l-353 6q-144 2 -238 -6l-10 10v28l5 12q74 47 82 62t9 130l3 224v507
q0 238 -13 310q-5 29 -34 37q-15 4 -117 10l-10 10v68l10 9q106 -6 202 -6l607 9q259 0 405 -62t233 -203t87 -363z" />
    <glyph glyph-name="E" unicode="E" horiz-adv-x="1241" 
d="M238 967q0 238 -13 310q-5 29 -34 37q-15 4 -117 10l-10 10v68l10 9q101 -6 300.5 -6t726.5 6l11 -8l-13 -111q-6 -53 -9 -90l-7 -93l-10 -11h-58l-10 10q-1 136 -14 152.5t-109.5 24.5t-176.5 8t-169 -7q-11 -105 -11 -291v-207q79 -5 128 -5l131 1q92 1 106 17t19 133
l10 10h62l10 -10q-4 -112 -4 -209t4 -217l-10 -9h-67l-10 10q0 115 -16 137q-25 34 -227 33q-73 0 -136 -5v-305q0 -131 5 -254h136q350 0 374 34q10 14 19 60l24 124l10 11h61l11 -10q-22 -146 -22 -330l-10 -10l-727 6q-182 0 -257 -6l-10 10v28l5 12q74 47 81.5 62.5
t9.5 129.5l3 224v507z" />
    <glyph glyph-name="F" unicode="F" horiz-adv-x="1142" 
d="M665 1293q-41 0 -129 -6q-11 -102 -11 -366v-135l113 -3q51 -1 189 4q27 1 39 20t15 127l10 10h62l10 -10q-4 -112 -4 -209t4 -217l-10 -9h-67l-10 10q0 105 -9 123q-17 35 -89 41t-136 6q-63 0 -117 -3v-238q0 -237 13 -310q5 -29 34 -37q7 -2 143 -10l10 -10v-67
l-11 -10l-402 6q-86 1 -238 -6l-10 9v68l10 10q102 6 117 10q29 8 34 37q13 73 13 310v529q0 237 -13 310q-5 29 -34 37q-15 4 -117 10l-10 10v68l10 9q96 -6 270 -6t712 6l10 -8l-13 -114q-4 -38 -9 -100l-6 -80l-10 -11h-58l-10 10q-2 135 -16 154q-23 31 -279 31z" />
    <glyph glyph-name="G" unicode="G" horiz-adv-x="1706" 
d="M1516 296q0 -130 8 -214q-334 -126 -606 -126q-358 0 -579.5 200.5t-221.5 546.5q0 451 391 643q179 88 455 88q159 0 309 -32t228 -69l9 -18q-26 -88 -43 -306l-11 -10h-60l-10 10q0 106 -14 162q-44 60 -154 103t-242 43q-354 0 -489 -286q-62 -132 -62 -306
q0 -279 151 -465t398 -186q131 0 253 56q7 70 7 180q-1 110 -7 130q-6 18 -36 24t-171 16l-11 10v63l11 10q164 -5 579 0l10 -10v-48l-10 -11q-62 -15 -72 -41.5t-10 -156.5z" />
    <glyph glyph-name="H" unicode="H" horiz-adv-x="1706" 
d="M1322 0q-212 0 -306 -6l-10 9v68l11 10q102 6 117 10q29 8 34 37q13 72 13 310v241q-51 5 -313 5t-343 -5v-241q0 -238 13 -310q5 -29 34 -37q15 -4 117 -10l10 -10v-67l-9 -10q-100 6 -312 6t-304 -6l-10 9v68l10 10q102 6 117 10q29 8 34 37q13 72 13 310v529
q0 238 -13 310q-5 29 -34 37q-15 4 -117 10l-10 10v68l10 9q96 -6 310 -6t306 6l9 -9v-69l-10 -9q-102 -6 -117 -10q-29 -8 -34 -37q-13 -72 -13 -310v-165q106 -5 345 -5t311 5v165q0 238 -13 310q-5 29 -34 37q-15 4 -117 10l-11 10v68l10 9q98 -6 312 -6t304 6l10 -9v-69
l-9 -9q-104 -6 -118 -10q-29 -8 -34 -37q-13 -72 -13 -310v-529q0 -238 13 -310q5 -29 34 -37q15 -4 117 -10l10 -10v-67l-10 -10q-98 6 -310 6z" />
    <glyph glyph-name="I" unicode="I" horiz-adv-x="797" 
d="M398.5 0q-208.5 0 -308.5 -6l-9 10v67l10 10q102 6 117 10q29 8 34 37q13 72 13 310v529q0 238 -13 310q-5 29 -34 37q-15 4 -117 10l-10 10v68l10 9q96 -6 307.5 -6t307.5 6l10 -9v-68l-10 -10q-102 -6 -117 -10q-29 -8 -34 -37q-13 -72 -13 -310v-529q0 -238 13 -310
q5 -29 34 -37q15 -4 117 -10l10 -10v-67l-9 -10q-100 6 -308.5 6z" />
    <glyph glyph-name="J" unicode="J" horiz-adv-x="797" 
d="M567 967v-744q0 -201 -46 -321t-179 -236t-260 -117q-42 0 -82 15q5 75 5 185l23 14q81 -73 143 -73q86 0 96 91q13 118 13 354v832q0 237 -13 310q-5 29 -34 37q-7 2 -140 10l-10 10v68l10 9q138 -6 343 -6t295 6l10 -9v-69l-10 -9q-102 -6 -117 -10q-29 -8 -34 -37
q-13 -73 -13 -310z" />
    <glyph glyph-name="K" unicode="K" horiz-adv-x="1576" 
d="M1314 0q-60 0 -180 -6q-23 50 -103 141l-297 339q-97 110 -209 202v-238q0 -238 13 -310q5 -29 34 -37q15 -4 117 -10l10 -10v-67l-9 -10q-100 6 -312 6t-304 -6l-10 9v68l10 10q102 6 117 10q29 8 34 37q13 72 13 310v529q0 238 -13 310q-5 29 -34 37q-15 4 -117 10
l-10 10v68l10 9q96 -6 310 -6t306 6l9 -9v-69l-10 -9q-102 -6 -117 -10q-29 -8 -34 -37q-13 -72 -13 -310v-248q187 174 268 258l142 147q73 76 187 208v69l11 10q77 -6 157 -6t198 6l10 -10v-62l-10 -10q-116 1 -184 -45t-295 -260l-202 -192q43 -58 140 -171l224 -260
q249 -289 288 -307q24 -11 79 -12l10 -11v-67l-10 -10q-164 6 -224 6z" />
    <glyph glyph-name="L" unicode="L" horiz-adv-x="1241" 
d="M238 967q0 238 -13 310q-5 29 -34 37q-15 4 -117 10l-10 10v68l10 9q104 -6 306 -6t309 6l10 -9v-69l-10 -9q-102 -6 -117 -10q-29 -8 -34 -37q-13 -72 -13 -310v-598q0 -131 5 -254h136q350 0 374 34q10 14 19 60l24 124l10 11h61l11 -10q-22 -146 -22 -330l-10 -10
l-727 6q-182 0 -257 -6l-10 10v28l5 12q74 47 82 62t9 130l3 224v507z" />
    <glyph glyph-name="M" unicode="M" horiz-adv-x="2048" 
d="M1656 0q-212 0 -306 -6l-9 9v68l10 10q102 6 117 10q29 8 34 37q13 72 13 310v676l-223 -457q-19 -38 -130 -280l-183 -400h-67q-52 124 -141 313l-402 842v-694q0 -238 13 -310q5 -29 34 -37q15 -4 117 -10l10 -10v-68l-10 -9q-115 6 -222 6t-223 -6l-10 9v68l10 10
q102 6 117 10q29 8 34 37q13 72 13 310v529q0 238 -13 310q-5 29 -34 37q-15 4 -117 10l-10 10v68l10 9q104 -6 244 -6t232 6q33 -76 94 -214l382 -803l153 310l239 511q42 91 82 196q112 -6 230 -6t222 6l10 -9v-69l-10 -9q-102 -6 -117 -10q-29 -8 -34 -37
q-13 -72 -13 -310v-529q0 -238 13 -310q5 -29 34 -37q15 -4 117 -10l10 -10v-67l-10 -10q-98 6 -310 6z" />
    <glyph glyph-name="N" unicode="N" horiz-adv-x="1706" 
d="M1465 967v-406q0 -449 13 -585l-13 -9q-113 19 -171 27q-268 301 -915 1098v-654q0 -238 13 -310q5 -29 34 -37q15 -4 117 -10l10 -10v-68l-10 -9q-115 6 -222 6t-223 -6l-10 9v68l10 10q102 6 117 10q29 8 34 37q13 72 13 310v529q0 238 -13 310q-5 29 -34 37
q-15 4 -117 10l-10 10v68l10 9q96 -6 206 -6t199 6q360 -480 846 -1029v585q0 238 -13 310q-5 29 -34 37q-15 4 -117 10l-10 10v68l10 9q112 -6 227 -6t218 6l10 -9v-68l-11 -10q-102 -6 -117 -10q-29 -8 -34 -37q-13 -72 -13 -310z" />
    <glyph glyph-name="O" unicode="O" horiz-adv-x="1706" 
d="M1304 687q0 290 -116.5 460.5t-341.5 170.5q-297 0 -394 -267q-50 -137 -50 -307q0 -309 116 -491t351 -182q285 0 383 281q52 149 52 335zM1612 739q0 -369 -212 -576t-564 -207t-547 192.5t-195 535.5q0 481 367 666q167 84 411 84q348 0 544 -184t196 -511z" />
    <glyph glyph-name="P" unicode="P" horiz-adv-x="1250" 
d="M1198 1098q0 -206 -140.5 -321.5t-317.5 -115.5q-60 0 -121 14q-9 27 -35 72l21 22q42 -14 77 -14q101 0 162 71.5t61 200.5q0 279 -251 279q-30 0 -120 -12q-9 -24 -9 -327v-529q0 -238 13 -310q5 -29 34 -37q9 -2 137 -10l11 -11v-66l-10 -10q-137 6 -340 6t-296 -6
l-10 9v67l11 11q101 6 116 10q29 8 34 37q13 72 13 310v529q0 238 -13 310q-5 29 -34 37q-15 4 -117 10l-10 11v66l11 10q98 -6 301 -6l424 6q274 0 356 -139q42 -72 42 -174z" />
    <glyph glyph-name="Q" unicode="Q" horiz-adv-x="1706" 
d="M1304 687q0 290 -116.5 460.5t-341.5 170.5q-297 0 -394 -267q-50 -137 -50 -307q0 -309 116 -491t351 -182q285 0 383 281q52 149 52 335zM1612 740q0 -234 -92 -414t-269.5 -275t-423.5 -95q-31 0 -63 2q88 -15 308 -93l156 -55q125 -44 188 -44t168 46l10 -9v-54
l-8 -14q-183 -110 -204 -131q-94 0 -382 88t-371 87q-48 0 -188 -87l-15 5l-16 46l4 15q20 19 126 92t191 111q-289 20 -463 210t-174 526t205 536.5t573 200.5q450 0 642 -304q98 -156 98 -390z" />
    <glyph glyph-name="R" unicode="R" horiz-adv-x="1462" 
d="M641 751q97 -1 151 29t97 100t43 167q0 169 -126 228q-60 28 -142 28t-129 -8q-10 -98 -10 -334v-523q0 -238 13 -310q5 -29 34 -37q15 -4 117 -10l10 -10v-67l-9 -10q-100 6 -312 6t-304 -6l-10 9v68l10 10q102 6 117 10q29 8 34 37q13 72 13 310v529q0 238 -13 310
q-5 29 -34 37q-15 4 -117 10l-10 10v68l10 9q98 -6 308 -6l424 9q173 0 254 -31q164 -63 164 -258q0 -272 -306 -386q50 -84 106 -170l154 -237q136 -210 181 -239q23 -15 64 -15l10 -10v-64l-10 -10l-209 6q-51 0 -162 -6q-4 24 -38 80l-248 414l-111 169q-21 31 -59 61
l11 34q23 -1 34 -1z" />
    <glyph glyph-name="S" unicode="S" horiz-adv-x="1251" 
d="M1144 443q0 -147 -88 -265q-165 -223 -512 -222q-210 0 -412 96l-12 22q28 115 28 327l10 10h64l9 -10v-23q0 -56 12 -148q36 -64 131 -111t200 -47q198 0 274 138q39 71 39 147q0 128 -107 183q-53 27 -171 45q-267 41 -351 103q-127 94 -127 295t142 326t389 125
t391 -75l7 -24q-24 -119 -29 -286l-11 -10h-63l-10 10q-3 120 -10 156q-31 47 -111 81t-168 33q-134 0 -210 -69q-76 -70 -75 -180q0 -110 83 -164q54 -35 255 -67q21 -3 117 -20q187 -33 263 -149q53 -82 53 -227z" />
    <glyph glyph-name="T" unicode="T" horiz-adv-x="1366" 
d="M963 1284h-134q-2 -35 -2 -278v-568q0 -238 13 -310q5 -29 34 -37q15 -4 117 -10l10 -10v-67l-10 -10q-99 6 -311 6t-305 -6l-9 9v68l10 10q102 6 117 10q29 8 34 37q13 72 13 310v568q0 247 -3 278h-143q-179 0 -202 -8t-35 -30q-12 -21 -18 -161l-10 -10h-63l-11 10
l-2 171q-1 72 -12 149l9 10q59 -10 430 -10h405q342 0 430 10l10 -10q-12 -74 -13 -153l-2 -167l-10 -10h-63l-11 9q-5 128 -11 150q-12 40 -64 47q-20 3 -188 3z" />
    <glyph glyph-name="U" unicode="U" horiz-adv-x="1593" 
d="M1382 858v-308q0 -297 -117 -424q-155 -168 -429 -168q-501 0 -584 297q-24 87 -24 454v258q0 238 -13 310q-5 29 -34 37q-15 4 -117 10l-10 10v67l10 10q96 -6 310 -6t305 6l10 -10v-67l-10 -10q-102 -6 -117 -10q-29 -8 -34 -37q-13 -72 -13 -310v-206q0 -378 34 -463
q68 -168 335 -168q175 0 273 86q46 41 64 83q37 86 37 296v208q0 438 -11 466.5t-36 38.5t-125 16l-10 10v67l10 10q87 -6 167.5 -6t276.5 6l10 -10v-67l-10 -10q-118 0 -133 -64.5t-15 -401.5z" />
    <glyph glyph-name="V" unicode="V" horiz-adv-x="1593" 
d="M346 1405q180 0 344 6l10 -11v-67l-9 -10q-101 -1 -133 -18q-17 -10 -17 -35t65 -189l300 -744l222 557q12 32 70 190t58 189q0 32 -22 39t-134 11l-10 10v68l11 10q113 -6 217 -6t231 6l11 -11v-67l-10 -10q-70 -7 -89.5 -16t-42.5 -47t-85 -187l-205 -495
q-173 -420 -233 -591h-152l-459 1113q-72 174 -98 198t-126 25l-10 11v66l11 11q105 -6 285 -6z" />
    <glyph glyph-name="W" unicode="W" horiz-adv-x="2048" 
d="M334 1405q100 0 307 6l11 -10v-64l-10 -9q-68 -4 -92 -6q-48 -5 -47 -50q0 -23 19 -125l34 -183q15 -79 53 -255l59 -271l126 303q38 90 114 271l118 286q33 79 52 131h92q102 -288 380 -978l177 709q20 85 20 106q0 45 -47 52q-17 3 -107 9l-10 10v63l11 11
q172 -7 200 -6l232 6l10 -10v-65l-10 -9q-47 -1 -67 -5q-42 -7 -65 -72q-54 -150 -181 -643l-90 -346q-56 -214 -63 -274h-153l-51 138q-127 342 -234 612l-57 143q-19 49 -39 104l-261 -619q-39 -92 -109 -268l-44 -110h-146l-247 1147q-19 88 -28 115q-20 63 -57 71
q-17 4 -78 8l-10 9v63l11 11q177 -6 277 -6z" />
    <glyph glyph-name="X" unicode="X" horiz-adv-x="1366" 
d="M162 0q-70 0 -113 -3l-10 10v64l10 11q81 6 105 21t130 159l131 177q8 10 160 216l-198 345q-130 224 -198 265q-23 14 -45 14t-65 -3l-13 10l-8 53l9 15q141 29 363 80q62 -40 112 -120t118 -206l113 -210l130 190q161 236 209 321q40 -4 94 -4t123 4l10 -10v-66
l-10 -10q-69 -1 -109 -26t-385 -508q50 -92 143 -259l128 -220q106 -182 133.5 -205.5t89.5 -23.5l10 -10v-64l-10 -10l-204 3q-50 1 -175 -3q-30 37 -98 163l-208 385l-79 -113q-150 -215 -278 -435q-45 3 -115 3z" />
    <glyph glyph-name="Y" unicode="Y" horiz-adv-x="1366" 
d="M880 537v-99q0 -293 18 -326q8 -14 28 -19.5t118 -11.5l10 -10v-67l-10 -10q-99 6 -310.5 6t-305.5 -6l-9 9v68l10 10q98 6 118 11.5t28 19.5q18 33 18 326v118q0 38 -158.5 306.5t-253.5 365.5q-46 47 -62 53.5t-75 6.5l-11 11v56l10 11q244 48 313 68q52 -25 93 -65
q85 -83 228 -370l131 -262q59 95 225 382l111 199q18 33 49 91h146l10 -10v-35q-158 -215 -305 -459t-155.5 -281.5t-8.5 -86.5z" />
    <glyph glyph-name="Z" unicode="Z" horiz-adv-x="1366" 
d="M644 2q-184 0 -582 -8l-10 9v70q74 93 226 309l146 208l187 275q93 136 278 421l-251 -1q-291 -1 -326 -11t-45 -43q-4 -13 -17 -93l-8 -50l-11 -10h-61l-10 12q7 106 7 162t-2 149l10 10q137 -6 427 -6t662 6l10 -10v-60l-82 -115q-129 -178 -222 -314l-296 -434
q-50 -73 -233 -358q53 -2 161 -2q507 0 540 28q18 15 35 99t22 103l11 10h60l11 -11q-21 -182 -32 -344l-10 -9q-411 8 -595 8z" />
    <glyph glyph-name="bracketleft" unicode="[" horiz-adv-x="682" 
d="M388 -218q-74 0 -232 -8l-15 18q11 121 19 485l4 207v289q0 86 -4 232l-6 219q-3 96 -13 245l11 13q142 -7 225 -7t241 6l9 -9v-60l-10 -11q-172 -7 -192.5 -26.5t-24.5 -117.5t-5 -262l-2 -185l2 -549q3 -291 10 -333t33.5 -55t178.5 -18l10 -10v-60l-9 -10
q-156 7 -230 7z" />
    <glyph glyph-name="backslash" unicode="\" horiz-adv-x="606" 
d="M623 -51l-7 -14h-134l-14 8l-486 1551l7 14h134l14 -9z" />
    <glyph glyph-name="bracketright" unicode="]" horiz-adv-x="682" 
d="M294 -218q-74 0 -230 -7l-9 10v60l10 10q152 5 178.5 18t33.5 55t10 333l2 186v363q0 476 -13 524t-62 57q-28 5 -149 10l-10 11v60l9 9q158 -6 241 -6t225 7l11 -13q-10 -149 -13 -245l-6 -219q-4 -146 -4 -232v-289l13 -568q2 -35 10 -124l-15 -18q-158 8 -232 8z" />
    <glyph glyph-name="asciicircum" unicode="^" 
d="M993 661h-199l-282 551l-282 -551h-199l387 758h188z" />
    <glyph glyph-name="underscore" unicode="_" 
d="M1024 -333h-1024v122h1024v-122z" />
    <glyph glyph-name="grave" unicode="`" horiz-adv-x="682" 
d="M533 1119l-56 -30l-328 385l25 28l219 -29l140 -341v-13z" />
    <glyph glyph-name="a" unicode="a" 
d="M330 281q0 -136 119 -136q101 0 161 94v246q-165 -36 -222.5 -77.5t-57.5 -126.5zM610 570q0 246 -210 246q-74 0 -119 -32l-38 -93l-13 -7l-51 12l-7 14l5 118q165 122 248 138q35 7 91 7q197 0 281 -103q61 -75 61 -230l-8 -309q0 -151 5 -192.5t23.5 -52.5t88.5 -13
l10 -11v-56l-11 -11q-84 5 -181 5t-175 -5l-9 11l9 134l-194 -148q-31 -23 -106 -23q-111 0 -170.5 67t-59.5 185q0 156 103 224t427 125z" />
    <glyph glyph-name="b" unicode="b" horiz-adv-x="1251" 
d="M638 101q126 -1 188 99t62 255t-67.5 243t-181.5 88q-66 0 -122 -32t-79 -70v-472q75 -111 200 -111zM1145 575q0 -181 -86 -313q-37 -57 -67 -79.5t-89 -64.5t-129 -92t-120 -60t-96 -10q-118 0 -251 83l-93 -75l-45 16q19 318 19 554v393q0 232 -10 337q-5 52 -53 61
q-11 2 -83 5l-10 11v55l10 11q191 20 387 83l22 -12q-13 -374 -13 -579v-106l121 101q90 75 207 75q242 0 335 -192q44 -91 44 -202z" />
    <glyph glyph-name="c" unicode="c" horiz-adv-x="909" 
d="M549 -44q-223 0 -341 128t-118 342t91 322q25 30 132 106t155.5 95.5t166.5 19.5t207 -41l10 -18q-1 -13 -14 -93l-11 -68q-3 -17 -9 -134l-10 -10h-60l-10 10q-6 89 -14 124q-44 78 -169 78q-212 0 -212 -275q0 -200 86 -317t244 -117q96 0 169 41l19 -23l-44 -99
q-136 -71 -268 -71z" />
    <glyph glyph-name="d" unicode="d" horiz-adv-x="1251" 
d="M805 525v188q-71 86 -127 106t-107 20q-138 0 -178 -142q-22 -79 -22 -176q0 -207 97 -307q52 -53 130 -53q78 1 136 43t68 88q3 14 3 233zM1015 0q-77 0 -205 -7l-9 7q4 49 4 164q-36 -30 -111 -100q-76 -70 -104 -84q-28 -15 -100 -15q-171 0 -276 129t-105 331t81 313
q20 29 132 109q112 79 164 101t140 22q89 0 179 -44v56q0 264 -10 300t-35 40t-101 8l-10 11v55l10 11q192 20 387 83l22 -12q0 -4 -6 -159t-7 -586v-323q1 -282 11 -304t28 -28t96 -11l10 -10v-54l-10 -10q-98 7 -175 7z" />
    <glyph glyph-name="e" unicode="e" 
d="M691 587q0 270 -168 270q-177 0 -177 -268v-22q58 -9 170.5 -9t173.5 9q1 14 1 20zM676 111q96 0 228 66l24 -29l-44 -99q-146 -93 -317 -93q-225 0 -349.5 127t-124.5 362q0 279 133 382q184 142 356 142t271 -104.5t99 -303.5q0 -17 -1 -51l-11 -14q-132 -36 -350 -36
l-237 -3q6 -147 93 -246.5t230 -99.5z" />
    <glyph glyph-name="f" unicode="f" horiz-adv-x="797" 
d="M213 771q-3 0 -123 -6l-10 10v31l9 14l89 46q26 12 55 29q5 6 5 18v15q0 154 16 197t35 67q20 24 141 140l62 59q27 27 69 64q55 40 115 40t104 -14l-4 -107l2 -100l-31 -18q-48 50 -122 50q-116 0 -130 -89q-7 -45 -7 -180v-140h91q68 0 176 8l14 -11l-23 -114l-10 -10
l-143 1q-76 0 -105 -1v-178q0 -454 11 -478t35 -31q24 -6 133 -9l10 -10v-61l-10 -10l-74 3q-105 4 -257 4t-246 -7l-10 10v61l10 10q96 4 118 14t23 49q7 130 7 455v178q-22 1 -25 1z" />
    <glyph glyph-name="g" unicode="g" horiz-adv-x="1138" 
d="M888 -188q0 114 -76 142q-32 12 -128 13l-190 2q-32 0 -88 -2q-137 -85 -137 -191t81 -163t222 -57t228.5 71t87.5 185zM706 630q0 252 -168 252t-167 -218q0 -258 173 -258q162 0 162 224zM1117 -69q0 -219 -163.5 -349t-427.5 -130q-207 0 -327.5 77.5t-120.5 208.5
q0 88 39 133q3 5 79 50t99 57q-138 24 -138 133q0 58 40 118q3 5 41 31t98 70q-216 78 -216 289q0 163 122 262.5t322 99.5t310 -87q62 -4 96 -2t133 5l12 -11l-11 -103l-11 -10h-148q13 -48 13 -98q0 -238 -231 -325q-104 -39 -205 -39q-34 0 -88 5q-63 -34 -63 -87t73 -60
q42 -4 140 -4l222 6q226 0 281 -100q30 -54 30 -140z" />
    <glyph glyph-name="h" unicode="h" horiz-adv-x="1251" 
d="M1015 0q-73 0 -207 -7l-10 10q18 223 18 344v196q0 244 -176 244q-94 -1 -141 -59t-47 -140v-118q0 -203 7 -333q1 -39 23 -49t118 -14l11 -10v-61l-10 -10q-95 7 -274 7t-273 -7l-10 10v61l10 10q96 4 118 14t23 49q7 130 7 455v335q0 210 -7 340q-2 37 -22 48.5
t-116 14.5l-10 11v55l10 11q193 21 387 83l21 -12l-7 -182t-6 -446v-56l176 148q66 27 145 27q159 0 238 -96q64 -78 64 -229l-8 -313q0 -151 5 -192.5t23 -52.5t104 -13l9 -10v-59l-10 -11q-110 7 -183 7z" />
    <glyph glyph-name="i" unicode="i" horiz-adv-x="682" 
d="M341 0q-179 0 -273 -7l-10 10v61l10 10q96 3 117.5 13.5t23.5 49.5q7 130 7 279v143q0 194 -11.5 222t-35 31.5t-98.5 6.5l-10 10v56l10 11q192 17 387 83l21 -13q-13 -182 -13 -307v-319q0 -73 7 -203q2 -39 23.5 -49.5t117.5 -13.5l11 -10v-61l-10 -10q-95 7 -274 7z
M487 1309q0 -65 -45 -110.5t-108.5 -45.5t-108.5 45.5t-45 110.5t45.5 110t108 45t108 -45t45.5 -110z" />
    <glyph glyph-name="j" unicode="j" horiz-adv-x="682" 
d="M463 659v-170l2 -294q2 -328 -56 -476q-108 -273 -344 -273q-17 0 -38 3l-22 72l10 14q18 -2 30 -2q105 0 137 102t31 514v410q0 179 -10 213t-34 40q-24 4 -102 7l-10 10v56l10 11q191 17 387 83l22 -13q-13 -64 -13 -307zM483 1309q0 -65 -44.5 -110.5t-108.5 -45.5
t-109 45.5t-45 109.5t46 110t108 46t107.5 -45t45.5 -110z" />
    <glyph glyph-name="k" unicode="k" horiz-adv-x="1251" 
d="M1060 -3q-92 0 -179 -4q-56 102 -220 283t-195 203l7 -342q1 -39 23 -49t118 -14l11 -10v-61l-10 -10q-95 7 -274 7t-273 -7l-10 10v61l10 10q96 4 118 14t23 49q7 130 7 455v335q0 210 -7 340q-2 37 -22 48.5t-116 14.5l-10 11v55l10 11q193 21 387 83l21 -12l-7 -182
t-6 -446v-327l99 81q65 53 182 177l104 110q29 31 46 54q85 -3 145 -3t114 3l10 -10v-60l-10 -10l-73 -4q-45 -2 -77 -25t-90 -70l-84 -69l-115 -104l214 -250q204 -238 245 -258q21 -10 44 -10l10 -11v-61l-10 -10q-68 4 -160 4z" />
    <glyph glyph-name="l" unicode="l" horiz-adv-x="682" 
d="M341 0q-179 0 -273 -7l-10 10v61l10 10q96 4 118 14t23 49q7 130 7 455v335q0 210 -7 340q-2 37 -22 48.5t-116 14.5l-10 11v55l10 11q193 21 387 83l21 -12l-7 -182t-6 -446v-258q0 -325 7 -455q1 -39 23 -49t118 -14l11 -10v-61l-10 -10q-95 7 -274 7z" />
    <glyph glyph-name="m" unicode="m" horiz-adv-x="1821" 
d="M1572 0q-136 0 -188 -6l-14 19q16 249 16 363v91q0 147 -10 202t-49 91t-110 36t-121 -42t-50 -107v-298l4 -158q2 -65 10 -81t26 -22q20 -6 99 -13l11 -10v-60l-12 -11q-121 6 -260 6t-249 -6l-11 11v59l10 12q63 6 84 10t28 28q7 22 8 114l2 323q0 112 -16 155
q-33 91 -134 91q-102 0 -155 -60q-25 -28 -29.5 -45t-4.5 -75v-217q0 -237 12 -288q6 -21 33.5 -28.5t83.5 -8.5l10 -10v-61l-10 -10q-85 6 -259 6t-268 -7l-10 10v61l10 10q95 4 117 14t24 49q7 130 7 279v143q-1 200 -13 225q-12 24 -34 28t-98 7l-10 10v56l10 11
q180 17 379 83l22 -13l-2 -159l178 144q49 22 140 22t155 -37.5t103 -131.5l182 147q49 23 119 23q193 0 268 -140q33 -62 33 -152t-1 -117l-1 -38q-2 -48 -2 -64v-130q0 -151 5 -192.5t23 -52.5t102 -13l10 -11v-59l-10 -11q-57 6 -193 6z" />
    <glyph glyph-name="n" unicode="n" horiz-adv-x="1251" 
d="M1015 0q-73 0 -207 -7l-10 10q18 223 18 344v196q0 244 -176 244q-92 0 -140 -58t-48 -112v-187q0 -259 13 -318q8 -35 116 -37l10 -10v-61l-10 -10q-85 6 -259 6t-268 -7l-10 10v61l10 10q96 4 118 14t23 49q7 130 7 279v143q0 200 -12 225q-12 24 -36 28q-22 4 -97 7
l-10 10v56l10 11q180 17 379 83l22 -13l-2 -168l172 144q66 27 145 27q159 0 238 -96q64 -78 64 -229l-8 -313q0 -151 5 -192.5t23 -52.5t104 -13l9 -10v-59l-10 -11q-110 7 -183 7z" />
    <glyph glyph-name="o" unicode="o" horiz-adv-x="1139" 
d="M780 414q0 249 -54.5 356.5t-166.5 107.5q-199 0 -199 -359q0 -461 223 -461q139 0 177 153q20 80 20 203zM584 983q473 0 473 -487q0 -354 -238 -479q-116 -61 -265 -61q-230 0 -350.5 133t-120.5 381q0 343 234 457q115 56 267 56z" />
    <glyph glyph-name="p" unicode="p" horiz-adv-x="1251" 
d="M899 457q0 218 -115 294q-61 40 -127 40q-123 0 -204 -101v-496q91 -96 200 -96q163 0 218 169q28 85 28 190zM1156 574q0 -118 -38 -214q-38 -97 -76 -138t-102 -91t-163 -125q-59 -39 -148 -39t-176 32v-375q1 -46 9 -58t26 -16t131 -12l11 -10v-62l-10 -10
q-135 8 -284 8t-275 -8l-10 10v60l10 11q101 3 113 14t19 40q6 29 8 232l2 155v581q-1 9 -5 111t-11.5 120t-30.5 22t-99 7l-10 10v56l10 11q191 17 387 83l22 -13q0 -43 -9 -173q67 56 169 139q49 37 151 37q248 0 338 -190q41 -87 41 -205z" />
    <glyph glyph-name="q" unicode="q" horiz-adv-x="1251" 
d="M580 841q-216 0 -216 -339q0 -153 58 -254t181 -101q122 0 198 119v460q-84 115 -221 115zM938 -536q-106 0 -304 -8l-10 10v62l11 10q136 10 151 22t15 64v522q-146 -115 -208 -170q-40 -20 -100 -20q-173 0 -279 120t-106 333t84 325q28 37 132 106q194 129 324 129
q132 0 288 -87l104 86l45 -22l-16 -103q-18 -117 -18 -419v-446q0 -404 21 -422q12 -10 25 -13.5t96 -5.5l10 -11v-60l-10 -10q-149 8 -255 8z" />
    <glyph glyph-name="r" unicode="r" horiz-adv-x="797" 
d="M616 743q-79 0 -128 -60q-30 -37 -30 -109v-234q0 -73 7 -203q2 -37 21 -48t139 -15l10 -9v-61l-10 -10q-147 6 -309 6t-256 -7l-10 10v61l10 10q96 4 118 14t23 49q7 130 7 279v143q0 200 -12 225q-12 24 -36 28q-22 4 -97 7l-10 10v56l10 11q180 17 379 83l22 -13
l-2 -196q62 72 150 168q42 40 98 40t85 -12l-7 -178q-1 -44 -4 -100l-42 -13q-47 68 -126 68z" />
    <glyph glyph-name="s" unicode="s" horiz-adv-x="909" 
d="M839 300q0 -148 -121.5 -246t-317.5 -98q-139 0 -298 60l-11 15q9 92 11 143l5 126l10 11h59l12 -11q4 -112 9 -132q85 -109 223 -109q88 0 141 42.5t53 124.5t-80 112q-34 13 -167 41t-189 73q-85 68 -85 207q-1 139 107 229t282 90t280 -54l9 -16q-11 -45 -17 -231
l-11 -10h-57l-11 10q-4 72 -14 117q-63 80 -183 80q-78 0 -128 -38t-50 -100q0 -83 85 -111q38 -11 177 -39t193 -71q84 -67 84 -215z" />
    <glyph glyph-name="t" unicode="t" horiz-adv-x="682" 
d="M456 901q109 0 188 7l11 -11l-14 -117l-10 -10h-208v-339q1 -163 5 -199t35 -61.5t77 -25.5t104 22l22 -36q-6 -8 -54 -53t-90 -91q-49 -16 -99 -16q-139 0 -203 81q-26 36 -36 86t-9 139l3 239v250h-27l-53 -2h-41l-11 9v26l8 15q18 12 60 38t64 45v136q0 85 -8 180
q126 40 253 103l26 -20q-12 -124 -17 -222l-9 -173h33z" />
    <glyph glyph-name="u" unicode="u" horiz-adv-x="1251" 
d="M199 559q0 198 -12.5 224t-35 29.5t-98.5 6.5l-10 10v56l10 11q191 17 387 83l22 -13q-13 -166 -13 -307v-195q-1 -137 9 -192q20 -117 148 -117q78 0 137 50q56 50 58.5 106.5t2.5 68.5v179q0 196 -12 223t-34.5 30.5t-98.5 6.5l-11 10v56l11 11q190 17 387 83l21 -13
q-13 -150 -13 -307v-314q0 -211 9 -232t28 -26.5t99 -10.5l11 -10v-61l-10 -10q-150 5 -189 5l-195 -5l-8 8q8 82 8 156q-52 -39 -182 -166q-65 -25 -139 -25q-135 0 -213 73.5t-78 211.5l4 178v128z" />
    <glyph glyph-name="v" unicode="v" horiz-adv-x="1138" 
d="M851 828q0 21 -20.5 27.5t-98.5 9.5l-11 10v59l11 10q77 -3 186 -3t190 3l10 -10v-61l-10 -11q-62 -4 -78 -14t-36 -45.5t-75 -161.5l-191 -443q-10 -24 -86 -215h-175q-55 158 -141 372t-160 403q-33 84 -71 98q-22 8 -59 9l-11 11v58l11 10q92 -3 256 -3t252 3l11 -10
v-59l-11 -11q-74 -2 -96 -9t-22 -31t94 -272t114 -293q217 509 217 569z" />
    <glyph glyph-name="w" unicode="w" horiz-adv-x="1706" 
d="M303 941q182 0 272 3l11 -10v-60l-11 -9q-78 0 -104 -7t-26 -29t10 -60l121 -461l240 534q25 60 54 127h102l283 -661l98 298q55 167 55 204t-17 43t-112 11l-11 10v59l12 11q74 -3 190 -3t198 3l11 -10v-60l-11 -10q-59 -2 -75 -8.5t-34 -32t-109 -299.5l-116 -348
q-15 -44 -30 -98l-27 -95h-164l-109 268l-161 371q-138 -289 -246 -555l-34 -84h-162q-3 7 -15 61t-28 112l-147 524q-33 116 -45 141t-27.5 32.5t-96.5 10.5l-10 11v59l11 10q78 -3 260 -3z" />
    <glyph glyph-name="x" unicode="x" 
d="M811 0q-115 0 -139 -2q-26 35 -127 206l-77 136q-127 -168 -236 -342q-34 2 -94 2t-82 -2l-12 11v58l11 11q55 1 86 21t270 335l-131 219q-57 96 -80 129t-42.5 44.5t-37.5 11.5t-51 -4l-14 9l-11 54l9 14q169 33 288 64q77 -57 233 -335q74 96 166 233l53 79
q61 -3 102 -3t80 3l12 -12v-57l-10 -10q-53 -4 -78 -17.5t-181 -203.5l-86 -104l144 -255q102 -181 131 -199q13 -8 70 -16l10 -11v-59l-10 -10q-51 2 -166 2z" />
    <glyph glyph-name="y" unicode="y" horiz-adv-x="1139" 
d="M210 -553q-74 0 -143 35q17 71 35 199l26 5q52 -74 141 -74q105 0 193 205l41 96l-324 842q-28 73 -51.5 90.5t-92.5 18.5l-10 10v60l11 10q64 -3 238.5 -3t279.5 3l10 -10v-60l-10 -10q-114 0 -114 -41q0 -18 59 -181l146 -386l88 211q129 309 129 361q0 36 -116 36
l-10 10v60l11 10q58 -3 166 -3t193 3l11 -10v-61l-9 -9q-66 0 -90 -38q-13 -22 -107.5 -227t-180.5 -418l-161 -398q-75 -185 -158.5 -260.5t-200.5 -75.5z" />
    <glyph glyph-name="z" unicode="z" 
d="M458 1q-140 0 -412 -8l-11 10v57q103 114 557 771h-117q-229 -1 -245 -15t-20 -42l-17 -106l-11 -10h-59l-11 10q8 178 8 208t-1 61l9 9q76 -5 345 -7l145 -1q66 0 299 7l10 -11v-61l-181 -245q-66 -90 -157 -220l-133 -191q-52 -75 -74 -110l108 -2q59 -1 188 5
t142.5 17.5t45.5 180.5l11 10h60l11 -10q-22 -205 -22 -308l-7 -7q-321 8 -461 8z" />
    <glyph glyph-name="braceleft" unicode="{" horiz-adv-x="635" 
d="M194 30v371q0 101 -19 132q-37 61 -101 70l-74 10v40l74 10q94 13 114 113q6 30 6 89v371q0 160 83 219t251 59q17 0 71 -1v-40q-182 -19 -197 -147q-2 -17 -2 -80v-349q0 -130 -48.5 -185.5t-157.5 -78.5q110 -23 158 -79t48 -185v-349q0 -63 2 -80q15 -128 197 -147
v-40l-71 -1q-168 0 -251 59t-83 219z" />
    <glyph glyph-name="bar" unicode="|" 
d="M433 0v1497h157v-1497h-157z" />
    <glyph glyph-name="braceright" unicode="}" horiz-adv-x="635" 
d="M441 401v-371q0 -160 -83 -219t-251 -59q-17 0 -71 1v40q182 19 197 147q2 17 2 80v349q1 129 49 185t157 79q-109 23 -157 79t-49 185v349q0 63 -2 80q-15 128 -197 147v40l71 1q168 0 251 -59t83 -219v-371q0 -101 19 -132q37 -61 101 -70l74 -10v-40l-74 -10
q-94 -13 -114 -113q-6 -30 -6 -89z" />
    <glyph glyph-name="asciitilde" unicode="~" 
d="M726 366q-70 0 -146 34t-154 72q-76 38 -110 38q-80 0 -181 -182l-101 112q117 253 279 253q63 0 139 -34t154 -72q76 -38 110 -38q81 0 174 168l99 -116q-49 -107 -121 -171t-142 -64z" />
    <glyph glyph-name="exclamdown" unicode="&#xa1;" horiz-adv-x="569" 
d="M441 -312q0 -54 -2 -75q-25 -17 -204 -92l-103 1q-1 23 -1 68t21 201l97 698l76 42l9 -7q7 -36 20 -164t50 -372q37 -246 37 -300zM290 973q64 0 110 -45.5t46 -111.5t-46 -112.5t-110 -46.5t-110 46t-46 113t46 112t110 45z" />
    <glyph glyph-name="cent" unicode="&#xa2;" 
d="M405 537q0 -122 38.5 -222.5t110.5 -154.5v651q-149 -29 -149 -274zM152 425q0 94 12 152t38 107.5t52 75.5t136.5 104t163.5 93v176l11 11h68l11 -10v-165h35q136 0 225 -41l10 -18q-1 -12 -14 -93l-11 -68q-3 -22 -9 -134l-10 -10h-60l-10 10q-6 89 -14 124
q-40 66 -142 76v-697q42 -10 114 -10t146 41l19 -23l-44 -99q-76 -39 -124 -52.5t-111 -17.5v-166l-10 -10h-69l-11 10v168q-203 15 -282.5 118.5t-99.5 178.5t-20 169z" />
    <glyph glyph-name="sterling" unicode="&#xa3;" 
d="M841 -30q-91 0 -307 58t-323 58q-9 0 -29 -1q-2 -2 -36 -48t-63 -68h-43q-4 23 -4 67t7 96q48 41 125 79q47 171 47 355q0 60 -1 95l-49 2q-69 0 -119 -4l-10 10v91l11 10q42 -5 117 -5h50q0 149 9.5 222.5t47.5 129.5t156.5 139t200.5 118t150 35t101 -4.5t98 -33.5
l6 -16q-1 -16 -12 -135l-10 -138l-11 -10h-54l-11 10q0 71 -11 122q-21 38 -67 53.5t-88 15.5t-95 -20.5t-85.5 -95t-43.5 -241.5l-11 -151h95q106 0 237 5l11 -10q-1 -35 -1 -54t1 -40l-11 -10q-168 5 -224 5h-119l-24 -106q-38 -163 -183 -344q160 4 188 4l391 -21
q20 0 29 9.5t17.5 66t9.5 86.5l10 10h60l11 -11q-10 -100 -11 -349l-86 -33q-28 -3 -44 -3z" />
    <glyph glyph-name="currency" unicode="&#xa4;" 
d="M252 476q0 -106 76 -182.5t183 -76.5t183.5 76.5t76.5 183.5t-75.5 183.5t-183.5 76.5t-184 -77.5t-76 -183.5zM513 133q-123 0 -225 83l-182 -196l-76 76l199 184q-61 90 -61 196t61 198l-199 184l76 77l182 -197q100 83 224 83q64 0 114.5 -19t109.5 -64l181 196
l76 -76l-199 -184q62 -92 62 -197t-62 -197l199 -184l-76 -76l-181 196q-100 -83 -223 -83z" />
    <glyph glyph-name="yen" unicode="&#xa5;" 
d="M669 506h295l10 -10v-63l-10 -10h-295v-153q0 -140 23 -162t150 -25l10 -10v-69l-10 -10q-164 6 -314 6t-280 -6l-10 10v69l10 10q80 2 90 2q56 7 70 39t14 146v153h-297l-10 10v63l10 10h297v98q-10 22 -48 102h-249l-10 11v62l10 10h211l-129 289q-68 151 -124 189
q-20 14 -59 17l-10 10v61l9 12l266 69q86 -110 152 -281l161 -420l293 669h114v-40l-272 -575h227l10 -10v-63l-10 -10h-261q-23 -61 -34 -102v-98z" />
    <glyph glyph-name="brokenbar" unicode="&#xa6;" 
d="M433 0v592h157v-592h-157zM433 906v592h157v-592h-157z" />
    <glyph glyph-name="section" unicode="&#xa7;" 
d="M217 598q0 -60 36 -103.5t113 -78t224 -86.5t164 -57q58 65 58 144t-58 124.5t-106 65.5t-155 54q-107 35 -154 53t-54 20q-68 -76 -68 -136zM496 -328q120 0 195.5 63t75.5 160t-75.5 139t-225.5 90t-221.5 83t-126 91.5t-54.5 172.5t42 170t114 125q-93 77 -93 223
t132 295.5t357 149.5q112 0 245 -65l5 -14q-14 -67 -25 -202l-7 -82l-11 -10l-57 1l-11 10q-3 102 -15 151q-20 25 -77.5 46.5t-129.5 21.5t-134 -24t-96 -72.5t-34 -92.5q0 -84 70.5 -132.5t204.5 -86.5q133 -38 217 -66t143.5 -98.5t59.5 -185.5q0 -69 -26 -136.5
t-119 -161.5q46 -37 78.5 -75t32.5 -143q0 -185 -150.5 -329t-349.5 -144q-198 0 -322 88l-6 16q27 154 27 302l10 11h60l11 -10q4 -116 15 -167q87 -112 271 -112z" />
    <glyph glyph-name="dieresis" unicode="&#xa8;" horiz-adv-x="682" 
d="M266 1252q0 -54 -38 -92.5t-91 -38.5t-91 38.5t-38 92.5t38 92.5t91 38.5t91 -38.5t38 -92.5zM674 1253q0 -55 -38 -93.5t-91 -38.5t-91 38.5t-38 92.5t38 92.5t91 38.5t91 -37.5t38 -92.5z" />
    <glyph glyph-name="copyright" unicode="&#xa9;" horiz-adv-x="1530" 
d="M761 280q-177 0 -280.5 119.5t-103.5 283.5q0 122 55.5 227t150.5 155t231 50t257 -60v-218h-68q-15 59 -25.5 86t-51 71.5t-127.5 44.5q-115 0 -179 -93.5t-64 -235.5t74 -245t195 -103q93 0 136 40t79 95l54 -23q-92 -194 -333 -194zM763 1310q-157 0 -301 -80
t-228.5 -225t-84.5 -311t82.5 -308.5t225.5 -225t307 -82.5t308 82.5t226.5 226t82.5 307.5t-85 311.5t-230.5 226t-302.5 78.5zM762 1423q186 0 359 -93t273 -267t100 -369t-97.5 -364t-267 -267t-364.5 -98t-364.5 98t-267 267t-97.5 365t99.5 367.5t270 266t356.5 94.5z
" />
    <glyph glyph-name="ordfeminine" unicode="&#xaa;" horiz-adv-x="602" 
d="M202 963q0 -80 62 -80q54 0 87 48v149q-87 -19 -118 -41t-31 -76zM577 637h-533v65h533v-65zM461 794q-58 0 -106 -3l-10 12l5 63l-101 -75q-18 -14 -67 -14q-143 0 -143 152q-1 44 25 84t49 55q54 34 238 67q-1 84 -39 108t-74 24q-71 0 -92 -55q-1 -3 -7 -18l-13 -6
l-33 8l3 84q102 73 138 80t69 7q120 0 172 -62q38 -45 38 -136l-5 -177q0 -83 3 -107q5 -39 61 -43l10 -11v-29l-11 -11q-52 3 -110 3z" />
    <glyph glyph-name="guillemotleft" unicode="&#xab;" 
d="M515 470v51q81 67 207 195t180 174h15l39 -30v-14q-34 -50 -216 -348l216 -364l-2 -14l-39 -29h-16q-38 31 -150 149t-234 230zM88 470v51q71 60 201 189t186 180h15l39 -30l1 -14q-8 -8 -217 -348l216 -364l-2 -14l-39 -29h-15q-39 32 -151 150t-234 229z" />
    <glyph glyph-name="logicalnot" unicode="&#xac;" 
d="M993 242h-177v407h-784v179h961v-586z" />
    <glyph glyph-name="registered" unicode="&#xae;" horiz-adv-x="1530" 
d="M715 744q123 0 160 54t37 126t-43 115.5t-109 43.5t-82 -9.5t-16 -39.5v-287q35 -3 53 -3zM428 332v41l14 -1q62 0 69.5 17.5t7.5 51.5v565q0 66 -18 73t-53 7h-20v44h356q200 0 237 -78t37 -122t-31.5 -110t-173.5 -99q35 -12 51 -23t43 -42.5t63 -109.5
q37 -77 59 -114.5t36.5 -48t42.5 -10.5v-41h-119q-54 0 -75 17.5t-73 135.5t-70 150t-38.5 45t-48.5 13t-62 -3v-239q0 -65 19.5 -70.5t69.5 -7.5v-41h-323zM763 1310q-157 0 -301 -80t-228.5 -225t-84.5 -311t82.5 -308.5t225.5 -225t307 -82.5t308 82.5t226.5 226
t82.5 307.5t-85 311.5t-230.5 226t-302.5 78.5zM762 1423q186 0 359 -93t273 -267t100 -369t-97.5 -364t-267 -267t-364.5 -98t-364.5 98t-267 267t-97.5 365t99.5 367.5t270 266t356.5 94.5z" />
    <glyph glyph-name="macron" unicode="&#xaf;" horiz-adv-x="682" 
d="M664 1184h-646v126h646v-126z" />
    <glyph glyph-name="macron" unicode="&#x2c9;" horiz-adv-x="682" 
d="M664 1184h-646v126h646v-126z" />
    <glyph glyph-name="degree" unicode="&#xb0;" horiz-adv-x="819" 
d="M622 1102q0 88 -62.5 150.5t-150.5 62.5t-150 -62.5t-62 -150.5t62 -150.5t150 -62.5t150.5 62.5t62.5 150.5zM746 1102q0 -140 -98 -238.5t-238 -98.5t-238.5 98.5t-98.5 238.5t98.5 238.5t238.5 98.5t238 -98.5t98 -238.5z" />
    <glyph glyph-name="plusminus" unicode="&#xb1;" 
d="M993 0h-961v172h961v-172zM993 645h-392v-311h-177v311h-392v172h392v352h177v-352h392v-172z" />
    <glyph glyph-name="uni00B2" unicode="&#xb2;" horiz-adv-x="658" 
d="M608 609q0 -26 4 -57l-12 -13q-219 6 -307 6t-241 -6l-12 12v60l153 151q71 69 117 124q84 100 84 205q0 135 -133 135q-70 0 -116 -55q-5 -17 -23 -90l-11 -9h-31l-11 11l22 193q117 90 227 90t183 -56t73 -170t-128 -235l-223 -212h108q163 0 269 9l14 -13
q-6 -54 -6 -80z" />
    <glyph glyph-name="uni00B3" unicode="&#xb3;" horiz-adv-x="658" 
d="M596 826q0 -136 -116 -222t-255 -85q-79 0 -156 35q-11 85 -31 180l6 14l32 11l12 -5q61 -157 191 -157q67 0 107.5 46t40.5 114q0 148 -155 148q-33 0 -75 -12l-13 14l25 95q17 0 56 5q127 11 127 120q0 47 -36 77.5t-81 30.5q-45 -1 -75 -13t-40 -25t-20 -41t-15 -40
l-12 -9l-27 3l-10 13l35 174q96 70 199 70q102 1 168 -43t66 -140t-121 -171q173 -29 173 -187z" />
    <glyph glyph-name="acute" unicode="&#xb4;" horiz-adv-x="682" 
d="M533 1474l-328 -385l-56 30v13l140 341l219 29z" />
    <glyph glyph-name="mu" unicode="&#xb5;" horiz-adv-x="1383" 
d="M1166 357q0 -139 20.5 -187.5t61.5 -48.5t115 35l5 -6l-9 -63q-37 -30 -123.5 -72.5t-148.5 -42.5t-96 22.5t-45 56t-16 111.5q-109 -106 -203 -150.5t-192 -44.5q-159 0 -224 100q30 -373 97 -594l-14 -22q-169 -17 -222 -17l-19 14l18 464q8 222 8 513t-15 531
q132 8 251 23l22 -13q-9 -132 -9 -338t23 -321.5t79.5 -165.5t121.5 -50t127 38.5t93.5 94.5t38.5 148.5t7 262.5t-11 307q28 2 120.5 15.5t125.5 21.5l23 -13q-10 -182 -10 -609z" />
    <glyph glyph-name="mu" unicode="&#x3bc;" horiz-adv-x="1383" 
d="M1166 357q0 -139 20.5 -187.5t61.5 -48.5t115 35l5 -6l-9 -63q-37 -30 -123.5 -72.5t-148.5 -42.5t-96 22.5t-45 56t-16 111.5q-109 -106 -203 -150.5t-192 -44.5q-159 0 -224 100q30 -373 97 -594l-14 -22q-169 -17 -222 -17l-19 14l18 464q8 222 8 513t-15 531
q132 8 251 23l22 -13q-9 -132 -9 -338t23 -321.5t79.5 -165.5t121.5 -50t127 38.5t93.5 94.5t38.5 148.5t7 262.5t-11 307q28 2 120.5 15.5t125.5 21.5l23 -13q-10 -182 -10 -609z" />
    <glyph glyph-name="paragraph" unicode="&#xb6;" horiz-adv-x="1313" 
d="M755 -231h123v1557h-123v-1557zM537 1328q-52 0 -143.5 -52t-91.5 -206q0 -101 67.5 -180.5t202.5 -110.5v547q-24 2 -35 2zM572 108v571q-152 2 -349.5 106.5t-197.5 318.5q0 145 123.5 235t295.5 90l423 -9l374 7v-90q-105 -3 -128.5 -8.5t-34.5 -27.5t-12 -142
l-5 -294v-750l3 -203q2 -104 12 -124t31 -27.5t134 -9.5v-88l-422 4l-421 -4v88q104 4 129.5 8t35 52.5t9.5 296.5z" />
    <glyph glyph-name="periodcentered" unicode="&#xb7;" horiz-adv-x="512" 
d="M256 780q64 0 110.5 -45.5t46.5 -112.5t-46 -113.5t-111 -46.5t-111 46.5t-46 113.5t46.5 112.5t110.5 45.5z" />
    <glyph glyph-name="periodcentered" unicode="&#x2219;" horiz-adv-x="512" 
d="M256 780q64 0 110.5 -45.5t46.5 -112.5t-46 -113.5t-111 -46.5t-111 46.5t-46 113.5t46.5 112.5t110.5 45.5z" />
    <glyph glyph-name="cedilla" unicode="&#xb8;" horiz-adv-x="682" 
d="M569 -286q0 -71 -72 -126t-181 -55t-198 33l-5 16l19 43l15 5q63 -22 111 -22t87 28q38 28 38 70q0 44 -25.5 66.5t-57.5 22.5t-61 -5l-20 16l83 194h79l-61 -138q33 5 64 5q81 0 133 -41t52 -112z" />
    <glyph glyph-name="uni00B9" unicode="&#xb9;" horiz-adv-x="658" 
d="M372 545q-122 0 -259 -5l-11 11v32l10 10q80 8 126 16q20 3 24 33t4 249v122l-1 168q0 29 -1.5 49.5t-46.5 1.5q-44 -19 -136 -67l-15 7q-6 33 -16 72l3 12q172 47 383 127l20 -14q0 -6 -6 -87t-7 -301v-89q1 -211 5 -245t24 -37q39 -7 109 -16l12 -10v-33l-12 -11
q-87 5 -209 5z" />
    <glyph glyph-name="ordmasculine" unicode="&#xba;" horiz-adv-x="669" 
d="M451 1024q0 224 -69 267q-21 13 -64 13t-70.5 -42.5t-27.5 -169.5q0 -270 123 -270q75 0 96 82q12 46 12 120zM625 637h-579v65h579v-65zM343 1366q287 0 287 -287q0 -99 -37 -172q-73 -145 -267 -145q-285 0 -285 302q0 202 142 269q70 33 160 33z" />
    <glyph glyph-name="guillemotright" unicode="&#xbb;" 
d="M936 521v-51q-115 -105 -230 -226t-154 -153h-16l-39 29l-2 14l216 364l-216 348v14l39 30h15q49 -42 179 -172t208 -197zM509 521l1 -51q-122 -111 -234 -229t-151 -150h-16l-39 29l-2 14q4 6 76 127l140 237l-216 348l1 14l38 30h15q52 -45 181 -175t206 -194z" />
    <glyph glyph-name="onequarter" unicode="&#xbc;" horiz-adv-x="1659" 
d="M372 545q-122 0 -259 -5l-11 11v32l10 10q80 8 126 16q20 3 24 33t4 249v122l-1 168q0 29 -1 43q-2 27 -47 8q-44 -19 -136 -67l-15 7q-6 33 -16 72l3 12q172 47 383 127l20 -14q0 -6 -6 -87t-7 -301v-89q1 -211 5 -245t24 -37q39 -7 109 -16l12 -10v-33l-12 -11
q-87 5 -209 5zM1317 1352l-914 -1396h-68l-6 15l913 1395h68zM1336 730q-111 -173 -213 -413h207l2 211q1 115 4 202zM1396 0q-74 0 -193 -5l-10 11v34l10 10q49 5 82 10q33 6 37 34t7 110h-72l-123 -1q-48 0 -104 -2l-10 10v48q24 79 138 277t172 270l161 30l16 -15
q-11 -98 -11 -376v-128q41 0 101 3l12 -10q-1 -24 -1 -46t1 -48l-12 -12h-101q0 -90 6 -114t48 -32l52 -10l11 -9v-32l-12 -12q-131 5 -205 5z" />
    <glyph glyph-name="onehalf" unicode="&#xbd;" horiz-adv-x="1659" 
d="M372 545q-122 0 -259 -5l-11 11v32l10 10q80 8 126 16q20 3 24 33t4 249v122l-1 168q0 29 -1 43q-2 27 -47 8q-44 -19 -136 -67l-15 7q-6 33 -16 72l3 12q172 47 383 127l20 -14q0 -6 -6 -87t-7 -301v-89q1 -211 5 -245t24 -37q39 -7 109 -16l12 -10v-33l-12 -11
q-87 5 -209 5zM1317 1352l-914 -1396h-68l-6 15l913 1395h68zM1605 64q0 -26 4 -57l-12 -13q-219 6 -307 6t-241 -6l-12 12v60l153 151q70 69 116 124q84 100 85 205q0 135 -133 135q-70 0 -116 -55q-5 -17 -23 -90l-11 -9h-31l-11 11l22 193q118 90 228 90t182 -56
q73 -55 73 -169t-128 -236l-223 -212h108q163 0 269 9l14 -13q-6 -54 -6 -80z" />
    <glyph glyph-name="threequarters" unicode="&#xbe;" horiz-adv-x="1659" 
d="M596 826q0 -136 -116 -222t-255 -85q-79 0 -156 35q-11 85 -31 180l6 14l32 11l12 -5q61 -157 191 -157q67 0 107 46t41 114q0 148 -155 148q-33 0 -75 -12l-13 14l25 95q17 0 56 5q127 11 127 120q0 47 -36 77t-81 31q-45 -1 -75 -13t-41 -25q-9 -13 -19 -41t-15 -40
l-12 -9l-27 3l-10 13l35 174q96 70 199 70q102 1 168 -43t66 -140t-121 -171q173 -29 173 -187zM1317 1352l-914 -1396h-68l-6 15l913 1395h68zM1336 730q-111 -173 -213 -413h207l2 211q1 115 4 202zM1396 0q-74 0 -193 -5l-10 11v34l10 10q49 5 82 10q33 6 37 34t7 110
h-72l-123 -1q-48 0 -104 -2l-10 10v48q24 79 138 277t172 270l161 30l16 -15q-11 -98 -11 -376v-128q41 0 101 3l12 -10q-1 -24 -1 -46t1 -48l-12 -12h-101q0 -90 6 -114t48 -32l52 -10l11 -9v-32l-12 -12q-131 5 -205 5z" />
    <glyph glyph-name="questiondown" unicode="&#xbf;" horiz-adv-x="909" 
d="M604 418q0 -66 -22.5 -116.5t-78.5 -117.5l-55 -65q-101 -122 -101 -226q0 -72 52 -121.5t146 -49.5t125 29t80 156l14 8l53 -10l7 -13l-40 -144q-19 -65 -25 -127q-109 -99 -299 -99q-189 0 -288 92t-99 224q0 89 41.5 166t142.5 157l69 53q179 141 179 225q0 31 -19 77
l7 15l49 21l15 -6q47 -62 47 -128zM516 657q-64 0 -110.5 45t-46.5 112t45.5 112.5t109.5 45.5t110 -45.5t46 -111.5t-45 -112t-109 -46z" />
    <glyph glyph-name="Agrave" unicode="&#xc0;" horiz-adv-x="1593" 
d="M702 539q129 0 208 3l-214 524l-205 -524q82 -3 211 -3zM1198 0q-115 0 -273 -6l-9 10v63l10 11l87 5q55 3 55 39q0 21 -28 94l-81 211q-138 2 -249 2t-265 -2l-44 -122q-50 -139 -50 -175t47 -44q26 -4 102 -8l10 -10v-64l-10 -10q-185 6 -232 6t-209 -6l-10 9v65l11 10
q102 6 126 41t177 417l261 653q29 76 88 229h142l530 -1247q31 -71 60 -81t91 -11l9 -11v-64l-9 -10q-222 6 -337 6zM948 1584l-46 -35l-451 326l22 30l256 -31l219 -276v-14z" />
    <glyph glyph-name="Aacute" unicode="&#xc1;" horiz-adv-x="1593" 
d="M702 539q129 0 208 3l-214 524l-205 -524q82 -3 211 -3zM1198 0q-115 0 -273 -6l-9 10v63l10 11l87 5q55 3 55 39q0 21 -28 94l-81 211q-138 2 -249 2t-265 -2l-44 -122q-50 -139 -50 -175t47 -44q26 -4 102 -8l10 -10v-64l-10 -10q-185 6 -232 6t-209 -6l-10 9v65l11 10
q102 6 126 41t177 417l261 653q29 76 88 229h142l530 -1247q31 -71 60 -81t91 -11l9 -11v-64l-9 -10q-222 6 -337 6zM1115 1875l-451 -326l-46 35v14l219 276l256 31z" />
    <glyph glyph-name="Acircumflex" unicode="&#xc2;" horiz-adv-x="1593" 
d="M702 539q129 0 208 3l-214 524l-205 -524q82 -3 211 -3zM1198 0q-115 0 -273 -6l-9 10v63l10 11l87 5q55 3 55 39q0 21 -28 94l-81 211q-138 2 -249 2t-265 -2l-44 -122q-50 -139 -50 -175.5t47 -43.5q26 -4 102 -8l10 -10v-64l-10 -10q-185 6 -232 6t-209 -6l-10 9v65
l11 10q103 6 126.5 41t176.5 417l261 653q29 76 88 229h142l530 -1247q31 -71 60 -81.5t91 -10.5l9 -11v-64l-9 -10q-222 6 -337 6zM1126 1549l-3 -10h-77l-263 215l-263 -215h-77l-3 10l245 356h196z" />
    <glyph glyph-name="Atilde" unicode="&#xc3;" horiz-adv-x="1593" 
d="M702 539q129 0 208 3l-214 524l-205 -524q82 -3 211 -3zM1198 0q-115 0 -273 -6l-9 10v63l10 11l87 5q55 3 55 39q0 21 -28 94l-81 211q-138 2 -249 2t-265 -2l-44 -122q-50 -139 -50 -175t47 -44q26 -4 102 -8l10 -10v-64l-10 -10q-185 6 -232 6t-209 -6l-10 9v65l11 10
q102 6 126 41t177 417l261 653q29 76 88 229h142l530 -1247q31 -71 60 -81t91 -11l9 -11v-64l-9 -10q-222 6 -337 6zM936 1594q-54 0 -106 24t-88 40l-84 39q-40 18 -77 18q-80 0 -114 -114h-63l-7 10q21 113 87 189t146 77q54 0 106 -24q52 -25 88 -41l84 -38
q40 -18 77 -18q80 0 114 114h63l7 -10q-21 -114 -87 -190t-146 -76z" />
    <glyph glyph-name="Adieresis" unicode="&#xc4;" horiz-adv-x="1593" 
d="M702 539q129 0 208 3l-214 524l-205 -524q82 -3 211 -3zM1198 0q-115 0 -273 -6l-9 10v63l10 11l87 5q55 3 55 39q0 21 -28 94l-81 211q-138 2 -249 2t-265 -2l-44 -122q-50 -139 -50 -175t47 -44q26 -4 102 -8l10 -10v-64l-10 -10q-185 6 -232 6t-209 -6l-10 9v65l11 10
q102 6 126 41t177 417l261 653q29 76 88 229h142l530 -1247q31 -71 60 -81t91 -11l9 -11v-64l-9 -10q-222 6 -337 6zM709 1722q0 -60 -43 -103t-103 -43t-102 42t-42 105t43 105t102 42t102 -44t43 -104zM1149 1723q-1 -63 -43 -105t-102 -42t-104 42q-42 42 -42 104
q0 60 43 104t102 44t103 -42t43 -105z" />
    <glyph glyph-name="Aring" unicode="&#xc5;" horiz-adv-x="1593" 
d="M702 539q129 0 208 3l-214 524l-205 -524q82 -3 211 -3zM1198 0q-115 0 -273 -6l-9 10v63l10 11l87 5q55 3 55 39q0 21 -28 94l-81 211q-138 2 -249 2t-265 -2l-44 -122q-50 -139 -50 -175t47 -44q26 -4 102 -8l10 -10v-64l-10 -10q-185 6 -232 6t-209 -6l-10 9v65l11 10
q102 6 126 41t177 417l261 653q29 76 88 229h142l530 -1247q31 -71 60 -81t91 -11l9 -11v-64l-9 -10q-222 6 -337 6zM896 1729q0 54 -28 95t-85 41q-56 0 -84 -41t-28 -95q0 -53 28 -95t84 -42q57 0 85 42t28 95zM1005 1728q0 -88 -64 -145t-158 -57t-158 57t-64 145
q1 88 65 146q64 56 158 56t157 -57q64 -57 64 -145z" />
    <glyph glyph-name="AE" unicode="&#xc6;" horiz-adv-x="2048" 
d="M1003 549v685q0 49 -18 49q-7 0 -19 -16t-142 -228t-287 -490h466zM309 118q0 -37 66 -40q31 -1 86 -5l11 -10v-58l-10 -10q-60 5 -225 5t-219 -5l-10 10v58l11 11q89 9 111 35t86 132l407 681q198 331 198 365q0 22 -49 26l-139 11l-10 10v67l10 10l515 -6q191 0 718 6
l10 -10l-12 -109q-3 -29 -9 -90l-7 -93l-10 -11h-58l-10 10q-1 136 -14 152t-109.5 24.5t-176.5 8.5t-169 -7q-11 -105 -11 -291v-207q79 -5 128 -5l131 1q92 1 106 17t19 133l10 10h62l10 -10q-4 -112 -4 -209t4 -217l-10 -9h-67l-10 10q0 115 -20.5 142.5t-222.5 27.5
q-73 0 -136 -5v-305q0 -131 5 -254h136q350 0 374 34q10 14 19 60l24 124l10 11h61l11 -10q-22 -146 -22 -330l-10 -10l-720 6q-198 0 -265 -6l-10 10v28l6 12q34 18 67 36q18 16 21 64t5 294h-533l-31 -52q-129 -215 -129 -268z" />
    <glyph glyph-name="Ccedilla" unicode="&#xc7;" horiz-adv-x="1479" 
d="M897 -43h-23l-46 -95q33 5 91 5q57 -1 115 -37t58 -122t-99 -136q-79 -39 -181 -39t-191 33l-5 16l22 51l15 5q67 -22 118 -22t80.5 24t29.5 62t-24.5 62t-55.5 24t-63 -10l-24 18l74 165q-433 36 -605 372q-89 174 -89 377q0 328 220 526t607 198q245 0 479 -89l13 -15
q-34 -138 -42 -323l-9 -10h-59l-10 11q-3 121 -11 168q-124 141 -364 141t-378 -154t-138 -418q0 -357 246 -548q131 -102 341 -102t401 103l25 -23l-46 -102q-211 -116 -472 -116z" />
    <glyph glyph-name="Egrave" unicode="&#xc8;" horiz-adv-x="1241" 
d="M238 967q0 238 -13 310q-5 29 -34 37q-15 4 -117 10l-10 10v68l10 9q100 -6 300 -6t727 6l11 -8l-13 -111q-6 -53 -9 -90l-7 -93l-10 -11h-58l-10 10q-1 136 -14 152t-109 25q-96 8 -177 8q-80 0 -169 -7q-11 -105 -11 -291v-207q79 -5 128 -5l131 1q92 1 106 17t19 133
l10 10h62l10 -10q-4 -112 -4 -209t4 -217l-10 -9h-67l-10 10q0 115 -16 137q-25 34 -227 33q-73 0 -136 -5v-305q0 -131 5 -254h136q350 0 374 34q10 14 19 60l24 124l10 11h61l11 -10q-22 -146 -22 -330l-10 -10l-727 6q-182 0 -257 -6l-10 10v28l5 12q74 46 82 62t9 130
l3 224v507zM823 1584l-46 -35l-451 326l22 30l256 -31l219 -276v-14z" />
    <glyph glyph-name="Eacute" unicode="&#xc9;" horiz-adv-x="1241" 
d="M238 967q0 238 -13 310q-5 29 -34 37q-15 4 -117 10l-10 10v68l10 9q100 -6 300 -6t727 6l11 -8l-13 -111q-6 -53 -9 -90l-7 -93l-10 -11h-58l-10 10q-1 136 -14 152t-109 25q-96 8 -177 8q-80 0 -169 -7q-11 -105 -11 -291v-207q79 -5 128 -5l131 1q92 1 106 17t19 133
l10 10h62l10 -10q-4 -112 -4 -209t4 -217l-10 -9h-67l-10 10q0 115 -16 137q-25 34 -227 33q-73 0 -136 -5v-305q0 -131 5 -254h136q350 0 374 34q10 14 19 60l24 124l10 11h61l11 -10q-22 -146 -22 -330l-10 -10l-727 6q-182 0 -257 -6l-10 10v28l5 12q74 46 82 62t9 130
l3 224v507zM990 1875l-451 -326l-46 35v14l219 276l256 31z" />
    <glyph glyph-name="Ecircumflex" unicode="&#xca;" horiz-adv-x="1241" 
d="M238 967q0 238 -13 310q-5 29 -34 37q-15 4 -117 10l-10 10v68l10 9q101 -6 300.5 -6t726.5 6l11 -8l-13 -111q-6 -53 -9 -90l-7 -93l-10 -11h-58l-10 10q-1 136 -14 152.5t-109.5 24.5t-176.5 8t-169 -7q-11 -105 -11 -291v-207q79 -5 128 -5l131 1q92 1 106 17t19 133
l10 10h62l10 -10q-4 -112 -4 -209t4 -217l-10 -9h-67l-10 10q0 115 -16 137q-25 34 -227 33q-73 0 -136 -5v-305q0 -131 5 -254h136q350 0 374 34q10 14 19 60l24 124l10 11h61l11 -10q-22 -146 -22 -330l-10 -10l-727 6q-182 0 -257 -6l-10 10v28l5 12q74 47 81.5 62.5
t9.5 129.5l3 224v507zM1001 1549l-3 -10h-77l-263 215l-263 -215h-77l-3 10l245 356h196z" />
    <glyph glyph-name="Edieresis" unicode="&#xcb;" horiz-adv-x="1241" 
d="M238 967q0 238 -13 310q-5 29 -34 37q-15 4 -117 10l-10 10v68l10 9q100 -6 300 -6t727 6l11 -8l-13 -111q-6 -53 -9 -90l-7 -93l-10 -11h-58l-10 10q-1 136 -14 152t-109 25q-96 8 -177 8q-80 0 -169 -7q-11 -105 -11 -291v-207q79 -5 128 -5l131 1q92 1 106 17t19 133
l10 10h62l10 -10q-4 -112 -4 -209t4 -217l-10 -9h-67l-10 10q0 115 -16 137q-25 34 -227 33q-73 0 -136 -5v-305q0 -131 5 -254h136q350 0 374 34q10 14 19 60l24 124l10 11h61l11 -10q-22 -146 -22 -330l-10 -10l-727 6q-182 0 -257 -6l-10 10v28l5 12q74 46 82 62t9 130
l3 224v507zM583 1722q0 -60 -43 -103t-103 -43t-102 42t-42 105t43 105t102 42t102 -44t43 -104zM1023 1723q-1 -63 -43 -105t-102 -42t-104 42q-42 42 -42 104q0 60 43 104t102 44t103 -42t43 -105z" />
    <glyph glyph-name="Igrave" unicode="&#xcc;" horiz-adv-x="797" 
d="M398 0q-208 0 -308 -6l-9 10v67l10 10q102 6 117 10q29 8 34 37q13 72 13 310v529q0 238 -13 310q-5 29 -34 37q-15 4 -117 10l-10 10v68l10 9q95 -6 307 -6t308 6l10 -9v-68l-10 -10q-102 -6 -117 -10q-29 -8 -34 -37q-13 -72 -13 -310v-529q0 -238 13 -310
q5 -29 34 -37q15 -4 117 -10l10 -10v-67l-9 -10q-101 6 -309 6zM563 1584l-46 -35l-451 326l22 30l256 -31l219 -276v-14z" />
    <glyph glyph-name="Iacute" unicode="&#xcd;" horiz-adv-x="797" 
d="M398 0q-208 0 -308 -6l-9 10v67l10 10q102 6 117 10q29 8 34 37q13 72 13 310v529q0 238 -13 310q-5 29 -34 37q-15 4 -117 10l-10 10v68l10 9q95 -6 307 -6t308 6l10 -9v-68l-10 -10q-102 -6 -117 -10q-29 -8 -34 -37q-13 -72 -13 -310v-529q0 -238 13 -310
q5 -29 34 -37q15 -4 117 -10l10 -10v-67l-9 -10q-101 6 -309 6zM730 1875l-451 -326l-46 35v14l219 276l256 31z" />
    <glyph glyph-name="Icircumflex" unicode="&#xce;" horiz-adv-x="797" 
d="M398 0q-208 0 -308 -6l-9 10v67l10 10q102 6 117 10q29 8 34 37q13 72 13 310v529q0 238 -13 310q-5 29 -34 37q-15 4 -117 10l-10 10v68l10 9q95 -6 307 -6t308 6l10 -9v-68l-10 -10q-102 -6 -117 -10q-29 -8 -34 -37q-13 -72 -13 -310v-529q0 -238 13 -310
q5 -29 34 -37q15 -4 117 -10l10 -10v-67l-9 -10q-101 6 -309 6zM741 1549l-3 -10h-77l-263 215l-263 -215h-77l-3 10l245 356h196z" />
    <glyph glyph-name="Idieresis" unicode="&#xcf;" horiz-adv-x="797" 
d="M398 0q-208 0 -308 -6l-9 10v67l10 10q102 6 117 10q29 8 34 37q13 72 13 310v529q0 238 -13 310q-5 29 -34 37q-15 4 -117 10l-10 10v68l10 9q95 -6 307 -6t308 6l10 -9v-68l-10 -10q-102 -6 -117 -10q-29 -8 -34 -37q-13 -72 -13 -310v-529q0 -238 13 -310
q5 -29 34 -37q15 -4 117 -10l10 -10v-67l-9 -10q-101 6 -309 6zM323 1722q0 -60 -43 -103t-103 -43t-102 42t-42 105t43 105t102 42t102 -44t43 -104zM763 1723q-1 -63 -43 -105t-102 -42t-104 42q-42 42 -42 104q0 60 43 104t102 44t103 -42t43 -105z" />
    <glyph glyph-name="Eth" unicode="&#xd0;" horiz-adv-x="1702" 
d="M1301 738q0 277 -134 426q-71 78 -173 109t-238 31t-221 -13q-10 -108 -10 -493h322l10 -10v-87l-10 -10h-322v-175l2 -204q1 -146 8 -194q88 -14 180 -14q199 0 319 60t193 214q74 154 74 360zM1608 786q0 -339 -228 -569t-640 -223l-353 6q-144 2 -238 -6l-10 10v28
l5 12q74 47 82 62t9 130l3 224v231h-164l-10 9v88l10 10h164v169q0 238 -13 310q-5 29 -34 37q-15 4 -117 10l-10 10v68l10 9q106 -6 202 -6l607 9q259 0 405 -62t233 -203t87 -363z" />
    <glyph glyph-name="Ntilde" unicode="&#xd1;" horiz-adv-x="1706" 
d="M1465 967v-406q0 -449 13 -585l-13 -9q-113 19 -171 27q-268 301 -915 1098v-654q0 -238 13 -310q5 -29 34 -37q15 -4 117 -10l10 -10v-68l-10 -9q-115 6 -222 6t-223 -6l-10 9v68l10 10q102 6 117 10q29 8 34 37q13 72 13 310v529q0 238 -13 310q-5 29 -34 37
q-15 4 -117 10l-10 10v68l10 9q96 -6 206 -6t199 6q360 -480 846 -1029v585q0 238 -13 310q-5 29 -34 37q-15 4 -117 10l-10 10v68l10 9q112 -6 227 -6t218 6l10 -9v-68l-11 -10q-102 -6 -117 -10q-29 -8 -34 -37q-13 -72 -13 -310zM1017 1594q-55 0 -107 24t-87 40l-84 39
q-40 18 -77 18q-80 0 -114 -114h-63l-7 10q20 113 86 189t147 77q55 0 107 -24q52 -25 87 -41l84 -38q40 -18 77 -18q80 0 114 114h63l7 -10q-20 -114 -86 -190t-147 -76z" />
    <glyph glyph-name="Ograve" unicode="&#xd2;" horiz-adv-x="1706" 
d="M1304 687q0 291 -116 461t-342 170q-297 0 -394 -267q-50 -137 -50 -307q0 -309 116 -491t351 -182q285 0 383 281q52 149 52 335zM1612 739q0 -369 -212 -576t-564 -207t-547 192t-195 536q0 481 367 666q167 84 411 84q348 0 544 -184t196 -511zM1012 1584l-46 -35
l-451 326l22 30l256 -31l219 -276v-14z" />
    <glyph glyph-name="Oacute" unicode="&#xd3;" horiz-adv-x="1706" 
d="M1304 687q0 291 -116 461t-342 170q-297 0 -394 -267q-50 -137 -50 -307q0 -309 116 -491t351 -182q285 0 383 281q52 149 52 335zM1612 739q0 -369 -212 -576t-564 -207t-547 192t-195 536q0 481 367 666q167 84 411 84q348 0 544 -184t196 -511zM1179 1875l-451 -326
l-46 35v14l219 276l256 31z" />
    <glyph glyph-name="Ocircumflex" unicode="&#xd4;" horiz-adv-x="1706" 
d="M1304 687q0 290 -116.5 460.5t-341.5 170.5q-297 0 -394 -267q-50 -137 -50 -307q0 -309 116 -491t351 -182q285 0 383 281q52 149 52 335zM1612 739q0 -369 -212 -576t-564 -207t-547 192.5t-195 535.5q0 481 367 666q167 84 411 84q348 0 544 -184t196 -511zM1190 1549
l-3 -10h-77l-263 215l-263 -215h-77l-3 10l245 356h196z" />
    <glyph glyph-name="Otilde" unicode="&#xd5;" horiz-adv-x="1706" 
d="M1304 687q0 291 -116 461t-342 170q-297 0 -394 -267q-50 -137 -50 -307q0 -309 116 -491t351 -182q285 0 383 281q52 149 52 335zM1612 739q0 -369 -212 -576t-564 -207t-547 192t-195 536q0 481 367 666q167 84 411 84q348 0 544 -184t196 -511zM1000 1594
q-54 0 -106 24t-88 40l-84 39q-40 18 -77 18q-80 0 -114 -114h-63l-7 10q21 113 87 189t146 77q54 0 106 -24q52 -25 88 -41l84 -38q40 -18 77 -18q80 0 114 114h63l7 -10q-21 -114 -87 -190t-146 -76z" />
    <glyph glyph-name="Odieresis" unicode="&#xd6;" horiz-adv-x="1706" 
d="M1304 687q0 291 -116 461t-342 170q-297 0 -394 -267q-50 -137 -50 -307q0 -309 116 -491t351 -182q285 0 383 281q52 149 52 335zM1612 739q0 -369 -212 -576t-564 -207t-547 192t-195 536q0 481 367 666q167 84 411 84q348 0 544 -184t196 -511zM772 1722
q0 -60 -43 -103t-103 -43t-102 42t-42 105t43 105t102 42t102 -44t43 -104zM1212 1723q0 -63 -42 -105t-104 -42q-60 0 -102 42t-43 104q0 60 43 104t102 44q58 0 102 -42t44 -105z" />
    <glyph glyph-name="multiply" unicode="&#xd7;" 
d="M927 294l-116 -116l-308 307l-307 -307l-116 116l307 307l-307 308l116 115l307 -307l308 307l116 -115l-308 -308z" />
    <glyph glyph-name="Oslash" unicode="&#xd8;" horiz-adv-x="1706" 
d="M1304 682q0 181 -46 320l-763 -711q67 -122 159 -171t215 -49q285 0 383 281q52 149 52 330zM846 1318q-297 0 -394 -267q-50 -137 -50 -323t48 -332l763 710q-70 126 -171 174q-80 38 -196 38zM1612 739q0 -369 -212 -576t-574 -207q-318 0 -510 168l-176 -164h-15
l-60 62v15l177 165q-148 185 -148 482q0 481 367 666q167 84 411 84q328 0 519 -162l174 162h15l57 -65v-14l-170 -159q145 -173 145 -457z" />
    <glyph glyph-name="Ugrave" unicode="&#xd9;" horiz-adv-x="1593" 
d="M1382 858v-308q0 -297 -117 -424q-155 -168 -429 -168q-501 0 -584 297q-24 87 -24 454v258q0 238 -13 310q-5 29 -34 37q-15 4 -117 10l-10 10v67l10 10q96 -6 310 -6t305 6l10 -10v-67l-10 -10q-102 -6 -117 -10q-29 -8 -34 -37q-13 -72 -13 -310v-206q0 -378 34 -463
q68 -168 335 -168q175 0 273 86q46 41 64 83q37 86 37 296v208q0 438 -11 466q-11 29 -36 39t-125 16l-10 10v67l10 10q88 -6 168 -6t276 6l10 -10v-67l-10 -10q-118 0 -133 -64q-15 -65 -15 -402zM988 1584l-46 -35l-451 326l22 30l256 -31l219 -276v-14z" />
    <glyph glyph-name="Uacute" unicode="&#xda;" horiz-adv-x="1593" 
d="M1382 858v-308q0 -297 -117 -424q-155 -168 -429 -168q-501 0 -584 297q-24 87 -24 454v258q0 238 -13 310q-5 29 -34 37q-15 4 -117 10l-10 10v67l10 10q96 -6 310 -6t305 6l10 -10v-67l-10 -10q-102 -6 -117 -10q-29 -8 -34 -37q-13 -72 -13 -310v-206q0 -378 34 -463
q68 -168 335 -168q175 0 273 86q46 41 64 83q37 86 37 296v208q0 438 -11 466q-11 29 -36 39t-125 16l-10 10v67l10 10q88 -6 168 -6t276 6l10 -10v-67l-10 -10q-118 0 -133 -64q-15 -65 -15 -402zM1155 1875l-451 -326l-46 35v14l219 276l256 31z" />
    <glyph glyph-name="Ucircumflex" unicode="&#xdb;" horiz-adv-x="1593" 
d="M1382 858v-308q0 -297 -117 -424q-155 -168 -429 -168q-501 0 -584 297q-24 87 -24 454v258q0 238 -13 310q-5 29 -34 37q-15 4 -117 10l-10 10v67l10 10q96 -6 310 -6t305 6l10 -10v-67l-10 -10q-102 -6 -117 -10q-29 -8 -34 -37q-13 -72 -13 -310v-206q0 -378 34 -463
q68 -168 335 -168q175 0 273 86q46 41 64 83q37 86 37 296v208q0 438 -11 466q-11 29 -36 39t-125 16l-10 10v67l10 10q88 -6 168 -6t276 6l10 -10v-67l-10 -10q-118 0 -133 -64q-15 -65 -15 -402zM1166 1549l-3 -10h-77l-263 215l-263 -215h-77l-3 10l245 356h196z" />
    <glyph glyph-name="Udieresis" unicode="&#xdc;" horiz-adv-x="1593" 
d="M1382 858v-308q0 -297 -117 -424q-155 -168 -429 -168q-501 0 -584 297q-24 87 -24 454v258q0 238 -13 310q-5 29 -34 37q-15 4 -117 10l-10 10v67l10 10q96 -6 310 -6t305 6l10 -10v-67l-10 -10q-102 -6 -117 -10q-29 -8 -34 -37q-13 -72 -13 -310v-206q0 -378 34 -463
q68 -168 335 -168q175 0 273 86q46 41 64 83q37 86 37 296v208q0 438 -11 466q-11 29 -36 39t-125 16l-10 10v67l10 10q88 -6 168 -6t276 6l10 -10v-67l-10 -10q-118 0 -133 -64q-15 -65 -15 -402zM748 1722q0 -60 -43 -103t-103 -43t-102 42t-42 105t43 105t102 42t102 -44
t43 -104zM1188 1723q0 -63 -42 -105t-104 -42q-60 0 -102 42t-43 104q0 60 43 104t102 44q58 0 102 -42t44 -105z" />
    <glyph glyph-name="Yacute" unicode="&#xdd;" horiz-adv-x="1366" 
d="M880 537v-99q0 -293 18 -326q8 -14 28 -20t118 -11l10 -10v-67l-10 -10q-98 6 -310 6t-306 -6l-9 9v68l10 10q98 5 118 11t28 20q18 33 18 326v118q-1 38 -159 306t-253 366q-46 48 -62 54t-75 6l-11 11v56l10 11q244 48 313 68q52 -25 93 -65q85 -83 228 -370l131 -262
q59 95 225 382l111 199q18 33 49 91h146l10 -10v-35q-158 -215 -305 -459q-148 -243 -156 -281t-8 -87zM1078 1875l-451 -326l-46 35v14l219 276l256 31z" />
    <glyph glyph-name="Thorn" unicode="&#xde;" horiz-adv-x="1251" 
d="M1173 826q0 -258 -204 -384q-100 -62 -207 -62q-40 0 -128 15l-33 74l20 20q48 -14 86 -14q106 0 138.5 72t32.5 171q0 173 -46.5 243.5t-158.5 70.5q-69 0 -131 -21v-573q0 -238 13 -310q5 -29 34 -37q9 -2 137 -10l13 -10v-67l-10 -10q-141 6 -343 6t-295 -6l-10 9v68
l11 10q101 6 116 10q29 8 34 37q13 72 13 310v529q0 238 -13 310q-5 29 -34 37q-15 4 -117 10l-10 10v68l10 9q97 -6 311 -6t305 6l9 -9v-69l-10 -9q-102 -6 -117 -10q-29 -8 -36 -48t-7 -128l21 -1q43 -2 157 -5q248 -3 332 -56q117 -73 117 -250z" />
    <glyph glyph-name="germandbls" unicode="&#xdf;" horiz-adv-x="1251" 
d="M952 205q0 80 -150 171q-86 52 -104 64q-108 73 -109 204q0 130 180 277q46 38 132 38q15 72 15 141q0 139 -100 209q-54 38 -134 38t-138 -47.5t-70 -117.5t-11 -232v-632q0 -191 13.5 -217t113.5 -26q6 17 10 69t9 72l9 11l46 8l11 -10l6 -93q57 -56 125 -56t107 36.5
t39 92.5zM750 1484q147 0 230.5 -79t83.5 -208t-30 -241t-31 -125l-26 -15q-61 38 -105 38t-74 -24t-30 -63t36.5 -71t168.5 -106t163 -140q18 -38 18 -100q0 -130 -95 -225q-127 -127 -187 -147t-114 -19q-110 0 -166 51l-8 -16q-128 6 -224 6t-287 -6l-10 10v60l11 10
q94 3 114 14.5t22 48.5q7 130 7 455v168h-40l-97 -4l-10 10v25l7 14q102 61 133 90q1 137 11 191t47.5 110t147.5 142t177 116t157 30z" />
    <glyph glyph-name="agrave" unicode="&#xe0;" 
d="M330 281q0 -136 119 -136q101 0 161 94v246q-164 -35 -222 -77t-58 -127zM610 570q0 246 -210 246q-74 0 -119 -32l-38 -93l-13 -7l-51 12l-7 14l5 118q165 122 248 138q35 7 91 7q197 0 281 -103q61 -75 61 -230l-8 -309q0 -151 5 -193t23 -52q18 -11 89 -13l10 -11v-56
l-11 -11q-84 5 -181 5t-175 -5l-9 11l9 134l-194 -148q-31 -23 -106 -23q-110 0 -170 67t-60 185q0 156 103 224t427 125zM658 1119l-56 -30l-328 385l25 28l219 -29l140 -341v-13z" />
    <glyph glyph-name="aacute" unicode="&#xe1;" 
d="M330 281q0 -136 119 -136q101 0 161 94v246q-164 -35 -222 -77t-58 -127zM610 570q0 246 -210 246q-74 0 -119 -32l-38 -93l-13 -7l-51 12l-7 14l5 118q165 122 248 138q35 7 91 7q197 0 281 -103q61 -75 61 -230l-8 -309q0 -151 5 -193t23 -52q18 -11 89 -13l10 -11v-56
l-11 -11q-84 5 -181 5t-175 -5l-9 11l9 134l-194 -148q-31 -23 -106 -23q-110 0 -170 67t-60 185q0 156 103 224t427 125zM786 1474l-328 -385l-56 30v13l140 341l219 29z" />
    <glyph glyph-name="acircumflex" unicode="&#xe2;" 
d="M330 281q0 -136 119 -136q101 0 161 94v246q-165 -36 -222.5 -77.5t-57.5 -126.5zM610 570q0 246 -210 246q-74 0 -119 -32l-38 -93l-13 -7l-51 12l-7 14l5 118q165 122 248 138q35 7 91 7q197 0 281 -103q61 -75 61 -230l-8 -309q0 -151 5 -192.5t23.5 -52.5t88.5 -13
l10 -11v-56l-11 -11q-84 5 -181 5t-175 -5l-9 11l9 134l-194 -148q-31 -23 -106 -23q-111 0 -170.5 67t-59.5 185q0 156 103 224t427 125zM843 1120l-3 -10h-77l-233 241l-233 -241h-77l-3 10l225 362h176z" />
    <glyph glyph-name="atilde" unicode="&#xe3;" 
d="M330 281q0 -136 119 -136q101 0 161 94v246q-164 -35 -222 -77t-58 -127zM610 570q0 246 -210 246q-74 0 -119 -32l-38 -93l-13 -7l-51 12l-7 14l5 118q165 122 248 138q35 7 91 7q197 0 281 -103q61 -75 61 -230l-8 -309q0 -151 5 -193t23 -52q18 -11 89 -13l10 -11v-56
l-11 -11q-84 5 -181 5t-175 -5l-9 11l9 134l-194 -148q-31 -23 -106 -23q-110 0 -170 67t-60 185q0 156 103 224t427 125zM653 1142q-47 0 -154 53t-141 53q-79 0 -114 -99h-63l-7 10q61 240 233 240q47 0 154 -53t141 -53q79 0 114 99h63l7 -10q-61 -240 -233 -240z" />
    <glyph glyph-name="adieresis" unicode="&#xe4;" 
d="M330 281q0 -136 119 -136q101 0 161 94v246q-164 -35 -222 -77t-58 -127zM610 570q0 246 -210 246q-74 0 -119 -32l-38 -93l-13 -7l-51 12l-7 14l5 118q165 122 248 138q35 7 91 7q197 0 281 -103q61 -75 61 -230l-8 -309q0 -151 5 -193t23 -52q18 -11 89 -13l10 -11v-56
l-11 -11q-84 5 -181 5t-175 -5l-9 11l9 134l-194 -148q-31 -23 -106 -23q-110 0 -170 67t-60 185q0 156 103 224t427 125zM455 1252q0 -54 -38 -92t-91 -39q-53 1 -91 39t-38 92t38 92t91 39q53 0 91 -38q38 -39 38 -93zM863 1253q0 -55 -38 -93t-91 -39q-53 1 -91 39
t-38 92t38 92t91 39t91 -37t38 -93z" />
    <glyph glyph-name="aring" unicode="&#xe5;" 
d="M330 281q0 -136 119 -136q101 0 161 94v246q-164 -35 -222 -77t-58 -127zM610 570q0 246 -210 246q-74 0 -119 -32l-38 -93l-13 -7l-51 12l-7 14l5 118q165 122 248 138q35 7 91 7q197 0 281 -103q61 -75 61 -230l-8 -309q0 -151 5 -193t23 -52q18 -11 89 -13l10 -11v-56
l-11 -11q-84 5 -181 5t-175 -5l-9 11l9 134l-194 -148q-31 -23 -106 -23q-110 0 -170 67t-60 185q0 156 103 224t427 125zM632 1277q0 52 -27 87t-75 35t-75 -35t-27 -87q0 -51 27 -87t75 -36t75 36t27 87zM730 1277q0 -82 -56 -132t-144 -50t-144 50t-56 132q0 81 56 131
t144 50t144 -50t56 -131z" />
    <glyph glyph-name="ae" unicode="&#xe6;" horiz-adv-x="1593" 
d="M356 257q0 -54 35 -88t93 -34q88 0 162 89q7 22 7 88l1 148q-41 0 -113 -19t-109 -39q-76 -42 -76 -145zM1245 587q0 270 -168 270q-177 0 -177 -268v-22q58 -9 170 -9t174 9q1 14 1 20zM1228 111q100 0 227 66l25 -29l-45 -99q-145 -93 -316 -93q-300 0 -407 203
q-74 -42 -225 -168q-59 -32 -136 -32q-121 1 -187 71t-67 162q0 92 34.5 160t87.5 93q133 62 434 112q1 18 1 29q0 231 -213 231q-76 0 -149 -41q-12 -23 -29 -83l-13 -8l-49 9l-10 12q-2 82 -4 118q3 1 85 49t143 78q55 18 145 18q167 0 267 -107q166 107 300 107
q179 0 278 -104t99 -302q0 -18 -1 -53l-11 -14q-132 -36 -350 -36l-237 -3q6 -148 93 -247t230 -99z" />
    <glyph glyph-name="ccedilla" unicode="&#xe7;" horiz-adv-x="909" 
d="M549 -44h-22l-42 -94q33 5 64 5q81 0 133 -41t52 -112t-72 -126t-181 -55t-198 33l-5 16l19 43l15 5q64 -22 112 -22t86 28t38 70q0 44 -26 66.5t-58 22.5t-60 -5l-20 16l67 157q-181 27 -271 154t-90 325t91 306q25 30 132 106t155.5 95.5t166.5 19.5t207 -41l10 -18
q-1 -12 -14 -93l-11 -68q-3 -19 -9 -134l-10 -10h-60l-10 10q-6 89 -14 124q-44 78 -169 78q-212 0 -212 -275q0 -200 86 -317t244 -117q96 0 169 41l19 -23l-44 -99q-136 -71 -268 -71z" />
    <glyph glyph-name="egrave" unicode="&#xe8;" 
d="M691 587q0 270 -168 270q-177 0 -177 -268v-22q58 -9 170 -9t174 9q1 14 1 20zM676 111q96 0 228 66l24 -29l-44 -99q-146 -93 -317 -93q-225 0 -349 127t-125 362q0 279 133 382q184 142 356 142q172 -1 271 -105t99 -303q0 -17 -1 -51l-11 -14q-132 -36 -350 -36
l-237 -3q6 -147 93 -247t230 -99zM698 1119l-56 -30l-328 385l25 28l219 -29l140 -341v-13z" />
    <glyph glyph-name="eacute" unicode="&#xe9;" 
d="M691 587q0 270 -168 270q-177 0 -177 -268v-22q58 -9 170 -9t174 9q1 14 1 20zM676 111q96 0 228 66l24 -29l-44 -99q-146 -93 -317 -93q-225 0 -349 127t-125 362q0 279 133 382q184 142 356 142q172 -1 271 -105t99 -303q0 -17 -1 -51l-11 -14q-132 -36 -350 -36
l-237 -3q6 -147 93 -247t230 -99zM826 1474l-328 -385l-56 30v13l140 341l219 29z" />
    <glyph glyph-name="ecircumflex" unicode="&#xea;" 
d="M691 587q0 270 -168 270q-177 0 -177 -268v-22q58 -9 170.5 -9t173.5 9q1 14 1 20zM676 111q96 0 228 66l24 -29l-44 -99q-146 -93 -317 -93q-225 0 -349.5 127t-124.5 362q0 279 133 382q184 142 356 142t271 -104.5t99 -303.5q0 -17 -1 -51l-11 -14q-132 -36 -350 -36
l-237 -3q6 -147 93 -246.5t230 -99.5zM853 1120l-3 -10h-77l-233 241l-233 -241h-77l-3 10l225 362h176z" />
    <glyph glyph-name="edieresis" unicode="&#xeb;" 
d="M691 587q0 270 -168 270q-177 0 -177 -268v-22q58 -9 170 -9t174 9q1 14 1 20zM676 111q96 0 228 66l24 -29l-44 -99q-146 -93 -317 -93q-225 0 -349 127t-125 362q0 279 133 382q184 142 356 142q172 -1 271 -105t99 -303q0 -17 -1 -51l-11 -14q-132 -36 -350 -36
l-237 -3q6 -147 93 -247t230 -99zM465 1252q0 -54 -38 -92t-91 -39q-53 1 -91 39t-38 92t38 92t91 39q53 0 91 -38q38 -39 38 -93zM873 1253q0 -55 -38 -93t-91 -39q-53 1 -91 39t-38 92t38 92t91 39t91 -37t38 -93z" />
    <glyph glyph-name="igrave" unicode="&#xec;" horiz-adv-x="682" 
d="M341 0q-179 0 -273 -7l-10 10v61l10 10q96 4 118 14t23 49q7 130 7 279v143q0 194 -12 222q-12 27 -34 31q-24 4 -99 7l-10 10v56l10 11q192 17 387 83l21 -13q-13 -182 -13 -307v-319q0 -73 7 -203q1 -39 23 -49t118 -14l11 -10v-61l-10 -10q-95 7 -274 7zM445 1119
l-56 -30l-328 385l25 28l219 -29l140 -341v-13z" />
    <glyph glyph-name="iacute" unicode="&#xed;" horiz-adv-x="682" 
d="M341 0q-179 0 -273 -7l-10 10v61l10 10q96 4 118 14t23 49q7 130 7 279v143q0 194 -12 222q-12 27 -34 31q-24 4 -99 7l-10 10v56l10 11q192 17 387 83l21 -13q-13 -182 -13 -307v-319q0 -73 7 -203q1 -39 23 -49t118 -14l11 -10v-61l-10 -10q-95 7 -274 7zM574 1474
l-328 -385l-56 30v13l140 341l219 29z" />
    <glyph glyph-name="icircumflex" unicode="&#xee;" horiz-adv-x="682" 
d="M341 0q-179 0 -273 -7l-10 10v61l10 10q96 4 118 14t23 49q7 130 7 279v143q0 194 -12 222q-12 27 -34 31q-24 4 -99 7l-10 10v56l10 11q192 17 387 83l21 -13q-13 -182 -13 -307v-319q0 -73 7 -203q1 -39 23 -49t118 -14l11 -10v-61l-10 -10q-95 7 -274 7zM629 1120
l-3 -10h-77l-233 241l-233 -241h-77l-3 10l225 362h176z" />
    <glyph glyph-name="idieresis" unicode="&#xef;" horiz-adv-x="682" 
d="M341 0q-179 0 -273 -7l-10 10v61l10 10q96 4 118 14t23 49q7 130 7 279v143q0 194 -12 222q-12 27 -34 31q-24 4 -99 7l-10 10v56l10 11q192 17 387 83l21 -13q-13 -182 -13 -307v-319q0 -73 7 -203q1 -39 23 -49t118 -14l11 -10v-61l-10 -10q-95 7 -274 7zM243 1252
q0 -54 -38 -92t-91 -39q-53 1 -91 39t-38 92t38 92t91 39q53 0 91 -38q38 -39 38 -93zM651 1253q0 -55 -38 -93t-91 -39q-53 1 -91 39t-38 92t38 92t91 39t91 -37t38 -93z" />
    <glyph glyph-name="eth" unicode="&#xf0;" horiz-adv-x="1139" 
d="M582 59q200 1 200 411t-218 410q-78 0 -126 -45t-63 -127.5t-15 -208.5q0 -244 62 -342t160 -98zM1064 574q0 -186 -57.5 -323t-181 -216t-273.5 -79t-313 88.5t-163 417.5q0 213 74.5 315t171.5 152.5t198 50.5t157 -18q-37 125 -123 225l-270 -127l-13 5l-28 61l5 14
l243 113q-88 82 -189 136l-2 16l69 90l17 4q190 -96 276 -166l266 125l14 -6l28 -57l-5 -15l-231 -108q159 -144 244.5 -328t85.5 -370z" />
    <glyph glyph-name="ntilde" unicode="&#xf1;" horiz-adv-x="1251" 
d="M1015 0q-73 0 -207 -7l-10 10q18 223 18 344v196q0 244 -176 244q-92 0 -140 -58t-48 -112v-187q0 -259 13 -318q8 -35 116 -37l10 -10v-61l-10 -10q-85 6 -259 6t-268 -7l-10 10v61l10 10q96 4 118 14t23 49q7 130 7 279v143q0 200 -12 225q-12 24 -36 28q-22 4 -97 7
l-10 10v56l10 11q180 17 379 83l22 -13l-2 -168l172 144q66 27 145 27q159 0 238 -96q64 -78 64 -229l-8 -313q0 -151 5 -193t23 -52q18 -11 104 -13l9 -10v-59l-10 -11q-110 7 -183 7zM747 1142q-47 0 -154 53t-141 53q-79 0 -114 -99h-63l-7 10q61 240 233 240
q47 0 154 -53t141 -53q79 0 114 99h63l7 -10q-61 -240 -233 -240z" />
    <glyph glyph-name="ograve" unicode="&#xf2;" horiz-adv-x="1139" 
d="M780 414q0 248 -54 356t-167 108q-199 0 -199 -359q0 -461 223 -461q139 0 177 153q20 80 20 203zM584 983q473 0 473 -487q0 -354 -238 -479q-116 -61 -265 -61q-230 0 -350 133t-121 381q0 343 234 457q115 56 267 56zM708 1119l-56 -30l-328 385l25 28l219 -29
l140 -341v-13z" />
    <glyph glyph-name="oacute" unicode="&#xf3;" horiz-adv-x="1139" 
d="M780 414q0 248 -54 356t-167 108q-199 0 -199 -359q0 -461 223 -461q139 0 177 153q20 80 20 203zM584 983q473 0 473 -487q0 -354 -238 -479q-116 -61 -265 -61q-230 0 -350 133t-121 381q0 343 234 457q115 56 267 56zM836 1474l-328 -385l-56 30v13l140 341l219 29z
" />
    <glyph glyph-name="ocircumflex" unicode="&#xf4;" horiz-adv-x="1139" 
d="M780 414q0 249 -54.5 356.5t-166.5 107.5q-199 0 -199 -359q0 -461 223 -461q139 0 177 153q20 80 20 203zM584 983q473 0 473 -487q0 -354 -238 -479q-116 -61 -265 -61q-230 0 -350.5 133t-120.5 381q0 343 234 457q115 56 267 56zM893 1120l-3 -10h-77l-233 241
l-233 -241h-77l-3 10l225 362h176z" />
    <glyph glyph-name="otilde" unicode="&#xf5;" horiz-adv-x="1139" 
d="M780 414q0 248 -54 356t-167 108q-199 0 -199 -359q0 -461 223 -461q139 0 177 153q20 80 20 203zM584 983q473 0 473 -487q0 -354 -238 -479q-116 -61 -265 -61q-230 0 -350 133t-121 381q0 343 234 457q115 56 267 56zM703 1142q-47 0 -154 53t-141 53q-79 0 -114 -99
h-63l-7 10q61 240 233 240q47 0 154 -53t141 -53q79 0 114 99h63l7 -10q-61 -240 -233 -240z" />
    <glyph glyph-name="odieresis" unicode="&#xf6;" horiz-adv-x="1139" 
d="M780 414q0 248 -54 356t-167 108q-199 0 -199 -359q0 -461 223 -461q139 0 177 153q20 80 20 203zM584 983q473 0 473 -487q0 -354 -238 -479q-116 -61 -265 -61q-230 0 -350 133t-121 381q0 343 234 457q115 56 267 56zM505 1252q0 -54 -38 -92t-91 -39q-53 1 -91 39
t-38 92t38 92t91 39q53 0 91 -38q38 -39 38 -93zM913 1253q0 -55 -38 -93t-91 -39q-53 1 -91 39t-38 92t38 92t91 39t91 -37t38 -93z" />
    <glyph glyph-name="divide" unicode="&#xf7;" 
d="M644 181q0 -55 -39 -93.5t-93 -38.5t-92.5 39t-38.5 93t38.5 92.5t92.5 38.5t93 -38t39 -93zM993 515h-961v172h961v-172zM644 1022q0 -54 -39 -93t-93 -39t-92.5 39t-38.5 93t38.5 92.5t92.5 38.5t93 -38.5t39 -92.5z" />
    <glyph glyph-name="oslash" unicode="&#xf8;" horiz-adv-x="1139" 
d="M780 414q0 124 -13 211l-377 -384q52 -183 192 -183t178 153q20 79 20 203zM559 878q-199 0 -199 -359q0 -102 11 -182l375 381q-50 160 -187 160zM1057 496q0 -354 -238 -479q-116 -61 -265 -61q-213 0 -332 114l-121 -123h-15l-44 42v14l127 129q-86 127 -86 338
q0 343 234 457q115 56 267 56q211 0 328 -97l98 100h16l41 -42v-14l-100 -102q90 -119 90 -332z" />
    <glyph glyph-name="ugrave" unicode="&#xf9;" horiz-adv-x="1251" 
d="M199 559q-1 198 -13 224q-12 25 -34 29t-99 7l-10 10v56l10 11q191 17 387 83l22 -13q-13 -166 -13 -307v-195q-1 -137 9 -192q20 -117 148 -117q78 0 137 50q57 51 59 107t2 68v179q0 196 -12 223q-12 26 -34 30t-99 7l-11 10v56l11 11q190 17 387 83l21 -13
q-13 -150 -13 -307v-314q0 -211 9 -232t28 -27t99 -10l11 -10v-61l-10 -10q-150 5 -189 5l-195 -5l-8 8q8 82 8 156q-52 -39 -182 -166q-65 -25 -139 -25q-135 0 -213 74t-78 211l4 178v128zM749 1119l-56 -30l-328 385l25 28l219 -29l140 -341v-13z" />
    <glyph glyph-name="uacute" unicode="&#xfa;" horiz-adv-x="1251" 
d="M199 559q-1 198 -13 224q-12 25 -34 29t-99 7l-10 10v56l10 11q191 17 387 83l22 -13q-13 -166 -13 -307v-195q-1 -137 9 -192q20 -117 148 -117q78 0 137 50q57 51 59 107t2 68v179q0 196 -12 223q-12 26 -34 30t-99 7l-11 10v56l11 11q190 17 387 83l21 -13
q-13 -150 -13 -307v-314q0 -211 9 -232t28 -27t99 -10l11 -10v-61l-10 -10q-150 5 -189 5l-195 -5l-8 8q8 82 8 156q-52 -39 -182 -166q-65 -25 -139 -25q-135 0 -213 74t-78 211l4 178v128zM877 1474l-328 -385l-56 30v13l140 341l219 29z" />
    <glyph glyph-name="ucircumflex" unicode="&#xfb;" horiz-adv-x="1251" 
d="M199 559q-1 198 -13 224q-12 25 -34 29t-99 7l-10 10v56l10 11q191 17 387 83l22 -13q-13 -166 -13 -307v-195q-1 -137 9 -192q20 -117 148 -117q78 0 137 50q57 51 59 107t2 68v179q0 196 -12 223q-12 26 -34 30t-99 7l-11 10v56l11 11q190 17 387 83l21 -13
q-13 -150 -13 -307v-314q0 -211 9 -232t28 -27t99 -10l11 -10v-61l-10 -10q-150 5 -189 5l-195 -5l-8 8q8 82 8 156q-52 -39 -182 -166q-65 -25 -139 -25q-135 0 -213 74t-78 211l4 178v128zM934 1120l-3 -10h-77l-233 241l-233 -241h-77l-3 10l225 362h176z" />
    <glyph glyph-name="udieresis" unicode="&#xfc;" horiz-adv-x="1251" 
d="M199 559q-1 198 -13 224q-12 25 -34 29t-99 7l-10 10v56l10 11q191 17 387 83l22 -13q-13 -166 -13 -307v-195q-1 -137 9 -192q20 -117 148 -117q78 0 137 50q57 51 59 107t2 68v179q0 196 -12 223q-12 26 -34 30t-99 7l-11 10v56l11 11q190 17 387 83l21 -13
q-13 -150 -13 -307v-314q0 -211 9 -232t28 -27t99 -10l11 -10v-61l-10 -10q-150 5 -189 5l-195 -5l-8 8q8 82 8 156q-52 -39 -182 -166q-65 -25 -139 -25q-135 0 -213 74t-78 211l4 178v128zM546 1252q0 -54 -38 -92t-91 -39q-53 1 -91 39t-38 92t38 92t91 39q53 0 91 -38
q38 -39 38 -93zM954 1253q0 -55 -38 -93t-91 -39q-53 1 -91 39t-38 92t38 92t91 39t91 -37t38 -93z" />
    <glyph glyph-name="yacute" unicode="&#xfd;" horiz-adv-x="1139" 
d="M210 -553q-74 0 -143 35q17 71 35 199l26 5q52 -74 141 -74q105 0 193 205l41 96l-324 842q-27 73 -51 91t-93 18l-10 10v60l11 10q64 -3 238 -3t280 3l10 -10v-60l-10 -10q-114 0 -114 -41q0 -18 59 -181l146 -386l88 211q129 309 129 361q0 36 -116 36l-10 10v60l11 10
q58 -3 166 -3t193 3l11 -10v-61l-9 -9q-66 0 -90 -38q-14 -22 -108 -227t-180 -418l-161 -398q-75 -185 -159 -261t-200 -75zM836 1474l-328 -385l-56 30v13l140 341l219 29z" />
    <glyph glyph-name="thorn" unicode="&#xfe;" horiz-adv-x="1251" 
d="M899 457q0 218 -115 294q-61 40 -127 40q-123 0 -204 -101v-496q91 -96 200 -96q163 0 218 169q28 85 28 190zM1156 580q0 -122 -38 -219t-76 -139t-102 -91q-64 -50 -163 -125q-59 -39 -148 -39t-176 32v-163q0 -105 7 -235q2 -37 21 -48t138 -15l11 -10v-61l-10 -10
q-95 7 -280 7t-279 -7l-10 10v61l10 10q93 3 113 14.5t22 48.5q7 130 7 455v871q0 210 -7 340q-2 37 -22 48.5t-116 14.5l-11 11v55l10 11q191 20 387 83l22 -12q0 -26 -6 -182t-7 -318v-189q37 29 114 95t118 76t92 9q179 0 279 -106t100 -283z" />
    <glyph glyph-name="ydieresis" unicode="&#xff;" horiz-adv-x="1139" 
d="M210 -553q-74 0 -143 35q17 71 35 199l26 5q52 -74 141 -74q105 0 193 205l41 96l-324 842q-27 73 -51 91t-93 18l-10 10v60l11 10q64 -3 238 -3t280 3l10 -10v-60l-10 -10q-114 0 -114 -41q0 -18 59 -181l146 -386l88 211q129 309 129 361q0 36 -116 36l-10 10v60l11 10
q58 -3 166 -3t193 3l11 -10v-61l-9 -9q-66 0 -90 -38q-14 -22 -108 -227t-180 -418l-161 -398q-75 -185 -159 -261t-200 -75zM505 1252q0 -54 -38 -92t-91 -39q-53 1 -91 39t-38 92t38 92t91 39q53 0 91 -38q38 -39 38 -93zM913 1253q0 -55 -38 -93t-91 -39q-53 1 -91 39
t-38 92t38 92t91 39t91 -37t38 -93z" />
    <glyph glyph-name="Amacron" unicode="&#x100;" horiz-adv-x="1593" 
d="M702 539q129 0 208 3l-214 524l-205 -524q82 -3 211 -3zM1198 0q-115 0 -273 -6l-9 10v63l10 11l87 5q55 3 55 39q0 21 -28 94l-81 211q-138 2 -249 2t-265 -2l-44 -122q-50 -139 -50 -175t47 -44q26 -4 102 -8l10 -10v-64l-10 -10q-185 6 -232 6t-209 -6l-10 9v65l11 10
q102 6 126 41t177 417l261 653q29 76 88 229h142l530 -1247q31 -71 60 -81t91 -11l9 -11v-64l-9 -10q-222 6 -337 6zM1136 1638h-707v166h707v-166z" />
    <glyph glyph-name="amacron" unicode="&#x101;" 
d="M330 281q0 -136 119 -136q101 0 161 94v246q-164 -35 -222 -77t-58 -127zM610 570q0 246 -210 246q-74 0 -119 -32l-38 -93l-13 -7l-51 12l-7 14l5 118q165 122 248 138q35 7 91 7q197 0 281 -103q61 -75 61 -230l-8 -309q0 -151 5 -193t23 -52q18 -11 89 -13l10 -11v-56
l-11 -11q-84 5 -181 5t-175 -5l-9 11l9 134l-194 -148q-31 -23 -106 -23q-110 0 -170 67t-60 185q0 156 103 224t427 125zM853 1184h-646v126h646v-126z" />
    <glyph glyph-name="Abreve" unicode="&#x102;" horiz-adv-x="1593" 
d="M702 539q129 0 208 3l-214 524l-205 -524q82 -3 211 -3zM1198 0q-115 0 -273 -6l-9 10v63l10 11l87 5q55 3 55 39q0 21 -28 94l-81 211q-138 2 -249 2t-265 -2l-44 -122q-50 -139 -50 -175.5t47 -43.5q26 -4 102 -8l10 -10v-64l-10 -10q-185 6 -232 6t-209 -6l-10 9v65
l11 10q103 6 126.5 41t176.5 417l261 653q29 76 88 229h142l530 -1247q31 -71 60 -81.5t91 -10.5l9 -11v-64l-9 -10q-222 6 -337 6zM783.5 1563q-290.5 0 -297.5 334l10 10h60q20 -169 228 -169t228 169h60l9 -10q-7 -334 -297.5 -334z" />
    <glyph glyph-name="abreve" unicode="&#x103;" 
d="M330 281q0 -136 119 -136q101 0 161 94v246q-165 -36 -222.5 -77.5t-57.5 -126.5zM610 570q0 246 -210 246q-74 0 -119 -32l-38 -93l-13 -7l-51 12l-7 14l5 118q165 122 248 138q35 7 91 7q197 0 281 -103q61 -75 61 -230l-8 -309q0 -151 5 -192.5t23.5 -52.5t88.5 -13
l10 -11v-56l-11 -11q-84 5 -181 5t-175 -5l-9 11l9 134l-194 -148q-31 -23 -106 -23q-111 0 -170.5 67t-59.5 185q0 156 103 224t427 125zM530 1123q-121 0 -201 83t-83 206l10 10h60q35 -148 214 -148t214 148h60l10 -10q-3 -123 -83 -206t-201 -83z" />
    <glyph glyph-name="Aogonek" unicode="&#x104;" horiz-adv-x="1593" 
d="M702 539q129 0 208 3l-214 524l-205 -524q82 -3 211 -3zM1223 -252q0 -144 136 -144q61 0 130 28l12 -8l7 -35l-4 -13q-86 -60 -213 -60q-230 0 -230 210q0 166 199 274q-177 0 -335 -6l-9 10v63l10 11l87 5q55 3 55 39q0 21 -28 94l-81 211q-138 2 -249 2t-265 -2
l-44 -122q-50 -139 -50 -175t47 -44q26 -4 102 -8l10 -10v-64l-10 -10q-185 6 -232 6t-209 -6l-10 9v65l11 10q103 6 126.5 41t176.5 417l261 653q29 76 88 229h142l530 -1247q30 -71 60 -81t91 -11l9 -11v-64l-9 -10l-195 5q-117 -107 -117 -251z" />
    <glyph glyph-name="aogonek" unicode="&#x105;" 
d="M330 281q0 -136 119 -136q101 0 161 94v246q-165 -36 -222.5 -77.5t-57.5 -126.5zM610 570q0 246 -210 246q-74 0 -119 -32l-38 -93l-13 -7l-51 12l-7 14l5 118q165 122 248 138q36 7 91 7q197 0 281 -103q61 -75 61 -230l-8 -309q0 -151 5 -192.5t23.5 -52.5t88.5 -13
l10 -11v-56l-11 -11q-45 3 -116 4q-128 -95 -128 -225t138 -130q62 0 129 27l13 -5l7 -33l-6 -13q-89 -60 -199 -60q-112 0 -172 50t-60 133t57 151t138 106q-79 0 -157 -5l-9 11l9 134l-194 -148q-31 -23 -106 -23q-111 0 -170.5 67t-59.5 185q0 156 104 224t426 125z" />
    <glyph glyph-name="Cacute" unicode="&#x106;" horiz-adv-x="1479" 
d="M897 -43q-522 0 -714 376q-89 174 -89 377q0 328 220 526t607 198q245 0 479 -89l13 -15q-34 -138 -42 -323l-9 -10h-59l-10 11q-3 121 -11 168q-124 141 -364 141t-378 -154t-138 -418q0 -357 246 -548q131 -102 341 -102t401 103l25 -23l-46 -102q-211 -116 -472 -116z
M1229 1875l-451 -326l-46 35v14l219 276l256 31z" />
    <glyph glyph-name="cacute" unicode="&#x107;" horiz-adv-x="909" 
d="M549 -44q-223 0 -341 128t-118 342t91 322q25 30 132 106t155 95q48 20 167 20q118 0 207 -41l10 -18q-1 -13 -14 -93l-11 -68q-3 -17 -9 -134l-10 -10h-60l-10 10q-6 89 -14 124q-44 78 -169 78q-212 0 -212 -275q0 -200 86 -317t244 -117q96 0 169 41l19 -23l-44 -99
q-136 -71 -268 -71zM811 1474l-328 -385l-56 30v13l140 341l219 29z" />
    <glyph glyph-name="Ccircumflex" unicode="&#x108;" horiz-adv-x="1479" 
d="M897 -43q-522 0 -714 376q-89 174 -89 377q0 328 220 526t607 198q245 0 479 -89l13 -15q-34 -138 -42 -323l-9 -10h-59l-10 11q-3 121 -11 168q-124 141 -364 141t-378 -154t-138 -418q0 -357 246 -548q131 -102 341 -102t401 103l25 -23l-46 -102q-211 -116 -472 -116z
M1230 1549l-3 -10h-77l-263 215l-263 -215h-77l-3 10l245 356h196z" />
    <glyph glyph-name="ccircumflex" unicode="&#x109;" horiz-adv-x="909" 
d="M549 -44q-223 0 -341 128t-118 342t91 322q25 30 132 106t155 95q48 20 167 20q118 0 207 -41l10 -18q-1 -13 -14 -93l-11 -68q-3 -17 -9 -134l-10 -10h-60l-10 10q-6 89 -14 124q-44 78 -169 78q-212 0 -212 -275q0 -200 86 -317t244 -117q96 0 169 41l19 -23l-44 -99
q-136 -71 -268 -71zM868 1120l-3 -10h-77l-233 241l-233 -241h-77l-3 10l225 362h176z" />
    <glyph glyph-name="Cdotaccent" unicode="&#x10a;" horiz-adv-x="1479" 
d="M897 -43q-522 0 -714 376q-89 174 -89 377q0 328 220 526t607 198q245 0 479 -89l13 -15q-34 -138 -42 -323l-9 -10h-59l-10 11q-3 121 -11 168q-124 141 -364 141t-378 -154t-138 -418q0 -357 246 -548q131 -102 341 -102t401 103l25 -23l-46 -102q-211 -116 -472 -116z
M1037 1723q-1 -63 -43 -105t-102 -42t-104 42q-42 42 -42 104q0 60 43 104t102 44t103 -42t43 -105z" />
    <glyph glyph-name="cdotaccent" unicode="&#x10b;" horiz-adv-x="909" 
d="M549 -44q-223 0 -341 128t-118 342t91 322q25 30 132 106t155 95q48 20 167 20q118 0 207 -41l10 -18q-1 -13 -14 -93l-11 -68q-3 -17 -9 -134l-10 -10h-60l-10 10q-6 89 -14 124q-44 78 -169 78q-212 0 -212 -275q0 -200 86 -317t244 -117q96 0 169 41l19 -23l-44 -99
q-136 -71 -268 -71zM691 1253q0 -55 -38 -93t-91 -39q-53 1 -91 39t-38 92t38 92t91 39t91 -37t38 -93z" />
    <glyph glyph-name="Ccaron" unicode="&#x10c;" horiz-adv-x="1479" 
d="M897 -43q-522 0 -714 376q-89 174 -89 377q0 328 220 526t607 198q245 0 479 -89l13 -15q-34 -138 -42 -323l-9 -10h-59l-10 11q-3 121 -11 168q-124 141 -364 141t-378 -154t-138 -418q0 -357 246 -548q131 -102 341 -102t401 103l25 -23l-46 -102q-211 -116 -472 -116z
M1230 1895l-245 -356h-196l-245 356l3 10h77l263 -215l263 215h77z" />
    <glyph glyph-name="ccaron" unicode="&#x10d;" horiz-adv-x="909" 
d="M549 -44q-223 0 -341 128t-118 342t91 322q25 30 132 106t155 95q48 20 167 20q118 0 207 -41l10 -18q-1 -13 -14 -93l-11 -68q-3 -17 -9 -134l-10 -10h-60l-10 10q-6 89 -14 124q-44 78 -169 78q-212 0 -212 -275q0 -200 86 -317t244 -117q96 0 169 41l19 -23l-44 -99
q-136 -71 -268 -71zM868 1472l-225 -362h-176l-225 362l3 10h77l233 -241l233 241h77z" />
    <glyph glyph-name="Dcaron" unicode="&#x10e;" horiz-adv-x="1702" 
d="M1301 738q0 277 -134 426q-71 78 -173 109t-238 31t-221 -13q-10 -112 -10 -542l2 -437q1 -146 8 -194q88 -14 180 -14q199 0 319 60t193 214q74 154 74 360zM1608 786q0 -339 -228 -569t-640 -223l-353 6q-144 2 -238 -6l-10 10v28l5 12q74 47 82 62t9 130l3 224v507
q0 238 -13 310q-5 29 -34 37q-15 4 -117 10l-10 10v68l10 9q106 -6 202 -6l607 9q259 0 405 -62t233 -203t87 -363zM1120 1895l-245 -356h-196l-245 356l3 10h77l263 -215l263 215h77z" />
    <glyph glyph-name="dcaron" unicode="&#x10f;" horiz-adv-x="1473" 
d="M805 525v188q-71 86 -127 106t-107 20q-138 0 -178 -142q-22 -79 -22 -176q0 -207 97 -307q52 -53 130 -53q78 1 136 43t68 88q3 14 3 233zM1015 0q-77 0 -205 -7l-9 7q4 49 4 164q-36 -30 -111 -100q-76 -70 -104 -84q-28 -15 -100 -15q-171 0 -276 129t-105 331t81 313
q20 29 132 109q112 79 164 101t140 22q89 0 179 -44v56q0 264 -10 300t-35 40t-101 8l-10 11v55l10 11q192 20 387 83l22 -12q0 -4 -6 -159t-7 -586v-323q1 -282 11 -304t28 -28t96 -11l10 -10v-54l-10 -10q-98 7 -175 7zM1450 1296q0 -93 -78 -169t-194 -88l-7 25
q100 21 137 65q37 43 37 81q-1 38 -51 38t-86 31t-37 87q1 56 37 90t99 34t103 -50t40 -144z" />
    <glyph glyph-name="Dcroat" unicode="&#x110;" horiz-adv-x="1702" 
d="M1301 738q0 277 -134 426q-71 78 -173 109t-238 31t-221 -13q-10 -108 -10 -493h322l10 -10v-87l-10 -10h-322v-175l2 -204q1 -146 8 -194q88 -14 180 -14q199 0 319 60t193 214q74 154 74 360zM1608 786q0 -339 -228 -569t-640 -223l-353 6q-144 2 -238 -6l-10 10v28
l5 12q74 47 82 62t9 130l3 224v231h-164l-10 9v88l10 10h164v169q0 238 -13 310q-5 29 -34 37q-15 4 -117 10l-10 10v68l10 9q106 -6 202 -6l607 9q259 0 405 -62t233 -203t87 -363z" />
    <glyph glyph-name="dcroat" unicode="&#x111;" horiz-adv-x="1251" 
d="M805 525v188q-71 86 -127 106t-107 20q-138 0 -178 -142q-22 -79 -22 -176q0 -207 97 -307q52 -53 130 -53q78 1 136 43t68 88q3 14 3 233zM1055 733v-323q1 -282 11 -304t28 -28t96 -11l10 -10v-54l-10 -10q-98 7 -175 7t-205 -7l-9 7q4 49 4 164q-36 -30 -111 -100
q-76 -70 -104 -84q-28 -15 -100 -15q-171 0 -276 129t-105 331t81 313q20 29 132 109q112 79 164 101t140 22q89 0 179 -44v56q0 42 -2 111h-234l-10 11v63l10 11h231q-5 123 -21 135.5t-120 16.5l-10 11v55l10 11q192 20 387 83l22 -12l-10 -300h141l10 -11v-64l-10 -10
h-142q-2 -155 -2 -360z" />
    <glyph glyph-name="Emacron" unicode="&#x112;" horiz-adv-x="1241" 
d="M238 967q0 238 -13 310q-5 29 -34 37q-15 4 -117 10l-10 10v68l10 9q100 -6 300 -6t727 6l11 -8l-13 -111q-6 -53 -9 -90l-7 -93l-10 -11h-58l-10 10q-1 136 -14 152t-109 25q-96 8 -177 8q-80 0 -169 -7q-11 -105 -11 -291v-207q79 -5 128 -5l131 1q92 1 106 17t19 133
l10 10h62l10 -10q-4 -112 -4 -209t4 -217l-10 -9h-67l-10 10q0 115 -16 137q-25 34 -227 33q-73 0 -136 -5v-305q0 -131 5 -254h136q350 0 374 34q10 14 19 60l24 124l10 11h61l11 -10q-22 -146 -22 -330l-10 -10l-727 6q-182 0 -257 -6l-10 10v28l5 12q74 46 82 62t9 130
l3 224v507zM1011 1638h-707v166h707v-166z" />
    <glyph glyph-name="emacron" unicode="&#x113;" 
d="M691 587q0 270 -168 270q-177 0 -177 -268v-22q58 -9 170 -9t174 9q1 14 1 20zM676 111q96 0 228 66l24 -29l-44 -99q-146 -93 -317 -93q-225 0 -349 127t-125 362q0 279 133 382q184 142 356 142q172 -1 271 -105t99 -303q0 -17 -1 -51l-11 -14q-132 -36 -350 -36
l-237 -3q6 -147 93 -247t230 -99zM863 1184h-646v126h646v-126z" />
    <glyph glyph-name="Ebreve" unicode="&#x114;" horiz-adv-x="1241" 
d="M238 967q0 238 -13 310q-5 29 -34 37q-15 4 -117 10l-10 10v68l10 9q100 -6 300 -6t727 6l11 -8l-13 -111q-6 -53 -9 -90l-7 -93l-10 -11h-58l-10 10q-1 136 -14 152t-109 25q-96 8 -177 8q-80 0 -169 -7q-11 -105 -11 -291v-207q79 -5 128 -5l131 1q92 1 106 17t19 133
l10 10h62l10 -10q-4 -112 -4 -209t4 -217l-10 -9h-67l-10 10q0 115 -16 137q-25 34 -227 33q-73 0 -136 -5v-305q0 -131 5 -254h136q350 0 374 34q10 14 19 60l24 124l10 11h61l11 -10q-22 -146 -22 -330l-10 -10l-727 6q-182 0 -257 -6l-10 10v28l5 12q74 46 82 62t9 130
l3 224v507zM658 1563q-290 0 -297 334l10 10h60q20 -169 228 -169t228 169h60l9 -10q-8 -334 -298 -334z" />
    <glyph glyph-name="ebreve" unicode="&#x115;" 
d="M691 587q0 270 -168 270q-177 0 -177 -268v-22q58 -9 170 -9t174 9q1 14 1 20zM676 111q96 0 228 66l24 -29l-44 -99q-146 -93 -317 -93q-225 0 -349 127t-125 362q0 279 133 382q184 142 356 142q172 -1 271 -105t99 -303q0 -17 -1 -51l-11 -14q-132 -36 -350 -36
l-237 -3q6 -147 93 -247t230 -99zM540 1123q-121 0 -201 83t-83 206l10 10h60q35 -148 214 -148t214 148h60l10 -10q-3 -123 -83 -206t-201 -83z" />
    <glyph glyph-name="Edotaccent" unicode="&#x116;" horiz-adv-x="1241" 
d="M238 967q0 238 -13 310q-5 29 -34 37q-15 4 -117 10l-10 10v68l10 9q100 -6 300 -6t727 6l11 -8l-13 -111q-6 -53 -9 -90l-7 -93l-10 -11h-58l-10 10q-1 136 -14 152t-109 25q-96 8 -177 8q-80 0 -169 -7q-11 -105 -11 -291v-207q79 -5 128 -5l131 1q92 1 106 17t19 133
l10 10h62l10 -10q-4 -112 -4 -209t4 -217l-10 -9h-67l-10 10q0 115 -16 137q-25 34 -227 33q-73 0 -136 -5v-305q0 -131 5 -254h136q350 0 374 34q10 14 19 60l24 124l10 11h61l11 -10q-22 -146 -22 -330l-10 -10l-727 6q-182 0 -257 -6l-10 10v28l5 12q74 46 82 62t9 130
l3 224v507zM804 1723q0 -63 -42 -105t-104 -42q-60 0 -102 42t-43 104q0 60 43 104t102 44q58 0 102 -42t44 -105z" />
    <glyph glyph-name="edotaccent" unicode="&#x117;" 
d="M691 587q0 270 -168 270q-177 0 -177 -268v-22q58 -9 170 -9t174 9q1 14 1 20zM676 111q96 0 228 66l24 -29l-44 -99q-146 -93 -317 -93q-225 0 -349 127t-125 362q0 279 133 382q184 142 356 142q172 -1 271 -105t99 -303q0 -17 -1 -51l-11 -14q-132 -36 -350 -36
l-237 -3q6 -147 93 -247t230 -99zM669 1253q0 -55 -38 -93t-91 -39q-53 1 -91 39t-38 92t38 92t91 39t91 -37t38 -93z" />
    <glyph glyph-name="Eogonek" unicode="&#x118;" horiz-adv-x="1241" 
d="M724 -274q0 166 191 270l-509 4q-182 0 -257 -6l-10 10v28l5 12q74 46 82 62t9 130l3 224v507q0 238 -13 310q-5 29 -34 37q-15 4 -117 10l-10 10v68l10 9q100 -6 300 -6t727 6l11 -8l-13 -111q-6 -53 -9 -90l-7 -93l-10 -11h-58l-10 10q-1 136 -14 152t-109.5 24.5
t-176.5 8.5t-169 -7q-11 -105 -11 -291v-207q84 -5 128 -5l131 1q92 1 106 17t19 133l10 10h62l10 -10q-4 -112 -4 -209t4 -217l-10 -9h-67l-10 10q0 115 -20.5 142.5t-222.5 27.5q-73 0 -136 -5v-305q0 -131 5 -254h136q350 0 374 34q10 14 19 60l24 124l10 11h61l11 -10
q-22 -146 -22 -330l-10 -10l-134 1q-113 -103 -113 -247t136 -144q61 0 130 28l12 -8l7 -35l-4 -13q-86 -60 -213 -60q-230 0 -230 210z" />
    <glyph glyph-name="eogonek" unicode="&#x119;" 
d="M691 587q0 270 -168 270q-177 0 -177 -268v-22q58 -9 170 -9t174 9q1 14 1 20zM676 111q96 0 228 66l24 -29l-44 -99q-137 -88 -296 -93q-78 -80 -78 -180q0 -132 138 -132q62 0 129 27l13 -5l7 -33l-6 -13q-89 -60 -199 -60q-112 0 -172 50t-60 136q0 122 127 214
q-195 22 -295 152t-99 333q0 279 133 382q184 142 360 142q176 -1 272 -109q94 -108 94 -299q0 -17 -1 -51l-11 -14q-132 -36 -350 -36l-237 -3q6 -146 93 -246t230 -100z" />
    <glyph glyph-name="Ecaron" unicode="&#x11a;" horiz-adv-x="1241" 
d="M238 967q0 238 -13 310q-5 29 -34 37q-15 4 -117 10l-10 10v68l10 9q100 -6 300 -6t727 6l11 -8l-13 -111q-6 -53 -9 -90l-7 -93l-10 -11h-58l-10 10q-1 136 -14 152t-109 25q-96 8 -177 8q-80 0 -169 -7q-11 -105 -11 -291v-207q79 -5 128 -5l131 1q92 1 106 17t19 133
l10 10h62l10 -10q-4 -112 -4 -209t4 -217l-10 -9h-67l-10 10q0 115 -16 137q-25 34 -227 33q-73 0 -136 -5v-305q0 -131 5 -254h136q350 0 374 34q10 14 19 60l24 124l10 11h61l11 -10q-22 -146 -22 -330l-10 -10l-727 6q-182 0 -257 -6l-10 10v28l5 12q74 46 82 62t9 130
l3 224v507zM1001 1895l-245 -356h-196l-245 356l3 10h77l263 -215l263 215h77z" />
    <glyph glyph-name="ecaron" unicode="&#x11b;" 
d="M691 587q0 270 -168 270q-177 0 -177 -268v-22q58 -9 170 -9t174 9q1 14 1 20zM676 111q96 0 228 66l24 -29l-44 -99q-146 -93 -317 -93q-225 0 -349 127t-125 362q0 279 133 382q184 142 356 142q172 -1 271 -105t99 -303q0 -17 -1 -51l-11 -14q-132 -36 -350 -36
l-237 -3q6 -147 93 -247t230 -99zM853 1472l-225 -362h-176l-225 362l3 10h77l233 -241l233 241h77z" />
    <glyph glyph-name="Gcircumflex" unicode="&#x11c;" horiz-adv-x="1706" 
d="M1516 296q0 -130 8 -214q-334 -126 -606 -126q-358 0 -580 200t-221 547q0 451 391 643q179 88 455 88q159 0 309 -32t228 -69l9 -18q-26 -88 -43 -306l-11 -10h-60l-10 10q0 106 -14 162q-44 60 -154 103t-242 43q-354 0 -489 -286q-62 -132 -62 -306q0 -279 151 -465
t398 -186q131 0 253 56q7 70 7 180q-1 110 -7 130q-6 18 -36 24t-171 16l-11 10v63l11 10q164 -5 579 0l10 -10v-48l-10 -11q-62 -16 -72 -42t-10 -156zM1310 1549l-3 -10h-77l-263 215l-263 -215h-77l-3 10l245 356h196z" />
    <glyph glyph-name="gcircumflex" unicode="&#x11d;" horiz-adv-x="1138" 
d="M888 -188q0 114 -76 142q-32 12 -128 13l-190 2q-32 0 -88 -2q-137 -85 -137 -191t81 -162q81 -58 222 -58q140 0 228 70q88 72 88 186zM706 630q0 252 -168 252t-167 -218q0 -258 173 -258q162 0 162 224zM1117 -69q1 -219 -163 -349t-428 -130q-208 0 -328 78t-120 208
q0 88 39 133q3 5 79 50t99 57q-138 24 -138 133q0 58 40 118q3 5 41 31t98 70q-216 78 -216 289q0 163 122 263t322 99q200 0 310 -87q62 -4 96 -2t133 5l12 -11l-11 -103l-11 -10h-148q13 -48 13 -98q0 -238 -231 -325q-104 -39 -205 -39q-34 0 -88 5q-63 -34 -63 -87
t73 -60q42 -4 140 -4l222 6q226 0 281 -100q30 -54 30 -140zM855 1120l-3 -10h-77l-233 241l-233 -241h-77l-3 10l225 362h176z" />
    <glyph glyph-name="Gbreve" unicode="&#x11e;" horiz-adv-x="1706" 
d="M1516 296q0 -130 8 -214q-334 -126 -606 -126q-358 0 -580 200t-221 547q0 451 391 643q179 88 455 88q159 0 309 -32t228 -69l9 -18q-26 -88 -43 -306l-11 -10h-60l-10 10q0 106 -14 162q-44 60 -154 103t-242 43q-354 0 -489 -286q-62 -132 -62 -306q0 -279 151 -465
t398 -186q131 0 253 56q7 70 7 180q-1 110 -7 130q-6 18 -36 24t-171 16l-11 10v63l11 10q164 -5 579 0l10 -10v-48l-10 -11q-62 -16 -72 -42t-10 -156zM948 1563q-290 0 -297 334l10 10h60q20 -169 228 -169t228 169h60l9 -10q-8 -334 -298 -334z" />
    <glyph glyph-name="gbreve" unicode="&#x11f;" horiz-adv-x="1138" 
d="M888 -188q0 114 -76 142q-32 12 -128 13l-190 2q-32 0 -88 -2q-137 -85 -137 -191t81 -162q81 -58 222 -58q140 0 228 70q88 72 88 186zM706 630q0 252 -168 252t-167 -218q0 -258 173 -258q162 0 162 224zM1117 -69q1 -219 -163 -349t-428 -130q-208 0 -328 78t-120 208
q0 88 39 133q3 5 79 50t99 57q-138 24 -138 133q0 58 40 118q3 5 41 31t98 70q-216 78 -216 289q0 163 122 263t322 99q200 0 310 -87q62 -4 96 -2t133 5l12 -11l-11 -103l-11 -10h-148q13 -48 13 -98q0 -238 -231 -325q-104 -39 -205 -39q-34 0 -88 5q-63 -34 -63 -87
t73 -60q42 -4 140 -4l222 6q226 0 281 -100q30 -54 30 -140zM542 1123q-121 0 -201 83t-83 206l10 10h60q35 -148 214 -148t214 148h60l10 -10q-3 -123 -83 -206t-201 -83z" />
    <glyph glyph-name="Gdotaccent" unicode="&#x120;" horiz-adv-x="1706" 
d="M1516 296q0 -130 8 -214q-334 -126 -606 -126q-358 0 -580 200t-221 547q0 451 391 643q179 88 455 88q159 0 309 -32t228 -69l9 -18q-26 -88 -43 -306l-11 -10h-60l-10 10q0 106 -14 162q-44 60 -154 103t-242 43q-354 0 -489 -286q-62 -132 -62 -306q0 -279 151 -465
t398 -186q131 0 253 56q7 70 7 180q-1 110 -7 130q-6 18 -36 24t-171 16l-11 10v63l11 10q164 -5 579 0l10 -10v-48l-10 -11q-62 -16 -72 -42t-10 -156zM1084 1723q0 -63 -42 -105t-104 -42q-60 0 -102 42t-43 104q0 60 43 104t102 44q58 0 102 -42t44 -105z" />
    <glyph glyph-name="gdotaccent" unicode="&#x121;" horiz-adv-x="1138" 
d="M888 -188q0 114 -76 142q-32 12 -128 13l-190 2q-32 0 -88 -2q-137 -85 -137 -191t81 -162q81 -58 222 -58q140 0 228 70q88 72 88 186zM706 630q0 252 -168 252t-167 -218q0 -258 173 -258q162 0 162 224zM1117 -69q1 -219 -163 -349t-428 -130q-208 0 -328 78t-120 208
q0 88 39 133q3 5 79 50t99 57q-138 24 -138 133q0 58 40 118q3 5 41 31t98 70q-216 78 -216 289q0 163 122 263t322 99q200 0 310 -87q62 -4 96 -2t133 5l12 -11l-11 -103l-11 -10h-148q13 -48 13 -98q0 -238 -231 -325q-104 -39 -205 -39q-34 0 -88 5q-63 -34 -63 -87
t73 -60q42 -4 140 -4l222 6q226 0 281 -100q30 -54 30 -140zM671 1253q0 -55 -38 -93t-91 -39q-53 1 -91 39t-38 92t38 92t91 39t91 -37t38 -93z" />
    <glyph glyph-name="uni0122" unicode="&#x122;" horiz-adv-x="1706" 
d="M1516 296q0 -130 8 -214q-334 -126 -606 -126q-358 0 -580 200t-221 547q0 451 391 643q179 88 455 88q159 0 309 -32t228 -69l9 -18q-26 -88 -43 -306l-11 -10h-60l-10 10q0 106 -14 162q-44 60 -154 103t-242 43q-354 0 -489 -286q-62 -132 -62 -306q0 -279 151 -465
t398 -186q131 0 253 56q7 70 7 180q-1 110 -7 130q-6 18 -36 24t-171 16l-11 10v63l11 10q164 -5 579 0l10 -10v-48l-10 -11q-62 -16 -72 -42t-10 -156zM926 -117q70 1 114 -53t43 -160q1 -106 -77 -187t-226 -96l-7 26q201 41 201 166q0 35 -48 37q-154 5 -154 136
q0 58 42 94t112 37z" />
    <glyph glyph-name="uni0123" unicode="&#x123;" horiz-adv-x="1138" 
d="M888 -188q0 114 -76 142q-32 12 -128 13l-190 2q-32 0 -88 -2q-137 -85 -137 -191t81 -162q81 -58 222 -58q140 0 228 70q88 72 88 186zM706 630q0 252 -168 252t-167 -218q0 -258 173 -258q162 0 162 224zM1117 -69q1 -219 -163 -349t-428 -130q-208 0 -328 78t-120 208
q0 88 39 133q3 5 79 50t99 57q-138 24 -138 133q0 58 40 118q3 5 41 31t98 70q-216 78 -216 289q0 163 122 263t322 99q200 0 310 -87q62 -4 96 -2t133 5l12 -11l-11 -103l-11 -10h-148q13 -48 13 -98q0 -238 -231 -325q-104 -39 -205 -39q-34 0 -88 5q-63 -34 -63 -87
t73 -60q42 -4 140 -4l222 6q226 0 281 -100q30 -54 30 -140zM671 1228q-1 -56 -37 -90t-99 -34t-103 50t-40 144q0 93 78 169t194 88l7 -25q-100 -21 -137 -65q-37 -43 -37 -81q1 -38 51 -38t86 -31t37 -87z" />
    <glyph glyph-name="Hcircumflex" unicode="&#x124;" horiz-adv-x="1706" 
d="M1322 0q-212 0 -306 -6l-10 9v68l11 10q102 6 117 10q29 8 34 37q13 72 13 310v241q-51 5 -313 5t-343 -5v-241q0 -238 13 -310q5 -29 34 -37q15 -4 117 -10l10 -10v-67l-9 -10q-100 6 -312 6t-304 -6l-10 9v68l10 10q102 6 117 10q29 8 34 37q13 72 13 310v529
q0 238 -13 310q-5 29 -34 37q-15 4 -117 10l-10 10v68l10 9q96 -6 310 -6t306 6l9 -9v-69l-10 -9q-102 -6 -117 -10q-29 -8 -34 -37q-13 -72 -13 -310v-165q106 -5 345 -5t311 5v165q0 238 -13 310q-5 29 -34 37q-15 4 -117 10l-11 10v68l10 9q98 -6 312 -6t304 6l10 -9v-69
l-9 -9q-104 -6 -118 -10q-29 -8 -34 -37q-13 -72 -13 -310v-529q0 -238 13 -310q5 -29 34 -37q15 -4 117 -10l10 -10v-67l-10 -10q-98 6 -310 6zM1196 1549l-3 -10h-77l-263 215l-263 -215h-77l-3 10l245 356h196z" />
    <glyph glyph-name="hcircumflex" unicode="&#x125;" horiz-adv-x="1251" 
d="M1015 0q-73 0 -207 -7l-10 10q18 223 18 344v196q0 244 -176 244q-94 -1 -141 -59t-47 -140v-118q0 -203 7 -333q1 -39 23 -49t118 -14l11 -10v-61l-10 -10q-95 7 -274 7t-273 -7l-10 10v61l10 10q96 4 118 14t23 49q7 130 7 455v335q0 210 -7 340q-2 37 -22 49t-116 14
l-10 11v55l10 11q193 21 387 83l21 -12l-7 -182t-6 -446v-56l176 148q66 27 145 27q159 0 238 -96q64 -78 64 -229l-8 -313q0 -151 5 -193t23 -52q18 -11 104 -13l9 -10v-59l-10 -11q-110 7 -183 7zM650 1570l-3 -10h-77l-233 241l-233 -241h-77l-3 10l225 362h176z" />
    <glyph glyph-name="Hbar" unicode="&#x126;" horiz-adv-x="1706" 
d="M1181 965h-656v-163q106 -5 345 -5t311 5v163zM1322 0q-212 0 -306 -6l-10 9v68l11 10q102 6 117 10q29 8 34 37q13 72 13 310v241q-51 5 -313 5t-343 -5v-241q0 -238 13 -310q5 -29 34 -37q15 -4 117 -10l10 -10v-67l-9 -10q-100 6 -312 6t-304 -6l-10 9v68l10 10
q102 6 117 10q29 8 34 37q13 72 13 310v526h-158l-16 10v91l16 14h156q-4 159 -10 193t-35 42q-15 4 -117 10l-10 10v68l10 9q96 -6 310 -6t306 6l9 -9v-69l-10 -9q-102 -6 -117 -10q-29 -8 -35 -42t-10 -194h652q-4 160 -10 194t-35 42q-15 4 -117 10l-11 10v68l10 9
q98 -6 312 -6t304 6l10 -9v-69l-9 -9q-104 -6 -118 -10q-29 -8 -35 -42t-10 -193h156l16 -14v-91l-16 -10h-158v-526q0 -238 13 -310q5 -29 34 -37q15 -4 117 -10l10 -10v-67l-10 -10q-98 6 -310 6z" />
    <glyph glyph-name="hbar" unicode="&#x127;" horiz-adv-x="1251" 
d="M1015 0q-73 0 -207 -7l-10 10q18 223 18 344v196q0 244 -176 244q-94 -1 -141 -59t-47 -140v-118q0 -203 7 -333q1 -39 23 -49t118 -14l11 -10v-61l-10 -10q-95 7 -274 7t-273 -7l-10 10v61l10 10q96 4 118 14t23 49q7 130 7 455v335q0 65 -2 166h-119l-11 11v63l11 11
h117l-3 89q-2 37 -22 48.5t-116 14.5l-10 11v55l10 11q193 21 387 83l21 -12l-9 -300h306l10 -11v-64l-10 -10h-308q-2 -123 -2 -243v-56l176 148q66 27 145 27q159 0 238 -96q64 -78 64 -229l-8 -313q0 -151 5 -192.5t23 -52.5t104 -13l9 -10v-59l-10 -11q-110 7 -183 7z
" />
    <glyph glyph-name="Itilde" unicode="&#x128;" horiz-adv-x="797" 
d="M398 0q-208 0 -308 -6l-9 10v67l10 10q102 6 117 10q29 8 34 37q13 72 13 310v529q0 238 -13 310q-5 29 -34 37q-15 4 -117 10l-10 10v68l10 9q95 -6 307 -6t308 6l10 -9v-68l-10 -10q-102 -6 -117 -10q-29 -8 -34 -37q-13 -72 -13 -310v-529q0 -238 13 -310
q5 -29 34 -37q15 -4 117 -10l10 -10v-67l-9 -10q-101 6 -309 6zM551 1594q-55 0 -107 24t-87 40l-84 39q-40 18 -77 18q-80 0 -114 -114h-63l-7 10q20 113 86 189t147 77q55 0 107 -24q52 -25 87 -41l84 -38q40 -18 77 -18q80 0 114 114h63l7 -10q-20 -114 -86 -190
t-147 -76z" />
    <glyph glyph-name="itilde" unicode="&#x129;" horiz-adv-x="682" 
d="M341 0q-179 0 -273 -7l-10 10v61l10 10q96 4 118 14t23 49q7 130 7 279v143q0 194 -12 222q-12 27 -34 31q-24 4 -99 7l-10 10v56l10 11q192 17 387 83l21 -13q-13 -182 -13 -307v-319q0 -73 7 -203q1 -39 23 -49t118 -14l11 -10v-61l-10 -10q-95 7 -274 7zM441 1142
q-47 0 -154 53t-141 53q-79 0 -114 -99h-63l-7 10q61 240 233 240q47 0 154 -53t141 -53q79 0 114 99h63l7 -10q-61 -240 -233 -240z" />
    <glyph glyph-name="Imacron" unicode="&#x12a;" horiz-adv-x="797" 
d="M398 0q-208 0 -308 -6l-9 10v67l10 10q102 6 117 10q29 8 34 37q13 72 13 310v529q0 238 -13 310q-5 29 -34 37q-15 4 -117 10l-10 10v68l10 9q95 -6 307 -6t308 6l10 -9v-68l-10 -10q-102 -6 -117 -10q-29 -8 -34 -37q-13 -72 -13 -310v-529q0 -238 13 -310
q5 -29 34 -37q15 -4 117 -10l10 -10v-67l-9 -10q-101 6 -309 6zM751 1638h-707v166h707v-166z" />
    <glyph glyph-name="imacron" unicode="&#x12b;" horiz-adv-x="682" 
d="M341 0q-179 0 -273 -7l-10 10v61l10 10q96 4 118 14t23 49q7 130 7 279v143q0 194 -12 222q-12 27 -34 31q-24 4 -99 7l-10 10v56l10 11q192 17 387 83l21 -13q-13 -182 -13 -307v-319q0 -73 7 -203q1 -39 23 -49t118 -14l11 -10v-61l-10 -10q-95 7 -274 7zM641 1184
h-646v126h646v-126z" />
    <glyph glyph-name="Ibreve" unicode="&#x12c;" horiz-adv-x="797" 
d="M398 0q-208 0 -308 -6l-9 10v67l10 10q102 6 117 10q29 8 34 37q13 72 13 310v529q0 238 -13 310q-5 29 -34 37q-15 4 -117 10l-10 10v68l10 9q95 -6 307 -6t308 6l10 -9v-68l-10 -10q-102 -6 -117 -10q-29 -8 -34 -37q-13 -72 -13 -310v-529q0 -238 13 -310
q5 -29 34 -37q15 -4 117 -10l10 -10v-67l-9 -10q-101 6 -309 6zM398 1563q-290 0 -297 334l10 10h60q20 -169 228 -169t228 169h60l9 -10q-8 -334 -298 -334z" />
    <glyph glyph-name="ibreve" unicode="&#x12d;" horiz-adv-x="682" 
d="M341 0q-179 0 -273 -7l-10 10v61l10 10q96 4 118 14t23 49q7 130 7 279v143q0 194 -12 222q-12 27 -34 31q-24 4 -99 7l-10 10v56l10 11q192 17 387 83l21 -13q-13 -182 -13 -307v-319q0 -73 7 -203q1 -39 23 -49t118 -14l11 -10v-61l-10 -10q-95 7 -274 7zM318 1123
q-121 0 -201 83t-83 206l10 10h60q35 -148 214 -148t214 148h60l10 -10q-3 -123 -83 -206t-201 -83z" />
    <glyph glyph-name="Iogonek" unicode="&#x12e;" horiz-adv-x="797" 
d="M358 -252q0 -144 136 -144q61 0 130 28l12 -8l7 -35l-4 -13q-86 -60 -213 -60q-230 0 -230 210q0 166 199 274q-205 0 -305 -6l-9 10v67l10 10q102 6 117 10q29 8 34 37q13 72 13 310v529q0 238 -13 310q-5 29 -34 37q-15 4 -117 10l-10 10v68l10 9q95 -6 307 -6t308 6
l10 -9v-68l-10 -10q-102 -6 -117 -10q-29 -8 -34 -37q-13 -72 -13 -310v-529q0 -238 13 -310q5 -29 34 -37q15 -4 117 -10l10 -10v-67l-9 -10q-85 5 -231 6q-118 -108 -118 -252z" />
    <glyph glyph-name="iogonek" unicode="&#x12f;" horiz-adv-x="682" 
d="M284 -226q0 -130 138 -130q62 0 129 27l13 -5l7 -33l-6 -13q-89 -60 -199 -60q-112 0 -172 50t-60 133t57 151t138 106q-167 0 -261 -7l-10 10v61l10 10q94 3 116 14t25 49q7 131 7 279v143q0 193 -12 221t-36 32t-97 7l-10 10v56l10 11q192 17 387 83l21 -13
q-13 -182 -13 -307v-319q0 -72 7 -203q3 -38 25 -49t116 -14l11 -10v-61l-10 -10q-80 6 -202 7q-129 -96 -129 -226zM487 1308q0 -64 -44.5 -109.5t-108.5 -45.5t-109 45.5t-45 109.5t45 110t109 46t108.5 -46t44.5 -110z" />
    <glyph glyph-name="Idotaccent" unicode="&#x130;" horiz-adv-x="797" 
d="M398 0q-208 0 -308 -6l-9 10v67l10 10q102 6 117 10q29 8 34 37q13 72 13 310v529q0 238 -13 310q-5 29 -34 37q-15 4 -117 10l-10 10v68l10 9q95 -6 307 -6t308 6l10 -9v-68l-10 -10q-102 -6 -117 -10q-29 -8 -34 -37q-13 -72 -13 -310v-529q0 -238 13 -310
q5 -29 34 -37q15 -4 117 -10l10 -10v-67l-9 -10q-101 6 -309 6zM544 1723q0 -63 -42 -105t-104 -42q-60 0 -102 42t-43 104q0 60 43 104t102 44q58 0 102 -42t44 -105z" />
    <glyph glyph-name="dotlessi" unicode="&#x131;" horiz-adv-x="682" 
d="M341 0q-179 0 -273 -7l-10 10v61l10 10q96 3 117.5 13.5t23.5 49.5q7 130 7 279v143q0 194 -12 222t-35 31.5t-98 6.5l-10 10v56l10 11q192 17 387 83l21 -13q-13 -182 -13 -307v-319q0 -73 7 -203q2 -39 23.5 -49.5t117.5 -13.5l11 -10v-61l-10 -10q-95 7 -274 7z" />
    <glyph glyph-name="Jcircumflex" unicode="&#x134;" horiz-adv-x="797" 
d="M567 967v-744q0 -201 -46 -321t-179 -236t-260 -117q-42 0 -82 15q5 75 5 185l23 14q81 -73 143 -73q86 0 96 91q13 118 13 354v832q0 237 -13 310q-5 29 -34 37q-7 2 -140 10l-10 10v68l10 9q138 -6 343 -6t295 6l10 -9v-69l-10 -9q-102 -6 -117 -10q-29 -8 -34 -37
q-13 -73 -13 -310zM766 1549l-3 -10h-77l-263 215l-263 -215h-77l-3 10l245 356h196z" />
    <glyph glyph-name="jcircumflex" unicode="&#x135;" horiz-adv-x="682" 
d="M463 659v-170l2 -294q0 -130 -13 -317.5t-132 -309.5t-255 -122q-16 0 -38 3l-22 72l10 14q18 -2 50 -2t67.5 27.5t58 100t22.5 488.5v410q0 33 -4 120.5t-8 101t-17 24t-116 14.5l-11 10v56l11 11q190 17 387 83l21 -13q-13 -64 -13 -307zM228 1482h176l225 -362l-3 -10
h-77l-233 242l-233 -242h-77l-3 10z" />
    <glyph glyph-name="uni0136" unicode="&#x136;" horiz-adv-x="1576" 
d="M1314 0q-60 0 -180 -6q-23 50 -103 141l-297 339q-97 110 -209 202v-238q0 -238 13 -310q5 -29 34 -37q15 -4 117 -10l10 -10v-67l-9 -10q-100 6 -312 6t-304 -6l-10 9v68l10 10q102 6 117 10q29 8 34 37q13 72 13 310v529q0 238 -13 310q-5 29 -34 37q-15 4 -117 10
l-10 10v68l10 9q96 -6 310 -6t306 6l9 -9v-69l-10 -9q-102 -6 -117 -10q-29 -8 -34 -37q-13 -72 -13 -310v-248q187 174 268 258l142 147q73 76 187 208v69l11 10q77 -6 157 -6t198 6l10 -10v-62l-10 -10q-116 1 -184 -45t-295 -260l-202 -192q43 -58 140 -171l224 -260
q249 -289 288 -307q24 -11 79 -12l10 -11v-67l-10 -10q-164 6 -224 6zM810 -117q70 1 114 -53t43 -160q1 -106 -77 -187t-226 -96l-7 26q201 41 201 166q0 35 -48 37q-154 5 -154 136q0 58 42 94t112 37z" />
    <glyph glyph-name="uni0137" unicode="&#x137;" horiz-adv-x="1251" 
d="M1060 -3q-92 0 -179 -4q-56 102 -220 283t-195 203l7 -342q1 -39 23 -49t118 -14l11 -10v-61l-10 -10q-95 7 -274 7t-273 -7l-10 10v61l10 10q96 4 118 14t23 49q7 130 7 455v335q0 210 -7 340q-2 37 -22 49t-116 14l-10 11v55l10 11q193 21 387 83l21 -12l-7 -182
t-6 -446v-327l99 81q65 53 182 177l104 110q29 31 46 54q85 -3 145 -3t114 3l10 -10v-60l-10 -10l-73 -4q-45 -2 -77 -25t-90 -70l-84 -69l-115 -104l214 -250q204 -238 245 -258q21 -10 44 -10l10 -11v-61l-10 -10q-68 4 -160 4zM784 -310q0 -93 -78 -169t-194 -88l-7 25
q100 21 137 65q37 43 37 81q-1 38 -51 38t-86 31t-37 87q1 56 37 90t99 34t103 -50t40 -144z" />
    <glyph glyph-name="kgreenlandic" unicode="&#x138;" horiz-adv-x="1187" 
d="M841 874q0 12 -14 18v42l12 10q69 -5 132 -5t147 5l10 -10v-63l-10 -10q-90 -1 -136 -27t-138 -106l-177 -154q25 -31 69 -85l274 -333q67 -80 142 -82l10 -10v-60l-10 -10l-188 6q-17 0 -162 -6q-18 30 -104 149t-246 310v-113q0 -73 7 -203q2 -37 22 -49t99 -14l11 -10
v-61l-10 -10q-95 7 -264 7t-263 -7l-10 10v61l10 10q82 2 90 4q48 11 51 59q7 130 7 279v143q0 194 -12 222q-12 27 -34 31q-24 4 -99 7l-10 10v56l10 11q192 17 387 83l21 -13q-13 -182 -13 -307v-177q389 367 389 392z" />
    <glyph glyph-name="Lacute" unicode="&#x139;" horiz-adv-x="1241" 
d="M238 967q0 238 -13 310q-5 29 -34 37q-15 4 -117 10l-10 10v68l10 9q104 -6 306 -6t309 6l10 -9v-69l-10 -9q-102 -6 -117 -10q-29 -8 -34 -37q-13 -72 -13 -310v-598q0 -131 5 -254h136q350 0 374 34q10 14 19 60l24 124l10 11h61l11 -10q-22 -146 -22 -330l-10 -10
l-727 6q-182 0 -257 -6l-10 10v28l5 12q74 47 82 62t9 130l3 224v507zM749 1875l-451 -326l-46 35v14l219 276l256 31z" />
    <glyph glyph-name="lacute" unicode="&#x13a;" horiz-adv-x="682" 
d="M341 0q-179 0 -273 -7l-10 10v61l10 10q96 4 118 14t23 49q7 130 7 455v335q0 210 -7 340q-2 37 -22 49t-116 14l-10 11v55l10 11q193 21 387 83l21 -12l-7 -182t-6 -446v-258q0 -325 7 -455q1 -39 23 -49t118 -14l11 -10v-61l-10 -10q-95 7 -274 7zM574 1952l-328 -385
l-56 30v13l140 341l219 29z" />
    <glyph glyph-name="uni013B" unicode="&#x13b;" horiz-adv-x="1241" 
d="M238 967q0 238 -13 310q-5 29 -34 37q-15 4 -117 10l-10 10v68l10 9q104 -6 306 -6t309 6l10 -9v-69l-10 -9q-102 -6 -117 -10q-29 -8 -34 -37q-13 -72 -13 -310v-598q0 -131 5 -254h136q350 0 374 34q10 14 19 60l24 124l10 11h61l11 -10q-22 -146 -22 -330l-10 -10
l-727 6q-182 0 -257 -6l-10 10v28l5 12q74 47 82 62t9 130l3 224v507zM622 -117q70 1 114 -53t44 -160t-78 -187t-225 -96l-7 26q201 41 201 166q0 35 -48 37q-154 5 -154 136q-1 58 41 94t112 37z" />
    <glyph glyph-name="uni013C" unicode="&#x13c;" horiz-adv-x="682" 
d="M341 0q-179 0 -273 -7l-10 10v61l10 10q96 4 118 14t23 49q7 130 7 455v335q0 210 -7 340q-2 37 -22 49t-116 14l-10 11v55l10 11q193 21 387 83l21 -12l-7 -182t-6 -446v-258q0 -325 7 -455q1 -39 23 -49t118 -14l11 -10v-61l-10 -10q-95 7 -274 7zM481 -310
q-1 -93 -79 -169t-193 -88l-7 25q100 21 137 65q37 43 37 81t-50 38t-88 31q-36 31 -36 87t36 90t100 34q63 0 103 -50t40 -144z" />
    <glyph glyph-name="Lcaron" unicode="&#x13d;" horiz-adv-x="1241" 
d="M238 967q0 238 -13 310q-5 29 -34 37q-15 4 -117 10l-10 10v68l10 9q104 -6 306 -6t309 6l10 -9v-69l-10 -9q-102 -6 -117 -10q-29 -8 -34 -37q-13 -72 -13 -310v-598q0 -131 5 -254h136q350 0 374 34q10 14 19 60l24 124l10 11h61l11 -10q-22 -146 -22 -330l-10 -10
l-727 6q-182 0 -257 -6l-10 10v28l5 12q74 47 82 62t9 130l3 224v507zM962 1411q70 1 114 -53t44 -160t-78 -187t-225 -96l-7 26q201 41 201 166q0 35 -48 37q-154 5 -154 136q-1 58 41 94t112 37z" />
    <glyph glyph-name="lcaron" unicode="&#x13e;" horiz-adv-x="884" 
d="M341 0q-179 0 -273 -7l-10 10v61l10 10q96 4 118 14t23 49q7 130 7 455v335q0 210 -7 340q-2 37 -22 49t-116 14l-10 11v55l10 11q193 21 387 83l21 -12l-7 -182t-6 -446v-258q0 -325 7 -455q1 -39 23 -49t118 -14l11 -10v-61l-10 -10q-95 7 -274 7zM861 1296
q-1 -93 -79 -169t-193 -88l-7 25q100 21 137 65q37 43 37 81t-50 38t-88 31q-36 31 -36 87t36 90t100 34q63 0 103 -50t40 -144z" />
    <glyph glyph-name="Ldot" unicode="&#x13f;" horiz-adv-x="1241" 
d="M238 967q0 238 -13 310q-5 29 -34 37q-15 4 -117 10l-10 10v68l10 9q104 -6 306 -6t309 6l10 -9v-69l-10 -9q-102 -6 -117 -10q-29 -8 -34 -37q-13 -72 -13 -310v-598q0 -131 5 -254h136q350 0 374 34q10 14 19 60l24 124l10 11h61l11 -10q-22 -146 -22 -330l-10 -10
l-727 6q-182 0 -257 -6l-10 10v28l5 12q74 47 82 62t9 130l3 224v507zM968 814q0 -62 -42 -104t-104 -43q-60 1 -102 43t-43 103q0 61 43 105t102 43q58 -1 102 -43t44 -104z" />
    <glyph glyph-name="ldot" unicode="&#x140;" horiz-adv-x="879" 
d="M341 0q-179 0 -273 -7l-10 10v61l10 10q96 4 118 14t23 49q7 130 7 455v335q0 210 -7 340q-2 37 -22 49t-116 14l-10 11v55l10 11q193 21 387 83l21 -12l-7 -182t-6 -446v-258q0 -325 7 -455q1 -39 23 -49t118 -14l11 -10v-61l-10 -10q-95 7 -274 7zM840 792
q0 -56 -38 -94t-91 -38t-91 38t-38 93t38 93t91 38t91 -38t38 -92z" />
    <glyph glyph-name="Lslash" unicode="&#x141;" horiz-adv-x="1241" 
d="M238 967q0 238 -13 310q-5 29 -34 37q-15 4 -117 10l-10 10v68l10 9q104 -6 306 -6t309 6l10 -9v-69l-10 -9q-102 -6 -117 -10q-29 -8 -34 -37q-13 -72 -13 -310v-117l256 144l15 -7l22 -63l-5 -14l-288 -161v-380q0 -131 5 -254h136q350 0 374 34q10 14 19 60l24 124
l10 11h61l11 -10q-22 -146 -22 -330l-10 -10l-727 6q-182 0 -257 -6l-10 10v28l5 12q74 47 82 62t9 130l3 357l-173 -97l-15 5l-23 62l5 14l206 116v274z" />
    <glyph glyph-name="lslash" unicode="&#x142;" horiz-adv-x="682" 
d="M466 592q0 -325 7 -455q1 -39 23 -49t118 -14l11 -10v-61l-10 -10q-95 7 -274 7t-273 -7l-10 10v61l10 10q96 4 118 14t23 49q7 130 7 455v93l-179 -117l-13 4l-23 53l4 14l211 137v151q0 210 -7 340q-2 37 -22 48.5t-116 14.5l-10 11v55l10 11q193 21 387 83l21 -12
q0 -27 -6 -167t-7 -372l187 122l14 -6l22 -52l-5 -13l-218 -142v-256z" />
    <glyph glyph-name="Nacute" unicode="&#x143;" horiz-adv-x="1706" 
d="M1465 967v-406q0 -449 13 -585l-13 -9q-113 19 -171 27q-268 301 -915 1098v-654q0 -238 13 -310q5 -29 34 -37q15 -4 117 -10l10 -10v-68l-10 -9q-115 6 -222 6t-223 -6l-10 9v68l10 10q102 6 117 10q29 8 34 37q13 72 13 310v529q0 238 -13 310q-5 29 -34 37
q-15 4 -117 10l-10 10v68l10 9q96 -6 206 -6t199 6q360 -480 846 -1029v585q0 238 -13 310q-5 29 -34 37q-15 4 -117 10l-10 10v68l10 9q112 -6 227 -6t218 6l10 -9v-68l-11 -10q-102 -6 -117 -10q-29 -8 -34 -37q-13 -72 -13 -310zM1195 1875l-451 -326l-46 35v14l219 276
l256 31z" />
    <glyph glyph-name="nacute" unicode="&#x144;" horiz-adv-x="1251" 
d="M1015 0q-73 0 -207 -7l-10 10q18 223 18 344v196q0 244 -176 244q-92 0 -140 -58t-48 -112v-187q0 -259 13 -318q8 -35 116 -37l10 -10v-61l-10 -10q-85 6 -259 6t-268 -7l-10 10v61l10 10q96 4 118 14t23 49q7 130 7 279v143q0 200 -12 225q-12 24 -36 28q-22 4 -97 7
l-10 10v56l10 11q180 17 379 83l22 -13l-2 -168l172 144q66 27 145 27q159 0 238 -96q64 -78 64 -229l-8 -313q0 -151 5 -193t23 -52q18 -11 104 -13l9 -10v-59l-10 -11q-110 7 -183 7zM884 1474l-328 -385l-56 30v13l140 341l219 29z" />
    <glyph glyph-name="uni0145" unicode="&#x145;" horiz-adv-x="1706" 
d="M1465 967v-406q0 -449 13 -585l-13 -9q-113 19 -171 27q-268 301 -915 1098v-654q0 -238 13 -310q5 -29 34 -37q15 -4 117 -10l10 -10v-68l-10 -9q-115 6 -222 6t-223 -6l-10 9v68l10 10q102 6 117 10q29 8 34 37q13 72 13 310v529q0 238 -13 310q-5 29 -34 37
q-15 4 -117 10l-10 10v68l10 9q96 -6 206 -6t199 6q360 -480 846 -1029v585q0 238 -13 310q-5 29 -34 37q-15 4 -117 10l-10 10v68l10 9q112 -6 227 -6t218 6l10 -9v-68l-11 -10q-102 -6 -117 -10q-29 -8 -34 -37q-13 -72 -13 -310zM892 -117q70 1 114 -53t43 -160
q1 -106 -77 -187t-226 -96l-7 26q201 41 201 166q0 35 -48 37q-154 5 -154 136q0 58 42 94t112 37z" />
    <glyph glyph-name="uni0146" unicode="&#x146;" horiz-adv-x="1251" 
d="M1015 0q-73 0 -207 -7l-10 10q18 223 18 344v196q0 244 -176 244q-92 0 -140 -58t-48 -112v-187q0 -259 13 -318q8 -35 116 -37l10 -10v-61l-10 -10q-85 6 -259 6t-268 -7l-10 10v61l10 10q96 4 118 14t23 49q7 130 7 279v143q0 200 -12 225q-12 24 -36 28q-22 4 -97 7
l-10 10v56l10 11q180 17 379 83l22 -13l-2 -168l172 144q66 27 145 27q159 0 238 -96q64 -78 64 -229l-8 -313q0 -151 5 -193t23 -52q18 -11 104 -13l9 -10v-59l-10 -11q-110 7 -183 7zM778 -310q0 -93 -78 -169t-194 -88l-7 25q100 21 137 65q37 43 37 81q-1 38 -51 38
t-86 31t-37 87q1 56 37 90t99 34t103 -50t40 -144z" />
    <glyph glyph-name="Ncaron" unicode="&#x147;" horiz-adv-x="1706" 
d="M1465 967v-406q0 -449 13 -585l-13 -9q-113 19 -171 27q-268 301 -915 1098v-654q0 -238 13 -310q5 -29 34 -37q15 -4 117 -10l10 -10v-68l-10 -9q-115 6 -222 6t-223 -6l-10 9v68l10 10q102 6 117 10q29 8 34 37q13 72 13 310v529q0 238 -13 310q-5 29 -34 37
q-15 4 -117 10l-10 10v68l10 9q96 -6 206 -6t199 6q360 -480 846 -1029v585q0 238 -13 310q-5 29 -34 37q-15 4 -117 10l-10 10v68l10 9q112 -6 227 -6t218 6l10 -9v-68l-11 -10q-102 -6 -117 -10q-29 -8 -34 -37q-13 -72 -13 -310zM1207 1895l-245 -356h-196l-245 356l3 10
h77l263 -215l263 215h77z" />
    <glyph glyph-name="ncaron" unicode="&#x148;" horiz-adv-x="1251" 
d="M1015 0q-73 0 -207 -7l-10 10q18 223 18 344v196q0 244 -176 244q-92 0 -140 -58t-48 -112v-187q0 -259 13 -318q8 -35 116 -37l10 -10v-61l-10 -10q-85 6 -259 6t-268 -7l-10 10v61l10 10q96 4 118 14t23 49q7 130 7 279v143q0 200 -12 225q-12 24 -36 28q-22 4 -97 7
l-10 10v56l10 11q180 17 379 83l22 -13l-2 -168l172 144q66 27 145 27q159 0 238 -96q64 -78 64 -229l-8 -313q0 -151 5 -193t23 -52q18 -11 104 -13l9 -10v-59l-10 -11q-110 7 -183 7zM937 1472l-225 -362h-176l-225 362l3 10h77l233 -241l233 241h77z" />
    <glyph glyph-name="napostrophe" unicode="&#x149;" horiz-adv-x="1634" 
d="M1398 0q-73 0 -207 -7l-10 10q18 223 18 344v196q0 244 -176 244q-92 0 -140 -58t-48 -112v-187q0 -259 13 -318q8 -35 116 -37l10 -10v-61l-10 -10q-85 6 -259 6t-268 -7l-10 10v61l10 10q95 4 117 14t24 49q7 130 7 279v143q-1 200 -13 225q-12 24 -34 28t-98 7l-10 10
v56l10 11q180 17 379 83l22 -13l-2 -168l172 144q66 27 145 27q159 0 238 -96q64 -78 64 -229l-8 -313q0 -151 5 -193t23 -52q18 -11 104 -13l9 -10v-59l-10 -11q-110 7 -183 7zM301 1211q-1 -93 -79 -169t-193 -88l-7 25q100 21 137 65t37 82t-50 37q-50 0 -88 31
q-36 30 -36 86t36 90t100 35q63 -1 103 -51t40 -143z" />
    <glyph glyph-name="Eng" unicode="&#x14a;" horiz-adv-x="1706" 
d="M1465 967v-1089q0 -362 -257 -362q-57 0 -112 33l-8 14l43 133l12 6q40 -25 86 -25q178 0 178 224v76q-35 6 -113 17q-268 301 -915 1098v-654q0 -238 13 -310q5 -29 34 -37q15 -4 117 -10l10 -10v-68l-10 -9q-115 6 -222 6t-223 -6l-10 9v68l10 10q102 6 117 10
q29 8 34 37q13 72 13 310v529q0 238 -13 310q-5 29 -34 37q-15 4 -117 10l-10 10v68l10 9q96 -6 206 -6t199 6q360 -480 846 -1029v585q0 238 -13 310q-5 29 -34 37q-15 4 -117 10l-10 10v68l10 9q112 -6 227 -6t218 6l10 -9v-68l-11 -10q-102 -6 -117 -10q-29 -8 -34 -37
q-13 -72 -13 -310z" />
    <glyph glyph-name="eng" unicode="&#x14b;" horiz-adv-x="1236" 
d="M773 969q297 0 297 -323v-425q2 -348 -52 -494q-74 -199 -226 -257q-62 -24 -100 -24t-60 3l-22 72l10 14q18 -2 30 -2q135 0 155 191q11 106 11 460t-2 392q-8 126 -54 168t-128 43q-82 0 -131 -57.5t-49 -112.5v-277q0 -169 13 -228q8 -35 116 -37l10 -10v-61l-10 -10
q-85 6 -259 6t-268 -7l-10 10v61l10 10q96 4 118 14t23 49q7 130 7 279v143q0 200 -12 225q-12 24 -36 28q-22 4 -97 7l-10 10v56l10 11q180 17 379 83l22 -13l-2 -168l172 144q66 27 145 27z" />
    <glyph glyph-name="Omacron" unicode="&#x14c;" horiz-adv-x="1706" 
d="M1304 687q0 291 -116 461t-342 170q-297 0 -394 -267q-50 -137 -50 -307q0 -309 116 -491t351 -182q285 0 383 281q52 149 52 335zM1612 739q0 -369 -212 -576t-564 -207t-547 192t-195 536q0 481 367 666q167 84 411 84q348 0 544 -184t196 -511zM1200 1638h-707v166
h707v-166z" />
    <glyph glyph-name="omacron" unicode="&#x14d;" horiz-adv-x="1139" 
d="M780 414q0 248 -54 356t-167 108q-199 0 -199 -359q0 -461 223 -461q139 0 177 153q20 80 20 203zM584 983q473 0 473 -487q0 -354 -238 -479q-116 -61 -265 -61q-230 0 -350 133t-121 381q0 343 234 457q115 56 267 56zM903 1184h-646v126h646v-126z" />
    <glyph glyph-name="Obreve" unicode="&#x14e;" horiz-adv-x="1706" 
d="M1304 687q0 291 -116 461t-342 170q-297 0 -394 -267q-50 -137 -50 -307q0 -309 116 -491t351 -182q285 0 383 281q52 149 52 335zM1612 739q0 -369 -212 -576t-564 -207t-547 192t-195 536q0 481 367 666q167 84 411 84q348 0 544 -184t196 -511zM848 1563
q-290 0 -298 334l10 10h60q20 -169 228 -169t228 169h60l9 -10q-7 -334 -297 -334z" />
    <glyph glyph-name="obreve" unicode="&#x14f;" horiz-adv-x="1139" 
d="M780 414q0 248 -54 356t-167 108q-199 0 -199 -359q0 -461 223 -461q139 0 177 153q20 80 20 203zM584 983q473 0 473 -487q0 -354 -238 -479q-116 -61 -265 -61q-230 0 -350 133t-121 381q0 343 234 457q115 56 267 56zM580 1123q-121 0 -201 83t-83 206l10 10h60
q35 -148 214 -148t214 148h60l10 -10q-3 -123 -83 -206t-201 -83z" />
    <glyph glyph-name="Ohungarumlaut" unicode="&#x150;" horiz-adv-x="1706" 
d="M1304 687q0 291 -116 461t-342 170q-297 0 -394 -267q-50 -137 -50 -307q0 -309 116 -491t351 -182q285 0 383 281q52 149 52 335zM1612 739q0 -369 -212 -576t-564 -207t-547 192t-195 536q0 481 367 666q167 84 411 84q348 0 544 -184t196 -511zM1028 1875l-451 -326
l-46 35v14l219 276l256 31zM1481 1875l-451 -326l-46 35v14l219 276l256 31z" />
    <glyph glyph-name="ohungarumlaut" unicode="&#x151;" horiz-adv-x="1139" 
d="M780 414q0 248 -54 356t-167 108q-199 0 -199 -359q0 -461 223 -461q139 0 177 153q20 80 20 203zM584 983q473 0 473 -487q0 -354 -238 -479q-116 -61 -265 -61q-230 0 -350 133t-121 381q0 343 234 457q115 56 267 56zM726 1474l-328 -385l-56 30v13l140 341l219 29z
M1059 1474l-328 -385l-56 30v13l140 341l219 29z" />
    <glyph glyph-name="OE" unicode="&#x152;" horiz-adv-x="2048" 
d="M1093 613v195q0 138 -9 421q-98 91 -266 91q-280 0 -374 -255q-49 -133 -49 -315q0 -427 199 -589q100 -82 230 -82q174 0 260 63q9 90 9 471zM780 -35q-327 -1 -509 205t-182 541t179 530t557 195q86 0 231 -19t238 -17l633 11l10 -10l-13 -109q-6 -51 -9 -90l-7 -93
l-10 -11h-58l-10 10q-1 136 -14 152t-109.5 24.5t-161.5 8.5t-154 -7q-11 -105 -11 -291v-207q80 -5 128 -5l101 1q92 1 106 17t19 133l10 10h62l10 -10q-4 -112 -4 -209t4 -217l-10 -9h-67l-10 10q0 115 -20.5 142.5t-192.5 27.5q-73 0 -136 -5v-305q0 -131 5 -254h136
q320 0 344 34q10 14 19 60l24 124l10 11h61l11 -10q-22 -146 -22 -330l-10 -10l-638 7q-108 0 -283 -18t-257 -18z" />
    <glyph glyph-name="oe" unicode="&#x153;" horiz-adv-x="1706" 
d="M792 394q0 249 -54 369q-47 104 -167 104q-201 0 -201 -329q0 -240 54 -362t172 -122q196 0 196 340zM1373 587q0 270 -168 270q-177 0 -177 -268v-22q58 -9 170 -9t174 9q1 14 1 20zM1357 111q102 0 228 66l25 -29l-45 -99q-145 -93 -316 -93q-214 0 -338 133
q-135 -136 -355 -136q-220 1 -343 135t-123 376t131.5 373.5t364.5 131.5t354 -119q171 119 333 119q161 0 261 -104t100 -304q0 -17 -1 -51l-11 -14q-132 -36 -350 -36l-237 -3q3 -144 91 -245t231 -101z" />
    <glyph glyph-name="Racute" unicode="&#x154;" horiz-adv-x="1462" 
d="M641 751q97 -1 151 29t97 100t43 167q0 169 -126 228q-60 28 -142 28t-129 -8q-10 -98 -10 -334v-523q0 -238 13 -310q5 -29 34 -37q15 -4 117 -10l10 -10v-67l-9 -10q-100 6 -312 6t-304 -6l-10 9v68l10 10q102 6 117 10q29 8 34 37q13 72 13 310v529q0 238 -13 310
q-5 29 -34 37q-15 4 -117 10l-10 10v68l10 9q98 -6 308 -6l424 9q173 0 254 -31q164 -63 164 -258q0 -272 -306 -386q50 -84 106 -170l154 -237q136 -210 181 -239q23 -15 64 -15l10 -10v-64l-10 -10l-209 6q-51 0 -162 -6q-4 24 -38 80l-248 414l-111 169q-21 31 -59 61
l11 34q23 -1 34 -1zM963 1875l-451 -326l-46 35v14l219 276l256 31z" />
    <glyph glyph-name="racute" unicode="&#x155;" horiz-adv-x="797" 
d="M616 743q-79 0 -128 -60q-30 -37 -30 -109v-234q0 -73 7 -203q2 -37 21 -48t139 -15l10 -9v-61l-10 -10q-147 6 -309 6t-256 -7l-10 10v61l10 10q96 4 118 14t23 49q7 130 7 279v143q0 200 -12 225q-12 24 -36 28q-22 4 -97 7l-10 10v56l10 11q180 17 379 83l22 -13
l-2 -196q62 72 150 168q42 40 98 40t85 -12l-7 -178q-1 -44 -4 -100l-42 -13q-47 68 -126 68zM703 1474l-328 -385l-56 30v13l140 341l219 29z" />
    <glyph glyph-name="uni0156" unicode="&#x156;" horiz-adv-x="1462" 
d="M641 751q97 -1 151 29t97 100t43 167q0 169 -126 228q-60 28 -142 28t-129 -8q-10 -98 -10 -334v-523q0 -238 13 -310q5 -29 34 -37q15 -4 117 -10l10 -10v-67l-9 -10q-100 6 -312 6t-304 -6l-10 9v68l10 10q102 6 117 10q29 8 34 37q13 72 13 310v529q0 238 -13 310
q-5 29 -34 37q-15 4 -117 10l-10 10v68l10 9q98 -6 308 -6l424 9q173 0 254 -31q164 -63 164 -258q0 -272 -306 -386q50 -84 106 -170l154 -237q136 -210 181 -239q23 -15 64 -15l10 -10v-64l-10 -10l-209 6q-51 0 -162 -6q-4 24 -38 80l-248 414l-111 169q-21 31 -59 61
l11 34q23 -1 34 -1zM746 -117q70 1 114 -53t44 -160t-78 -187t-225 -96l-7 26q201 41 201 166q0 35 -48 37q-154 5 -154 136q-1 58 41 94t112 37z" />
    <glyph glyph-name="uni0157" unicode="&#x157;" horiz-adv-x="797" 
d="M616 743q-79 0 -128 -60q-30 -37 -30 -109v-234q0 -73 7 -203q2 -37 21 -48t139 -15l10 -9v-61l-10 -10q-147 6 -309 6t-256 -7l-10 10v61l10 10q96 4 118 14t23 49q7 130 7 279v143q0 200 -12 225q-12 24 -36 28q-22 4 -97 7l-10 10v56l10 11q180 17 379 83l22 -13
l-2 -196q62 72 150 168q42 40 98 40t85 -12l-7 -178q-1 -44 -4 -100l-42 -13q-47 68 -126 68zM498 -310q0 -93 -78 -169t-194 -88l-7 25q100 21 137 65q37 43 37 81q-1 38 -51 38t-86 31t-37 87q1 56 37 90t99 34t103 -50t40 -144z" />
    <glyph glyph-name="Rcaron" unicode="&#x158;" horiz-adv-x="1462" 
d="M641 751q97 -1 151 29t97 100t43 167q0 169 -126 228q-60 28 -142 28t-129 -8q-10 -98 -10 -334v-523q0 -238 13 -310q5 -29 34 -37q15 -4 117 -10l10 -10v-67l-9 -10q-100 6 -312 6t-304 -6l-10 9v68l10 10q102 6 117 10q29 8 34 37q13 72 13 310v529q0 238 -13 310
q-5 29 -34 37q-15 4 -117 10l-10 10v68l10 9q98 -6 308 -6l424 9q173 0 254 -31q164 -63 164 -258q0 -272 -306 -386q50 -84 106 -170l154 -237q136 -210 181 -239q23 -15 64 -15l10 -10v-64l-10 -10l-209 6q-51 0 -162 -6q-4 24 -38 80l-248 414l-111 169q-21 31 -59 61
l11 34q23 -1 34 -1zM974 1895l-245 -356h-196l-245 356l3 10h77l263 -215l263 215h77z" />
    <glyph glyph-name="rcaron" unicode="&#x159;" horiz-adv-x="797" 
d="M616 743q-79 0 -128 -60q-30 -37 -30 -109v-234q0 -73 7 -203q2 -37 21 -48t139 -15l10 -9v-61l-10 -10q-147 6 -309 6t-256 -7l-10 10v61l10 10q96 4 118 14t23 49q7 130 7 279v143q0 200 -12 225q-12 24 -36 28q-22 4 -97 7l-10 10v56l10 11q180 17 379 83l22 -13
l-2 -196q62 72 150 168q42 40 98 40t85 -12l-7 -178q-1 -44 -4 -100l-42 -13q-47 68 -126 68zM754 1472l-225 -362h-176l-225 362l3 10h77l233 -241l233 241h77z" />
    <glyph glyph-name="Sacute" unicode="&#x15a;" horiz-adv-x="1251" 
d="M1144 443q0 -147 -88 -265q-165 -223 -512 -222q-210 0 -412 96l-12 22q28 115 28 327l10 10h64l9 -10v-23q0 -56 12 -148q36 -64 131 -111t200 -47q198 0 274 138q39 71 39 147q0 128 -107 183q-53 27 -171 45q-267 41 -351 103q-127 94 -127 295t142 326t389 125
t391 -75l7 -24q-24 -119 -29 -286l-11 -10h-63l-10 10q-3 120 -10 156q-31 47 -111 81t-168 33q-134 0 -210 -69q-76 -70 -75 -180q0 -110 83 -164q54 -35 255 -67q21 -3 117 -20q187 -33 263 -149q53 -82 53 -227zM957 1875l-451 -326l-46 35v14l219 276l256 31z" />
    <glyph glyph-name="sacute" unicode="&#x15b;" horiz-adv-x="909" 
d="M839 300q1 -148 -121 -246t-318 -98q-139 0 -298 60l-11 15q9 92 11 143l5 126l10 11h59l12 -11q4 -112 9 -132q85 -109 223 -109q88 0 141 43q53 42 53 124t-80 112q-34 13 -167 41t-189 73q-85 68 -85 207q-1 139 107 229t282 90t280 -54l9 -16q-11 -45 -17 -231
l-11 -10h-57l-11 10q-4 72 -14 117q-63 80 -183 80q-78 0 -128 -38t-50 -100q0 -83 85 -111q38 -11 177 -39t193 -71q84 -67 84 -215zM752 1474l-328 -385l-56 30v13l140 341l219 29z" />
    <glyph glyph-name="Scircumflex" unicode="&#x15c;" horiz-adv-x="1251" 
d="M1144 443q0 -147 -88 -265q-165 -223 -512 -222q-210 0 -412 96l-12 22q28 115 28 327l10 10h64l9 -10v-23q0 -56 12 -148q36 -64 131 -111t200 -47q198 0 274 138q39 71 39 147q0 128 -107 183q-53 27 -171 45q-267 41 -351 103q-127 94 -127 295t142 326t389 125
t391 -75l7 -24q-24 -119 -29 -286l-11 -10h-63l-10 10q-3 120 -10 156q-31 47 -111 81t-168 33q-134 0 -210 -69q-76 -70 -75 -180q0 -110 83 -164q54 -35 255 -67q21 -3 117 -20q187 -33 263 -149q53 -82 53 -227zM968 1549l-3 -10h-77l-263 215l-263 -215h-77l-3 10
l245 356h196z" />
    <glyph glyph-name="scircumflex" unicode="&#x15d;" horiz-adv-x="909" 
d="M839 300q1 -148 -121 -246t-318 -98q-139 0 -298 60l-11 15q9 92 11 143l5 126l10 11h59l12 -11q4 -112 9 -132q85 -109 223 -109q88 0 141 43q53 42 53 124t-80 112q-34 13 -167 41t-189 73q-85 68 -85 207q-1 139 107 229t282 90t280 -54l9 -16q-11 -45 -17 -231
l-11 -10h-57l-11 10q-4 72 -14 117q-63 80 -183 80q-78 0 -128 -38t-50 -100q0 -83 85 -111q38 -11 177 -39t193 -71q84 -67 84 -215zM774 1120l-3 -10h-77l-233 241l-233 -241h-77l-3 10l225 362h176z" />
    <glyph glyph-name="Scedilla" unicode="&#x15e;" horiz-adv-x="1251" 
d="M1144 443q0 -147 -88 -265q-144 -194 -421 -218l-47 -98q33 5 91 5q57 -1 115 -37t58 -122t-99 -136q-79 -39 -181 -39t-191 33l-5 16l22 51l15 5q67 -22 118 -22t80.5 24t29.5 62t-24.5 62t-55.5 24t-63 -10l-24 18l71 160h-1q-210 0 -412 96l-12 22q28 115 28 327
l10 10h64l9 -10v-23q0 -56 12 -148q36 -64 131 -111t200 -47q198 0 274 138q39 71 39 147q0 128 -107 183q-53 27 -171 45q-267 41 -351 103q-127 94 -127 295t142 326t389 125t391 -75l7 -24q-24 -119 -29 -286l-11 -10h-63l-10 10q-3 120 -10 156q-37 55 -108 80
q-82 34 -171 34q-134 0 -210 -69q-76 -70 -75 -180q0 -110 83 -164q54 -35 255 -67q23 -4 117 -20q187 -33 263 -149q53 -82 53 -227z" />
    <glyph glyph-name="scedilla" unicode="&#x15f;" horiz-adv-x="909" 
d="M839 300q0 -148 -121 -245q-97 -79 -241 -95l-43 -98q33 5 64 5q81 0 133 -41t52 -112t-72 -126t-181 -55t-198 33l-5 16l19 43l15 5q63 -22 111 -22t87 28q38 28 38 70q0 44 -25.5 66.5t-57.5 22.5t-61 -5l-20 16l64 150q-138 1 -295 60l-11 15q9 92 11 143l5 126l10 11
h59l12 -11q4 -112 9 -132q85 -109 223 -109q88 0 141 42.5t53 124.5t-80 112q-33 13 -166 41t-190 73q-85 68 -85 215t117 229q118 82 282 82t270 -54l9 -16q-11 -45 -17 -231l-11 -10h-57l-11 10q-4 72 -14 117q-63 80 -183 80q-78 0 -128 -38t-50 -100q0 -83 85 -111
q37 -11 177 -39t193 -71q84 -67 84 -215z" />
    <glyph glyph-name="Scaron" unicode="&#x160;" horiz-adv-x="1251" 
d="M1144 443q0 -147 -88 -265q-165 -223 -512 -222q-210 0 -412 96l-12 22q28 115 28 327l10 10h64l9 -10v-23q0 -56 12 -148q36 -64 131 -111t200 -47q198 0 274 138q39 71 39 147q0 128 -107 183q-53 27 -171 45q-267 41 -351 103q-127 94 -127 295t142 326t389 125
t391 -75l7 -24q-24 -119 -29 -286l-11 -10h-63l-10 10q-3 120 -10 156q-31 47 -111 81t-168 33q-134 0 -210 -69q-76 -70 -75 -180q0 -110 83 -164q54 -35 255 -67q21 -3 117 -20q187 -33 263 -149q53 -82 53 -227zM968 1895l-245 -356h-196l-245 356l3 10h77l263 -215
l263 215h77z" />
    <glyph glyph-name="scaron" unicode="&#x161;" horiz-adv-x="909" 
d="M839 300q1 -148 -121 -246t-318 -98q-139 0 -298 60l-11 15q9 92 11 143l5 126l10 11h59l12 -11q4 -112 9 -132q85 -109 223 -109q88 0 141 43q53 42 53 124t-80 112q-34 13 -167 41t-189 73q-85 68 -85 207q-1 139 107 229t282 90t280 -54l9 -16q-11 -45 -17 -231
l-11 -10h-57l-11 10q-4 72 -14 117q-63 80 -183 80q-78 0 -128 -38t-50 -100q0 -83 85 -111q38 -11 177 -39t193 -71q84 -67 84 -215zM774 1472l-225 -362h-176l-225 362l3 10h77l233 -241l233 241h77z" />
    <glyph glyph-name="uni0162" unicode="&#x162;" horiz-adv-x="1366" 
d="M963 1284h-134q-2 -35 -2 -278v-568q0 -238 13 -310q5 -29 34 -37q15 -4 117 -10l10 -10v-67l-10 -10q-99 6 -311 6t-305 -6l-9 9v68l10 10q102 6 117 10q29 8 34 37q13 72 13 310v568q0 247 -3 278h-143q-179 0 -202 -8t-35 -30q-12 -21 -18 -161l-10 -10h-63l-11 10
l-2 171q-1 72 -12 149l9 10q59 -10 430 -10h405q342 0 430 10l10 -10q-12 -74 -13 -153l-2 -167l-10 -10h-63l-11 9q-5 128 -11 150q-12 40 -64 47q-20 3 -188 3zM682 -117q70 1 114 -53t43 -160q1 -106 -77 -187t-226 -96l-7 26q201 41 201 166q0 35 -48 37
q-154 5 -154 136q0 58 42 94t112 37z" />
    <glyph glyph-name="uni0162" unicode="&#x21a;" horiz-adv-x="1366" 
d="M963 1284h-134q-2 -35 -2 -278v-568q0 -238 13 -310q5 -29 34 -37q15 -4 117 -10l10 -10v-67l-10 -10q-99 6 -311 6t-305 -6l-9 9v68l10 10q102 6 117 10q29 8 34 37q13 72 13 310v568q0 247 -3 278h-143q-179 0 -202 -8t-35 -30q-12 -21 -18 -161l-10 -10h-63l-11 10
l-2 171q-1 72 -12 149l9 10q59 -10 430 -10h405q342 0 430 10l10 -10q-12 -74 -13 -153l-2 -167l-10 -10h-63l-11 9q-5 128 -11 150q-12 40 -64 47q-20 3 -188 3zM682 -117q70 1 114 -53t43 -160q1 -106 -77 -187t-226 -96l-7 26q201 41 201 166q0 35 -48 37
q-154 5 -154 136q0 58 42 94t112 37z" />
    <glyph glyph-name="uni0163" unicode="&#x163;" horiz-adv-x="682" 
d="M456 901q109 0 188 7l11 -11l-14 -117l-10 -10h-208v-339q1 -163 5 -199t34 -61q30 -26 78 -26q46 0 104 22l22 -36q-6 -8 -54 -53t-90 -91q-49 -16 -99 -16q-139 0 -203 81q-26 36 -36 86t-9 139l3 239v250h-27l-53 -2h-41l-11 9v26l8 15q18 12 60 38t64 45v136
q0 85 -8 180q126 40 253 103l26 -20q-12 -124 -17 -222l-9 -173h33zM520 -310q0 -93 -78 -169t-194 -88l-7 25q100 21 137 65q37 43 37 81q-1 38 -51 38t-86 31t-37 87q1 56 37 90t99 34t103 -50t40 -144z" />
    <glyph glyph-name="uni0163" unicode="&#x21b;" horiz-adv-x="682" 
d="M456 901q109 0 188 7l11 -11l-14 -117l-10 -10h-208v-339q1 -163 5 -199t34 -61q30 -26 78 -26q46 0 104 22l22 -36q-6 -8 -54 -53t-90 -91q-49 -16 -99 -16q-139 0 -203 81q-26 36 -36 86t-9 139l3 239v250h-27l-53 -2h-41l-11 9v26l8 15q18 12 60 38t64 45v136
q0 85 -8 180q126 40 253 103l26 -20q-12 -124 -17 -222l-9 -173h33zM520 -310q0 -93 -78 -169t-194 -88l-7 25q100 21 137 65q37 43 37 81q-1 38 -51 38t-86 31t-37 87q1 56 37 90t99 34t103 -50t40 -144z" />
    <glyph glyph-name="Tcaron" unicode="&#x164;" horiz-adv-x="1366" 
d="M963 1284h-134q-2 -35 -2 -278v-568q0 -238 13 -310q5 -29 34 -37q15 -4 117 -10l10 -10v-67l-10 -10q-99 6 -311 6t-305 -6l-9 9v68l10 10q102 6 117 10q29 8 34 37q13 72 13 310v568q0 247 -3 278h-143q-179 0 -202 -8t-35 -30q-12 -21 -18 -161l-10 -10h-63l-11 10
l-2 171q-1 72 -12 149l9 10q59 -10 430 -10h405q342 0 430 10l10 -10q-12 -74 -13 -153l-2 -167l-10 -10h-63l-11 9q-5 128 -11 150q-12 40 -64 47q-20 3 -188 3zM1027 1895l-245 -356h-196l-245 356l3 10h77l263 -215l263 215h77z" />
    <glyph glyph-name="tcaron" unicode="&#x165;" horiz-adv-x="877" 
d="M456 901q109 0 188 7l11 -11l-14 -117l-10 -10h-208v-339q1 -163 5 -199t34 -61q30 -26 78 -26q46 0 104 22l22 -36q-6 -8 -54 -53t-90 -91q-49 -16 -99 -16q-139 0 -203 81q-26 36 -36 86t-9 139l3 239v250h-27l-53 -2h-41l-11 9v26l8 15q18 12 60 38t64 45v136
q0 85 -8 180q126 40 253 103l26 -20q-12 -124 -17 -222l-9 -173h33zM854 1296q0 -93 -78 -169t-194 -88l-7 25q100 21 137 65q37 43 37 81q-1 38 -51 38t-86 31t-37 87q1 56 37 90t99 34t103 -50t40 -144z" />
    <glyph glyph-name="Tbar" unicode="&#x166;" horiz-adv-x="1366" 
d="M963 1284h-134q-2 -35 -2 -278v-132h397l16 -14v-91l-16 -11h-397v-320q0 -238 13 -310q5 -29 34 -37q15 -4 117 -10l10 -10v-67l-10 -10q-99 6 -311 6t-305 -6l-9 9v68l10 10q102 6 117 10q29 8 34 37q13 72 13 310v320h-396l-15 11v91l15 14h396v132q0 247 -3 278h-143
q-179 0 -202 -8t-35 -30q-12 -21 -18 -161l-10 -10h-63l-11 10l-2 171q-1 72 -12 149l9 10q59 -10 430 -10h405q342 0 430 10l10 -10q-12 -74 -13 -153l-2 -167l-10 -10h-63l-11 9q-5 128 -11 150q-12 40 -64 47q-20 3 -188 3z" />
    <glyph glyph-name="tbar" unicode="&#x167;" horiz-adv-x="682" 
d="M456 901q109 0 188 7l11 -11l-14 -117l-10 -10h-208v-124h33q125 0 188 8l11 -11l-14 -117l-10 -11l-111 1l-97 -2v-83q1 -163 5 -199t35 -61.5t77 -25.5t104 22l22 -36q-6 -8 -54 -53t-90 -91q-49 -16 -99 -16q-139 0 -203 81q-26 36 -36 86t-9 139l3 235h-27l-94 -3
l-11 10v26l7 14q4 3 52 33t73 52v122h-27l-53 -2h-41l-11 9v26l8 15q18 12 60 38t64 45v136q0 85 -8 180q126 40 253 103l26 -20q-12 -124 -17 -222l-9 -173h33z" />
    <glyph glyph-name="Utilde" unicode="&#x168;" horiz-adv-x="1593" 
d="M1382 858v-308q0 -297 -117 -424q-155 -168 -429 -168q-501 0 -584 297q-24 87 -24 454v258q0 238 -13 310q-5 29 -34 37q-15 4 -117 10l-10 10v67l10 10q96 -6 310 -6t305 6l10 -10v-67l-10 -10q-102 -6 -117 -10q-29 -8 -34 -37q-13 -72 -13 -310v-206q0 -378 34 -463
q68 -168 335 -168q175 0 273 86q46 41 64 83q37 86 37 296v208q0 438 -11 466q-11 29 -36 39t-125 16l-10 10v67l10 10q88 -6 168 -6t276 6l10 -10v-67l-10 -10q-118 0 -133 -64q-15 -65 -15 -402zM976 1594q-54 0 -106 24t-88 40l-84 39q-40 18 -77 18q-80 0 -114 -114h-63
l-7 10q21 113 87 189t146 77q54 0 106 -24q52 -25 88 -41l84 -38q40 -18 77 -18q80 0 114 114h63l7 -10q-21 -114 -87 -190t-146 -76z" />
    <glyph glyph-name="utilde" unicode="&#x169;" horiz-adv-x="1251" 
d="M199 559q-1 198 -13 224q-12 25 -34 29t-99 7l-10 10v56l10 11q191 17 387 83l22 -13q-13 -166 -13 -307v-195q-1 -137 9 -192q20 -117 148 -117q78 0 137 50q57 51 59 107t2 68v179q0 196 -12 223q-12 26 -34 30t-99 7l-11 10v56l11 11q190 17 387 83l21 -13
q-13 -150 -13 -307v-314q0 -211 9 -232t28 -27t99 -10l11 -10v-61l-10 -10q-150 5 -189 5l-195 -5l-8 8q8 82 8 156q-52 -39 -182 -166q-65 -25 -139 -25q-135 0 -213 74t-78 211l4 178v128zM744 1142q-47 0 -154 53t-141 53q-79 0 -114 -99h-63l-7 10q61 240 233 240
q47 0 154 -53t141 -53q79 0 114 99h63l7 -10q-61 -240 -233 -240z" />
    <glyph glyph-name="Umacron" unicode="&#x16a;" horiz-adv-x="1593" 
d="M1382 858v-308q0 -297 -117 -424q-155 -168 -429 -168q-501 0 -584 297q-24 87 -24 454v258q0 238 -13 310q-5 29 -34 37q-15 4 -117 10l-10 10v67l10 10q96 -6 310 -6t305 6l10 -10v-67l-10 -10q-102 -6 -117 -10q-29 -8 -34 -37q-13 -72 -13 -310v-206q0 -378 34 -463
q68 -168 335 -168q175 0 273 86q46 41 64 83q37 86 37 296v208q0 438 -11 466q-11 29 -36 39t-125 16l-10 10v67l10 10q88 -6 168 -6t276 6l10 -10v-67l-10 -10q-118 0 -133 -64q-15 -65 -15 -402zM1176 1638h-707v166h707v-166z" />
    <glyph glyph-name="umacron" unicode="&#x16b;" horiz-adv-x="1251" 
d="M199 559q-1 198 -13 224q-12 25 -34 29t-99 7l-10 10v56l10 11q191 17 387 83l22 -13q-13 -166 -13 -307v-195q-1 -137 9 -192q20 -117 148 -117q78 0 137 50q57 51 59 107t2 68v179q0 196 -12 223q-12 26 -34 30t-99 7l-11 10v56l11 11q190 17 387 83l21 -13
q-13 -150 -13 -307v-314q0 -211 9 -232t28 -27t99 -10l11 -10v-61l-10 -10q-150 5 -189 5l-195 -5l-8 8q8 82 8 156q-52 -39 -182 -166q-65 -25 -139 -25q-135 0 -213 74t-78 211l4 178v128zM944 1184h-646v126h646v-126z" />
    <glyph glyph-name="Ubreve" unicode="&#x16c;" horiz-adv-x="1593" 
d="M1382 858v-308q0 -297 -117 -424q-155 -168 -429 -168q-501 0 -584 297q-24 87 -24 454v258q0 238 -13 310q-5 29 -34 37q-15 4 -117 10l-10 10v67l10 10q96 -6 310 -6t305 6l10 -10v-67l-10 -10q-102 -6 -117 -10q-29 -8 -34 -37q-13 -72 -13 -310v-206q0 -378 34 -463
q68 -168 335 -168q175 0 273 86q46 41 64 83q37 86 37 296v208q0 438 -11 466q-11 29 -36 39t-125 16l-10 10v67l10 10q88 -6 168 -6t276 6l10 -10v-67l-10 -10q-118 0 -133 -64q-15 -65 -15 -402zM824 1563q-290 0 -298 334l10 10h60q20 -169 228 -169t228 169h60l9 -10
q-7 -334 -297 -334z" />
    <glyph glyph-name="ubreve" unicode="&#x16d;" horiz-adv-x="1251" 
d="M199 559q-1 198 -13 224q-12 25 -34 29t-99 7l-10 10v56l10 11q191 17 387 83l22 -13q-13 -166 -13 -307v-195q-1 -137 9 -192q20 -117 148 -117q78 0 137 50q57 51 59 107t2 68v179q0 196 -12 223q-12 26 -34 30t-99 7l-11 10v56l11 11q190 17 387 83l21 -13
q-13 -150 -13 -307v-314q0 -211 9 -232t28 -27t99 -10l11 -10v-61l-10 -10q-150 5 -189 5l-195 -5l-8 8q8 82 8 156q-52 -39 -182 -166q-65 -25 -139 -25q-135 0 -213 74t-78 211l4 178v128zM621 1123q-121 0 -201 83t-83 206l10 10h60q35 -148 214 -148t214 148h60l10 -10
q-3 -123 -83 -206t-201 -83z" />
    <glyph glyph-name="Uring" unicode="&#x16e;" horiz-adv-x="1593" 
d="M1382 858v-308q0 -297 -117 -424q-155 -168 -429 -168q-501 0 -584 297q-24 87 -24 454v258q0 238 -13 310q-5 29 -34 37q-15 4 -117 10l-10 10v67l10 10q96 -6 310 -6t305 6l10 -10v-67l-10 -10q-102 -6 -117 -10q-29 -8 -34 -37q-13 -72 -13 -310v-206q0 -378 34 -463
q68 -168 335 -168q175 0 273 86q46 41 64 83q37 86 37 296v208q0 438 -11 466q-11 29 -36 39t-125 16l-10 10v67l10 10q88 -6 168 -6t276 6l10 -10v-67l-10 -10q-118 0 -133 -64q-15 -65 -15 -402zM936 1729q0 54 -28 95t-85 41q-56 0 -84 -41t-28 -95q0 -53 28 -95t84 -42
q57 0 85 42t28 95zM1045 1728q0 -88 -64 -145t-158 -57t-158 57t-64 145q1 88 65 146q64 56 158 56t157 -57q64 -57 64 -145z" />
    <glyph glyph-name="uring" unicode="&#x16f;" horiz-adv-x="1251" 
d="M199 559q-1 198 -13 224q-12 25 -34 29t-99 7l-10 10v56l10 11q191 17 387 83l22 -13q-13 -166 -13 -307v-195q-1 -137 9 -192q20 -117 148 -117q78 0 137 50q57 51 59 107t2 68v179q0 196 -12 223q-12 26 -34 30t-99 7l-11 10v56l11 11q190 17 387 83l21 -13
q-13 -150 -13 -307v-314q0 -211 9 -232t28 -27t99 -10l11 -10v-61l-10 -10q-150 5 -189 5l-195 -5l-8 8q8 82 8 156q-52 -39 -182 -166q-65 -25 -139 -25q-135 0 -213 74t-78 211l4 178v128zM723 1277q0 52 -27 87t-75 35t-75 -35t-27 -87q0 -51 27 -87t75 -36t75 36t27 87z
M821 1277q-1 -82 -57 -132t-143 -50t-143 50t-57 132q1 81 57 131t143 50t143 -50t57 -131z" />
    <glyph glyph-name="Uhungarumlaut" unicode="&#x170;" horiz-adv-x="1593" 
d="M1382 858v-308q0 -297 -117 -424q-155 -168 -429 -168q-501 0 -584 297q-24 87 -24 454v258q0 238 -13 310q-5 29 -34 37q-15 4 -117 10l-10 10v67l10 10q96 -6 310 -6t305 6l10 -10v-67l-10 -10q-102 -6 -117 -10q-29 -8 -34 -37q-13 -72 -13 -310v-206q0 -378 34 -463
q68 -168 335 -168q175 0 273 86q46 41 64 83q37 86 37 296v208q0 438 -11 466q-11 29 -36 39t-125 16l-10 10v67l10 10q88 -6 168 -6t276 6l10 -10v-67l-10 -10q-118 0 -133 -64q-15 -65 -15 -402zM1004 1875l-451 -326l-46 35v14l219 276l256 31zM1457 1875l-451 -326
l-46 35v14l219 276l256 31z" />
    <glyph glyph-name="uhungarumlaut" unicode="&#x171;" horiz-adv-x="1251" 
d="M199 559q-1 198 -13 224q-12 25 -34 29t-99 7l-10 10v56l10 11q191 17 387 83l22 -13q-13 -166 -13 -307v-195q-1 -137 9 -192q20 -117 148 -117q78 0 137 50q57 51 59 107t2 68v179q0 196 -12 223q-12 26 -34 30t-99 7l-11 10v56l11 11q190 17 387 83l21 -13
q-13 -150 -13 -307v-314q0 -211 9 -232t28 -27t99 -10l11 -10v-61l-10 -10q-150 5 -189 5l-195 -5l-8 8q8 82 8 156q-52 -39 -182 -166q-65 -25 -139 -25q-135 0 -213 74t-78 211l4 178v128zM767 1474l-328 -385l-56 30v13l140 341l219 29zM1100 1474l-328 -385l-56 30v13
l140 341l219 29z" />
    <glyph glyph-name="Uogonek" unicode="&#x172;" horiz-adv-x="1593" 
d="M1382 858v-308q0 -297 -117 -424q-139 -151 -387 -166q-79 -93 -79 -204q0 -152 136 -152q61 0 130 28l12 -8l7 -35l-4 -13q-86 -60 -213 -60q-230 0 -230 210q0 136 133 233q-440 16 -518 296q-24 86 -24 454v258q0 237 -13 310q-5 29 -34 37q-15 4 -117 10l-10 10v67
l10 10q96 -6 310 -6t305 6l10 -10v-67l-10 -10q-102 -6 -117 -10q-29 -8 -34 -37q-13 -73 -13 -310v-206q0 -379 34 -463q68 -168 335 -168q175 0 273 86q46 41 73.5 105t27.5 274v208q0 438 -11 466q-11 29 -35 39t-126 16l-10 10v67l10 10q88 -6 168 -6t276 6l10 -10v-67
l-10 -10q-118 0 -133 -63q-15 -64 -15 -403z" />
    <glyph glyph-name="uogonek" unicode="&#x173;" horiz-adv-x="1251" 
d="M199 559q-1 199 -13 225t-35 28q-23 4 -98 7l-10 10v56l10 11q191 17 387 83l22 -13q-13 -166 -13 -307v-195q-1 -135 9 -191q20 -118 148 -118q78 0 137 50q57 51 59 107t2 68v179q0 196 -12 223q-12 26 -35 30t-98 7l-11 10v56l11 11q190 17 387 83l21 -13
q-13 -150 -13 -307v-314q0 -211 9 -232t28 -27t99 -10l11 -10v-61l-10 -10l-157 5q-128 -96 -128 -226t138 -130q62 0 129 27l13 -5l7 -33l-6 -13q-89 -60 -199 -60q-112 0 -172 50t-60 133t57 151t136 105l-45 -1q-87 -3 -97 -3l-8 8q8 82 8 156q-52 -39 -182 -166
q-65 -25 -139 -25q-137 0 -214 74.5t-77 210.5l4 178v128z" />
    <glyph glyph-name="Wcircumflex" unicode="&#x174;" horiz-adv-x="2048" 
d="M334 1405q100 0 307 6l11 -10v-64l-10 -9q-68 -4 -92 -6q-48 -5 -47 -50q0 -23 19 -125l34 -183q15 -79 53 -255l59 -271l126 303q38 90 114 271l118 286q33 79 52 131h92q102 -288 380 -978l177 709q20 85 20 106q0 45 -47 52q-17 3 -107 9l-10 10v63l11 11
q172 -7 200 -6l232 6l10 -10v-65l-10 -9q-47 -1 -67 -5q-42 -7 -65 -72q-54 -150 -181 -643l-90 -346q-56 -214 -63 -274h-153l-51 138q-127 342 -234 612l-57 143q-19 49 -39 104l-261 -619q-39 -92 -109 -268l-44 -110h-146l-247 1147q-19 88 -28 115q-20 63 -57 71
q-17 4 -78 8l-10 9v63l11 11q177 -6 277 -6zM1450 1549l-3 -10h-77l-263 215l-263 -215h-77l-3 10l245 356h196z" />
    <glyph glyph-name="wcircumflex" unicode="&#x175;" horiz-adv-x="1706" 
d="M303 941q182 0 272 3l11 -10v-60l-11 -9q-78 0 -104 -7t-26 -29t10 -60l121 -461l240 534q25 60 54 127h102l283 -661l98 298q55 167 55 204t-17 43t-112 11l-11 10v59l12 11q74 -3 190 -3t198 3l11 -10v-60l-11 -10q-59 -2 -75 -8t-34 -33q-18 -26 -109 -299l-116 -348
q-15 -44 -30 -98l-27 -95h-164l-109 268l-161 371q-138 -289 -246 -555l-34 -84h-162q-3 7 -15 61t-28 112l-147 524q-33 116 -45 141t-27 33q-16 8 -97 10l-10 11v59l11 10q78 -3 260 -3zM1208 1120l-3 -10h-77l-233 241l-233 -241h-77l-3 10l225 362h176z" />
    <glyph glyph-name="Ycircumflex" unicode="&#x176;" horiz-adv-x="1366" 
d="M880 537v-99q0 -293 18 -326q8 -14 28 -20t118 -11l10 -10v-67l-10 -10q-98 6 -310 6t-306 -6l-9 9v68l10 10q98 5 118 11t28 20q18 33 18 326v118q-1 38 -159 306t-253 366q-46 48 -62 54t-75 6l-11 11v56l10 11q244 48 313 68q52 -25 93 -65q85 -83 228 -370l131 -262
q59 95 225 382l111 199q18 33 49 91h146l10 -10v-35q-158 -215 -305 -459q-148 -243 -156 -281t-8 -87zM1089 1549l-3 -10h-77l-263 215l-263 -215h-77l-3 10l245 356h196z" />
    <glyph glyph-name="ycircumflex" unicode="&#x177;" horiz-adv-x="1139" 
d="M210 -553q-74 0 -143 35q17 71 35 199l26 5q52 -74 141 -74q105 0 193 205l41 96l-324 842q-27 73 -51 91t-93 18l-10 10v60l11 10q64 -3 238 -3t280 3l10 -10v-60l-10 -10q-114 0 -114 -41q0 -18 59 -181l146 -386l88 211q129 309 129 361q0 36 -116 36l-10 10v60l11 10
q58 -3 166 -3t193 3l11 -10v-61l-9 -9q-66 0 -90 -38q-14 -22 -108 -227t-180 -418l-161 -398q-75 -185 -159 -261t-200 -75zM893 1120l-3 -10h-77l-233 241l-233 -241h-77l-3 10l225 362h176z" />
    <glyph glyph-name="Ydieresis" unicode="&#x178;" horiz-adv-x="1366" 
d="M880 537v-99q0 -293 18 -326q8 -14 28 -20t118 -11l10 -10v-67l-10 -10q-98 6 -310 6t-306 -6l-9 9v68l10 10q98 5 118 11t28 20q18 33 18 326v118q-1 38 -159 306t-253 366q-46 48 -62 54t-75 6l-11 11v56l10 11q244 48 313 68q52 -25 93 -65q85 -83 228 -370l131 -262
q59 95 225 382l111 199q18 33 49 91h146l10 -10v-35q-158 -215 -305 -459q-148 -243 -156 -281t-8 -87zM671 1722q0 -60 -43 -103t-103 -43t-102 42t-42 105t43 105t102 42t102 -44t43 -104zM1111 1723q-1 -63 -43 -105t-102 -42t-104 42q-42 42 -42 104q0 60 43 104t102 44
t103 -42t43 -105z" />
    <glyph glyph-name="Zacute" unicode="&#x179;" horiz-adv-x="1366" 
d="M644 2q-184 0 -582 -8l-10 9v70q74 93 226 309l146 208l187 275q93 136 278 421l-251 -1q-291 -1 -326 -11t-45 -43q-4 -13 -17 -93l-8 -50l-11 -10h-61l-10 12q7 106 7 162t-2 149l10 10q137 -6 427 -6t662 6l10 -10v-60l-82 -115q-129 -178 -222 -314l-296 -434
q-50 -73 -233 -358q53 -2 161 -2q507 0 540 28q18 15 35 99t22 103l11 10h60l11 -11q-21 -182 -32 -344l-10 -9q-411 8 -595 8zM1057 1875l-451 -326l-46 35v14l219 276l256 31z" />
    <glyph glyph-name="zacute" unicode="&#x17a;" 
d="M458 1q-140 0 -412 -8l-11 10v57q103 114 557 771h-117q-229 -1 -245 -15t-20 -42l-17 -106l-11 -10h-59l-11 10q8 178 8 208t-1 61l9 9q76 -5 345 -7l145 -1q66 0 299 7l10 -11v-61l-181 -245q-66 -90 -157 -220l-133 -191q-52 -75 -74 -110l108 -2q59 -1 188 5
q128 6 142 17q14 12 46 181l11 10h60l11 -10q-22 -205 -22 -308l-7 -7q-321 8 -461 8zM792 1474l-328 -385l-56 30v13l140 341l219 29z" />
    <glyph glyph-name="Zdotaccent" unicode="&#x17b;" horiz-adv-x="1366" 
d="M644 2q-184 0 -582 -8l-10 9v70q74 93 226 309l146 208l187 275q93 136 278 421l-251 -1q-291 -1 -326 -11t-45 -43q-4 -13 -17 -93l-8 -50l-11 -10h-61l-10 12q7 106 7 162t-2 149l10 10q137 -6 427 -6t662 6l10 -10v-60l-82 -115q-129 -178 -222 -314l-296 -434
q-50 -73 -233 -358q53 -2 161 -2q507 0 540 28q18 15 35 99t22 103l11 10h60l11 -11q-21 -182 -32 -344l-10 -9q-411 8 -595 8zM861 1723q-1 -63 -43 -105t-102 -42t-104 42q-42 42 -42 104q0 60 43 104t102 44t103 -42t43 -105z" />
    <glyph glyph-name="zdotaccent" unicode="&#x17c;" 
d="M458 1q-140 0 -412 -8l-11 10v57q103 114 557 771h-117q-229 -1 -245 -15t-20 -42l-17 -106l-11 -10h-59l-11 10q8 178 8 208t-1 61l9 9q76 -5 345 -7l145 -1q66 0 299 7l10 -11v-61l-181 -245q-66 -90 -157 -220l-133 -191q-52 -75 -74 -110l108 -2q59 -1 188 5
q128 6 142 17q14 12 46 181l11 10h60l11 -10q-22 -205 -22 -308l-7 -7q-321 8 -461 8zM652 1253q0 -55 -38 -93t-91 -39q-53 1 -91 39t-38 92t38 92t91 39t91 -37t38 -93z" />
    <glyph glyph-name="Zcaron" unicode="&#x17d;" horiz-adv-x="1366" 
d="M644 2q-184 0 -582 -8l-10 9v70q74 93 226 309l146 208l187 275q93 136 278 421l-251 -1q-291 -1 -326 -11t-45 -43q-4 -13 -17 -93l-8 -50l-11 -10h-61l-10 12q7 106 7 162t-2 149l10 10q137 -6 427 -6t662 6l10 -10v-60l-82 -115q-129 -178 -222 -314l-296 -434
q-50 -73 -233 -358q53 -2 161 -2q507 0 540 28q18 15 35 99t22 103l11 10h60l11 -11q-21 -182 -32 -344l-10 -9q-411 8 -595 8zM1058 1895l-245 -356h-196l-245 356l3 10h77l263 -215l263 215h77z" />
    <glyph glyph-name="zcaron" unicode="&#x17e;" 
d="M458 1q-140 0 -412 -8l-11 10v57q103 114 557 771h-117q-229 -1 -245 -15t-20 -42l-17 -106l-11 -10h-59l-11 10q8 178 8 208t-1 61l9 9q76 -5 345 -7l145 -1q66 0 299 7l10 -11v-61l-181 -245q-66 -90 -157 -220l-133 -191q-52 -75 -74 -110l108 -2q59 -1 188 5
q128 6 142 17q14 12 46 181l11 10h60l11 -10q-22 -205 -22 -308l-7 -7q-321 8 -461 8zM836 1472l-225 -362h-176l-225 362l3 10h77l233 -241l233 241h77z" />
    <glyph glyph-name="longs" unicode="&#x17f;" horiz-adv-x="797" 
d="M213 771q-3 0 -123 -6l-10 10v31l9 14l89 46q26 12 55 29q5 6 5 18v15q0 154 16 197t35 67q20 24 141 140l62 59q27 27 69 64q55 40 115 40t104 -14l-4 -107l2 -100l-31 -18q-48 50 -122 50q-116 0 -130 -89q-7 -45 -7 -180v-445q0 -454 12 -482t68 -32q55 -4 99 -4
l10 -10v-61l-10 -10l-74 3q-105 4 -257 4t-246 -7l-10 10v61l10 10q82 2 90 4q48 11 51 59q7 130 7 455v178q-22 1 -25 1z" />
    <glyph glyph-name="uni018F" unicode="&#x18f;" horiz-adv-x="1658" 
d="M821 71q285 0 383 281q46 131 51 302h-843l-10 -10q0 -110 13 -196q57 -377 406 -377zM1564 739q0 -369 -212 -576t-575 -207t-523 188t-160 459q0 84 6 136l10 10l1145 -2q0 145 -16 217q-79 354 -441 354q-185 0 -297 -91t-177 -285l-15 -12l-56 31l42 306
q198 167 538 167q339 0 535 -184t196 -511z" />
    <glyph glyph-name="uni018F" unicode="&#x4d8;" horiz-adv-x="1658" 
d="M821 71q285 0 383 281q46 131 51 302h-843l-10 -10q0 -110 13 -196q57 -377 406 -377zM1564 739q0 -369 -212 -576t-575 -207t-523 188t-160 459q0 84 6 136l10 10l1145 -2q0 145 -16 217q-79 354 -441 354q-185 0 -297 -91t-177 -285l-15 -12l-56 31l42 306
q198 167 538 167q339 0 535 -184t196 -511z" />
    <glyph glyph-name="florin" unicode="&#x192;" 
d="M982 1425q78 0 168 -28l5 -13q-42 -77 -67 -177h-24q-96 85 -150 87t-110 -45t-90 -242l-39 -189h266l8 -12l-3 -52l-11 -9h-271l-111 -565l-48 -217q-26 -120 -44.5 -167t-78 -124t-129 -132.5t-136 -80.5t-133.5 -25t-110 19l-5 13q34 83 51 176l26 7q50 -52 75 -66.5
t58 -14.5q67 0 110.5 85t104.5 442l112 650h-211l-8 12l7 52l11 9h215l25 128q23 119 45.5 167t67.5 93t131 103.5t150.5 87t142.5 28.5z" />
    <glyph glyph-name="Ohorn" unicode="&#x1a0;" horiz-adv-x="1706" 
d="M1304 687q0 290 -116.5 460.5t-341.5 170.5q-297 0 -394 -267q-50 -137 -50 -307q0 -309 116 -491t351 -182q285 0 383 281q52 149 52 335zM872 1434q414 0 612 -260q96 25 96 110q0 43 -33.5 66.5t-83.5 36.5l-4 13l39 125l10 9q169 -33 169 -194.5t-149 -231.5
q84 -149 84 -369q0 -369 -212 -576t-564.5 -207t-547 192.5t-194.5 535.5q0 481 367 666q167 84 411 84z" />
    <glyph glyph-name="ohorn" unicode="&#x1a1;" horiz-adv-x="1177" 
d="M780 414q0 249 -54.5 356.5t-166.5 107.5q-199 0 -199 -359q0 -461 223 -461q139 0 177 153q20 80 20 203zM1177 877q0 -164 -133 -233q13 -68 13 -148q0 -354 -238 -479q-116 -61 -265 -61q-236 0 -354 136t-117 378q0 343 234 457q115 56 267 56q350 0 441 -266
q61 31 61 98t-97 102l-4 13l37 105l10 9q63 -12 104 -61t41 -106z" />
    <glyph glyph-name="Uhorn" unicode="&#x1af;" horiz-adv-x="1705" 
d="M1705 1585.5q0 -162.5 -149 -230.5q-15 -7 -109 -35q-47 -14 -52 -106q-13 -223 -13 -426v-238q0 -297 -117 -424q-155 -168 -429 -168q-501 0 -584 297q-24 87 -24 454v258q0 238 -13 310q-5 29 -34 37q-15 4 -117 10l-10 10v67l10 10q96 -6 310 -6t305 6l10 -10v-67
l-10 -10q-102 -6 -117 -10q-29 -8 -34 -37q-13 -72 -13 -310v-206q0 -378 34 -463q43 -108 179 -148q68 -20 156 -20q175 0 273 86q76 67 92 213q9 82 9 166v208q0 392 -5 442q-8 50 -37.5 61.5t-129.5 17.5l-10 10v67l10 10q85 -6 214 -6t178 9q130 24 130 117
q0 43 -33.5 66.5t-83.5 36.5l-4 13l39 125l10 9q169 -33 169 -195.5z" />
    <glyph glyph-name="uhorn" unicode="&#x1b0;" horiz-adv-x="1334" 
d="M1230 797q0 59 -84 90l-4 13l37 105l10 9q63 -12 104 -61t41 -106q0 -114 -81.5 -174t-198.5 -66v-262q0 -211 11 -237t125 -32l11 -10v-61l-10 -10q-150 5 -189 5l-195 -5l-8 8q8 82 8 156q-52 -39 -182 -166q-65 -25 -139 -25q-137 0 -214 74.5t-77 210.5l4 178v128
q0 198 -12.5 224t-35 29.5t-98.5 6.5l-10 10v56l10 11q191 17 387 83l22 -13q-13 -166 -13 -307v-195q0 -118 3 -147q10 -95 50.5 -128.5t108 -33.5t128 47t63 106.5t2.5 71.5v179q0 196 -12 223t-34.5 30.5t-98.5 6.5l-11 10v56l11 11q190 17 387 83l21 -13
q-12 -141 -13 -286q176 2 176 117z" />
    <glyph glyph-name="uni01B7" unicode="&#x1b7;" horiz-adv-x="1135" 
d="M458 1158q-108 0 -134 -4q-28 -4 -47 -26q-19 -20 -56 -114l-19 -12l-45 2l-12 12l55 198q11 38 48 211q447 -40 784 1l9 -59q-96 -108 -236 -271q-41 -52 -219 -276q94 17 138 14q132 -9 210 -79q108 -97 107 -241q-2 -222 -185 -379q-211 -181 -454 -179
q-121 1 -252 64q-26 167 -60 290l6 14l48 21l18 -9q100 -272 317 -274q149 -1 221 100q72 102 73 244t-89 214t-195 72q-33 0 -59 -6l-26 44q163 196 322 434q-160 -6 -268 -6z" />
    <glyph glyph-name="uni01F4" unicode="&#x1f4;" horiz-adv-x="1706" 
d="M1516 296q0 -130 8 -214q-334 -126 -606 -126q-358 0 -580 200t-221 547q0 451 391 643q179 88 455 88q159 0 309 -32t228 -69l9 -18q-26 -88 -43 -306l-11 -10h-60l-10 10q0 106 -14 162q-44 60 -154 103t-242 43q-354 0 -489 -286q-62 -132 -62 -306q0 -279 151 -465
t398 -186q131 0 253 56q7 70 7 180q-1 110 -7 130q-6 18 -36 24t-171 16l-11 10v63l11 10q164 -5 579 0l10 -10v-48l-10 -11q-62 -16 -72 -42t-10 -156zM1271 1875l-451 -326l-46 35v14l219 276l256 31z" />
    <glyph glyph-name="uni01F5" unicode="&#x1f5;" horiz-adv-x="1138" 
d="M888 -188q0 114 -76 142q-32 12 -128 13l-190 2q-32 0 -88 -2q-137 -85 -137 -191t81 -162q81 -58 222 -58q140 0 228 70q88 72 88 186zM706 630q0 252 -168 252t-167 -218q0 -258 173 -258q162 0 162 224zM1117 -69q1 -219 -163 -349t-428 -130q-208 0 -328 78t-120 208
q0 88 39 133q3 5 79 50t99 57q-138 24 -138 133q0 58 40 118q3 5 41 31t98 70q-216 78 -216 289q0 163 122 263t322 99q200 0 310 -87q62 -4 96 -2t133 5l12 -11l-11 -103l-11 -10h-148q13 -48 13 -98q0 -238 -231 -325q-104 -39 -205 -39q-34 0 -88 5q-63 -34 -63 -87
t73 -60q42 -4 140 -4l222 6q226 0 281 -100q30 -54 30 -140zM823 1474l-328 -385l-56 30v13l140 341l219 29z" />
    <glyph glyph-name="Aringacute" unicode="&#x1fa;" horiz-adv-x="1593" 
d="M702 539q129 0 208 3l-214 524l-205 -524q82 -3 211 -3zM1198 0q-115 0 -273 -6l-9 10v63l10 11l87 5q55 3 55 39q0 21 -28 94l-81 211q-138 2 -249 2t-265 -2l-44 -122q-50 -139 -50 -175t47 -44q26 -4 102 -8l10 -10v-64l-10 -10q-185 6 -232 6t-209 -6l-10 9v65l11 10
q102 6 126 41t177 417l261 653q29 76 88 229h71q-87 0 -143 50t-57 132q1 82 57 132t143 49q87 1 143 -49t57 -132q-1 -82 -57 -132t-143 -50h71l530 -1247q31 -71 60 -81t91 -11l9 -11v-64l-9 -10q-222 6 -337 6zM885 1600q0 52 -27 87t-75 35t-75 -35t-27 -87t27 -88
t75 -35q48 -1 75 35t27 88zM1095 2120l-451 -326l-46 35v14l219 276l256 31z" />
    <glyph glyph-name="aringacute" unicode="&#x1fb;" 
d="M330 281q0 -136 119 -136q101 0 161 94v246q-164 -35 -222 -77t-58 -127zM610 570q0 246 -210 246q-74 0 -119 -32l-38 -93l-13 -7l-51 12l-7 14l5 118q165 122 248 138q35 7 91 7q197 0 281 -103q61 -75 61 -230l-8 -309q0 -151 5 -193t23 -52q18 -11 89 -13l10 -11v-56
l-11 -11q-84 5 -181 5t-175 -5l-9 11l9 134l-194 -148q-31 -23 -106 -23q-110 0 -170 67t-60 185q0 156 103 224t427 125zM632 1277q0 52 -27 87t-75 35t-75 -35t-27 -87q0 -51 27 -87t75 -36t75 36t27 87zM730 1277q0 -82 -56 -132t-144 -50t-144 50t-56 132q0 81 56 131
t144 50t144 -50t56 -131zM786 1913l-328 -385l-56 30v13l140 341l219 29z" />
    <glyph glyph-name="AEacute" unicode="&#x1fc;" horiz-adv-x="2048" 
d="M1003 549v685q0 49 -18 49q-7 0 -19 -16t-142 -228t-287 -490h466zM309 118q0 -37 66 -40q31 -1 86 -5l11 -10v-58l-10 -10q-60 5 -225 5t-219 -5l-10 10v58l11 11q89 9 111 35t86 132l407 681q198 331 198 365q0 22 -49 26l-139 11l-10 10v67l10 10l515 -6q191 0 718 6
l10 -10l-12 -109q-3 -29 -9 -90l-7 -93l-10 -11h-58l-10 10q-1 136 -14 152q-14 16 -110 25q-96 8 -176 8t-169 -7q-11 -105 -11 -291v-207q79 -5 128 -5l131 1q92 1 106 17t19 133l10 10h62l10 -10q-4 -112 -4 -209t4 -217l-10 -9h-67l-10 10q0 115 -16 137q-25 34 -227 33
q-73 0 -136 -5v-305q0 -131 5 -254h136q350 0 374 34q10 14 19 60l24 124l10 11h61l11 -10q-22 -146 -22 -330l-10 -10l-720 6q-198 0 -265 -6l-10 10v28l6 12q34 18 67 36q18 16 21 64t5 294h-533l-31 -52q-129 -215 -129 -268zM1684 1875l-451 -326l-46 35v14l219 276
l256 31z" />
    <glyph glyph-name="aeacute" unicode="&#x1fd;" horiz-adv-x="1593" 
d="M356 257q0 -54 35 -88t93 -34q88 0 162 89q7 22 7 88l1 148q-41 0 -113 -19t-109 -39q-76 -42 -76 -145zM1245 587q0 270 -168 270q-177 0 -177 -268v-22q58 -9 170 -9t174 9q1 14 1 20zM1228 111q100 0 227 66l25 -29l-45 -99q-145 -93 -316 -93q-300 0 -407 203
q-74 -42 -225 -168q-59 -32 -136 -32q-121 1 -187 71t-67 162q1 92 35 160t87 93q133 62 434 112q1 18 1 29q0 231 -213 231q-76 0 -149 -41q-12 -23 -29 -83l-13 -8l-49 9l-10 12q-2 82 -4 118q3 1 85 49t143 78q55 18 145 18q167 0 267 -107q166 107 300 107
q179 0 278 -104t99 -302q0 -18 -1 -53l-11 -14q-132 -36 -350 -36l-237 -3q6 -148 93 -247t230 -99zM1093 1474l-328 -385l-56 30v13l140 341l219 29z" />
    <glyph glyph-name="Oslashacute" unicode="&#x1fe;" horiz-adv-x="1706" 
d="M1304 682q0 181 -46 320l-763 -711q67 -122 159 -171t215 -49q285 0 383 281q52 149 52 330zM846 1318q-297 0 -394 -267q-50 -137 -50 -323t48 -332l763 710q-70 126 -171 174q-80 38 -196 38zM1612 739q0 -369 -212 -576t-574 -207q-318 0 -510 168l-176 -164h-15
l-60 62v15l177 165q-148 185 -148 482q0 481 367 666q167 84 411 84q328 0 519 -162l174 162h15l57 -65v-14l-170 -159q145 -173 145 -457zM1179 1875l-451 -326l-46 35v14l219 276l256 31z" />
    <glyph glyph-name="oslashacute" unicode="&#x1ff;" horiz-adv-x="1139" 
d="M780 414q0 124 -13 211l-377 -384q52 -183 192 -183t178 153q20 79 20 203zM559 878q-199 0 -199 -359q0 -102 11 -182l375 381q-50 160 -187 160zM1057 496q0 -354 -238 -479q-116 -61 -265 -61q-213 0 -332 114l-121 -123h-15l-44 42v14l127 129q-86 127 -86 338
q0 343 234 457q115 56 267 56q211 0 328 -97l98 100h16l41 -42v-14l-100 -102q90 -119 90 -332zM836 1474l-328 -385l-56 30v13l140 341l219 29z" />
    <glyph glyph-name="uni0218" unicode="&#x218;" horiz-adv-x="1251" 
d="M1144 443q0 -147 -88 -265q-165 -223 -512 -222q-210 0 -412 96l-12 22q28 115 28 327l10 10h64l9 -10v-23q0 -56 12 -148q36 -64 131 -111t200 -47q198 0 274 138q39 71 39 147q0 128 -107 183q-53 27 -171 45q-267 41 -351 103q-127 94 -127 295t142 326t389 125
t391 -75l7 -24q-24 -119 -29 -286l-11 -10h-63l-10 10q-3 120 -10 156q-31 47 -111 81t-168 33q-134 0 -210 -69q-76 -70 -75 -180q0 -110 83 -164q54 -35 255 -67q21 -3 117 -20q187 -33 263 -149q53 -82 53 -227zM606 -117q70 1 114 -53t43 -160q1 -106 -77 -187t-226 -96
l-7 26q201 41 201 166q0 35 -48 37q-154 5 -154 136q0 58 42 94t112 37z" />
    <glyph glyph-name="uni0219" unicode="&#x219;" horiz-adv-x="909" 
d="M839 300q1 -148 -121 -246t-318 -98q-139 0 -298 60l-11 15q9 92 11 143l5 126l10 11h59l12 -11q4 -112 9 -132q85 -109 223 -109q88 0 141 43q53 42 53 124t-80 112q-34 13 -167 41t-189 73q-85 68 -85 207q-1 139 107 229t282 90t280 -54l9 -16q-11 -45 -17 -231
l-11 -10h-57l-11 10q-4 72 -14 117q-63 80 -183 80q-78 0 -128 -38t-50 -100q0 -83 85 -111q38 -11 177 -39t193 -71q84 -67 84 -215zM585 -310q-1 -93 -79 -169t-193 -88l-7 25q100 21 137 65q37 43 37 81t-50 38t-88 31q-36 31 -36 87t36 90t100 34q63 0 103 -50t40 -144z
" />
    <glyph glyph-name="uni0259" unicode="&#x259;" 
d="M678 336v63h-344q-1 -14 -1 -61q0 -270 168 -270q177 0 177 268zM931 470q0 -242 -138 -366q-163 -148 -343 -148t-279 104.5t-99 335.5q0 55 8 85l19 19h572q-6 154 -76 234q-71 80 -219 80t-256 -66l-24 29l44 99q146 93 317 93q230 0 352 -128.5t122 -370.5z" />
    <glyph glyph-name="uni0259" unicode="&#x4d9;" 
d="M678 336v63h-344q-1 -14 -1 -61q0 -270 168 -270q177 0 177 268zM931 470q0 -242 -138 -366q-163 -148 -343 -148t-279 104.5t-99 335.5q0 55 8 85l19 19h572q-6 154 -76 234q-71 80 -219 80t-256 -66l-24 29l44 99q146 93 317 93q230 0 352 -128.5t122 -370.5z" />
    <glyph glyph-name="uni0292" unicode="&#x292;" horiz-adv-x="1104" 
d="M1026 -18q0 -84 -41 -172q-105 -225 -369 -312q-160 -53 -294 -51t-200 37q-59 151 -110 227l-2 20l40 43l20 -4q33 -37 118 -122q118 -108 249 -110t233 110q79 87 79 254t-83 235q-106 87 -270 41l-26 50l170 252q50 74 137 220q-159 -6 -267 -6t-136 -4t-46 -26
q-19 -20 -56 -114l-19 -12l-45 2l-12 12l55 198q11 38 48 211q447 -40 784 1l9 -59l-253 -305q-41 -51 -229 -298q286 46 415 -75q101 -95 101 -243z" />
    <glyph glyph-name="circumflex" unicode="&#x2c6;" horiz-adv-x="682" 
d="M654 1120l-3 -10h-77l-233 241l-233 -241h-77l-3 10l225 362h176z" />
    <glyph glyph-name="caron" unicode="&#x2c7;" horiz-adv-x="682" 
d="M654 1472l-225 -362h-176l-225 362l3 10h77l233 -241l233 241h77z" />
    <glyph glyph-name="breve" unicode="&#x2d8;" horiz-adv-x="682" 
d="M341 1123q-121 0 -201 83t-83 206l10 10h60q35 -148 214 -148t214 148h60l10 -10q-3 -123 -83 -206t-201 -83z" />
    <glyph glyph-name="dotaccent" unicode="&#x2d9;" horiz-adv-x="682" 
d="M470 1253q0 -55 -38 -93.5t-91 -38.5t-91 38.5t-38 92.5t38 92.5t91 38.5t91 -37.5t38 -92.5z" />
    <glyph glyph-name="ring" unicode="&#x2da;" horiz-adv-x="682" 
d="M443 1277.5q0 51.5 -27 86.5t-75 35t-75 -35t-27 -86.5t27 -87.5t75 -36t75 36t27 87.5zM540.5 1276.5q0.5 -81.5 -56 -131.5t-143.5 -50t-143 50t-56 131.5t56 131.5t143 50t143 -50t56.5 -131.5z" />
    <glyph glyph-name="ogonek" unicode="&#x2db;" horiz-adv-x="682" 
d="M123 -257q0 83 57 151t138 106h84q-129 -96 -129 -226t138 -130q62 0 129 27l13 -5l7 -33l-6 -13q-89 -60 -226 -60q-84 0 -144 50t-61 133z" />
    <glyph glyph-name="tilde" unicode="&#x2dc;" horiz-adv-x="682" 
d="M464 1142q-47 0 -154 53t-141 53q-79 0 -114 -99h-63l-7 10q61 240 233 240q47 0 154 -53t141 -53q79 0 114 99h63l7 -10q-61 -240 -233 -240z" />
    <glyph glyph-name="hungarumlaut" unicode="&#x2dd;" horiz-adv-x="682" 
d="M366 1474l-328 -385l-56 30v13l140 341l219 29zM699 1474l-328 -385l-56 30v13l140 341l219 29z" />
    <glyph glyph-name="gravecomb" unicode="&#x300;" horiz-adv-x="0" 
d="M107 1119l-56 -30l-328 385l25 28l219 -29l140 -341v-13z" />
    <glyph glyph-name="acutecomb" unicode="&#x301;" horiz-adv-x="0" 
d="M277 1474l-328 -385l-56 30v13l140 341l219 29z" />
    <glyph glyph-name="tildecomb" unicode="&#x303;" horiz-adv-x="0" 
d="M123 1142q-47 0 -154 53t-141 53q-79 0 -114 -99h-63l-7 10q61 240 233 240q47 0 154 -53t141 -53q79 0 114 99h63l7 -10q-61 -240 -233 -240z" />
    <glyph glyph-name="hookabovecomb" unicode="&#x309;" horiz-adv-x="0" 
d="M189 1361q0 -46 -31.5 -76.5t-89.5 -68t-58 -66.5t14 -62l-8 -13l-21 -9l-14 3q-35 38 -35 85t51.5 104t51.5 95q0 56 -61.5 56t-95.5 -88l-12 -5l-18 4l-10 11l32 127q54 44 147.5 44t136.5 -64q21 -31 21 -77z" />
    <glyph glyph-name="uni0312" unicode="&#x312;" horiz-adv-x="682" 
d="M481 1228q0 -56 -36.5 -90t-99.5 -34t-103 50.5t-40 143.5t78 169t194 88l7 -25q-100 -21 -137 -65q-37 -43 -37 -81q1 -38 51 -38t86.5 -31t36.5 -87z" />
    <glyph glyph-name="dotbelowcomb" unicode="&#x323;" horiz-adv-x="0" 
d="M129 -246q0 -55 -38 -93.5t-91 -38.5t-91 38.5t-38 92.5t38 92.5t91 38.5t91 -37.5t38 -92.5z" />
    <glyph glyph-name="uni0326" unicode="&#x326;" horiz-adv-x="0" 
d="M150 -310q0 -93 -78.5 -169t-193.5 -88l-7 25q100 21 137 65q37 43 37 81q-1 38 -51 38t-86 31t-37 87q0 56 36.5 90t99.5 34t103 -50.5t40 -143.5z" />
    <glyph glyph-name="uni0374" unicode="&#x374;" horiz-adv-x="512" 
d="M25 814l246 613l15 7l151 -69l3 -20l-341 -567l-9 -3l-62 29z" />
    <glyph glyph-name="uni0375" unicode="&#x375;" horiz-adv-x="512" 
d="M25 -229l246 613l15 7l151 -69l3 -20l-341 -567l-9 -3l-62 29z" />
    <glyph glyph-name="uni037A" unicode="&#x37a;" horiz-adv-x="682" 
d="M364 -96l48 -408l-23 -23h-97l-23 23l48 408h47z" />
    <glyph glyph-name="uni037E" unicode="&#x37e;" horiz-adv-x="512" 
d="M437 322l3 -20l-341 -567l-9 -3l-62 29l-3 10l246 613l15 7zM445 814q0 -64 -45.5 -109.5t-109.5 -45.5t-109 45.5t-45 109.5t45 109t109 45t109.5 -45t45.5 -109z" />
    <glyph glyph-name="tonos" unicode="&#x384;" horiz-adv-x="682" 
d="M389 1518l23 -23l-48 -408h-47l-48 408l23 23h97z" />
    <glyph glyph-name="dieresistonos" unicode="&#x385;" horiz-adv-x="682" 
d="M677 1415q58 0 101.5 -42t43.5 -104t-42.5 -105t-102.5 -43t-102.5 43t-42.5 105t43.5 104t101.5 42zM4 1415q59 0 102 -43t43 -104t-42.5 -104t-102.5 -43t-102.5 43t-42.5 104t43 104t102 43zM389 1518l23 -23l-48 -408h-47l-48 408l23 23h97z" />
    <glyph glyph-name="Alphatonos" unicode="&#x386;" horiz-adv-x="1593" 
d="M702 539q129 0 208 3l-214 524l-205 -524q82 -3 211 -3zM1198 0q-115 0 -273 -6l-9 10v63l10 11l87 5q55 3 55 39q0 21 -28 94l-81 211q-138 2 -249 2t-265 -2l-44 -122q-50 -139 -50 -175t47 -44q26 -4 102 -8l10 -10v-64l-10 -10q-185 6 -232 6t-209 -6l-10 9v65l11 10
q102 6 126 41t177 417l261 653q29 76 88 229h142l530 -1247q31 -71 60 -81t91 -11l9 -11v-64l-9 -10q-222 6 -337 6zM483 1389l-275 -347l-31 26l201 385h28l69 -43z" />
    <glyph glyph-name="Alphatonos" unicode="&#x1fbb;" horiz-adv-x="1593" 
d="M702 539q129 0 208 3l-214 524l-205 -524q82 -3 211 -3zM1198 0q-115 0 -273 -6l-9 10v63l10 11l87 5q55 3 55 39q0 21 -28 94l-81 211q-138 2 -249 2t-265 -2l-44 -122q-50 -139 -50 -175t47 -44q26 -4 102 -8l10 -10v-64l-10 -10q-185 6 -232 6t-209 -6l-10 9v65l11 10
q102 6 126 41t177 417l261 653q29 76 88 229h142l530 -1247q31 -71 60 -81t91 -11l9 -11v-64l-9 -10q-222 6 -337 6zM483 1389l-275 -347l-31 26l201 385h28l69 -43z" />
    <glyph glyph-name="anoteleia" unicode="&#x387;" horiz-adv-x="444" 
d="M222 968q65 0 110.5 -47t45.5 -111t-45.5 -111.5t-110.5 -47.5t-111 46.5t-46 112.5t46 112t111 46z" />
    <glyph glyph-name="Epsilontonos" unicode="&#x388;" horiz-adv-x="1544" 
d="M541 967q0 238 -13 310q-5 29 -34 37q-15 4 -117 10l-10 10v68l10 9q101 -6 301 -6t726 6l11 -8l-13 -111q-6 -53 -9 -90l-7 -93l-10 -11h-58l-10 10q-1 136 -14 152q-14 16 -110 25q-96 8 -176 8t-169 -7q-11 -105 -11 -291v-207q79 -5 128 -5l131 1q92 1 106 17t19 133
l10 10h62l10 -10q-4 -112 -4 -209t4 -217l-10 -9h-67l-10 10q0 115 -16 137q-25 34 -227 33q-73 0 -136 -5v-305q0 -131 5 -254h136q350 0 374 34q10 14 19 60l24 124l10 11h61l11 -10q-22 -146 -22 -330l-10 -10l-727 6q-182 0 -257 -6l-10 10v28l5 12q73 46 81 62t10 130
l3 224v507zM306 1389l-275 -347l-31 26l201 385h28l69 -43z" />
    <glyph glyph-name="Epsilontonos" unicode="&#x1fc9;" horiz-adv-x="1544" 
d="M541 967q0 238 -13 310q-5 29 -34 37q-15 4 -117 10l-10 10v68l10 9q101 -6 301 -6t726 6l11 -8l-13 -111q-6 -53 -9 -90l-7 -93l-10 -11h-58l-10 10q-1 136 -14 152q-14 16 -110 25q-96 8 -176 8t-169 -7q-11 -105 -11 -291v-207q79 -5 128 -5l131 1q92 1 106 17t19 133
l10 10h62l10 -10q-4 -112 -4 -209t4 -217l-10 -9h-67l-10 10q0 115 -16 137q-25 34 -227 33q-73 0 -136 -5v-305q0 -131 5 -254h136q350 0 374 34q10 14 19 60l24 124l10 11h61l11 -10q-22 -146 -22 -330l-10 -10l-727 6q-182 0 -257 -6l-10 10v28l5 12q73 46 81 62t10 130
l3 224v507zM306 1389l-275 -347l-31 26l201 385h28l69 -43z" />
    <glyph glyph-name="Etatonos" unicode="&#x389;" horiz-adv-x="2026" 
d="M1642 0q-212 0 -306 -6l-10 9v68l11 10q102 6 117 10q29 8 34 37q13 72 13 310v241q-51 5 -313 5t-343 -5v-241q0 -238 13 -310q5 -29 34 -37q15 -4 117 -10l10 -10v-67l-9 -10q-100 6 -312 6t-304 -6l-10 9v68l10 10q102 6 117 10q29 8 34 37q13 72 13 310v529
q0 238 -13 310q-5 29 -34 37q-15 4 -117 10l-10 10v68l10 9q96 -6 310 -6t306 6l9 -9v-69l-10 -9q-102 -6 -117 -10q-29 -8 -34 -37q-13 -72 -13 -310v-165q106 -5 345 -5t311 5v165q0 238 -13 310q-5 29 -34 37q-15 4 -117 10l-11 10v68l10 9q98 -6 312 -6t304 6l10 -9v-69
l-9 -9q-104 -6 -118 -10q-29 -8 -34 -37q-13 -72 -13 -310v-529q0 -238 13 -310q5 -29 34 -37q15 -4 117 -10l10 -10v-67l-10 -10q-98 6 -310 6zM306 1389l-275 -347l-31 26l201 385h28l69 -43z" />
    <glyph glyph-name="Etatonos" unicode="&#x1fcb;" horiz-adv-x="2026" 
d="M1642 0q-212 0 -306 -6l-10 9v68l11 10q102 6 117 10q29 8 34 37q13 72 13 310v241q-51 5 -313 5t-343 -5v-241q0 -238 13 -310q5 -29 34 -37q15 -4 117 -10l10 -10v-67l-9 -10q-100 6 -312 6t-304 -6l-10 9v68l10 10q102 6 117 10q29 8 34 37q13 72 13 310v529
q0 238 -13 310q-5 29 -34 37q-15 4 -117 10l-10 10v68l10 9q96 -6 310 -6t306 6l9 -9v-69l-10 -9q-102 -6 -117 -10q-29 -8 -34 -37q-13 -72 -13 -310v-165q106 -5 345 -5t311 5v165q0 238 -13 310q-5 29 -34 37q-15 4 -117 10l-11 10v68l10 9q98 -6 312 -6t304 6l10 -9v-69
l-9 -9q-104 -6 -118 -10q-29 -8 -34 -37q-13 -72 -13 -310v-529q0 -238 13 -310q5 -29 34 -37q15 -4 117 -10l10 -10v-67l-10 -10q-98 6 -310 6zM306 1389l-275 -347l-31 26l201 385h28l69 -43z" />
    <glyph glyph-name="Iotatonos" unicode="&#x38a;" horiz-adv-x="1100" 
d="M702 0q-208 0 -309 -6l-9 10v67l10 10q102 6 117 10q29 8 34 37q13 72 13 310v529q0 238 -13 310q-5 29 -34 37q-15 4 -117 10l-10 10v68l10 9q96 -6 308 -6t307 6l10 -9v-68l-10 -10q-102 -6 -117 -10q-29 -8 -34 -37q-13 -72 -13 -310v-529q0 -238 13 -310
q5 -29 34 -37q15 -4 117 -10l10 -10v-67l-9 -10q-100 6 -308 6zM306 1389l-275 -347l-31 26l201 385h28l69 -43z" />
    <glyph glyph-name="Iotatonos" unicode="&#x1fdb;" horiz-adv-x="1100" 
d="M702 0q-208 0 -309 -6l-9 10v67l10 10q102 6 117 10q29 8 34 37q13 72 13 310v529q0 238 -13 310q-5 29 -34 37q-15 4 -117 10l-10 10v68l10 9q96 -6 308 -6t307 6l10 -9v-68l-10 -10q-102 -6 -117 -10q-29 -8 -34 -37q-13 -72 -13 -310v-529q0 -238 13 -310
q5 -29 34 -37q15 -4 117 -10l10 -10v-67l-9 -10q-100 6 -308 6zM306 1389l-275 -347l-31 26l201 385h28l69 -43z" />
    <glyph glyph-name="Omicrontonos" unicode="&#x38c;" horiz-adv-x="1806" 
d="M1404 687q0 291 -116 461t-342 170q-297 0 -394 -267q-50 -137 -50 -307q0 -309 116 -491t351 -182q285 0 383 281q52 149 52 335zM1712 739q0 -369 -212 -576t-564 -207t-547 192t-195 536q0 481 367 666q167 84 411 84q348 0 544 -184t196 -511zM306 1389l-275 -347
l-31 26l201 385h28l69 -43z" />
    <glyph glyph-name="Omicrontonos" unicode="&#x1ff9;" horiz-adv-x="1806" 
d="M1404 687q0 291 -116 461t-342 170q-297 0 -394 -267q-50 -137 -50 -307q0 -309 116 -491t351 -182q285 0 383 281q52 149 52 335zM1712 739q0 -369 -212 -576t-564 -207t-547 192t-195 536q0 481 367 666q167 84 411 84q348 0 544 -184t196 -511zM306 1389l-275 -347
l-31 26l201 385h28l69 -43z" />
    <glyph glyph-name="Upsilontonos" unicode="&#x38e;" horiz-adv-x="1857" 
d="M1827 1159q0 -60 -8 -113l-31 -14l-18 7q-32 142 -170 142q-118 0 -240 -129q-175 -186 -168 -614q2 -133 13 -310q5 -29 34 -37q15 -4 117 -10l10 -10v-70l-10 -7q-151 6 -297 6t-308 -6l-10 7v70l10 10q102 6 117 10q29 9 35 43q7 34 11 231t-16 316q-38 233 -169 390
q-102 123 -219 123t-174 -159l-12 -5l-31 28q33 153 119 259t228 106q140 1 240 -119t133 -362q14 -103 26 -275h59q20 179 36 273t58 191q82 187 238 260q72 34 152 34q159 0 217 -139q28 -67 28 -127zM306 1389l-275 -347l-31 26l201 385h28l69 -43z" />
    <glyph glyph-name="Upsilontonos" unicode="&#x1feb;" horiz-adv-x="1857" 
d="M1827 1159q0 -60 -8 -113l-31 -14l-18 7q-32 142 -170 142q-118 0 -240 -129q-175 -186 -168 -614q2 -133 13 -310q5 -29 34 -37q15 -4 117 -10l10 -10v-70l-10 -7q-151 6 -297 6t-308 -6l-10 7v70l10 10q102 6 117 10q29 9 35 43q7 34 11 231t-16 316q-38 233 -169 390
q-102 123 -219 123t-174 -159l-12 -5l-31 28q33 153 119 259t228 106q140 1 240 -119t133 -362q14 -103 26 -275h59q20 179 36 273t58 191q82 187 238 260q72 34 152 34q159 0 217 -139q28 -67 28 -127zM306 1389l-275 -347l-31 26l201 385h28l69 -43z" />
    <glyph glyph-name="Omegatonos" unicode="&#x38f;" horiz-adv-x="1783" 
d="M1374 835q0 230 -105 364t-300 134q-118 0 -218 -53q-99 -53 -155 -173t-56 -297q0 -241 105 -407q74 -117 191 -163v-240l-610 -6q-16 239 -35 406l10 10h53l10 -10q42 -124 60 -140q18 -15 343 -16v21q-193 69 -311 223t-118 353q0 133 56 253t161 193q206 147 503 147
q188 0 360 -64t268 -195q96 -130 95 -296q0 -234 -147 -411q-102 -122 -297 -203v-22q334 0 346 15q13 15 58 142l10 10h53l10 -10q-15 -133 -35 -406l-612 6v240q307 115 307 595zM306 1389l-275 -347l-31 26l201 385h28l69 -43z" />
    <glyph glyph-name="Omegatonos" unicode="&#x1ffb;" horiz-adv-x="1783" 
d="M1374 835q0 230 -105 364t-300 134q-118 0 -218 -53q-99 -53 -155 -173t-56 -297q0 -241 105 -407q74 -117 191 -163v-240l-610 -6q-16 239 -35 406l10 10h53l10 -10q42 -124 60 -140q18 -15 343 -16v21q-193 69 -311 223t-118 353q0 133 56 253t161 193q206 147 503 147
q188 0 360 -64t268 -195q96 -130 95 -296q0 -234 -147 -411q-102 -122 -297 -203v-22q334 0 346 15q13 15 58 142l10 10h53l10 -10q-15 -133 -35 -406l-612 6v240q307 115 307 595zM306 1389l-275 -347l-31 26l201 385h28l69 -43z" />
    <glyph glyph-name="iotadieresistonos" unicode="&#x390;" horiz-adv-x="682" 
d="M414 564q0 -204 8 -298t39 -124t81 -30t114 33l10 -4l-6 -61q-151 -113 -314 -113q-98 -1 -142 49t-43 166l5 305q0 308 -11 433l251 59l30 -20q-22 -190 -22 -395zM645 1415q57 0 101 -42t44 -104t-42 -105t-103 -43t-103 43t-42 105t44 104t101 42zM-28 1415
q59 0 102 -43t43 -104q-1 -61 -43 -104t-102 -43t-102 43t-43 104q0 61 43 104t102 43zM357 1518l23 -23l-48 -408h-47l-48 408l23 23h97z" />
    <glyph glyph-name="Alpha" unicode="&#x391;" horiz-adv-x="1593" 
d="M702 539q129 0 208 3l-214 524l-205 -524q82 -3 211 -3zM1198 0q-115 0 -273 -6l-9 10v63l10 11l87 5q55 3 55 39q0 21 -28 94l-81 211q-138 2 -249 2t-265 -2l-44 -122q-50 -139 -50 -175t47 -44q26 -4 102 -8l10 -10v-64l-10 -10q-185 6 -232 6t-209 -6l-10 9v65l11 10
q102 6 126 41t177 417l261 653q29 76 88 229h142l530 -1247q31 -71 60 -81t91 -11l9 -11v-64l-9 -10q-222 6 -337 6z" />
    <glyph glyph-name="Beta" unicode="&#x392;" horiz-adv-x="1353" 
d="M931 420q0 300 -315 300q-40 0 -91 -3v-463q0 -75 4 -147q41 -7 115 -7q140 0 214 86t73 234zM888 1084q0 221 -230 221q-76 0 -129 -8q-4 -105 -4 -194v-276q23 -2 92 -2q181 0 238 116q33 67 33 143zM1190 1133q0 -142 -111 -237q-53 -44 -115 -68t-139 -42
q412 -18 412 -335q0 -251 -243 -389q-120 -68 -309 -68q-60 0 -99 1l-239 5q-128 0 -198 -6l-10 10v28l5 12q74 47 82 62t9 130l3 224v507q0 238 -13 310q-5 29 -34 37q-15 4 -117 10l-10 10v68l10 9q89 -6 306 -6l398 9q279 0 366 -127q46 -67 46 -154z" />
    <glyph glyph-name="Gamma" unicode="&#x393;" horiz-adv-x="1190" 
d="M238 438v529q0 238 -13 310q-5 29 -34 37q-15 4 -117 10l-10 10v68l10 9l243 -6q645 0 823 11l9 -10q-14 -93 -14 -324l-11 -10h-63l-10 10q-1 6 -4 60t-7 88q-4 36 -30 54q-25 18 -188 19h-297v-865q0 -238 13 -310q5 -29 34 -37q15 -4 117 -10l10 -10l1 -68l-9 -9
l-309 6q-99 0 -309 -6l-9 9v68l10 10q102 6 117 10q29 8 34 37q13 72 13 310z" />
    <glyph glyph-name="uni0394" unicode="&#x394;" horiz-adv-x="1408" 
d="M1000 105q-51 144 -181 462l-208 508q-46 -111 -64 -161l-144 -394q-109 -300 -147 -415h744zM1356 30l-10 -30h-1284l-10 30q121 254 313 713l280 675h118l495 -1167q46 -108 98 -221z" />
    <glyph glyph-name="Epsilon" unicode="&#x395;" horiz-adv-x="1241" 
d="M238 967q0 238 -13 310q-5 29 -34 37q-15 4 -117 10l-10 10v68l10 9q100 -6 300 -6t727 6l11 -8l-13 -111q-6 -53 -9 -90l-7 -93l-10 -11h-58l-10 10q-1 136 -14 152t-109 25q-96 8 -177 8q-80 0 -169 -7q-11 -105 -11 -291v-207q79 -5 128 -5l131 1q92 1 106 17t19 133
l10 10h62l10 -10q-4 -112 -4 -209t4 -217l-10 -9h-67l-10 10q0 115 -16 137q-25 34 -227 33q-73 0 -136 -5v-305q0 -131 5 -254h136q350 0 374 34q10 14 19 60l24 124l10 11h61l11 -10q-22 -146 -22 -330l-10 -10l-727 6q-182 0 -257 -6l-10 10v28l5 12q74 46 82 62t9 130
l3 224v507z" />
    <glyph glyph-name="Zeta" unicode="&#x396;" horiz-adv-x="1366" 
d="M644 2q-184 0 -582 -8l-10 9v70q74 93 226 309l146 208l187 275q93 136 278 421l-251 -1q-291 -1 -326 -11t-45 -43q-4 -13 -17 -93l-8 -50l-11 -10h-61l-10 12q7 106 7 162t-2 149l10 10q137 -6 427 -6t662 6l10 -10v-60l-82 -115q-129 -178 -222 -314l-296 -434
q-50 -73 -233 -358q53 -2 161 -2q507 0 540 28q18 15 35 99t22 103l11 10h60l11 -11q-21 -182 -32 -344l-10 -9q-411 8 -595 8z" />
    <glyph glyph-name="Eta" unicode="&#x397;" horiz-adv-x="1706" 
d="M1322 0q-212 0 -306 -6l-10 9v68l11 10q102 6 117 10q29 8 34 37q13 72 13 310v241q-51 5 -313 5t-343 -5v-241q0 -238 13 -310q5 -29 34 -37q15 -4 117 -10l10 -10v-67l-9 -10q-100 6 -312 6t-304 -6l-10 9v68l10 10q102 6 117 10q29 8 34 37q13 72 13 310v529
q0 238 -13 310q-5 29 -34 37q-15 4 -117 10l-10 10v68l10 9q96 -6 310 -6t306 6l9 -9v-69l-10 -9q-102 -6 -117 -10q-29 -8 -34 -37q-13 -72 -13 -310v-165q106 -5 345 -5t311 5v165q0 238 -13 310q-5 29 -34 37q-15 4 -117 10l-11 10v68l10 9q98 -6 312 -6t304 6l10 -9v-69
l-9 -9q-104 -6 -118 -10q-29 -8 -34 -37q-13 -72 -13 -310v-529q0 -238 13 -310q5 -29 34 -37q15 -4 117 -10l10 -10v-67l-10 -10q-98 6 -310 6z" />
    <glyph glyph-name="Theta" unicode="&#x398;" horiz-adv-x="1706" 
d="M1116 740q0 -112 5 -260l-14 -11h-45l-10 11q-6 60 -12 91t-27 41q-20 10 -106 11h-87l-55 1q-79 1 -94 -44q-8 -26 -17 -100l-10 -11h-46l-13 11q5 160 5 278t-7 200l11 10h51l10 -10l9 -56q11 -66 59 -73q20 -3 91 -3h105q99 0 113 38q7 19 19 94l10 10h51l10 -10
q-6 -106 -6 -218zM1310 700q0 252 -89 418q-114 215 -358 215q-298 0 -407 -284q-60 -156 -60 -335q0 -264 116 -460t351 -196q276 0 387 253q60 137 60 389zM853 1434q373 0 566 -184t193 -514t-179 -545q-196 -235 -597 -235q-344 0 -543 196t-199 539q0 468 358 653
q174 90 401 90z" />
    <glyph glyph-name="Iota" unicode="&#x399;" horiz-adv-x="797" 
d="M398 0q-208 0 -308 -6l-9 10v67l10 10q102 6 117 10q29 8 34 37q13 72 13 310v529q0 238 -13 310q-5 29 -34 37q-15 4 -117 10l-10 10v68l10 9q95 -6 307 -6t308 6l10 -9v-68l-10 -10q-102 -6 -117 -10q-29 -8 -34 -37q-13 -72 -13 -310v-529q0 -238 13 -310
q5 -29 34 -37q15 -4 117 -10l10 -10v-67l-9 -10q-101 6 -309 6z" />
    <glyph glyph-name="Kappa" unicode="&#x39a;" horiz-adv-x="1576" 
d="M1314 0q-60 0 -180 -6q-23 50 -103 141l-297 339q-97 110 -209 202v-238q0 -238 13 -310q5 -29 34 -37q15 -4 117 -10l10 -10v-67l-9 -10q-100 6 -312 6t-304 -6l-10 9v68l10 10q102 6 117 10q29 8 34 37q13 72 13 310v529q0 238 -13 310q-5 29 -34 37q-15 4 -117 10
l-10 10v68l10 9q96 -6 310 -6t306 6l9 -9v-69l-10 -9q-102 -6 -117 -10q-29 -8 -34 -37q-13 -72 -13 -310v-248q187 174 268 258l142 147q73 76 187 208v69l11 10q77 -6 157 -6t198 6l10 -10v-62l-10 -10q-116 1 -184 -45t-295 -260l-202 -192q43 -58 140 -171l224 -260
q249 -289 288 -307q24 -11 79 -12l10 -11v-67l-10 -10q-164 6 -224 6z" />
    <glyph glyph-name="Lambda" unicode="&#x39b;" horiz-adv-x="1593" 
d="M1264 0q-180 0 -344 -6l-10 11v67l9 10q150 1 150 52q0 26 -65 190l-300 744l-222 -557q-12 -31 -70 -189t-58 -189q0 -41 62 -49l94 -2l10 -10v-68l-11 -10q-113 6 -217 6t-231 -6l-11 11v67l10 10q64 6 85 14t45.5 47.5t86.5 188.5l205 495q173 420 233 591h152
l459 -1113q66 -157 73 -166q41 -55 151 -57l10 -11v-66l-11 -11q-105 6 -285 6z" />
    <glyph glyph-name="Mu" unicode="&#x39c;" horiz-adv-x="2048" 
d="M1656 0q-212 0 -306 -6l-9 9v68l10 10q102 6 117 10q29 8 34 37q13 72 13 310v676l-223 -457q-19 -38 -130 -280l-183 -400h-67q-52 124 -141 313l-402 842v-694q0 -238 13 -310q5 -29 34 -37q15 -4 117 -10l10 -10v-68l-10 -9q-115 6 -222 6t-223 -6l-10 9v68l10 10
q102 6 117 10q29 8 34 37q13 72 13 310v529q0 238 -13 310q-5 29 -34 37q-15 4 -117 10l-10 10v68l10 9q104 -6 244 -6t232 6q33 -76 94 -214l382 -803l153 310l239 511q42 91 82 196q112 -6 230 -6t222 6l10 -9v-69l-10 -9q-102 -6 -117 -10q-29 -8 -34 -37
q-13 -72 -13 -310v-529q0 -238 13 -310q5 -29 34 -37q15 -4 117 -10l10 -10v-67l-10 -10q-98 6 -310 6z" />
    </font>
</defs>
</svg>
