<?xml version="1.0" standalone="no"?>
<!DOCTYPE svg PUBLIC "-//W3C//DTD SVG 1.1//EN" "http://www.w3.org/Graphics/SVG/1.1/DTD/svg11.dtd" >
<svg xmlns="http://www.w3.org/2000/svg">
<metadata>
Created by FontPrep 20130207 at Fri Jul 14 13:44:01 2017
 By Richard Lyon
Copyright 1981-1983, 1989,1993, 1998 Heidelberger Druckmaschinen AG. All rights reserved. The  digitally encoded machine readable outline data for producing the Typefaces licensed are the property of Heidelberger Druckmaschinen AG and/or its subsidiaries, represented by Linotype Library GmbH, Dupont Strasse 1, 61352 Bad Homburg Germany. Portions (c) 1996-1998 Microsoft Corporation. All Rights Reserved. 
</metadata>
<defs>
<font id="979bf1e76ed816239da6972f80e9a4e3" horiz-adv-x='1024' >
  <font-face 
    font-family="PalatinoLinotype-Italic"
    font-weight="400"
    font-style="italic"
    font-stretch="normal"
    units-per-em="2048"
    panose-1="2 4 5 2 5 3 5 10 3 4"
    ascent="1638"
    descent="-410"
    x-height="955"
    cap-height="1413"
    bbox="-331 -596 2557 2155"
    underline-thickness="120"
    underline-position="-148"
    slope="-10"
    unicode-range="U+0020-FFFC"
  />
<missing-glyph horiz-adv-x="1670" 
d="M505 692q0 -18 -17 -18t-17 18t17 18t17 -18zM486 661q43 1 43 41t-43 40t-43 -40t43 -41zM894 483l-27 11l-54 -38l-65 45l-38 72l-34 -13l54 -90l94 -45zM1672 818l-4 -72q-187 -70 -446 -180q-81 -44 -270 -135q-52 -33 -153 -90q-7 -3 99 -113l-126 -121l99 -5
l-31 -81h-36l18 50l-82 9l-54 -27l-45 -72l-31 13l49 68l45 36l-90 4l-49 -54l-32 9l86 86l103 -9l109 81l-77 117q-34 -16 -59 -9q22 -34 43 -67l-185 -72l54 -16l-74 -54l-25 5l43 40l-27 14l-79 -21l-16 -38l-27 -4l27 58l54 16l-65 25l-25 -39l-22 9l42 54l111 -29
l160 63l-27 70q-36 26 -115 85q-28 24 -70 74t-78 75q-80 53 -166 75t-235 10l27 36l257 77q104 32 288 90l36 -14q10 -18 36 -58q25 -33 63 -55t70 -42q32 -18 79 -43q196 -14 276 -1q79 14 547 172z" />
    <glyph glyph-name="IJ" unicode="IJ" horiz-adv-x="1364" 
d="M389 1300q-1 32 -23 40t-138 14l-7 8l5 43l9 8l280 -8q95 0 205 8l7 -8l-3 -43l-9 -8q-105 -6 -117 -11t-18 -13q-21 -23 -96 -440l-81 -470q-47 -286 -47 -314t13 -38q13 -11 150 -17l6 -8l-5 -43l-9 -8l-263 8q-103 0 -222 -8l-7 8l3 43l10 8q108 6 124 18q15 12 28 59
q13 46 54 269l65 355l59 346q27 170 27 202zM709 -426q-34 0 -77 19l-4 44l8 9q25 -10 50 -10q84 0 128 98t105 500l139 904q21 137 21 163q-1 27 -27 39t-150 14l-6 8l5 43l9 8q26 0 89 -2l206 -6q90 0 205 8l7 -8l-3 -43l-9 -8q-118 -6 -132 -18t-51 -207t-64 -371
l-105 -680q-42 -270 -141 -387t-203 -117z" />
    <glyph glyph-name="ij" unicode="ij" horiz-adv-x="1101" 
d="M404 958q42 0 41 -53q0 -53 -85 -370q-85 -316 -85 -390q0 -40 28 -40q43 0 156 85l10 -3l11 -26l-2 -12q-177 -136 -229 -159q-51 -22 -77 -22t-43 26t-17 74t54 239t82 321t27 162q0 32 -23 31q-15 1 -29 -7t-126 -73l-11 4l-10 23l3 13q246 177 325 177zM347 1310
q-1 46 33 86t75 41q83 0 83 -81q0 -54 -31 -96t-72 -43q-41 0 -65 24q-24 23 -23 69zM504 -481q52 1 76 63t56 225t84 409t77 382l27 158q3 22 3 32q0 35 -30 35q-35 0 -160 -81l-11 4l-11 23l4 14q147 104 217 141t114 37t45 -55q0 -55 -54 -291l-102 -451
q-109 -474 -203 -612q-54 -80 -94 -103t-73 -23q-32 0 -79 17l16 97l17 10q56 -31 81 -31zM883 1310q-1 46 33 86t76 41q82 0 82 -80q0 -56 -31 -98t-72 -42q-41 -1 -65 23t-23 70z" />
    <glyph glyph-name="uniFB00" unicode="ff" horiz-adv-x="1115" 
d="M1273 1474q64 0 131 -27q-39 -104 -56 -166l-23 -7q-47 75 -145 75t-131 -79.5t-93 -399.5h115q68 0 99 7l9 -11q-7 -20 -31 -95l-9 -7q-45 2 -85 2t-117 -2l-133 -607q-38 -172 -66.5 -267t-80 -190t-146 -185t-197.5 -90q-32 0 -71 19q33 98 47 164l25 6
q42 -56 104 -56q96 0 150 122t138 611l81 473h-397l-145 -669q-79 -365 -218 -517.5t-259 -152.5q-34 0 -71 19q33 98 47 164l25 6q42 -56 103 -56q99 0 154.5 125.5t152.5 708.5l62 372l-80 1q-51 0 -75 -2l-8 8l7 31l8 8q67 22 166 62l47 230q17 82 46 122t125.5 119.5
t149 105t108.5 25.5t123 -27q-39 -104 -57 -166l-22 -7q-49 75 -144 75q-52 0 -105.5 -43.5t-121.5 -435.5h397q50 265 68 315t156.5 169.5t242.5 119.5z" />
    <glyph glyph-name="uniFB01" unicode="fi" horiz-adv-x="1081" 
d="M1059 1358q0 -58 -32.5 -99.5t-84.5 -41.5q-82 0 -82 88q0 52 34.5 92.5t85.5 40.5q79 0 79 -80zM603 870q87 0 182 46t124 46q52 0 52 -56q-1 -44 -87 -366t-86 -395q0 -40 28 -40q43 0 156 85l10 -3l11 -26l-3 -12q-231 -181 -301 -181q-64 0 -64 87q0 58 43 211
q117 416 117 516q0 45 -46 45q-25 1 -71 -27t-72 -36q-101 2 -210 0q-12 -48 -35 -159l-70 -332q-50 -240 -87.5 -371.5t-108.5 -245.5t-161.5 -172.5t-159.5 -58.5q-34 0 -71 19q32 94 47 164l25 6q42 -56 103 -56q98 0 152.5 126.5t135.5 602.5l81 477q-147 0 -155 -1
l-8 8l7 30l6 6q58 17 165 62l48 235q19 92 73 149.5t165.5 139t161.5 81.5t95 -19q-28 -132 -35 -177l-24 -8q-30 76 -108 76t-114 -52.5t-69 -217.5l-42 -206h200z" />
    <glyph glyph-name="uniFB02" unicode="fl" horiz-adv-x="1116" 
d="M805 147q0 -45 30 -45t145 83l29 21l10 -3l11 -26l-3 -12q-241 -195 -325 -195q-62 0 -62 86t103 509q139 613 139 726q0 29 -19.5 45t-95.5 16q-8 -53 -9 -75l-23 -7q-23 75 -112 75q-54 0 -103.5 -46.5t-114.5 -429.5q209 0 221 8l8 -7q-12 -35 -31 -97l-9 -7
q-99 0 -208 -2l-130 -608q-65 -304 -136.5 -442.5t-175.5 -213.5t-180 -75q-33 0 -71 19q32 94 47 164l25 6q42 -56 103 -56q103 0 158.5 140t130.5 590l80 476q-147 0 -155 -1l-8 8l6 27l7 9q68 24 164 60l42 191q27 124 51.5 163.5t115.5 110.5l83 64q101 78 173 78
q38 0 76 -17q-11 -34 -16 -56q128 2 262 73l30 -17l-84 -390l-176 -884q-3 -15 -3 -36z" />
    <glyph glyph-name="uniFB03" unicode="ffi" horiz-adv-x="1632" 
d="M1609 1358q0 -58 -32.5 -99.5t-84.5 -41.5q-82 0 -82 88q0 52 34 92.5t86 40.5q79 0 79 -80zM-231 -575q-34 0 -71 19q33 98 47 164l25 6q42 -56 103 -56q99 0 154.5 125.5t152.5 708.5l62 372l-80 1q-51 0 -75 -2l-8 8l7 31l8 8q69 21 163 61l50 231q18 84 46.5 123
t125.5 118.5t149 105t108 25.5t123 -27q-39 -104 -57 -166l-22 -7q-49 75 -144 75q-52 0 -105.5 -43t-120.5 -433h396q37 215 55 274t83.5 127.5t167.5 134t144 65.5t89 -19q-29 -138 -34 -177l-24 -8q-31 76 -117 76q-55 0 -103 -50t-112 -424h218q69 0 163 45t123 45
q52 0 52 -56q-1 -43 -87 -366t-86 -395q0 -40 28 -40q41 0 156 85l10 -3l11 -26l-2 -12q-233 -181 -302 -181q-64 0 -64 87q0 59 43 212q117 415 117 515q0 45 -45 45q-24 -1 -69 -27t-75 -36q-56 1 -84 1h-126l-156 -716q-75 -336 -214 -480t-252 -144q-32 0 -71 19
q33 98 47 164l25 6q42 -56 103 -56q97 0 151 122.5t138 611.5l81 472h-397l-170 -771q-87 -319 -218 -443.5t-234 -124.5z" />
    <glyph glyph-name="uniFB04" unicode="ffl" horiz-adv-x="1666" 
d="M-231 -575q-34 0 -71 19q33 98 47 164l25 6q42 -56 103 -56q99 0 154.5 125.5t152.5 708.5l62 372l-80 1q-51 0 -75 -2l-8 8l7 31l8 8q69 23 166 61l47 231q17 82 46 122t125.5 119.5t149 105t108.5 25.5t123 -27q-39 -104 -57 -166l-22 -7q-49 75 -144 75
q-55 0 -107 -45t-120 -431h397q45 266 76 325t128 134l79 61q105 81 176 81q39 0 77 -17q-12 -35 -15 -56q128 3 261 73l30 -17l-249 -1213q-14 -68 -14 -105t33 -37t172 104l10 -3l10 -26l-2 -12q-111 -95 -197.5 -145t-128.5 -50q-62 0 -62 84q0 47 40 227l135 607
q67 298 67 403q0 35 -23.5 48t-91.5 13q-7 -44 -9 -75l-23 -7q-22 75 -112 75q-55 0 -103.5 -47t-114.5 -428h112q78 0 109 7l4 -6q-13 -35 -32 -100l-9 -7q-47 2 -86 2t-117 -2l-145 -669q-78 -362 -216.5 -516t-260.5 -154q-32 0 -71 19q33 98 47 164l25 6q42 -56 103 -56
q91 0 147.5 114.5t145.5 638.5l77 453h-397l-145 -669q-79 -365 -218 -517.5t-259 -152.5z" />
    <glyph glyph-name="S_S. RQD" unicode="SS" horiz-adv-x="2134" 
d="M488 55q179 1 268 103t89 234q-1 132 -99 183q-44 23 -173 52t-195 63q-138 71 -138 266q0 142 79 252t200 168t269 58t251 -62l4 -12q-24 -98 -45 -261l-8 -8h-44l-8 8v147q-78 92 -232 92q-90 0 -164 -38t-115 -112t-41 -156t30 -134t84 -75q54 -24 172 -51t162 -43
q44 -17 86 -53q86 -75 85 -213q1 -139 -87 -254q-192 -252 -503 -252q-163 0 -304 77l-4 12q35 132 49 292l10 9h42l7 -8l4 -192q73 -59 141 -75t128 -17zM1495 55q179 1 268 103t89 234t-98 183q-44 23 -174 52q-129 29 -195 63q-138 71 -138 266q0 142 79 252t200 168
q120 58 268 58t252 -62l4 -12q-24 -98 -45 -261l-8 -8h-44l-8 8v147q-78 92 -232 92q-91 0 -165 -38t-114 -112q-41 -74 -41 -156q1 -82 31 -134t84 -75q54 -24 170 -51q118 -27 162 -43q44 -17 86 -53q86 -75 86 -213q0 -139 -88 -254q-192 -252 -502 -252q-163 0 -304 77
l-4 12q35 132 49 292l10 9h42l7 -8l4 -192q74 -59 142 -75t127 -17z" />
    <glyph glyph-name="c_h. RQD" unicode="ch" horiz-adv-x="1820" 
d="M317 -34q-249 0 -249 303q0 91 22 195t59 181t77 122t136 105q162 102 265 101q103 0 174 -49l3 -13q-29 -119 -44 -241l-8 -8h-31l-8 8v67q1 19 1 43t-12 42t-56 33t-99 15q-105 0 -167 -54t-112 -218t-50 -289t49 -181t119 -57q70 0 139 29t191 119l10 -3l11 -28
l-3 -12q-120 -102 -222 -156t-195 -54zM1565 107q31 0 169 101l10 -3l12 -26l-2 -11q-82 -68 -186 -134t-132 -65q-54 0 -54 84q0 25 3 41t34 150l57 248q59 242 59 295q0 36 -40 36q-66 0 -206 -121q-70 -62 -131 -149t-91 -166t-52 -183l-37 -198q-122 -25 -139 -33
l-13 14q151 573 228 1054l33 204q8 37 8 61q1 24 -13 33q-14 10 -58 10l-84 1l-8 8l4 25l7 9q188 30 315 79l25 -19q-42 -178 -194 -903l7 -4q184 243 330 329t223 85q25 1 40 -17t15 -48t-82 -354q-82 -323 -82 -401q0 -17 8 -25t17 -7z" />
    <glyph glyph-name="c_k. RQD" unicode="ck" horiz-adv-x="1705" 
d="M317 -34q-249 0 -249 303q0 91 22 195t59 181t77 122t136 105q162 102 265 101q103 0 174 -49l3 -13q-29 -119 -44 -241l-8 -8h-31l-8 8v67q1 19 1 43t-12 42t-56 33t-99 15q-105 0 -167 -54t-112 -218t-50 -289t49 -181t119 -57q70 0 139 29t191 119l10 -3l11 -28
l-3 -12q-120 -102 -222 -156t-195 -54zM1675 975q28 0 69 -16l-34 -140q-44 14 -91 14t-100 -22q-92 -38 -233 -181q34 -107 92 -251t87 -202q30 -58 47 -69t37 -11t95 46l31 19l11 -3l10 -24l-3 -12q-209 -154 -245 -154q-16 1 -28 7q-33 18 -86 145q-54 127 -149 394
q-87 -107 -111 -163q-23 -56 -47 -200l-24 -142l-136 -36l-17 13l49 190q31 121 91 415t87 446l37 209q7 39 7 61q1 22 -13 31q-14 10 -58 10l-84 1l-8 8l3 25l8 9q186 29 315 79l25 -19q-35 -144 -93 -421l-58 -276q-36 -171 -66 -289q78 112 198 248q232 261 385 261z" />
    <glyph glyph-name="f_t. RQD" unicode="ft" horiz-adv-x="1198" 
d="M-231 -575q-34 0 -71 19q33 98 47 164l25 6q42 -56 103 -56q99 0 154.5 125.5t152.5 708.5l62 372l-80 1q-51 0 -75 -2l-8 8l7 31l8 8q69 24 168 63l45 229q16 80 44 120t125.5 120t150.5 106t109 26t123 -27q-39 -104 -57 -166l-22 -7q-49 75 -144 75q-52 0 -105.5 -43
t-120.5 -433h397q20 109 52 357q103 44 157 72l24 -18q-43 -165 -92 -412q194 0 213 3l13 -10l-31 -100h-1l-9 -1h-34l-25 -1h-54q-47 0 -94 1q-107 -524 -107 -609q0 -46 38 -46q43 0 160 90l35 27l12 -4l11 -23l-3 -12q-264 -220 -348 -220q-64 0 -64 104q0 62 36 220.5
t92 472.5h-397l-109 -506l-47 -202q-65 -291 -150.5 -406t-165.5 -170t-150 -55z" />
    <glyph glyph-name="f_f_t. RQD" unicode="fft" horiz-adv-x="1749" 
d="M1608 866q66 0 106 9l9 -8l-29 -107q-44 0 -217 4q-107 -524 -107 -609q0 -46 38 -46t159 90l36 27l11 -4l11 -23l-2 -12q-264 -220 -348 -220q-64 0 -64 104q0 57 39.5 236t87.5 457h-401l-133 -607q-38 -172 -66.5 -267t-80 -190t-146 -185t-197.5 -90q-32 0 -71 19
q33 98 47 164l25 6q42 -56 104 -56q96 0 150 122t138 611l81 473h-397l-109 -506l-47 -202q-65 -291 -150.5 -406t-165.5 -170t-150 -55q-34 0 -71 19q33 98 47 164l25 6q42 -56 103 -56q99 0 154.5 125.5t152.5 708.5l62 372l-80 1q-51 0 -75 -2l-8 8l7 31l8 8
q68 22 168 65l45 227q16 80 44 120t125.5 120t150.5 106t109 26t123 -27q-39 -104 -57 -166l-22 -7q-49 75 -144 75q-55 0 -107 -45t-122 -435h397l65 303q14 53 156 177.5t248 124.5q64 0 131 -27q-39 -104 -56 -166l-23 -7q-47 75 -131 75t-129.5 -59t-109.5 -421h402
q19 104 53 361q102 44 157 72l24 -18q-42 -159 -92 -416q43 -2 109 -2z" />
    <glyph glyph-name="f_b. RQD" unicode="fb" horiz-adv-x="1544" 
d="M1234 849q-117 0 -228.5 -119.5t-152.5 -274.5t-41 -247q0 -154 155 -154t252 232t97 396q0 113 -23.5 140t-58.5 27zM628 1346q-51 0 -92.5 -33t-64.5 -134.5t-59 -308.5h112q81 0 104 6l6 -6q-24 -73 -31 -98l-9 -7h-203l-118 -547q-65 -303 -127.5 -449t-171 -244.5
t-205.5 -98.5q-32 0 -71 19q33 98 47 164l25 6q42 -56 103 -56q91 0 147.5 114.5t145.5 638.5l77 453h-160l-8 8l8 29l6 6q29 10 172 62q44 236 64.5 303.5t139.5 159.5l79 61q67 52 98.5 66.5t73.5 14.5t81 -17q-8 -23 -15 -53q127 20 250 67l26 -19q-17 -69 -70 -319
l-102 -480q136 181 253 249.5t191 68.5t102.5 -47t28.5 -170q0 -213 -90.5 -395t-236.5 -286.5t-267 -104.5q-76 0 -140 43t-64 127q0 48 35 228l70 360q7 35 42 233l39 217q20 111 20 132q0 43 -68 43h-29q-7 -40 -9 -74l-23 -7q-22 75 -112 75z" />
    <glyph glyph-name="f_f_b. RQD" unicode="ffb" horiz-adv-x="2103" 
d="M1792 849q-117 0 -228.5 -119.5t-152.5 -274.5t-41 -247q0 -154 148 -154q193 0 274.5 258.5t81.5 370.5t-23.5 139t-58.5 27zM1173 1346q-113 0 -150 -142t-68 -341h112q92 0 100 3l6 -8q-10 -29 -25 -86l-9 -7h-203l-111 -514q-69 -320 -129.5 -470t-172 -252.5
t-209.5 -102.5q-32 0 -71 19q33 98 47 164l25 6q42 -56 103 -56q91 0 147.5 114.5t145.5 638.5l77 453h-397l-111 -514q-69 -320 -129.5 -469.5t-173 -252.5t-208.5 -103q-34 0 -71 19q33 98 47 164l25 6q42 -56 103 -56q98 0 154.5 130.5t152.5 703.5l62 372h-155l-8 8
l7 24l8 8q73 27 168 66l45 232q16 80 45 120.5t126 120t149.5 105.5t108.5 26t123 -27q-39 -104 -57 -166l-22 -7q-49 75 -151 75t-131.5 -90t-87.5 -397h397q46 281 72 334.5t131 135.5l79 61q67 52 99 66.5t74 14.5t80 -17q-10 -28 -16 -57q148 27 263 71l26 -19
q-17 -69 -70 -319l-102 -480q240 318 460 318q58 0 87.5 -48t29.5 -169q0 -212 -90 -393.5t-236 -287t-270 -105.5q-86 0 -145 46.5t-59 123.5q0 48 35 228l70 360q7 35 42 233l39 217q21 118 21 136t-12.5 26.5t-59.5 10.5l-38 1q-7 -42 -9 -73l-23 -7q-22 75 -112 75z" />
    <glyph glyph-name="f_h. RQD" unicode="fh" horiz-adv-x="1619" 
d="M1226 -30q-49 0 -49 84q0 30 37 191l57 248q59 257 59 294t-40 37q-91 0 -259.5 -174t-220.5 -447l-37 -198q-122 -25 -139 -33l-13 14q149 565 228 1054l33 204q8 49 8 63q0 40 -71 41l-48 1q-6 -39 -8 -73l-23 -7q-23 75 -112 75q-56 0 -104.5 -47t-115.5 -430l110 1
q84 1 104 6l6 -6q-18 -52 -31 -98l-9 -7h-197l-130 -608q-64 -300 -136 -440t-176 -215.5t-180 -75.5q-33 0 -71 19q32 94 47 164l25 6q42 -56 103 -56q99 0 155 133t134 597l80 476l-155 -1l-8 8l8 22l7 9q119 43 170 77l34 179q21 113 48.5 159t118.5 115l83 64
q101 78 173 78q38 0 76 -17q-9 -29 -16 -57q163 29 272 71l25 -19q-42 -178 -194 -903l7 -2q138 182 287.5 298t265.5 116q55 0 55 -60q0 -38 -82 -362t-82 -398q0 -32 25 -32q31 0 169 101l10 -3l12 -26l-2 -11q-249 -199 -323 -199z" />
    <glyph glyph-name="f_f_h. RQD" unicode="ffh" horiz-adv-x="2150" 
d="M1757 -30q-49 0 -49 84q0 30 37 191l57 248q59 257 59 294t-40 37q-83 0 -254.5 -167t-225.5 -452l-37 -198q-122 -25 -139 -33l-13 14q149 565 228 1054l33 204q8 49 8 63q0 41 -71 41h-33q-7 -43 -9 -72l-23 -7q-22 75 -107 75t-116.5 -56t-52.5 -161l-54 -266h112
q60 0 101 5l5 -11l-25 -85l-9 -7h-203l-110 -508q-67 -309 -120 -459.5t-173 -261t-219 -110.5q-32 0 -71 19q33 98 47 164l25 6q42 -56 103 -56q91 0 147.5 114.5t145.5 638.5l77 453h-397l-110 -508q-50 -233 -88.5 -364.5t-108.5 -239t-157.5 -167.5t-157.5 -60
q-34 0 -71 19q33 98 47 164l25 6q42 -56 103 -56q102 0 157 132.5t150 701.5l62 372l-155 -1l-8 8l6 21l8 8l162 64l52 238q19 86 48.5 125.5t125.5 118t147.5 103.5t107.5 25t123 -27q-39 -104 -57 -166l-22 -7q-49 75 -144 75q-66 0 -114.5 -53.5t-112.5 -433.5h397
q30 168 46.5 243.5t40.5 115.5t117 111l79 61q105 81 176 81q39 0 77 -17q-7 -22 -15 -56q144 26 257 70l25 -19q-42 -178 -194 -903l7 -4q142 186 290 300t263 114q55 0 55 -60q0 -38 -82 -362t-82 -398q0 -32 25 -32q31 0 169 101l10 -3l12 -26l-2 -11
q-249 -199 -323 -199z" />
    <glyph glyph-name="f_k. RQD" unicode="fk" horiz-adv-x="1500" 
d="M-223 -575q-41 0 -79 19q32 94 47 164l25 6q42 -56 103 -56q102 0 157 137.5t132 592.5l80 476l-155 -1l-8 8l6 22l7 9q49 15 169 70l37 186q23 114 47 156.5t120 117.5l83 64q101 78 173 78q38 0 76 -17q-8 -26 -16 -58q147 26 266 72l25 -19q-33 -138 -93 -421
l-58 -276q-34 -163 -66 -289q183 261 334 385t249 124q28 0 63 -14l5 -12l-30 -119l-10 -8q-37 11 -77 11q-144 0 -340 -203q59 -185 114 -313.5t85 -174t57 -45.5t102 46l31 19l11 -3l10 -24l-3 -12q-209 -154 -249 -154t-91.5 107.5t-167.5 438.5q-92 -108 -115 -176.5
t-43 -186.5l-24 -142l-136 -36l-17 13l49 190q83 322 178 861l37 209q7 40 7 61q0 41 -71 41h-42q-7 -39 -8 -72l-23 -7q-23 75 -110 75t-129 -81.5t-92 -395.5h114q81 0 104 6l6 -6q-22 -67 -30 -96l-9 -7h-203l-130 -609q-51 -239 -100.5 -362t-122 -208.5t-146.5 -123
t-115 -37.5z" />
    <glyph glyph-name="f_f_k. RQD" unicode="ffk" horiz-adv-x="2038" 
d="M1173 1346q-90 0 -118 -62.5t-54 -187.5l-47 -230h114q87 0 104 6l6 -6q-25 -75 -30 -94l-9 -7h-204l-67 -316q-96 -450 -150 -618t-177.5 -286.5t-226.5 -118.5q-32 0 -71 19q33 98 47 164l25 6q42 -56 103 -56q105 0 159.5 144t133.5 609l77 453h-397l-111 -514
q-68 -315 -122 -461.5t-173.5 -255t-215.5 -108.5q-34 0 -71 19q33 98 47 164l25 6q42 -56 103 -56q98 0 154 127.5t153 706.5l62 372l-155 -1l-8 8l2 23l8 8q156 58 174 69l44 231q14 77 42.5 117.5t126 121t151 107t109.5 26.5t123 -27q-39 -104 -57 -166l-22 -7
q-49 75 -152 75t-134.5 -102t-84.5 -383h397q47 299 83.5 351.5t120.5 116.5l79 61q70 54 100.5 67.5t72.5 13.5t80 -17q-7 -20 -15 -57q139 25 259 71l25 -19q-38 -161 -93 -421l-58 -276q-36 -170 -66 -289q371 509 583 509q28 0 65 -15l4 -7l-32 -129l-5 -3
q-50 12 -81 12q-82 0 -161.5 -51t-178.5 -152q60 -186 114.5 -314t84 -173.5t57.5 -45.5t102 46l31 19l11 -3l10 -24l-3 -12q-209 -154 -251 -154q-61 0 -172 309l-85 237q-85 -105 -109 -160t-49 -203l-24 -142l-136 -36l-17 13l49 190q80 310 178 861l37 209q7 40 7 61
q0 42 -71 42h-35q-7 -42 -9 -73l-23 -7q-22 75 -112 75z" />
    <glyph glyph-name="f_j. RQD" unicode="fj" horiz-adv-x="1078" 
d="M976 1436q83 0 83 -96q0 -43 -31 -83.5t-72 -40.5t-64 24.5t-23 68.5t32.5 85.5t74.5 41.5zM482 -482q28 0 52.5 25.5t55.5 151.5l133 647q81 393 81 443t-36 50t-163 -72h-214l-105 -491q-51 -243 -87.5 -372t-107.5 -243.5t-162 -173.5t-160 -59q-34 0 -71 19
q32 94 47 164l25 6q42 -56 103 -56q98 0 152.5 126.5t135.5 602.5l81 477l-155 -1l-8 8l6 21l7 9q122 44 169 70l44 233q19 100 163 235t245 135q41 0 86 -19q-28 -132 -35 -177l-23 -8q-31 76 -116 76t-120 -74.5t-96 -407.5h265q91 40 151 70.5t92 30.5q53 0 53 -56
t-54 -294l-102 -451q-167 -738 -377 -738q-25 0 -72 17l16 97l17 10q56 -31 84 -31z" />
    <glyph glyph-name="t_t. RQD" unicode="tt" horiz-adv-x="1238" 
d="M863 186q0 -52 38 -52q44 0 160 90l35 27l12 -4l11 -23l-3 -12q-137 -119 -226.5 -169.5t-121.5 -50.5q-64 0 -64 104q0 55 30.5 194.5t99.5 506.5l-420 -7q-111 -576 -111 -628t38 -52q43 0 160 90l35 27l12 -4l11 -23l-3 -12q-262 -220 -348 -220q-64 0 -64 104
q0 57 33 206.5t101 509.5l-163 -4l-7 8l3 17l8 8q123 43 172 69q19 88 52 345q107 45 157 72l24 -18l-39 -153q-7 -26 -53 -252l415 7q11 20 56 368q107 45 157 72l24 -18l-39 -153q-31 -121 -54 -269q194 0 215 8l6 -5l-23 -91h-216q-110 -561 -110 -613z" />
    <glyph glyph-name=".notdef" horiz-adv-x="1670" 
d="M505 692q0 -18 -17 -18t-17 18t17 18t17 -18zM486 661q43 1 43 41t-43 40t-43 -40t43 -41zM894 483l-27 11l-54 -38l-65 45l-38 72l-34 -13l54 -90l94 -45zM1672 818l-4 -72q-187 -70 -446 -180q-81 -44 -270 -135q-52 -33 -153 -90q-7 -3 99 -113l-126 -121l99 -5
l-31 -81h-36l18 50l-82 9l-54 -27l-45 -72l-31 13l49 68l45 36l-90 4l-49 -54l-32 9l86 86l103 -9l109 81l-77 117q-34 -16 -59 -9q22 -34 43 -67l-185 -72l54 -16l-74 -54l-25 5l43 40l-27 14l-79 -21l-16 -38l-27 -4l27 58l54 16l-65 25l-25 -39l-22 9l42 54l111 -29
l160 63l-27 70q-36 26 -115 85q-28 24 -70 74t-78 75q-80 53 -166 75t-235 10l27 36l257 77q104 32 288 90l36 -14q10 -18 36 -58q25 -33 63 -55t70 -42q32 -18 79 -43q196 -14 276 -1q79 14 547 172z" />
    <glyph glyph-name="glyph1" horiz-adv-x="0" 
 />
    <glyph glyph-name="glyph2" horiz-adv-x="1536" 
 />
    <glyph glyph-name="space" unicode=" " horiz-adv-x="512" 
 />
    <glyph glyph-name="space" unicode="&#xa0;" horiz-adv-x="512" 
 />
    <glyph glyph-name="exclam" unicode="!" horiz-adv-x="682" 
d="M157 94q0 52 34.5 91.5t82.5 39.5q94 0 95 -97q-7 -146 -109 -146q-104 0 -103 112zM286 376l-13 10q75 449 126 993q91 19 173 50l22 -18q-143 -543 -247 -1001z" />
    <glyph glyph-name="quotedbl" unicode="&#x22;" 
d="M853 1501q33 0 57 -26.5t24 -58.5t-29 -72l-215 -302h-62l126 374q17 53 41.5 69t57.5 16zM508 1501q32 0 56.5 -26.5t24.5 -58.5t-29 -72l-215 -302h-61l125 374q18 53 42.5 69t56.5 16z" />
    <glyph glyph-name="quotedbl" unicode="&#x2ba;" 
d="M853 1501q33 0 57 -26.5t24 -58.5t-29 -72l-215 -302h-62l126 374q17 53 41.5 69t57.5 16zM508 1501q32 0 56.5 -26.5t24.5 -58.5t-29 -72l-215 -302h-61l125 374q18 53 42.5 69t56.5 16z" />
    <glyph glyph-name="numbersign" unicode="#" horiz-adv-x="980" 
d="M339 515h227l76 422h-227zM172 0l68 381h-147l24 134h148l76 422h-148l24 134h148l60 334h74l-60 -334h227l60 334h75l-60 -334h147l-24 -134h-147l-76 -422h147l-24 -134h-147l-69 -381h-74l68 381h-227l-69 -381h-74z" />
    <glyph glyph-name="dollar" unicode="$" 
d="M746 382q0 79 -35 133.5t-178 83.5l-87 -545q125 0 212.5 97.5t87.5 230.5zM298 958q0 -150 192 -202l81 510q-128 0 -200.5 -92.5t-72.5 -215.5zM161 900q0 147 107 276.5t316 174.5l17 127l9 9l58 -1l7 -8q-11 -64 -19 -122l24 1q144 0 252 -72l3 -11q-26 -79 -52 -235
l-8 -8l-34 1l-7 9l1 142q-84 79 -194 82l-84 -521q201 -36 271 -105t70 -186q0 -176 -133.5 -318.5t-332.5 -166.5q-17 -100 -29 -200l-9 -8h-63l-7 9q23 98 40 195q-198 5 -318 85l-3 13q29 61 46 274l10 8l34 -1l9 -9q0 -104 6 -169q83 -99 230 -109l89 554
q-190 44 -248 113.5t-58 176.5z" />
    <glyph glyph-name="percent" unicode="%" horiz-adv-x="1821" 
d="M1302 16q52 0 89.5 26t71.5 77.5t55.5 135t21.5 163.5t-37 132t-95 52q-115 0 -180 -118t-65 -244t43.5 -175t95.5 -49zM1015 276q0 80 45 170.5t136.5 147t205.5 56.5t198.5 -81t84.5 -195t-52 -209t-143 -145.5t-178 -50.5t-158.5 45t-105 113.5t-33.5 148.5zM247 1006
q0 -111 45 -159t103 -48q99 0 164.5 125.5t65.5 269.5q0 85 -36.5 137.5t-93.5 52.5t-100.5 -26.5t-79.5 -88t-52 -136t-16 -127.5zM100 1056q0 79 42.5 168.5t134 148.5t209.5 59t201 -83t83 -195t-52 -207t-143.5 -145.5t-177.5 -50.5t-157 44.5t-105.5 113t-34.5 147.5z
M1372 1466l-881 -1525l-11 -8h-75l-5 8l879 1526l11 8h77z" />
    <glyph glyph-name="ampersand" unicode="&#x26;" horiz-adv-x="1593" 
d="M1294 460q0 -112 -91.5 -221t-254 -189.5t-368.5 -80.5t-342 103.5t-136 283.5q0 211 129.5 296t295.5 141q-72 32 -115 78t-43 131q0 143 162 274t322 131q115 0 190 -49l4 -12l-47 -222l-10 -8l-29 -1l-9 8l-2 116q-68 63 -178 63t-185 -66t-75 -170t71 -159.5
t176 -55.5q9 0 26 1l7 -10l-36 -92q-49 2 -79 2q-247 0 -326.5 -127.5t-79.5 -226.5q0 -140 109.5 -237t274.5 -97t271 49.5t165 131t59 165.5t-49 131.5t-111 47.5t-96.5 -19t-48 -44t-24.5 -72l-7 -27l-10 -7l-30 4l-7 8l15 196q34 46 116 70t230 44t219.5 38.5t108.5 60
t37 99.5t-68 87v13l26 21l11 2q46 -16 73 -56.5t27 -94.5t-20 -101t-51.5 -77t-85 -51t-101 -29.5t-155.5 -21.5q145 -39 145 -172z" />
    <glyph glyph-name="quotesingle" unicode="'" horiz-adv-x="682" 
d="M510 1501q32 0 56.5 -26.5t24.5 -58.5t-29 -72l-215 -302h-61l125 374q18 53 42.5 69t56.5 16z" />
    <glyph glyph-name="quotesingle" unicode="&#x2b9;" horiz-adv-x="682" 
d="M510 1501q32 0 56.5 -26.5t24.5 -58.5t-29 -72l-215 -302h-61l125 374q18 53 42.5 69t56.5 16z" />
    <glyph glyph-name="parenleft" unicode="(" horiz-adv-x="682" 
d="M113 526q0 291 149.5 535t364.5 425h12l32 -34v-11q-220 -235 -316.5 -472.5t-96.5 -507.5t48 -406.5t99 -234.5l-3 -11l-28 -20l-11 2q-98 134 -174 323t-76 412z" />
    <glyph glyph-name="parenright" unicode=")" horiz-adv-x="682" 
d="M581 750q0 -289 -148 -533.5t-367 -427.5h-11l-32 34v11q213 226 313 465t100 552q0 163 -32 302.5t-115 301.5l2 11l28 20l12 -2q250 -350 250 -734z" />
    <glyph glyph-name="asterisk" unicode="*" horiz-adv-x="797" 
d="M214 849q-14 41 -52 115l8 14q26 12 109.5 46.5t149.5 66.5q-163 85 -262 126l-8 20q1 1 32 56l34 58l21 -1q100 -111 211 -213q17 94 26 158.5t19 128.5l18 11q65 -21 126 -35l3 -18q-120 -214 -144 -265q28 3 284 48l12 -7q2 -37 16 -119l-15 -11q-194 29 -294 36
q34 -72 82 -154t50 -89l-4 -12q-102 -49 -120 -62l-15 11q-22 162 -45 287q-75 -65 -158 -143l-61 -56z" />
    <glyph glyph-name="plus" unicode="+" 
d="M994 581h-429v-429h-106v429h-429v102h429v429h106v-429h429v-102z" />
    <glyph glyph-name="comma" unicode="," horiz-adv-x="512" 
d="M-31 -299l-16 19q46 51 101.5 168.5t90.5 293.5q126 31 186 59l20 -27q-43 -102 -142 -258t-171 -229z" />
    <glyph glyph-name="hyphen" unicode="-" horiz-adv-x="682" 
d="M38 445l42 118h544l-42 -118h-544z" />
    <glyph glyph-name="hyphen" unicode="&#x2011;" horiz-adv-x="682" 
d="M38 445l42 118h544l-42 -118h-544z" />
    <glyph glyph-name="hyphen" unicode="&#x2010;" horiz-adv-x="682" 
d="M38 445l42 118h544l-42 -118h-544z" />
    <glyph glyph-name="hyphen" unicode="&#xad;" horiz-adv-x="682" 
d="M38 445l42 118h544l-42 -118h-544z" />
    <glyph glyph-name="period" unicode="." horiz-adv-x="512" 
d="M204 -18q-98 0 -98 112q0 52 35 91.5t83 39.5q94 0 94 -97q0 -58 -33 -102t-81 -44z" />
    <glyph glyph-name="slash" unicode="/" horiz-adv-x="607" 
d="M7 -17l502 1467l11 7h88l5 -8l-502 -1466l-11 -9h-87z" />
    <glyph glyph-name="zero" unicode="0" 
d="M450 29q76 0 140 62t120 209.5t86.5 363.5t30.5 348t-22.5 195.5t-71.5 100t-109 36.5q-102 0 -185 -98.5t-143 -396.5t-60 -503q0 -317 214 -317zM84 447q0 236 68.5 475.5t198 360.5t284.5 121q102 0 181 -53t122.5 -152t43.5 -315t-74 -446t-198.5 -350t-280.5 -120
t-250.5 121.5t-94.5 357.5z" />
    <glyph glyph-name="one" unicode="1" 
d="M564 137q0 -44 33 -59t117 -20t107 -8l6 -8l-3 -42l-9 -8q-179 8 -381 8t-295 -8l-8 8l5 43l9 9q25 2 81 6t98 15t59.5 50.5t35.5 140.5l167 1006q-157 -59 -381 -166l-13 9l21 120q112 20 262 70t276 108l29 -24q-45 -196 -97 -495l-57 -326q-28 -160 -45 -288t-17 -141
z" />
    <glyph glyph-name="two" unicode="2" 
d="M696 1044q0 55 -25 110t-81.5 83.5t-118.5 28.5q-175 0 -289 -207l-11 -4l-29 12l-4 12l119 230q121 87 269 87t245 -84.5t97 -233.5q0 -184 -117 -332.5t-315 -351.5l-144 -149q-84 -92 -95 -102l4 -13h400q147 0 244 18l13 -14l-33 -134l-9 -8q-224 11 -390 11l-259 -6
q-116 -2 -155 -5l-7 8l2 31q431 448 560 649.5t129 363.5z" />
    <glyph glyph-name="three" unicode="3" 
d="M102 240q0 -95 69.5 -150.5t176.5 -55.5t187.5 60.5t119 162t38.5 189.5t-33 149.5t-98.5 92.5t-133.5 31t-170 -25l-8 8l34 95q79 -5 97 -5q75 0 149.5 37.5t117 108t42.5 150.5t-51 133t-141 53t-143 -34.5t-124 -126.5l-11 -2l-25 17l-2 12l116 194q103 62 241 62
t219 -74t81 -180t-56.5 -189t-231.5 -171v-5q133 -19 219 -94t86 -213t-69.5 -251.5t-204.5 -184.5t-293 -71t-294 93l54 278l10 8l33 -5l6 -10q-7 -52 -7 -87z" />
    <glyph glyph-name="four" unicode="4" 
d="M544 500l132 742l-8 1q-119 -162 -305 -412q-89 -128 -222 -318l7 -9q79 -6 213 -5zM783 385q-80 0 -118 1l-22 -137q-14 -87 -14 -125q0 -51 57 -59q22 -3 80 -7t98 -9l6 -8l-4 -41l-9 -8q-121 8 -275 8t-379 -8l-8 8l5 44l9 8q169 9 202 16t47 32t36 136l30 152
l-386 -1q-39 1 -131 -2l-8 9l4 48q119 183 357 501t335 435q123 28 137 33l16 -10l-27 -136q-15 -75 -34 -183l-103 -582q208 0 258 7l9 -13l-31 -105l-10 -8q-47 4 -127 4z" />
    <glyph glyph-name="five" unicode="5" 
d="M110 271q0 -123 73 -179t179 -56t186 62t120.5 178t40.5 196q0 146 -65.5 218t-173.5 72t-159 -36.5t-98 -82.5l-44 21q60 257 131 695l16 13q227 -16 372 -16t277 8l13 -18l-72 -117q-112 -10 -262 -10t-282 8l-102 -468q119 94 276 94q98 0 222 -60t124 -272
q0 -110 -46.5 -221t-171.5 -224t-326 -113q-202 0 -328 105q20 77 56 270l10 7l35 -6l5 -8q-6 -28 -6 -60z" />
    <glyph glyph-name="six" unicode="6" 
d="M236 316q0 -122 64 -190t154 -68t155 58t97 157t32 203t-60 171.5t-146 67.5t-158.5 -52t-105 -138.5t-32.5 -208.5zM253 615q166 212 349 212t236.5 -105.5t53.5 -201.5t-31 -189t-76 -152t-125 -113.5t-136 -78.5t-123 -24q-144 0 -232 104t-88 298t63.5 394t246 418.5
t440.5 218.5q48 0 103 -19l-33 -116l-16 -2q-61 36 -125 36q-175 0 -304.5 -167.5t-202.5 -512.5z" />
    <glyph glyph-name="seven" unicode="7" 
d="M601 1363q267 0 390 4l9 -8l1 -63q-123 -174 -370 -590.5t-363 -704.5l-11 -8q-30 5 -73 5t-85 -6l-12 22q48 78 110.5 171.5t301.5 462.5l278 434q39 65 81 138h-480q-69 0 -214 -11l-12 10q20 85 28 151l7 8q147 -15 414 -15z" />
    <glyph glyph-name="eight" unicode="8" 
d="M200 294q0 -114 63.5 -179t175.5 -65t188 98t76 211t-47 176.5t-178 132.5q-125 -54 -201.5 -157t-76.5 -217zM796 1126q0 77 -55 130.5t-130 53.5t-133 -33t-92 -92.5t-34 -144.5t53 -144.5t166 -114.5q225 139 225 345zM219 977q0 160 143 289t308 129
q122 0 192.5 -70.5t70.5 -176.5t-61.5 -195.5t-242.5 -201.5q129 -62 177.5 -132.5t48.5 -170.5t-33.5 -189.5t-104 -154.5t-163 -101.5t-182.5 -36.5t-162.5 30.5t-114.5 102t-42 157.5q0 125 84.5 235t283.5 209q-106 54 -154 120.5t-48 156.5z" />
    <glyph glyph-name="nine" unicode="9" 
d="M500 654q110 0 192.5 90t82.5 250t-62.5 236t-170.5 76t-185.5 -105t-77.5 -276t77.5 -221t143.5 -50zM427 543q-88 0 -160.5 41t-108 120.5t-35.5 169.5t29 178.5t87 155.5t161.5 128.5t207.5 61.5t213 -77.5t109 -368.5q0 -292 -96.5 -495t-235.5 -346.5t-331 -143.5
q-91 0 -160 38q-14 60 -36 125t-25 76l5 10l28 10l10 -5q52 -94 107 -124.5t124 -30.5q324 0 440 676q-149 -199 -333 -199z" />
    <glyph glyph-name="colon" unicode=":" horiz-adv-x="512" 
d="M190 -18q-98 0 -98 112q0 52 35 91.5t83 39.5q94 0 94 -97q0 -58 -33 -102t-81 -44zM210 836q0 52 33.5 92.5t81.5 40.5q97 0 97 -97q0 -56 -32.5 -101t-80.5 -45t-73.5 29t-25.5 81z" />
    <glyph glyph-name="semicolon" unicode=";" horiz-adv-x="512" 
d="M-51 -299l-16 19q46 51 101.5 168.5t90.5 293.5q126 31 186 59l20 -27q-43 -102 -142 -258t-171 -229zM284 726q-96 0 -97 116q0 52 36.5 89.5t82.5 37.5q94 0 93 -103q0 -51 -32.5 -95.5t-82.5 -44.5z" />
    <glyph glyph-name="less" unicode="&#x3c;" 
d="M994 122l-964 465v90l964 465v-115l-828 -395l828 -395v-115z" />
    <glyph glyph-name="equal" unicode="=" 
d="M994 429h-964v102h964v-102zM994 733h-964v102h964v-102z" />
    <glyph glyph-name="greater" unicode="&#x3e;" 
d="M994 587l-964 -465v115l828 395l-828 395v115l964 -465v-90z" />
    <glyph glyph-name="question" unicode="?" 
d="M360 -18q-98 0 -97 112q0 52 34.5 91.5t82.5 39.5q94 0 95 -97q0 -58 -33.5 -102t-81.5 -44zM359 513q0 64 37.5 126t127.5 159t147.5 169.5t57.5 154.5t-53 133t-150 51t-141 -54.5t-76 -106.5l-11 -5l-28 8l-5 11q50 111 79 190q108 77 231 77q69 0 195 -45t126 -226
q0 -146 -93.5 -239.5t-200.5 -192.5t-138 -140t-31 -93t56 -85l-2 -10l-41 -12q-87 42 -87 130z" />
    <glyph glyph-name="at" unicode="@" horiz-adv-x="1399" 
d="M511 524q0 -197 114 -197q101 0 153 114t75.5 215.5t23.5 159.5t-28.5 95.5t-83.5 37.5q-104 0 -179 -144t-75 -281zM923 411q0 -98 84 -98q64 0 123 55t98.5 157.5t39.5 230.5q0 227 -140 335.5t-322 108.5t-329.5 -83.5t-230.5 -234t-83 -317.5t60.5 -290.5t178 -192.5
t267.5 -69t273 49t202 121l8 -8q-12 -23 -15 -48q-205 -169 -477 -169t-442 167t-170 426q0 294 212.5 495.5t520.5 201.5q247 0 408.5 -134.5t161.5 -342.5t-120 -362t-263 -154q-60 0 -103.5 33t-43.5 96q0 13 2 33l-11 2q-45 -76 -100.5 -114.5t-145.5 -38.5t-141 69
t-51 188q0 174 106.5 323.5t273.5 149.5q82 0 111 -30t45 -61l13 70l106 23l11 -11q-26 -97 -71.5 -307.5t-45.5 -268.5z" />
    <glyph glyph-name="A" unicode="A" horiz-adv-x="1479" 
d="M566 637h440l-76 581zM1155.5 0q-84.5 0 -255.5 -8l-7 8l7 43l9 8q124 5 141.5 15t17.5 30.5t-14 166.5l-39 296h-499l-141 -234q-20 -33 -70 -124t-50 -109t19.5 -26.5t146.5 -13.5l6 -8l-7 -44l-9 -8q-116 8 -209 8t-216 -8l-7 8l7 44l9 7l58 9q36 6 50 22
q33 40 140 211l714 1127h94l168 -1208q14 -101 25 -122t33 -26t114 -13l6 -8l-8 -43l-9 -8q-140 8 -224.5 8z" />
    <glyph glyph-name="B" unicode="B" horiz-adv-x="1251" 
d="M574 69q124 0 199 41.5t118 130.5t43 182t-32 151.5t-101 87.5t-177 29t-175 -7l-69 -414q-19 -115 -24 -176q94 -25 218 -25zM600 763q69 0 133.5 19.5t120.5 65.5t89 116t33 150q0 114 -71.5 168t-194.5 54q-68 0 -145 -13q-60 -279 -102 -556q68 -4 137 -4zM390 1296
q0 28 -13 40.5t-148 17.5l-7 9l5 42l10 8q91 -8 269 -8l252 4q209 0 298.5 -69.5t89.5 -204.5t-84 -218t-142 -114t-142 -62q135 -20 196.5 -45t101.5 -87.5t40 -144.5t-33 -157.5t-93 -134t-148.5 -107t-144.5 -60.5t-158 -12l-328 7q-66 0 -130 -7l-8 7l5 43l8 8
q56 10 65 15t19.5 19t23.5 64t66 335l97 561q33 223 33 251z" />
    <glyph glyph-name="C" unicode="C" horiz-adv-x="1366" 
d="M730 -42q-200 0 -405 112t-205 502q0 455 227.5 618t337 204t253.5 41q226 0 413 -78l4 -11q-30 -87 -50 -281l-8 -8h-42l-8 8q0 132 -3 156q-125 108 -348 108t-357 -103t-186 -285t-52 -329q0 -272 133.5 -409t357.5 -137t438 142l10 -29l-30 -73q-207 -148 -480 -148z
" />
    <glyph glyph-name="D" unicode="D" horiz-adv-x="1593" 
d="M707 80q160 0 268 58t190.5 165.5t128.5 260t46 272.5t-27 210t-98 162t-182 95.5t-234 23.5t-232 -11l-73 -398l-85 -496q-36 -210 -44 -310q182 -32 342 -32zM390 1296q0 28 -13 40.5t-148 17.5l-7 9l5 42l10 8q96 -7 252 -7l381 6q182 0 289 -25t190 -86t129.5 -169
t46.5 -248t-39.5 -269t-117 -242t-178.5 -193.5t-221.5 -134.5t-362.5 -54l-379 9q-83 0 -146 -7l-8 7l5 43l8 8q56 10 65 15t19.5 19t23.5 64t66 335l97 561q33 223 33 251z" />
    <glyph glyph-name="E" unicode="E" horiz-adv-x="1251" 
d="M405 1292.5q0 32.5 -11.5 44t-149.5 17.5l-6 8l5 43l9 8q97 -8 415.5 -8t488.5 8l8 -8q-3 -23 -18 -124l-19 -174l-8 -8h-35l-8 8q-10 152 -13.5 168.5t-18 26.5t-98 17.5t-186.5 7.5t-178 -9q-40 -173 -103 -550q100 -3 207 -3t304 13l7 -10l-38 -95q-233 11 -319 11
t-176 -2l-61 -365q-27 -158 -34 -223q138 -12 266.5 -12t217 7t107.5 15.5t30.5 29t28.5 86t28 98.5l9 8h42l7 -8q-14 -44 -29.5 -156.5t-18.5 -160.5l-13 -9l-696 8q-174 0 -269 -8l-7 8l3 43l10 8q69 8 79 13q25 13 39.5 72.5t78.5 408.5l80 455q43 260 43 292.5z" />
    <glyph glyph-name="F" unicode="F" horiz-adv-x="1138" 
d="M392 1289q0 33 -18 48t-143 17l-7 8l5 43l9 8q26 0 74 -2l195 -6l609 8l10 -9q-25 -139 -33 -299l-8 -8h-38l-8 8q0 148 -22.5 184t-306.5 36q-74 0 -147 -6q-23 -92 -53 -271l-59 -351l226 -3q100 0 293 19l10 -11l-42 -102q-270 11 -343 11t-159 -5q-73 -421 -73 -479
q-6 -43 19.5 -54.5t171.5 -23.5l8 -8l-5 -41l-9 -8q-206 8 -301 8t-218 -8l-7 8l3 43l10 8q120 2 136.5 31t69.5 315l65 355l59 346q27 158 27 191z" />
    <glyph glyph-name="G" unicode="G" horiz-adv-x="1479" 
d="M747 -41q-210 0 -351.5 73t-208.5 207t-67 315t65 353.5t257.5 350t530.5 177.5q212 0 408 -79l4 -11q-36 -108 -58 -284l-8 -8h-42l-8 8q0 73 -7 171q-53 45 -154 72t-206 27q-373 0 -486.5 -263t-113.5 -476q0 -269 131.5 -404t377.5 -135q165 0 279 65l37 196
q15 84 15 112t-16 41.5t-79 17.5l-136 11l-8 8l6 44l10 8l35 -1q176 -6 258 -6t210 3l7 -8l-4 -39l-8 -9q-62 -11 -78.5 -18t-23 -18t-17.5 -61l-12 -57q-30 -146 -30 -192q0 -45 7 -63l-9 -15q-34 -4 -148 -42t-188 -54.5t-171 -16.5z" />
    <glyph glyph-name="H" unicode="H" horiz-adv-x="1593" 
d="M1300 1305q0 17 -18 32t-143 17l-6 8l4 43l10 8l279 -8q95 0 205 8l8 -8l-4 -43l-9 -8q-81 -4 -107 -8t-35 -29t-47 -208.5t-66 -353.5l-67 -400q-37 -221 -37 -249t20.5 -39t142.5 -16l6 -8l-5 -43l-9 -8l-262 8q-105 0 -223 -8l-7 8l4 43l9 8q51 1 124 18
q18 15 32.5 73.5t52.5 268.5l52 286l-396 4q-37 0 -267 -5l-92 -2q-93 -535 -93 -598q0 -18 20.5 -29t142.5 -16l6 -8l-5 -43l-9 -8l-263 8q-104 0 -222 -8l-7 8l3 43l10 8q86 5 109.5 10.5t38.5 51t58 283.5l65 357l59 347q27 160 27 192t-18 45t-143 17l-7 8l5 43l9 8
l280 -8q94 0 205 8l7 -8l-3 -43l-9 -8q-98 -3 -120.5 -13.5t-34.5 -68.5l-36 -174q-9 -45 -59 -314l476 -4q158 0 279 4q80 442 80 521z" />
    <glyph glyph-name="I" unicode="I" horiz-adv-x="682" 
d="M389 1300q0 32 -22.5 40.5t-138.5 13.5l-7 8l5 43l9 8l280 -8q95 0 205 8l7 -8l-3 -43l-9 -8q-105 -6 -116.5 -11t-18.5 -13q-21 -23 -96 -440l-81 -470q-47 -286 -47 -313.5t13 -38.5t150 -17l6 -8l-5 -43l-9 -8l-263 8q-103 0 -222 -8l-7 8l3 43l10 8q108 6 123.5 18.5
t28.5 58.5t54 269l65 355l59 346q27 170 27 202z" />
    <glyph glyph-name="J" unicode="J" horiz-adv-x="682" 
d="M13 -426q-34 0 -77 19l-4 44l8 9q25 -10 50 -10q85 0 128.5 97.5t104.5 500.5l139 904q21 137 21 163t-26.5 38.5t-150.5 14.5l-6 8l5 43l9 8q26 0 89 -2l206 -6q90 0 205 8l7 -8l-3 -43l-9 -8q-118 -5 -132 -17.5t-51 -207.5t-64 -371l-105 -680q-42 -270 -141 -387
t-203 -117z" />
    <glyph glyph-name="K" unicode="K" horiz-adv-x="1366" 
d="M1256 1406q56 0 130 7l8 -8l-4 -43l-8 -8q-61 -1 -89.5 -15t-97.5 -79l-548 -516l446 -548q76 -93 106.5 -114.5t113.5 -29.5l6 -8l-4 -44l-9 -8q-73 8 -122 8t-144 -8q-237 341 -564 698q-93 -531 -93 -594q0 -18 20.5 -29t142.5 -16l6 -8l-5 -43l-9 -8l-263 8
q-103 0 -222 -8l-7 8l3 43l10 8q120 2 136.5 31t69.5 315l65 355l59 346q27 158 27 191t-18 48t-143 17l-7 8l5 43l9 8l280 -8q95 0 205 8l7 -8l-3 -43l-9 -8q-102 -6 -119.5 -12t-31.5 -50.5t-54 -263.5l-57 -313q152 113 353 318l240 245q37 39 44 57t8 70l8 8
q67 -7 123 -7z" />
    <glyph glyph-name="L" unicode="L" horiz-adv-x="1139" 
d="M365 1296q0 28 -13 40.5t-148 17.5l-7 9l5 42l10 8q122 -8 276 -8t229 8l8 -8l-5 -43l-8 -9q-122 -10 -140 -16t-30 -40t-56 -275l-120 -705q-24 -152 -27 -228q111 -12 223 -12t187 3.5t119 11.5t54.5 15.5t18.5 20.5t25 70l37 129l9 8h43l8 -9q-38 -235 -47 -325l-9 -8
l-353 4l-461 3q-69 0 -137 -7l-8 7l5 43l8 8q56 10 65 15t19.5 19t23.5 64t66 335l97 561q33 223 33 251z" />
    <glyph glyph-name="M" unicode="M" horiz-adv-x="1933" 
d="M449 1272q0 36 -36.5 57.5t-153.5 24.5l-8 8l4 43l9 8q102 -5 182 -5t152 5l306 -1180l471 814q88 153 197 366q120 -8 174 -8t160 8l7 -8l-4 -43l-9 -8l-64 -8q-51 -5 -65 -13.5t-29 -42t-46 -470.5l-29 -402q-15 -210 -15 -270t29 -75.5t146 -21.5l9 -9l-5 -42l-9 -8
q-96 10 -242 10t-281 -10l-7 8l3 43l9 8q136 1 161 27t36 177l66 930q-51 -74 -282 -470t-348 -617l-74 -136h-46l-304 1168q-265 -916 -265 -1016q0 -47 39 -53t130 -10l7 -8l-3 -43l-9 -8l-36 2q-136 6 -202 6t-198 -8l-8 8l4 43l9 8q86 9 100 16t27 24q34 44 170 528
l125 449q46 168 46 204z" />
    <glyph glyph-name="N" unicode="N" horiz-adv-x="1593" 
d="M330 1406q89 0 159 7q10 -21 64 -119l73 -131l560 -950l155 923l16 121q4 30 4 48t-18.5 28.5t-92.5 16.5l-49 4l-8 8l4 43l8 8q69 -3 217 -3t208 3l7 -8l-3 -43l-8 -8q-123 -7 -135.5 -28.5t-61.5 -267.5l-72 -365l-66 -381q-27 -156 -49 -339h-102q-10 21 -53 100
l-63 112l-569 966l-99 -541l-39 -255q-29 -189 -29 -231t24 -56t74 -14t72 -3l7 -7l-4 -43l-9 -9q-108 8 -206 8t-225 -8l-8 8l4 44l9 8q88 4 111 17.5t46.5 91t103.5 521.5l96 566q-42 67 -82.5 85t-138.5 21l-6 8l3 43l9 8q73 -7 162 -7z" />
    <glyph glyph-name="O" unicode="O" horiz-adv-x="1593" 
d="M299 588.5q0 -194.5 46.5 -307t152 -173.5t274.5 -61t299 95.5t205.5 304.5t75.5 428t-117 352t-343 133q-176 0 -306 -87.5t-208.5 -288.5t-78.5 -395.5zM120 548q0 338 188 588q107 142 268 223t355 81t323 -59.5t203.5 -184.5t74.5 -318q0 -260 -124 -486t-315 -329.5
t-408 -103.5q-259 0 -412 150.5t-153 438.5z" />
    <glyph glyph-name="P" unicode="P" horiz-adv-x="1251" 
d="M1211 1115q0 -120 -56.5 -241.5t-169.5 -203t-254 -81.5q-96 0 -181 48v47l11 8q65 -33 147 -33t158.5 51t120.5 145t44 202q0 149 -77.5 214t-216.5 65q-65 0 -155 -18q-4 -26 -27 -142t-50 -276l-43 -234q-15 -73 -38 -216l-34 -210q-14 -87 -14 -121t26.5 -47.5
t157.5 -20.5l7 -8l-6 -43l-9 -8q-106 8 -248 8t-264 -8l-7 8l3 43l10 8q108 6 123.5 18.5t28.5 58.5t54 269l65 355l59 346q27 170 27 202t-22.5 40.5t-138.5 13.5l-7 8l5 43l9 8q78 -8 239 -8l360 7q208 0 285.5 -88.5t77.5 -208.5z" />
    <glyph glyph-name="Q" unicode="Q" horiz-adv-x="1593" 
d="M299 588q0 -194 46.5 -306.5t152 -173.5t274.5 -61t299 95.5t205.5 304.5t75.5 428t-117 352t-343 133q-176 0 -306 -87.5t-208.5 -289t-78.5 -395.5zM486 -116q-51 0 -107.5 -35.5t-56.5 -170.5v-13l-9 -9l-34 20l-6 10q-1 18 -1 27q0 104 65 181.5t181 77.5q11 0 36 -1
q-212 37 -323 187t-111 385t96.5 443.5t285 331t445.5 122.5q365 0 475 -184.5t110 -377.5q0 -260 -124 -486t-315 -329.5t-406 -103.5q-45 0 -91 5q39 -10 178 -72q393 -176 497 -176q105 0 132 153l9 9h33l9 -9q-9 -125 -69.5 -202t-151.5 -77t-179 40t-245 123
t-214.5 107t-108.5 24z" />
    <glyph glyph-name="R" unicode="R" horiz-adv-x="1366" 
d="M376 125q0 -54 71 -67q3 -1 113 -7l7 -8l-6 -43l-9 -8q-106 8 -248 8t-264 -8l-7 8l3 43l10 8q120 2 136.5 31t69.5 315l65 355l59 346q27 158 27 191t-18 48t-143 17l-7 8l5 43l9 8q78 -8 239 -8l332 7q196 0 284.5 -75.5t88.5 -209.5t-109 -248t-315 -159
q15 -24 67 -108t194 -293.5t180.5 -238.5t89.5 -29l6 -8l-3 -43l-8 -8q-84 6 -106 6t-153 -6q-3 3 -81 134l-63 106q-30 51 -86 135l-199 300l-58 79l10 24l83 -4q173 0 273.5 104.5t100.5 236.5q0 229 -279 229q-68 0 -155 -18l-120 -652l-72 -426q-14 -86 -14 -115z" />
    <glyph glyph-name="S" unicode="S" horiz-adv-x="1138" 
d="M488 55q179 0 268 102.5t89 234.5t-71.5 169t-200.5 66t-231 81.5t-102 247.5q0 142 79 251.5t200 168t269 58.5t251 -62l4 -12q-24 -98 -45 -261l-8 -8h-44l-8 8v147q-78 92 -232 92q-91 0 -164.5 -38.5t-114.5 -112t-41 -155.5t30.5 -133.5t84 -75.5t171.5 -51t162 -43
t107.5 -72t63.5 -194q0 -139 -139.5 -322.5t-450.5 -183.5q-163 0 -304 77l-4 12q35 132 49 292l10 9h42l7 -8l4 -192q74 -59 141.5 -75.5t127.5 -16.5z" />
    <glyph glyph-name="T" unicode="T" horiz-adv-x="1252" 
d="M644 121q0 -38 20 -51t167 -18l8 -9l-4 -43l-9 -8q-168 8 -294 8t-256 -8l-7 8l4 44l8 7q120 9 141.5 17.5t29 18.5t16.5 41.5t83.5 404.5t119.5 784q-330 0 -372.5 -16t-84.5 -216l-9 -8h-40l-8 8q31 254 33 318l10 10l73 -5q16 -1 68 -2l418 -8l503 9q9 0 68 6l9 -10
q-26 -98 -52 -317l-10 -9h-40l-8 9q10 177 -10 204t-377 27q-10 -43 -43 -230l-66 -371q-12 -67 -50.5 -312t-38.5 -283z" />
    <glyph glyph-name="U" unicode="U" horiz-adv-x="1593" 
d="M1246 0q-95 0 -161 -8l-7 8l50 247q-92 -109 -235.5 -196t-314.5 -87q-110 0 -198 42t-129 115t-41 161t76.5 507.5t76.5 477t-21.5 70.5t-139.5 18l-8 8l4 42l9 8q112 -5 181 -5t174 5l-45 -219q-20 -99 -50 -268l-52 -290q-44 -244 -44 -329q0 -115 86 -172t197.5 -57
t242 68t251.5 214l113 693q33 202 33 240t-23 47t-146 15l-8 8l4 42l9 8q119 -7 249.5 -7t248.5 7l7 -8l-4 -42l-9 -8q-100 -5 -113 -10.5t-21 -15.5q-24 -28 -97 -432l-79 -469q-47 -296 -47 -322.5t14 -39t161 -16.5l8 -9l-7 -41l-9 -8q-91 8 -186 8z" />
    <glyph glyph-name="V" unicode="V" horiz-adv-x="1347" 
d="M1231 1316q0 32 -80 38h-101l-7 8l4 43l9 8q76 -7 218 -7t212 7l7 -8l-4 -43l-7 -8q-70 -6 -92.5 -26t-131.5 -196l-358 -579q-55 -89 -339 -569h-99q-8 80 -45 344l-114 784q-27 183 -38.5 212t-146.5 30l-7 8l4 43l8 8q101 -7 221 -7t268 7l7 -8l-3 -44l-8 -7l-67 -1
q-52 -1 -72 -11t-20 -68t17 -227t125 -841q640 1042 640 1110z" />
    <glyph glyph-name="W" unicode="W" horiz-adv-x="1933" 
d="M1826 1309q0 16 -18.5 29.5t-136.5 15.5l-7 8l5 42l9 9q94 -7 212 -7t182 7l7 -8l-4 -43l-9 -8q-75 -2 -93.5 -20.5t-74.5 -153.5l-162 -386l-163 -402q-105 -259 -149 -408h-100l-25 127q-9 46 -37 155l-224 845q-37 -68 -223 -428l-208 -403q-95 -184 -133 -296h-101
q-3 156 -41 508l-61 568q-19 180 -31 226t-28.5 53.5t-98.5 14.5l-8 8l4 43l9 8q84 -5 228 -5t225 5l8 -9l-4 -42l-9 -8q-101 -2 -124.5 -15.5t-23.5 -91.5t62 -672l31 -297l291 567q196 381 282 579h39q25 -116 64 -262l242 -898q29 65 102 250l120 303q175 442 175 492z
" />
    <glyph glyph-name="X" unicode="X" horiz-adv-x="1478" 
d="M452 1408q184 0 267 5l7 -8l-3 -43l-9 -8l-82 -2q-67 -3 -67 -42q0 -21 76 -170l160 -316l231 291q99 125 120.5 155t21.5 46t-15.5 24.5t-139.5 13.5l-7 8l3 43l9 8q112 -4 232 -4t217 4l8 -8l-3 -43l-9 -8q-61 -3 -81 -8.5t-51.5 -27t-184.5 -201.5l-138 -162
l-170 -206l317 -578q48 -86 67 -97t32.5 -13t114.5 -10l7 -8l-3 -43l-10 -8l-55 2q-149 6 -218 6t-255 -8l-8 8l4 43l9 8q103 3 132 11t29 29t-42.5 108.5t-58.5 116.5l-166 308l-187 -230q-205 -250 -205 -291q0 -28 19.5 -33.5t66.5 -9.5l89 -9l7 -8l-4 -43l-9 -8
q-169 8 -285 8t-193 -8l-8 8l3 43l10 8q68 4 88 9.5t47.5 27t186.5 211.5l333 400l-289 540q-42 78 -63.5 90.5t-43.5 16t-114 8.5l-6 8l3 43l9 8q73 -5 257 -5z" />
    <glyph glyph-name="Y" unicode="Y" horiz-adv-x="1366" 
d="M244 1283q-33 0 -80 -19l-11 7l-4 32l6 12q85 54 153 112q54 -2 94 -21q186 -88 342 -772q117 273 311 516t357 261l-11 -144q-129 -21 -257 -151q-74 -74 -167 -216q-175 -263 -212 -485q-48 -283 -48 -311t15 -35t81 -12l79 -6l7 -8l-4 -43l-9 -8q-129 7 -262.5 7
t-257.5 -7l-7 8l4 43l9 8q116 7 131 10t23 9q21 17 57 191t36 257t-84.5 338t-149 341t-141.5 86z" />
    <glyph glyph-name="Z" unicode="Z" horiz-adv-x="1366" 
d="M734 1326q-284 0 -371 -28q-18 -52 -52 -203l-9 -8h-38l-8 8q21 136 23 309l12 9q619 -9 767 -9t264 9l8 -8l-3 -38l-67 -79l-955 -1204q416 -4 571 -4t260 31q16 24 69 218l11 8h45l6 -8q-35 -193 -48 -329l-10 -8l-518 5q-165 3 -313 3t-300 -8l-8 8l4 43l159 197
l861 1086h-360z" />
    <glyph glyph-name="bracketleft" unicode="[" horiz-adv-x="682" 
d="M456 1473q50 0 201 3l8 -8l-3 -41l-8 -9q-165 -11 -180 -17t-25 -40q-25 -104 -86 -492l-93 -592q-52 -346 -52 -371t15.5 -37.5t73.5 -17.5l123 -9l8 -9l-7 -42l-9 -8q-98 7 -196 7t-180 -7l-9 11q19 65 40 185l95 567q25 142 73 476t54 446l13 10q94 -5 144 -5z" />
    <glyph glyph-name="backslash" unicode="\" horiz-adv-x="1241" 
d="M929 -17l-5 -9h-87l-12 9l-502 1466l6 8h87l11 -7z" />
    <glyph glyph-name="bracketright" unicode="]" horiz-adv-x="682" 
d="M466 1356q0 32 -28.5 44.5t-183.5 18.5l-8 9l6 41l10 8q119 -4 164 -4t207 5l12 -11q-32 -141 -132.5 -736.5t-126.5 -935.5l-15 -11q-67 6 -147 6t-199 -4l-8 9l7 42l9 8q151 8 169 14t30 32q13 27 106 617l111 712q17 104 17 136z" />
    <glyph glyph-name="asciicircum" unicode="^" 
d="M999 671h-116l-335 635l-335 -635h-116l394 749h114z" />
    <glyph glyph-name="underscore" unicode="_" 
d="M0 -327v119h1024v-119h-1024z" />
    <glyph glyph-name="grave" unicode="`" horiz-adv-x="682" 
d="M610 1123l-4 -11l-21 -17l-13 4q-154 142 -333 330l15 21l145 2q31 -60 211 -329z" />
    <glyph glyph-name="a" unicode="a" horiz-adv-x="909" 
d="M514.5 868q-80.5 0 -137.5 -27q-41 -31 -93 -174.5t-77 -269t-25 -190t9.5 -80.5t28.5 -16q36 0 141 97t177.5 225t119.5 342l13 58q-76 35 -156.5 35zM685 113q34 0 146 86l9 -3l7 -27l-4 -12q-210 -181 -286 -181q-50 0 -50 66.5t26 180.5l25 107l15 59l-6 3
q-149 -212 -278.5 -318t-181.5 -106q-70 0 -70 171q0 107 32.5 243t79.5 252t75.5 152.5t95 83.5t124.5 72t137 25t177 -36l64 38l22 -18q-3 -15 -42 -150l-71 -269q-73 -287 -73 -379q0 -40 27 -40z" />
    <glyph glyph-name="b" unicode="b" horiz-adv-x="948" 
d="M210 204q0 -60 35 -105.5t117 -45.5q112 0 185.5 101t122 260.5t48.5 267.5t-20 137t-74 29t-127.5 -45t-146 -145t-106.5 -247t-34 -207zM747 971q43 0 80 -32.5t37 -180.5t-48 -285t-103.5 -219t-123 -141t-154.5 -102t-169 -43t-142 47.5t-60 108.5t35 242l70 360
q20 109 42 233l39 217q20 111 20 133t-15.5 31t-55.5 9l-84 1l-7 8l3 25l8 9q186 30 314 79l26 -19l-172 -799q132 175 251.5 246.5t208.5 71.5z" />
    <glyph glyph-name="c" unicode="c" horiz-adv-x="833" 
d="M317 -34q-249 0 -249 303q0 92 22 195.5t59 180.5t77.5 122t135.5 105q162 102 265 101q103 0 174 -49l3 -13q-29 -119 -44 -241l-8 -8h-31l-8 8v67q1 19 1 43t-12 42t-56 33t-99 15q-105 0 -167.5 -54.5t-112 -218t-49.5 -288.5t49 -181.5t119 -56.5t139 29t191 119
l10 -3l11 -28l-3 -12q-121 -101 -222.5 -155.5t-194.5 -54.5z" />
    <glyph glyph-name="d" unicode="d" 
d="M198 204q0 -92 45 -91q38 0 126 56t172 170t126 243q19 59 59 245q-94 49 -175 49t-119.5 -13.5t-58 -33.5t-51 -86.5t-61.5 -163t-46.5 -190t-16.5 -185.5zM149 -27q-98 -1 -98 227q0 74 28 206t71 228.5t85.5 145.5t144.5 118t197 69q58 0 168 -25l52 303q8 38 8 62
t-15.5 33t-55.5 9l-84 1l-8 8l3 25l8 9q187 30 315 79l25 -19q-47 -198 -107 -485l-118 -564q-37 -190 -37 -241q0 -50 28 -50q38 0 159 96l11 -3l10 -23l-3 -13q-93 -81 -183 -138.5t-128 -57.5q-48 0 -48 77t68 362l-5 1q-108 -182 -257.5 -311t-233.5 -129z" />
    <glyph glyph-name="e" unicode="e" horiz-adv-x="797" 
d="M609 772q0 62 -27 88t-67 26t-96.5 -24t-100 -88t-104.5 -299q254 45 344 167q50 68 51 130zM266 -32q-56 0 -114 30q-115 60 -115 234q0 125 41.5 266.5t83.5 209.5q42 66 124 126q185 132 302 133q76 0 124 -40t48 -116t-46 -144.5t-168 -129.5t-292 -100l-47 -11
q-20 -96 -20 -173t40 -130t112 -53q135 0 324 148l11 -4l11 -25l-2 -13q-246 -208 -417 -208z" />
    <glyph glyph-name="f" unicode="f" horiz-adv-x="569" 
d="M780 1274q-49 74 -149 74q-108 0 -139.5 -104t-81.5 -371q160 3 215 20l9 -13q-23 -63 -33 -109l-9 -7q-61 3 -201 0l-130 -608q-65 -286 -114.5 -395.5t-155.5 -222.5t-222 -113q-33 0 -71 19q32 94 47 164l25 6q42 -56 92 -56t84.5 21t80 102t135.5 607l80 476
q-58 1 -98 1t-57 -2l-8 8l7 30l7 9q119 43 170 77l40 195q19 90 35 120t62.5 74.5t124 103.5t119 76.5t94.5 17.5t121 -27q-42 -111 -57 -166z" />
    <glyph glyph-name="g" unicode="g" 
d="M88 -300q0 -100 78 -156.5t184 -56.5t176.5 24t110.5 70.5t40 91.5t-17 81t-43 60.5t-87 70.5l-140 108q-85 -21 -193.5 -89.5t-108.5 -203.5zM289 572q0 -240 189 -239q120 0 178 109t58 245t-61.5 175t-121.5 39q-116 0 -179 -103.5t-63 -225.5zM313 99q0 50 137 169
q-29 -2 -47 -2q-119 0 -189 62t-70 168q0 215 135.5 341.5t309.5 126.5t241 -112q116 2 173 13l4 -5l-16 -100q-27 2 -57 2t-75 -4q4 -32 4 -58q0 -142 -92.5 -256.5t-249.5 -157.5q-56 -52 -56 -90t29.5 -72t147.5 -130t144 -149t26 -101q0 -129 -142 -221t-336 -92
t-285.5 66t-91.5 177q0 147 134 232t267 123q-45 47 -45 70z" />
    <glyph glyph-name="h" unicode="h" 
d="M765 107q31 0 169 101l10 -3l12 -26l-2 -11q-83 -68 -186.5 -133.5t-131.5 -65.5q-54 0 -54 84q0 26 3 41.5t34 149.5l57 248q59 242 59 295q0 36 -40 36q-66 0 -206 -121q-70 -62 -131 -149t-91 -166t-52 -183l-37 -198q-122 -25 -139 -33l-13 14q151 573 228 1054
l33 204q8 37 8 61t-13.5 33.5t-57.5 9.5l-84 1l-8 8l4 25l7 9q188 30 315 79l25 -19q-42 -178 -194 -903l7 -4q185 243 330.5 328.5t222.5 85.5q25 0 40 -17.5t15 -47.5t-82 -354q-82 -323 -82 -401q0 -17 8.5 -24.5t16.5 -7.5z" />
    <glyph glyph-name="i" unicode="i" horiz-adv-x="569" 
d="M404 958q42 0 41.5 -53t-85.5 -369.5t-85 -390.5q0 -40 28 -40q43 0 156 85l10 -3l11 -26l-2 -12q-177 -136 -229 -158.5t-77.5 -22.5t-42.5 26t-17 74t54 239t81.5 321t27.5 161.5t-23 31.5q-15 0 -29 -7.5t-126 -72.5l-11 4l-10 23l3 13q246 177 325 177zM347 1310.5
q0 45.5 33.5 86t74.5 40.5q83 0 83 -81q0 -54 -31 -96.5t-72 -42.5t-64.5 24t-23.5 69.5z" />
    <glyph glyph-name="j" unicode="j" horiz-adv-x="569" 
d="M-22 -481q52 0 76 62.5t56 225.5t84.5 409.5t76.5 381.5l27 158q3 22 3 32q0 35 -30 35q-35 0 -160 -81l-11 4l-11 23l4 14q148 104 217.5 141t113.5 37t45 -55q0 -55 -54 -291l-102 -451q-108 -475 -182.5 -583.5t-115 -131.5t-72.5 -23t-79 17l16 97l17 10
q56 -31 81 -31zM357 1310q0 46 33.5 86.5t75.5 40.5q82 0 82 -80q0 -56 -31 -98t-72 -42t-64.5 23.5t-23.5 69.5z" />
    <glyph glyph-name="k" unicode="k" horiz-adv-x="909" 
d="M847 975q28 0 69 -16l-34 -140q-44 14 -91 14t-119.5 -30t-213.5 -173q34 -107 91.5 -251t87.5 -202t47 -69t37 -11t95 46l31 19l11 -3l10 -24l-3 -12q-209 -154 -245 -154q-16 0 -38 12.5t-76.5 140t-148.5 393.5q-87 -107 -110.5 -163t-47.5 -200l-24 -142l-136 -36
l-17 13l49 190q31 121 91.5 414.5t86.5 446.5l37 209q7 39 7 61t-13.5 31.5t-57.5 9.5l-84 1l-8 8l3 25l8 9q186 29 315 79l25 -19q-35 -144 -93 -421l-58 -276q-36 -171 -66 -289q78 112 254 310.5t329 198.5z" />
    <glyph glyph-name="l" unicode="l" horiz-adv-x="569" 
d="M137 -30q-61 0 -61 84q0 42 13 106.5t86 395.5t101 490l35 200q7 40 7 62t-15.5 31.5t-54.5 9.5l-84 1l-8 8l3 25l8 9q188 30 314 79l26 -19q-39 -163 -153 -710t-113 -594q1 -46 33 -46t142 83l29 21l10 -3l11 -26l-3 -12q-242 -195 -326 -195z" />
    <glyph glyph-name="m" unicode="m" horiz-adv-x="1593" 
d="M1318 99q35 0 159 89l10 -4l11 -25l-3 -13q-45 -36 -149 -107t-159 -71q-29 0 -46 21.5t-17 60.5t34 162q34 124 82 326t48 248t-32 46q-26 0 -85.5 -32t-137.5 -109t-127.5 -155t-83.5 -195t-72 -336q-46 -7 -139 -28l-15 12q79 284 122 501.5t43 295.5q0 43 -29 43
t-86 -31.5t-139.5 -120.5t-133 -194t-82.5 -253t-46 -223q-78 -12 -138 -27l-15 17l58 208q69 253 88.5 396.5t19.5 184.5t-27 41t-147 -77l-12 4l-10 22l3 15q237 173 314 173q44 0 44 -45t-68 -364q138 196 284 301.5t238 105.5q49 0 49 -44t-10 -100.5t-59 -265.5
q143 199 305.5 305t252.5 106q49 0 49 -59t-88 -382t-87 -373q0 -50 29 -50z" />
    <glyph glyph-name="n" unicode="n" horiz-adv-x="1139" 
d="M725 -31q-60 0 -60 67t78 370q78 302 78 360t-38 59q-75 0 -216 -128.5t-196 -270.5t-70 -206t-42 -213q-69 -11 -141 -32l-13 17q65 199 115.5 459t50.5 330q0 39 -27 39q-37 0 -154 -79l-12 3l-9 22l3 15q115 87 199 132.5t117 45.5q49 -1 49 -53q1 -52 -21 -137
t-66 -267l7 -2q74 121 182 232t223 169t169 58q60 1 60 -67t-81 -380t-81 -361q0 -50 27 -50q33 0 168 96l11 -3l11 -26l-3 -12q-62 -50 -166.5 -118.5t-151.5 -68.5z" />
    <glyph glyph-name="o" unicode="o" horiz-adv-x="909" 
d="M497 896q-154 0 -226 -184.5t-72 -418.5q0 -86 17 -136.5t60 -81t107.5 -30.5t114.5 35t95 130q86 182 86 434t-182 252zM557.5 969q121.5 0 200.5 -70.5t79 -240t-74.5 -341.5t-204.5 -260t-255 -88q-83 1 -145 39q-119 74 -119 268t65 351t198.5 249.5t255 92.5z" />
    <glyph glyph-name="p" unicode="p" 
d="M421 64q80 0 135 34t114.5 153t90.5 242t31 211t-16 117t-60 29q-112 0 -241.5 -143.5t-181.5 -381.5l-37 -213q85 -48 165 -48zM368 -30q-38 0 -132 29l-84 -535q-109 -15 -150 -33l-12 12l30 137q29 131 88 450l76 419q16 100 26 184l13 118q4 34 4 46q0 34 -26 34
t-170 -93l-13 4l-9 22l3 15q97 79 191.5 133t140.5 54t47 -51q0 -51 -55 -326q113 187 252 281.5t238 94.5q45 0 67.5 -24.5t37.5 -80.5t15 -136t-32.5 -198.5t-75.5 -203t-100 -144t-136.5 -108t-137.5 -74.5t-96 -26z" />
    <glyph glyph-name="q" unicode="q" horiz-adv-x="948" 
d="M555 860q-77 0 -116.5 -12.5t-61 -33.5t-53.5 -89t-73.5 -219t-41.5 -306q0 -48 14 -68.5t32 -20.5t61 21t113.5 85t129.5 141t95.5 165.5t66.5 286.5q-89 50 -166 50zM150 -25q-43 0 -66 51.5t-23 139.5t39.5 281t125.5 306q29 39 117.5 104t139.5 84t103 19
q117 0 208 -46l66 48l29 -15q-158 -634 -269 -1481q-102 -21 -173 -41l-18 25q19 16 30.5 34.5t57.5 261.5l57 294q18 100 61 361q-95 -153 -250 -289.5t-235 -136.5z" />
    <glyph glyph-name="r" unicode="r" horiz-adv-x="797" 
d="M265 770q0 58 -24 58q-30 0 -166 -90l-12 3l-10 22l3 15q89 71 187.5 130t144.5 59q40 0 40 -54t-73 -383q93 163 182 275.5t129 138t68 25.5t46 -8l4 -11q-15 -55 -34 -213l-28 -6q-29 40 -62 40t-72.5 -23t-97.5 -93t-100.5 -158.5t-68.5 -193.5t-66 -298
q-101 -23 -136 -35l-18 14q70 229 117 478.5t47 307.5z" />
    <glyph glyph-name="s" unicode="s" horiz-adv-x="797" 
d="M312 39q164 0 199 88.5t35 128.5t-12.5 70t-42 48.5t-119.5 34.5t-126.5 26.5t-92 51.5t-55.5 156t135 219.5t259 104.5t205 -48l4 -11q-17 -58 -22 -105l-12 -112l-8 -8h-31l-9 8q0 59 -3 115q-70 77 -176 77t-163.5 -54.5t-57.5 -123.5t38.5 -105t138.5 -51t140 -25
t93.5 -47t53.5 -132q0 -172 -161 -279t-272 -107t-222 53l-4 11q35 158 41 254l8 8h34l8 -8v-161q90 -77 197 -77z" />
    <glyph glyph-name="t" unicode="t" horiz-adv-x="682" 
d="M209 -33q-65 1 -65 109q0 54 36 218t98 489l-163 -4l-7 8l3 17l8 8q107 38 172 73q19 88 52 345q107 45 157 72l24 -18l-39 -153q-7 -29 -53 -258q44 -3 108 -3t105 14l10 -8l-23 -98q-37 0 -218 5q-111 -533 -111 -628q0 -46 37 -46t161 90l35 27l12 -4l11 -23l-3 -12
q-39 -34 -135.5 -103.5t-139 -93t-72.5 -23.5z" />
    <glyph glyph-name="u" unicode="u" horiz-adv-x="1139" 
d="M718 -33q-54 0 -53 88q0 45 84 394l-6 3l-74 -106q-87 -124 -182 -208.5t-164.5 -128t-102.5 -43.5t-54.5 28.5t-21.5 95t69 344t69 362.5q0 32 -28 32t-151 -80l-12 3l-10 23l3 14q30 23 130 84.5t139 78.5t60 17t33 -16t12 -38t-29 -139q-128 -525 -128 -619
q0 -44 30 -44q38 0 121.5 66t180 189t140.5 247t78 317q12 2 137 32l15 -15q-1 -6 -32.5 -109t-89.5 -346.5t-58 -335.5q0 -47 32 -47q17 0 42 15.5t113 81.5l11 -4l11 -23l-2 -13q-176 -139 -231 -169.5t-81 -30.5z" />
    <glyph glyph-name="v" unicode="v" 
d="M306 286q0 -97 41 -157t129 -60t174.5 98t140 253.5t53.5 277.5t-89 123q-24 0 -48 -12l-11 1l-13 21v12q36 28 76 72l31 34q17 9 39 9q68 0 105.5 -52t37.5 -135q0 -169 -101.5 -370t-241 -319.5t-237.5 -118.5t-165.5 71.5t-67.5 201.5t63.5 269t241.5 336
q-22 -8 -145 -8l-43 2q-66 0 -125 -11q-17 -25 -67 -119l-10 -6h-27l-6 8l81 230q43 15 85 15l246 -17q60 0 109 17l18 -28q-274 -337 -274 -638z" />
    <glyph glyph-name="w" unicode="w" horiz-adv-x="1479" 
d="M300 283q0 -210 115 -210q84 0 199.5 183.5t193.5 660.5q75 11 151 40l14 -12q-148 -478 -148 -690q0 -79 34 -129.5t95 -50.5q134 0 238.5 203t104.5 399q0 147 -100 147q-25 0 -52 -13l-11 2l-16 18v11q60 56 105 107q29 10 57 10q145 0 145 -201q0 -162 -93.5 -355
t-226 -315.5t-242.5 -122.5q-80 0 -125 56.5t-45 144.5t20 187l-67 -121q-68 -123 -153 -195t-163 -72t-128 73.5t-50 200.5t62.5 265.5t242.5 336.5q-22 -8 -145 -8l-43 2q-66 0 -125 -11q-17 -25 -67 -119l-10 -6h-27l-6 8l81 230q43 15 85 15l246 -17q60 0 109 17l18 -28
q-273 -335 -273 -641z" />
    <glyph glyph-name="x" unicode="x" 
d="M143 102q63 0 128 73.5t174 253.5q-37 242 -63 308t-47 82t-51 16t-55.5 -15.5t-54.5 -45.5t-30 -30l-10 -2l-24 14l-2 11l115 163q51 36 126 36t126 -66t74 -303l107 162q16 27 93 118t161 91q32 0 62 -17q-23 -118 -29 -167l-7 -8l-16 -4l-10 5q-23 39 -68 39
q-44 0 -96.5 -45.5t-182.5 -233.5q46 -291 79.5 -364.5t83.5 -73.5q29 0 59.5 17.5t89.5 69.5l12 -1l14 -21l-1 -12q-122 -120 -178 -151.5t-98 -31.5t-85 55.5t-80 335.5q-181 -304 -250 -348.5t-119 -44.5t-82 27q24 128 25 170l6 8l26 4l10 -6l20 -51q25 -17 48 -17z" />
    <glyph glyph-name="y" unicode="y" 
d="M381 838q0 -68 -20.5 -293t-20.5 -323t39.5 -98t105.5 65t120 145.5t96.5 177.5t66.5 185t58 229q68 10 151 38l22 -20q-50 -100 -151 -446q-100 -346 -146 -482q-96 -285 -248.5 -437t-296.5 -152q-71 0 -122.5 44.5t-51.5 116.5q0 15 5 34l99 67l21 -7q-2 -16 -2 -28
q0 -72 42 -108.5t85 -36.5q43 -1 83 19q38 20 76 65q108 129 245 635l34 125q-68 -104 -125 -167t-112 -120q-97 -101 -147 -101t-74 51.5t-24 109t19 227.5t19 292t-8.5 147.5t-36 25.5t-139.5 -87l-13 4l-11 24l3 15q223 188 294 188q65 0 65 -124z" />
    <glyph glyph-name="z" unicode="z" horiz-adv-x="909" 
d="M558 786q-76 0 -186 16t-134 16t-45 -12q-38 -60 -55 -109l-9 -8h-29l-6 8l63 238q37 20 106 20t180 -29t160.5 -37.5t93.5 -8.5t68.5 14.5t65.5 59.5l18 -16l-14 -64l-678 -759q97 45 159 45t164 -24t152 -25q49 0 88 20l50 136l11 8h31l5 -7l-58 -280q-53 -21 -105 -21
t-77.5 4t-158.5 38t-230 34t-159 -59l-11 2l-15 41l2 11l704 791q-75 -43 -151 -43z" />
    <glyph glyph-name="braceleft" unicode="{" horiz-adv-x="682" 
d="M618 1500q44 0 98 1l-4 -35q-27 -2 -69 -4t-72 -47q-46 -49 -65 -157l-63 -352q-20 -114 -66 -174t-150 -84q136 -38 136 -155q0 -51 -12 -119l-59 -332q-7 -40 -7 -82q1 -42 29 -83t58 -41t52 -1l-5 -34h-87q-68 0 -118 30q-72 42 -72 144q0 56 12 124l56 318
q8 45 8 102q0 110 -122 110l7 39q82 3 127 57t62 155l59 351q34 200 168 249q55 20 99 20z" />
    <glyph glyph-name="bar" unicode="|" 
d="M454 0v1501h115v-1501h-115z" />
    <glyph glyph-name="braceright" unicode="}" horiz-adv-x="682" 
d="M64 -197q-44 0 -101 -2l7 36q25 3 64 7t81 48q42 45 62 153l63 352q20 113 66 173t150 85q-136 38 -136 155q0 51 12 119l59 332q7 39 7 81t-28 84q-28 41 -60 41q-30 0 -51 1l5 34h87q67 0 118 -30q72 -42 72 -144q0 -56 -12 -124l-56 -318q-8 -45 -8 -102
q0 -110 121 -110l-7 -39q-82 -3 -126.5 -57t-61.5 -155l-59 -351q-34 -200 -168 -248q-56 -21 -100 -21z" />
    <glyph glyph-name="asciitilde" unicode="~" 
d="M728 516q-69 0 -211 63t-189 63t-89 -26t-111 -137l-57 66q78 126 133.5 164.5t120.5 38.5t207 -63t192 -63q108 0 191 149l56 -62q-102 -193 -243 -193z" />
    <glyph glyph-name="exclamdown" unicode="&#xa1;" horiz-adv-x="682" 
d="M382 575l13 -10q-20 -107 -62.5 -426.5t-64.5 -566.5q-111 -25 -173 -50l-22 18q143 544 248 1001zM413 969q97 1 97 -111q0 -50 -33.5 -91t-81.5 -41q-96 0 -96 97q0 56 32 101t82 45z" />
    <glyph glyph-name="cent" unicode="&#xa2;" 
d="M307 309q0 -198 131 -233l152 792q-90 -11 -141.5 -72t-96.5 -212t-45 -275zM157 269q0 90 22.5 198t61.5 184.5t76 117.5t123.5 96t166.5 87l29 151l9 8h48l7 -8l-26 -134q25 4 47 4q98 0 169 -49l3 -13q-29 -119 -44 -241l-8 -8h-31l-8 8v67q1 20 1 44t-12.5 41.5
t-51.5 31t-84 16.5l-154 -798q109 3 304 147l10 -3l11 -28l-3 -12q-203 -170 -340 -202l-34 -171l-9 -8h-47l-8 9l32 162q-140 0 -200 80t-60 223z" />
    <glyph glyph-name="sterling" unicode="&#xa3;" 
d="M400 711q130 2 318 6l8 -8l-14 -66l-10 -8q-63 5 -149 5t-161 -2q-15 -118 -43.5 -237.5t-138.5 -273.5h105q141 0 263 -7t178 -7t98 13q13 23 36 81.5t27 74.5l11 7l33 -3l6 -9q-26 -107 -56 -270q-64 -33 -130 -33t-299 44t-307 45q-73 -71 -124 -97h-33l10 105
q50 27 111 46q38 67 55.5 118.5t31 157t13.5 157.5t-1 88q-106 -2 -164 -5l-8 7l13 67l9 8q40 -3 72 -3t84 2q4 269 51 364.5t180 186.5t197.5 112.5t154.5 21.5t150 -51l3 -9q-31 -145 -42 -238l-8 -8h-33l-8 8v122q-58 81 -185 81q-68 0 -142 -52t-115.5 -171t-46.5 -370z
" />
    <glyph glyph-name="currency" unicode="&#xa4;" 
d="M252 476q0 -106 76 -182.5t183 -76.5t183.5 76.5t76.5 183.5t-75.5 183.5t-183.5 76.5t-184 -77.5t-76 -183.5zM513 133q-123 0 -225 83l-182 -196l-76 76l199 184q-61 90 -61 196t61 198l-199 184l76 77l182 -197q100 83 224 83q64 0 114.5 -19t109.5 -64l181 196
l76 -76l-199 -184q62 -92 62 -197t-62 -197l199 -184l-76 -76l-181 196q-100 -83 -223 -83z" />
    <glyph glyph-name="yen" unicode="&#xa5;" 
d="M540 102q0 -26 18.5 -36t125.5 -15l5 -8l-4 -43l-8 -8l-232 8q-49 0 -211 -8l-6 8l3 43l8 8q98 1 125.5 19.5t76.5 352.5h-265l-8 8l5 49l9 9h270l20 125l-9 26h-267l-7 8l4 49l9 8h239l-170 507q-40 121 -68 127.5t-111 14.5l-5 9l5 40l8 10q62 -6 216 -6t232 6l5 -10
l-4 -39l-8 -10l-55 -1q-75 -1 -75 -53q0 -37 56 -217l119 -383l214 353q93 153 112.5 191t19.5 64t-20 33t-110 13l-6 9l5 40l8 10q107 -4 206 -4t178 4l6 -10l-5 -40l-8 -9q-49 -3 -83 -14t-327 -481l-96 -154h224l8 -8l-6 -49l-9 -8h-257l-21 -33l-19 -118h284l7 -8
l-5 -50l-9 -8h-288l-41 -247q-8 -48 -8 -74z" />
    <glyph glyph-name="brokenbar" unicode="&#xa6;" 
d="M454 0v593h115v-593h-115zM454 1501h115v-593h-115v593z" />
    <glyph glyph-name="section" unicode="&#xa7;" 
d="M784 442q0 56 -26 99.5t-78 80t-139 84.5t-177 105q-63 -57 -81 -77.5t-34.5 -61t-16.5 -84.5t22.5 -88.5t70.5 -82t148 -93.5l177 -97q62 42 98 100.5t36 114.5zM392 -354q129 0 205.5 82t76.5 189t-77.5 160t-191.5 115t-206 127t-92 205q0 100 56 175t163 142
q-85 77 -85 175q0 137 133.5 278t297.5 141t273 -80q-27 -74 -62 -255l-8 -8l-34 2l-9 9l9 150q-79 89 -209 89t-202 -70.5t-72 -168.5t70 -150.5t214 -132.5t206 -141t62 -161t-58 -182t-158 -139q59 -45 81 -93t22 -107q0 -154 -145 -299t-324 -145q-92 0 -170 29.5
t-126 76.5q25 86 48 193l19 85l9 6l33 -3l7 -8l-10 -166q38 -56 104.5 -88t149.5 -32z" />
    <glyph glyph-name="dieresis" unicode="&#xa8;" horiz-adv-x="682" 
d="M669 1163q-80 0 -80 89q0 50 32 90.5t80 40.5q78 0 78 -80q0 -56 -31.5 -98t-78.5 -42zM290 1163q-80 0 -80 89q0 50 32 90.5t80 40.5q78 0 78 -80q0 -56 -31.5 -98t-78.5 -42z" />
    <glyph glyph-name="copyright" unicode="&#xa9;" horiz-adv-x="1530" 
d="M482 392q-116 114 -116 303t114.5 309t309.5 120q150 0 289 -53v-219h-53q-10 129 -69 174t-151 45q-135 0 -218 -98t-83 -248q0 -104 60.5 -243.5t244.5 -139.5q72 0 133 31.5t115 127.5l41 -18q-46 -89 -115.5 -147t-227.5 -58t-274 114zM113 703q0 -168 84 -322.5
t238 -244.5t328 -90t326 87.5t240 242t88 330.5t-88 330t-240 242t-325 88t-329 -91t-239 -247.5t-83 -324.5zM22 702q0 190 95 365.5t272 278t375 102.5t371 -99.5t272.5 -273t99.5 -370.5t-99.5 -370.5t-272.5 -273t-371 -99.5t-373.5 102t-272 275t-96.5 363z" />
    <glyph glyph-name="ordfeminine" unicode="&#xaa;" horiz-adv-x="682" 
d="M154 709h513l-12 -55h-514zM462 1337q-46 0 -72.5 -8t-74.5 -154.5t-48 -214.5t15 -69q30 0 115.5 86.5t144.5 304.5l9 33q-43 22 -89 22zM492 799q-34 1 -34 45t18 117l21 85l-3 5q-109 -148 -179.5 -201t-101.5 -53q-50 1 -50 103t40.5 222.5t77 164t102 80.5t113.5 37
t114 -23l40 23l15 -14q-6 -25 -26 -103l-40 -165q-43 -190 -43 -214t16 -24t82 54l7 -1l5 -23l-3 -5q-131 -110 -171 -110z" />
    <glyph glyph-name="guillemotleft" unicode="&#xab;" 
d="M470 464v28l145 126q57 49 122 110l117 110h12l28 -21l1 -13l-269 -331l189 -343l-2 -11l-25 -23l-11 1l-147 184zM115 464v28l146 126q56 49 116 105l123 115h12l28 -21l1 -13l-269 -331l189 -343l-2 -11l-26 -23l-11 1l-147 185q-10 12 -160 182z" />
    <glyph glyph-name="logicalnot" unicode="&#xac;" 
d="M994 285h-106v432h-858v102h964v-534z" />
    <glyph glyph-name="registered" unicode="&#xae;" horiz-adv-x="1530" 
d="M634 741h56q134 0 192.5 45t58.5 135q0 177 -192 177h-59q-45 0 -50.5 -19t-5.5 -56v-282zM423 327v31q59 1 72.5 4.5t20 18t6.5 64.5v573q0 51 -4 61t-14 18t-54 8h-27v31h335q214 0 256.5 -72t42.5 -139t-56.5 -127t-171.5 -77q48 -11 84.5 -48t86.5 -151t74.5 -138.5
t78.5 -25.5v-31h-80q-53 0 -82 12t-53 52.5t-63 138.5t-59 123.5t-42.5 36t-83.5 10.5h-56v-255q0 -51 6 -64.5t20 -17.5t73 -5v-31h-310zM113 703q0 -168 84 -322.5t238 -244.5t328 -90t326 87.5t240 242t88 330.5t-88 330t-240 242t-325 88t-329 -91t-239 -247.5
t-83 -324.5zM22 702q0 190 95 365.5t272 278t375 102.5t371 -99.5t272.5 -273t99.5 -370.5t-99.5 -370.5t-272.5 -273t-371 -99.5t-373.5 102t-272 275t-96.5 363z" />
    <glyph glyph-name="macron" unicode="&#xaf;" horiz-adv-x="682" 
d="M757 1287l-23 -94h-544l25 94h542z" />
    <glyph glyph-name="macron" unicode="&#x2c9;" horiz-adv-x="682" 
d="M757 1287l-23 -94h-544l25 94h542z" />
    <glyph glyph-name="degree" unicode="&#xb0;" horiz-adv-x="819" 
d="M532 1328q-92 0 -159 -66t-67 -160t66.5 -160.5t160.5 -66.5t160 66.5t66 160.5t-67.5 160t-159.5 66zM532 1409q80 0 152 -40t114 -112t42 -156q0 -126 -90.5 -216.5t-217.5 -90.5t-217 91t-90 216q0 83 42 155.5t113.5 112.5t151.5 40z" />
    <glyph glyph-name="plusminus" unicode="&#xb1;" 
d="M994 0h-964v102h964v-102zM994 611h-429v-374h-106v374h-429v102h429v374h106v-374h429v-102z" />
    <glyph glyph-name="uni00B2" unicode="&#xb2;" horiz-adv-x="655" 
d="M502 1175q0 55 -35 89t-95 34q-104 0 -171 -121l-12 -4l-24 9l-4 14l74 140q77 54 169 54t155 -51t63 -153t-72.5 -191t-168.5 -185t-137 -138l-28 -29h235q90 0 152 11l13 -14q-15 -56 -21 -85l-10 -9q-139 7 -237 7l-160 -4q-72 -1 -99 -3l-9 10l2 24
q250 251 335 373.5t85 221.5z" />
    <glyph glyph-name="uni00B3" unicode="&#xb3;" horiz-adv-x="655" 
d="M145 700q0 -50 38.5 -82t102.5 -32t111 34.5t70 93t23 122.5t-43 101.5t-97 37.5t-120 -15l-12 11l25 66q56 -3 64 -3q73 0 127 47.5t54 105.5q0 116 -112 116q-46 0 -79 -18t-77 -77l-13 -1l-20 12l-3 14l74 118q66 39 152 39t138.5 -46t52.5 -111t-34 -114.5
t-130 -96.5q174 -39 174 -191q0 -128 -104 -214.5t-228 -86.5t-209 58l35 172l10 8l27 -4l7 -11q-4 -34 -4 -53z" />
    <glyph glyph-name="acute" unicode="&#xb4;" horiz-adv-x="682" 
d="M742 1428l-346 -329l-13 -1l-22 19l-2 9q35 45 121 166l107 159l141 3z" />
    <glyph glyph-name="mu" unicode="&#xb5;" horiz-adv-x="1250" 
d="M843 -31q-66 0 -66 75q0 37 32 162l-18 7q-72 -91 -165.5 -164t-197.5 -73t-144 96l-15 1q-48 -238 -48 -371t61 -237l-17 -23q-64 -25 -143 -28q-29 78 -29 140t17 153.5t78 364.5q133 593 133 791q0 29 -4 65q72 10 162 29q-1 -86 -51 -327q-50 -242 -50 -343t38 -151
t95 -50t113 26t107.5 79t76 108t66.5 254t44 358l22 23q58 8 137 33l16 -18q-43 -117 -95 -414t-52 -353t10 -64.5t30 -8.5q45 0 145 78l16 -5l11 -15l-3 -17q-209 -181 -312 -181z" />
    <glyph glyph-name="mu" unicode="&#x3bc;" horiz-adv-x="1250" 
d="M843 -31q-66 0 -66 75q0 37 32 162l-18 7q-72 -91 -165.5 -164t-197.5 -73t-144 96l-15 1q-48 -238 -48 -371t61 -237l-17 -23q-64 -25 -143 -28q-29 78 -29 140t17 153.5t78 364.5q133 593 133 791q0 29 -4 65q72 10 162 29q-1 -86 -51 -327q-50 -242 -50 -343t38 -151
t95 -50t113 26t107.5 79t76 108t66.5 254t44 358l22 23q58 8 137 33l16 -18q-43 -117 -95 -414t-52 -353t10 -64.5t30 -8.5q45 0 145 78l16 -5l11 -15l-3 -17q-209 -181 -312 -181z" />
    <glyph glyph-name="paragraph" unicode="&#xb6;" 
d="M443 -387h139l300 1733h-138zM482 1348q-108 0 -168.5 -75.5t-60.5 -257.5q0 -361 217 -422l128 745q-75 10 -116 10zM283 -371q28 26 45 137l129 750q-193 29 -312.5 184.5t-119.5 362.5q0 113 45 197t138 121.5t258 37.5l310 -5q254 0 324 2t112 3l-11 -60
q-89 0 -126.5 -9.5t-52.5 -48.5t-23 -88l-252 -1460q-9 -53 -9 -79t15 -43.5t40 -22.5t61 -5t79 -1l-11 -59q-237 5 -401 5t-396 -5l10 59q22 1 71 1t77 26z" />
    <glyph glyph-name="periodcentered" unicode="&#xb7;" horiz-adv-x="512" 
d="M149 600q0 50 34 91t82 41q96 0 96 -97q0 -56 -32.5 -101t-81.5 -45t-73.5 30.5t-24.5 80.5z" />
    <glyph glyph-name="periodcentered" unicode="&#x2219;" horiz-adv-x="512" 
d="M149 600q0 50 34 91t82 41q96 0 96 -97q0 -56 -32.5 -101t-81.5 -45t-73.5 30.5t-24.5 80.5z" />
    <glyph glyph-name="cedilla" unicode="&#xb8;" horiz-adv-x="682" 
d="M297 -100q49 0 101 -34t52 -104t-72 -120.5t-162 -50.5t-187 41l-2 10l18 30l10 2q84 -21 132 -21t85.5 29t37.5 75q0 85 -109 85q-26 0 -52 -7l-15 11l100 154h53l-64 -106q25 6 74 6z" />
    <glyph glyph-name="uni00B9" unicode="&#xb9;" horiz-adv-x="655" 
d="M400 651q0 -32 17 -40t67 -11t68 -5l8 -9l-2 -31l-10 -9q-98 5 -231 5t-187 -5l-10 10l4 32l9 8q94 9 113.5 14t29.5 25q10 23 34 158l49 270l38 233q-54 -17 -225 -95l-15 11l15 81q35 5 137.5 34t197.5 73l25 -20q-25 -105 -78.5 -401t-53.5 -328z" />
    <glyph glyph-name="ordmasculine" unicode="&#xba;" horiz-adv-x="682" 
d="M129 709h513l-12 -55h-514zM376 841q46 0 82 35.5t62.5 134t26.5 193.5q0 155 -100 155q-53 0 -87 -29.5t-63 -123t-29 -195.5t31 -136t77 -34zM483 1404q175 0 175 -184t-101.5 -303t-232.5 -119q-168 0 -168 198t106.5 303t220.5 105z" />
    <glyph glyph-name="guillemotright" unicode="&#xbb;" 
d="M541 470v-28l-159 -138q-56 -48 -226 -208h-12l-28 21l-1 13l269 331l-189 343l2 11l25 23l11 -1l146 -183q26 -31 162 -184zM895 470v-28l-158 -137q-55 -48 -227 -209h-12l-28 21v13l269 331l-190 343l2 11l25 23l12 -1l106 -133q36 -46 78 -94z" />
    <glyph glyph-name="onequarter" unicode="&#xbc;" horiz-adv-x="1652" 
d="M421 651q0 -32 17 -40q16 -8 66 -11t69 -5l8 -9l-2 -31l-10 -9q-98 5 -231 5t-187 -5l-10 10l4 32l9 8q94 9 113 14t30 25q10 23 34 158l49 270l38 233q-54 -17 -225 -95l-15 11l15 81q35 5 137 34t198 73l25 -20q-25 -105 -79 -401t-53 -328zM345 -29l907 1420l11 7h81
l5 -8l-907 -1420l-11 -8h-80zM1089 311h105l75 411q-204 -265 -304 -409q42 -2 124 -2zM910 229q-31 0 -40 -1l-10 10l3 34q84 124 227 308t199 248q80 18 88 22l17 -11l-99 -528q120 0 151 5l11 -14l-21 -69l-10 -7q-31 2 -75 2t-70 1l-13 -75q-8 -51 -8 -71q0 -21 12 -25
t60 -8t67 -5l8 -10l-3 -30l-10 -9q-77 5 -166 5t-239 -5l-9 10l3 33l10 8q131 5 142 15t27 88l17 80h-226q-12 -1 -43 -1z" />
    <glyph glyph-name="onehalf" unicode="&#xbd;" horiz-adv-x="1652" 
d="M421 651q0 -32 17 -40q16 -8 66 -11t69 -5l8 -9l-2 -31l-10 -9q-98 5 -231 5t-187 -5l-10 10l4 32l9 8q94 9 113 14t30 25q10 23 34 158l49 270l38 233q-54 -17 -225 -95l-15 11l15 81q35 5 137 34t198 73l25 -20q-25 -105 -79 -401t-53 -328zM345 -29l907 1420l11 7h81
l5 -8l-907 -1420l-11 -8h-80zM1472 625q0 55 -35 89t-95 34q-104 0 -171 -121l-12 -4l-24 9l-4 14l74 140q77 54 169 54t156 -51q62 -51 62 -153t-96 -220q-49 -60 -145 -156t-137 -138l-28 -29h235q90 0 152 11l13 -14q-15 -56 -21 -85l-10 -9q-139 7 -237 7l-160 -4
q-72 -1 -99 -3l-9 10l2 24q250 252 335 374t85 221z" />
    <glyph glyph-name="threequarters" unicode="&#xbe;" horiz-adv-x="1652" 
d="M166 700q0 -50 38 -82t102 -32t112 34q47 34 70 94q23 58 23 122t-43 101q-44 38 -98 38t-119 -15l-12 11l25 66q56 -3 64 -3q73 0 127 48t54 105q0 116 -112 116q-46 0 -79 -18t-77 -77l-13 -1l-20 12l-3 14l74 118q67 39 153 39t138 -46t52 -111t-34 -115t-130 -96
q174 -39 174 -191q0 -129 -104 -215t-228 -86t-209 58l35 172l10 8l27 -4l7 -11q-4 -34 -4 -53zM345 -29l907 1420l11 7h81l5 -8l-907 -1420l-11 -8h-80zM1089 311h105l75 411q-204 -265 -304 -409q42 -2 124 -2zM910 229q-31 0 -40 -1l-10 10l3 34q84 124 227 308t199 248
q80 18 88 22l17 -11l-99 -528q120 0 151 5l11 -14l-21 -69l-10 -7q-31 2 -75 2t-70 1l-13 -75q-8 -51 -8 -71q0 -21 12 -25t60 -8t67 -5l8 -10l-3 -30l-10 -9q-77 5 -166 5t-239 -5l-9 10l3 33l10 8q131 5 142 15t27 88l17 80h-226q-12 -1 -43 -1z" />
    <glyph glyph-name="questiondown" unicode="&#xbf;" 
d="M615 459q0 51 -55 86l2 10l40 12q87 -42 87 -130q0 -54 -29.5 -113.5t-125.5 -161.5t-155 -176t-59 -156t52 -134t116 -52t110 15t77.5 53.5t64.5 92.5l10 4l29 -8l4 -10q-49 -110 -78 -190q-109 -77 -231 -77q-69 0 -195 44.5t-126 225.5q0 150 93.5 241t199.5 191
t137.5 141t31.5 92zM688 968q98 0 98 -113q0 -52 -35.5 -90.5t-82.5 -38.5q-94 0 -94 96q0 58 32 102t82 44z" />
    <glyph glyph-name="Agrave" unicode="&#xc0;" horiz-adv-x="1479" 
d="M566 637h440l-76 581zM1156 0q-84 0 -256 -8l-7 8l7 43l9 8q123 5 141 15t18 30t-14 167l-39 296h-499l-141 -234q-20 -33 -70 -124t-50 -109q-1 -18 19 -26t147 -14l6 -8l-7 -44l-9 -8q-116 8 -209 8t-216 -8l-7 8l7 44l9 7l58 9q36 6 50 22q33 40 140 211l714 1127h94
l168 -1208q14 -101 25 -122t33 -26t114 -13l6 -8l-8 -43l-9 -8q-140 8 -224 8zM1136 1574l-34 -23l-8 2l-396 288l10 28l174 -18l253 -266z" />
    <glyph glyph-name="Aacute" unicode="&#xc1;" horiz-adv-x="1479" 
d="M566 637h440l-76 581zM1156 0q-84 0 -256 -8l-7 8l7 43l9 8q123 5 141 15t18 30t-14 167l-39 296h-499l-141 -234q-20 -33 -70 -124t-50 -109q-1 -18 19 -26t147 -14l6 -8l-7 -44l-9 -8q-116 8 -209 8t-216 -8l-7 8l7 44l9 7l58 9q36 6 50 22q33 40 140 211l714 1127h94
l168 -1208q14 -101 25 -122t33 -26t114 -13l6 -8l-8 -43l-9 -8q-140 8 -224 8zM1342 1845q-125 -85 -407 -299l-13 2l-23 19l1 13l255 271l178 18z" />
    <glyph glyph-name="Acircumflex" unicode="&#xc2;" horiz-adv-x="1479" 
d="M566 637h440l-76 581zM1155.5 0q-84.5 0 -255.5 -8l-7 8l7 43l9 8q124 5 141.5 15t17.5 30.5t-14 166.5l-39 296h-499l-141 -234q-20 -33 -70 -124t-50 -109t19.5 -26.5t146.5 -13.5l6 -8l-7 -44l-9 -8q-116 8 -209 8t-216 -8l-7 8l7 44l9 7l58 9q36 6 50 22
q33 40 140 211l714 1127h94l168 -1208q14 -101 25 -122t33 -26t114 -13l6 -8l-8 -43l-9 -8q-140 8 -224.5 8zM1304 1533h-54l-187 236l-292 -236h-57l-5 10l319 326h106l178 -326z" />
    <glyph glyph-name="Atilde" unicode="&#xc3;" horiz-adv-x="1479" 
d="M566 637h440l-76 581zM1156 0q-84 0 -256 -8l-7 8l7 43l9 8q123 5 141 15t18 30t-14 167l-39 296h-499l-141 -234q-20 -33 -70 -124t-50 -109q-1 -18 19 -26t147 -14l6 -8l-7 -44l-9 -8q-116 8 -209 8t-216 -8l-7 8l7 44l9 7l58 9q36 6 50 22q33 40 140 211l714 1127h94
l168 -1208q14 -101 25 -122t33 -26t114 -13l6 -8l-8 -43l-9 -8q-140 8 -224 8zM1228 1602q-56 0 -139 28l-105 41q-69 27 -115 27q-72 0 -111 -105h-40l-8 6q12 83 70 149t134 66q47 0 191 -61q92 -35 135 -35q90 0 122 92h38l6 -5q-14 -77 -68 -140t-110 -63z" />
    <glyph glyph-name="Adieresis" unicode="&#xc4;" horiz-adv-x="1479" 
d="M566 637h440l-76 581zM1156 0q-84 0 -256 -8l-7 8l7 43l9 8q123 5 141 15t18 30t-14 167l-39 296h-499l-141 -234q-20 -33 -70 -124t-50 -109q-1 -18 19 -26t147 -14l6 -8l-7 -44l-9 -8q-116 8 -209 8t-216 -8l-7 8l7 44l9 7l58 9q36 6 50 22q33 40 140 211l714 1127h94
l168 -1208q14 -101 25 -122t33 -26t114 -13l6 -8l-8 -43l-9 -8q-140 8 -224 8zM858 1607q-95 0 -95 100q0 49 35 85t84 37q95 0 95 -91q1 -53 -33 -92t-86 -39zM1246 1607q-94 0 -94 100q0 48 35 85t83 37q96 0 96 -91q0 -53 -34 -92t-86 -39z" />
    <glyph glyph-name="Aring" unicode="&#xc5;" horiz-adv-x="1479" 
d="M566 637h440l-76 581zM1156 0q-84 0 -256 -8l-7 8l7 43l9 8q123 5 141 15t18 30t-14 167l-39 296h-499l-141 -234q-20 -33 -70 -124t-50 -109q-1 -18 19 -26t147 -14l6 -8l-7 -44l-9 -8q-116 8 -209 8t-216 -8l-7 8l7 44l9 7l58 9q36 6 50 22q33 40 140 211l714 1127h94
l168 -1208q14 -101 25 -122t33 -26t114 -13l6 -8l-8 -43l-9 -8q-140 8 -224 8zM1190 1742q0 134 -113 134q-56 0 -99 -61t-43 -119q1 -58 29 -94t82 -37t100 57q44 58 44 120zM1040 1521q-81 0 -130 49q-49 50 -49 130t71 150t154 69q82 0 130 -47q48 -46 48 -130t-72 -152
t-152 -69z" />
    <glyph glyph-name="AE" unicode="&#xc6;" horiz-adv-x="1927" 
d="M812 644l195 2q59 319 111 685l-48 1q-80 -94 -256 -356l-217 -326q109 -6 215 -6zM1459 1327h-58q-39 0 -113 -9q-45 -199 -102 -550q103 -3 196 -3t292 13l7 -10l-38 -95q-234 11 -307 11t-166 -2l-61 -364q-27 -162 -34 -224q142 -12 252 -12t200 6.5t109 15t31 28.5
t29 86t28 100l9 8h42l7 -8q-14 -43 -30 -156t-18 -161l-13 -9l-664 7q-38 0 -272 -7l-7 8l4 43l9 8q73 8 84.5 16t25 42t40.5 181l52 281h-448q-29 -46 -77 -127l-98 -165q-74 -122 -80 -144t-6 -31q0 -29 30.5 -39.5t138.5 -13.5l7 -8l-4 -43l-8 -8q-130 7 -204 7t-238 -7
l-8 8l3 35l7 7q71 15 83.5 23t38.5 45l599 887q161 240 175 270q14 29 14 41t-12.5 21t-72.5 16l-123 12l-7 8l3 38l9 8q201 -6 577 -6t537 8l8 -8q-2 -23 -17 -124l-20 -174l-8 -8h-35l-8 8l-9 137q-2 27 -7.5 42t-28 22t-104.5 13t-141 6z" />
    <glyph glyph-name="Ccedilla" unicode="&#xc7;" horiz-adv-x="1366" 
d="M884 1329q-184 0 -305.5 -75t-199.5 -251t-78 -413t128 -380.5t358 -143.5t443 142l10 -29l-30 -73q-209 -149 -485 -149l-54 -97q23 5 69 5t96.5 -33.5t50.5 -107.5t-65.5 -122t-164.5 -48t-190 39l-3 12l16 24l11 4q49 -21 109 -21t102 27t42 69t-27.5 63.5t-65.5 21.5
t-72 -10l-15 16l104 161q-263 15 -405.5 175.5t-142.5 436.5q0 399 258 631t560 232q226 0 413 -78l4 -11q-30 -87 -50 -281l-8 -8h-42l-8 8q0 132 -3 156q-125 108 -360 108z" />
    <glyph glyph-name="Egrave" unicode="&#xc8;" horiz-adv-x="1251" 
d="M405 1292q0 32 -12 45q-12 12 -149 17l-6 8l5 43l9 8q98 -8 416 -8t488 8l8 -8q-3 -23 -18 -124l-19 -174l-8 -8h-35l-8 8q-10 153 -14 169t-18 26t-98 18t-186 7q-103 0 -178 -9q-40 -173 -103 -550q100 -3 207 -3t304 13l7 -10l-38 -95q-233 11 -319 11t-176 -2
l-61 -365q-27 -158 -34 -223q139 -12 267 -12t216 7t108 15q18 8 30 30q12 20 29 86t28 98l9 8h42l7 -8q-13 -44 -29 -156t-19 -161l-13 -9l-696 8q-174 0 -269 -8l-7 8l3 43l10 8q69 8 79 13q25 13 39 73q15 59 79 408l80 455q43 260 43 292zM918 1574l-34 -23l-8 2
l-396 288l10 28l174 -18l253 -266z" />
    <glyph glyph-name="Eacute" unicode="&#xc9;" horiz-adv-x="1251" 
d="M405 1292q0 32 -12 45q-12 12 -149 17l-6 8l5 43l9 8q98 -8 416 -8t488 8l8 -8q-3 -23 -18 -124l-19 -174l-8 -8h-35l-8 8q-10 153 -14 169t-18 26t-98 18t-186 7q-103 0 -178 -9q-40 -173 -103 -550q100 -3 207 -3t304 13l7 -10l-38 -95q-233 11 -319 11t-176 -2
l-61 -365q-27 -158 -34 -223q139 -12 267 -12t216 7t108 15q18 8 30 30q12 20 29 86t28 98l9 8h42l7 -8q-13 -44 -29 -156t-19 -161l-13 -9l-696 8q-174 0 -269 -8l-7 8l3 43l10 8q69 8 79 13q25 13 39 73q15 59 79 408l80 455q43 260 43 292zM1082 1845q-125 -85 -407 -299
l-13 2l-23 19l1 13l255 271l178 18z" />
    <glyph glyph-name="Ecircumflex" unicode="&#xca;" horiz-adv-x="1251" 
d="M405 1292.5q0 32.5 -11.5 44t-149.5 17.5l-6 8l5 43l9 8q97 -8 415.5 -8t488.5 8l8 -8q-3 -23 -18 -124l-19 -174l-8 -8h-35l-8 8q-10 152 -13.5 168.5t-18 26.5t-98 17.5t-186.5 7.5t-178 -9q-40 -173 -103 -550q100 -3 207 -3t304 13l7 -10l-38 -95q-233 11 -319 11
t-176 -2l-61 -365q-27 -158 -34 -223q138 -12 266.5 -12t217 7t107.5 15.5t30.5 29t28.5 86t28 98.5l9 8h42l7 -8q-14 -44 -29.5 -156.5t-18.5 -160.5l-13 -9l-696 8q-174 0 -269 -8l-7 8l3 43l10 8q69 8 79 13q25 13 39.5 72.5t78.5 408.5l80 455q43 260 43 292.5z
M1086 1533h-54l-187 236l-292 -236h-57l-5 10l319 326h106l178 -326z" />
    <glyph glyph-name="Edieresis" unicode="&#xcb;" horiz-adv-x="1251" 
d="M405 1292q0 32 -12 45q-12 12 -149 17l-6 8l5 43l9 8q98 -8 416 -8t488 8l8 -8q-3 -23 -18 -124l-19 -174l-8 -8h-35l-8 8q-10 153 -14 169t-18 26t-98 18t-186 7q-103 0 -178 -9q-40 -173 -103 -550q100 -3 207 -3t304 13l7 -10l-38 -95q-233 11 -319 11t-176 -2
l-61 -365q-27 -158 -34 -223q139 -12 267 -12t216 7t108 15q18 8 30 30q12 20 29 86t28 98l9 8h42l7 -8q-13 -44 -29 -156t-19 -161l-13 -9l-696 8q-174 0 -269 -8l-7 8l3 43l10 8q69 8 79 13q25 13 39 73q15 59 79 408l80 455q43 260 43 292zM639 1607q-95 0 -95 100
q0 49 35 85t84 37q95 0 95 -91q0 -53 -34 -92t-85 -39zM1027 1607q-94 0 -94 100q0 48 35 85t83 37q96 0 96 -91q1 -53 -33 -92t-87 -39z" />
    <glyph glyph-name="Igrave" unicode="&#xcc;" horiz-adv-x="682" 
d="M389 1300q-1 32 -23 40t-138 14l-7 8l5 43l9 8l280 -8q95 0 205 8l7 -8l-3 -43l-9 -8q-105 -6 -117 -11t-18 -13q-21 -23 -96 -440l-81 -470q-47 -286 -47 -314t13 -38q13 -11 150 -17l6 -8l-5 -43l-9 -8l-263 8q-103 0 -222 -8l-7 8l3 43l10 8q108 6 124 18q15 12 28 59
q13 46 54 269l65 355l59 346q27 170 27 202zM698 1574l-34 -23l-8 2l-396 288l10 28l174 -18l253 -266z" />
    <glyph glyph-name="Iacute" unicode="&#xcd;" horiz-adv-x="682" 
d="M389 1300q-1 32 -23 40t-138 14l-7 8l5 43l9 8l280 -8q95 0 205 8l7 -8l-3 -43l-9 -8q-105 -6 -117 -11t-18 -13q-21 -23 -96 -440l-81 -470q-47 -286 -47 -314t13 -38q13 -11 150 -17l6 -8l-5 -43l-9 -8l-263 8q-103 0 -222 -8l-7 8l3 43l10 8q108 6 124 18q15 12 28 59
q13 46 54 269l65 355l59 346q27 170 27 202zM842 1845q-125 -85 -407 -299l-13 2l-23 19l1 13l255 271l178 18z" />
    <glyph glyph-name="Icircumflex" unicode="&#xce;" horiz-adv-x="682" 
d="M389 1300q-1 32 -23 40t-138 14l-7 8l5 43l9 8l280 -8q95 0 205 8l7 -8l-3 -43l-9 -8q-105 -6 -117 -11t-18 -13q-21 -23 -96 -440l-81 -470q-47 -286 -47 -314t13 -38q13 -11 150 -17l6 -8l-5 -43l-9 -8l-263 8q-103 0 -222 -8l-7 8l3 43l10 8q108 6 124 18q15 12 28 59
q13 46 54 269l65 355l59 346q27 170 27 202zM792 1533h-54l-187 236l-292 -236h-57l-5 10l319 326h106l178 -326z" />
    <glyph glyph-name="Idieresis" unicode="&#xcf;" horiz-adv-x="682" 
d="M389 1300q-1 32 -23 40t-138 14l-7 8l5 43l9 8l280 -8q95 0 205 8l7 -8l-3 -43l-9 -8q-105 -6 -117 -11t-18 -13q-21 -23 -96 -440l-81 -470q-47 -286 -47 -314t13 -38q13 -11 150 -17l6 -8l-5 -43l-9 -8l-263 8q-103 0 -222 -8l-7 8l3 43l10 8q108 6 124 18q15 12 28 59
q13 46 54 269l65 355l59 346q27 170 27 202zM322 1607q-95 0 -95 100q0 49 35 85t84 37q95 0 95 -91q1 -53 -33 -92t-86 -39zM710 1607q-94 0 -94 100q0 48 35 85t83 37q96 0 96 -91q0 -53 -34 -92t-86 -39z" />
    <glyph glyph-name="Eth" unicode="&#xd0;" horiz-adv-x="1593" 
d="M707 80q160 0 268 58q109 58 191 166t128 260t46 272t-27 210t-98 162t-182 96t-234 23q-123 0 -232 -11l-98 -537h343l7 -8l-8 -50l-9 -8h-344q-86 -498 -93 -601q182 -32 342 -32zM390 1270q0 55 -13 67t-148 17l-7 9l5 42l10 8q96 -7 252 -7l381 6q145 0 268 -18
q122 -18 216 -96q170 -140 171 -419q0 -187 -74 -357t-207 -295q-132 -125 -274 -181t-364 -55l-379 9q-89 0 -146 -7l-8 7l5 43l8 8q56 9 66 15t25 29q14 23 77 357l47 261h-183l-8 8l8 50l8 8h187q77 436 77 491z" />
    <glyph glyph-name="Ntilde" unicode="&#xd1;" horiz-adv-x="1593" 
d="M330 1406q89 0 159 7q10 -21 64 -119l73 -131l560 -950l155 923l16 121q4 30 4 48q-1 19 -19 29t-92 16l-49 4l-8 8l4 43l8 8q69 -3 217 -3t208 3l7 -8l-3 -43l-8 -8q-124 -6 -136 -28t-61 -268l-72 -365l-66 -381q-27 -156 -49 -339h-102q-10 21 -53 100l-63 112
l-569 966l-99 -541l-39 -255q-29 -189 -29 -231t24 -56t74 -14t72 -3l7 -7l-4 -43l-9 -9q-108 8 -206 8t-225 -8l-8 8l4 44l9 8q88 4 111 18t47 90q24 78 103 522l96 566q-43 67 -83 85t-138 21l-6 8l3 43l9 8q73 -7 162 -7zM1134 1602q-56 0 -140 28l-105 41
q-69 27 -115 27q-72 0 -111 -105h-40l-8 6q11 83 69 149t135 66q47 0 191 -61q92 -35 135 -35q90 0 122 92h38l6 -5q-15 -77 -69 -140q-52 -63 -108 -63z" />
    <glyph glyph-name="Ograve" unicode="&#xd2;" horiz-adv-x="1593" 
d="M299 588q1 -194 47 -306t152 -174q106 -61 274 -61q169 -1 299 95q129 96 205 305t76 428t-117 352t-343 133q-176 0 -306 -88t-208 -288q-78 -202 -79 -396zM120 548q0 338 188 588q107 142 268 224q161 80 355 80t323 -60q130 -60 204 -184q74 -125 74 -318
q0 -260 -124 -486t-315 -330t-408 -103q-259 0 -412 150q-153 151 -153 439zM1098 1574l-34 -23l-8 2l-396 288l10 28l174 -18l253 -266z" />
    <glyph glyph-name="Oacute" unicode="&#xd3;" horiz-adv-x="1593" 
d="M299 588q1 -194 47 -306t152 -174q106 -61 274 -61q169 -1 299 95q129 96 205 305t76 428t-117 352t-343 133q-176 0 -306 -88t-208 -288q-78 -202 -79 -396zM120 548q0 338 188 588q107 142 268 224q161 80 355 80t323 -60q130 -60 204 -184q74 -125 74 -318
q0 -260 -124 -486t-315 -330t-408 -103q-259 0 -412 150q-153 151 -153 439zM1232 1845q-125 -85 -407 -299l-13 2l-23 19l1 13l255 271l178 18z" />
    <glyph glyph-name="Ocircumflex" unicode="&#xd4;" horiz-adv-x="1593" 
d="M299 588.5q0 -194.5 46.5 -307t152 -173.5t274.5 -61t299 95.5t205.5 304.5t75.5 428t-117 352t-343 133q-176 0 -306 -87.5t-208.5 -288.5t-78.5 -395.5zM120 548q0 338 188 588q107 142 268 223t355 81t323 -59.5t203.5 -184.5t74.5 -318q0 -260 -124 -486t-315 -329.5
t-408 -103.5q-259 0 -412 150.5t-153 438.5zM1222 1533h-54l-187 236l-292 -236h-57l-5 10l319 326h106l178 -326z" />
    <glyph glyph-name="Otilde" unicode="&#xd5;" horiz-adv-x="1593" 
d="M299 588q1 -194 47 -306t152 -174q106 -61 274 -61q169 -1 299 95q129 96 205 305t76 428t-117 352t-343 133q-176 0 -306 -88t-208 -288q-78 -202 -79 -396zM120 548q0 338 188 588q107 142 268 224q161 80 355 80t323 -60q130 -60 204 -184q74 -125 74 -318
q0 -260 -124 -486t-315 -330t-408 -103q-259 0 -412 150q-153 151 -153 439zM1134 1602q-56 0 -140 28l-105 41q-69 27 -115 27q-72 0 -111 -105h-40l-8 6q11 83 69 149t135 66q47 0 191 -61q92 -35 135 -35q90 0 122 92h38l6 -5q-15 -77 -69 -140q-52 -63 -108 -63z" />
    <glyph glyph-name="Odieresis" unicode="&#xd6;" horiz-adv-x="1593" 
d="M299 588q1 -194 47 -306t152 -174q106 -61 274 -61q169 -1 299 95q129 96 205 305t76 428t-117 352t-343 133q-176 0 -306 -88t-208 -288q-78 -202 -79 -396zM120 548q0 338 188 588q107 142 268 224q161 80 355 80t323 -60q130 -60 204 -184q74 -125 74 -318
q0 -260 -124 -486t-315 -330t-408 -103q-259 0 -412 150q-153 151 -153 439zM750 1607q-95 0 -95 100q0 49 35 85t84 37q95 0 95 -91q1 -53 -33 -92t-86 -39zM1138 1607q-94 0 -94 100q0 48 35 85t83 37q96 0 96 -91q0 -53 -34 -92t-86 -39z" />
    <glyph glyph-name="multiply" unicode="&#xd7;" 
d="M887 331l-74 -74l-302 303l-301 -303l-75 74l301 301l-299 299l74 74l300 -301l302 302l74 -73l-301 -301z" />
    <glyph glyph-name="Oslash" unicode="&#xd8;" horiz-adv-x="1593" 
d="M749 45q416 0 507.5 321.5t91.5 489.5t-54 283l-897 -945q119 -149 352 -149zM888 1358q-171 0 -300.5 -84t-209.5 -285t-80 -405t58 -323l893 945q-128 152 -361 152zM120 550q0 262 176 574.5t642 312.5q178 0 262 -37t152 -84l144 151h12l45 -40v-13l-144 -153
q70 -94 95 -185t25 -199q0 -279 -135.5 -506t-325.5 -320.5t-402 -93.5t-377 123l-149 -157h-14l-41 38v12l151 161q-116 154 -116 416z" />
    <glyph glyph-name="Ugrave" unicode="&#xd9;" horiz-adv-x="1593" 
d="M1246 0q-95 0 -161 -8l-7 8l50 247q-92 -109 -236 -196t-314 -87q-110 0 -198 42t-129 115t-41 161t76 507t77 477q0 58 -22 71t-139 18l-8 8l4 42l9 8q112 -5 181 -5t174 5l-45 -219q-20 -99 -50 -268l-52 -290q-44 -244 -44 -329q0 -115 86 -172q85 -57 197 -57t242 68
t252 214l113 693q33 202 33 240t-23 47t-146 15l-8 8l4 42l9 8q120 -7 250 -7t248 7l7 -8l-4 -42l-9 -8q-100 -5 -113 -11t-21 -15q-24 -28 -97 -432l-79 -469q-47 -296 -47 -322t14 -39q14 -12 161 -17l8 -9l-7 -41l-9 -8q-91 8 -186 8zM1076 1574l-34 -23l-8 2l-396 288
l10 28l174 -18l253 -266z" />
    <glyph glyph-name="Uacute" unicode="&#xda;" horiz-adv-x="1593" 
d="M1246 0q-95 0 -161 -8l-7 8l50 247q-92 -109 -236 -196t-314 -87q-110 0 -198 42t-129 115t-41 161t76 507t77 477q0 58 -22 71t-139 18l-8 8l4 42l9 8q112 -5 181 -5t174 5l-45 -219q-20 -99 -50 -268l-52 -290q-44 -244 -44 -329q0 -115 86 -172q85 -57 197 -57t242 68
t252 214l113 693q33 202 33 240t-23 47t-146 15l-8 8l4 42l9 8q120 -7 250 -7t248 7l7 -8l-4 -42l-9 -8q-100 -5 -113 -11t-21 -15q-24 -28 -97 -432l-79 -469q-47 -296 -47 -322t14 -39q14 -12 161 -17l8 -9l-7 -41l-9 -8q-91 8 -186 8zM1252 1845q-125 -85 -407 -299
l-13 2l-23 19l1 13l255 271l178 18z" />
    <glyph glyph-name="Ucircumflex" unicode="&#xdb;" horiz-adv-x="1593" 
d="M1246 0q-95 0 -161 -8l-7 8l50 247q-92 -109 -236 -196t-314 -87q-110 0 -198 42t-129 115t-41 161t76 507t77 477q0 58 -22 71t-139 18l-8 8l4 42l9 8q112 -5 181 -5t174 5l-45 -219q-20 -99 -50 -268l-52 -290q-44 -244 -44 -329q0 -115 86 -172q85 -57 197 -57t242 68
t252 214l113 693q33 202 33 240t-23 47t-146 15l-8 8l4 42l9 8q120 -7 250 -7t248 7l7 -8l-4 -42l-9 -8q-100 -5 -113 -11t-21 -15q-24 -28 -97 -432l-79 -469q-47 -296 -47 -322t14 -39q14 -12 161 -17l8 -9l-7 -41l-9 -8q-91 8 -186 8zM1182 1533h-54l-187 236l-292 -236
h-57l-5 10l319 326h106l178 -326z" />
    <glyph glyph-name="Udieresis" unicode="&#xdc;" horiz-adv-x="1593" 
d="M1246 0q-95 0 -161 -8l-7 8l50 247q-92 -109 -236 -196t-314 -87q-110 0 -198 42t-129 115t-41 161t76 507t77 477q0 58 -22 71t-139 18l-8 8l4 42l9 8q112 -5 181 -5t174 5l-45 -219q-20 -99 -50 -268l-52 -290q-44 -244 -44 -329q0 -115 86 -172q85 -57 197 -57t242 68
t252 214l113 693q33 202 33 240t-23 47t-146 15l-8 8l4 42l9 8q120 -7 250 -7t248 7l7 -8l-4 -42l-9 -8q-100 -5 -113 -11t-21 -15q-24 -28 -97 -432l-79 -469q-47 -296 -47 -322t14 -39q14 -12 161 -17l8 -9l-7 -41l-9 -8q-91 8 -186 8zM765 1607q-95 0 -95 100q0 49 35 85
t84 37q95 0 95 -91q0 -53 -34 -92t-85 -39zM1153 1607q-94 0 -94 100q0 48 35 85t83 37q96 0 96 -91q1 -53 -33 -92t-87 -39z" />
    <glyph glyph-name="Yacute" unicode="&#xdd;" horiz-adv-x="1366" 
d="M244 1283q-33 0 -80 -19l-11 7l-4 32l6 12q85 54 153 112q54 -2 94 -21q186 -88 342 -772q117 273 311 516t357 261l-11 -144q-129 -21 -257 -151q-74 -74 -167 -216q-175 -263 -212 -485q-48 -283 -48 -311t15 -35t81 -12l79 -6l7 -8l-4 -43l-9 -8q-128 7 -262 7
t-258 -7l-7 8l4 43l9 8q116 7 131 10t23 9q21 17 57 191t36 257q-1 83 -85 338t-148 341t-142 86zM1162 1845q-125 -85 -407 -299l-13 2l-23 19l1 13l255 271l178 18z" />
    <glyph glyph-name="Thorn" unicode="&#xde;" horiz-adv-x="1251" 
d="M1195 789q0 -194 -139.5 -335t-330.5 -141q-107 0 -191 42l-8 65q76 -36 159 -36q150 0 239.5 88.5t89.5 253.5q0 314 -297 314q-66 0 -163 -16q-45 -234 -99.5 -559t-54.5 -356t15.5 -43.5t180.5 -14.5l10 -8l-8 -43l-9 -8l-296 8q-65 0 -238 -8l-7 8l3 43l10 8
q102 3 122 10t35 37q15 31 36 145l74 401l70 402q35 218 35 248t-12.5 42t-148.5 18l-7 8l5 43l9 8l280 -8q90 0 205 8l7 -8l-3 -43l-9 -8q-101 -5 -117.5 -11t-25 -27t-45.5 -205q24 -1 36 -1l211 4q377 0 377 -325z" />
    <glyph glyph-name="germandbls" unicode="&#xdf;" 
d="M812 1475q66 0 129.5 -57t63.5 -140t-31.5 -154.5t-109.5 -162.5t-102.5 -133.5t-24.5 -93.5t67 -160q67 -110 89.5 -162.5t22.5 -96.5q0 -108 -123 -230.5t-238 -122.5q-65 0 -153 43q31 112 41 209l9 8h23l8 -9v-106q65 -56 123 -56t98.5 24.5t61 67.5t20.5 80
t-11.5 73t-20 54.5t-76.5 143.5q-68 124 -68 160t24 80t99 147t108.5 171t33.5 144t-46.5 128.5t-113.5 52.5t-121 -31t-85.5 -82t-47.5 -117t-49 -238l-84 -417l-82 -373q-62 -286 -119 -390t-152 -202.5t-213 -98.5q-32 0 -71 15q33 93 49 165l23 6q11 -25 38.5 -42.5
t66.5 -17.5q96 0 153.5 132t141.5 645l75 434l-84 1q-35 0 -71 -1l-7 8l6 32l9 9q120 43 169 76q6 18 26 136t54.5 171.5t128.5 120.5t185.5 112t157.5 45z" />
    <glyph glyph-name="agrave" unicode="&#xe0;" horiz-adv-x="909" 
d="M514 868q-80 0 -137 -27q-41 -31 -93 -175q-52 -142 -77 -268t-25 -190t10 -81q10 -16 28 -16q36 0 141 97t177 225t120 342l13 58q-77 35 -157 35zM685 113q34 0 146 86l9 -3l7 -27l-4 -12q-210 -181 -286 -181q-50 0 -50 66t26 181l25 107l15 59l-6 3
q-149 -212 -279 -318t-181 -106q-70 0 -70 171q1 107 33 243t79 252t75 152t96 84q66 47 124 72t137 25t177 -36l64 38l22 -18q-3 -15 -42 -150l-71 -269q-73 -287 -73 -379q0 -40 27 -40zM690 1123l-4 -11l-21 -17l-13 4q-154 142 -333 330l15 21l145 2q31 -60 211 -329z
" />
    <glyph glyph-name="aacute" unicode="&#xe1;" horiz-adv-x="909" 
d="M514 868q-80 0 -137 -27q-41 -31 -93 -175q-52 -142 -77 -268t-25 -190t10 -81q10 -16 28 -16q36 0 141 97t177 225t120 342l13 58q-77 35 -157 35zM685 113q34 0 146 86l9 -3l7 -27l-4 -12q-210 -181 -286 -181q-50 0 -50 66t26 181l25 107l15 59l-6 3
q-149 -212 -279 -318t-181 -106q-70 0 -70 171q1 107 33 243t79 252t75 152t96 84q66 47 124 72t137 25t177 -36l64 38l22 -18q-3 -15 -42 -150l-71 -269q-73 -287 -73 -379q0 -40 27 -40zM862 1428l-346 -329l-13 -1l-22 19l-2 9q35 45 121 166l107 159l141 3z" />
    <glyph glyph-name="acircumflex" unicode="&#xe2;" horiz-adv-x="909" 
d="M514.5 868q-80.5 0 -137.5 -27q-41 -31 -93 -174.5t-77 -269t-25 -190t9.5 -80.5t28.5 -16q36 0 141 97t177.5 225t119.5 342l13 58q-76 35 -156.5 35zM685 113q34 0 146 86l9 -3l7 -27l-4 -12q-210 -181 -286 -181q-50 0 -50 66.5t26 180.5l25 107l15 59l-6 3
q-149 -212 -278.5 -318t-181.5 -106q-70 0 -70 171q0 107 32.5 243t79.5 252t75.5 152.5t95 83.5t124.5 72t137 25t177 -36l64 38l22 -18q-3 -15 -42 -150l-71 -269q-73 -287 -73 -379q0 -40 27 -40zM909 1098l-3 -8l-62 -1l-108 151l-73 96l-120 -104q-39 -34 -159 -142
h-89l-3 10l191 196l143 156h102q76 -160 181 -354z" />
    <glyph glyph-name="atilde" unicode="&#xe3;" horiz-adv-x="909" 
d="M514 868q-80 0 -137 -27q-41 -31 -93 -175q-52 -142 -77 -268t-25 -190t10 -81q10 -16 28 -16q36 0 141 97t177 225t120 342l13 58q-77 35 -157 35zM685 113q34 0 146 86l9 -3l7 -27l-4 -12q-210 -181 -286 -181q-50 0 -50 66t26 181l25 107l15 59l-6 3
q-149 -212 -279 -318t-181 -106q-70 0 -70 171q1 107 33 243t79 252t75 152t96 84q66 47 124 72t137 25t177 -36l64 38l22 -18q-3 -15 -42 -150l-71 -269q-73 -287 -73 -379q0 -40 27 -40zM805 1163q-38 0 -122 30l-103 36q-69 24 -105 24q-70 0 -102 -100h-42l-7 8
q49 205 192 205q48 0 112 -24l96 -37q78 -30 110 -30q72 0 103 96h36l8 -7q-44 -201 -176 -201z" />
    <glyph glyph-name="adieresis" unicode="&#xe4;" horiz-adv-x="909" 
d="M514 868q-80 0 -137 -27q-41 -31 -93 -175q-52 -142 -77 -268t-25 -190t10 -81q10 -16 28 -16q36 0 141 97t177 225t120 342l13 58q-77 35 -157 35zM685 113q34 0 146 86l9 -3l7 -27l-4 -12q-210 -181 -286 -181q-50 0 -50 66t26 181l25 107l15 59l-6 3
q-149 -212 -279 -318t-181 -106q-70 0 -70 171q1 107 33 243t79 252t75 152t96 84q66 47 124 72t137 25t177 -36l64 38l22 -18q-3 -15 -42 -150l-71 -269q-73 -287 -73 -379q0 -40 27 -40zM794 1163q-80 0 -80 89q0 50 32 90t80 41q78 0 78 -80q0 -56 -32 -98t-78 -42z
M415 1163q-80 0 -80 89q0 50 32 90t80 41q78 0 78 -80q1 -56 -31 -98t-79 -42z" />
    <glyph glyph-name="aring" unicode="&#xe5;" horiz-adv-x="909" 
d="M514 868q-80 0 -137 -27q-41 -31 -93 -175q-52 -142 -77 -268t-25 -190t10 -81q10 -16 28 -16q36 0 141 97t177 225t120 342l13 58q-77 35 -157 35zM685 113q34 0 146 86l9 -3l7 -27l-4 -12q-210 -181 -286 -181q-50 0 -50 66t26 181l25 107l15 59l-6 3
q-149 -212 -279 -318t-181 -106q-70 0 -70 171q1 107 33 243t79 252t75 152t96 84q66 47 124 72t137 25t177 -36l64 38l22 -18q-3 -15 -42 -150l-71 -269q-73 -287 -73 -379q0 -40 27 -40zM640 1414q-48 0 -86 -51t-39 -119q0 -114 92 -114q55 0 95 52t39 106q-1 56 -27 91
t-74 35zM604 1084q-84 0 -129 44t-45 123q0 77 66 143t151 66q87 0 133 -46t46 -125q0 -81 -70 -143q-68 -62 -152 -62z" />
    <glyph glyph-name="ae" unicode="&#xe6;" horiz-adv-x="1307" 
d="M165 199q0 -130 136 -130q113 0 185 83t103 304l-55 1q-195 0 -282 -64t-87 -194zM1121 776q0 110 -94 110q-127 0 -204 -114t-93 -263q174 7 282.5 82t108.5 185zM792 -28q-84 0 -139.5 34t-93.5 150q-188 -188 -349 -188q-194 0 -194 204t114 258.5t195 64.5t270 10
q10 79 10 136q0 109 -63.5 168t-173.5 59q-57 0 -109 -19l-46 -134l-11 -5l-19 2l-7 9l-14 135q155 110 286 110q215 0 282 -188q217 190 382 190t165 -160q0 -150 -159 -241t-395 -106q-24 -138 -24 -214t43 -126t120 -50q132 0 321 146l10 -3l12 -26l-3 -13
q-248 -203 -410 -203z" />
    <glyph glyph-name="ccedilla" unicode="&#xe7;" horiz-adv-x="833" 
d="M714 771q0 99 -167 99q-102 0 -166 -54t-113.5 -219t-49.5 -288q0 -238 175 -238q122 0 323 148l10 -3l11 -28l-3 -12q-215 -181 -364 -207l-65 -110q26 6 78 6t100.5 -37t48.5 -104t-72 -117.5t-162 -50.5t-187 41l-2 10l18 30l10 2q85 -21 133 -21t85 29t37 75
q0 85 -108 85q-26 0 -53 -7l-15 11l100 155q-248 0 -248 303q0 183 67 345.5t229 260.5t264 98t173 -49l3 -13q-29 -119 -44 -241l-8 -8h-31l-8 8q0 17 1 51v50z" />
    <glyph glyph-name="egrave" unicode="&#xe8;" horiz-adv-x="797" 
d="M609 772q0 62 -27 88t-67 26q-41 0 -97 -24t-100 -88t-104 -299q254 45 344 167q50 68 51 130zM266 -32q-56 0 -114 30q-115 60 -115 234q-1 124 41 266t84 210t124 126q185 132 302 133q76 0 124 -40t48 -116q0 -77 -46 -145t-168 -129t-292 -100l-47 -11
q-20 -96 -20 -173t40 -130t112 -53q135 0 324 148l11 -4l11 -25l-2 -13q-246 -208 -417 -208zM650 1123l-4 -11l-21 -17l-13 4q-154 142 -333 330l15 21l145 2q31 -60 211 -329z" />
    <glyph glyph-name="eacute" unicode="&#xe9;" horiz-adv-x="797" 
d="M609 772q0 62 -27 88t-67 26q-41 0 -97 -24t-100 -88t-104 -299q254 45 344 167q50 68 51 130zM266 -32q-56 0 -114 30q-115 60 -115 234q-1 124 41 266t84 210t124 126q185 132 302 133q76 0 124 -40t48 -116q0 -77 -46 -145t-168 -129t-292 -100l-47 -11
q-20 -96 -20 -173t40 -130t112 -53q135 0 324 148l11 -4l11 -25l-2 -13q-246 -208 -417 -208zM812 1428l-346 -329l-13 -1l-22 19l-2 9q35 45 121 166l107 159l141 3z" />
    <glyph glyph-name="ecircumflex" unicode="&#xea;" horiz-adv-x="797" 
d="M609 772q0 62 -27 88t-67 26t-96.5 -24t-100 -88t-104.5 -299q254 45 344 167q50 68 51 130zM266 -32q-56 0 -114 30q-115 60 -115 234q0 125 41.5 266.5t83.5 209.5q42 66 124 126q185 132 302 133q76 0 124 -40t48 -116t-46 -144.5t-168 -129.5t-292 -100l-47 -11
q-20 -96 -20 -173t40 -130t112 -53q135 0 324 148l11 -4l11 -25l-2 -13q-246 -208 -417 -208zM829 1098l-3 -8l-62 -1l-108 151l-73 96l-120 -104q-39 -34 -159 -142h-89l-3 10l191 196l143 156h102q76 -160 181 -354z" />
    <glyph glyph-name="edieresis" unicode="&#xeb;" horiz-adv-x="797" 
d="M609 772q0 62 -27 88t-67 26q-41 0 -97 -24t-100 -88t-104 -299q254 45 344 167q50 68 51 130zM266 -32q-56 0 -114 30q-115 60 -115 234q-1 124 41 266t84 210t124 126q185 132 302 133q76 0 124 -40t48 -116q0 -77 -46 -145t-168 -129t-292 -100l-47 -11
q-20 -96 -20 -173t40 -130t112 -53q135 0 324 148l11 -4l11 -25l-2 -13q-246 -208 -417 -208zM669 1163q-80 0 -80 89q0 50 32 90t80 41q78 0 78 -80q1 -56 -31 -98t-79 -42zM290 1163q-80 0 -80 89q0 50 32 90t80 41q78 0 78 -80q0 -56 -32 -98t-78 -42z" />
    <glyph glyph-name="igrave" unicode="&#xec;" horiz-adv-x="569" 
d="M404 958q42 0 41 -53q0 -53 -85 -370q-85 -316 -85 -390q0 -40 28 -40q43 0 156 85l10 -3l11 -26l-2 -12q-177 -136 -229 -159q-51 -22 -77 -22t-43 26t-17 74t54 239t82 321t27 162q0 32 -23 31q-15 1 -29 -7t-126 -73l-11 4l-10 23l3 13q246 177 325 177zM500 1123
l-4 -11l-21 -17l-13 4q-154 142 -333 330l15 21l145 2q31 -60 211 -329z" />
    <glyph glyph-name="iacute" unicode="&#xed;" horiz-adv-x="569" 
d="M404 958q42 0 41 -53q0 -53 -85 -370q-85 -316 -85 -390q0 -40 28 -40q43 0 156 85l10 -3l11 -26l-2 -12q-177 -136 -229 -159q-51 -22 -77 -22t-43 26t-17 74t54 239t82 321t27 162q0 32 -23 31q-15 1 -29 -7t-126 -73l-11 4l-10 23l3 13q246 177 325 177zM624 1428
l-346 -329l-13 -1l-22 19l-2 9q35 45 121 166l107 159l141 3z" />
    <glyph glyph-name="icircumflex" unicode="&#xee;" horiz-adv-x="569" 
d="M404 958q42 0 41 -53q0 -53 -85 -370q-85 -316 -85 -390q0 -40 28 -40q43 0 156 85l10 -3l11 -26l-2 -12q-177 -136 -229 -159q-51 -22 -77 -22t-43 26t-17 74t54 239t82 321t27 162q0 32 -23 31q-15 1 -29 -7t-126 -73l-11 4l-10 23l3 13q246 177 325 177zM654 1098
l-3 -8l-62 -1l-108 151l-73 96l-120 -104q-39 -34 -159 -142h-89l-3 10l191 196l143 156h102q76 -160 181 -354z" />
    <glyph glyph-name="idieresis" unicode="&#xef;" horiz-adv-x="569" 
d="M404 958q42 0 41 -53q0 -53 -85 -370q-85 -316 -85 -390q0 -40 28 -40q43 0 156 85l10 -3l11 -26l-2 -12q-177 -136 -229 -159q-51 -22 -77 -22t-43 26t-17 74t54 239t82 321t27 162q0 32 -23 31q-15 1 -29 -7t-126 -73l-11 4l-10 23l3 13q246 177 325 177zM579 1163
q-80 0 -80 89q0 50 32 90t80 41q78 0 78 -80q1 -56 -31 -98t-79 -42zM200 1163q-80 0 -80 89q0 50 32 90t80 41q78 0 78 -80q0 -56 -32 -98t-78 -42z" />
    <glyph glyph-name="eth" unicode="&#xf0;" horiz-adv-x="909" 
d="M193 352q0 -110 17 -170.5t62 -96.5t108 -36q95 0 165 85t108.5 230.5t38.5 287.5q0 250 -181 250q-208 0 -263 -220t-55 -330zM841 740q0 -203 -67 -381.5t-184 -283t-283 -104.5q-271 0 -271 332q0 178 74.5 346t191 250t224.5 82t169 -49q-5 58 -17 110.5t-54 142.5
l-269 -130l-11 4l-18 43l3 12l257 130q-81 107 -213 177l70 59q84 -45 132 -85t107 -110l266 130l12 -4l19 -43l-3 -11l-259 -126q52 -90 88 -227.5t36 -263.5z" />
    <glyph glyph-name="ntilde" unicode="&#xf1;" horiz-adv-x="1139" 
d="M725 -31q-60 0 -60 67t78 370q78 302 78 360t-38 59q-75 0 -216 -128q-141 -129 -217 -325q-34 -90 -49 -152q-15 -64 -42 -213q-69 -11 -141 -32l-13 17q65 199 115 459t51 330q0 39 -27 39q-37 0 -154 -79l-12 3l-9 22l3 15q115 87 199 132q84 46 117 46q49 -1 49 -53
q1 -52 -21 -137t-66 -267l7 -2q74 121 182 232t223 169t169 58q60 1 60 -67t-81 -380t-81 -361q0 -50 27 -50q33 0 168 96l11 -3l11 -26l-3 -12q-62 -50 -166 -119q-105 -68 -152 -68zM883 1163q-38 0 -122 30l-103 36q-69 24 -105 24q-70 0 -102 -100h-42l-7 8
q49 205 192 205q48 0 112 -24l96 -37q78 -30 110 -30q72 0 103 96h36l8 -7q-44 -201 -176 -201z" />
    <glyph glyph-name="ograve" unicode="&#xf2;" horiz-adv-x="909" 
d="M497 896q-154 0 -226 -184t-72 -419q0 -87 17 -137t60 -80q44 -30 108 -31q64 0 114 35t95 130q86 182 86 434t-182 252zM558 969q122 -1 200 -71q79 -70 79 -240q-1 -170 -75 -341q-74 -172 -204 -260t-255 -88q-83 1 -145 39q-119 74 -119 268t65 351q64 157 198 249
t256 93zM690 1123l-4 -11l-21 -17l-13 4q-154 142 -333 330l15 21l145 2q31 -60 211 -329z" />
    <glyph glyph-name="oacute" unicode="&#xf3;" horiz-adv-x="909" 
d="M497 896q-154 0 -226 -184t-72 -419q0 -87 17 -137t60 -80q44 -30 108 -31q64 0 114 35t95 130q86 182 86 434t-182 252zM558 969q122 -1 200 -71q79 -70 79 -240q-1 -170 -75 -341q-74 -172 -204 -260t-255 -88q-83 1 -145 39q-119 74 -119 268t65 351q64 157 198 249
t256 93zM842 1428l-346 -329l-13 -1l-22 19l-2 9q35 45 121 166l107 159l141 3z" />
    <glyph glyph-name="ocircumflex" unicode="&#xf4;" horiz-adv-x="909" 
d="M497 896q-154 0 -226 -184.5t-72 -418.5q0 -86 17 -136.5t60 -81t107.5 -30.5t114.5 35t95 130q86 182 86 434t-182 252zM557.5 969q121.5 0 200.5 -70.5t79 -240t-74.5 -341.5t-204.5 -260t-255 -88q-83 1 -145 39q-119 74 -119 268t65 351t198.5 249.5t255 92.5z
M859 1098l-3 -8l-62 -1l-108 151l-73 96l-120 -104q-39 -34 -159 -142h-89l-3 10l191 196l143 156h102q76 -160 181 -354z" />
    <glyph glyph-name="otilde" unicode="&#xf5;" horiz-adv-x="909" 
d="M497 896q-154 0 -226 -184t-72 -419q0 -87 17 -137t60 -80q44 -30 108 -31q64 0 114 35t95 130q86 182 86 434t-182 252zM558 969q122 -1 200 -71q79 -70 79 -240q-1 -170 -75 -341q-74 -172 -204 -260t-255 -88q-83 1 -145 39q-119 74 -119 268t65 351q64 157 198 249
t256 93zM730 1163q-38 0 -122 30l-103 36q-69 24 -105 24q-70 0 -102 -100h-42l-7 8q49 205 192 205q48 0 112 -24l96 -37q78 -30 110 -30q72 0 103 96h36l8 -7q-44 -201 -176 -201z" />
    <glyph glyph-name="odieresis" unicode="&#xf6;" horiz-adv-x="909" 
d="M497 896q-154 0 -226 -184t-72 -419q0 -87 17 -137t60 -80q44 -30 108 -31q64 0 114 35t95 130q86 182 86 434t-182 252zM558 969q122 -1 200 -71q79 -70 79 -240q-1 -170 -75 -341q-74 -172 -204 -260t-255 -88q-83 1 -145 39q-119 74 -119 268t65 351q64 157 198 249
t256 93zM739 1163q-80 0 -80 89q0 50 32 90t80 41q78 0 78 -80q1 -56 -31 -98t-79 -42zM360 1163q-80 0 -80 89q0 50 32 90t80 41q78 0 78 -80q0 -56 -32 -98t-78 -42z" />
    <glyph glyph-name="divide" unicode="&#xf7;" 
d="M512 239q-38 0 -66 28t-28 66t28 65.5t66 27.5t66 -27.5t28 -65.5t-28 -66t-66 -28zM994 581h-964v102h964v-102zM512 836q-38 0 -66 28t-28 66t28 65.5t66 27.5t66 -27.5t28 -65.5t-28 -66t-66 -28z" />
    <glyph glyph-name="oslash" unicode="&#xf8;" horiz-adv-x="909" 
d="M380 43q64 0 107 26t86.5 101t75.5 194.5t32 262.5q0 19 -1 56l-465 -525q46 -115 165 -115zM488 895q-105 0 -176 -106.5t-93 -252.5t-22 -201t4 -88l463 524q-40 124 -176 124zM41 312q0 142 59 300.5t194.5 257t265.5 98.5t210 -79l78 86h13l35 -32l-1 -12l-88 -101
q33 -84 33 -198t-64 -290t-199 -274.5t-267 -98.5t-196 74l-90 -102h-13l-38 32v13l101 116q-33 68 -33 210z" />
    <glyph glyph-name="ugrave" unicode="&#xf9;" horiz-adv-x="1139" 
d="M718 -33q-54 0 -53 88q0 45 84 394l-6 3l-74 -106q-87 -124 -182 -209q-95 -83 -165 -127t-102 -44t-54 28t-22 96q0 66 69 344t69 362q0 32 -28 32t-151 -80l-12 3l-10 23l3 14q30 22 130 84t139 79t60 17t33 -16t12 -38t-29 -139q-128 -525 -128 -619q0 -44 30 -44
q37 0 121 66t180 189t141 247q44 124 78 317q12 2 137 32l15 -15q-1 -6 -33 -109t-89 -347q-58 -244 -58 -335q0 -47 32 -47q17 0 42 16t113 81l11 -4l11 -23l-2 -13q-176 -139 -230 -169q-56 -30 -82 -31zM800 1123l-4 -11l-21 -17l-13 4q-154 142 -333 330l15 21l145 2
q31 -60 211 -329z" />
    <glyph glyph-name="uacute" unicode="&#xfa;" horiz-adv-x="1139" 
d="M718 -33q-54 0 -53 88q0 45 84 394l-6 3l-74 -106q-87 -124 -182 -209q-95 -83 -165 -127t-102 -44t-54 28t-22 96q0 66 69 344t69 362q0 32 -28 32t-151 -80l-12 3l-10 23l3 14q30 22 130 84t139 79t60 17t33 -16t12 -38t-29 -139q-128 -525 -128 -619q0 -44 30 -44
q37 0 121 66t180 189t141 247q44 124 78 317q12 2 137 32l15 -15q-1 -6 -33 -109t-89 -347q-58 -244 -58 -335q0 -47 32 -47q17 0 42 16t113 81l11 -4l11 -23l-2 -13q-176 -139 -230 -169q-56 -30 -82 -31zM972 1428l-346 -329l-13 -1l-22 19l-2 9q35 45 121 166l107 159
l141 3z" />
    <glyph glyph-name="ucircumflex" unicode="&#xfb;" horiz-adv-x="1139" 
d="M718 -33q-54 0 -53 88q0 45 84 394l-6 3l-74 -106q-87 -124 -182 -209q-95 -83 -165 -127t-102 -44t-54 28t-22 96q0 66 69 344t69 362q0 32 -28 32t-151 -80l-12 3l-10 23l3 14q30 22 130 84t139 79t60 17t33 -16t12 -38t-29 -139q-128 -525 -128 -619q0 -44 30 -44
q37 0 121 66t180 189t141 247q44 124 78 317q12 2 137 32l15 -15q-1 -6 -33 -109t-89 -347q-58 -244 -58 -335q0 -47 32 -47q17 0 42 16t113 81l11 -4l11 -23l-2 -13q-176 -139 -230 -169q-56 -30 -82 -31zM969 1098l-3 -8l-62 -1l-108 151l-73 96l-120 -104
q-39 -34 -159 -142h-89l-3 10l191 196l143 156h102q76 -160 181 -354z" />
    <glyph glyph-name="udieresis" unicode="&#xfc;" horiz-adv-x="1139" 
d="M718 -33q-54 0 -53 88q0 45 84 394l-6 3l-74 -106q-87 -124 -182 -209q-95 -83 -165 -127t-102 -44t-54 28t-22 96q0 66 69 344t69 362q0 32 -28 32t-151 -80l-12 3l-10 23l3 14q30 22 130 84t139 79t60 17t33 -16t12 -38t-29 -139q-128 -525 -128 -619q0 -44 30 -44
q37 0 121 66t180 189t141 247q44 124 78 317q12 2 137 32l15 -15q-1 -6 -33 -109t-89 -347q-58 -244 -58 -335q0 -47 32 -47q17 0 42 16t113 81l11 -4l11 -23l-2 -13q-176 -139 -230 -169q-56 -30 -82 -31zM869 1163q-80 0 -80 89q0 50 32 90t80 41q78 0 78 -80
q1 -56 -31 -98t-79 -42zM490 1163q-80 0 -80 89q0 50 32 90t80 41q78 0 78 -80q0 -56 -32 -98t-78 -42z" />
    <glyph glyph-name="yacute" unicode="&#xfd;" 
d="M381 838q-1 -68 -21 -293t-20 -323t39 -98t106 65q66 65 120 145q55 80 97 178q42 97 66 185t58 229q68 10 151 38l22 -20q-50 -100 -151 -446q-100 -346 -146 -482q-96 -285 -249 -437q-152 -152 -296 -152q-71 1 -123 45t-51 116q0 15 5 34l99 67l21 -7q-2 -16 -2 -28
q0 -72 42 -108t85 -37t83 19t76 65q108 129 245 635l34 125q-68 -104 -125 -167t-112 -120q-97 -101 -147 -101q-50 -1 -74 51t-24 110t19 227q19 170 19 292q-1 121 -9 147t-35 26t-140 -87l-13 4l-11 24l3 15q223 188 294 188q65 0 65 -124zM942 1428l-346 -329l-13 -1
l-22 19l-2 9q35 45 121 166l107 159l141 3z" />
    <glyph glyph-name="thorn" unicode="&#xfe;" 
d="M421 64q80 0 135 34t114.5 153t90.5 242t31 211t-16 117t-60 29q-112 0 -241.5 -143.5t-181.5 -381.5l-37 -213q85 -48 165 -48zM368 -30q-38 0 -132 29l-84 -535q-109 -15 -150 -33l-12 12l108 568l76 434l104 538l49 272q5 30 5 52t-13 32t-57 10l-84 1l-8 8l3 25l8 9
q185 29 314 79l26 -19q-16 -62 -61 -282l-124 -581q113 187 252 281.5t238 94.5q45 0 67.5 -24.5t37.5 -80.5t15 -136t-32.5 -198.5t-75.5 -203t-100 -144t-136.5 -108t-137.5 -74.5t-96 -26z" />
    <glyph glyph-name="ydieresis" unicode="&#xff;" 
d="M381 838q-1 -68 -21 -293t-20 -323t39 -98t106 65q66 65 120 145q55 80 97 178q42 97 66 185t58 229q68 10 151 38l22 -20q-50 -100 -151 -446q-100 -346 -146 -482q-96 -285 -249 -437q-152 -152 -296 -152q-71 1 -123 45t-51 116q0 15 5 34l99 67l21 -7q-2 -16 -2 -28
q0 -72 42 -108t85 -37t83 19t76 65q108 129 245 635l34 125q-68 -104 -125 -167t-112 -120q-97 -101 -147 -101q-50 -1 -74 51t-24 110t19 227q19 170 19 292q-1 121 -9 147t-35 26t-140 -87l-13 4l-11 24l3 15q223 188 294 188q65 0 65 -124zM808 1163q-80 0 -80 89
q0 50 32 90t80 41q78 0 78 -80q0 -56 -32 -98t-78 -42zM429 1163q-80 0 -80 89q0 50 32 90t80 41q78 0 78 -80q1 -56 -31 -98t-79 -42z" />
    <glyph glyph-name="Amacron" unicode="&#x100;" horiz-adv-x="1479" 
d="M566 637h440l-76 581zM1156 0q-84 0 -256 -8l-7 8l7 43l9 8q123 5 141 15t18 30t-14 167l-39 296h-499l-141 -234q-20 -33 -70 -124t-50 -109q-1 -18 19 -26t147 -14l6 -8l-7 -44l-9 -8q-116 8 -209 8t-216 -8l-7 8l7 44l9 7l58 9q36 6 50 22q33 40 140 211l714 1127h94
l168 -1208q14 -101 25 -122t33 -26t114 -13l6 -8l-8 -43l-9 -8q-140 8 -224 8zM1367 1750l-17 -90h-618l17 90h618z" />
    <glyph glyph-name="amacron" unicode="&#x101;" horiz-adv-x="909" 
d="M514 868q-80 0 -137 -27q-41 -31 -93 -175q-52 -142 -77 -268t-25 -190t10 -81q10 -16 28 -16q36 0 141 97t177 225t120 342l13 58q-77 35 -157 35zM685 113q34 0 146 86l9 -3l7 -27l-4 -12q-210 -181 -286 -181q-50 0 -50 66t26 181l25 107l15 59l-6 3
q-149 -212 -279 -318t-181 -106q-70 0 -70 171q1 107 33 243t79 252t75 152t96 84q66 47 124 72t137 25t177 -36l64 38l22 -18q-3 -15 -42 -150l-71 -269q-73 -287 -73 -379q0 -40 27 -40zM907 1287l-23 -94h-544l25 94h542z" />
    <glyph glyph-name="Abreve" unicode="&#x102;" horiz-adv-x="1479" 
d="M566 637h440l-76 581zM1155.5 0q-84.5 0 -255.5 -8l-7 8l7 43l9 8q124 5 141.5 15t17.5 30.5t-14 166.5l-39 296h-499l-141 -234q-20 -33 -70 -124t-50 -109t19.5 -26.5t146.5 -13.5l6 -8l-7 -44l-9 -8q-116 8 -209 8t-216 -8l-7 8l7 44l9 7l58 9q36 6 50 22
q33 40 140 211l714 1127h94l168 -1208q14 -101 25 -122t33 -26t114 -13l6 -8l-8 -43l-9 -8q-140 8 -224.5 8zM1055 1650q183 0 268 202h59q-84 -325 -340 -325q-125 0 -197.5 72.5t-72.5 199.5q0 19 2 53h57q16 -202 224 -202z" />
    <glyph glyph-name="abreve" unicode="&#x103;" horiz-adv-x="909" 
d="M514.5 868q-80.5 0 -137.5 -27q-41 -31 -93 -174.5t-77 -269t-25 -190t9.5 -80.5t28.5 -16q36 0 141 97t177.5 225t119.5 342l13 58q-76 35 -156.5 35zM685 113q34 0 146 86l9 -3l7 -27l-4 -12q-210 -181 -286 -181q-50 0 -50 66.5t26 180.5l25 107l15 59l-6 3
q-149 -212 -278.5 -318t-181.5 -106q-70 0 -70 171q0 107 32.5 243t79.5 252t75.5 152.5t95 83.5t124.5 72t137 25t177 -36l64 38l22 -18q-3 -15 -42 -150l-71 -269q-73 -287 -73 -379q0 -40 27 -40zM594 1113q-109 0 -178 73t-69 195q0 12 4 47l36 -1q0 -90 63.5 -145.5
t160.5 -55.5q182 0 268 201l40 1q-61 -315 -325 -315z" />
    <glyph glyph-name="Aogonek" unicode="&#x104;" horiz-adv-x="1479" 
d="M1006 637l-76 581l-364 -581h440zM1120 -214q0 -98 83 -97q69 0 121 73l8 2l21 -11l2 -7q-103 -176 -209 -176q-68 0 -111 38.5t-43 95.5q0 108 181 295q-93 0 -224 -6l-33 -1l-7 8l7 43l9 8q99 1 121 12.5t22 52.5t-14 147l-39 296h-499l-141 -234q-120 -199 -120 -226
t26 -35.5t121 -11.5l6 -8l-7 -44l-9 -8q-185 8 -234 8t-172 -8l-7 8l7 44l9 7l58 9q42 7 61 35l151 230l692 1095h94l168 -1208q12 -87 20 -110t24 -32t128 -19l6 -8l-8 -43l-9 -8l-149 7q-111 -115 -111 -213z" />
    <glyph glyph-name="aogonek" unicode="&#x105;" horiz-adv-x="909" 
d="M514 868q-80 0 -137 -27q-49 -38 -122 -255.5t-73 -387.5q0 -87 38 -87q44 0 138.5 93t170 211t129.5 360l13 58q-77 35 -157 35zM510 -191q0 -75 62 -75t107 46l7 2l15 -10l2 -7q-84 -124 -193 -124q-47 0 -75 32.5t-28 74.5t23.5 92t118.5 145q-42 19 -42 55
q0 73 26 183l40 166l-6 3q-117 -164 -251.5 -294t-206.5 -130t-72 174t72 383t119.5 266t149.5 116.5t192 59.5t188 -36l64 38l22 -18q-9 -30 -42 -150l-71 -269q-73 -277 -73 -379q0 -40 27 -40q34 0 146 86l9 -3l7 -27l-4 -12q-170 -147 -246 -176q-87 -97 -87 -172z" />
    <glyph glyph-name="Cacute" unicode="&#x106;" horiz-adv-x="1366" 
d="M730 -42q-200 0 -338 76q-272 148 -272 538q0 455 348 704q108 77 216 118q110 41 254 41q226 0 413 -78l4 -11q-30 -87 -50 -281l-8 -8h-42l-8 8q0 132 -3 156q-125 108 -348 108t-357 -103q-134 -104 -204 -348q-34 -120 -34 -266q-1 -272 133 -409t358 -137t438 142
l10 -29l-30 -73q-207 -148 -480 -148zM1241 1845q-125 -85 -407 -299l-13 2l-23 19l1 13l255 271l178 18z" />
    <glyph glyph-name="cacute" unicode="&#x107;" horiz-adv-x="833" 
d="M317 -34q-249 0 -249 303q0 91 22 195t59 181t77 122t136 105q162 102 265 101q103 0 174 -49l3 -13q-29 -119 -44 -241l-8 -8h-31l-8 8v67q1 19 1 43t-12 42t-56 33t-99 15q-105 0 -167 -54t-112 -218t-50 -289t49 -181t119 -57q70 0 139 29t191 119l10 -3l11 -28
l-3 -12q-120 -102 -222 -156t-195 -54zM842 1428l-346 -329l-13 -1l-22 19l-2 9q35 45 121 166l107 159l141 3z" />
    <glyph glyph-name="Ccircumflex" unicode="&#x108;" horiz-adv-x="1366" 
d="M730 -42q-200 0 -338 76q-272 148 -272 538q0 455 348 704q108 77 216 118q110 41 254 41q226 0 413 -78l4 -11q-30 -87 -50 -281l-8 -8h-42l-8 8q0 132 -3 156q-125 108 -348 108t-357 -103q-134 -104 -204 -348q-34 -120 -34 -266q-1 -272 133 -409t358 -137t438 142
l10 -29l-30 -73q-207 -148 -480 -148zM1202 1533h-54l-187 236l-292 -236h-57l-5 10l319 326h106l178 -326z" />
    <glyph glyph-name="ccircumflex" unicode="&#x109;" horiz-adv-x="833" 
d="M317 -34q-249 0 -249 303q0 91 22 195t59 181t77 122t136 105q162 102 265 101q103 0 174 -49l3 -13q-29 -119 -44 -241l-8 -8h-31l-8 8v67q1 19 1 43t-12 42t-56 33t-99 15q-105 0 -167 -54t-112 -218t-50 -289t49 -181t119 -57q70 0 139 29t191 119l10 -3l11 -28
l-3 -12q-120 -102 -222 -156t-195 -54zM859 1098l-3 -8l-62 -1l-108 151l-73 96l-120 -104q-39 -34 -159 -142h-89l-3 10l191 196l143 156h102q76 -160 181 -354z" />
    <glyph glyph-name="Cdotaccent" unicode="&#x10a;" horiz-adv-x="1366" 
d="M730 -42q-200 0 -338 76q-272 148 -272 538q0 455 348 704q108 77 216 118q110 41 254 41q226 0 413 -78l4 -11q-30 -87 -50 -281l-8 -8h-42l-8 8q0 132 -3 156q-125 108 -348 108t-357 -103q-134 -104 -204 -348q-34 -120 -34 -266q-1 -272 133 -409t358 -137t438 142
l10 -29l-30 -73q-207 -148 -480 -148zM857 1607q-94 0 -94 100q0 48 35 85t83 37q96 0 96 -91q0 -54 -34 -92t-86 -39z" />
    <glyph glyph-name="cdotaccent" unicode="&#x10b;" horiz-adv-x="833" 
d="M317 -34q-249 0 -249 303q0 91 22 195t59 181t77 122t136 105q162 102 265 101q103 0 174 -49l3 -13q-29 -119 -44 -241l-8 -8h-31l-8 8v67q1 19 1 43t-12 42t-56 33t-99 15q-105 0 -167 -54t-112 -218t-50 -289t49 -181t119 -57q70 0 139 29t191 119l10 -3l11 -28
l-3 -12q-120 -102 -222 -156t-195 -54zM579 1163q-81 0 -81 89q0 52 30 92t83 39q78 0 78 -80q1 -56 -31 -98t-79 -42z" />
    <glyph glyph-name="Ccaron" unicode="&#x10c;" horiz-adv-x="1366" 
d="M730 -42q-200 0 -338 76q-272 148 -272 538q0 455 348 704q108 77 216 118q110 41 254 41q226 0 413 -78l4 -11q-30 -87 -50 -281l-8 -8h-42l-8 8q0 132 -3 156q-125 108 -348 108t-357 -103q-134 -104 -204 -348q-34 -120 -34 -266q-1 -272 133 -409t358 -137t438 142
l10 -29l-30 -73q-207 -148 -480 -148zM1245 1869l8 -10l-324 -326h-105l-176 328l10 8h40l197 -236l302 236h48z" />
    <glyph glyph-name="ccaron" unicode="&#x10d;" horiz-adv-x="833" 
d="M317 -34q-249 0 -249 303q0 91 22 195t59 181t77 122t136 105q162 102 265 101q103 0 174 -49l3 -13q-29 -119 -44 -241l-8 -8h-31l-8 8v67q1 19 1 43t-12 42t-56 33t-99 15q-105 0 -167 -54t-112 -218t-50 -289t49 -181t119 -57q70 0 139 29t191 119l10 -3l11 -28
l-3 -12q-120 -102 -222 -156t-195 -54zM884 1446l-191 -209q-39 -42 -129 -147h-72q-33 54 -200 358l6 6h62l172 -246q121 101 270 246h80z" />
    <glyph glyph-name="Dcaron" unicode="&#x10e;" horiz-adv-x="1593" 
d="M707 80q160 0 268 58q109 58 191 166t128 260t46 272t-27 210t-98 162t-182 96t-234 23q-123 0 -232 -11l-73 -398l-85 -496q-36 -210 -44 -310q182 -32 342 -32zM390 1296q0 28 -13 41q-13 12 -148 17l-7 9l5 42l10 8q96 -7 252 -7l381 6q182 0 289 -25t190 -86
t129 -169t47 -248t-39 -270q-40 -128 -118 -241t-178 -193t-182 -118q-160 -71 -402 -71l-379 9q-83 0 -146 -7l-8 7l5 43l8 8q56 10 65 15t19 19t24 64q13 50 66 335l97 561q33 223 33 251zM1235 1869l8 -10l-324 -326h-105l-176 328l10 8h40l197 -236l302 236h48z" />
    <glyph glyph-name="dcaron" unicode="&#x10f;" horiz-adv-x="1297" 
d="M198 204q0 -92 45 -91q38 0 126 56t172 170t126 243q19 59 59 245q-94 49 -175 49t-119 -14t-58 -33q-20 -21 -52 -87t-61 -162q-31 -96 -47 -190t-16 -186zM149 -27q-98 -1 -98 227q0 74 28 206t71 228q44 96 86 146q42 49 113 97q133 90 228 90q58 0 168 -25l52 303
q8 38 8 62q1 24 -15 33t-56 9l-84 1l-8 8l3 25l8 9q187 30 315 79l25 -19q-47 -198 -107 -485l-118 -564q-37 -190 -37 -241q0 -50 28 -50q38 0 159 96l11 -3l10 -23l-3 -13q-93 -81 -183 -139t-128 -57q-48 0 -48 77t68 362l-5 1q-108 -182 -258 -311t-233 -129zM1324 1233
q0 27 -43 27q-97 0 -97 87q0 48 34 89t96 41q113 0 113 -132q0 -103 -85 -192t-228 -102v22q106 22 158 70t52 90z" />
    <glyph glyph-name="Dcroat" unicode="&#x110;" horiz-adv-x="1593" 
d="M707 80q160 0 268 58t190.5 165.5t128.5 260t46 272.5t-27 210t-98 162t-182 95.5t-234 23.5t-232 -11l-98 -537h343l7 -8l-8 -50l-9 -8h-344q-86 -498 -93 -601q182 -32 342 -32zM390 1270q0 55 -13 67t-148 17l-7 9l5 42l10 8q96 -7 252 -7l381 6q145 0 268 -18.5
t255 -127t132 -387.5q0 -188 -74 -357.5t-207 -294.5t-274.5 -180.5t-363.5 -55.5l-379 9q-89 0 -146 -7l-8 7l5 43l8 8q56 10 66.5 15.5t24.5 28.5t77 357l47 261h-183l-8 8l8 50l8 8h187q77 436 77 491z" />
    <glyph glyph-name="dcroat" unicode="&#x111;" 
d="M198 204q0 -92 47 -91.5t127 59t140.5 131t100.5 150.5t59.5 146t45.5 192l8 36q-94 49 -175 49t-119.5 -13.5t-58 -33.5t-51 -86.5t-61.5 -163t-46.5 -190t-16.5 -185.5zM149 -27q-98 -1 -98 227q0 74 28 206t71 228.5t85.5 145.5t144.5 118t197 69q58 0 168 -25l32 182
h-294l-6 8l12 52l8 8h291q17 92 17 116t-16 32.5t-55 8.5l-84 1l-8 8l3 25l8 9q187 30 315 79l25 -19l-59 -260h158l7 -8l-8 -52l-9 -8h-163l-134 -641q-54 -255 -54 -313t28 -58q38 0 159 96l11 -3l10 -23l-3 -13q-93 -81 -183 -138.5t-128 -57.5q-48 0 -48 77t68 362l-5 1
q-108 -182 -257.5 -311t-233.5 -129z" />
    <glyph glyph-name="Emacron" unicode="&#x112;" horiz-adv-x="1251" 
d="M405 1292q0 32 -12 45q-12 12 -149 17l-6 8l5 43l9 8q98 -8 416 -8t488 8l8 -8q-3 -23 -18 -124l-19 -174l-8 -8h-35l-8 8q-10 153 -14 169t-18 26t-98 18t-186 7q-103 0 -178 -9q-40 -173 -103 -550q100 -3 207 -3t304 13l7 -10l-38 -95q-233 11 -319 11t-176 -2
l-61 -365q-27 -158 -34 -223q139 -12 267 -12t216 7t108 15q18 8 30 30q12 20 29 86t28 98l9 8h42l7 -8q-13 -44 -29 -156t-19 -161l-13 -9l-696 8q-174 0 -269 -8l-7 8l3 43l10 8q69 8 79 13q25 13 39 73q15 59 79 408l80 455q43 260 43 292zM1125 1750l-17 -90h-618l17 90
h618z" />
    <glyph glyph-name="emacron" unicode="&#x113;" horiz-adv-x="797" 
d="M609 772q0 62 -27 88t-67 26q-41 0 -97 -24t-100 -88t-104 -299q254 45 344 167q50 68 51 130zM266 -32q-56 0 -114 30q-115 60 -115 234q-1 124 41 266t84 210t124 126q185 132 302 133q76 0 124 -40t48 -116q0 -77 -46 -145t-168 -129t-292 -100l-47 -11
q-20 -96 -20 -173t40 -130t112 -53q135 0 324 148l11 -4l11 -25l-2 -13q-246 -208 -417 -208zM857 1287l-23 -94h-544l25 94h542z" />
    <glyph glyph-name="Ebreve" unicode="&#x114;" horiz-adv-x="1251" 
d="M405 1292q0 32 -12 45q-12 12 -149 17l-6 8l5 43l9 8q98 -8 416 -8t488 8l8 -8q-3 -23 -18 -124l-19 -174l-8 -8h-35l-8 8q-10 153 -14 169t-18 26t-98 18t-186 7q-103 0 -178 -9q-40 -173 -103 -550q100 -3 207 -3t304 13l7 -10l-38 -95q-233 11 -319 11t-176 -2
l-61 -365q-27 -158 -34 -223q139 -12 267 -12t216 7t108 15q18 8 30 30q12 20 29 86t28 98l9 8h42l7 -8q-13 -44 -29 -156t-19 -161l-13 -9l-696 8q-174 0 -269 -8l-7 8l3 43l10 8q69 8 79 13q25 13 39 73q15 59 79 408l80 455q43 260 43 292zM825 1650q183 0 268 202h59
q-84 -325 -340 -325q-126 1 -198 73t-72 199q0 19 2 53h57q16 -202 224 -202z" />
    <glyph glyph-name="ebreve" unicode="&#x115;" horiz-adv-x="797" 
d="M609 772q0 62 -27 88t-67 26q-41 0 -97 -24t-100 -88t-104 -299q254 45 344 167q50 68 51 130zM266 -32q-56 0 -114 30q-115 60 -115 234q-1 124 41 266t84 210t124 126q185 132 302 133q76 0 124 -40t48 -116q0 -77 -46 -145t-168 -129t-292 -100l-47 -11
q-20 -96 -20 -173t40 -130t112 -53q135 0 324 148l11 -4l11 -25l-2 -13q-246 -208 -417 -208zM499 1113q-109 0 -178 73t-69 195q0 12 4 47l36 -1q0 -89 64 -145t160 -56q182 0 268 201l40 1q-61 -315 -325 -315z" />
    <glyph glyph-name="Edotaccent" unicode="&#x116;" horiz-adv-x="1251" 
d="M405 1292q0 32 -12 45q-12 12 -149 17l-6 8l5 43l9 8q98 -8 416 -8t488 8l8 -8q-3 -23 -18 -124l-19 -174l-8 -8h-35l-8 8q-10 153 -14 169t-18 26t-98 18t-186 7q-103 0 -178 -9q-40 -173 -103 -550q100 -3 207 -3t304 13l7 -10l-38 -95q-233 11 -319 11t-176 -2
l-61 -365q-27 -158 -34 -223q139 -12 267 -12t216 7t108 15q18 8 30 30q12 20 29 86t28 98l9 8h42l7 -8q-13 -44 -29 -156t-19 -161l-13 -9l-696 8q-174 0 -269 -8l-7 8l3 43l10 8q69 8 79 13q25 13 39 73q15 59 79 408l80 455q43 260 43 292zM797 1607q-94 0 -94 100
q0 48 35 85t83 37q96 0 96 -91q0 -54 -34 -92t-86 -39z" />
    <glyph glyph-name="edotaccent" unicode="&#x117;" horiz-adv-x="797" 
d="M609 772q0 62 -27 88t-67 26q-41 0 -97 -24t-100 -88t-104 -299q254 45 344 167q50 68 51 130zM266 -32q-56 0 -114 30q-115 60 -115 234q-1 124 41 266t84 210t124 126q185 132 302 133q76 0 124 -40t48 -116q0 -77 -46 -145t-168 -129t-292 -100l-47 -11
q-20 -96 -20 -173t40 -130t112 -53q135 0 324 148l11 -4l11 -25l-2 -13q-246 -208 -417 -208zM519 1163q-81 0 -81 89q0 52 30 92t83 39q78 0 78 -80q1 -56 -31 -98t-79 -42z" />
    <glyph glyph-name="Eogonek" unicode="&#x118;" horiz-adv-x="1251" 
d="M776 1327q-119 0 -194 -9q-40 -173 -103 -550q100 -3 207 -3t304 13l7 -10l-38 -95q-233 11 -319 11t-176 -2l-61 -365q-28 -166 -34 -223q138 -12 268 -12q307 0 335 30t46 102t29 104l9 8h42l7 -8q-35 -110 -48 -317l-13 -9l-92 2q-104 -112 -104 -208t83 -97
q69 0 121 73l8 2l21 -11l2 -7q-103 -176 -209 -176q-67 0 -110.5 38t-43.5 99q0 131 172 287l-544 6q-188 0 -269 -8l-7 8l3 43l10 8q58 6 77.5 12t37 60.5t82.5 421.5l80 455q43 245 43 306q0 19 -18 31.5t-143 16.5l-6 8l5 43l9 8q98 -8 416 -8t488 8l8 -8
q-5 -28 -18 -124l-19 -174l-8 -8h-35l-8 8q-3 159 -24.5 189.5t-275.5 30.5z" />
    <glyph glyph-name="eogonek" unicode="&#x119;" horiz-adv-x="797" 
d="M609 784q0 102 -90 102t-163 -65.5t-142 -345.5q211 39 303 123t92 186zM187 266q0 -196 152 -196q135 0 324 148l11 -4l11 -25l-2 -13q-219 -185 -379 -206q-74 -122 -74 -156q0 -80 62 -80t107 46l7 2l15 -10l2 -7q-84 -124 -193 -124q-47 0 -75 32.5t-28 75.5
q0 91 126 219q-216 17 -216 264q0 131 56.5 323.5t220 302t274.5 109.5q76 0 124 -40.5t48 -110.5q0 -262 -506 -379l-47 -11q-20 -96 -20 -160z" />
    <glyph glyph-name="Ecaron" unicode="&#x11a;" horiz-adv-x="1251" 
d="M405 1292q0 32 -12 45q-12 12 -149 17l-6 8l5 43l9 8q98 -8 416 -8t488 8l8 -8q-3 -23 -18 -124l-19 -174l-8 -8h-35l-8 8q-10 153 -14 169t-18 26t-98 18t-186 7q-103 0 -178 -9q-40 -173 -103 -550q100 -3 207 -3t304 13l7 -10l-38 -95q-233 11 -319 11t-176 -2
l-61 -365q-27 -158 -34 -223q139 -12 267 -12t216 7t108 15q18 8 30 30q12 20 29 86t28 98l9 8h42l7 -8q-13 -44 -29 -156t-19 -161l-13 -9l-696 8q-174 0 -269 -8l-7 8l3 43l10 8q69 8 79 13q25 13 39 73q15 59 79 408l80 455q43 260 43 292zM1169 1869l8 -10l-324 -326
h-105l-176 328l10 8h40l197 -236l302 236h48z" />
    <glyph glyph-name="ecaron" unicode="&#x11b;" horiz-adv-x="797" 
d="M609 772q0 62 -27 88t-67 26q-41 0 -97 -24t-100 -88t-104 -299q254 45 344 167q50 68 51 130zM266 -32q-56 0 -114 30q-115 60 -115 234q-1 124 41 266t84 210t124 126q185 132 302 133q76 0 124 -40t48 -116q0 -77 -46 -145t-168 -129t-292 -100l-47 -11
q-20 -96 -20 -173t40 -130t112 -53q135 0 324 148l11 -4l11 -25l-2 -13q-246 -208 -417 -208zM855 1446l-191 -209q-39 -42 -129 -147h-72q-33 54 -200 358l6 6h62l172 -246q121 101 270 246h80z" />
    <glyph glyph-name="Gcircumflex" unicode="&#x11c;" horiz-adv-x="1479" 
d="M747 -41q-209 0 -351 73t-209 207t-67 315q0 182 65 354t195 292q255 235 593 235q212 0 408 -79l4 -11q-36 -108 -58 -284l-8 -8h-42l-8 8q0 73 -7 171q-53 45 -154 72t-206 27q-374 0 -522 -344q-78 -182 -78 -395q0 -269 131 -404t378 -135q165 0 279 65l37 196
q15 84 15 112t-16 42t-79 17l-136 11l-8 8l6 44l10 8l35 -1q176 -6 258 -6t210 3l7 -8l-4 -39l-8 -9q-63 -11 -79 -18t-22 -18t-18 -61l-12 -57q-30 -146 -30 -192q0 -45 7 -63l-9 -15q-34 -4 -148 -42t-188 -54t-171 -17zM1212 1533h-54l-187 236l-292 -236h-57l-5 10
l319 326h106l178 -326z" />
    <glyph glyph-name="gcircumflex" unicode="&#x11d;" 
d="M88 -300q0 -100 78 -156t184 -57q106 0 176 24q70 25 111 71q40 46 40 91t-17 81t-43 60t-87 71l-140 108q-85 -21 -161 -69q-141 -89 -141 -224zM289 572q0 -240 189 -239q120 0 178 109t58 245t-82 188q-42 26 -101 26q-116 0 -179 -103q-63 -104 -63 -226zM313 99
q0 50 137 169q-29 -2 -47 -2q-119 0 -189 62t-70 168q0 215 135 342q135 126 310 126q174 0 241 -112q116 2 173 13l4 -5l-16 -100q-27 2 -57 2t-75 -4q4 -32 4 -58q-1 -142 -93 -256t-249 -158q-56 -52 -56 -90q-1 -38 29 -72t148 -130t144 -149t26 -101q0 -129 -142 -221
t-336 -92t-286 66t-91 177q0 147 170 255q98 62 231 100q-45 47 -45 70zM909 1098l-3 -8l-62 -1l-108 151l-73 96l-120 -104q-39 -34 -159 -142h-89l-3 10l191 196l143 156h102q76 -160 181 -354z" />
    <glyph glyph-name="Gbreve" unicode="&#x11e;" horiz-adv-x="1479" 
d="M747 -41q-209 0 -351 73t-209 207t-67 315q0 182 65 354t195 292q255 235 593 235q212 0 408 -79l4 -11q-36 -108 -58 -284l-8 -8h-42l-8 8q0 73 -7 171q-53 45 -154 72t-206 27q-374 0 -522 -344q-78 -182 -78 -395q0 -269 131 -404t378 -135q165 0 279 65l37 196
q15 84 15 112t-16 42t-79 17l-136 11l-8 8l6 44l10 8l35 -1q176 -6 258 -6t210 3l7 -8l-4 -39l-8 -9q-63 -11 -79 -18t-22 -18t-18 -61l-12 -57q-30 -146 -30 -192q0 -45 7 -63l-9 -15q-34 -4 -148 -42t-188 -54t-171 -17zM932 1650q183 0 268 202h59q-84 -325 -340 -325
q-125 1 -197 73t-73 199q0 19 2 53h57q16 -202 224 -202z" />
    <glyph glyph-name="gbreve" unicode="&#x11f;" 
d="M88 -300q0 -100 78 -156t184 -57q106 0 176 24q70 25 111 71q40 46 40 91t-17 81t-43 60t-87 71l-140 108q-85 -21 -161 -69q-141 -89 -141 -224zM289 572q0 -240 189 -239q120 0 178 109t58 245t-82 188q-42 26 -101 26q-116 0 -179 -103q-63 -104 -63 -226zM313 99
q0 50 137 169q-29 -2 -47 -2q-119 0 -189 62t-70 168q0 215 135 342q135 126 310 126q174 0 241 -112q116 2 173 13l4 -5l-16 -100q-27 2 -57 2t-75 -4q4 -32 4 -58q-1 -142 -93 -256t-249 -158q-56 -52 -56 -90q-1 -38 29 -72t148 -130t144 -149t26 -101q0 -129 -142 -221
t-336 -92t-286 66t-91 177q0 147 170 255q98 62 231 100q-45 47 -45 70zM559 1113q-109 0 -178 73t-69 195q0 12 4 47l36 -1q0 -89 64 -145t160 -56q182 0 268 201l40 1q-61 -315 -325 -315z" />
    <glyph glyph-name="Gdotaccent" unicode="&#x120;" horiz-adv-x="1479" 
d="M747 -41q-209 0 -351 73t-209 207t-67 315q0 182 65 354t195 292q255 235 593 235q212 0 408 -79l4 -11q-36 -108 -58 -284l-8 -8h-42l-8 8q0 73 -7 171q-53 45 -154 72t-206 27q-374 0 -522 -344q-78 -182 -78 -395q0 -269 131 -404t378 -135q165 0 279 65l37 196
q15 84 15 112t-16 42t-79 17l-136 11l-8 8l6 44l10 8l35 -1q176 -6 258 -6t210 3l7 -8l-4 -39l-8 -9q-63 -11 -79 -18t-22 -18t-18 -61l-12 -57q-30 -146 -30 -192q0 -45 7 -63l-9 -15q-34 -4 -148 -42t-188 -54t-171 -17zM904 1607q-94 0 -94 100q0 48 35 85t83 37
q96 0 96 -91q0 -54 -34 -92t-86 -39z" />
    <glyph glyph-name="gdotaccent" unicode="&#x121;" 
d="M88 -300q0 -100 78 -156t184 -57q106 0 176 24q70 25 111 71q40 46 40 91t-17 81t-43 60t-87 71l-140 108q-85 -21 -161 -69q-141 -89 -141 -224zM289 572q0 -240 189 -239q120 0 178 109t58 245t-82 188q-42 26 -101 26q-116 0 -179 -103q-63 -104 -63 -226zM313 99
q0 50 137 169q-29 -2 -47 -2q-119 0 -189 62t-70 168q0 215 135 342q135 126 310 126q174 0 241 -112q116 2 173 13l4 -5l-16 -100q-27 2 -57 2t-75 -4q4 -32 4 -58q-1 -142 -93 -256t-249 -158q-56 -52 -56 -90q-1 -38 29 -72t148 -130t144 -149t26 -101q0 -129 -142 -221
t-336 -92t-286 66t-91 177q0 147 170 255q98 62 231 100q-45 47 -45 70zM569 1163q-81 0 -81 89q0 52 30 92t83 39q78 0 78 -80q1 -56 -31 -98t-79 -42z" />
    <glyph glyph-name="uni0122" unicode="&#x122;" horiz-adv-x="1479" 
d="M747 -41q-209 0 -351 73t-209 207t-67 315q0 182 65 354t195 292q255 235 593 235q212 0 408 -79l4 -11q-36 -108 -58 -284l-8 -8h-42l-8 8q0 73 -7 171q-53 45 -154 72t-206 27q-374 0 -522 -344q-78 -182 -78 -395q0 -269 131 -404t378 -135q165 0 279 65l37 196
q15 84 15 112t-16 42t-79 17l-136 11l-8 8l6 44l10 8l35 -1q176 -6 258 -6t210 3l7 -8l-4 -39l-8 -9q-63 -11 -79 -18t-22 -18t-18 -61l-12 -57q-30 -146 -30 -192q0 -45 7 -63l-9 -15q-34 -4 -148 -42t-188 -54t-171 -17zM754 -384q0 28 -45 28q-102 0 -102 91q1 52 37 95
t100 43q119 0 119 -140q0 -107 -89 -201t-240 -108l-1 23q113 23 167 73t54 96z" />
    <glyph glyph-name="uni0123" unicode="&#x123;" 
d="M88 -300q0 -100 78 -156t184 -57q106 0 176 24q70 25 111 71q40 46 40 91t-17 81t-43 60t-87 71l-140 108q-85 -21 -161 -69q-141 -89 -141 -224zM289 572q0 -240 189 -239q120 0 178 109t58 245t-82 188q-42 26 -101 26q-116 0 -179 -103q-63 -104 -63 -226zM313 99
q0 50 137 169q-29 -2 -47 -2q-119 0 -189 62t-70 168q0 215 135 342q135 126 310 126q174 0 241 -112q116 2 173 13l4 -5l-16 -100q-27 2 -57 2t-75 -4q4 -32 4 -58q-1 -142 -93 -256t-249 -158q-56 -52 -56 -90q-1 -38 29 -72t148 -130t144 -149t26 -101q0 -129 -142 -221
t-336 -92t-286 66t-91 177q0 147 170 255q98 62 231 100q-45 47 -45 70zM583 1372q0 -24 40 -24q41 0 65 -27t24 -79t-39 -90t-94 -38q-110 0 -110 134q1 108 79 196t237 107l2 -23q-102 -20 -153 -68t-51 -88z" />
    <glyph glyph-name="Hcircumflex" unicode="&#x124;" horiz-adv-x="1593" 
d="M1300 1305q0 17 -18 32t-143 17l-6 8l4 43l10 8l279 -8q95 0 205 8l8 -8l-4 -43l-9 -8q-81 -4 -107 -8t-35 -29t-47 -209t-66 -353l-67 -400q-37 -221 -37 -249q1 -28 21 -40q20 -10 142 -15l6 -8l-5 -43l-9 -8l-262 8q-105 0 -223 -8l-7 8l4 43l9 8q51 1 124 18
q19 15 33 73t52 269l52 286l-396 4q-37 0 -267 -5l-92 -2q-93 -535 -93 -598q0 -18 20 -29t143 -16l6 -8l-5 -43l-9 -8l-263 8q-104 0 -222 -8l-7 8l3 43l10 8q86 5 110 11t38 50q15 46 58 284l65 357l59 347q27 160 27 192t-18 45t-143 17l-7 8l5 43l9 8l280 -8q94 0 205 8
l7 -8l-3 -43l-9 -8q-99 -4 -121 -14t-34 -68l-36 -174q-9 -45 -59 -314l476 -4q158 0 279 4q80 442 80 521zM1264 1533h-54l-187 236l-292 -236h-57l-5 10l319 326h106l178 -326z" />
    <glyph glyph-name="hcircumflex" unicode="&#x125;" 
d="M765 107q31 0 169 101l10 -3l12 -26l-2 -11q-82 -68 -186 -134t-132 -65q-54 0 -54 84q0 25 3 41t34 150l57 248q59 242 59 295q0 36 -40 36q-66 0 -206 -121q-70 -62 -131 -149t-91 -166t-52 -183l-37 -198q-122 -25 -139 -33l-13 14q151 573 228 1054l33 204q8 37 8 61
q1 24 -13 33q-14 10 -58 10l-84 1l-8 8l4 25l7 9q188 30 315 79l25 -19q-42 -178 -194 -903l7 -4q184 243 330 329t223 85q25 1 40 -17t15 -48t-82 -354q-82 -323 -82 -401q0 -17 8 -25t17 -7zM759 1548l-3 -8l-62 -1l-108 151l-73 96l-120 -104q-39 -34 -159 -142h-89
l-3 10l191 196l143 156h102q76 -160 181 -354z" />
    <glyph glyph-name="Hbar" unicode="&#x126;" horiz-adv-x="1593" 
d="M941 780l279 4q17 93 37 218h-752l-40 -218zM1300 1297q0 35 -22.5 43.5t-138.5 13.5l-6 8l4 43l10 8l279 -8q95 0 205 8l8 -8l-4 -43l-9 -8q-80 -4 -101 -7t-33 -16t-26 -84t-35 -168h168l-12 -77h-171q-49 -260 -99 -561.5t-50 -331.5t13 -41t150 -17l6 -8l-5 -43
l-9 -8l-262 8q-105 0 -223 -8l-7 8l4 43l9 8q108 5 119.5 14.5t25.5 38.5t64 307l52 286l-396 4q-108 0 -267 -5l-92 -2q-93 -535 -93 -575t13 -51t150 -17l6 -8l-5 -43l-9 -8l-263 8q-104 0 -222 -8l-7 8l3 43l10 8q87 5 102.5 9t23.5 11.5t21.5 41.5t46.5 215l59 325
q27 145 61 349h-177l12 77h177q31 181 31 217t-22.5 44.5t-138.5 13.5l-7 8l5 43l9 8l280 -8q94 0 205 8l7 -8l-3 -43l-9 -8q-81 -4 -102 -7t-32.5 -16t-20.5 -59l-40 -193h750q30 183 30 218z" />
    <glyph glyph-name="hbar" unicode="&#x127;" 
d="M765 107q31 0 169 101l10 -3l12 -26l-2 -11q-83 -68 -186.5 -133.5t-131.5 -65.5q-54 0 -54 84q0 26 3 41.5t34 149.5l57 248q59 242 59 295q0 36 -40 36q-66 0 -206 -121q-70 -62 -131 -149t-91 -166t-52 -183l-37 -198q-122 -25 -139 -33l-13 14q146 539 241 1137h-158
l-6 8l12 52l8 8h156q16 97 16 118t-15 30t-56 9l-84 1l-8 8l4 25l7 9q188 30 315 79l25 -19q-27 -104 -58 -260h198l8 -8l-9 -52l-8 -8h-203l-122 -575l7 -4q185 243 330.5 328.5t222.5 85.5q25 0 40 -17.5t15 -47.5t-82 -354q-82 -323 -82 -401q0 -17 8.5 -24.5t16.5 -7.5z
" />
    <glyph glyph-name="Itilde" unicode="&#x128;" horiz-adv-x="682" 
d="M389 1300q-1 32 -23 40t-138 14l-7 8l5 43l9 8l280 -8q95 0 205 8l7 -8l-3 -43l-9 -8q-105 -6 -117 -11t-18 -13q-21 -23 -96 -440l-81 -470q-47 -286 -47 -314t13 -38q13 -11 150 -17l6 -8l-5 -43l-9 -8l-263 8q-103 0 -222 -8l-7 8l3 43l10 8q108 6 124 18q15 12 28 59
q13 46 54 269l65 355l59 346q27 170 27 202zM710 1602q-56 0 -139 28l-105 41q-69 27 -115 27q-72 0 -111 -105h-40l-8 6q12 83 70 149t134 66q47 0 191 -61q92 -35 135 -35q90 0 122 92h38l6 -5q-14 -77 -68 -140t-110 -63z" />
    <glyph glyph-name="itilde" unicode="&#x129;" horiz-adv-x="569" 
d="M404 958q42 0 41 -53q0 -53 -85 -370q-85 -316 -85 -390q0 -40 28 -40q43 0 156 85l10 -3l11 -26l-2 -12q-177 -136 -229 -159q-51 -22 -77 -22t-43 26t-17 74t54 239t82 321t27 162q0 32 -23 31q-15 1 -29 -7t-126 -73l-11 4l-10 23l3 13q246 177 325 177zM537 1163
q-38 0 -122 30l-103 36q-69 24 -105 24q-70 0 -102 -100h-42l-7 8q49 205 192 205q48 0 112 -24l96 -37q78 -30 110 -30q72 0 103 96h36l8 -7q-44 -201 -176 -201z" />
    <glyph glyph-name="Imacron" unicode="&#x12a;" horiz-adv-x="682" 
d="M389 1300q-1 32 -23 40t-138 14l-7 8l5 43l9 8l280 -8q95 0 205 8l7 -8l-3 -43l-9 -8q-105 -6 -117 -11t-18 -13q-21 -23 -96 -440l-81 -470q-47 -286 -47 -314t13 -38q13 -11 150 -17l6 -8l-5 -43l-9 -8l-263 8q-103 0 -222 -8l-7 8l3 43l10 8q108 6 124 18q15 12 28 59
q13 46 54 269l65 355l59 346q27 170 27 202zM825 1750l-17 -90h-618l17 90h618z" />
    <glyph glyph-name="imacron" unicode="&#x12b;" horiz-adv-x="569" 
d="M404 958q42 0 41 -53q0 -53 -85 -370q-85 -316 -85 -390q0 -40 28 -40q43 0 156 85l10 -3l11 -26l-2 -12q-177 -136 -229 -159q-51 -22 -77 -22t-43 26t-17 74t54 239t82 321t27 162q0 32 -23 31q-15 1 -29 -7t-126 -73l-11 4l-10 23l3 13q246 177 325 177zM657 1287
l-23 -94h-544l25 94h542z" />
    <glyph glyph-name="Ibreve" unicode="&#x12c;" horiz-adv-x="682" 
d="M389 1300q-1 32 -23 40t-138 14l-7 8l5 43l9 8l280 -8q95 0 205 8l7 -8l-3 -43l-9 -8q-105 -6 -117 -11t-18 -13q-21 -23 -96 -440l-81 -470q-47 -286 -47 -314t13 -38q13 -11 150 -17l6 -8l-5 -43l-9 -8l-263 8q-103 0 -222 -8l-7 8l3 43l10 8q108 6 124 18q15 12 28 59
q13 46 54 269l65 355l59 346q27 170 27 202zM542 1650q183 0 268 202h59q-84 -325 -340 -325q-125 1 -197 73t-73 199q0 19 2 53h57q16 -202 224 -202z" />
    <glyph glyph-name="ibreve" unicode="&#x12d;" horiz-adv-x="569" 
d="M404 958q42 0 41 -53q0 -53 -85 -370q-85 -316 -85 -390q0 -40 28 -40q43 0 156 85l10 -3l11 -26l-2 -12q-177 -136 -229 -159q-51 -22 -77 -22t-43 26t-17 74t54 239t82 321t27 162q0 32 -23 31q-15 1 -29 -7t-126 -73l-11 4l-10 23l3 13q246 177 325 177zM369 1113
q-109 0 -178 73t-69 195q0 12 4 47l36 -1q0 -89 64 -145t160 -56q182 0 268 201l40 1q-61 -315 -325 -315z" />
    <glyph glyph-name="Iogonek" unicode="&#x12e;" horiz-adv-x="682" 
d="M208 -206q0 -95 83 -95q69 0 121 73l8 2l21 -11l2 -7q-103 -176 -209 -176q-66 0 -110 38t-44 96q0 109 172 286h-4q-103 0 -222 -8l-7 8l3 43l10 8q120 2 136.5 31t69.5 315l65 355l59 346q27 158 27 191t-18 48t-143 17l-7 8l5 43l9 8l280 -8q95 0 205 8l7 -8l-3 -43
l-9 -8q-109 -5 -132 -16.5t-99 -447.5l-81 -470q-47 -273 -47 -324q0 -18 20.5 -29t142.5 -16l6 -8l-5 -43l-9 -8q-20 0 -64 2l-136 5q-103 -150 -103 -205z" />
    <glyph glyph-name="iogonek" unicode="&#x12f;" horiz-adv-x="569" 
d="M130 -186q0 -80 62 -80t107 46l7 2l15 -10l2 -7q-84 -124 -193 -124q-47 0 -75 32.5t-28 75.5q0 91 129 223q-44 16 -44 78t43 216q120 427 120 521q0 34 -20 34t-158 -80l-11 4l-10 23l3 13q246 177 325 177q41 0 41 -54t-85 -370t-85 -389q0 -40 28 -40q43 0 156 85
l10 -3l11 -26l-2 -12q-145 -113 -264 -176q-84 -109 -84 -159zM462 1437q76 0 76 -81q0 -55 -31 -97t-78 -42q-82 0 -82 86q0 51 32.5 92.5t82.5 41.5z" />
    <glyph glyph-name="Idotaccent" unicode="&#x130;" horiz-adv-x="682" 
d="M389 1300q-1 32 -23 40t-138 14l-7 8l5 43l9 8l280 -8q95 0 205 8l7 -8l-3 -43l-9 -8q-105 -6 -117 -11t-18 -13q-21 -23 -96 -440l-81 -470q-47 -286 -47 -314t13 -38q13 -11 150 -17l6 -8l-5 -43l-9 -8l-263 8q-103 0 -222 -8l-7 8l3 43l10 8q108 6 124 18q15 12 28 59
q13 46 54 269l65 355l59 346q27 170 27 202zM528 1607q-94 0 -94 100q0 48 35 85t83 37q96 0 96 -91q0 -54 -34 -92t-86 -39z" />
    <glyph glyph-name="dotlessi" unicode="&#x131;" horiz-adv-x="569" 
d="M404 958q42 0 41.5 -53t-85.5 -369.5t-85 -390.5q0 -40 28 -40q43 0 156 85l10 -3l11 -26l-2 -12q-177 -136 -229 -158.5t-77.5 -22.5t-42.5 26t-17 74t54 239t81.5 321t27.5 161.5t-23 31.5q-15 0 -29 -7.5t-126 -72.5l-11 4l-10 23l3 13q246 177 325 177z" />
    <glyph glyph-name="Jcircumflex" unicode="&#x134;" horiz-adv-x="682" 
d="M13 -426q-34 0 -77 19l-4 44l8 9q25 -10 50 -10q84 0 128 98t105 500l139 904q21 137 21 163q-1 27 -27 39t-150 14l-6 8l5 43l9 8q26 0 89 -2l206 -6q90 0 205 8l7 -8l-3 -43l-9 -8q-118 -6 -132 -18t-51 -207t-64 -371l-105 -680q-42 -270 -141 -387t-203 -117z
M777 1533h-54l-187 236l-292 -236h-57l-5 10l319 326h106l178 -326z" />
    <glyph glyph-name="jcircumflex" unicode="&#x135;" horiz-adv-x="569" 
d="M-22 -481q24 0 45 21.5t42 70.5t43 169.5t67 344.5l96 473l27 158q3 18 3 32q0 35 -30 35q-35 0 -160 -81l-11 4l-11 23l4 14q253 178 331 178q45 1 45 -53t-54 -293l-102 -451q-104 -460 -193.5 -599t-183.5 -139q-25 0 -72 17l16 97l17 10q57 -31 81 -31zM695 1098
l-4 -8l-62 -1l-108 151l-73 96l-120 -104q-39 -34 -159 -142h-89l-3 10l191 196l143 156h102q78 -164 182 -354z" />
    <glyph glyph-name="uni0136" unicode="&#x136;" horiz-adv-x="1366" 
d="M1256 1406q56 0 130 7l8 -8l-4 -43l-8 -8q-62 -1 -90 -15t-97 -79l-548 -516l446 -548q77 -92 107 -114t113 -30l6 -8l-4 -44l-9 -8q-73 8 -122 8t-144 -8q-237 341 -564 698q-93 -531 -93 -594q1 -18 21 -29t142 -16l6 -8l-5 -43l-9 -8l-263 8q-103 0 -222 -8l-7 8l3 43
l10 8q121 2 137 31t69 315l65 355l59 346q27 158 27 191t-18 48t-143 17l-7 8l5 43l9 8l280 -8q95 0 205 8l7 -8l-3 -43l-9 -8q-102 -6 -120 -12t-31 -50q-14 -44 -54 -264l-57 -313q152 113 353 318l240 245q37 39 44 57t8 70l8 8q67 -7 123 -7zM729 -384q0 28 -45 28
q-102 0 -102 91q0 52 36 95t101 43q119 0 119 -140q0 -107 -89 -201t-240 -108l-1 23q113 23 167 73t54 96z" />
    <glyph glyph-name="uni0137" unicode="&#x137;" horiz-adv-x="909" 
d="M847 975q28 0 69 -16l-34 -140q-44 14 -91 14t-100 -22q-92 -38 -233 -181q34 -107 92 -251t87 -202q30 -58 47 -69t37 -11t95 46l31 19l11 -3l10 -24l-3 -12q-209 -154 -245 -154q-16 1 -28 7q-33 18 -86 145q-54 127 -149 394q-87 -107 -111 -163q-23 -56 -47 -200
l-24 -142l-136 -36l-17 13l49 190q31 121 91 415t87 446l37 209q7 39 7 61q1 22 -13 31q-14 10 -58 10l-84 1l-8 8l3 25l8 9q186 29 315 79l25 -19q-35 -144 -93 -421l-58 -276q-36 -171 -66 -289q78 112 198 248q232 261 385 261zM374 -373q0 27 -43 27q-97 0 -97 87
q0 48 34 89t96 41q113 0 113 -132q0 -103 -85 -192t-228 -102v22q106 22 158 70t52 90z" />
    <glyph glyph-name="kgreenlandic" unicode="&#x138;" horiz-adv-x="909" 
d="M847 975q28 0 69 -16l-34 -140q-44 14 -84 14q-105 0 -216 -89q-57 -46 -124 -114q88 -277 179 -453q41 -80 76 -80q28 0 103 46l31 19l11 -3l10 -24l-3 -12q-209 -154 -251 -154q-56 0 -144 235q-48 130 -113 311q-51 -64 -71 -90t-42 -77t-45 -196l-24 -142l-136 -36
l-17 13l49 190q9 34 61 308t53 308q1 33 -15 45t-62 11l-78 -1l-8 8l3 25l8 9q186 29 315 79l25 -19q-32 -153 -109 -484q78 112 254 310.5t329 198.5z" />
    <glyph glyph-name="Lacute" unicode="&#x139;" horiz-adv-x="1139" 
d="M365 1296q0 28 -13 41q-13 12 -148 17l-7 9l5 42l10 8q122 -8 276 -8t229 8l8 -8l-5 -43l-8 -9q-122 -10 -140 -16t-30 -40t-56 -275l-120 -705q-24 -152 -27 -228q111 -12 223 -12q112 -1 187 3t119 12t54 16t19 20q8 13 25 70l37 129l9 8h43l8 -9q-38 -235 -47 -325
l-9 -8l-353 4l-461 3q-69 0 -137 -7l-8 7l5 43l8 8q56 10 65 15q10 5 20 19t23 64t66 335l97 561q33 223 33 251zM847 1845q-125 -85 -407 -299l-13 2l-23 19l1 13l255 271l178 18z" />
    <glyph glyph-name="lacute" unicode="&#x13a;" horiz-adv-x="569" 
d="M137 -30q-61 0 -61 84q0 42 13 106t86 396q73 331 101 490l35 200q7 40 7 62t-16 32q-16 9 -54 9l-84 1l-8 8l3 25l8 9q188 30 314 79l26 -19q-39 -163 -153 -710t-113 -594q1 -46 33 -46t142 83l29 21l10 -3l11 -26l-3 -12q-242 -195 -326 -195zM652 1906l-346 -329
l-13 -1l-22 19l-2 9q35 45 121 166l107 159l141 3z" />
    <glyph glyph-name="uni013B" unicode="&#x13b;" horiz-adv-x="1139" 
d="M365 1296q0 28 -13 41q-13 12 -148 17l-7 9l5 42l10 8q122 -8 276 -8t229 8l8 -8l-5 -43l-8 -9q-122 -10 -140 -16t-30 -40t-56 -275l-120 -705q-24 -152 -27 -228q111 -12 223 -12q112 -1 187 3t119 12t54 16t19 20q8 13 25 70l37 129l9 8h43l8 -9q-38 -235 -47 -325
l-9 -8l-353 4l-461 3q-69 0 -137 -7l-8 7l5 43l8 8q56 10 65 15q10 5 20 19t23 64t66 335l97 561q33 223 33 251zM599 -384q0 28 -45 28q-102 0 -102 91q0 52 36 95t101 43q119 0 119 -140q0 -107 -89 -201t-240 -108l-1 23q113 23 167 73t54 96z" />
    <glyph glyph-name="uni013C" unicode="&#x13c;" horiz-adv-x="569" 
d="M137 -30q-61 0 -61 84q0 42 13 106t86 396q73 331 101 490l35 200q7 40 7 62t-16 32q-16 9 -54 9l-84 1l-8 8l3 25l8 9q188 30 314 79l26 -19q-39 -163 -153 -710t-113 -594q1 -46 33 -46t142 83l29 21l10 -3l11 -26l-3 -12q-242 -195 -326 -195zM174 -373q0 27 -43 27
q-97 0 -97 87q0 48 34 89t96 41q113 0 113 -132q0 -103 -85 -192t-228 -102v22q106 22 158 70t52 90z" />
    <glyph glyph-name="Lcaron" unicode="&#x13d;" horiz-adv-x="1139" 
d="M365 1296q0 28 -13 41q-13 12 -148 17l-7 9l5 42l10 8q122 -8 276 -8t229 8l8 -8l-5 -43l-8 -9q-122 -10 -140 -16t-30 -40t-56 -275l-120 -705q-24 -152 -27 -228q111 -12 223 -12q112 -1 187 3t119 12t54 16t19 20q8 13 25 70l37 129l9 8h43l8 -9q-38 -235 -47 -325
l-9 -8l-353 4l-461 3q-69 0 -137 -7l-8 7l5 43l8 8q56 10 65 15q10 5 20 19t23 64t66 335l97 561q33 223 33 251zM1001 1156q0 28 -45 28q-102 0 -102 91q0 52 36 95t101 43q119 0 119 -140q0 -107 -89 -201t-240 -108l-1 23q113 23 167 73t54 96z" />
    <glyph glyph-name="lcaron" unicode="&#x13e;" horiz-adv-x="790" 
d="M137 -30q-61 0 -61 84q0 42 13 106t86 396q73 331 101 490l35 200q7 40 7 62t-16 32q-16 9 -54 9l-84 1l-8 8l3 25l8 9q188 30 314 79l26 -19q-39 -163 -153 -710t-113 -594q1 -46 33 -46t142 83l29 21l10 -3l11 -26l-3 -12q-242 -195 -326 -195zM754 1233q0 27 -43 27
q-97 0 -97 87q0 48 34 89t96 41q113 0 113 -132q0 -103 -85 -192t-228 -102v22q106 22 158 70t52 90z" />
    <glyph glyph-name="Ldot" unicode="&#x13f;" horiz-adv-x="1139" 
d="M365 1296q0 28 -13 41q-13 12 -148 17l-7 9l5 42l10 8q122 -8 276 -8t229 8l8 -8l-5 -43l-8 -9q-122 -10 -140 -16t-30 -40t-56 -275l-120 -705q-24 -152 -27 -228q111 -12 223 -12q112 -1 187 3t119 12t54 16t19 20q8 13 25 70l37 129l9 8h43l8 -9q-38 -235 -47 -325
l-9 -8l-353 4l-461 3q-69 0 -137 -7l-8 7l5 43l8 8q56 10 65 15q10 5 20 19t23 64t66 335l97 561q33 223 33 251zM827 695q-94 0 -94 100q0 48 35 85t83 37q96 0 96 -91q0 -54 -34 -92t-86 -39z" />
    <glyph glyph-name="ldot" unicode="&#x140;" horiz-adv-x="645" 
d="M137 -30q-61 0 -61 84q0 42 13 106t86 396q73 331 101 490l35 200q7 40 7 62t-16 32q-16 9 -54 9l-84 1l-8 8l3 25l8 9q188 30 314 79l26 -19q-39 -163 -153 -710t-113 -594q1 -46 33 -46t142 83l29 21l10 -3l11 -26l-3 -12q-242 -195 -326 -195zM569 702q-81 0 -81 89
q0 51 30 91t83 40q78 0 78 -80q1 -56 -31 -98t-79 -42z" />
    <glyph glyph-name="Lslash" unicode="&#x141;" horiz-adv-x="1139" 
d="M365 1298q0 26 -13 38.5t-148 17.5l-7 9l6 42l9 8q123 -8 277 -8t229 8l8 -8l-5 -43l-8 -9l-94 -7q-37 -3 -51 -10t-29.5 -48.5t-93.5 -500.5l363 193l12 -3l18 -43l-3 -12l-403 -214l-49 -288l-29 -187q-13 -86 -15 -144q113 -12 225 -12t221 5.5t134 22t48 96.5l36 126
l10 8h42l8 -9q-36 -222 -46 -325l-9 -8l-353 4l-462 3q-74 0 -137 -7l-8 7l5 43l9 8q55 10 65 15.5t24.5 27.5t66.5 299l41 223l-181 -96l-12 3l-18 42l3 12l222 118q45 247 68.5 412t23.5 191z" />
    <glyph glyph-name="lslash" unicode="&#x142;" horiz-adv-x="569" 
d="M138 -30q-62 0 -62 84q0 31 4 58.5t46 217.5l79 364l-185 -116l-12 3l-18 45l3 11l230 143q95 472 95 512t-15.5 48.5t-54.5 8.5l-84 1l-8 8l3 25l8 9q186 30 314 79l26 -19q-16 -69 -123 -572l210 131l13 -3l18 -44l-3 -12l-256 -159q-125 -595 -125 -643t33 -48
t171 104l10 -3l11 -26l-3 -12q-242 -195 -325 -195z" />
    <glyph glyph-name="Nacute" unicode="&#x143;" horiz-adv-x="1593" 
d="M330 1406q89 0 159 7q10 -21 64 -119l73 -131l560 -950l155 923l16 121q4 30 4 48q-1 19 -19 29t-92 16l-49 4l-8 8l4 43l8 8q69 -3 217 -3t208 3l7 -8l-3 -43l-8 -8q-124 -6 -136 -28t-61 -268l-72 -365l-66 -381q-27 -156 -49 -339h-102q-10 21 -53 100l-63 112
l-569 966l-99 -541l-39 -255q-29 -189 -29 -231t24 -56t74 -14t72 -3l7 -7l-4 -43l-9 -9q-108 8 -206 8t-225 -8l-8 8l4 44l9 8q88 4 111 18t47 90q24 78 103 522l96 566q-43 67 -83 85t-138 21l-6 8l3 43l9 8q73 -7 162 -7zM1272 1845q-125 -85 -407 -299l-13 2l-23 19
l1 13l255 271l178 18z" />
    <glyph glyph-name="nacute" unicode="&#x144;" horiz-adv-x="1139" 
d="M725 -31q-60 0 -60 67t78 370q78 302 78 360t-38 59q-75 0 -216 -128q-141 -129 -217 -325q-34 -90 -49 -152q-15 -64 -42 -213q-69 -11 -141 -32l-13 17q65 199 115 459t51 330q0 39 -27 39q-37 0 -154 -79l-12 3l-9 22l3 15q115 87 199 132q84 46 117 46q49 -1 49 -53
q1 -52 -21 -137t-66 -267l7 -2q74 121 182 232t223 169t169 58q60 1 60 -67t-81 -380t-81 -361q0 -50 27 -50q33 0 168 96l11 -3l11 -26l-3 -12q-62 -50 -166 -119q-105 -68 -152 -68zM942 1428l-346 -329l-13 -1l-22 19l-2 9q35 45 121 166l107 159l141 3z" />
    <glyph glyph-name="uni0145" unicode="&#x145;" horiz-adv-x="1593" 
d="M330 1406q89 0 159 7q10 -21 64 -119l73 -131l560 -950l155 923l16 121q4 30 4 48q-1 19 -19 29t-92 16l-49 4l-8 8l4 43l8 8q69 -3 217 -3t208 3l7 -8l-3 -43l-8 -8q-124 -6 -136 -28t-61 -268l-72 -365l-66 -381q-27 -156 -49 -339h-102q-10 21 -53 100l-63 112
l-569 966l-99 -541l-39 -255q-29 -189 -29 -231t24 -56t74 -14t72 -3l7 -7l-4 -43l-9 -9q-108 8 -206 8t-225 -8l-8 8l4 44l9 8q88 4 111 18t47 90q24 78 103 522l96 566q-43 67 -83 85t-138 21l-6 8l3 43l9 8q73 -7 162 -7zM749 -384q0 28 -45 28q-102 0 -102 91
q0 52 36 95t101 43q119 0 119 -140q0 -107 -89 -201t-240 -108l-1 23q113 23 167 73t54 96z" />
    <glyph glyph-name="uni0146" unicode="&#x146;" horiz-adv-x="1139" 
d="M725 -31q-60 0 -60 67t78 370q78 302 78 360t-38 59q-75 0 -216 -128q-141 -129 -217 -325q-34 -90 -49 -152q-15 -64 -42 -213q-69 -11 -141 -32l-13 17q65 199 115 459t51 330q0 39 -27 39q-37 0 -154 -79l-12 3l-9 22l3 15q115 87 199 132q84 46 117 46q49 -1 49 -53
q1 -52 -21 -137t-66 -267l7 -2q74 121 182 232t223 169t169 58q60 1 60 -67t-81 -380t-81 -361q0 -50 27 -50q33 0 168 96l11 -3l11 -26l-3 -12q-62 -50 -166 -119q-105 -68 -152 -68zM474 -373q0 27 -43 27q-97 0 -97 87q0 48 34 89t96 41q113 0 113 -132q0 -103 -85 -192
t-228 -102v22q106 22 158 70t52 90z" />
    <glyph glyph-name="Ncaron" unicode="&#x147;" horiz-adv-x="1593" 
d="M330 1406q89 0 159 7q10 -21 64 -119l73 -131l560 -950l155 923l16 121q4 30 4 48q-1 19 -19 29t-92 16l-49 4l-8 8l4 43l8 8q69 -3 217 -3t208 3l7 -8l-3 -43l-8 -8q-124 -6 -136 -28t-61 -268l-72 -365l-66 -381q-27 -156 -49 -339h-102q-10 21 -53 100l-63 112
l-569 966l-99 -541l-39 -255q-29 -189 -29 -231t24 -56t74 -14t72 -3l7 -7l-4 -43l-9 -9q-108 8 -206 8t-225 -8l-8 8l4 44l9 8q88 4 111 18t47 90q24 78 103 522l96 566q-43 67 -83 85t-138 21l-6 8l3 43l9 8q73 -7 162 -7zM1275 1869l8 -10l-324 -326h-105l-176 328l10 8
h40l197 -236l302 236h48z" />
    <glyph glyph-name="ncaron" unicode="&#x148;" horiz-adv-x="1139" 
d="M725 -31q-60 0 -60 67t78 370q78 302 78 360t-38 59q-75 0 -216 -128q-141 -129 -217 -325q-34 -90 -49 -152q-15 -64 -42 -213q-69 -11 -141 -32l-13 17q65 199 115 459t51 330q0 39 -27 39q-37 0 -154 -79l-12 3l-9 22l3 15q115 87 199 132q84 46 117 46q49 -1 49 -53
q1 -52 -21 -137t-66 -267l7 -2q74 121 182 232t223 169t169 58q60 1 60 -67t-81 -380t-81 -361q0 -50 27 -50q33 0 168 96l11 -3l11 -26l-3 -12q-62 -50 -166 -119q-105 -68 -152 -68zM1013 1446l-191 -209q-39 -42 -129 -147h-72q-33 54 -200 358l6 6h62l172 -246
q121 101 270 246h80z" />
    <glyph glyph-name="napostrophe" unicode="&#x149;" horiz-adv-x="1198" 
d="M784 -31q-60 0 -60 67t78 370q78 302 78 360t-38 59q-75 0 -216 -128q-140 -129 -216 -325q-34 -90 -50 -152q-15 -64 -42 -213q-69 -11 -141 -32l-13 17q66 199 116 459t50 330q0 39 -27 39q-37 0 -154 -79l-12 3l-9 22l3 15q115 87 199 132q84 46 117 46q49 -1 49 -53
t-22 -137t-65 -267l7 -2q74 121 182 232t223 169t169 58q60 1 60 -67t-81 -380t-81 -361q0 -50 27 -50q33 0 168 96l11 -3l11 -26l-3 -12q-62 -50 -166 -119q-105 -68 -152 -68zM210 1148q0 27 -43 27q-97 0 -97 87q0 48 34 89t96 41q113 0 113 -132q0 -103 -85 -192
t-228 -102v22q106 22 158 70t52 90z" />
    <glyph glyph-name="Eng" unicode="&#x14a;" horiz-adv-x="1593" 
d="M992 -461q-62 0 -119 28l-4 15q34 82 45 102h14q40 -26 85 -26q95 0 129 173l28 142h-30q-10 21 -53 100l-63 112l-569 966l-99 -541l-39 -255q-29 -190 -29 -231t24 -55.5t74 -14.5t72 -3l7 -7l-4 -43l-9 -9q-108 8 -206 8t-225 -8l-8 8l4 44l9 8q82 3 98.5 9t30.5 24.5
t39 123t97.5 501.5t91.5 538q-42 67 -82.5 85t-138.5 21l-6 8l3 43l9 8q73 -7 162 -7t159 7q10 -21 64 -119l73 -131l552 -945l163 918l16 121q4 30 4 50t-18.5 28.5t-92.5 14.5l-49 4l-8 8l4 43l8 8q69 -3 217 -3t208 3l7 -8l-3 -43l-8 -8q-123 -7 -135.5 -28.5
t-61.5 -267.5l-228 -1187q-42 -216 -94.5 -274t-114.5 -58z" />
    <glyph glyph-name="eng" unicode="&#x14b;" horiz-adv-x="1097" 
d="M438 753q167 216 372 216q87 0 145.5 -45t58.5 -143q0 -49 -20 -152l-61 -332q-49 -269 -77 -385t-80 -230t-99 -169t-81 -71t-62 -16t-76 17l17 97l16 10q56 -31 81 -31q26 0 46.5 15.5t44 85t110.5 540.5q86 470 86 558t-43 122t-101 34t-117 -29.5t-111 -91
t-78.5 -137.5t-47.5 -219.5t-48 -359.5l-12 -18q-43 -12 -135 -51l-16 20q33 138 85.5 452t52.5 348t-34 34q-22 0 -46.5 -12.5t-109.5 -63.5l-13 4l-11 21l5 13q101 69 208 127t141 58t35 -33q0 -33 -38 -179z" />
    <glyph glyph-name="Omacron" unicode="&#x14c;" horiz-adv-x="1593" 
d="M299 588q1 -194 47 -306t152 -174q106 -61 274 -61q169 -1 299 95q129 96 205 305t76 428t-117 352t-343 133q-176 0 -306 -88t-208 -288q-78 -202 -79 -396zM120 548q0 338 188 588q107 142 268 224q161 80 355 80t323 -60q130 -60 204 -184q74 -125 74 -318
q0 -260 -124 -486t-315 -330t-408 -103q-259 0 -412 150q-153 151 -153 439zM1275 1750l-17 -90h-618l17 90h618z" />
    <glyph glyph-name="omacron" unicode="&#x14d;" horiz-adv-x="909" 
d="M497 896q-154 0 -226 -184t-72 -419q0 -87 17 -137t60 -80q44 -30 108 -31q64 0 114 35t95 130q86 182 86 434t-182 252zM558 969q122 -1 200 -71q79 -70 79 -240q-1 -170 -75 -341q-74 -172 -204 -260t-255 -88q-83 1 -145 39q-119 74 -119 268t65 351q64 157 198 249
t256 93zM897 1287l-23 -94h-544l25 94h542z" />
    <glyph glyph-name="Obreve" unicode="&#x14e;" horiz-adv-x="1593" 
d="M299 588q1 -194 47 -306t152 -174q106 -61 274 -61q169 -1 299 95q129 96 205 305t76 428t-117 352t-343 133q-176 0 -306 -88t-208 -288q-78 -202 -79 -396zM120 548q0 338 188 588q107 142 268 224q161 80 355 80t323 -60q130 -60 204 -184q74 -125 74 -318
q0 -260 -124 -486t-315 -330t-408 -103q-259 0 -412 150q-153 151 -153 439zM950 1650q183 0 268 202h59q-84 -325 -340 -325q-125 1 -197 73t-73 199q0 19 2 53h57q16 -202 224 -202z" />
    <glyph glyph-name="obreve" unicode="&#x14f;" horiz-adv-x="909" 
d="M497 896q-154 0 -226 -184t-72 -419q0 -87 17 -137t60 -80q44 -30 108 -31q64 0 114 35t95 130q86 182 86 434t-182 252zM558 969q122 -1 200 -71q79 -70 79 -240q-1 -170 -75 -341q-74 -172 -204 -260t-255 -88q-83 1 -145 39q-119 74 -119 268t65 351q64 157 198 249
t256 93zM539 1113q-109 0 -178 73t-69 195q0 12 4 47l36 -1q0 -89 64 -145t160 -56q182 0 268 201l40 1q-61 -315 -325 -315z" />
    <glyph glyph-name="Ohungarumlaut" unicode="&#x150;" horiz-adv-x="1593" 
d="M299 588q1 -194 47 -306t152 -174q106 -61 274 -61q169 -1 299 95q129 96 205 305t76 428t-117 352t-343 133q-176 0 -306 -88t-208 -288q-78 -202 -79 -396zM120 548q0 338 188 588q107 142 268 224q161 80 355 80t323 -60q130 -60 204 -184q74 -125 74 -318
q0 -260 -124 -486t-315 -330t-408 -103q-259 0 -412 150q-153 151 -153 439zM1102 1835l-407 -285l-11 -2l-25 20l-2 12l255 271l176 16zM1462 1835l-408 -287h-10l-21 18l-2 14q103 116 251 271l177 16z" />
    <glyph glyph-name="ohungarumlaut" unicode="&#x151;" horiz-adv-x="909" 
d="M497 896q-154 0 -226 -184t-72 -419q0 -87 17 -137t60 -80q44 -30 108 -31q64 0 114 35t95 130q86 182 86 434t-182 252zM558 969q122 -1 200 -71q79 -70 79 -240q-1 -170 -75 -341q-74 -172 -204 -260t-255 -88q-83 1 -145 39q-119 74 -119 268t65 351q64 157 198 249
t256 93zM1030 1427q-24 -17 -348 -325l-13 -2l-20 11l-2 15q35 45 121 166l107 158l141 3zM730 1427q-59 -49 -350 -325l-13 -2l-18 11l-2 15q35 45 121 166l107 158l141 3z" />
    <glyph glyph-name="OE" unicode="&#x152;" horiz-adv-x="2105" 
d="M1254 1024q0 54 -17 114.5t-68 116t-116 80.5t-179 25t-224 -62.5t-186 -181.5t-110 -271.5t-34 -297.5q0 -242 110.5 -360t283.5 -118t304 109.5t172 378.5l55 355q9 58 9 112zM1136 184q-234 -215 -489 -215q-231 0 -367 146.5t-136 444.5q0 144 52.5 312.5t230 367
t517.5 198.5q276 0 374 -174q15 76 21 142l9 7l294 -8l215 3q107 2 168 5l8 -8q-2 -23 -17 -124l-20 -174l-8 -8h-35l-8 8q-10 158 -14 172.5t-20 24t-101.5 16.5t-154.5 7h-58q-39 0 -113 -9q-41 -181 -102 -550q102 -3 196 -3t292 13l7 -10l-38 -95q-234 11 -307 11
t-166 -2l-61 -363q-27 -164 -34 -225q141 -12 252 -12t200.5 6.5t109 15t31 28.5t28.5 86t28 100l9 8h42l7 -8q-14 -43 -30 -156.5t-18 -160.5l-13 -9l-298 5q-123 3 -207 3t-308 -8l-11 9q9 35 23 92t20 91z" />
    <glyph glyph-name="oe" unicode="&#x153;" horiz-adv-x="1370" 
d="M1181 789q0 98 -89 98q-75 0 -148 -57t-104.5 -159t-47.5 -197q224 49 306.5 133t82.5 182zM197 303q0 -258 185 -258q141 0 195.5 127t77.5 272.5t23 222.5t-20 124t-64 77t-103 30q-149 0 -221.5 -192.5t-72.5 -402.5zM1171 971q62 0 111 -38.5t49 -104.5t-28 -135.5
t-146.5 -135.5t-303.5 -116l-69 -19q-19 -114 -19 -184t42.5 -119t114.5 -49q125 0 316 144l11 -4l11 -25l-3 -14q-234 -201 -402 -201q-71 0 -133.5 35t-89.5 136q-142 -170 -326 -170q-126 0 -196 85.5t-70 247.5t58 312.5t190 251.5t270 101q68 0 122.5 -22.5t84 -57.5
t51.5 -88q215 170 355 170z" />
    <glyph glyph-name="Racute" unicode="&#x154;" horiz-adv-x="1366" 
d="M376 125q0 -54 71 -67q3 -1 113 -7l7 -8l-6 -43l-9 -8q-106 8 -248 8t-264 -8l-7 8l3 43l10 8q120 2 136 31t70 315l65 355l59 346q27 158 27 191t-18 48t-143 17l-7 8l5 43l9 8q78 -8 239 -8l332 7q196 0 284 -76t89 -209q0 -134 -109 -248t-315 -159q15 -24 67 -108
t194 -294t180 -238q38 -29 90 -29l6 -8l-3 -43l-8 -8q-84 6 -106 6t-153 -6q-3 3 -81 134l-63 106q-30 51 -86 135l-199 300l-58 79l10 24l83 -4q174 0 274 104t100 237q0 229 -279 229q-68 0 -155 -18l-120 -652l-72 -426q-14 -86 -14 -115zM1072 1845q-125 -85 -407 -299
l-13 2l-23 19l1 13l255 271l178 18z" />
    <glyph glyph-name="racute" unicode="&#x155;" horiz-adv-x="797" 
d="M265 770q0 58 -24 58q-30 0 -166 -90l-12 3l-10 22l3 15q90 71 188 130t144 59q40 0 40 -54t-73 -383q93 164 182 276t129 138t68 25q28 0 46 -8l4 -11q-15 -55 -34 -213l-28 -6q-29 40 -62 40q-32 0 -72 -23t-98 -93q-58 -71 -100 -159t-69 -193q-26 -105 -66 -298
q-101 -23 -136 -35l-18 14q70 228 117 478t47 308zM822 1428l-346 -329l-13 -1l-22 19l-2 9q35 45 121 166l107 159l141 3z" />
    <glyph glyph-name="uni0156" unicode="&#x156;" horiz-adv-x="1366" 
d="M376 125q0 -54 71 -67q3 -1 113 -7l7 -8l-6 -43l-9 -8q-106 8 -248 8t-264 -8l-7 8l3 43l10 8q120 2 136 31t70 315l65 355l59 346q27 158 27 191t-18 48t-143 17l-7 8l5 43l9 8q78 -8 239 -8l332 7q196 0 284 -76t89 -209q0 -134 -109 -248t-315 -159q15 -24 67 -108
t194 -294t180 -238q38 -29 90 -29l6 -8l-3 -43l-8 -8q-84 6 -106 6t-153 -6q-3 3 -81 134l-63 106q-30 51 -86 135l-199 300l-58 79l10 24l83 -4q174 0 274 104t100 237q0 229 -279 229q-68 0 -155 -18l-120 -652l-72 -426q-14 -86 -14 -115zM687 -384q0 28 -45 28
q-102 0 -102 91q0 52 36 95t101 43q119 0 119 -140q0 -107 -89 -201t-240 -108l-1 23q113 23 167 73t54 96z" />
    <glyph glyph-name="uni0157" unicode="&#x157;" horiz-adv-x="797" 
d="M265 770q0 58 -24 58q-30 0 -166 -90l-12 3l-10 22l3 15q90 71 188 130t144 59q40 0 40 -54t-73 -383q93 164 182 276t129 138t68 25q28 0 46 -8l4 -11q-15 -55 -34 -213l-28 -6q-29 40 -62 40q-32 0 -72 -23t-98 -93q-58 -71 -100 -159t-69 -193q-26 -105 -66 -298
q-101 -23 -136 -35l-18 14q70 228 117 478t47 308zM164 -373q0 27 -43 27q-97 0 -97 87q0 48 34 89t96 41q113 0 113 -132q0 -103 -85 -192t-228 -102v22q106 22 158 70t52 90z" />
    <glyph glyph-name="Rcaron" unicode="&#x158;" horiz-adv-x="1366" 
d="M376 125q0 -54 71 -67q3 -1 113 -7l7 -8l-6 -43l-9 -8q-106 8 -248 8t-264 -8l-7 8l3 43l10 8q120 2 136 31t70 315l65 355l59 346q27 158 27 191t-18 48t-143 17l-7 8l5 43l9 8q78 -8 239 -8l332 7q196 0 284 -76t89 -209q0 -134 -109 -248t-315 -159q15 -24 67 -108
t194 -294t180 -238q38 -29 90 -29l6 -8l-3 -43l-8 -8q-84 6 -106 6t-153 -6q-3 3 -81 134l-63 106q-30 51 -86 135l-199 300l-58 79l10 24l83 -4q174 0 274 104t100 237q0 229 -279 229q-68 0 -155 -18l-120 -652l-72 -426q-14 -86 -14 -115zM1105 1869l8 -10l-324 -326
h-105l-176 328l10 8h40l197 -236l302 236h48z" />
    <glyph glyph-name="rcaron" unicode="&#x159;" horiz-adv-x="797" 
d="M265 770q0 58 -24 58q-30 0 -166 -90l-12 3l-10 22l3 15q90 71 188 130t144 59q40 0 40 -54t-73 -383q93 164 182 276t129 138t68 25q28 0 46 -8l4 -11q-15 -55 -34 -213l-28 -6q-29 40 -62 40q-32 0 -72 -23t-98 -93q-58 -71 -100 -159t-69 -193q-26 -105 -66 -298
q-101 -23 -136 -35l-18 14q70 228 117 478t47 308zM860 1446l-191 -209q-39 -42 -129 -147h-72q-33 54 -200 358l6 6h62l172 -246q121 101 270 246h80z" />
    <glyph glyph-name="Sacute" unicode="&#x15a;" horiz-adv-x="1138" 
d="M488 55q179 1 268 103t89 234q-1 132 -99 183q-44 23 -173 52t-195 63q-138 71 -138 266q0 142 79 252t200 168t269 58t251 -62l4 -12q-24 -98 -45 -261l-8 -8h-44l-8 8v147q-78 92 -232 92q-90 0 -164 -38t-115 -112t-41 -156t30 -134t84 -75q54 -24 172 -51t162 -43
q44 -17 86 -53q86 -75 85 -213q1 -139 -87 -254q-192 -252 -503 -252q-163 0 -304 77l-4 12q35 132 49 292l10 9h42l7 -8l4 -192q73 -59 141 -75t128 -17zM1072 1845q-125 -85 -407 -299l-13 2l-23 19l1 13l255 271l178 18z" />
    <glyph glyph-name="sacute" unicode="&#x15b;" horiz-adv-x="797" 
d="M312 39q164 1 216 133q18 46 18 84q0 40 -12 70t-42 48t-120 35t-126 27q-37 10 -72 36q-76 56 -76 171t135 220q135 104 259 104t205 -48l4 -11q-17 -58 -22 -105l-12 -112l-8 -8h-31l-9 8q0 59 -3 115q-70 77 -176 77q-106 -1 -164 -55q-57 -54 -57 -123t38 -105
q39 -36 139 -51t140 -25t74 -34q73 -50 73 -145q0 -171 -195 -301q-127 -84 -238 -85q-111 0 -222 53l-4 11q35 158 41 254l8 8h34l8 -8v-161q90 -77 197 -77zM752 1428l-346 -329l-13 -1l-22 19l-2 9q35 45 121 166l107 159l141 3z" />
    <glyph glyph-name="Scircumflex" unicode="&#x15c;" horiz-adv-x="1138" 
d="M488 55q179 1 268 103t89 234q-1 132 -99 183q-44 23 -173 52t-195 63q-138 71 -138 266q0 142 79 252t200 168t269 58t251 -62l4 -12q-24 -98 -45 -261l-8 -8h-44l-8 8v147q-78 92 -232 92q-90 0 -164 -38t-115 -112t-41 -156t30 -134t84 -75q54 -24 172 -51t162 -43
q44 -17 86 -53q86 -75 85 -213q1 -139 -87 -254q-192 -252 -503 -252q-163 0 -304 77l-4 12q35 132 49 292l10 9h42l7 -8l4 -192q73 -59 141 -75t128 -17zM1037 1533h-54l-187 236l-292 -236h-57l-5 10l319 326h106l178 -326z" />
    <glyph glyph-name="scircumflex" unicode="&#x15d;" horiz-adv-x="797" 
d="M312 39q164 1 216 133q18 46 18 84q0 40 -12 70t-42 48t-120 35t-126 27q-37 10 -72 36q-76 56 -76 171t135 220q135 104 259 104t205 -48l4 -11q-17 -58 -22 -105l-12 -112l-8 -8h-31l-9 8q0 59 -3 115q-70 77 -176 77q-106 -1 -164 -55q-57 -54 -57 -123t38 -105
q39 -36 139 -51t140 -25t74 -34q73 -50 73 -145q0 -171 -195 -301q-127 -84 -238 -85q-111 0 -222 53l-4 11q35 158 41 254l8 8h34l8 -8v-161q90 -77 197 -77zM779 1098l-3 -8l-62 -1l-108 151l-73 96l-120 -104q-39 -34 -159 -142h-89l-3 10l191 196l143 156h102
q76 -160 181 -354z" />
    <glyph glyph-name="Scedilla" unicode="&#x15e;" horiz-adv-x="1138" 
d="M443 -130q73 0 120 -37t47 -107t-65.5 -118.5t-164.5 -48.5t-190 39l-3 12l16 24l11 4q50 -21 112 -21t101.5 29.5t39.5 69.5t-27.5 61t-65.5 21t-72 -10l-15 16l99 154q-147 6 -275 76l-4 12q35 132 49 292l10 9h42l7 -8l4 -192q115 -92 261 -92t255.5 82.5t109.5 253.5
q0 140 -77.5 174.5t-209.5 64.5t-225 86.5t-93 247.5q0 190 156 330t393 140q146 0 250 -62l4 -12q-24 -98 -45 -261l-8 -8h-44l-8 8v147q-78 92 -232 92t-237 -92.5t-83 -226.5t76 -175.5t214 -73.5t194 -58.5t95.5 -88.5t39.5 -155q0 -192 -167 -348t-392 -162l-52 -93
q23 5 49 5z" />
    <glyph glyph-name="scedilla" unicode="&#x15f;" horiz-adv-x="797" 
d="M290 -125q49 0 100.5 -34.5t51.5 -104.5t-72 -120t-162 -50t-187 41l-2 10l18 30l10 2q85 -21 133 -21t85 29t37 75q0 85 -108 85q-26 0 -53 -7l-15 11l90 139q-90 5 -188 52l-4 11q35 158 41 254l8 8h34l8 -8v-161q90 -77 195 -77t170.5 60t65.5 165q0 66 -35 96.5
t-143 50.5t-151.5 34t-81 67t-37.5 119q0 133 139 234.5t259 101.5t201 -48l4 -11q-17 -58 -22 -105l-12 -112l-8 -8h-31l-9 8q0 59 -3 115q-70 77 -174 77t-163.5 -51.5t-59.5 -133.5q0 -123 182 -150q109 -16 162 -33.5t86.5 -61t33.5 -108.5q0 -145 -134 -260t-280 -125
l-54 -91q26 6 75 6z" />
    <glyph glyph-name="Scaron" unicode="&#x160;" horiz-adv-x="1138" 
d="M488 55q179 1 268 103t89 234q-1 132 -99 183q-44 23 -173 52t-195 63q-138 71 -138 266q0 142 79 252t200 168t269 58t251 -62l4 -12q-24 -98 -45 -261l-8 -8h-44l-8 8v147q-78 92 -232 92q-90 0 -164 -38t-115 -112t-41 -156t30 -134t84 -75q54 -24 172 -51t162 -43
q44 -17 86 -53q86 -75 85 -213q1 -139 -87 -254q-192 -252 -503 -252q-163 0 -304 77l-4 12q35 132 49 292l10 9h42l7 -8l4 -192q73 -59 141 -75t128 -17zM1085 1869l8 -10l-324 -326h-105l-176 328l10 8h40l197 -236l302 236h48z" />
    <glyph glyph-name="scaron" unicode="&#x161;" horiz-adv-x="797" 
d="M312 39q164 1 216 133q18 46 18 84q0 40 -12 70t-42 48t-120 35t-126 27q-37 10 -72 36q-76 56 -76 171t135 220q135 104 259 104t205 -48l4 -11q-17 -58 -22 -105l-12 -112l-8 -8h-31l-9 8q0 59 -3 115q-70 77 -176 77q-106 -1 -164 -55q-57 -54 -57 -123t38 -105
q39 -36 139 -51t140 -25t74 -34q73 -50 73 -145q0 -171 -195 -301q-127 -84 -238 -85q-111 0 -222 53l-4 11q35 158 41 254l8 8h34l8 -8v-161q90 -77 197 -77zM810 1446l-191 -209q-39 -42 -129 -147h-72q-33 54 -200 358l6 6h62l172 -246q121 101 270 246h80z" />
    <glyph glyph-name="uni0162" unicode="&#x162;" horiz-adv-x="1252" 
d="M644 121q0 -38 20 -51t167 -18l8 -9l-4 -43l-9 -8q-168 8 -294 8t-256 -8l-7 8l4 44l8 7q119 9 141 17t30 19q8 9 16 41q9 32 51 242q107 536 152 947q-331 0 -373 -16t-84 -216l-9 -8h-40l-8 8q31 254 33 318l10 10l73 -5q16 -1 68 -2l418 -8l503 9q9 0 68 6l9 -10
q-26 -98 -52 -317l-10 -9h-40l-8 9q10 178 -14 210q-16 22 -373 21q-10 -43 -43 -230l-66 -371q-13 -67 -51 -312t-38 -283zM539 -384q0 28 -45 28q-102 0 -102 91q0 52 36 95t101 43q119 0 119 -140q0 -107 -89 -201t-240 -108l-1 23q113 23 167 73t54 96z" />
    <glyph glyph-name="uni0162" unicode="&#x21a;" horiz-adv-x="1252" 
d="M644 121q0 -38 20 -51t167 -18l8 -9l-4 -43l-9 -8q-168 8 -294 8t-256 -8l-7 8l4 44l8 7q119 9 141 17t30 19q8 9 16 41q9 32 51 242q107 536 152 947q-331 0 -373 -16t-84 -216l-9 -8h-40l-8 8q31 254 33 318l10 10l73 -5q16 -1 68 -2l418 -8l503 9q9 0 68 6l9 -10
q-26 -98 -52 -317l-10 -9h-40l-8 9q10 178 -14 210q-16 22 -373 21q-10 -43 -43 -230l-66 -371q-13 -67 -51 -312t-38 -283zM539 -384q0 28 -45 28q-102 0 -102 91q0 52 36 95t101 43q119 0 119 -140q0 -107 -89 -201t-240 -108l-1 23q113 23 167 73t54 96z" />
    <glyph glyph-name="uni0163" unicode="&#x163;" horiz-adv-x="682" 
d="M209 -33q-65 1 -65 109q0 54 36 218t98 489l-163 -4l-7 8l3 17l8 8q107 38 172 73q19 88 52 345q107 45 157 72l24 -18l-39 -153q-7 -29 -53 -258q44 -3 108 -3t105 14l10 -8l-23 -98q-37 0 -218 5q-111 -533 -111 -628q0 -46 37 -46t161 90l35 27l12 -4l11 -23l-3 -12
q-40 -33 -136 -103t-138 -94t-73 -23zM214 -373q0 27 -43 27q-97 0 -97 87q0 48 34 89t96 41q113 0 113 -132q0 -103 -85 -192t-228 -102v22q106 22 158 70t52 90z" />
    <glyph glyph-name="uni0163" unicode="&#x21b;" horiz-adv-x="682" 
d="M209 -33q-65 1 -65 109q0 54 36 218t98 489l-163 -4l-7 8l3 17l8 8q107 38 172 73q19 88 52 345q107 45 157 72l24 -18l-39 -153q-7 -29 -53 -258q44 -3 108 -3t105 14l10 -8l-23 -98q-37 0 -218 5q-111 -533 -111 -628q0 -46 37 -46t161 90l35 27l12 -4l11 -23l-3 -12
q-40 -33 -136 -103t-138 -94t-73 -23zM214 -373q0 27 -43 27q-97 0 -97 87q0 48 34 89t96 41q113 0 113 -132q0 -103 -85 -192t-228 -102v22q106 22 158 70t52 90z" />
    <glyph glyph-name="Tcaron" unicode="&#x164;" horiz-adv-x="1252" 
d="M644 121q0 -38 20 -51t167 -18l8 -9l-4 -43l-9 -8q-168 8 -294 8t-256 -8l-7 8l4 44l8 7q119 9 141 17t30 19q8 9 16 41q9 32 51 242q107 536 152 947q-331 0 -373 -16t-84 -216l-9 -8h-40l-8 8q31 254 33 318l10 10l73 -5q16 -1 68 -2l418 -8l503 9q9 0 68 6l9 -10
q-26 -98 -52 -317l-10 -9h-40l-8 9q10 178 -14 210q-16 22 -373 21q-10 -43 -43 -230l-66 -371q-13 -67 -51 -312t-38 -283zM1145 1869l8 -10l-324 -326h-105l-176 328l10 8h40l197 -236l302 236h48z" />
    <glyph glyph-name="tcaron" unicode="&#x165;" horiz-adv-x="861" 
d="M209 -33q-65 1 -65 109q0 54 36 218t98 489l-163 -4l-7 8l3 17l8 8q107 38 172 73q19 88 52 345q107 45 157 72l24 -18l-39 -153q-7 -29 -53 -258q44 -3 108 -3t105 14l10 -8l-23 -98q-37 0 -218 5q-111 -533 -111 -628q0 -46 37 -46t161 90l35 27l12 -4l11 -23l-3 -12
q-40 -33 -136 -103t-138 -94t-73 -23zM828 1233q0 27 -43 27q-97 0 -97 87q0 48 34 89t96 41q113 0 113 -132q0 -103 -85 -192t-228 -102v22q106 22 158 70t52 90z" />
    <glyph glyph-name="Tbar" unicode="&#x166;" horiz-adv-x="1252" 
d="M644 111q0 -30 12 -37.5t31.5 -11.5t143.5 -10l8 -9l-4 -43l-9 -8q-168 8 -294 8t-256 -8l-7 8l4 44l8 7q125 10 145 18.5t35 30.5t91 461l59 341h-382l12 77h382q35 211 48 338q-318 0 -351 -9.5t-49.5 -30.5t-56.5 -192l-9 -8h-40l-8 8q31 254 33 318l10 10l73 -5
q9 -1 68 -2l233 -5q174 -3 181 -3t171 3l242 4l94 2q16 1 68 6l9 -10q-26 -98 -52 -317l-10 -9h-40l-8 9q1 24 1 100t-3 89t-15 21t-125.5 14.5t-244.5 6.5q-10 -42 -26 -134l-36 -204h398l-12 -77h-400q-122 -680 -122 -791z" />
    <glyph glyph-name="tbar" unicode="&#x167;" horiz-adv-x="682" 
d="M209 -33q-65 0 -65 109q0 54 31 192t66 322l-161 -5l-7 8l3 18l8 8q107 38 177 74q4 19 10 51l7 39l-163 -4l-7 8l3 17l8 8q104 37 172 73q21 98 52 345q110 46 157 72l24 -18q-59 -223 -92 -411q45 -3 108 -3t105 14l10 -8l-23 -98q-37 0 -218 5l-21 -104q40 -2 108 -2
t109 14l10 -8l-23 -98q-23 0 -131 3l-91 1q-72 -371 -72 -425q1 -54 39 -55q38 0 158 90l36 27l11 -4l12 -23l-3 -12q-39 -33 -134 -102t-139 -93.5t-74 -24.5z" />
    <glyph glyph-name="Utilde" unicode="&#x168;" horiz-adv-x="1593" 
d="M1246 0q-95 0 -161 -8l-7 8l50 247q-92 -109 -236 -196t-314 -87q-110 0 -198 42t-129 115t-41 161t76 507t77 477q0 58 -22 71t-139 18l-8 8l4 42l9 8q112 -5 181 -5t174 5l-45 -219q-20 -99 -50 -268l-52 -290q-44 -244 -44 -329q0 -115 86 -172q85 -57 197 -57t242 68
t252 214l113 693q33 202 33 240t-23 47t-146 15l-8 8l4 42l9 8q120 -7 250 -7t248 7l7 -8l-4 -42l-9 -8q-100 -5 -113 -11t-21 -15q-24 -28 -97 -432l-79 -469q-47 -296 -47 -322t14 -39q14 -12 161 -17l8 -9l-7 -41l-9 -8q-91 8 -186 8zM1116 1602q-56 0 -140 28l-105 41
q-69 27 -115 27q-72 0 -111 -105h-40l-8 6q11 83 69 149t135 66q47 0 191 -61q92 -35 135 -35q90 0 122 92h38l6 -5q-15 -77 -69 -140q-52 -63 -108 -63z" />
    <glyph glyph-name="utilde" unicode="&#x169;" horiz-adv-x="1139" 
d="M718 -33q-54 0 -53 88q0 45 84 394l-6 3l-74 -106q-87 -124 -182 -209q-95 -83 -165 -127t-102 -44t-54 28t-22 96q0 66 69 344t69 362q0 32 -28 32t-151 -80l-12 3l-10 23l3 14q30 22 130 84t139 79t60 17t33 -16t12 -38t-29 -139q-128 -525 -128 -619q0 -44 30 -44
q37 0 121 66t180 189t141 247q44 124 78 317q12 2 137 32l15 -15q-1 -6 -33 -109t-89 -347q-58 -244 -58 -335q0 -47 32 -47q17 0 42 16t113 81l11 -4l11 -23l-2 -13q-176 -139 -230 -169q-56 -30 -82 -31zM860 1163q-38 0 -122 30l-103 36q-69 24 -105 24q-70 0 -102 -100
h-42l-7 8q49 205 192 205q48 0 112 -24l96 -37q78 -30 110 -30q72 0 103 96h36l8 -7q-44 -201 -176 -201z" />
    <glyph glyph-name="Umacron" unicode="&#x16a;" horiz-adv-x="1593" 
d="M1246 0q-95 0 -161 -8l-7 8l50 247q-92 -109 -236 -196t-314 -87q-110 0 -198 42t-129 115t-41 161t76 507t77 477q0 58 -22 71t-139 18l-8 8l4 42l9 8q112 -5 181 -5t174 5l-45 -219q-20 -99 -50 -268l-52 -290q-44 -244 -44 -329q0 -115 86 -172q85 -57 197 -57t242 68
t252 214l113 693q33 202 33 240t-23 47t-146 15l-8 8l4 42l9 8q120 -7 250 -7t248 7l7 -8l-4 -42l-9 -8q-100 -5 -113 -11t-21 -15q-24 -28 -97 -432l-79 -469q-47 -296 -47 -322t14 -39q14 -12 161 -17l8 -9l-7 -41l-9 -8q-91 8 -186 8zM1250 1750l-17 -90h-618l17 90h618z
" />
    <glyph glyph-name="umacron" unicode="&#x16b;" horiz-adv-x="1139" 
d="M718 -33q-54 0 -53 88q0 45 84 394l-6 3l-74 -106q-87 -124 -182 -209q-95 -83 -165 -127t-102 -44t-54 28t-22 96q0 66 69 344t69 362q0 32 -28 32t-151 -80l-12 3l-10 23l3 14q30 22 130 84t139 79t60 17t33 -16t12 -38t-29 -139q-128 -525 -128 -619q0 -44 30 -44
q37 0 121 66t180 189t141 247q44 124 78 317q12 2 137 32l15 -15q-1 -6 -33 -109t-89 -347q-58 -244 -58 -335q0 -47 32 -47q17 0 42 16t113 81l11 -4l11 -23l-2 -13q-176 -139 -230 -169q-56 -30 -82 -31zM987 1287l-23 -94h-544l25 94h542z" />
    <glyph glyph-name="Ubreve" unicode="&#x16c;" horiz-adv-x="1593" 
d="M1246 0q-95 0 -161 -8l-7 8l50 247q-92 -109 -236 -196t-314 -87q-110 0 -198 42t-129 115t-41 161t76 507t77 477q0 58 -22 71t-139 18l-8 8l4 42l9 8q112 -5 181 -5t174 5l-45 -219q-20 -99 -50 -268l-52 -290q-44 -244 -44 -329q0 -115 86 -172q85 -57 197 -57t242 68
t252 214l113 693q33 202 33 240t-23 47t-146 15l-8 8l4 42l9 8q120 -7 250 -7t248 7l7 -8l-4 -42l-9 -8q-100 -5 -113 -11t-21 -15q-24 -28 -97 -432l-79 -469q-47 -296 -47 -322t14 -39q14 -12 161 -17l8 -9l-7 -41l-9 -8q-91 8 -186 8zM925 1650q183 0 268 202h59
q-84 -325 -340 -325q-126 1 -198 73t-72 199q0 19 2 53h57q16 -202 224 -202z" />
    <glyph glyph-name="ubreve" unicode="&#x16d;" horiz-adv-x="1139" 
d="M718 -33q-54 0 -53 88q0 45 84 394l-6 3l-74 -106q-87 -124 -182 -209q-95 -83 -165 -127t-102 -44t-54 28t-22 96q0 66 69 344t69 362q0 32 -28 32t-151 -80l-12 3l-10 23l3 14q30 22 130 84t139 79t60 17t33 -16t12 -38t-29 -139q-128 -525 -128 -619q0 -44 30 -44
q37 0 121 66t180 189t141 247q44 124 78 317q12 2 137 32l15 -15q-1 -6 -33 -109t-89 -347q-58 -244 -58 -335q0 -47 32 -47q17 0 42 16t113 81l11 -4l11 -23l-2 -13q-176 -139 -230 -169q-56 -30 -82 -31zM669 1113q-109 0 -178 73t-69 195q0 12 4 47l36 -1q0 -89 64 -145
t160 -56q182 0 268 201l40 1q-61 -315 -325 -315z" />
    <glyph glyph-name="Uring" unicode="&#x16e;" horiz-adv-x="1593" 
d="M1246 0q-95 0 -161 -8l-7 8l50 247q-92 -109 -236 -196t-314 -87q-110 0 -198 42t-129 115t-41 161t76 507t77 477q0 58 -22 71t-139 18l-8 8l4 42l9 8q112 -5 181 -5t174 5l-45 -219q-20 -99 -50 -268l-52 -290q-44 -244 -44 -329q0 -115 86 -172q85 -57 197 -57t242 68
t252 214l113 693q33 202 33 240t-23 47t-146 15l-8 8l4 42l9 8q120 -7 250 -7t248 7l7 -8l-4 -42l-9 -8q-100 -5 -113 -11t-21 -15q-24 -28 -97 -432l-79 -469q-47 -296 -47 -322t14 -39q14 -12 161 -17l8 -9l-7 -41l-9 -8q-91 8 -186 8zM1054 1742q0 134 -113 134
q-56 0 -99 -61t-43 -119q1 -58 29 -94t82 -37t100 57q44 58 44 120zM904 1521q-81 0 -130 49q-49 50 -49 130t71 150t154 69q82 0 130 -47q48 -46 48 -130t-72 -152t-152 -69z" />
    <glyph glyph-name="uring" unicode="&#x16f;" horiz-adv-x="1139" 
d="M718 -33q-54 0 -53 88q0 45 84 394l-6 3l-74 -106q-87 -124 -182 -209q-95 -83 -165 -127t-102 -44t-54 28t-22 96q0 66 69 344t69 362q0 32 -28 32t-151 -80l-12 3l-10 23l3 14q30 22 130 84t139 79t60 17t33 -16t12 -38t-29 -139q-128 -525 -128 -619q0 -44 30 -44
q37 0 121 66t180 189t141 247q44 124 78 317q12 2 137 32l15 -15q-1 -6 -33 -109t-89 -347q-58 -244 -58 -335q0 -47 32 -47q17 0 42 16t113 81l11 -4l11 -23l-2 -13q-176 -139 -230 -169q-56 -30 -82 -31zM720 1414q-48 0 -86 -51t-39 -119q0 -114 92 -114q55 0 95 52
t39 106q-1 56 -27 91t-74 35zM684 1084q-84 0 -129 44t-45 123q0 77 66 143t151 66q87 0 133 -46t46 -125q0 -81 -70 -143q-68 -62 -152 -62z" />
    <glyph glyph-name="Uhungarumlaut" unicode="&#x170;" horiz-adv-x="1593" 
d="M1246 0q-95 0 -161 -8l-7 8l50 247q-92 -109 -236 -196t-314 -87q-110 0 -198 42t-129 115t-41 161t76 507t77 477q0 58 -22 71t-139 18l-8 8l4 42l9 8q112 -5 181 -5t174 5l-45 -219q-20 -99 -50 -268l-52 -290q-44 -244 -44 -329q0 -115 86 -172q85 -57 197 -57t242 68
t252 214l113 693q33 202 33 240t-23 47t-146 15l-8 8l4 42l9 8q120 -7 250 -7t248 7l7 -8l-4 -42l-9 -8q-100 -5 -113 -11t-21 -15q-24 -28 -97 -432l-79 -469q-47 -296 -47 -322t14 -39q14 -12 161 -17l8 -9l-7 -41l-9 -8q-91 8 -186 8zM1083 1835l-407 -285l-11 -2l-25 20
l-2 12l255 271l176 16zM1443 1835l-408 -287h-10l-21 18l-2 14q103 116 251 271l177 16z" />
    <glyph glyph-name="uhungarumlaut" unicode="&#x171;" horiz-adv-x="1139" 
d="M718 -33q-54 0 -53 88q0 45 84 394l-6 3l-74 -106q-87 -124 -182 -209q-95 -83 -165 -127t-102 -44t-54 28t-22 96q0 66 69 344t69 362q0 32 -28 32t-151 -80l-12 3l-10 23l3 14q30 22 130 84t139 79t60 17t33 -16t12 -38t-29 -139q-128 -525 -128 -619q0 -44 30 -44
q37 0 121 66t180 189t141 247q44 124 78 317q12 2 137 32l15 -15q-1 -6 -33 -109t-89 -347q-58 -244 -58 -335q0 -47 32 -47q17 0 42 16t113 81l11 -4l11 -23l-2 -13q-176 -139 -230 -169q-56 -30 -82 -31zM1150 1427q-24 -17 -348 -325l-13 -2l-20 11l-2 15q35 45 121 166
l107 158l141 3zM850 1427q-59 -49 -350 -325l-13 -2l-18 11l-2 15q35 45 121 166l107 158l141 3z" />
    <glyph glyph-name="Uogonek" unicode="&#x172;" horiz-adv-x="1593" 
d="M1265 110q0 -40 30.5 -48.5t144.5 -11.5l8 -9l-7 -41l-9 -8q-78 7 -173 8q-101 -143 -101 -206q0 -95 83 -95q69 0 121 73l8 2l21 -11l2 -7q-103 -176 -209 -176q-68 0 -111 38.5t-43 95.5q0 109 172 286q-62 -1 -117 -8l-7 8l50 247q-239 -283 -550 -283q-186 0 -277 92
t-91 224q0 93 76 512t77 499q0 25 -19.5 43t-141.5 21l-8 8l4 42l9 8q112 -5 181 -5t174 5l-45 -219q-14 -66 -50 -268l-52 -290q-44 -245 -44 -341t80 -156.5t206 -60.5q257 0 491 282l113 693q33 201 33 245t-68 54q-51 1 -101 3l-8 8l4 42l9 8q120 -7 250 -7t248 7l7 -8
l-4 -42l-9 -8q-113 -6 -138.5 -31.5t-92.5 -426.5l-79 -469q-47 -278 -47 -318z" />
    <glyph glyph-name="uogonek" unicode="&#x173;" horiz-adv-x="1139" 
d="M663 -189q-1 -81 61 -81t109 47l7 2l15 -10l2 -7q-85 -125 -193 -125q-50 0 -77 34.5t-27 73.5q0 92 134 228q-29 17 -29 72t84 404l-6 3l-74 -106q-102 -147 -243.5 -263.5t-211.5 -116.5t-70 113q0 78 39 235q99 398 99 482q0 32 -28 32t-151 -80l-12 3l-10 23l3 14
q96 74 195 127t134 53q45 0 45 -53q0 -21 -29 -140q-128 -523 -128 -619q0 -44 30 -44q77 0 269 214.5t251 604.5q12 2 137 32l15 -15q-1 -10 -47 -159t-89.5 -358t-43.5 -265t29 -56t158 97l11 -4l11 -23l-2 -13q-229 -181 -282 -194q-85 -127 -85 -162z" />
    <glyph glyph-name="Wcircumflex" unicode="&#x174;" horiz-adv-x="1933" 
d="M1826 1309q0 15 -18 29t-137 16l-7 8l5 42l9 9q94 -7 212 -7t182 7l7 -8l-4 -43l-9 -8q-76 -2 -94 -20t-74 -154l-162 -386l-163 -402q-105 -259 -149 -408h-100l-25 127q-9 46 -37 155l-224 845q-37 -68 -223 -428l-208 -403q-95 -184 -133 -296h-101q-3 156 -41 508
l-61 568q-19 180 -31 226t-28 54t-99 14l-8 8l4 43l9 8q84 -5 228 -5t225 5l8 -9l-4 -42l-9 -8q-100 -2 -124 -16t-24 -91q0 -78 62 -672l31 -297l291 567q196 381 282 579h39q25 -116 64 -262l242 -898q29 65 102 250l120 303q175 442 175 492zM1402 1533h-54l-187 236
l-292 -236h-57l-5 10l319 326h106l178 -326z" />
    <glyph glyph-name="wcircumflex" unicode="&#x175;" horiz-adv-x="1479" 
d="M300 283q0 -210 115 -210q83 -1 199 183t194 661q75 11 151 40l14 -12q-148 -478 -148 -690q0 -79 34 -129t95 -51q134 0 238 203t105 399q0 147 -100 147q-25 0 -52 -13l-11 2l-16 18v11q60 56 105 107q29 10 57 10q145 0 145 -201q1 -162 -93 -355t-226 -315t-243 -123
q-80 0 -125 57q-45 56 -45 144t20 187l-67 -121q-68 -123 -152 -195t-164 -72q-78 -1 -128 73t-50 201t62 265t243 337q-22 -8 -145 -8l-43 2q-66 0 -125 -11q-17 -25 -67 -119l-10 -6h-27l-6 8l81 230q43 15 85 15l246 -17q60 0 109 17l18 -28q-273 -335 -273 -641z
M1189 1098l-3 -8l-62 -1l-108 151l-73 96l-120 -104q-39 -34 -159 -142h-89l-3 10l191 196l143 156h102q76 -160 181 -354z" />
    <glyph glyph-name="Ycircumflex" unicode="&#x176;" horiz-adv-x="1366" 
d="M244 1283q-33 0 -80 -19l-11 7l-4 32l6 12q85 54 153 112q54 -2 94 -21q186 -88 342 -772q117 273 311 516t357 261l-11 -144q-129 -21 -257 -151q-74 -74 -167 -216q-175 -263 -212 -485q-48 -283 -48 -311t15 -35t81 -12l79 -6l7 -8l-4 -43l-9 -8q-128 7 -262 7
t-258 -7l-7 8l4 43l9 8q116 7 131 10t23 9q21 17 57 191t36 257q-1 83 -85 338t-148 341t-142 86zM1157 1533h-54l-187 236l-292 -236h-57l-5 10l319 326h106l178 -326z" />
    <glyph glyph-name="ycircumflex" unicode="&#x177;" 
d="M381 838q-1 -68 -21 -293t-20 -323t39 -98t106 65q66 65 120 145q55 80 97 178q42 97 66 185t58 229q68 10 151 38l22 -20q-50 -100 -151 -446q-100 -346 -146 -482q-96 -285 -249 -437q-152 -152 -296 -152q-71 1 -123 45t-51 116q0 15 5 34l99 67l21 -7q-2 -16 -2 -28
q0 -72 42 -108t85 -37t83 19t76 65q108 129 245 635l34 125q-68 -104 -125 -167t-112 -120q-97 -101 -147 -101q-50 -1 -74 51t-24 110t19 227q19 170 19 292q-1 121 -9 147t-35 26t-140 -87l-13 4l-11 24l3 15q223 188 294 188q65 0 65 -124zM928 1098l-3 -8l-62 -1
l-108 151l-73 96l-120 -104q-39 -34 -159 -142h-89l-3 10l191 196l143 156h102q76 -160 181 -354z" />
    <glyph glyph-name="Ydieresis" unicode="&#x178;" horiz-adv-x="1366" 
d="M244 1283q-33 0 -80 -19l-11 7l-4 32l6 12q85 54 153 112q54 -2 94 -21q186 -88 342 -772q117 273 311 516t357 261l-11 -144q-129 -21 -257 -151q-74 -74 -167 -216q-175 -263 -212 -485q-48 -283 -48 -311t15 -35t81 -12l79 -6l7 -8l-4 -43l-9 -8q-128 7 -262 7
t-258 -7l-7 8l4 43l9 8q116 7 131 10t23 9q21 17 57 191t36 257q-1 83 -85 338t-148 341t-142 86zM695 1607q-95 0 -95 100q0 49 35 85t84 37q95 0 95 -91q0 -53 -34 -92t-85 -39zM1083 1607q-94 0 -94 100q0 48 35 85t83 37q96 0 96 -91q1 -53 -33 -92t-87 -39z" />
    <glyph glyph-name="Zacute" unicode="&#x179;" horiz-adv-x="1366" 
d="M734 1326q-284 0 -371 -28q-18 -52 -52 -203l-9 -8h-38l-8 8q21 136 23 309l12 9q619 -9 767 -9t264 9l8 -8l-3 -38l-67 -79l-955 -1204q416 -4 571 -4t260 31q16 24 69 218l11 8h45l6 -8q-35 -193 -48 -329l-10 -8l-518 5q-165 3 -313 3t-300 -8l-8 8l4 43l159 197
l861 1086h-360zM1152 1845q-125 -85 -407 -299l-13 2l-23 19l1 13l255 271l178 18z" />
    <glyph glyph-name="zacute" unicode="&#x17a;" horiz-adv-x="909" 
d="M558 786q-76 0 -186 16t-134 16t-45 -12q-38 -60 -55 -109l-9 -8h-29l-6 8l63 238q37 20 106 20t180 -29q111 -30 161 -38t93 -8q45 0 69 14t65 60l18 -16l-14 -64l-678 -759q97 45 159 45t164 -24t152 -25q49 0 88 20l50 136l11 8h31l5 -7l-58 -280q-53 -21 -105 -21
t-78 4t-158 38q-133 34 -230 34t-159 -59l-11 2l-15 41l2 11l704 791q-75 -43 -151 -43zM832 1428l-346 -329l-13 -1l-22 19l-2 9q35 45 121 166l107 159l141 3z" />
    <glyph glyph-name="Zdotaccent" unicode="&#x17b;" horiz-adv-x="1366" 
d="M734 1326q-284 0 -371 -28q-18 -52 -52 -203l-9 -8h-38l-8 8q21 136 23 309l12 9q619 -9 767 -9t264 9l8 -8l-3 -38l-67 -79l-955 -1204q416 -4 571 -4t260 31q16 24 69 218l11 8h45l6 -8q-35 -193 -48 -329l-10 -8l-518 5q-165 3 -313 3t-300 -8l-8 8l4 43l159 197
l861 1086h-360zM817 1607q-94 0 -94 100q0 48 35 85t83 37q96 0 96 -91q0 -54 -34 -92t-86 -39z" />
    <glyph glyph-name="zdotaccent" unicode="&#x17c;" horiz-adv-x="909" 
d="M558 786q-76 0 -186 16t-134 16t-45 -12q-38 -60 -55 -109l-9 -8h-29l-6 8l63 238q37 20 106 20t180 -29q111 -30 161 -38t93 -8q45 0 69 14t65 60l18 -16l-14 -64l-678 -759q97 45 159 45t164 -24t152 -25q49 0 88 20l50 136l11 8h31l5 -7l-58 -280q-53 -21 -105 -21
t-78 4t-158 38q-133 34 -230 34t-159 -59l-11 2l-15 41l2 11l704 791q-75 -43 -151 -43zM544 1163q-81 0 -81 89q1 52 31 92t82 39q78 0 78 -80q0 -56 -32 -98t-78 -42z" />
    <glyph glyph-name="Zcaron" unicode="&#x17d;" horiz-adv-x="1366" 
d="M734 1326q-284 0 -371 -28q-18 -52 -52 -203l-9 -8h-38l-8 8q21 136 23 309l12 9q619 -9 767 -9t264 9l8 -8l-3 -38l-67 -79l-955 -1204q416 -4 571 -4t260 31q16 24 69 218l11 8h45l6 -8q-35 -193 -48 -329l-10 -8l-518 5q-165 3 -313 3t-300 -8l-8 8l4 43l159 197
l861 1086h-360zM1185 1869l8 -10l-324 -326h-105l-176 328l10 8h40l197 -236l302 236h48z" />
    <glyph glyph-name="zcaron" unicode="&#x17e;" horiz-adv-x="909" 
d="M558 786q-76 0 -186 16t-134 16t-45 -12q-38 -60 -55 -109l-9 -8h-29l-6 8l63 238q37 20 106 20t180 -29q111 -30 161 -38t93 -8q45 0 69 14t65 60l18 -16l-14 -64l-678 -759q97 45 159 45t164 -24t152 -25q49 0 88 20l50 136l11 8h31l5 -7l-58 -280q-53 -21 -105 -21
t-78 4t-158 38q-133 34 -230 34t-159 -59l-11 2l-15 41l2 11l704 791q-75 -43 -151 -43zM875 1446l-191 -209q-39 -42 -129 -147h-72q-33 54 -200 358l6 6h62l172 -246q121 101 270 246h80z" />
    <glyph glyph-name="longs" unicode="&#x17f;" horiz-adv-x="569" 
d="M144 765q-40 0 -57 -2l-8 8l7 30l7 9q119 43 170 77l40 195q19 90 35 120t62.5 74.5t124 103.5t119 76.5t94.5 17.5t121 -27q-42 -111 -57 -166l-22 -7q-22 33 -61 53.5t-78 20.5q-71 0 -112.5 -44t-72.5 -195l-33 -160q-13 -64 -42 -212l-79 -389
q-100 -490 -165.5 -610.5t-163.5 -216.5t-204 -96q-34 0 -71 19q32 94 47 164l25 6q42 -56 92 -56t84.5 21t80 102t135.5 607l80 476q-58 1 -98 1z" />
    <glyph glyph-name="uni018F" unicode="&#x18f;" horiz-adv-x="1630" 
d="M307 553q0 -245 119.5 -377.5t331.5 -132.5t362.5 164t197.5 489l-326 3h-153l-524 -3q-8 -79 -8 -143zM1330 866q0 260 -126 384t-309 124q-144 0 -297 -75.5t-244 -250.5l-21 -41l-10 -7l-30 10l-4 12l39 199q271 222 604 222q287 0 432.5 -154.5t145.5 -410.5
q0 -381 -226 -650t-581 -269q-261 0 -418.5 151t-157.5 432q0 107 28 234q86 -2 240 -2l932 7q3 54 3 85z" />
    <glyph glyph-name="uni018F" unicode="&#x4d8;" horiz-adv-x="1630" 
d="M307 553q0 -245 119.5 -377.5t331.5 -132.5t362.5 164t197.5 489l-326 3h-153l-524 -3q-8 -79 -8 -143zM1330 866q0 260 -126 384t-309 124q-144 0 -297 -75.5t-244 -250.5l-21 -41l-10 -7l-30 10l-4 12l39 199q271 222 604 222q287 0 432.5 -154.5t145.5 -410.5
q0 -381 -226 -650t-581 -269q-261 0 -418.5 151t-157.5 432q0 107 28 234q86 -2 240 -2l932 7q3 54 3 85z" />
    <glyph glyph-name="florin" unicode="&#x192;" 
d="M1004 1399q56 0 114 -14l5 -13q-39 -91 -50 -151l-18 -9q-67 80 -156 80q-53 0 -112.5 -41t-94.5 -170t-58 -240l-19 -94h90q92 0 156 2l8 -7l-19 -69l-8 -4q-73 1 -147 2h-95l-60 -291q-54 -263 -86.5 -391.5t-93.5 -260t-177.5 -220.5t-200.5 -89q-39 0 -70 10l-6 11
q25 78 39 153l23 2q13 -24 45.5 -40.5t62.5 -16.5t72 29t75.5 92.5t59.5 164.5t86 422l80 427h-77q-74 0 -122 -7l-8 7l17 69l8 7q107 -2 115 -2h80l23 118q32 157 51 211t74 110t121 105t141.5 78.5t131.5 29.5z" />
    <glyph glyph-name="Ohorn" unicode="&#x1a0;" horiz-adv-x="1593" 
d="M892 1360q-299 0 -446 -241t-147 -566q0 -257 119 -381.5t328.5 -124.5t342.5 112.5t198 316.5t65 387q0 239 -120 368t-340 129zM1532 878q0 -258 -123 -484.5t-315 -330.5t-409 -104q-263 0 -414 153t-151 430q0 376 222 637t605 261q430 0 547 -322q128 64 128 160.5
t-117 121.5l-9 16l32 64l24 4q150 -38 150 -175.5t-197 -222.5q27 -92 27 -208z" />
    <glyph glyph-name="ohorn" unicode="&#x1a1;" horiz-adv-x="1010" 
d="M497 896q-138 0 -218 -167.5t-80 -425.5t183 -258q138 0 217.5 179t79.5 425.5t-182 246.5zM303 -31q-130 0 -197 80.5t-67 229.5q0 342 170.5 516t353.5 174q113 0 191 -66.5t85 -225.5q105 60 105 147.5t-112 107.5l-9 17l32 60l21 5q143 -47 143 -169.5t-182 -205.5
q-16 -303 -176.5 -486.5t-357.5 -183.5z" />
    <glyph glyph-name="Uhorn" unicode="&#x1af;" horiz-adv-x="1643" 
d="M1246 0q-95 0 -161 -8l-7 8l50 247q-111 -131 -255.5 -207t-312.5 -76t-259 92t-91 224q0 93 76.5 512t76.5 499q0 25 -19.5 43t-141.5 21l-8 8l4 42l9 8q112 -5 181 -5t174 5l-45 -219q-14 -66 -50 -268l-52 -290q-44 -245 -44 -340t80 -156.5t206 -61.5q257 0 491 282
l113 693q33 202 33 239.5t-19.5 46.5t-149.5 16l-8 8l4 42l9 8q119 -7 276 -7q158 0 230 8q146 15 145 137q0 65 -78 114l-3 18l54 46h14q97 -83 97 -158t-41.5 -123t-92.5 -65t-191 -28q-48 -5 -65 -47t-84 -411l-79 -469q-47 -279 -47 -316t20.5 -47.5t154.5 -14.5l8 -9
l-7 -41l-9 -8q-91 8 -186 8z" />
    <glyph glyph-name="uhorn" unicode="&#x1b0;" horiz-adv-x="1230" 
d="M823 160.5q0 -50.5 29 -50.5t158 97l11 -4l11 -23l-2 -13q-253 -200 -314 -200q-51 0 -51 66.5t84 415.5l-6 3l-74 -106q-103 -148 -245 -264t-208 -116q-72 0 -72 113q0 78 39 235q99 398 99 482q0 32 -28 32t-151 -80l-12 3l-10 23l3 14q259 180 329 180q45 0 45 -53
q0 -21 -29 -140q-128 -523 -128 -619q0 -44 30 -44q44 0 139 80t210 240.5t171 498.5q12 2 137 32l15 -15q-73 -252 -79 -287q94 14 166.5 65t72.5 115.5t-84 82.5l-1 14l32 71l13 4q50 0 92 -44.5t42 -102.5q0 -91 -91 -160t-252 -91q-33 -110 -62 -257t-29 -197.5z" />
    <glyph glyph-name="uni01B7" unicode="&#x1b7;" horiz-adv-x="1266" 
d="M846 1211q-65 0 -241 48q-55 14 -127 14q-50 0 -110 -130l-9 -3l-33 6l-1 7q50 101 102 275l13 7q49 10 85 10q35 -1 225 -45t276 -44t159 37l24 -30l-540 -543l7 -6q34 2 78 2t126 -35.5t137 -117.5t55 -178q0 -188 -176 -355.5t-407 -167.5t-394 139q7 27 7 146t-2 142
l43 17l9 -3q27 -206 138 -291t205 -85q158 0 263.5 111.5t105.5 271.5t-75 231t-171 71q-18 0 -62 -3l-6 4l-13 41l1 9l434 455q-61 -7 -126 -7z" />
    <glyph glyph-name="uni01F4" unicode="&#x1f4;" horiz-adv-x="1479" 
d="M747 -41q-209 0 -351 73t-209 207t-67 315q0 182 65 354t195 292q255 235 593 235q212 0 408 -79l4 -11q-36 -108 -58 -284l-8 -8h-42l-8 8q0 73 -7 171q-53 45 -154 72t-206 27q-374 0 -522 -344q-78 -182 -78 -395q0 -269 131 -404t378 -135q165 0 279 65l37 196
q15 84 15 112t-16 42t-79 17l-136 11l-8 8l6 44l10 8l35 -1q176 -6 258 -6t210 3l7 -8l-4 -39l-8 -9q-63 -11 -79 -18t-22 -18t-18 -61l-12 -57q-30 -146 -30 -192q0 -45 7 -63l-9 -15q-34 -4 -148 -42t-188 -54t-171 -17zM1242 1845q-125 -85 -407 -299l-13 2l-23 19l1 13
l255 271l178 18z" />
    <glyph glyph-name="uni01F5" unicode="&#x1f5;" 
d="M88 -300q0 -100 78 -156t184 -57q106 0 176 24q70 25 111 71q40 46 40 91t-17 81t-43 60t-87 71l-140 108q-85 -21 -161 -69q-141 -89 -141 -224zM289 572q0 -240 189 -239q120 0 178 109t58 245t-82 188q-42 26 -101 26q-116 0 -179 -103q-63 -104 -63 -226zM313 99
q0 50 137 169q-29 -2 -47 -2q-119 0 -189 62t-70 168q0 215 135 342q135 126 310 126q174 0 241 -112q116 2 173 13l4 -5l-16 -100q-27 2 -57 2t-75 -4q4 -32 4 -58q-1 -142 -93 -256t-249 -158q-56 -52 -56 -90q-1 -38 29 -72t148 -130t144 -149t26 -101q0 -129 -142 -221
t-336 -92t-286 66t-91 177q0 147 170 255q98 62 231 100q-45 47 -45 70zM862 1428l-346 -329l-13 -1l-22 19l-2 9q35 45 121 166l107 159l141 3z" />
    <glyph glyph-name="Aringacute" unicode="&#x1fa;" horiz-adv-x="1479" 
d="M566 637h440l-76 581zM850 1581q0 77 66 143t151 66q87 0 133 -46t46 -125q0 -80 -63 -136t-131 -67l167 -1204q14 -101 25 -122t33 -26t114 -13l6 -8l-8 -43l-9 -8q-140 8 -224 8t-256 -8l-7 8l7 43l9 8q123 5 141 15t18 30t-14 167l-39 296h-499l-141 -234
q-20 -33 -70 -124t-50 -109q-1 -18 19 -26t147 -14l6 -8l-7 -44l-9 -8q-116 8 -209 8t-216 -8l-7 8l7 44l9 7l58 9q36 6 50 22q33 40 140 211l714 1127h8q-41 10 -78 47q-37 36 -37 114zM1060 1744q-48 0 -86 -51t-39 -119q0 -114 92 -114q55 0 95 52t39 106q-1 56 -27 91
t-74 35zM1307 2126q-125 -85 -407 -299l-13 2l-23 19l1 13l255 271l178 18z" />
    <glyph glyph-name="aringacute" unicode="&#x1fb;" horiz-adv-x="909" 
d="M514 868q-80 0 -137 -27q-41 -31 -93 -175q-52 -142 -77 -268t-25 -190t10 -81q10 -16 28 -16q36 0 141 97t177 225t120 342l13 58q-77 35 -157 35zM685 113q34 0 146 86l9 -3l7 -27l-4 -12q-210 -181 -286 -181q-50 0 -50 66t26 181l25 107l15 59l-6 3
q-149 -212 -279 -318t-181 -106q-70 0 -70 171q1 107 33 243t79 252t75 152t96 84q66 47 124 72t137 25t177 -36l64 38l22 -18q-3 -15 -42 -150l-71 -269q-73 -287 -73 -379q0 -40 27 -40zM640 1414q-48 0 -86 -51t-39 -119q0 -114 92 -114q55 0 95 52t39 106q-1 56 -27 91
t-74 35zM604 1084q-84 0 -129 44t-45 123q0 77 66 143t151 66q87 0 133 -46t46 -125q0 -81 -70 -143q-68 -62 -152 -62zM892 1858l-346 -329l-13 -1l-22 19l-2 9q35 45 121 166l107 159l141 3z" />
    <glyph glyph-name="AEacute" unicode="&#x1fc;" horiz-adv-x="1927" 
d="M812 644l195 2q59 319 111 685l-48 1q-80 -94 -256 -356l-217 -326q109 -6 215 -6zM1459 1327h-58q-39 0 -113 -9q-45 -199 -102 -550q103 -3 196 -3t292 13l7 -10l-38 -95q-234 11 -307 11t-166 -2l-61 -364q-27 -162 -34 -224q142 -12 252 -12t200 6t109 16q19 8 31 28
t29 86t28 100l9 8h42l7 -8q-14 -43 -30 -156t-18 -161l-13 -9l-664 7q-38 0 -272 -7l-7 8l4 43l9 8q73 8 85 16t24 42q14 34 41 181l52 281h-448q-29 -46 -77 -127l-98 -165q-74 -122 -80 -144t-6 -31q0 -30 30 -40t139 -13l7 -8l-4 -43l-8 -8q-130 7 -204 7t-238 -7l-8 8
l3 35l7 7q72 15 84 23t38 45l599 887q161 240 175 270q14 29 14 41t-12 21t-73 16l-123 12l-7 8l3 38l9 8q201 -6 577 -6t537 8l8 -8q-2 -23 -17 -124l-20 -174l-8 -8h-35l-8 8l-9 137q-2 27 -8 42t-28 22t-104 13t-141 6zM1616 1845q-125 -85 -407 -299l-13 2l-23 19l1 13
l255 271l178 18z" />
    <glyph glyph-name="aeacute" unicode="&#x1fd;" horiz-adv-x="1307" 
d="M165 199q0 -130 136 -130q113 0 185 83t103 304l-55 1q-195 0 -282 -64t-87 -194zM1121 776q0 110 -94 110q-127 0 -204 -114t-93 -263q174 7 282 83q108 74 109 184zM792 -28q-84 0 -140 34t-93 150q-188 -188 -349 -188q-194 0 -194 204t154 278q74 36 155 45
q81 10 270 10q10 79 10 136q1 109 -63 168t-174 59q-57 0 -109 -19l-46 -134l-11 -5l-19 2l-7 9l-14 135q155 110 286 110q215 0 282 -188q217 190 382 190t165 -160q0 -150 -159 -241t-395 -106q-24 -138 -24 -214t43 -126t120 -50q132 0 321 146l10 -3l12 -26l-3 -13
q-248 -203 -410 -203zM1072 1428l-346 -329l-13 -1l-22 19l-2 9q35 45 121 166l107 159l141 3z" />
    <glyph glyph-name="Oslashacute" unicode="&#x1fe;" horiz-adv-x="1593" 
d="M749 45q417 1 553 481q46 164 46 330q0 168 -54 283l-897 -945q119 -149 352 -149zM888 1358q-170 0 -300 -84t-210 -286t-80 -404q0 -204 58 -323l893 945q-128 152 -361 152zM120 550q0 262 122 478q230 409 696 409q178 -1 292 -51q54 -24 122 -70l144 151h12l45 -40
v-13l-144 -153q70 -94 95 -185t25 -199q1 -279 -135 -506t-326 -321t-402 -93q-212 0 -377 123l-149 -157h-14l-41 38v12l151 161q-116 154 -116 416zM1222 1845q-125 -85 -407 -299l-13 2l-23 19l1 13l255 271l178 18z" />
    <glyph glyph-name="oslashacute" unicode="&#x1ff;" horiz-adv-x="909" 
d="M380 43q64 0 107 26t87 101q44 74 75 194q32 120 32 263q0 19 -1 56l-465 -525q46 -115 165 -115zM488 895q-105 0 -176 -106q-72 -105 -102 -309q-14 -90 -13 -145q0 -55 4 -88l463 524q-40 124 -176 124zM41 312q0 142 59 300q58 158 194 258q136 98 266 98t210 -79
l78 86h13l35 -32l-1 -12l-88 -101q33 -84 33 -198t-64 -290t-199 -274t-267 -99q-132 0 -196 74l-90 -102h-13l-38 32v13l101 116q-33 68 -33 210zM822 1428l-346 -329l-13 -1l-22 19l-2 9q35 45 121 166l107 159l141 3z" />
    <glyph glyph-name="uni0218" unicode="&#x218;" horiz-adv-x="1138" 
d="M488 55q179 1 268 103t89 234q-1 132 -99 183q-44 23 -173 52t-195 63q-138 71 -138 266q0 142 79 252t200 168t269 58t251 -62l4 -12q-24 -98 -45 -261l-8 -8h-44l-8 8v147q-78 92 -232 92q-90 0 -164 -38t-115 -112t-41 -156t30 -134t84 -75q54 -24 172 -51t162 -43
q44 -17 86 -53q86 -75 85 -213q1 -139 -87 -254q-192 -252 -503 -252q-163 0 -304 77l-4 12q35 132 49 292l10 9h42l7 -8l4 -192q73 -59 141 -75t128 -17zM499 -384q0 28 -45 28q-102 0 -102 91q0 52 36 95t101 43q119 0 119 -140q0 -107 -89 -201t-240 -108l-1 23
q113 23 167 73t54 96z" />
    <glyph glyph-name="uni0219" unicode="&#x219;" horiz-adv-x="797" 
d="M312 39q164 1 216 133q18 46 18 84q0 40 -12 70t-42 48t-120 35t-126 27q-37 10 -72 36q-76 56 -76 171t135 220q135 104 259 104t205 -48l4 -11q-17 -58 -22 -105l-12 -112l-8 -8h-31l-9 8q0 59 -3 115q-70 77 -176 77q-106 -1 -164 -55q-57 -54 -57 -123t38 -105
q39 -36 139 -51t140 -25t74 -34q73 -50 73 -145q0 -171 -195 -301q-127 -84 -238 -85q-111 0 -222 53l-4 11q35 158 41 254l8 8h34l8 -8v-161q90 -77 197 -77zM314 -373q0 27 -43 27q-97 0 -97 87q0 48 34 89t96 41q113 0 113 -132q0 -103 -85 -192t-228 -102v22
q106 22 158 70t52 90z" />
    <glyph glyph-name="uni0259" unicode="&#x259;" horiz-adv-x="797" 
d="M188 150q0 -102 90 -101q90 0 162.5 64t142.5 347q-212 -40 -303.5 -124t-91.5 -186zM616 674q0 202 -168 202q-133 0 -309 -155l-11 4l-8 27l2 13q205 206 413 206q107 0 168.5 -72.5t61.5 -183.5t-56.5 -318t-223.5 -318t-276 -111q-78 0 -125 41t-47 110
q0 267 506 379l49 11q24 71 24 165z" />
    <glyph glyph-name="uni0259" unicode="&#x4d9;" horiz-adv-x="797" 
d="M188 150q0 -102 90 -101q90 0 162.5 64t142.5 347q-212 -40 -303.5 -124t-91.5 -186zM616 674q0 202 -168 202q-133 0 -309 -155l-11 4l-8 27l2 13q205 206 413 206q107 0 168.5 -72.5t61.5 -183.5t-56.5 -318t-223.5 -318t-276 -111q-78 0 -125 41t-47 110
q0 267 506 379l49 11q24 71 24 165z" />
    <glyph glyph-name="uni0292" unicode="&#x292;" horiz-adv-x="903" 
d="M560 796q-74 0 -164 15q-89 15 -121 15t-51 -22t-49 -94l-7 -6l-24 6l-4 6q37 104 57 230q31 21 75 21q43 0 183 -29t213 -29t142 48l11 -4l13 -31l-345 -435l6 -12h53q92 0 153 -73.5t61 -184.5q0 -163 -139.5 -318.5t-295.5 -208t-245 -52.5q-38 61 -107 131l1 8l16 17
h7q110 -48 185 -48q194 0 307 116.5t113 304.5q0 95 -53 154t-133 59q-26 0 -52 -2l-14 28l348 432q-66 -42 -140 -42z" />
    <glyph glyph-name="circumflex" unicode="&#x2c6;" horiz-adv-x="682" 
d="M789 1098l-3 -8l-62 -1l-108 151l-73 96l-120 -104q-39 -34 -159 -142h-89l-3 10l191 196l143 156h102q76 -160 181 -354z" />
    <glyph glyph-name="caron" unicode="&#x2c7;" horiz-adv-x="682" 
d="M830 1446l-191 -209q-39 -42 -129 -147h-72q-33 54 -200 358l6 6h62l172 -246q121 101 270 246h80z" />
    <glyph glyph-name="breve" unicode="&#x2d8;" horiz-adv-x="682" 
d="M489 1113q-109 0 -178 73t-69 195q0 12 4 47l36 -1q0 -90 63.5 -145.5t160.5 -55.5q182 0 268 201l40 1q-61 -315 -325 -315z" />
    <glyph glyph-name="dotaccent" unicode="&#x2d9;" horiz-adv-x="682" 
d="M499 1163q-81 0 -81 89q0 52 30.5 91.5t82.5 39.5q78 0 78 -80q0 -56 -31.5 -98t-78.5 -42z" />
    <glyph glyph-name="ring" unicode="&#x2da;" horiz-adv-x="682" 
d="M540 1414q-48 0 -86.5 -51t-38.5 -119q0 -114 92 -114q55 0 94.5 51t39.5 107t-26.5 91t-74.5 35zM504 1084q-84 0 -129 44.5t-45 122.5t65.5 143.5t151.5 65.5t132.5 -45.5t46.5 -125.5t-69 -142.5t-153 -62.5z" />
    <glyph glyph-name="ogonek" unicode="&#x2db;" horiz-adv-x="682" 
d="M183 -161q-1 -81 61 -81t108 47l7 2l15 -10l2 -7q-84 -125 -193 -125q-45 0 -74 32.5t-29 75.5q0 92 133 227h50q-80 -120 -80 -161z" />
    <glyph glyph-name="tilde" unicode="&#x2dc;" horiz-adv-x="682" 
d="M700 1163q-38 0 -122 30l-103 36q-69 24 -105 24q-70 0 -102 -100h-42l-7 8q49 205 192 205q48 0 112 -24l96 -37q78 -30 110 -30q72 0 103 96h36l8 -7q-44 -201 -176 -201z" />
    <glyph glyph-name="hungarumlaut" unicode="&#x2dd;" horiz-adv-x="682" 
d="M880 1427q-24 -17 -348 -325l-13 -2l-20 11l-2 15q35 45 121 166l107 158l141 3zM580 1427q-59 -49 -350 -325l-13 -2l-18 11l-2 15q35 45 121 166l107 158l141 3z" />
    <glyph glyph-name="gravecomb" unicode="&#x300;" horiz-adv-x="0" 
d="M319 1123l-4 -11l-22 -17l-13 4q-154 142 -333 330l15 21l145 2q40 -73 212 -329z" />
    <glyph glyph-name="acutecomb" unicode="&#x301;" horiz-adv-x="0" 
d="M254 1428l-346 -329l-13 -1l-22 19l-2 9q35 45 121 166l107 159l141 3z" />
    <glyph glyph-name="tildecomb" unicode="&#x303;" horiz-adv-x="0" 
d="M290.5 1188q-55.5 0 -172.5 47t-167 47q-66 0 -101 -104h-38l-7 8q49 205 192 205q46 0 166.5 -44.5t151.5 -44.5q73 0 104 94h36l8 -7q-20 -96 -68.5 -148.5t-104 -52.5z" />
    <glyph glyph-name="hookabovecomb" unicode="&#x309;" horiz-adv-x="0" 
d="M8 1142.5q0 -24.5 23 -45.5l-1 -4l-17 -9q-41 25 -41 69q0 21 16.5 46.5t76 95t59.5 115.5q0 73 -73 73q-61 0 -101 -82l-6 -6l-18 6l-2 10q7 13 41 103q54 37 110 37q142 0 142 -125q0 -73 -80 -144l-75 -67q-54 -48 -54 -72.5z" />
    <glyph glyph-name="uni0312" unicode="&#x312;" horiz-adv-x="682" 
d="M393 1372q0 -24 40 -24t64.5 -27t24.5 -79t-39 -90t-94 -38q-110 0 -110 134q0 108 78.5 196.5t237.5 106.5l2 -23q-102 -21 -153 -68.5t-51 -87.5z" />
    <glyph glyph-name="dotbelowcomb" unicode="&#x323;" horiz-adv-x="0" 
d="M-128 -458q-46 0 -70.5 28.5t-24.5 76.5t35.5 93t88.5 45q86 0 86 -88q0 -62 -34.5 -108.5t-80.5 -46.5z" />
    <glyph glyph-name="uni0326" unicode="&#x326;" horiz-adv-x="0" 
d="M24 -373q0 27 -43 27q-97 0 -97 87q0 48 34.5 89t95.5 41q113 0 113 -132q0 -103 -85 -192t-228 -102v22q106 22 158 70t52 90z" />
    <glyph glyph-name="uni0374" unicode="&#x374;" horiz-adv-x="541" 
d="M253 1438q23 0 66 -47t43 -114q0 -101 -92 -230.5t-224 -222.5l-46 8v20q115 77 173.5 168.5t58.5 184.5t-98 139v17q96 77 119 77z" />
    <glyph glyph-name="uni0375" unicode="&#x375;" horiz-adv-x="541" 
d="M253 369q23 0 66 -47t43 -114q0 -101 -92 -230.5t-224 -222.5l-46 8v20q115 77 173.5 168.5t58.5 184.5t-98 139v17q96 77 119 77z" />
    <glyph glyph-name="uni037A" unicode="&#x37a;" horiz-adv-x="417" 
d="M70 -403l-17 14l85 328h24l-36 -327l-19 -15h-37z" />
    <glyph glyph-name="uni037E" unicode="&#x37e;" horiz-adv-x="541" 
d="M253 369q23 0 66 -47t43 -114q0 -101 -92 -230.5t-224 -222.5l-46 8v20q115 77 173.5 168.5t58.5 184.5t-98 139v17q96 77 119 77zM225 828q0 62 36.5 95.5t81.5 33.5q97 0 97 -88q0 -53 -30.5 -95.5t-89.5 -42.5q-95 0 -95 97z" />
    <glyph glyph-name="tonos" unicode="&#x384;" horiz-adv-x="417" 
d="M357 1429l17 -13l-85 -318h-26l36 317l19 15z" />
    <glyph glyph-name="dieresistonos" unicode="&#x385;" horiz-adv-x="417" 
d="M548 1398q77 0 77 -81q0 -50 -28 -85.5t-72 -35.5q-77 0 -77 90q0 45 29.5 78.5t70.5 33.5zM146 1398q77 0 77 -81q0 -50 -28 -85.5t-72 -35.5q-77 0 -77 90q0 45 29.5 78.5t70.5 33.5zM391 1537l18 -15l-90 -361h-21l37 360l21 17z" />
    <glyph glyph-name="Alphatonos" unicode="&#x386;" horiz-adv-x="1444" 
d="M531 637h440l-79 587zM1101 0q-87 0 -200 -8l-7 8l3 43l9 8q84 5 106 13t21 45q0 8 -14 154l-39 296h-499l-144 -241q-117 -195 -117 -220q0 -24 18 -32t52 -10q33 -2 57 -5l7 -8l-5 -43l-9 -8q-114 8 -190 8t-199 -8l-7 8l7 44l8 7q11 2 45 6t53 15t151 221l714 1127h94
l168 -1208q15 -116 30 -131q15 -14 27 -17t90 -13l7 -8l-5 -43l-9 -8q-136 8 -223 8zM360 1113l224 311l25 5l33 -27v-27l-249 -270l-20 -6z" />
    <glyph glyph-name="Alphatonos" unicode="&#x1fbb;" horiz-adv-x="1444" 
d="M531 637h440l-79 587zM1101 0q-87 0 -200 -8l-7 8l3 43l9 8q84 5 106 13t21 45q0 8 -14 154l-39 296h-499l-144 -241q-117 -195 -117 -220q0 -24 18 -32t52 -10q33 -2 57 -5l7 -8l-5 -43l-9 -8q-114 8 -190 8t-199 -8l-7 8l7 44l8 7q11 2 45 6t53 15t151 221l714 1127h94
l168 -1208q15 -116 30 -131q15 -14 27 -17t90 -13l7 -8l-5 -43l-9 -8q-136 8 -223 8zM360 1113l224 311l25 5l33 -27v-27l-249 -270l-20 -6z" />
    <glyph glyph-name="anoteleia" unicode="&#x387;" horiz-adv-x="541" 
d="M199 837q0 62 36.5 95.5t81.5 33.5q97 0 97 -88q0 -53 -30.5 -95.5t-89.5 -42.5q-95 0 -95 97z" />
    <glyph glyph-name="Epsilontonos" unicode="&#x388;" horiz-adv-x="1341" 
d="M770 765q100 0 310 13l8 -10l-39 -95q-228 10 -330 10t-165 -1q-43 -239 -95 -588q8 0 93 -6q84 -6 202 -6t202 8t100 16q18 10 28 31t26 81t19 73l10 7h41l8 -7q-27 -114 -41 -290l-12 -9l-697 8q-205 0 -297 -8l-7 8l3 43l10 8q97 3 115 17t33 72q17 58 109 574t92 592
q0 24 -18 32t-62 12q-45 2 -61 4l-7 8l5 43l9 8q150 -8 436 -8t448 8l8 -8q-1 -13 -9 -67t-26 -204l-8 -7h-36l-7 7l-14 136q-4 29 -30 37q-66 20 -223 20q-156 0 -229 -9q-37 -163 -102 -550q100 -3 200 -3zM-20 1113l224 311l25 5l33 -27v-27l-249 -270l-20 -6z" />
    <glyph glyph-name="Epsilontonos" unicode="&#x1fc9;" horiz-adv-x="1341" 
d="M770 765q100 0 310 13l8 -10l-39 -95q-228 10 -330 10t-165 -1q-43 -239 -95 -588q8 0 93 -6q84 -6 202 -6t202 8t100 16q18 10 28 31t26 81t19 73l10 7h41l8 -7q-27 -114 -41 -290l-12 -9l-697 8q-205 0 -297 -8l-7 8l3 43l10 8q97 3 115 17t33 72q17 58 109 574t92 592
q0 24 -18 32t-62 12q-45 2 -61 4l-7 8l5 43l9 8q150 -8 436 -8t448 8l8 -8q-1 -13 -9 -67t-26 -204l-8 -7h-36l-7 7l-14 136q-4 29 -30 37q-66 20 -223 20q-156 0 -229 -9q-37 -163 -102 -550q100 -3 200 -3zM-20 1113l224 311l25 5l33 -27v-27l-249 -270l-20 -6z" />
    <glyph glyph-name="Etatonos" unicode="&#x389;" horiz-adv-x="1730" 
d="M475 92q0 -18 18 -25t105 -16l6 -8l-5 -43l-9 -8l-38 2q-148 6 -224 6t-167 -8l-7 8l3 43l10 8q94 7 109 20q15 12 28 59q12 47 56 286l62 337l60 353q26 154 26 186t-12 44t-122 18l-6 8l5 43l9 8q112 -8 234 -8t213 8l7 -8l-3 -43l-9 -8q-100 -5 -114 -14t-20 -28
t-54 -247l-53 -282l253 -3q399 0 501 2q27 134 55 312t27 207q0 29 -17 37q-16 8 -60 12t-56 4l-7 8l5 43l9 8q145 -8 243 -8t201 8l7 -8l-3 -43l-9 -8q-97 -6 -110 -14q-14 -8 -24 -32t-60 -287t-100 -573q-52 -310 -52 -340t10 -38t45 -11l71 -8l7 -8l-14 -51l-267 9
q-67 0 -172 -9l-7 8l4 43l9 8q88 7 100 11t28 25q15 20 68 309l55 303l-396 2l-303 -2q-21 0 -56 1q-7 -52 -26 -159t-41 -250l-24 -162q-2 -19 -2 -37zM-20 1113l224 311l25 5l33 -27v-27l-249 -270l-20 -6z" />
    <glyph glyph-name="Etatonos" unicode="&#x1fcb;" horiz-adv-x="1730" 
d="M475 92q0 -18 18 -25t105 -16l6 -8l-5 -43l-9 -8l-38 2q-148 6 -224 6t-167 -8l-7 8l3 43l10 8q94 7 109 20q15 12 28 59q12 47 56 286l62 337l60 353q26 154 26 186t-12 44t-122 18l-6 8l5 43l9 8q112 -8 234 -8t213 8l7 -8l-3 -43l-9 -8q-100 -5 -114 -14t-20 -28
t-54 -247l-53 -282l253 -3q399 0 501 2q27 134 55 312t27 207q0 29 -17 37q-16 8 -60 12t-56 4l-7 8l5 43l9 8q145 -8 243 -8t201 8l7 -8l-3 -43l-9 -8q-97 -6 -110 -14q-14 -8 -24 -32t-60 -287t-100 -573q-52 -310 -52 -340t10 -38t45 -11l71 -8l7 -8l-14 -51l-267 9
q-67 0 -172 -9l-7 8l4 43l9 8q88 7 100 11t28 25q15 20 68 309l55 303l-396 2l-303 -2q-21 0 -56 1q-7 -52 -26 -159t-41 -250l-24 -162q-2 -19 -2 -37zM-20 1113l224 311l25 5l33 -27v-27l-249 -270l-20 -6z" />
    <glyph glyph-name="Iotatonos" unicode="&#x38a;" horiz-adv-x="822" 
d="M508 1300q0 32 -18 40t-116 14l-6 8l5 43l9 8q149 -8 247 -8t200 8l7 -8l-3 -43l-9 -8q-100 -6 -112 -12t-17 -18q-17 -30 -60 -265l-99 -549q-61 -370 -61 -404t18 -40t105 -15l6 -8l-5 -43l-9 -8l-248 8q-84 0 -181 -8l-7 8l3 43l10 8q93 7 102 14t18 21t19 52t55 276
l121 690q26 164 26 196zM-20 1113l224 311l25 5l33 -27v-27l-249 -270l-20 -6z" />
    <glyph glyph-name="Iotatonos" unicode="&#x1fdb;" horiz-adv-x="822" 
d="M508 1300q0 32 -18 40t-116 14l-6 8l5 43l9 8q149 -8 247 -8t200 8l7 -8l-3 -43l-9 -8q-100 -6 -112 -12t-17 -18q-17 -30 -60 -265l-99 -549q-61 -370 -61 -404t18 -40t105 -15l6 -8l-5 -43l-9 -8l-248 8q-84 0 -181 -8l-7 8l3 43l10 8q93 7 102 14t18 21t19 52t55 276
l121 690q26 164 26 196zM-20 1113l224 311l25 5l33 -27v-27l-249 -270l-20 -6z" />
    <glyph glyph-name="Omicrontonos" unicode="&#x38c;" horiz-adv-x="1630" 
d="M317 570q1 -128 25 -230t86 -177t140 -103q77 -28 195 -27q193 0 323 95q130 94 207 308t77 440t-122 364q-122 137 -357 137q-291 1 -432 -243q-76 -132 -109 -284t-33 -280zM138 542q0 338 182 588q226 310 651 310q284 0 432 -150q147 -150 147 -411t-124 -487
t-315 -329q-191 -104 -408 -104q-265 -1 -415 153t-150 430zM61 1113l224 311l25 5l33 -27v-27l-249 -270l-20 -6z" />
    <glyph glyph-name="Omicrontonos" unicode="&#x1ff9;" horiz-adv-x="1630" 
d="M317 570q1 -128 25 -230t86 -177t140 -103q77 -28 195 -27q193 0 323 95q130 94 207 308t77 440t-122 364q-122 137 -357 137q-291 1 -432 -243q-76 -132 -109 -284t-33 -280zM138 542q0 338 182 588q226 310 651 310q284 0 432 -150q147 -150 147 -411t-124 -487
t-315 -329q-191 -104 -408 -104q-265 -1 -415 153t-150 430zM61 1113l224 311l25 5l33 -27v-27l-249 -270l-20 -6z" />
    <glyph glyph-name="Upsilontonos" unicode="&#x38e;" horiz-adv-x="1553" 
d="M566 1441q292 0 293 -423q0 -160 -28 -395l30 -5l59 198q68 226 182 395t224 209q54 20 120 20t105 -24q40 -24 59 -71q19 -46 35 -133l-33 -22q-52 110 -142 110t-178 -60t-160 -158t-134 -258t-108 -414q-48 -254 -48 -294t17 -49q17 -8 117 -16l6 -8l-5 -43l-9 -8
q-154 8 -229 8t-220 -8l-7 8l4 43l9 8q89 1 107 11t28 30t20 73l30 149q62 314 62 457t-15 235t-48 158t-89 102t-124 36q-116 0 -187 -111l-19 -2l-11 30q134 222 287 222zM0 1113l224 311l25 5l33 -27v-27l-249 -270l-20 -6z" />
    <glyph glyph-name="Upsilontonos" unicode="&#x1feb;" horiz-adv-x="1553" 
d="M566 1441q292 0 293 -423q0 -160 -28 -395l30 -5l59 198q68 226 182 395t224 209q54 20 120 20t105 -24q40 -24 59 -71q19 -46 35 -133l-33 -22q-52 110 -142 110t-178 -60t-160 -158t-134 -258t-108 -414q-48 -254 -48 -294t17 -49q17 -8 117 -16l6 -8l-5 -43l-9 -8
q-154 8 -229 8t-220 -8l-7 8l4 43l9 8q89 1 107 11t28 30t20 73l30 149q62 314 62 457t-15 235t-48 158t-89 102t-124 36q-116 0 -187 -111l-19 -2l-11 30q134 222 287 222zM0 1113l224 311l25 5l33 -27v-27l-249 -270l-20 -6z" />
    <glyph glyph-name="Omegatonos" unicode="&#x38f;" horiz-adv-x="1810" 
d="M308 144h218v17q-158 87 -220 209t-62 294q0 336 216 556t593 220q289 0 457 -125t167 -387q0 -262 -153 -472t-380 -295v-17h174q76 0 106 10t54 40q24 32 71 126l8 8h42l8 -8q-63 -179 -100 -328q-183 8 -321 8t-268 -8l15 119q157 43 271 133t174 198t90 247
q30 138 31 246q1 209 -111 329t-318 120t-353 -112t-229 -302t-82 -400q0 -212 98 -330q46 -56 98 -84q53 -28 124 -45l-16 -119q-162 8 -294 8t-325 -8q23 156 28 328l8 8h38l7 -8q13 -134 33 -155t103 -21zM230 1429l17 -13l-85 -318h-26l36 317l19 15z" />
    <glyph glyph-name="Omegatonos" unicode="&#x1ffb;" horiz-adv-x="1810" 
d="M308 144h218v17q-158 87 -220 209t-62 294q0 336 216 556t593 220q289 0 457 -125t167 -387q0 -262 -153 -472t-380 -295v-17h174q76 0 106 10t54 40q24 32 71 126l8 8h42l8 -8q-63 -179 -100 -328q-183 8 -321 8t-268 -8l15 119q157 43 271 133t174 198t90 247
q30 138 31 246q1 209 -111 329t-318 120t-353 -112t-229 -302t-82 -400q0 -212 98 -330q46 -56 98 -84q53 -28 124 -45l-16 -119q-162 8 -294 8t-325 -8q23 156 28 328l8 8h38l7 -8q13 -134 33 -155t103 -21zM230 1429l17 -13l-85 -318h-26l36 317l19 15z" />
    <glyph glyph-name="iotadieresistonos" unicode="&#x390;" horiz-adv-x="637" 
d="M364 84q58 0 186 105l17 -3l10 -16l-4 -16q-220 -186 -325 -186q-59 0 -86 35t-27 82t24 167q103 501 122 669q88 14 164 46l19 -25q-64 -164 -119 -432t-55 -324q0 -58 23 -80t51 -22zM595 1398q77 0 77 -81q0 -49 -28 -85t-72 -36q-77 0 -77 90q-1 44 29 78t71 34z
M193 1398q77 0 77 -81q0 -49 -28 -85t-72 -36q-77 0 -77 90q-1 44 29 78t71 34zM438 1537l18 -15l-90 -361h-21l37 360l21 17z" />
    <glyph glyph-name="Alpha" unicode="&#x391;" horiz-adv-x="1444" 
d="M531 637h440l-79 587zM1101 0q-87 0 -200 -8l-7 8l3 43l9 8q84 5 106 13t21 45q0 8 -14 154l-39 296h-499l-144 -241q-117 -195 -117 -220q0 -24 18 -32t52 -10q33 -2 57 -5l7 -8l-5 -43l-9 -8q-114 8 -190 8t-199 -8l-7 8l7 44l8 7q11 2 45 6t53 15t151 221l714 1127h94
l168 -1208q15 -116 30 -131q15 -14 27 -17t90 -13l7 -8l-5 -43l-9 -8q-136 8 -223 8z" />
    <glyph glyph-name="Beta" unicode="&#x392;" horiz-adv-x="1251" 
d="M574 69q124 -1 199 41t118 131t43 182t-32 151t-101 88q-69 29 -177 29t-175 -7l-69 -414q-19 -115 -24 -176q94 -25 218 -25zM600 763q70 -1 134 19t120 66t89 116t33 150q0 114 -72 168t-194 54q-68 0 -145 -13q-60 -279 -102 -556q68 -4 137 -4zM390 1296q0 28 -13 41
q-13 12 -148 17l-7 9l5 42l10 8q91 -8 269 -8l252 4q208 1 298 -69t90 -205t-112 -245q-56 -56 -114 -87t-142 -62q134 -20 196 -45q62 -26 102 -88t40 -144t-33 -157q-33 -77 -93 -135t-148 -106t-145 -61q-56 -12 -158 -12l-328 7q-66 0 -130 -7l-8 7l5 43l8 8
q56 10 65 15t19 19t24 64q13 50 66 335l97 561q33 223 33 251z" />
    <glyph glyph-name="Gamma" unicode="&#x393;" horiz-adv-x="1108" 
d="M416 1306q0 24 -18 32t-62 12q-45 2 -61 4l-7 8l5 43l9 8q150 -8 436 -8t448 8l8 -8q-1 -13 -9 -67t-26 -204l-8 -7h-36l-7 7l-11 108q-3 38 -11 49t-51 23q-44 13 -202 13t-221 -9q-17 -79 -80 -422l-87 -501l-36 -235q-2 -21 -2 -48t24 -39t122 -22l7 -8l-6 -43l-9 -8
l-268 8q-40 0 -196 -8l-7 8l3 43l10 8q97 3 115 17t34 77t108 577t92 584z" />
    <glyph glyph-name="uni0394" unicode="&#x394;" horiz-adv-x="1452" 
d="M882 1248q-128 -204 -372 -618t-309 -533l18 -18h807l21 18l-117 944q-17 129 -30 207h-18zM922 1413h105l194 -1408l-13 -13q-272 10 -812 6l-208 -3l-153 -3l-13 13q73 108 387 592l325 511q127 201 188 305z" />
    <glyph glyph-name="Epsilon" unicode="&#x395;" horiz-adv-x="1261" 
d="M690 765q100 0 310 13l8 -10l-39 -95q-228 10 -330 10t-165 -1q-43 -239 -95 -588q8 0 93 -6q84 -6 202 -6t202 8t100 16q18 10 28 31t26 81t19 73l10 7h41l8 -7q-27 -114 -41 -290l-12 -9l-697 8q-205 0 -297 -8l-7 8l3 43l10 8q97 3 115 17t33 72q17 58 109 574t92 592
q0 24 -18 32t-62 12q-45 2 -61 4l-7 8l5 43l9 8q150 -8 436 -8t448 8l8 -8q-1 -13 -9 -67t-26 -204l-8 -7h-36l-7 7l-14 136q-4 29 -30 37q-66 20 -223 20q-156 0 -229 -9q-37 -163 -102 -550q100 -3 200 -3z" />
    <glyph glyph-name="Zeta" unicode="&#x396;" horiz-adv-x="1366" 
d="M734 1326q-284 0 -371 -28q-18 -52 -52 -203l-9 -8h-38l-8 8q21 136 23 309l12 9q619 -9 767 -9t264 9l8 -8l-3 -38l-67 -79l-955 -1204q416 -4 571 -4t260 31q16 24 69 218l11 8h45l6 -8q-35 -193 -48 -329l-10 -8l-518 5q-165 3 -313 3t-300 -8l-8 8l4 43l159 197
l861 1086h-360z" />
    <glyph glyph-name="Eta" unicode="&#x397;" horiz-adv-x="1630" 
d="M375 92q0 -18 18 -25t105 -16l6 -8l-5 -43l-9 -8l-38 2q-148 6 -224 6t-167 -8l-7 8l3 43l10 8q94 7 109 19.5t28 59.5q12 47 56 286l62 337l60 353q26 154 26 186t-12 44t-122 18l-6 8l5 43l9 8q112 -8 234 -8t213 8l7 -8l-3 -43l-9 -8q-100 -5 -114 -14t-20.5 -28
t-53.5 -247l-53 -282l253 -3q399 0 501 2q27 134 54.5 312t27.5 207t-16.5 37t-60.5 12t-56 4l-7 8l5 43l9 8q145 -8 243 -8t201 8l7 -8l-3 -43l-9 -8q-97 -6 -110 -13.5t-23.5 -32t-60 -287.5t-101 -573.5t-51.5 -339.5t9.5 -37.5t45.5 -11.5l71 -8l7 -8l-14 -51l-267 9
q-67 0 -172 -9l-7 8l4 43l9 8q88 7 100.5 11.5t28 24t67.5 309.5l55 303l-396 2l-303 -2q-21 0 -56 1q-7 -52 -26 -159t-41 -250l-24 -162q-2 -19 -2 -37z" />
    </font>
</defs>
</svg>
