<?xml version="1.0" standalone="no"?>
<!DOCTYPE svg PUBLIC "-//W3C//DTD SVG 1.1//EN" "http://www.w3.org/Graphics/SVG/1.1/DTD/svg11.dtd" >
<svg xmlns="http://www.w3.org/2000/svg">
<metadata>
Created by FontPrep 20130207 at Thu Jul 13 14:06:52 2017
 By Richard Lyon
(c) 2007 Adobe Systems Incorporated. All rights reserved.
</metadata>
<defs>
<font id="e46aca176290f68adffecf0e2773e18d" horiz-adv-x='1024' >
  <font-face 
    font-family="ArnoPro-Display"
    font-weight="400"
    font-stretch="normal"
    units-per-em="2048"
    panose-1="2 2 5 2 5 5 6 2 4 3"
    ascent="1409"
    descent="-639"
    x-height="788"
    cap-height="1255"
    bbox="-326.16 -776.333 2765.27 1726"
    underline-thickness="102"
    underline-position="-102"
    unicode-range="U+0020-FB06"
  />
<missing-glyph horiz-adv-x="1013" 
d="M102 1227v-1034l344 518zM162 102h690l-344 516zM567 711l346 -518v1034zM508 801l344 518h-690zM0 0v1419h1014v-1419h-1014z" />
    <glyph glyph-name="f_f" unicode="ff" horiz-adv-x="950" 
d="M293 817v-20q0 -14 10 -15h318q10 4 10 17q4 221 71 370q-78 119 -202 119q-66 0 -105 -37q-102 -90 -102 -434zM932 1321q-78 0 -113 -73q-34 -73 -40 -160q-7 -86 -7 -205v-84q0 -16 10 -17q131 2 193 9q-14 -37 -14 -76q-119 6 -181 2q-8 0 -8 -19q2 -115 0 -288
t4 -291q2 -66 50 -77t98 -15q4 -3 3 -17t-7 -16l-224 6l-188 -6q-4 4 -4 16t4 17q61 8 76 14q43 10 43 72q4 114 4 587q0 16 -8 17h-322q-8 0 -8 -17l2 -442q0 -96 2 -139q2 -68 55 -82q20 -4 78 -10q2 -5 1 -17t-5 -16l-203 6l-192 -6q-12 13 0 31q55 10 71 16q47 12 48 76
l2 581q0 16 -9 17l-100 6q0 18 12 31q66 16 90 26q8 8 9 15q0 338 235 499q94 68 189 72q131 0 208 -84q45 51 121 91q132 69 229 15q40 -23 52 -51v-22q-4 -12 -28 -44t-34 -40t-18 -3t-22 18q-14 14 -21 18t-21 16t-24 17l-26 13q-27 13 -62 13z" />
    <glyph glyph-name="f_f_i" unicode="ffi" horiz-adv-x="1386" 
d="M293 817v-20q0 -14 10 -15h318q10 4 10 17q4 221 71 372q-78 121 -206 121q-58 0 -106 -43t-72 -141t-25 -291zM968 1335q-70 1 -107 -33q-89 -78 -89 -466l2 -41q0 -12 8 -13l277 2q131 0 192 21q-6 -80 -6 -338t2 -356q0 -53 43 -70q29 -8 88 -14q4 -1 2 -17t-8 -16
l-201 6l-188 -6q-4 2 -4 16t4 17q49 4 79 15q30 12 35 74t5 305t-4 269t-21 27h-297q-8 0 -8 -10q2 -117 0 -293t4 -295q2 -68 58 -82q27 -6 71 -10q2 -3 2 -17t-4 -16l-201 6l-192 -6q-2 2 -2 16t2 17q63 10 74 12q43 14 43 72q0 127 4 589q0 16 -8 17h-322q-8 0 -8 -17
q0 -498 3 -574t56 -89l24 -4t27 -3q16 -1 27 -3q2 -3 1 -17t-5 -16l-203 6l-192 -6q-12 13 0 31q55 10 71 16q47 12 48 76l2 581q0 16 -9 17l-100 6q0 20 10 31q68 14 92 28q8 8 9 13q0 342 231 503q102 68 195 72q131 4 202 -88q49 53 127 93t151 39t124 -32
q80 -48 69 -110q-16 -47 -61 -68q-18 -4 -33 2q-8 6 -49 51q-72 80 -142 80z" />
    <glyph glyph-name="f_f_l" unicode="ffl" horiz-adv-x="1394" 
d="M293 817v-20q0 -14 10 -15h318q10 4 10 17q0 225 69 379q-78 115 -204 114q-54 0 -104 -44t-74 -141t-25 -290zM27 10q0 12 4 17q53 8 71 14q46 13 48 71t2 266v324q0 12 -9 13l-102 6q0 14 12 31q61 14 90 26q8 6 9 15q2 167 53 289t182 214q102 68 211 72t186 -86
q47 53 119 92q73 39 141 39t119 -31q24 -14 86 29q10 0 11 -12q-14 -73 -16 -193t-1 -518q0 -398 6 -571q2 -57 41 -76q23 -6 90 -14q8 -27 -4 -33l-198 6l-195 -6q-10 16 2 31q70 12 82 16q31 14 31 61q6 74 6 594t-3 544t-18 38q-55 57 -119 57q-64 1 -98 -29
q-35 -30 -53 -72q-19 -42 -31 -127t-12 -192q0 -108 1 -120t9 -13q127 0 195 6q-12 -41 -12 -73l-185 2q-8 0 -8 -12q6 -571 6 -588q2 -66 58 -80q37 -8 75 -10q2 -3 0 -17t-4 -16l-207 6l-194 -6q-12 12 0 33q63 8 78 14q45 12 45 72l4 587q0 16 -8 17h-322q-8 0 -8 -17
q6 -571 6 -581q2 -68 53 -82q20 -4 78 -10q2 -5 1 -17t-5 -16l-205 6l-192 -6q-2 4 -2 16z" />
    <glyph glyph-name="longs_t" unicode="&#x17f;t" horiz-adv-x="1005" 
d="M532 1391q100 -1 152 -61t53 -150q2 -41 1 -204t-2 -178t9 -16q186 0 236 9q-14 -56 -14 -86l-224 2q-10 0 -10 -13l-2 -432q2 -72 17 -119q30 -73 108 -73t129 36q7 -7 -4 -40q-35 -43 -92 -66t-113 -23q-121 0 -162 86q-25 49 -24 234l2 393q0 10 -6 12t-113 11
q0 12 19 49q72 12 87 18t15 17q12 145 8 344q0 92 -37 140t-106 48q-166 0 -166 -510l2 -534q0 -125 2 -168q2 -66 55 -80q18 -4 82 -10q2 -5 1 -17t-5 -16l-207 6l-192 -6q-4 4 -4 16t4 15q23 4 71 16q47 14 48 78l2 575q0 14 -9 15l-100 6q0 25 14 39q49 6 73 20t24 23
q0 178 39 296t131 201q41 41 100 69t108 28z" />
    <glyph glyph-name="R_A" unicode="RA" horiz-adv-x="2297" 
d="M1690 586q136 0 151 2q8 0 4 12q-94 303 -149 463q-8 0 -12 -11t-154 -452q0 -10 6 -12q18 -2 154 -2zM451 1206q-39 0 -62 -8q-10 -4 -13 -44t-3 -511q0 -10 8 -10q176 -20 244 8q147 55 147 260q0 143 -82 224t-239 81zM49 9q0 13 6 16q80 12 105 18t37 31t16 111
t4 469q0 382 -4 464t-66 92q-45 11 -94 15q-2 4 -2 16t4 14l211 -6l318 4q170 0 259 -86t89 -221q0 -223 -238 -321q-6 -6 -2 -13q55 -92 171 -248t193 -237q77 -80 140 -80q29 0 44 16t38 70q184 444 383 1014q20 55 29 104l18 -2h66l28 2q14 -69 24 -97t152 -455
q140 -427 180 -521t68 -117t131 -34q2 -3 0 -17t-4 -16q-155 6 -275 6t-196 -6q-2 4 -2 15t2 18q80 12 100 20q35 14 25 55q-33 119 -135 404q-10 10 -22 11t-166 1t-170 -1q-17 -1 -21 -15q-119 -317 -125 -377q-6 -33 3 -52q14 -29 142 -46q3 -5 3 -17t-5 -16l-211 6
l-227 -4q-65 0 -109 24t-108 93q-64 70 -299 424q-20 35 -49 34l-127 -2q-8 0 -8 -12q0 -317 3 -389t14 -94q11 -20 39 -28t108 -19q4 -5 3 -17t-5 -16l-240 6q-84 0 -162 -4l-78 -2q-6 2 -6 15z" />
    <glyph glyph-name="K_A" unicode="KA" horiz-adv-x="2299" 
d="M1692 586q136 0 149 2q8 0 4 12q-123 393 -147 467q-8 0 -8 -2q-16 -43 -160 -465q0 -10 13 -12t149 -2zM1167 1240q0 -11 -2 -15q-86 -12 -128 -36t-109 -99q-281 -313 -369 -402v-6q33 -64 231 -288t275 -284t127 -59q50 0 74 51q150 340 395 1045q20 61 27 104l59 -2
h27l28 2q0 -15 160 -497t198 -576t68 -117t129 -34q2 -3 1 -17t-5 -16q-155 6 -275 6t-194 -6q-2 4 -2 15t2 18q80 12 101 20q35 16 23 59t-134 400l-6 6q-8 4 -19 5t-163 1t-170 -1t-21 -15q-121 -326 -125 -360t-4 -50q0 -37 55 -49t92 -16q2 -5 1 -17t-5 -16l-211 6
l-206 -6q-72 0 -121 18t-112 77t-208 227t-225 274q-12 16 -31 28q0 12 6 19q68 27 187 147t235 269q57 78 57 117t-141 55q-2 2 -1 14t3 16l201 -6q137 0 223 6q2 -4 2 -15zM45 8q0 12 2 17q83 10 105 15q43 10 54 63t11 487t-3 502t-19 94q-16 25 -72 31t-64 8q-2 4 -2 15
t2 15l236 -6l217 6q4 -2 4 -14t-4 -16q-60 -7 -84 -15q-41 -13 -48 -58q-7 -44 -7 -439q0 -393 3 -503t16 -136t45 -33q32 -8 106 -16q4 -3 2 -15t-6 -16l-256 6l-236 -6q-2 2 -2 14z" />
    <glyph glyph-name="T_T" unicode="TT" horiz-adv-x="2091" 
d="M311 10q0 10 4 15q88 8 131 17t56 40q12 31 17 138t5 956q0 16 -20 17t-132 0q-114 -1 -155 -3t-70 -53q-33 -45 -77 -179q-2 -4 -18 -1t-17 8q25 123 37 311l10 4q66 -31 160 -31h1613q109 0 179 25q8 0 8 -4q-25 -80 -41 -307q-3 -5 -19 -5t-18 5q-8 115 -31 165
q-17 54 -75 58q-184 11 -304 4q-10 -4 -10 -19q0 -777 6 -923t22 -172t47 -34q32 -9 105 -17q4 -1 2 -15t-6 -16l-254 6l-290 -6q-4 6 -5 16q0 10 5 15q88 8 131 17t55 40t17 138t5 956q0 16 -12 16l-678 -2q-10 -4 -10 -19q0 -777 6 -923t22 -172t47 -34q32 -9 105 -17
q4 -1 2 -15t-6 -16l-254 6l-291 -6q-4 6 -4 16z" />
    <glyph glyph-name="T_h" unicode="Th" horiz-adv-x="1966" 
d="M1153 1260v108q0 14 10 14q46 0 127 27q10 0 10 -10l-2 -19l-2 -184v-508q0 -6 9 -2q163 125 279 125t176 -81t61 -232q0 -221 4 -402q0 -27 12 -37q31 -25 113 -32q2 -3 -1 -17t-7 -16l-74 4q-72 4 -182 1t-125 -5q-4 4 -5 16q0 12 5 17q71 12 85 19q14 8 20 26t11 214
q4 196 -10 266t-59 116t-132 45q-87 0 -153 -56q-27 -23 -27 -47q0 -398 4 -462t19 -88q14 -24 104 -33q10 -10 0 -31l-204 4l-179 -6q-10 12 0 33q55 8 70 12q41 12 44 103t3 520t-2 501q0 20 -18 25q-63 2 -227 2t-201 -2q-10 -4 -11 -19q0 -843 6 -955t21 -136
q16 -24 48 -34q32 -9 118 -17q2 -3 0 -17t-4 -16l-269 6q-57 0 -160 -4t-130 -2q-4 6 -4 18t4 15q86 8 130 16t57 39t17 111q4 180 5 983q0 14 -19 15q-70 4 -290 -2q-77 -2 -158 -220q-4 -4 -18 0t-17 8q29 166 35 301h18q63 -29 152 -29l905 2q8 0 8 9z" />
    <glyph glyph-name="f_b" unicode="fb" horiz-adv-x="1419" 
d="M924 713q-66 0 -140 -35q-24 -10 -26 -37t-1 -171t4 -227t9 -111t25 -46q53 -37 157 -37t173 78t69 239t-68 248q-73 99 -202 99zM27 10q0 12 2 17q57 8 73 14q45 12 45 72q4 213 5 577q0 16 -9 17l-102 4q0 20 14 39q66 14 81 23t16 22q2 199 53 325t186 219
q89 59 155 59t102 -12q36 -14 54 -8t58 33q10 0 10 -12q-14 -96 -14 -340t4 -350q0 -8 10 -4q186 106 270 106q136 0 220 -98t83 -252q0 -250 -184 -379q-55 -41 -152 -74t-189 -33t-218 48q16 72 16 603q0 530 -2 574t-16 62q-48 57 -114 57t-99 -33q-92 -74 -92 -432
q0 -47 1 -59t9 -13q127 0 195 6q-6 -14 -19 -83q-115 6 -178 2q-8 0 -8 -13l2 -439q0 -95 2 -138q2 -68 57 -80q37 -8 76 -10q2 -3 1 -17t-3 -16l-207 6l-192 -6q-2 4 -2 16z" />
    <glyph glyph-name="f_f_b" unicode="ffb" horiz-adv-x="1904" 
d="M1415 717q-80 0 -153 -47q-14 -10 -16 -37t-3 -164q0 -137 3 -235t40 -132q62 -53 160 -53t158 68q78 84 78 246t-74 258q-72 96 -193 96zM293 817v-20q0 -14 10 -15h318q10 4 10 17q4 229 71 375q-82 117 -206 116q-60 0 -108 -43t-72 -139t-23 -291zM152 702
q0 12 -9 13l-100 6q0 18 12 31q63 16 90 26q8 8 9 15q0 165 51 287t182 214q104 70 195 74q127 4 204 -86q45 53 117 92q73 39 143 39t117 -31q26 -16 86 29q7 0 13 -12q-14 -73 -16 -193t-1 -497q0 -8 10 -4q186 106 271 106q137 0 223 -104q82 -94 82 -246
q0 -333 -325 -454q-84 -32 -152 -32t-160 29q-32 10 -66 -2t-34 2q8 96 12 623q0 561 -2 595t-21 52q-53 59 -123 59t-109 -39q-61 -62 -75 -265q-4 -71 -4 -177v-57q0 -12 8 -13q133 0 195 6q-12 -41 -12 -73l-183 2q-10 0 -10 -12l8 -588q0 -63 56 -80q35 -8 75 -10
q2 -3 0 -17t-4 -16l-205 6l-196 -6q-12 12 0 33q63 8 78 14q45 10 45 72l4 587q0 16 -8 17h-322q-8 0 -8 -17q6 -565 6 -581q2 -68 55 -82q20 -4 78 -10q6 -20 -6 -33l-203 6l-192 -6q-12 13 2 33q59 10 69 14q47 14 48 76q2 106 2 585z" />
    <glyph glyph-name="f_f_h" unicode="ffh" horiz-adv-x="1910" 
d="M152 702q0 12 -9 13l-100 6q0 18 12 31q63 16 90 26q8 8 9 15q0 167 51 289t184 214q98 68 209 72t188 -86q47 53 119 92q73 39 141 39t117 -31q26 -16 86 29q7 0 13 -12q-14 -73 -16 -193t-1 -518q0 -6 8 -2q162 125 277 125t177 -84t62 -235q-1 -305 1 -362t17 -71
t33 -18q17 -4 23 -6q5 -2 25 -4t28 -4q2 -7 0 -19t-6 -14l-200 6q-96 0 -183 -6q-4 2 -4 15t4 18q74 12 87 19q14 8 20 26t8 82q12 315 -10 417q-10 55 -56 99t-134 45q-89 0 -152 -58q-25 -18 -25 -45q0 -426 4 -477t18 -75t103 -33q2 -3 2 -15t-2 -16l-67 2q-68 2 -138 2
l-178 -6q-2 4 -2 16t4 17q53 8 68 12q41 12 43 96l4 527q0 552 -1 576t-18 40q-55 57 -125 57q-131 0 -163 -157q-25 -122 -25 -326v-57q0 -12 8 -13q133 0 195 6q-12 -41 -12 -73l-183 2q-10 0 -10 -12l8 -588q0 -63 56 -80q35 -8 75 -10q2 -3 0 -17t-4 -16l-205 6l-196 -6
q-12 12 0 33q63 8 78 14q45 10 45 72l4 587q0 16 -8 17h-322q-8 0 -8 -17q6 -565 6 -581q2 -68 55 -82q20 -4 78 -10q6 -20 -6 -33l-203 6l-192 -6q-12 13 2 33q59 10 69 14q47 14 48 76q2 106 2 585zM293 817v-20q0 -14 10 -15h318q10 4 10 17q4 236 71 379
q-74 115 -204 114q-60 0 -108 -44t-72 -140t-25 -291z" />
    <glyph glyph-name="f_f_j" unicode="ffj" horiz-adv-x="1376" 
d="M293 817v-20q0 -14 10 -15h318q10 4 10 17q0 213 69 372q-86 121 -204 121q-58 0 -106 -43t-72 -141t-25 -291zM152 698q0 16 -9 17l-102 6q0 16 10 31q98 22 101 41q0 342 233 503q98 68 211 72t186 -88q47 53 125 93t151 39t127 -34q87 -53 68 -101q-18 -48 -65 -75
q-14 -8 -29 2q-14 10 -51 53q-74 78 -142 78q-68 1 -105 -33q-89 -78 -89 -466v-41q0 -12 10 -13l271 2q131 0 196 25q-4 -137 -4 -713q0 -92 -12 -192q-21 -158 -109 -289t-176 -184q-14 0 -33 14q-2 2 -2 10q102 74 146 186q43 112 43 326v6q0 608 -8 723q0 20 -15 21
h-299l-10 -10q6 -578 6 -588q2 -68 55 -82q29 -6 74 -10q2 -3 2 -17t-4 -16l-203 6l-190 -6q-4 2 -4 15t2 18q61 8 76 12q41 12 42 86t5 575q0 16 -8 17h-322q-10 1 -10 -17q0 -471 6 -581q2 -68 55 -82l24 -4t27 -3q16 -1 27 -3q2 -3 1 -17t-5 -16l-205 6l-192 -6
q-4 4 -4 16t4 15q53 8 73 16q45 12 45 76q5 147 5 581z" />
    <glyph glyph-name="f_f_k" unicode="ffk" horiz-adv-x="1826" 
d="M293 817v-20q0 -14 10 -15h318q10 4 10 17q4 233 71 379q-74 115 -204 114q-60 0 -108 -44t-72 -140t-25 -291zM152 702q0 12 -9 13l-100 6q0 18 12 31q63 16 90 26q8 8 9 15q0 167 51 289t184 214q98 68 209 72t188 -86q45 53 118 92q72 39 142 39t117 -31q26 -16 86 29
q7 0 13 -12q-14 -72 -15 -209q0 -421 -6 -772q41 0 100 49q68 63 130 141t63 101q0 31 -119 41q-2 2 -1 16t3 16q219 0 342 19q4 -3 5 -17t-3 -18q-102 -20 -149 -70q-23 -23 -213 -233q-4 -4 -2 -8q53 -80 168 -213t174 -179q37 -25 61 -29t90 -7q4 -1 3 -15t-5 -18
q-14 -2 -106 -5t-127 -2t-77 37t-153 176q-110 140 -132 166t-52 23q0 -189 3 -249t14 -78t36 -23q25 -6 78 -12q4 -5 3 -17t-5 -16l-196 6l-185 -6q-4 2 -4 16t4 17q53 8 70 14q37 17 42 75t5 568t-2 543t-19 49q-51 57 -123 57q-133 0 -165 -156q-25 -120 -25 -325v-57
q0 -12 8 -13q133 0 195 6q-12 -41 -12 -73l-183 2q-10 0 -10 -12l8 -588q0 -63 56 -80q35 -8 75 -10q2 -3 0 -17t-4 -16l-205 6l-196 -6q-12 12 0 33q63 8 78 14q45 10 45 72l4 587q0 16 -8 17h-322q-8 0 -8 -17q6 -565 6 -581q2 -68 55 -82q20 -4 78 -10q6 -20 -6 -33
l-203 6l-192 -6q-12 13 2 33q59 10 69 14q47 14 48 76q2 106 2 585z" />
    <glyph glyph-name="f_f_t" unicode="fft" horiz-adv-x="1513" 
d="M152 702q0 12 -9 13l-102 6q0 14 12 31q49 10 90 28q8 6 9 13q2 356 219 507q89 62 183 62t120 -59v-19q-4 -14 -24 -43t-28 -34q-10 -5 -24 -5q-74 84 -149 84q-45 0 -82 -35q-74 -76 -74 -387v-67q0 -14 8 -15h326q10 4 10 17q4 182 53 319t178 228q94 68 188 68
t134 -68v-23q-14 -43 -62 -80q-8 -8 -16 -3t-46 39t-70 42q-31 8 -63 8t-67 -33q-88 -72 -88 -397v-104q0 -12 8 -13l308 2q6 2 6 11v157q29 12 74 48t57 55q10 4 20 -2q-8 -61 -8 -258q0 -12 8 -13q188 0 238 9q-7 -29 -14 -76l-224 2q-8 0 -8 -12q-6 -299 -4 -411t18 -153
q27 -73 105 -73t133 36q2 -2 -1 -18t-5 -20q-68 -88 -196 -88t-169 85q-27 53 -26 234l2 403q0 14 -8 17h-308q-8 0 -8 -10q0 -487 6 -588q2 -68 56 -78q43 -10 90 -14q4 -3 3 -17t-5 -16l-226 6l-186 -6q-2 2 -2 15t2 18q61 8 76 14q41 10 42 85t5 574q0 16 -8 17h-328
q-10 0 -10 -17q2 -88 2 -307t3 -281t56 -75q20 -4 78 -10q2 -5 1 -17t-5 -16l-205 6l-192 -6q-4 4 -4 16t4 15q53 8 73 16q45 12 45 76q5 147 5 585z" />
    <glyph glyph-name="f_h" unicode="fh" horiz-adv-x="1433" 
d="M25 10q0 12 4 17q57 8 73 14q45 12 45 72q4 213 5 577q0 16 -9 17l-100 4q0 23 14 41q92 10 95 43q2 197 52 325t185 219q154 96 293 37q32 -11 88 35q12 0 12 -12q-14 -72 -15 -155t-1 -194l2 -362q0 -6 8 -2q162 125 278 125t177 -83t61 -236q0 -305 2 -396
q0 -20 15 -37q19 -14 35 -18t22 -6t26 -4t27 -4q2 -3 -1 -17t-5 -16q-10 0 -79 4q-70 4 -182 0t-122 -4q-2 2 -2 15t2 18q72 12 87 19q15 8 21 26t11 212q4 194 -14 287q-11 55 -57 99t-134 43q-88 0 -151 -56q-25 -18 -25 -45q0 -426 3 -477t18 -73t106 -35q2 -3 2 -15
t-2 -16l-207 4l-178 -6q-4 2 -3 14t5 19q53 8 68 12q43 12 46 103t3 548t-3 502t-16 61q-47 70 -135 70q-128 0 -163 -184q-19 -106 -19 -219t1 -125t9 -13q127 0 195 6q-12 -39 -17 -83q-119 6 -180 2q-8 0 -8 -13l2 -439q0 -95 2 -138q2 -68 57 -80q37 -8 76 -10
q2 -5 2 -17t-4 -16l-207 6l-192 -6q-4 4 -4 16z" />
    <glyph glyph-name="f_i" unicode="fi" horiz-adv-x="907" 
d="M29 10q0 14 2 17q57 8 73 12q43 14 43 76q4 160 5 583q0 16 -9 17l-100 6q0 18 12 31q66 16 82 25t17 20q0 188 52 318t170 212t198 82t132 -30q82 -47 70 -99q-6 -18 -28 -45t-39 -33q-15 -6 -27 2t-49 47q-74 78 -156 78q-49 0 -95 -42t-66 -148t-21 -303v-41
q0 -12 8 -13l277 2q133 0 192 21q-6 -80 -6 -338t2 -356q0 -53 43 -70q33 -10 82 -14q2 -3 0 -17t-8 -16l-193 6l-184 -6q-2 4 -2 16t2 17q47 4 76 16q30 11 34 73t4 305t-4 269t-16 27h-301q-8 0 -8 -19l2 -441q0 -95 2 -138q2 -68 53 -82q31 -6 78 -10q4 -3 2 -17t-6 -16
l-201 6l-190 -6q-4 2 -4 16z" />
    <glyph glyph-name="f_j" unicode="fj" horiz-adv-x="899" 
d="M29 10q0 14 2 17q57 8 73 12q43 14 43 76q4 160 5 583q0 16 -9 17l-100 6q0 18 12 31q66 16 82 25t17 20q0 188 51 318t184 222q99 72 181 72t136 -29t70 -71q15 -22 -19 -60q-34 -39 -46 -44t-31 -1q-11 11 -24 26q-88 101 -177 101q-49 0 -97 -44t-68 -148t-19 -303
v-41q0 -12 8 -13l272 2q127 0 197 25q-6 -123 -6 -713q0 -111 -12 -192q-18 -158 -106 -289t-179 -184q-15 0 -25 8t-10 11t2 5q102 74 145 186q42 112 42 326v6q0 608 -7 723q-4 20 -14 21h-301q-8 0 -8 -19l2 -441q0 -95 2 -138q2 -68 53 -82q31 -6 78 -10q4 -3 2 -17
t-6 -16l-201 6l-190 -6q-4 2 -4 16z" />
    <glyph glyph-name="f_k" unicode="fk" horiz-adv-x="1347" 
d="M25 8q0 10 4 15q49 6 73 16q45 10 45 74q4 213 5 577q0 16 -9 17l-100 4q0 25 12 41q55 6 88 26q8 2 9 17q2 197 52 325t185 219q97 59 167 59t124 -22q32 -11 90 35q12 0 12 -12q-14 -71 -16 -227t-2 -754q49 0 104 49q68 67 125 143t57 103t-116 37q-4 4 -3 16t5 16
q215 0 342 19q4 -5 5 -17t-3 -18q-106 -25 -156 -75t-200 -224q-4 -4 0 -8q51 -80 166 -215t157 -167t66 -39t104 -11q0 -27 -6 -33q-13 -4 -113 -6t-130 2t-73 40q-44 36 -147 168t-127 160q-18 29 -57 27q0 -189 3 -247t14 -76t43 -24q32 -7 75 -13q0 -25 -6 -31l-197 6
l-188 -6q-2 2 -2 14t2 15q39 6 76 18q39 17 42 75t3 318l-2 657v115q-2 23 -19 49q-47 68 -133 68q-53 0 -90 -33q-92 -78 -92 -442q0 -41 1 -53t9 -13q127 0 195 6q-16 -55 -17 -83q-119 6 -180 2q-8 0 -8 -13l2 -439q0 -95 2 -138q2 -68 57 -82q14 -4 42 -7t34 -5
q2 -5 2 -15t-4 -14l-207 6l-192 -6q-4 4 -4 14z" />
    <glyph glyph-name="f_l" unicode="fl" horiz-adv-x="911" 
d="M27 10q0 12 2 17q57 8 73 14q45 12 45 72q2 102 7 577q0 16 -11 17l-100 4q0 23 14 41q53 6 75 19t22 24q0 197 51 325t192 222q141 95 283 34q32 -8 90 35q4 0 8 -5t4 -7q-14 -73 -15 -193t-1 -562t4 -514t37 -84t88 -19q4 -3 2 -17t-6 -16l-191 6l-194 -6q-6 12 0 31
q53 6 82 16t34 63q5 52 5 568t-1 542t-18 41q-46 68 -118 68t-105 -31q-92 -78 -92 -438q0 -47 1 -59t9 -13q127 0 195 6q-12 -41 -17 -83q-119 6 -180 2q-8 0 -8 -13l2 -439q0 -95 2 -138q2 -68 57 -80q37 -8 76 -10q2 -3 1 -17t-3 -16l-205 6l-194 -6q-2 4 -2 16z" />
    <glyph glyph-name="f_t" unicode="ft" horiz-adv-x="995" 
d="M152 690q0 16 -9 17l-104 4q0 23 12 39q49 6 92 26q10 10 11 12q0 197 46 321t173 216q41 33 97 59t102 25q46 1 90 -21t55 -51v-16q-4 -18 -28 -55t-33 -42t-21 -5q-86 96 -182 96q-47 0 -82 -35q-74 -68 -77 -363q-1 -110 0 -122t9 -13h287q8 4 8 13v157q27 12 73 48
t58 55q8 2 23 -2q-10 -51 -11 -258q0 -12 9 -13q170 0 219 9q0 -12 -15 -82l-204 2q-10 0 -11 -13q-6 -294 -3 -402t18 -155q29 -71 99 -71t120 32q2 -2 0 -17t-4 -19q-68 -88 -188 -88t-160 85q-25 49 -25 234l2 399q0 14 -10 17h-287q-8 0 -8 -19l2 -436q0 -94 2 -137
q2 -66 53 -78t99 -16q2 -3 0 -17t-5 -16l-227 6l-186 -6q-4 4 -4 16t4 17q61 10 69 12q47 14 47 78q5 147 5 573z" />
    <glyph glyph-name="longs_b" unicode="&#x17f;b" horiz-adv-x="1402" 
d="M911 715q-66 0 -143 -37q-23 -10 -26 -37t-2 -173t4 -244t36 -130q56 -47 156 -47t164 70q78 88 78 249t-71 255t-196 94zM27 10q0 12 2 15q39 6 73 14q45 14 45 74q4 213 5 583q0 12 -9 13l-100 6q0 23 12 39q63 14 88 26q8 6 9 17q2 199 53 329t186 220q83 53 147 53
q64 1 94 -13t52 -8q21 6 59 33q10 0 11 -12q-14 -96 -15 -211q0 -476 5 -480q5 -3 10 -1q184 104 270 104q137 0 221 -104q82 -94 82 -246q0 -250 -184 -379q-55 -41 -153 -74t-190 -33t-216 48q14 63 14 604t-1 577t-17 56q-44 63 -104 63t-91 -27q-92 -80 -92 -446v-139
l2 -453q0 -98 2 -141q2 -66 52 -78t81 -12q4 -5 3 -17t-5 -16l-207 6l-192 -6q-2 4 -2 16z" />
    <glyph glyph-name="longs_h" unicode="&#x17f;h" horiz-adv-x="1411" 
d="M739 690q0 -6 9 -2q160 123 276 123t178 -83q61 -83 62 -236q0 -305 1 -364t13 -69q29 -23 113 -32q2 -3 -1 -17t-6 -16l-200 6q-96 0 -183 -6q-4 4 -4 16t4 17q57 10 77 17q20 6 30 26q8 20 10 84q6 334 -8 403q-32 156 -190 156q-92 0 -156 -56q-25 -18 -25 -45
q0 -426 4 -477q5 -51 15 -69t39 -26t69 -13q2 -5 1 -17t-3 -14l-205 4l-176 -6q-4 4 -4 16t4 17q53 8 68 12q41 12 43 96q6 73 6 557t-3 525t-15 51q-44 57 -102 57t-89 -29q-98 -82 -98 -454v-131l2 -452q0 -99 2 -142q2 -68 52 -79t79 -11q2 -5 2 -17t-4 -16l-205 6
l-192 -6q-4 4 -4 16t4 17q57 8 73 12q45 14 45 74q4 213 5 581q0 14 -9 15l-100 6q0 20 14 39q59 12 86 26q8 8 9 15q2 199 53 327t184 219q135 87 241 43q34 -14 50 -6q29 6 63 33q12 0 13 -12q-14 -72 -15 -211l-2 -373v-125z" />
    <glyph glyph-name="longs_i" unicode="&#x17f;i" horiz-adv-x="884" 
d="M477 9q0 11 2 16q59 10 86 20q27 9 31 69t4 345l-2 182q0 23 -13 41t-81 39q-2 4 -2 15t2 16q143 14 244 59q-11 -309 -3 -700q0 -53 41 -70q37 -10 80 -16q0 -27 -8 -31l-188 6l-191 -6q-2 4 -2 15zM29 8q0 12 2 15q57 8 73 14q43 10 43 74q4 213 5 583q0 14 -9 15
l-102 6q0 23 16 39q43 6 86 28q10 0 11 17q0 377 235 540q99 70 179 70t132 -29t70 -75q6 -18 0 -35q-12 -47 -61 -68q-21 -4 -29 1t-51 52q-70 76 -154 76q-47 0 -88 -39q-94 -86 -92 -477q0 -662 2 -700q2 -70 55 -80q25 -6 74 -12q2 -3 2 -15t-4 -14l-201 6l-190 -6
q-4 2 -4 14z" />
    <glyph glyph-name="longs_k" unicode="&#x17f;k" horiz-adv-x="1341" 
d="M965 610q57 78 57 98t-29 30q-29 9 -86 14q-4 4 -3 15t5 15q215 0 342 19q6 -14 2 -35q-24 -8 -46 -11t-33 -10q-11 -6 -22 -11t-18 -10t-22 -15t-215 -242q-4 -4 0 -8q49 -78 163 -212t163 -171t77 -43t91 -8q0 -25 -7 -31q-14 -4 -113 -6t-131 2t-72 38t-144 167
t-128 163t-59 27q0 -189 3 -247q2 -58 14 -76t32 -22q20 -5 84 -13q4 -18 -4 -33l-196 6l-189 -6q-2 2 -2 16t2 17q57 8 74 14q39 17 42 75t3 558t-3 542t-15 52q-44 57 -100 57t-91 -29q-98 -82 -98 -456v-129l2 -452q0 -99 2 -142q2 -66 57 -80q37 -8 74 -10q2 -3 1 -17
t-3 -16l-205 6l-192 -6q-2 4 -2 16t2 17q57 8 73 14q45 12 45 72q4 213 5 581q0 14 -9 15l-100 6q0 23 12 39q49 6 88 24q8 4 9 17q2 199 53 327t184 219q135 87 241 43q34 -14 50 -6q29 6 63 33q12 0 13 -12q-14 -72 -15 -211l-4 -770q49 0 103 49q68 65 125 143z" />
    <glyph glyph-name="longs_l" unicode="&#x17f;l" horiz-adv-x="884" 
d="M25 10q0 14 4 17q57 8 73 14q45 12 45 72q0 117 5 583q0 16 -9 17l-100 4q0 20 12 37q95 20 97 41q2 197 53 327t187 220q136 91 261 36q27 -13 92 33q10 0 11 -12q-14 -72 -15 -211l-2 -508q0 -466 4 -528q5 -62 11 -81t30 -27t86 -17q2 -3 1 -17t-5 -16l-192 6l-191 -6
q-7 21 -2 33q63 10 80 16q33 12 36 76q3 65 3 561t-1 532t-17 58q-42 55 -100 55t-91 -27q-98 -82 -98 -467v-251q0 -395 3 -462t58 -81q37 -8 70 -10q2 -3 1 -17t-3 -16l-201 6l-192 -6q-4 2 -4 16z" />
    <glyph glyph-name="longs_longs" unicode="&#x17f;&#x17f;" horiz-adv-x="886" 
d="M583 1364q98 0 171 -68q10 -10 16 0q121 113 234 113t151 -72q10 -19 -19 -55q-30 -35 -40 -44t-23 -1l-22 20q-70 55 -95 61q-24 7 -45 7q-111 0 -139 -130t-31 -532q-2 -402 7 -546q2 -68 53 -78q23 -6 71 -12q2 -5 2 -17t-4 -16l-202 6l-187 -6q-2 2 -2 15t2 18
q53 8 72 12q45 14 45 70q0 123 4 585q0 14 -8 15l-102 6q0 16 16 39q55 12 86 30q8 4 8 19q4 236 72 379q-76 106 -185 106q-199 0 -196 -459l2 -540q0 -127 2 -170q2 -68 55 -82q25 -6 74 -10q2 -5 1 -17t-5 -16l-199 6l-192 -6q-12 13 0 33q9 0 69 12q49 14 50 74l2 581
q0 14 -9 15l-100 6q0 23 12 39q51 6 92 28q6 4 7 15q4 340 237 499q94 68 192 68z" />
    <glyph glyph-name="longs_longs_i" unicode="&#x17f;&#x17f;i" horiz-adv-x="1384" 
d="M979 11q0 13 2 16q53 4 78 16q35 15 38 75t3 278t-1 246t-9 42q-18 20 -86 41q-2 4 -3 14q0 10 3 13q143 14 243 59q-4 -111 -4 -355t2 -343q0 -55 41 -72q29 -8 92 -14q0 -31 -8 -33l-201 6l-188 -6q-2 4 -2 17zM599 1368q112 0 177 -80q8 -8 17 0q127 125 262 125
q68 0 123 -30q84 -46 73 -111q-16 -49 -59 -70q-18 -4 -33 2q-8 6 -49 51q-72 80 -154 80q-55 0 -100 -42q-45 -43 -65 -159t-21 -335q4 -659 6 -680q2 -68 53 -80t68 -12q0 -25 -4 -33l-197 6l-186 -6q-2 2 -2 15t2 18q57 8 74 14q43 10 43 72q4 114 4 579q0 16 -8 17
l-105 6q0 16 17 39q55 12 88 28q8 6 8 19q8 236 69 370q-72 121 -200 121q-89 0 -148 -92t-59 -375q0 -606 3 -691t52 -95t82 -12q2 -5 1 -17t-5 -16l-203 6l-192 -6q-12 13 0 31q55 10 71 16q47 12 48 76l2 577q0 14 -9 15l-102 6q0 23 16 39q93 21 97 41q6 340 235 501
q98 72 210 72z" />
    <glyph glyph-name="longs_longs_l" unicode="&#x17f;&#x17f;l" horiz-adv-x="1384" 
d="M152 694q0 14 -9 15l-102 6q0 20 14 39q94 11 97 41q7 245 110 382q49 65 123 115q109 76 209 76t186 -78q6 -6 13 0q125 123 254 123q66 0 114 -35q17 -10 90 31q8 -4 9 -12q-18 -49 -18 -159t-1 -191v-367q0 -460 5 -526t12 -83q16 -40 114 -44q4 -5 2 -17t-6 -16
l-192 6l-195 -6q-4 2 -5 15t3 18q59 8 88 21t32 59t3 570q0 525 -2 559t-41 66t-99 33q-138 0 -172 -202q-18 -117 -18 -332l2 -533q0 -104 4 -162t51 -67q41 -10 70 -12q2 -5 2 -19t-6 -14l-197 6l-186 -6q-4 4 -4 16t4 17q57 8 74 14q43 10 43 74q0 119 4 585q0 8 -8 9
l-103 6q0 20 15 39q55 12 88 28q8 2 8 15q8 240 63 366q6 14 0 23q-72 106 -196 106q-94 0 -150 -103t-55 -374q0 -629 3 -695t56 -81q47 -10 80 -12q2 -5 1 -17t-5 -16l-205 6l-192 -6q-12 13 0 31q53 10 71 14q45 14 45 78q5 147 5 577z" />
    <glyph glyph-name="t_t" unicode="tt" horiz-adv-x="1034" 
d="M283 698v-438q2 -72 16 -119q31 -73 101 -73t118 32q5 -5 -4 -32q-68 -90 -188 -90t-160 85q-27 53 -27 234l2 397q0 12 -6 14t-104 9q0 16 14 39q45 8 90 26q6 4 6 13v157q29 12 74 48t57 55q10 2 23 -2q-12 -61 -12 -254q0 -12 10 -13h336q8 4 8 11v178q27 12 73 48
t58 54q10 4 20 -2q-10 -51 -10 -276q0 -12 8 -13q172 0 222 9q-10 -37 -15 -86l-207 2q-8 0 -8 -13q-2 -117 -2 -438q2 -72 17 -119q31 -74 103 -74t116 33q2 -2 1 -15t-3 -17q-70 -90 -190 -90t-161 85q-25 49 -24 234l2 397q0 12 -10 15l-334 2q-10 0 -10 -13z" />
    <glyph glyph-name="u021A_u0068" unicode="&#x21a;h" horiz-adv-x="1966" 
d="M632 -63q26 0 56 -35t29 -90q0 -156 -199 -215q-4 2 -8 12t-2 12q125 53 125 131t-101 107q-18 18 28 48t72 30zM1153 1260v108q0 14 10 14q46 0 127 27q10 0 10 -10l-2 -19l-2 -184v-508q0 -6 9 -2q163 125 279 125t176 -81t61 -232q0 -221 4 -402q0 -27 12 -37
q31 -25 113 -32q2 -3 -1 -17t-7 -16l-74 4q-72 4 -182 1t-125 -5q-4 4 -5 16q0 12 5 17q71 12 85 19q14 8 20 26t11 214q4 196 -10 266t-59 116t-132 45q-87 0 -153 -56q-27 -23 -27 -47q0 -398 4 -462t19 -88q14 -24 104 -33q10 -10 0 -31l-204 4l-179 -6q-10 12 0 33
q55 8 70 12q41 12 44 103t3 520t-2 501q0 20 -18 25q-63 2 -227 2t-201 -2q-10 -4 -11 -19q0 -843 6 -955t21 -136q16 -24 48 -34q32 -9 118 -17q2 -3 0 -17t-4 -16l-269 6q-57 0 -160 -4t-130 -2q-4 6 -4 18t4 15q86 8 130 16t57 39t17 111q4 180 5 983q0 14 -19 15
q-70 4 -290 -2q-77 -2 -158 -220q-4 -4 -18 0t-17 8q29 166 35 301h18q63 -29 152 -29l905 2q8 0 8 9z" />
    <glyph glyph-name="Tcaron_h" unicode="&#x164;h" horiz-adv-x="1966" 
d="M639 1456q212 103 219 103q8 -1 13 -11t3 -16q-169 -133 -235 -199q-6 -6 -25 -6q-16 18 -115 98t-137 107q0 6 6 16t13 10q6 0 108 -44t122 -54t28 -4zM1153 1260v108q0 14 10 14q46 0 127 27q10 0 10 -10l-2 -19l-2 -184v-508q0 -6 9 -2q163 125 279 125t176 -81
t61 -232q0 -221 4 -402q0 -27 12 -37q31 -25 113 -32q2 -3 -1 -17t-7 -16l-74 4q-72 4 -182 1t-125 -5q-4 4 -5 16q0 12 5 17q71 12 85 19q14 8 20 26t11 214q4 196 -10 266t-59 116t-132 45q-87 0 -153 -56q-27 -23 -27 -47q0 -398 4 -462t19 -88q14 -24 104 -33
q10 -10 0 -31l-204 4l-179 -6q-10 12 0 33q55 8 70 12q41 12 44 103t3 520t-2 501q0 20 -18 25q-63 2 -227 2t-201 -2q-10 -4 -11 -19q0 -843 6 -955t21 -136q16 -24 48 -34q32 -9 118 -17q2 -3 0 -17t-4 -16l-269 6q-57 0 -160 -4t-130 -2q-4 6 -4 18t4 15q86 8 130 16
t57 39t17 111q4 180 5 983q0 14 -19 15q-70 4 -290 -2q-77 -2 -158 -220q-4 -4 -18 0t-17 8q29 166 35 301h18q63 -29 152 -29l905 2q8 0 8 9z" />
    <glyph glyph-name="gamma_gamma" unicode="&#x3b3;&#x3b3;" horiz-adv-x="1611" 
d="M270 811q254 0 234 -594l8 -6l4 6q76 303 207 473q109 121 229 121t182 -141q60 -141 56 -459l8 -6l4 6q43 172 105 314q61 142 100 194q72 92 125 92q30 0 66 -27q36 -28 38 -34q6 -18 -4 -27q-90 -6 -181 -121q-165 -208 -232 -504q-16 -70 -17 -106q-6 -428 -16 -465
q-2 -10 -22 -10q-20 1 -73 31q-52 30 -53 61t46 232t51 259q4 313 -104 477q-56 85 -136 85q-219 0 -350 -517q-25 -111 -25 -159q-33 -444 -49 -514q-4 -12 -29 -12q-24 0 -72 31q-48 32 -48 50q0 39 47 203t67 221q31 117 2 316q-52 380 -264 383q-86 0 -170 -72
q-4 2 -5 17t1 22q55 84 134 132t136 48z" />
    <glyph glyph-name="u03BB_u03BB" unicode="&#x3bb;&#x3bb;" horiz-adv-x="1495" 
d="M651 -25q-61 0 -100 74t-103 318q-65 243 -75 278l-8 2q-45 -85 -103 -241t-94 -287q-18 -82 -14 -152q-2 -4 -29 -4t-63 23t-33 39q2 70 80 223q96 213 231 491q15 38 -53 242q-49 137 -103 190t-124 53q-71 0 -113 -28q-18 12 -10 27q33 53 92 89t114 36q97 0 153 -94
t144 -380q181 -637 233 -710q22 -31 48 -33q33 0 76 82q131 264 217 537q8 23 4 47q-25 129 -66 225q-94 260 -254 260q-84 0 -151 -51q-18 10 -10 26q47 72 115 112t128 40q100 0 173 -104t155 -377q26 -90 92 -312t104 -328t72 -143q35 -37 76 -37t74 21q4 -2 6 -12
t-2 -17q-84 -125 -205 -125q-49 0 -95 93t-173 573h-6q-102 -287 -232 -522q-78 -144 -168 -144z" />
    <glyph glyph-name=".notdef" horiz-adv-x="1013" 
d="M102 1227v-1034l344 518zM162 102h690l-344 516zM567 711l346 -518v1034zM508 801l344 518h-690zM0 0v1419h1014v-1419h-1014z" />
    <glyph glyph-name=".null" horiz-adv-x="0" 
 />
    <glyph glyph-name="nonmarkingreturn" horiz-adv-x="681" 
 />
    <glyph glyph-name="space" unicode=" " horiz-adv-x="323" 
 />
    <glyph glyph-name="exclam" unicode="!" horiz-adv-x="530" 
d="M305 -25q-45 0 -71 27t-25 68q1 40 31 70t67 30t65 -29t28 -69t-27 -68q-23 -29 -68 -29zM335 1247q46 0 52 -16q-1 -36 -27 -354t-38 -508q-4 -4 -22 -1t-19 7q-14 192 -45 484t-33 324t26 46q60 18 106 18z" />
    <glyph glyph-name="quotedbl" unicode="&#x22;" horiz-adv-x="524" 
d="M436 1288q0 -63 -15 -202t-56 -187q-1 -4 -9 -4t-10 2q-4 342 -20 387q10 16 47 48t45 32l12 -2q6 -11 6 -74zM199 1274q-1 -61 -13 -176t-22 -148t-24 -51t-20 -18q-7 0 -9 2q-4 350 -21 401q8 8 43 36t43 32t19 -4q4 -13 4 -74z" />
    <glyph glyph-name="numbersign" unicode="#" horiz-adv-x="808" 
d="M338 834q-6 0 -10 -9l-41 -192q0 -8 4 -8h172l45 209h-170zM592 932q123 0 178 8q4 -12 -14 -49q-55 -57 -187 -57q-8 0 -8 -9l-43 -192q0 -8 6 -8q133 0 174 8q6 -16 -6 -41q-63 -72 -188 -72q-4 0 -8 -10q-32 -156 -56 -270q0 -4 -7 -4t-22 14t-18 18q43 209 51 252
h-174q-8 0 -8 -8q-39 -178 -61 -274q-7 -15 -27 6q-20 20 -22 24q8 41 29 136q22 95 26 116q-147 0 -168 6q-4 6 11 56t24 53q68 -10 155 -10l43 209q-121 0 -161 4q-2 8 13 53t23 47q82 -4 148 -4l49 233q0 3 25 13t29 10t8 -4l-52 -242q0 -10 6 -10l168 -2l54 254
q18 14 53 22q8 0 8 -6l-57 -264q0 -6 6 -6z" />
    <glyph glyph-name="dollar" unicode="$" horiz-adv-x="921" 
d="M141 907q1 150 99 233t260 83q8 0 8 6l14 145q14 10 51 10l-16 -155q0 -6 4 -6q43 -3 128 -17t108 -14q-25 -121 -35 -229q-4 -5 -18 -7t-17 5q-4 117 -41 163t-129 56q-6 0 -6 -6l-47 -465q2 -12 8 -17q238 -129 287 -230q25 -52 24 -116q0 -145 -98 -237t-289 -105
q-6 0 -6 -8l-16 -162q-37 -6 -49 -6l16 164q0 10 -6 10q-115 4 -262 64q-18 25 -37 239q4 4 16 8t19 2q33 -145 94 -199t176 -69q8 0 8 6l47 492q0 8 -6 12q-145 88 -217 163t-72 187zM483 520l-47 -469q0 -6 4 -6q94 2 163 56q69 55 72 149t-37 156t-144 120q-2 2 -6 0
t-5 -6zM270 975q0 -87 48 -143t131 -105q6 -4 10 4l43 443q0 8 -6 8q-110 -6 -168 -62t-58 -145z" />
    <glyph glyph-name="percent" unicode="%" horiz-adv-x="1275" 
d="M327 1141q-131 0 -129 -268q0 -121 47 -191q46 -70 109 -70q131 0 131 234q1 117 -43 206t-115 89zM370 1194q104 0 159 -83q54 -83 55 -196q0 -193 -101 -282q-88 -82 -187 -82t-157 82q-57 82 -57 203q0 168 90 264q94 94 198 94zM942 666q-132 0 -133 -267
q0 -123 45 -193t109 -69q133 0 133 234q0 121 -41 208t-113 87zM982 721q102 0 158 -82q54 -82 54 -197q0 -195 -98 -282q-90 -84 -188 -84t-157 84q-58 84 -59 198q0 168 90 269q98 94 200 94zM1051 1247q6 0 6 -8q-41 -51 -387 -589t-402 -617q-8 -4 -12 0q-12 31 -10 51
q96 148 349 538t396 609q27 16 60 16z" />
    <glyph glyph-name="ampersand" unicode="&#x26;" horiz-adv-x="1421" 
d="M916 195q-4 0 -5 -2q-174 -221 -415 -222q-168 1 -272 99t-105 252q0 82 57 150t217 177q6 6 2 10q-119 133 -119 269t88 224q88 87 204 87t187 -68q71 -69 71 -157t-54 -152q-53 -64 -197 -160q-6 -6 -2 -10q89 -94 394 -332q4 -4 10 0q74 104 125 256q20 57 -25 78
q-16 8 -96 19q-6 2 -4 15t6 17l174 -6l182 6q3 -2 5 -15t-3 -17q-53 -10 -71 -15q-51 -16 -82 -66t-84 -150t-88 -146q-2 -2 2 -8q283 -211 313 -248q0 -27 -32 -74t-56 -72q-14 -8 -22 0q-16 33 -159 147q-142 114 -146 114zM270 371q0 -127 91 -209t221 -82q182 0 288 137
q6 6 2 10q-309 254 -444 391q-6 4 -10 0q-47 -40 -75 -68q-29 -28 -51 -76t-22 -103zM705 999q0 77 -41 137q-42 60 -112 60t-116 -49t-45 -141q0 -150 144 -277q6 -4 10 0q160 123 160 270z" />
    <glyph glyph-name="quotesingle" unicode="'" horiz-adv-x="294" 
d="M207 1278q0 -60 -13 -178q-18 -174 -52 -205q-21 -20 -29 -12q4 299 -23 401q8 10 53 44t60 22q4 -12 4 -72z" />
    <glyph glyph-name="parenleft" unicode="(" horiz-adv-x="749" 
d="M160 547q0 336 134 592t357 409q7 -2 15 -12t6 -14q-389 -317 -389 -938q0 -299 94 -561t274 -414q2 -3 -7 -15t-15 -12q-104 46 -223 207q-148 197 -210 452q-36 148 -36 306z" />
    <glyph glyph-name="parenright" unicode=")" horiz-adv-x="749" 
d="M590 582q0 -340 -133 -593t-359 -407q-4 2 -13 14t-7 15q389 332 389 936q0 653 -369 975q-2 4 7 14t16 12q101 -45 223 -209q246 -328 246 -757z" />
    <glyph glyph-name="asterisk" unicode="*" horiz-adv-x="649" 
d="M381 1098q137 43 233 90l7 -12q-18 -33 -43 -50q-41 -20 -187 -75q27 -27 101 -86t104 -72q4 -8 -10 -16q-43 -10 -76 2q-31 18 -87 59t-67 49q-49 -211 -49 -252q-10 -10 -30 19q-21 30 -18 64t36 196q-90 -33 -244 -84q-6 0 -6 8q31 46 66 60q36 13 163 61
q-135 123 -153 143t-15 31q33 23 66 22q45 -57 147 -147q33 174 48 215q4 13 65 23q10 0 10 -9q-13 -41 -36 -136t-25 -103z" />
    <glyph glyph-name="plus" unicode="+" horiz-adv-x="942" 
d="M422 410h-348v16q8 41 20 72q8 -2 203 -2h125v122q0 172 -4 222q61 20 80 20q8 0 8 -59v-289q0 -16 10 -16h352v-21q-14 -59 -24 -61t-64 -2h-135q-80 0 -127 -2q-12 0 -12 -15l-2 -270v-64q-2 -12 -68 -34l-14 2v381z" />
    <glyph glyph-name="comma" unicode="," horiz-adv-x="319" 
d="M189 248q9 0 14 -2q35 -32 41 -144t-71 -236t-163 -179q-8 0 -21 6t-5 14q152 143 145 285q-6 66 -53 145q8 17 46 59t48 47t19 5z" />
    <glyph glyph-name="hyphen" unicode="-" horiz-adv-x="522" 
d="M86 451q82 0 369 10v-8l2 -7q-6 -72 -29 -76t-360 -12q-2 12 -2 22t7 40q7 31 13 31z" />
    <glyph glyph-name="period" unicode="." horiz-adv-x="319" 
d="M162 180q32 0 62 -26t30 -71q0 -46 -28 -73q-28 -26 -66 -26t-67 28q-27 28 -27 68q0 41 30 72q33 28 66 28z" />
    <glyph glyph-name="slash" unicode="/" horiz-adv-x="880" 
d="M793 1405l4 -4q-16 -63 -295 -768t-350 -834q-4 -6 -36 -28t-32 -4q104 223 334 809t313 808q2 4 25 12t37 9z" />
    <glyph glyph-name="zero" unicode="0" horiz-adv-x="921" 
d="M449 1184q-74 0 -121 -62q-47 -55 -75 -183t-28 -273q0 -637 258 -637q66 0 109 49q100 127 100 506q0 288 -65 444t-178 156zM480 1233q152 0 243 -105q133 -164 133 -489q0 -408 -188 -578q-94 -84 -223 -84t-216 80q-163 151 -163 511t147 532q115 133 267 133z" />
    <glyph glyph-name="one" unicode="1" horiz-adv-x="921" 
d="M229 10q0 14 4 17q77 8 101 13q52 11 55 112q4 102 6 457t-6 423t-45 70q-10 2 -100 6q-2 4 -2 15t4 16q164 16 289 94q16 0 16 -6q-6 -88 -6 -511q0 -422 5 -518t15 -122t40 -34q30 -9 110 -17q2 -5 -1 -17t-5 -14l-240 6l-236 -6q-4 2 -4 16z" />
    <glyph glyph-name="two" unicode="2" horiz-adv-x="921" 
d="M567 827q0 117 -57 198t-184 81t-240 -141q-4 0 -13 10t-10 14q53 88 149 166t216 78q121 0 208 -97t87 -257q0 -199 -231 -461q-37 -43 -240 -273q-7 -7 27 -11q34 -5 203 -8t205 0t52 11t44 45t57 107q4 2 17 -3t13 -10q-61 -221 -106 -268q-12 -14 -76 -14l-516 8
q-33 0 -100 -6q-12 12 -6 29q127 123 183 184t144 178q174 225 174 440z" />
    <glyph glyph-name="three" unicode="3" horiz-adv-x="921" 
d="M459 1233q106 0 181 -77t77 -191q0 -154 -185 -287q-6 -4 -2 -8q289 -86 289 -322q0 -205 -174 -332q-135 -102 -321 -102t-222 111q-25 66 -24 137q4 12 26 12q39 -111 106 -160q68 -49 182 -49t192 75t78 211t-75 223t-216 87q-41 0 -74 -6q-4 6 7 33t20 30
q131 31 193 102q63 71 63 166t-54 165q-54 69 -166 69t-217 -116q-4 -2 -13 12t-7 18q166 199 336 199z" />
    <glyph glyph-name="four" unicode="4" horiz-adv-x="921" 
d="M510 446q10 0 10 11l6 559q0 2 -3 3t-5 -1q-38 -50 -194 -280t-174 -260t-11 -29q25 -2 144 -3h227zM520 336q0 14 -8 14l-276 2h-213q0 16 6 47q539 762 569 809q4 4 35 10t37 3v-762q0 -8 6 -8q154 0 227 2q-16 -76 -16 -105q-135 4 -209 4q-6 0 -6 -10l2 -391
q-70 0 -160 -23q6 394 6 408z" />
    <glyph glyph-name="five" unicode="5" horiz-adv-x="921" 
d="M574 1065l-204 12q-9 0 -20 -16q-43 -86 -60 -144t-3 -65q295 -160 362 -211q88 -61 129 -131t41 -168q0 -178 -146 -303q-147 -125 -309 -125t-249 82q-35 39 -35 66t33 88q10 10 16 4q123 -174 309 -174q108 0 176 70t68 176q0 105 -40 173q-40 69 -120 125t-198 122
q-117 66 -131 75q-8 18 -5 41q27 86 87 234t90 190q18 33 36 33q7 -1 95 -7t139 -5t84 32q4 0 12 -6t6 -10q-45 -98 -80 -128t-83 -30z" />
    <glyph glyph-name="six" unicode="6" horiz-adv-x="921" 
d="M442 674q-74 0 -143 -41q-41 -25 -51 -71t-10 -118q0 -209 76 -313t182 -104q104 -1 157 79t53 231t-77 244q-78 93 -187 93zM574 764q112 0 198 -98t86 -252q0 -250 -203 -381q-86 -59 -204 -60q-188 0 -284 125q-95 125 -95 316q0 295 221 548t571 365q4 -1 10 -15
t3 -18q-252 -113 -399 -277q-146 -165 -199 -337q-2 -10 4 -12q179 96 291 96z" />
    <glyph glyph-name="seven" unicode="7" horiz-adv-x="921" 
d="M670 1208q124 0 194 4q4 -8 4 -18q-36 -117 -282 -668t-258 -579q-4 -6 -18 -4t-31 18q-16 16 -5 39q146 288 306 639t178 410q0 10 -2 10q-397 8 -535 -2q-43 -4 -67 -30t-62 -107q-2 -4 -16 2t-17 10q49 158 70 291q37 -14 156 -15h385z" />
    <glyph glyph-name="eight" unicode="8" horiz-adv-x="921" 
d="M494 25q82 0 138 51t56 151t-62 172t-227 172q-16 8 -20 0q-156 -125 -156 -266q0 -113 75 -197t196 -83zM670 928q0 114 -62 186t-152 72q-88 0 -138 -54t-50 -146t60 -157q60 -66 196 -149q10 -6 17 0q129 104 129 248zM487 1233q131 0 215 -82t84 -209q0 -72 -48 -136
t-167 -147q-2 -2 -2 -5t2 -5q141 -96 199 -165t57 -169q-1 -133 -111 -235t-276 -102t-256 92q-90 94 -90 209q0 71 54 141t200 174q9 5 4 10q-110 78 -158 150t-49 157q0 141 107 230q103 92 235 92z" />
    <glyph glyph-name="nine" unicode="9" horiz-adv-x="921" 
d="M418 1180q-90 0 -148 -77t-59 -225q0 -148 84 -236q85 -87 187 -87t163 47q41 33 41 186q0 154 -74 273t-194 119zM481 1233q169 0 269 -134t100 -337q0 -297 -209 -538t-528 -345q-1 1 -9 15t-6 18q440 199 564 649q2 4 -2 6t-7 0q-59 -43 -147 -78t-152 -34
q-114 0 -202 101t-89 257q0 223 181 344q113 76 237 76z" />
    <glyph glyph-name="colon" unicode=":" horiz-adv-x="468" 
d="M235 682q37 0 65 -27t28 -71t-29 -68q-25 -27 -65 -27t-66 27t-27 67q0 40 31 70q25 29 63 29zM235 176q36 0 62 -22q31 -31 31 -74t-29 -68q-23 -28 -64 -28t-67 28t-27 65q0 38 31 73q27 26 63 26z" />
    <glyph glyph-name="semicolon" unicode=";" horiz-adv-x="468" 
d="M264 248q10 0 17 -5t21 -41t15 -85q5 -121 -75 -248t-168 -182q-8 0 -18 4t-9 8q-6 6 -2 8q164 150 158 285q-2 53 -53 145q8 17 46 59t48 47t20 5zM237 682q37 0 65 -27t28 -71t-29 -68q-25 -27 -65 -27t-66 27t-27 67q0 40 31 70q25 29 63 29z" />
    <glyph glyph-name="less" unicode="&#x3c;" horiz-adv-x="942" 
d="M797 748q-51 -49 -527 -291l-2 -11q10 -6 104 -54q408 -207 451 -247q4 -4 -13 -46t-28 -33q-53 43 -305 175t-371 179q0 6 10 30q9 24 13 25q121 55 382 195t302 174q4 0 8 -4q0 -12 -9 -49t-15 -43z" />
    <glyph glyph-name="equal" unicode="=" horiz-adv-x="942" 
d="M293 338h571q10 -5 -5 -44q-15 -38 -19 -40l-760 -2q-16 5 14 92q16 -6 199 -6zM293 651h573q10 -5 -4 -44q-14 -38 -20 -40l-762 -2q-12 6 -6 17q8 49 20 73q16 -4 199 -4z" />
    <glyph glyph-name="greater" unicode="&#x3e;" horiz-adv-x="942" 
d="M141 160q49 45 525 291l4 10q-228 114 -384 201q-155 87 -171 102q-4 4 12 43t29 35q53 -43 305 -175t370 -180q0 -5 -10 -29t-14 -26q-121 -55 -382 -195t-302 -174q-11 -1 1 45q11 46 17 52z" />
    <glyph glyph-name="question" unicode="?" horiz-adv-x="684" 
d="M331 170q37 0 63 -28t26 -70t-26 -70q-26 -27 -69 -27t-69 27t-25 69q0 42 27 70q37 29 73 29zM590 906q0 -80 -34 -118t-125 -110t-109 -90t-19 -40q0 -22 22 -60q22 -36 60 -66q8 -8 -8 -29q-17 -21 -53 -33t-66 0t-56 48t-26 80t14 56t110 90q95 77 122 101
q57 51 57 116t-63 149t-210 108q-24 4 -30 6q-33 6 -33 27q0 39 45 88q14 20 48 20q109 0 213 -78q141 -104 141 -265z" />
    <glyph glyph-name="at" unicode="@" horiz-adv-x="1529" 
d="M616 115q100 0 238 231q39 68 59 162q53 199 58 207q-31 18 -107 18q-147 0 -228 -159t-81 -309t61 -150zM1034 76q102 0 206 114q103 115 103 332q0 274 -151 420q-152 145 -358 145q-163 0 -310 -95q-88 -56 -156 -142t-114 -234q-45 -148 -45 -337q0 -260 99 -410
t233 -188q43 -12 106 -13q4 -2 4 -11t-4 -13q-117 -57 -290 69q-67 49 -124 118t-96 183t-39 248q0 350 221 608q248 283 584 283q240 0 384 -170t145 -389q0 -147 -54 -269t-137 -194q-172 -151 -326 -149q-112 0 -52 262q11 48 7 50q-4 1 -6 -3q-82 -125 -190 -218
t-166 -93q-90 0 -90 188q0 117 48 246t134 219q52 57 158 115t188 59q82 0 166 -19q-30 -64 -50 -144t-50 -256t-30 -244q-1 -68 52 -68z" />
    <glyph glyph-name="A" unicode="A" 
d="M538 586q136 0 150 2q8 0 4 12q-92 297 -147 467q-8 0 -8 -2q-16 -43 -160 -465q0 -10 13 -12q12 -2 148 -2zM926 0q-120 0 -195 -6q-2 4 -2 15t2 18q79 12 107 24t16 55t-133 400q-13 10 -25 11q-11 1 -163 1q-151 0 -169 -1t-22 -15q-121 -326 -125 -360t-3 -50
q2 -37 57 -49q54 -12 91 -16q2 -5 2 -17t-6 -16l-233 6l-193 -6q-4 2 -4 16t4 17q106 14 143 42q36 28 89 156t346 928q20 61 27 98l57 -2h27l28 2q14 -58 166 -517q151 -458 191 -554t68 -119q30 -23 130 -34q4 -3 2 -17t-6 -16q-154 6 -274 6z" />
    <glyph glyph-name="B" unicode="B" horiz-adv-x="1085" 
d="M563 39q266 0 266 297q0 156 -97 238t-265 83q-72 0 -88 -4l-8 -8q0 -426 8 -512q4 -35 31 -55q49 -39 153 -39zM459 1206q-49 0 -65 -7t-17 -34q-6 -135 -6 -446q0 -12 8 -12q37 -5 139 -5t150 29q90 59 90 199q0 276 -299 276zM217 646q0 396 -5 470t-48 90
q-23 9 -113 19q-4 2 -4 15t4 15l230 -6l294 4q118 0 218 -45q59 -27 94 -86t35 -146t-56 -160t-159 -111q-2 -4 0 -7q137 -28 218 -108t81 -207q0 -244 -244 -348q-111 -47 -299 -47l-428 6q-4 2 -3 16t5 17q92 10 119 17t40 31q13 23 17 99t4 472z" />
    <glyph glyph-name="C" unicode="C" horiz-adv-x="1312" 
d="M770 1239q-227 0 -356 -155q-129 -154 -129 -436t148 -452t407 -171q158 0 243 81q61 61 134 189q4 2 16 -4t14 -12q-20 -78 -69 -166t-84 -107q-139 -43 -295 -43q-332 0 -515 175t-184 499q0 176 80 322q80 147 246 237t414 90q88 0 228 -19t151 -20q-33 -131 -37 -295
q-4 -8 -22 -8t-17 4q-14 115 -38 165q-60 126 -335 126z" />
    <glyph glyph-name="D" unicode="D" horiz-adv-x="1398" 
d="M665 43q182 0 296 113q158 162 157 465q0 338 -227 499q-127 88 -381 88q-78 0 -109 -10q-20 -16 -23 -59t-3 -478t4 -493t41 -82q63 -43 245 -43zM31 10q0 14 4 17q112 11 132 25q40 26 44 93q6 125 6 500t-4 441t-14 89q-17 37 -150 50q-2 2 0 15t4 15q147 -6 236 -6
l385 8q274 0 434 -139q190 -166 190 -465q0 -354 -270 -536q-190 -131 -461 -131l-385 8h-147q-4 2 -4 16z" />
    <glyph glyph-name="E" unicode="E" horiz-adv-x="1034" 
d="M682 1249q164 0 215 8l6 -6q-20 -76 -37 -268q-4 -4 -17 -4t-18 2q-11 149 -55 188q-20 17 -68 21t-166 4q-116 0 -145 -4q-20 -2 -20 -29q-2 -63 -4 -253t-1 -212q1 -24 9 -24q41 -2 156 -2t164 4t71 39q21 35 33 104q4 2 19 2t18 -2q-14 -86 -15 -184l4 -170
q-4 -6 -18 -6t-16 4q-6 43 -15 71q-16 66 -82 72q-178 9 -317 2q-10 0 -12 -56t6 -413q2 -63 47 -71q61 -12 210 -13t186 25q73 45 145 217q2 2 14 -4t14 -10q-6 -43 -36 -137t-46 -128q-10 -16 -28 -19t-92 -3l-498 6l-281 -6q-4 2 -4 15t4 18q102 8 134 17t48 33
q15 25 19 103t4 459t-4 451t-15 90t-48 28q-30 11 -93 17q-4 4 -3 15t5 15l232 -6h391z" />
    <glyph glyph-name="F" unicode="F" horiz-adv-x="985" 
d="M51 10q0 12 2 17q73 6 103 13t42 32q11 25 15 84q4 140 4 508q0 426 -7 475t-42 64q-35 14 -113 22q-2 2 -2 15t2 15l232 -6h446q119 0 180 15q4 0 9 -9q-20 -63 -33 -278q-3 -4 -17 -4t-18 2q-8 102 -33 151q-19 58 -79 62t-185 4t-152 -4t-26 -35q-4 -86 -4 -494
q0 -8 10 -8q254 0 313 4q84 2 105 54q14 31 26 94q5 2 19 2t16 -4q-14 -96 -14 -195l4 -168q-2 -4 -15 -6t-18 0q-7 53 -25 98q-18 46 -66 50t-180 6t-167 0q-8 0 -8 -13q0 -317 3 -393t15 -103q12 -26 54 -35t110 -15q8 -23 0 -33l-256 6l-248 -6q-2 4 -2 16z" />
    <glyph glyph-name="G" unicode="G" horiz-adv-x="1361" 
d="M1315 500q0 -12 -4 -17q-47 -10 -71 -17t-33 -31q-9 -25 -15 -137t0 -158t13 -55t34 -17q2 -4 0 -16t-4 -13q-293 -76 -426 -76q-346 0 -527 169t-182 503q0 195 94 347t264 228q169 76 390 76q90 0 229 -22t148 -21q-25 -94 -33 -299q-4 -6 -17 -7t-22 3q-8 111 -31 161
t-67 75q-98 59 -281 59q-238 0 -362 -155q-124 -154 -125 -434q0 -280 144 -458t405 -178q92 0 143 20t57 95q23 260 -15 316q-19 28 -122 38q-22 2 -41 4q-4 5 -4 17t4 16l260 -6q123 0 193 6q4 -4 4 -16z" />
    <glyph glyph-name="H" unicode="H" horiz-adv-x="1439" 
d="M375 694q0 -12 11 -16q10 -4 330 -4t336 1t15 11q0 378 -4 442t-43 78q-45 12 -100 17q-4 4 -6 16q-1 12 6 16l235 -6l225 6q12 -20 0 -32q-80 -13 -102 -21t-33 -27q-12 -19 -14 -77q-6 -233 -6 -543q0 -311 5 -385t15 -94t39 -30t111 -19q4 -5 2 -17t-6 -16l-236 6
q-96 0 -244 -6q-12 16 0 33q72 8 101 16q29 9 40 29t13 78t2 440q0 14 -10 14q-31 2 -343 2t-331 -4q-8 0 -8 -12q0 -427 4 -447t5 -32q1 -13 3 -17t5 -12q10 -28 51 -38q40 -11 98 -17q4 -3 1 -17t-7 -16q-171 6 -257 6t-227 -6q-4 2 -4 15t4 18q59 6 99 18t51 43
q10 31 13 104t3 464q0 390 -5 464t-52 86q-23 7 -109 17q-12 12 0 32l248 -6q51 0 223 6q4 -4 3 -17t-5 -15q-104 -9 -127 -42q-12 -17 -15 -86t-3 -401z" />
    <glyph glyph-name="I" unicode="I" horiz-adv-x="589" 
d="M51 1240q0 11 4 15l248 -6l215 6q10 -16 2 -30q-62 -8 -90 -16q-29 -9 -38 -31q-19 -48 -19 -540t7 -523q14 -60 60 -72q27 -8 101 -16q4 -5 3 -17t-5 -16l-222 6l-260 -6q-12 12 0 33q120 10 139 43q11 20 16 86t5 462q0 394 -4 488l-4 31q0 44 -28 60q-28 17 -126 28
q-4 4 -4 15z" />
    <glyph glyph-name="J" unicode="J" horiz-adv-x="581" 
d="M545 1240q0 -11 -4 -15q-78 -10 -109 -25q-29 -16 -32 -70t-5 -439q-2 -384 -6 -478q-7 -242 -71 -374t-164 -212t-198 -80t-124 58v24q10 66 33 109q115 -84 184 -84t113 45q72 76 71 334q4 184 2 581t-7 458q-5 60 -10 82q-9 40 -52 52q-13 5 -111 19q-4 4 -4 15t4 15
l254 -6l232 6q4 -4 4 -15z" />
    <glyph glyph-name="K" unicode="K" horiz-adv-x="1222" 
d="M741 1255l201 -6q137 0 223 6q4 -4 5 -15t-5 -15q-86 -12 -128 -36t-109 -99q-281 -313 -369 -402v-6q31 -60 233 -288t291 -302q31 -27 70 -45t147 -20q4 -3 4 -17t-6 -16q-61 -6 -176 -4q-114 2 -148 13t-102 71t-215 232q-147 173 -231 284q-12 16 -31 28q0 12 6 19
q68 27 187 147t235 269q57 78 57 117t-141 55q-4 4 -3 15t5 15zM516 1241q0 -12 -4 -16q-60 -7 -84 -15q-41 -13 -48 -58q-7 -44 -7 -439q0 -393 3 -503t16 -136t45 -33q32 -8 106 -16q4 -3 2 -15t-6 -16l-256 6l-236 -6q-2 2 -2 14t2 17q83 10 105 15q43 10 54 63t11 487
t-3 502t-19 94q-16 25 -72 31t-64 8q-2 4 -2 15t2 15l236 -6l217 6q4 -2 4 -14z" />
    <glyph glyph-name="L" unicode="L" horiz-adv-x="1042" 
d="M33 9q0 13 4 18q93 12 117 17q50 11 57 91q6 81 6 489t-3 468t-13 84q-10 23 -56 32q-4 1 -96 17q-2 2 -2 15t4 15l238 -6l227 6q4 -2 5 -15t-5 -15q-61 -9 -90 -17t-37 -26t-10 -64l-4 -461q-4 -342 4 -528q2 -49 35 -59q28 -12 156 -16t188 0q60 3 110 63
q68 76 125 219q3 4 17 0t16 -10q-12 -62 -44 -166t-52 -144q-18 -25 -82 -24l-561 8l-250 -6q-4 2 -4 15z" />
    <glyph glyph-name="M" unicode="M" horiz-adv-x="1648" 
d="M1618 1240q0 -13 -4 -17q-70 -6 -117 -21q-61 -14 -62 -94t7 -454t13 -462t19 -115q14 -26 54 -35q39 -9 104 -15q2 -3 2 -15t-2 -18l-250 6q-100 0 -241 -6q-4 2 -4 15t4 18q63 8 94 18q55 14 55 98q4 289 -10 893q-4 4 -8 0q-8 -18 -88 -187q-328 -694 -385 -861
q-5 -2 -19 -2t-18 2q-42 141 -236 585q-194 445 -211 488q-6 0 -6 -4q-10 -127 -26 -447q-17 -320 -17 -404q0 -85 14 -118t44 -41t118 -20q4 -3 3 -17t-5 -16l-207 6l-227 -6q-4 4 -4 16t4 17l80 12q47 8 67 40q19 32 31 123t38 423t32 477q0 74 -55 94q-47 19 -129 29
q-4 4 -3 16t5 14l342 -6q4 -45 39 -114q94 -215 229 -509t162 -341q2 -6 8 0q29 53 184 380q156 327 205 437t53 147l320 6q4 -2 4 -15z" />
    <glyph glyph-name="N" unicode="N" horiz-adv-x="1409" 
d="M954 1240q0 11 4 15l238 -6l190 6q2 -2 2 -14t-2 -16q-43 -8 -79 -17q-63 -20 -69 -101t-7 -220q-2 -139 -3 -341t-2 -314t3 -242q-55 4 -119 0q-77 119 -443 573q-366 455 -371 462t-8 6t-4 -81t-1 -383t3 -381t22 -106q18 -28 54 -36q36 -9 113 -17q4 -3 3 -17t-5 -16
l-229 6l-209 -6q-2 2 -2 16t2 17q63 6 95 15t51 37q19 29 27 153t15 839q0 57 -42 94t-79 45q-37 9 -86 15q-2 2 0 15t4 15l209 -6q74 0 93 2q14 -33 77 -108q526 -657 756 -928q4 2 6 4q0 784 -6 853q-6 68 -20 94q-15 26 -51 36t-128 23q-2 4 -2 15z" />
    <glyph glyph-name="O" unicode="O" horiz-adv-x="1474" 
d="M794 27q146 0 234 77q174 150 174 478q0 168 -58 320t-177 237q-117 90 -275 90q-104 0 -196 -51q-109 -66 -162 -198t-53 -300t63 -327t183 -243q121 -84 267 -83zM738 -37q-146 0 -265 52t-199 139q-174 193 -174 481q0 211 113 381q86 122 236 196t307 74
q294 0 456 -185t162 -439t-121 -431q-88 -129 -228 -199q-141 -70 -287 -69z" />
    <glyph glyph-name="P" unicode="P" horiz-adv-x="1032" 
d="M583 516q-85 0 -114 10q-8 6 -20 31q0 10 6 10q61 -6 84 -6q84 0 143 33q123 74 119 274q0 154 -80 247t-252 93q-57 0 -71 -6t-19 -28q-6 -147 -6 -551q0 -403 2 -465t16 -84q13 -22 49 -30q36 -7 111 -17q6 -3 6 -17t-4 -16l-256 6l-250 -6q-4 4 -5 16t3 17
q111 13 127 22q34 20 39 131q6 110 6 480t-3 430t-14 85t-54 35t-93 15q-2 2 0 15t4 15l232 -6l297 4q166 0 260 -71q123 -96 125 -267q1 -127 -57 -215t-152 -136t-179 -48z" />
    <glyph glyph-name="Q" unicode="Q" horiz-adv-x="1474" 
d="M690 1231q-201 0 -305 -158q-104 -159 -104 -411t140 -449t396 -197q147 0 266 150t119 418t-133 458t-379 189zM1458 -365q-167 0 -478 195q-190 121 -310 139q-190 21 -320 117t-190 244q-59 148 -60 301q0 219 111 381q89 130 237 202t318 72q276 0 442 -182t166 -468
t-178 -474q-104 -113 -272 -174q88 -23 198 -80q324 -146 480 -146t243 58q3 -2 9 -16t4 -19q-172 -150 -400 -150z" />
    <glyph glyph-name="R" unicode="R" horiz-adv-x="1171" 
d="M451 1206q-39 0 -62 -8q-10 -4 -13 -44t-3 -511q0 -10 8 -10q176 -20 246 8q145 55 145 260q0 143 -82 224t-239 81zM49 9q0 13 6 16q80 12 105 18t37 31t16 111t4 469q0 382 -4 464t-66 92q-45 11 -94 15q-2 4 -2 16t4 14l211 -6l318 4q168 0 258 -86t90 -221
q0 -223 -238 -321q-6 -6 -2 -13q211 -346 344 -477q66 -66 105 -84t112 -24q6 -20 -6 -33q-70 -6 -162 2t-141 31t-93 73t-159 230t-134 211t-48 30l-129 -2q-8 0 -8 -12q0 -317 3 -389t14 -94q11 -20 39 -28t108 -19q4 -5 3 -17t-5 -16l-240 6q-84 0 -162 -4l-78 -2
q-6 2 -6 15z" />
    <glyph glyph-name="S" unicode="S" horiz-adv-x="913" 
d="M432 12q112 0 176 60t64 162q0 104 -60 172t-203 156q-144 88 -216 176q-72 87 -72 208q0 156 109 248q110 92 278 92q100 0 179 -14t106 -17q-25 -137 -35 -264q-2 -4 -18 -5t-17 3q-9 101 -27 147q-43 107 -215 107q-101 0 -161 -62t-62 -157q-2 -139 135 -242
q45 -33 128 -82t102 -61q94 -63 148 -134t54 -173q1 -158 -117 -263t-317 -106q-82 -1 -162 19t-112 43q-14 18 -29 118q-14 100 -18 164q2 6 16 9t18 -1q51 -190 144 -252q72 -51 184 -51z" />
    <glyph glyph-name="T" unicode="T" horiz-adv-x="1230" 
d="M311 10q0 10 4 15q92 10 133 18t54 39q12 31 17 136t5 960q0 14 -20 15t-132 0q-114 -1 -155 -3t-70 -49t-77 -183q-2 -4 -18 -1t-17 8q29 145 37 311l10 4q66 -31 160 -31h753q104 0 181 25q8 0 8 -4q-25 -80 -41 -307q-3 -5 -19 -5t-18 5q-8 111 -31 165t-80 60
q-213 8 -301 2q-10 -4 -10 -19q0 -777 6 -923t22 -172t46 -34q32 -9 106 -17q4 -1 2 -15t-6 -16l-254 6l-291 -6q-4 6 -4 16z" />
    <glyph glyph-name="U" unicode="U" horiz-adv-x="1355" 
d="M1343 1237q0 -12 -4 -14q-55 -7 -85 -17t-44 -41t-16 -116q-10 -578 -31 -697q-57 -389 -485 -389t-473 369q-12 82 -12 397t-3 369q0 92 -51 108q-20 9 -98 19q-4 4 -4 15t4 15l235 -6l222 6q2 -2 2 -14t-2 -16q-78 -15 -96 -21q-39 -11 -44 -110q-12 -311 0 -629
q10 -186 68 -268q96 -150 326 -150q158 0 250 84t106 299q16 311 4 629q-2 85 -22 113t-53 35t-101 16q-2 4 -2 15t4 15l215 -4l186 4q4 -4 4 -16z" />
    <glyph glyph-name="V" unicode="V" horiz-adv-x="1200" 
d="M422 1241q0 -12 -2 -16q-49 -11 -92 -23t-27 -55q45 -125 186 -493t166 -427l2 -2q4 0 7 2q28 57 162 401t162 428q28 82 22 111q-8 29 -50 39q-70 14 -102 19q-2 4 1 16t5 14l207 -6l197 6q2 -4 2 -15t-2 -15q-45 -5 -85 -17t-65 -47t-67 -137q-293 -722 -334 -826
t-72 -212q-51 8 -90 0q-59 194 -190 544t-187 484t-79 161q-24 29 -47 33q-24 4 -40 6t-32 6t-29 5q-4 4 -2 16t6 14l237 -6q100 0 230 6q2 -2 2 -14z" />
    <glyph glyph-name="W" unicode="W" horiz-adv-x="1736" 
d="M418 1241q0 -12 -2 -16q-70 -14 -84 -21q-39 -18 -21 -88q63 -258 244 -860q4 2 6 4q268 745 320 942q35 -4 75 2q25 -104 147 -452t183 -502h4l4 2q186 592 234 817q23 115 -37 133q-57 14 -115 23q-4 4 -4 15t4 15l221 -6q82 0 205 6q4 -2 4 -14t-4 -16
q-78 -15 -104 -27t-45 -41q-18 -29 -59 -143t-156 -489q-115 -374 -160 -539q-72 0 -78 -2q-76 268 -330 962q-6 0 -8 -4q-309 -895 -327 -954q-6 2 -41 1t-43 -3q-45 195 -177 658t-175 521q-23 29 -65 41t-91 19q-4 2 -3 16t7 16l252 -8q129 2 217 6q2 -2 2 -14z" />
    <glyph glyph-name="X" unicode="X" horiz-adv-x="1191" 
d="M1237 12q0 -16 -6 -18l-113 4q-125 4 -252 -1t-137 -5q-4 4 -5 17t3 18q82 16 88 18q29 10 14 39q-53 119 -260 465q-2 4 -5 4t-3 -4q-217 -315 -280 -447q-18 -47 30 -59q49 -10 90 -16q2 -5 1 -17t-5 -16l-213 6q-35 0 -215 -8q-2 4 -2 17t2 18q74 8 109 16
q70 16 164 145t286 416q4 10 0 17q-215 390 -252 447q-38 56 -62 88q-38 51 -198 69q-4 4 -4 16t4 14l263 -6q123 0 202 6q4 -4 4 -15t-4 -15q-55 -12 -67 -17q-25 -8 -14 -34q10 -26 56 -106q46 -79 103 -177t78 -137q6 -4 10 0q213 332 231 386t-20 62q-25 8 -102 21
q-2 4 0 17t4 15l192 -6l224 6q4 -18 0 -30q-90 -15 -121 -25t-65 -39q-54 -46 -312 -459q-4 -4 0 -16q216 -383 270 -471t90 -124t75 -45q40 -9 120 -17q4 -1 4 -17z" />
    <glyph glyph-name="Y" unicode="Y" horiz-adv-x="1097" 
d="M-33 1240q0 11 4 15l250 -6q119 0 199 6q6 -2 6 -15t-4 -15q-14 -3 -62 -15t-22 -69q133 -274 270 -516h8q203 352 261 491q32 79 -48 92q-14 4 -41 8t-45 9q-4 4 -3 16t8 14q160 -6 204 -6l203 6q4 -2 4 -14t-4 -16q-30 0 -84 -17q-45 -10 -72 -38t-59 -85
q-215 -358 -285 -512q-16 -29 -16 -69q6 -159 6 -328q2 -68 15 -98q12 -30 54 -40q42 -9 99 -15q2 -3 0 -15t-4 -14l-258 6l-254 -6q-4 4 -4 14t4 15q57 4 105 14t62 39q13 29 15 84q0 211 2 288t-14 109q-79 180 -193 382q-114 203 -143 231t-57 36t-42 10q-13 2 -31 5
q-18 2 -32 4q-2 4 -2 15z" />
    <glyph glyph-name="Z" unicode="Z" horiz-adv-x="1128" 
d="M811 1194q-459 0 -529 -5t-109 -59q-40 -54 -91 -184q-2 -2 -18 3t-17 9q43 188 53 310q10 6 21 2q41 -20 170 -21h411q236 0 312 8q8 0 8 -16q-74 -125 -352 -575t-373 -596q-6 -11 4 -11q113 -16 524 -10q57 0 103 41q63 53 147 244q15 0 31 -10q-8 -53 -40 -170
t-52 -146q-10 -16 -92 -16l-660 6q-121 0 -194 -6q-2 2 -3 11t1 11q141 188 411 614t336 554q4 12 -2 12z" />
    <glyph glyph-name="bracketleft" unicode="[" horiz-adv-x="665" 
d="M215 1516h354q4 -2 1 -31t-9 -29q-59 -2 -262 -2q-12 0 -12 -14q-13 -78 -13 -799t9 -905q0 -33 20 -39q35 -10 279 -10q4 -4 1 -32t-14 -30q-109 -6 -288 0q-59 2 -80 19l4 1859q0 13 10 13z" />
    <glyph glyph-name="backslash" unicode="\" horiz-adv-x="837" 
d="M123 1415l2 -2h2q471 -1282 635 -1634q-4 -8 -10 -8q-49 4 -60 22q-40 76 -307 775q-268 698 -313 808q20 27 51 39z" />
    <glyph glyph-name="bracketright" unicode="]" horiz-adv-x="671" 
d="M98 -350q0 29 19 31q258 0 264 9t6 13q10 76 10 843t-8 857q-6 39 -20 41q-29 4 -285 4q-4 10 1 35t15 24q51 4 336 4q23 0 33 -6l-2 -1872q0 -12 -10 -12l-357 -2q-2 2 -2 31z" />
    <glyph glyph-name="asciicircum" unicode="^" horiz-adv-x="774" 
d="M369 1059q-193 -393 -212 -416t-54 -23t-35 11q27 33 143 266q117 233 145 301q7 7 54 19q40 -89 152 -305t145 -263q0 -6 -5 -12t-38 -17t-37 -8q-30 30 -135 234q-105 203 -111 213q-10 4 -12 0z" />
    <glyph glyph-name="underscore" unicode="_" horiz-adv-x="1128" 
d="M1157 -373v-104h-1165v104h1165z" />
    <glyph glyph-name="grave" unicode="`" horiz-adv-x="819" 
d="M344 1206q31 -70 113 -309q-3 -4 -13 -9t-14 -3q-92 117 -209 301q-4 0 2 12q11 4 57 8t64 0z" />
    <glyph glyph-name="a" unicode="a" horiz-adv-x="772" 
d="M483 335q0 54 -2 56t-4 0q-225 -74 -245 -93t-19 -76q0 -58 39 -100t97 -42t112 31q18 14 18 43q4 127 4 181zM688 80q39 0 70 10q0 -33 -8 -41q-66 -74 -148 -74t-108 50q-10 18 -13 41t-10 16q-158 -106 -222 -106t-110 44q-68 68 -67 177q0 53 22 98q29 16 187 67
q158 52 181 64t23 25v79q0 70 -34 117q-55 78 -162 78q-45 1 -83 -25t-73 -141q-3 -2 -21 7t-18 28q0 18 15 55q14 37 22 45q61 47 140 82t120 35q123 0 187 -102q43 -66 43 -201l-7 -338q0 -90 74 -90z" />
    <glyph glyph-name="b" unicode="b" horiz-adv-x="933" 
d="M446 715q-78 0 -151 -47q-14 -6 -17 -31q-2 -25 -2 -168t5 -219q2 -113 36 -148q68 -53 164 -53t156 68q76 82 76 245t-71 258t-196 95zM559 811q137 0 221 -104q82 -94 82 -246q0 -252 -182 -379q-55 -43 -139 -75t-153 -32q-70 -1 -142 21t-109 10q-2 -2 -6 2t-4 8
q8 106 8 610t-6 576q-6 70 -12 80q-5 10 -23 19t-100 18q-4 2 -2 13t6 14q154 10 291 63q8 0 8 -14q-19 -29 -21 -295t3 -391q0 -8 10 -4q172 106 270 106z" />
    <glyph glyph-name="c" unicode="c" horiz-adv-x="772" 
d="M428 -25q-178 0 -276 134q-80 106 -80 268q0 238 196 352q138 82 244 82t164 -25q53 -27 59 -51q0 -18 -4 -24q-27 -55 -61 -72q-10 -4 -19 0q-99 106 -209 106t-169 -83q-58 -84 -58 -201q0 -168 76 -260q86 -111 224 -111t226 94q6 0 7 -6q-1 -31 -7 -39
q-135 -164 -313 -164z" />
    <glyph glyph-name="d" unicode="d" horiz-adv-x="950" 
d="M457 745q-98 0 -158 -61q-80 -82 -80 -249t78 -261q77 -94 183 -94t165 49q15 12 19 46t5 198q2 253 -11 279q-13 27 -40 48q-63 45 -161 45zM662 90q0 8 -9 4q-165 -119 -287 -119t-204 105q-90 106 -90 282q0 92 38 178t103 144q68 55 166 91t186 36q12 0 94 -10
q8 0 9 6q0 383 -5 439t-49 68t-92 17q-4 14 4 31q188 0 303 47q6 -4 7 -16q-27 -52 -27 -588q0 -535 2 -609q3 -103 22 -115q19 -13 99 -1q2 -6 0 -18t-4 -13q-33 -18 -127 -52t-123 -36q-12 0 -14 29t-2 100z" />
    <glyph glyph-name="e" unicode="e" horiz-adv-x="790" 
d="M396 758q-77 0 -126 -67t-55 -185q0 -12 6 -12q45 -4 180 1t166 13q12 6 13 16q-10 92 -58 163t-126 71zM428 -25q-162 0 -250 99q-106 115 -106 313q0 316 280 405q63 19 105 19q88 0 150 -52q62 -53 86 -109t34 -118q4 -14 25 -16q6 -20 -9 -27q-109 -37 -522 -47
q-12 0 -12 -22q4 -137 82 -233q78 -97 215 -97t227 86q8 0 10 -12t-6 -29q-147 -160 -309 -160z" />
    <glyph glyph-name="f" unicode="f" horiz-adv-x="473" 
d="M152 690q0 16 -9 17l-100 4q0 23 14 41q94 14 97 41q0 199 50 325t166 208q116 83 184 83q66 0 108 -23t57 -51v-16q-4 -14 -31 -52t-35 -45t-18 -3q-96 96 -180 96q-47 0 -89 -39t-56 -142t-16 -215q-1 -112 0 -124t9 -13q164 4 197 6q-12 -41 -17 -83l-182 2
q-8 0 -8 -17l2 -434q0 -92 2 -135q2 -68 54 -79t93 -15q2 -3 0 -17t-4 -16l-217 6l-192 -6q-2 2 -2 16t2 17q49 6 73 12q43 14 43 78q5 147 5 573z" />
    <glyph glyph-name="g" unicode="g" horiz-adv-x="829" 
d="M456 -500q134 0 196 60t62 166t-106 145q-88 39 -250 39q-43 0 -73 -21q-117 -78 -117 -168t74 -155q80 -66 214 -66zM422 238q149 0 149 233q0 113 -51 199t-160 86q-70 0 -108 -62t-37 -174q0 -110 54 -196t153 -86zM440 811q64 1 134 -27t130 -28t84 8t46 31q2 2 8 -2
q6 -5 6 -13t-16 -46t-36 -52t-50 -14t-64 2q-6 0 -2 -11q25 -53 25 -135q0 -172 -117 -260q-112 -88 -252 -88q-18 -2 -40 -18t-22 -42t24 -42t50 -20t155 -15q128 -10 179 -27q150 -49 149 -202q0 -104 -66 -194q-67 -89 -173 -145q-106 -57 -232 -57t-222 71t-97 189
q0 55 14 72q35 41 203 170q0 2 -2 6q-59 16 -98 58t-39 81q0 8 4 25q145 83 145 94q0 4 -4 4q-188 70 -188 299q0 147 112 240q49 37 119 63q69 26 133 25z" />
    <glyph glyph-name="h" unicode="h" horiz-adv-x="948" 
d="M23 10q0 12 4 17q53 8 67 12q41 12 43 96q4 49 4 539t-10 579q-6 41 -41 52q-10 2 -78 10q-2 4 -2 14t2 14q158 10 281 66q8 -4 8 -18q-16 -29 -18 -179v-524q0 -6 8 -2q161 125 277 125t177 -83t62 -236q0 -305 1 -363t15 -72q27 -20 105 -30q2 -7 0 -19t-6 -14l-195 6
q-96 0 -182 -6q-4 2 -4 15t4 18q74 12 87 19q13 8 20 26t10 82q6 334 -8 403t-60 113q-45 44 -133 45q-88 0 -154 -58q-25 -18 -24 -45q0 -426 4 -477t14 -69t39 -26t68 -13q4 -3 4 -15t-4 -16l-68 2q-68 2 -137 2l-178 -6q-2 4 -2 16z" />
    <glyph glyph-name="i" unicode="i" horiz-adv-x="436" 
d="M29 10q0 14 2 17q55 4 80 16q35 15 37 75t4 274q0 214 -1 244t-15 48t-81 37q-2 4 -2 16t2 15q150 16 244 61q-4 -111 -4 -357t2 -343q0 -55 43 -72q35 -10 76 -14q0 -31 -6 -33l-189 6l-190 -6q-2 2 -2 16zM299 1104q0 -63 -43 -84q-8 -6 -36 -9q-85 -9 -85 76
q-4 29 10 50q27 31 82 30q72 0 72 -63z" />
    <glyph glyph-name="j" unicode="j" horiz-adv-x="434" 
d="M-33 -550q0 3 2 5q102 74 144 185q41 111 41 325q0 641 -4 678t-34 52t-85 22q-2 6 -2 18t2 17q161 8 276 61q-8 -182 -8 -717q-6 -133 -12 -192q-19 -158 -109 -289t-178 -184q-20 0 -26 8t-7 11zM299 1099q0 -42 -31 -71q-6 -6 -39 -13t-41 -3q-49 20 -50 66t7 55
q31 35 81 35t62 -14q11 -13 11 -55z" />
    <glyph glyph-name="k" unicode="k" horiz-adv-x="862" 
d="M141 679q0 505 -5 563t-40 69q-20 6 -78 10q-4 4 -4 15t4 16q176 14 275 57q10 0 10 -12q-16 -29 -19 -198t-3 -781q53 12 98 49q59 53 132 136t73 106q0 33 -119 41q-2 2 -1 16t3 16q215 0 342 19q4 -3 5 -17t-3 -18q-102 -20 -156 -76q-27 -26 -105 -106t-110 -111
q-4 -8 0 -12q53 -82 162 -214t155 -169q45 -37 73 -44t77 -7q4 -1 3 -15t-5 -18q-20 -4 -188 -4q-68 2 -107 41q-35 30 -133 161q-98 132 -125 164t-71 33q0 -193 3 -251t14 -76q12 -18 36 -23q24 -6 78 -12q8 -16 -2 -33l-199 6l-186 -6q-4 2 -5 16q0 14 5 17q55 8 71 14
q39 17 42 75t3 563z" />
    <glyph glyph-name="l" unicode="l" horiz-adv-x="423" 
d="M141 684q0 490 -6 544t-30 62t-82 15q-4 4 -5 14q0 10 5 14q139 14 268 76q8 -4 8 -10q-18 -63 -18 -169v-550q0 -456 5 -522t12 -85q14 -39 112 -46q2 -3 0 -17t-4 -16l-191 6l-195 -6q-7 21 -2 33q59 6 88 21t32 80q3 66 3 556z" />
    <glyph glyph-name="m" unicode="m" horiz-adv-x="1462" 
d="M29 12q0 14 4 15q49 6 76 16q35 10 38 92q6 158 7 461q0 45 -20 69t-87 37q-2 4 1 16t7 15q57 4 126 29t112 51q6 0 6 -6l-2 -127q0 -2 3 -5t5 -1q170 137 275 137q141 0 204 -137q4 -10 13 -2q179 139 291 139t170 -81t61 -228q0 -316 2 -376q3 -60 21 -75
q18 -16 100 -24q2 -7 0 -19t-6 -14l-193 6q-68 0 -184 -6q-2 2 -2 16t2 17q61 8 88 20q18 6 22 34q5 28 7 220t-11 250q-10 68 -54 113t-131 45t-173 -74q-4 -4 -4 -19q8 -55 8 -268t3 -252t32 -51t86 -18q4 -3 2 -17t-6 -16l-197 6l-182 -6q-4 2 -4 15t4 18q53 6 75 14
q22 9 27 25q16 43 14 250q-1 208 -10 249q-31 145 -176 146q-72 0 -143 -54q-39 -31 -39 -61q0 -379 2 -485q0 -57 41 -70q27 -8 78 -14q4 -3 2 -17t-6 -16l-191 6l-190 -6q-4 4 -4 18z" />
    <glyph glyph-name="n" unicode="n" horiz-adv-x="958" 
d="M33 10q0 14 4 17q45 4 76 15q31 12 35 70t4 282t-4 247q-4 25 -22 37q-17 12 -75 29q-2 4 0 15t6 13q143 18 240 78q6 1 5 -17t-4 -67t-1 -52t6 -1q168 135 284 135t181 -104q49 -76 49 -234q0 -295 2 -377q0 -39 27 -47q37 -16 88 -22q2 -7 0 -19t-6 -14l-178 6
q-72 0 -201 -6q-4 2 -4 16t4 17q61 6 78 12q39 12 43 69q4 56 3 218t-11 232t-56 108q-45 45 -131 45t-160 -68q-20 -20 -20 -74q0 -352 3 -432t38 -92q25 -10 86 -18q7 -14 -2 -33l-197 6l-186 -6q-4 2 -4 16z" />
    <glyph glyph-name="o" unicode="o" horiz-adv-x="946" 
d="M514 33q203 0 203 315q0 178 -75 293t-206 115q-66 0 -102 -31q-102 -70 -102 -264t78 -311q79 -117 204 -117zM518 811q158 0 257 -113t99 -286q0 -113 -48 -210t-138 -155q-104 -72 -232 -72t-219 66q-163 118 -163 347q0 228 174 345q112 78 270 78z" />
    <glyph glyph-name="p" unicode="p" horiz-adv-x="937" 
d="M719 365q0 174 -72 260t-168 86t-174 -62q-25 -14 -25 -45q0 -30 -1 -194q0 -164 2 -203q4 -156 196 -156q82 0 150 58q92 82 92 256zM283 684q0 -2 8 -2q186 129 295 129q110 0 194 -96t84 -252q0 -223 -172 -365q-68 -55 -160 -89t-144 -34t-101 15q-6 -4 -6 -10
q0 -274 4 -352t16 -94q13 -15 37 -19t113 -13q4 -4 2 -18t-7 -16h-94q-84 0 -344 -25q-4 4 -4 17t4 18q63 16 82 22q45 18 48 95t3 525t-4 495q-4 49 -26 65t-88 22q-5 2 -3 16t7 15q55 10 131 41t116 62q2 2 8 -4t4 -30q-3 -22 -3 -118z" />
    <glyph glyph-name="q" unicode="q" horiz-adv-x="940" 
d="M466 743q-114 1 -180 -81q-65 -82 -65 -239t90 -254t219 -97q68 0 119 30q12 6 13 23q0 477 -11 530q0 31 -18 45q-53 43 -167 43zM393 -25q-135 0 -228 113q-93 114 -93 302t164 312q158 109 362 109q113 0 231 -37q-14 -28 -20 -102t-6 -516t6 -518t16 -94t42 -26
q32 -7 94 -14q-1 -28 -5 -32q-196 0 -315 -14t-133 -13q-10 20 -2 33q33 4 92 20q29 10 41 32q21 39 23 531q0 12 -31 -9t-110 -49t-128 -28z" />
    <glyph glyph-name="r" unicode="r" horiz-adv-x="612" 
d="M33 9q0 13 4 18q43 4 76 14q31 14 32 57q9 46 9 278t-4 259q-6 55 -101 78q0 25 6 26q133 14 232 74q8 0 8 -6q-2 -37 -2 -105t3 -68q3 -1 5 1q129 176 225 176q59 0 86 -43q2 -2 2 -21t-24 -60q-24 -42 -39 -60q-14 -6 -16 -6q-51 55 -111 55t-113 -84q-18 -37 -18 -82
q0 -336 4 -394t41 -73q49 -12 106 -16q4 -3 2 -17t-6 -16l-207 6q-92 0 -196 -6q-4 2 -4 15z" />
    <glyph glyph-name="s" unicode="s" horiz-adv-x="655" 
d="M340 772q-51 0 -88 -33t-37 -91t33 -98q34 -40 146 -97t154 -109t42 -127q0 -104 -85 -173t-204 -69t-211 39q-25 90 -24 213q2 4 14 7t18 2q31 -150 125 -197q43 -23 98 -23t96 35q40 35 40 90t-32 93q-33 38 -137 94t-150 115t-46 147t74 154t205 67q61 0 115 -9t75 -9
q-16 -72 -22 -199q-3 -4 -17 -5t-16 3q-14 133 -74 160q-41 20 -92 20z" />
    <glyph glyph-name="t" unicode="t" horiz-adv-x="538" 
d="M283 694v-430q2 -98 14 -123q25 -71 99 -71t122 32q6 -6 -4 -34q-68 -90 -188 -90t-160 85q-27 53 -27 234l2 393q0 12 -6 14t-104 9l16 49q82 14 88 17t6 12v161q29 12 73 48t56 55q6 2 25 -4q-12 -57 -12 -256q0 -12 10 -13q172 0 221 9q-12 -49 -16 -86l-205 2
q-10 0 -10 -13z" />
    <glyph glyph-name="u" unicode="u" horiz-adv-x="931" 
d="M281 496q0 -252 10 -293q31 -125 168 -125q86 0 159 59q20 15 24 53t3 212q0 174 -4 257q-4 49 -33 57t-135 21q-4 3 -2 17t6 16q190 0 318 31q-8 -51 -9 -217l2 -406q0 -60 12 -80t34 -20t75 4q0 -33 -4 -35q-139 -39 -250 -82q-12 0 -12 17v116q0 4 -4 6t-8 0
q-147 -129 -264 -129q-231 0 -232 273q0 354 -3 408q-4 54 -24 64t-92 17q-2 3 1 17t6 16q162 0 268 33q-10 -55 -10 -307z" />
    <glyph glyph-name="v" unicode="v" horiz-adv-x="790" 
d="M346 774q0 -12 -2 -16q-60 -10 -74 -18t-14 -29q16 -57 94 -263t96 -247h9q102 248 159 440q14 57 12 71q-5 31 -116 46q-2 6 0 17t6 13l170 -6q82 0 150 6q4 -2 4 -14t-4 -16q-63 -12 -68 -15q-47 -16 -72 -75q-74 -156 -156 -377t-108 -301q-49 0 -63 -4
q-21 78 -112 317t-117 307t-42 94t-43 34q-27 10 -78 20q-4 4 -3 16t6 14l182 -6q70 0 180 6q4 -2 4 -14z" />
    <glyph glyph-name="w" unicode="w" horiz-adv-x="1214" 
d="M1270 774q0 -12 -2 -16q-4 -2 -41 -7t-56 -27q-20 -21 -49 -90q-28 -70 -116 -310t-119 -334q-35 4 -68 -4q-29 90 -105 290t-102 259q-4 4 -8 0q-2 -6 -94 -242t-115 -303q-39 4 -67 -2q-82 322 -197 624q-27 76 -44 101t-39 31t-44 9q-21 3 -31 5q-6 13 2 30l195 -6
q68 0 178 6q2 -2 3 -15t-1 -15q-57 -11 -63 -15q-31 -9 -23 -45t72 -240t82 -255q6 0 6 2q41 94 112 280t91 258q23 -4 69 2q4 -16 49 -149q141 -379 152 -399h8q25 55 82 227t76 248q10 55 -36 67t-89 19q-2 6 0 17t6 13l178 -6q16 0 146 6q2 -2 2 -14z" />
    <glyph glyph-name="x" unicode="x" horiz-adv-x="751" 
d="M803 10q0 -12 -4 -16l-203 6l-188 -6q-8 23 0 33q53 10 70 18t7 31q-29 70 -135 243q-4 8 -8 0q-113 -168 -133 -214t14 -60q39 -12 92 -18q2 -3 0 -17t-4 -16q-6 0 -106 6t-240 -6q-2 2 -2 16t2 17q86 12 117 31q31 18 71 72t164 237v12q-66 117 -129 225t-91 125
q-28 18 -109 27q-2 4 -1 17t5 15l203 -6l167 6q2 -2 4 -15t-1 -17q-53 -10 -62 -13q-23 -8 -12 -32q27 -63 121 -222q4 -8 8 0q92 129 123 203q16 35 -15 46t-79 18q-4 4 -5 16q0 12 5 16l151 -6q78 0 164 6q4 -2 5 -15t-3 -17q-80 -14 -110 -32t-72 -81q-29 -39 -133 -194
q-4 -6 -2 -15q99 -178 151 -264t86 -111t115 -32q2 -5 2 -17z" />
    <glyph glyph-name="y" unicode="y" horiz-adv-x="806" 
d="M350 773q0 -11 -2 -15q-55 -12 -71 -20q-17 -8 -7 -42q10 -36 94 -258t101 -256h4q147 328 174 496q8 49 -39 63q-6 2 -21 5q-15 2 -29 6t-32 6q-2 4 -1 16t5 14l166 -6q10 0 158 6q4 -2 4 -14t-4 -16q-51 -10 -64 -17q-47 -16 -73 -84q-219 -598 -492 -1089
q-63 -98 -71 -115l-11 -4q-57 14 -78 49q-6 12 -2 21q223 279 320 487q-12 29 -17 37q-208 568 -261 655q-19 34 -49 44t-70 16q-2 4 -1 16t5 14l182 -6l178 6q4 -4 4 -15z" />
    <glyph glyph-name="z" unicode="z" horiz-adv-x="718" 
d="M473 735q-221 0 -256 -4t-51 -12q-43 -22 -94 -156q-6 -2 -20 1t-17 9q31 121 49 228q47 -18 139 -19h277q96 0 151 6q4 0 4 -20q-188 -346 -403 -698q-4 -14 6 -15q70 -12 268 -12q70 0 148 184q10 6 35 6l4 -4q-16 -72 -68 -204q-14 -35 -41 -35l-538 10q-8 4 -9 25
q287 446 418 700q4 10 -2 10z" />
    <glyph glyph-name="braceleft" unicode="{" horiz-adv-x="772" 
d="M393 1184l25 -342q0 -227 -221 -275v-6q162 -16 204 -111q33 -76 33 -151q0 -76 -12 -198t-12 -169q0 -135 72 -198t206 -78q2 -4 -1 -18t-5 -17q-170 4 -276 85t-107 237q0 45 10 179t14 215q6 173 -243 208q-2 5 2 21t8 18q109 2 159 46t52 116t-4 167l-14 193
q0 203 97 302t284 118q6 -2 6 -33q-156 -23 -216 -101t-61 -208z" />
    <glyph glyph-name="bar" unicode="|" horiz-adv-x="512" 
d="M205 1454h104v-2089h-104v2089z" />
    <glyph glyph-name="braceright" unicode="}" horiz-adv-x="774" 
d="M338 833q0 69 12 203t12 181q0 135 -72 199t-206 77q-2 2 2 16t6 17q168 -6 274 -87t107 -237q0 -72 -15 -234t-3 -220q29 -127 192 -160q23 -6 47 -8q0 -33 -12 -39q-109 -2 -161 -47t-53 -117q-1 -71 10 -183t11 -149q0 -203 -96 -305t-280 -121q-6 2 -11 15
q-4 13 0 18q156 26 216 100t61 205l-25 326q0 161 96 224q48 32 123 52v6q-173 16 -216 143q-19 56 -19 125z" />
    <glyph glyph-name="asciitilde" unicode="~" horiz-adv-x="942" 
d="M301 461q-51 0 -117 -40t-98 -75q-2 -2 -6 2t-4 18t18 44q37 47 118 95t136 48q54 0 156 -48t149 -48q109 0 205 108l12 -4q0 -72 -113 -149q-73 -50 -139 -50t-186 62q-80 37 -131 37z" />
    <glyph glyph-name="uni00A0" unicode="&#xa0;" horiz-adv-x="323" 
 />
    <glyph glyph-name="exclamdown" unicode="&#xa1;" horiz-adv-x="489" 
d="M224 629q-40 1 -66 27t-27 69q0 43 27 71q28 28 68 28t67 -25q27 -33 27 -72t-29 -72q-27 -26 -67 -26zM184 -449q-39 0 -40 15q0 15 26 343q26 329 39 519q2 4 19 1t20 -7q15 -203 46 -490q32 -286 32 -306t-8 -38q-8 -16 -19 -18q-62 -25 -115 -19z" />
    <glyph glyph-name="cent" unicode="&#xa2;" horiz-adv-x="921" 
d="M121 543q0 109 53 201q104 180 363 214l14 146q35 10 49 10l-16 -149q96 -1 155 -23t72 -53q2 -8 -4 -29q-20 -33 -49 -49q-6 -4 -13 0q-76 76 -161 90q-8 0 -9 -8l-63 -633q18 -6 55 -6q143 4 240 102q10 -10 10 -34q-131 -147 -309 -168q-4 0 -8 -9l-15 -149
q-4 -2 -24 -5t-23 -1l17 155q-2 10 -9 11q-154 18 -240 124t-85 263zM268 608q0 -254 197 -336l63 627q-4 8 -8 8q-112 -2 -182 -87t-70 -212z" />
    <glyph glyph-name="sterling" unicode="&#xa3;" horiz-adv-x="921" 
d="M586 -51q-68 0 -199 48t-188 48t-133 -78q-12 0 -17 10q0 11 10 49t17 44q31 31 84 59q80 47 63 420q-131 0 -145 4q-6 3 0 23t26 36q41 -4 119 -4q4 315 99 443q51 68 139 125t144 57q106 0 153 -41q16 -14 15 -28t-13 -47q-12 -34 -23 -46t-18 -4q-90 90 -169 90
t-113 -61q-34 -62 -42 -162t-10 -316q0 -10 8 -10q193 0 275 6q2 -2 1 -9t-3 -9q-29 -33 -76 -41t-201 -8q-8 0 -8 -8q-27 -264 -152 -394q70 12 220 -18q133 -35 205 -35t112 32q41 32 88 157q2 2 5 2q13 0 20 -37q-47 -147 -136 -222t-157 -75z" />
    <glyph glyph-name="currency" unicode="&#xa4;" horiz-adv-x="921" 
d="M680 557q0 115 -64 196t-159 81q-97 0 -145 -68t-48 -186t67 -186q67 -69 165 -68q184 0 184 231zM488 903q86 0 180 -53q6 -6 12 0q80 88 96 98q29 14 74 15q8 -4 4 -13q-90 -100 -133 -155q59 -88 59 -198t-73 -212q-6 -8 0 -18q109 -119 135 -142q5 -5 -6 -16
q-72 -14 -93 0q-43 35 -110 106q-85 -69 -187 -69t-188 69q-74 -70 -119 -127q-2 -2 -7 -2t-7 2q-4 10 -5 40t10 48t81 93v12q-45 75 -45 185t63 196q-86 100 -93 108t-7 20t12 41q13 30 21 39t16 1q68 -84 113 -135q6 -2 16 0q95 67 181 67z" />
    <glyph glyph-name="yen" unicode="&#xa5;" horiz-adv-x="921" 
d="M541 369q-6 0 -6 -9l2 -196q2 -68 12 -92t44 -31q34 -6 101 -14q2 -3 0 -17t-4 -16l-241 6l-218 -6q-4 4 -4 16t4 17q61 6 91 11q52 9 57 65q6 57 6 255q0 10 -10 11l-172 -2q4 41 12 51h25l139 -2q6 0 6 8v117q0 10 -8 10q-31 0 -89 -1t-75 -1q4 39 12 49l148 -2
q2 0 4 5q6 14 -113 262q-118 247 -138 271t-50 32t-78 14q-2 4 -2 16t4 16l197 -6q109 0 182 6q4 -4 4 -16t-2 -16q-80 -9 -80 -34q0 -15 14 -50q127 -297 195 -426q0 -2 4 -2t4 2q100 209 180 409q16 41 6 65t-64 28q-15 1 -48 8q0 31 4 32q154 -6 184 -6t142 6q2 -4 2 -16
t-2 -16q-45 -4 -64 -11q-68 -18 -115 -120q-182 -387 -204 -443q-6 -10 6 -10l143 2h31q0 -27 -8 -47h-170q-8 0 -9 -8v-119q0 -8 7 -8l170 2q0 -25 -9 -49h-159z" />
    <glyph glyph-name="brokenbar" unicode="&#xa6;" horiz-adv-x="514" 
d="M203 260h106v-727h-106v727zM203 1292h106v-712h-106v712z" />
    <glyph glyph-name="section" unicode="&#xa7;" horiz-adv-x="843" 
d="M643 101q0 91 -35 179q-34 88 -72 151q-38 62 -96 157t-83 166q-25 72 -30 135q-5 62 23 133q-68 -20 -121 -104t-53 -183q0 -170 131 -393q49 -68 81 -127q33 -58 70 -125t42 -141q4 -74 -23 -123q74 32 120 108t46 167zM434 1030q-33 0 -35 -52t42 -144t180 -314
q113 -170 113 -299t-58 -237t-152 -179q-94 -70 -166 -69q-123 0 -215 88q-25 28 -25 56t32 77q2 2 10 2q55 -69 129 -105t108 -36q29 0 29 55t-47 123q-29 49 -135 221q-154 241 -154 423t131 331q41 53 113 95t129 42q119 0 188 -84q21 -22 21 -48t-35 -65l-8 -2
q-37 33 -103 77t-92 44z" />
    <glyph glyph-name="dieresis" unicode="&#xa8;" horiz-adv-x="819" 
d="M633 1102q0 -59 -39 -78q-8 -4 -34 -6t-34 2q-41 16 -41 56t9 57q29 29 75 28q64 0 64 -59zM330 1102q0 -59 -39 -78q-8 -4 -34 -6t-34 2q-41 16 -41 56t8 57q29 29 76 28q64 0 64 -59z" />
    <glyph glyph-name="copyright" unicode="&#xa9;" horiz-adv-x="1466" 
d="M774 979q-126 0 -192 -93q-66 -92 -66 -232t72 -244t215 -105q49 0 107 36t108 103q12 0 20 -16q-10 -37 -48 -88t-52 -61q-74 -20 -145 -21q-195 0 -309 103t-114 267t110 274q110 112 315 112q51 0 129 -10t104 -9q-14 -94 -18 -190q-4 -2 -16 -2t-15 2q-8 59 -21 88
q-12 29 -52 57t-132 29zM732 1227q-240 0 -408 -173t-168 -417t170 -419t410 -175t406 170q167 170 167 419t-169 422t-408 173zM736 1268q264 0 446 -184t182 -449t-184 -451t-448 -186t-446 182q-184 182 -184 450t184 454q184 184 450 184z" />
    <glyph glyph-name="ordfeminine" unicode="&#xaa;" horiz-adv-x="499" 
d="M307 651q0 76 -4 76q-131 -49 -149 -65q-12 -12 -13 -39q0 -86 90 -86q27 0 58 20q18 18 18 94zM449 535q33 0 49 6q0 -23 -6 -35q-38 -43 -98 -43t-81 35q-4 4 -7 19t-5 17t-4 -2q-109 -70 -145 -70t-72 38q-37 37 -37 87t16 79q17 12 119 44t123 44q8 8 9 18t1 51
q1 41 -27 81t-94 40q-30 0 -52 -12t-56 -84q-2 -2 -12 6t-10 13t9 31t13 28q41 36 91 58t79 22q84 0 129 -70q27 -45 27 -129l-7 -215q0 -57 48 -57z" />
    <glyph glyph-name="guillemotleft" unicode="&#xab;" horiz-adv-x="1157" 
d="M651 381q51 -29 172 -118t170 -136q8 -14 4 -43q-4 -4 -6 -4q-41 40 -222 148t-271 143q6 18 10 22q145 61 303 157t209 136q2 0 4 -5t-2 -13t-7 -16t-23 -30q-20 -20 -139 -101q-118 -81 -202 -132q-2 -2 0 -8zM637 658q1 -14 -25 -38q-26 -26 -136 -104t-189 -127
q-4 -4 0 -8q49 -27 162 -113t157 -131q2 -3 5 -25t-7 -22q-43 41 -213 144t-260 137q0 14 8 22q133 57 289 151t203 130q6 -2 6 -16z" />
    <glyph glyph-name="logicalnot" unicode="&#xac;" horiz-adv-x="942" 
d="M760 115q-12 0 -18 5q-5 5 -5 7v371q0 45 -22 45h-565q-61 0 -62 8q14 61 31 84q29 -6 215 -6h251l173 2h61q10 0 10 -13l-2 -327q0 -113 4 -158q-59 -18 -71 -18z" />
    <glyph glyph-name="uni00AD" unicode="&#xad;" horiz-adv-x="522" 
d="M86 451q82 0 369 10v-8l2 -7q-6 -72 -29 -76t-360 -12q-2 12 -2 22t7 40q7 31 13 31z" />
    <glyph glyph-name="registered" unicode="&#xae;" horiz-adv-x="499" 
d="M227 1026q31 0 44 7t14 30q0 45 -47 45q-10 0 -11 -10v-72zM186 956v136q0 10 -5 13t-25 5q-2 2 -1 8t3 6l45 -2h65q59 0 60 -49q0 -37 -45 -51q27 -43 49 -70q16 -16 39 -18q4 -4 -4 -12q-18 -4 -45 2t-33 18q-29 43 -37 59q-10 12 -25 13v-56q0 -12 5 -15t26 -7
q4 -4 0 -12l-53 2l-51 -2q-2 8 0 12q27 4 29 8q3 4 3 12zM250 1196q-72 0 -121 -52t-49 -126t50 -127t122 -53t120 50t48 127t-49 129t-121 52zM252 1221q84 1 141 -57t57 -145t-58 -145t-142 -59q-84 0 -142 58q-58 57 -58 143t58 146q60 60 144 59z" />
    <glyph glyph-name="macron" unicode="&#xaf;" horiz-adv-x="819" 
d="M317 1096h291q0 -16 -10 -44t-14 -30q-25 -6 -192 -6t-183 4q-1 10 24 80q16 -4 84 -4z" />
    <glyph glyph-name="degree" unicode="&#xb0;" horiz-adv-x="532" 
d="M403 977q-1 59 -41 104t-104 45t-103 -41q-40 -41 -40 -105t43 -102q43 -36 104 -36q141 0 141 135zM45 982q1 100 63 158t158 58t150 -61t55 -155q0 -94 -63 -154q-64 -60 -152 -60t-150 57q-61 57 -61 157z" />
    <glyph glyph-name="plusminus" unicode="&#xb1;" horiz-adv-x="942" 
d="M512 664h350q6 -7 6 -15q-12 -66 -28 -67h-64l-264 -2q-8 0 -8 -28v-103l-2 -195q-4 -20 -66 -35q-14 2 -14 5v356q-123 -2 -344 -2q-4 4 -1 32t17 58q10 -4 201 -4h127v131q0 141 -4 190q51 23 80 23q8 0 8 -62l-2 -270q0 -12 8 -12zM842 63l-764 -6q-4 0 -4 15
q10 49 20 75q8 -2 199 -2l573 -2q4 -4 4 -12q-16 -66 -28 -68z" />
    <glyph glyph-name="two.k" unicode="&#xb2;" horiz-adv-x="628" 
d="M210 1442q-81 0 -157 -86q-2 0 -10 8t-8 12q41 63 107 113q67 49 148 49t138 -61t57 -158q0 -129 -143 -272q-58 -61 -104 -106q-47 -45 -47 -48q1 -2 59 -8t213 0q53 6 96 108q16 5 27 -10q-4 -33 -27 -99t-37 -83q-8 -20 -57 -21l-342 6q-66 0 -80 -2q-2 2 -4 12t0 13
q8 8 74 63t133 134l14 16q106 123 107 254q0 68 -38 117t-119 49z" />
    <glyph glyph-name="three.k" unicode="&#xb3;" horiz-adv-x="620" 
d="M312 1540q68 0 117 -47q50 -47 50 -117q0 -106 -117 -174q-2 -2 0 -6q190 -51 191 -197q0 -121 -125 -202q-86 -61 -210 -61t-152 65q-16 41 -17 100q2 4 11 7t12 1q29 -72 67 -96q51 -37 124 -37t120 42t47 124t-46 134t-138 52q-20 0 -49 -6q-2 4 5 20t11 19
q162 35 162 162q0 53 -37 92q-38 39 -106 39t-138 -70q-4 0 -10 8t-4 13q40 55 102 95t130 40z" />
    <glyph glyph-name="acute" unicode="&#xb4;" horiz-adv-x="819" 
d="M489 1188q17 6 65 10t58 0q9 -9 4 -14q-39 -61 -231 -301q-16 0 -25 16q90 215 129 289z" />
    <glyph glyph-name="mu" unicode="&#xb5;" horiz-adv-x="884" 
d="M739 401v-118q0 -164 54 -164q47 0 96 39q8 -4 4 -31q-27 -68 -84 -110t-97 -42q-40 -1 -57 17q-41 40 -43 254h-6q-68 -129 -146 -200t-126 -71q-86 0 -117 72q-12 -170 -4 -285q8 -114 62 -166t155 -67q4 -14 -6 -29q-16 -18 -74 -43t-98 -25q-41 0 -67 54
q-27 53 -33 250t-10 499t-9 527q8 10 70 33t84 10q-15 -444 -15 -518t11 -99q27 -72 97 -72t120 43q51 42 98 163q14 37 14 73q0 287 -2 371q12 12 56 26t71 17l27 -6q-25 -279 -25 -402z" />
    <glyph glyph-name="paragraph" unicode="&#xb6;" horiz-adv-x="1095" 
d="M723 934q0 184 22 229q-113 -13 -170 -109t-57 -314t88 -332q49 -63 127 -76q-10 209 -10 602zM807 470q0 -240 1 -354t-25 -224q-27 -110 -63 -168t-98 -106t-153 -48q-90 0 -123 72q-23 49 -18 104q2 6 12 16q86 -86 206 -86t156 131t33 488q-94 -41 -168 -43
q-223 27 -348 165t-125 339q0 104 42 189q73 148 257 222q78 31 168 42t251 21t189 13q12 -16 0 -41q-113 -14 -134 -20t-33 -22q-31 -39 -27 -361v-329z" />
    <glyph glyph-name="periodcentered" unicode="&#xb7;" horiz-adv-x="364" 
d="M183 485q34 1 65 -27t31 -72t-29 -73t-68 -29q-40 0 -68 28t-28 69t31 76q32 28 66 28z" />
    <glyph glyph-name="cedilla" unicode="&#xb8;" horiz-adv-x="813" 
d="M549 -226q0 -58 -70 -109q-71 -50 -129 -50t-88 53q-4 18 6 29q58 -31 106 -31q86 0 89 64q0 68 -131 120q-2 10 0 16t49 64q47 60 61 76h39l-57 -78q49 -28 87 -62t38 -92z" />
    <glyph glyph-name="one.k" unicode="&#xb9;" horiz-adv-x="610" 
d="M117 794q0 12 2 15q41 4 67 9q26 6 36 22q9 16 14 55q4 131 4 310t-4 208t-26 34t-75 9q-8 8 2 27q139 12 213 55q12 0 12 -2q-6 -70 -6 -304t4 -302q4 -70 12 -85t26 -21q17 -6 83 -15q2 -2 1 -14t-5 -15l-184 4l-174 -6q-2 4 -2 16z" />
    <glyph glyph-name="ordmasculine" unicode="&#xba;" horiz-adv-x="630" 
d="M291 969q-57 0 -94 -49t-37 -159q0 -109 49 -183t131 -74q133 0 133 198q0 117 -48 192t-134 75zM346 1006q104 0 170 -75t66 -188q0 -160 -119 -233q-68 -47 -154 -47q-131 0 -197 79q-66 80 -65 208q0 128 111 204q84 52 188 52z" />
    <glyph glyph-name="guillemotright" unicode="&#xbb;" horiz-adv-x="1153" 
d="M504 385q-53 29 -175 118t-169 136q-8 23 -5 35t7 12q43 -38 224 -148t269 -145q0 -12 -10 -22q-139 -59 -301 -155t-211 -136q-6 0 -6 8l16 37q98 88 361 252q4 4 0 8zM545 670q0 4 4 4q41 -40 215 -144t258 -137q0 -10 -8 -22q-133 -53 -286 -145t-206 -136q-2 0 -2 2
l-2 4q8 33 14 39q39 39 150 118t186 124q6 6 0 8q-50 27 -162 112t-159 130l-2 10v33z" />
    <glyph glyph-name="onequarter" unicode="&#xbc;" horiz-adv-x="1435" 
d="M838 258l229 -2l8 6l2 322l-4 2q-25 -29 -121 -160t-114 -162v-6zM1069 190h-145l-174 -2q0 18 8 43q59 70 198 255t170 231q8 8 58 8v-461q0 -4 18 -4t76 1q57 1 61 1q-6 -19 -14 -72q-44 0 -137 3q-4 0 -4 -7l2 -239q-53 0 -115 -15l4 252q0 6 -6 6zM680 604
q393 678 397 683q3 5 23 4t26 -3v-6q-14 -20 -401 -690t-416 -715l-8 -2q-25 29 -19 40t398 689zM111 492q0 12 2 14q41 4 67 9t34 21q9 16 13 56q4 131 4 310t-4 208t-26 34t-74 9q-8 8 2 27q137 12 215 55q10 0 10 -2q-4 -94 -4 -340q0 -247 3 -305t42 -70q15 -4 78 -12
q2 -2 1 -14t-5 -15l-184 4l-172 -6q-2 5 -2 17z" />
    <glyph glyph-name="onehalf" unicode="&#xbd;" horiz-adv-x="1435" 
d="M984 635q-81 0 -157 -88q-4 0 -12 9t-6 11q41 66 106 114q66 48 147 48t138 -61t57 -158q0 -127 -141 -272q-58 -61 -93 -96q-36 -34 -56 -54q0 -4 2 -6q39 -4 134 -6t132 2q53 4 98 106q5 2 15 -2t12 -8q-8 -37 -28 -100t-36 -82q-6 -16 -59 -21l-340 6q-66 0 -82 -2
q-2 1 -3 11t1 14q42 36 69 60t49 43t33 31t30 34q146 157 147 299q0 68 -38 118t-119 50zM655 604q394 678 398 683t23 4t26 -3v-6q-14 -20 -402 -690t-415 -715l-9 -2q-26 29 -20 40t399 689zM100 490q0 11 2 16q41 4 68 9t39 27t12 280t-4 288q-4 29 -27 35t-71 8
q-2 4 -2 13t4 14q135 10 213 55q12 0 12 -2q-6 -69 -6 -303t3 -317t42 -95q15 -4 78 -12q2 -2 1 -14t-5 -15l-183 4l-174 -6q-2 4 -2 15z" />
    <glyph glyph-name="threequarters" unicode="&#xbe;" horiz-adv-x="1435" 
d="M854 258l231 -2l7 6l2 322l-4 2q-25 -29 -121 -160t-115 -162v-6zM1343 190q-44 0 -137 3q-4 0 -4 -7l2 -239q-49 0 -117 -15l5 252q0 6 -7 6h-143q-59 0 -117 -2h-57q0 18 8 43q264 336 369 486q8 8 55 8q0 -465 4 -465q35 0 92 1t60 1q-13 -33 -13 -72zM719 604
q393 678 397 683t24 4t25 -3v-6q-14 -20 -401 -690t-416 -715l-8 -2q-25 29 -23 33q8 18 402 696zM358 1237q68 0 117 -47t51 -117q0 -106 -116 -174q-4 -2 0 -6q188 -49 188 -197q0 -123 -123 -202q-86 -62 -210 -62t-152 66q-16 41 -17 100q2 4 12 7t11 1q29 -72 67 -96
q51 -37 124 -37t120 42t47 123t-46 134t-138 53q-20 0 -49 -6q-2 3 5 19t11 20q160 33 160 162q0 55 -36 93t-104 38t-139 -70q-4 1 -10 9t-4 12q41 55 103 95q60 40 128 40z" />
    <glyph glyph-name="questiondown" unicode="&#xbf;" horiz-adv-x="638" 
d="M343 618q-35 0 -65 28t-30 70t26 70t69 27q42 0 69 -27q26 -28 26 -68t-28 -73q-31 -27 -67 -27zM367 240q0 22 -22 58t-60 67q-9 9 9 31t52 34t66 -1q30 -13 56 -50t26 -77t-16 -54t-113 -92q-98 -78 -125 -103q-58 -51 -58 -117t63 -143q63 -76 204 -109l26 -6
q14 -4 19 -6q33 -6 32 -24q0 -39 -45 -88q-14 -23 -47 -23q-102 0 -213 78q-66 47 -103 117q-38 70 -38 150t34 118q34 37 122 108t106 89q25 21 25 43z" />
    <glyph glyph-name="Agrave" unicode="&#xc0;" 
d="M633 1305q-5 0 -145 83t-154 95q-6 12 3 22t49 34t56 26q16 -13 100 -105t113 -131q2 -4 -7 -14t-15 -10zM538 586q136 0 150 2q8 0 4 12q-92 297 -147 467q-8 0 -8 -2q-16 -43 -160 -465q0 -10 13 -12q12 -2 148 -2zM926 0q-120 0 -195 -6q-2 4 -2 15t2 18q79 12 107 24
t16 55t-133 400q-13 10 -25 11q-11 1 -163 1q-151 0 -169 -1t-22 -15q-121 -326 -125 -360t-3 -50q2 -37 57 -49q54 -12 91 -16q2 -5 2 -17t-6 -16l-233 6l-193 -6q-4 2 -4 16t4 17q106 14 143 42q36 28 89 156t346 928q20 61 27 98l57 -2h27l28 2q14 -58 166 -517
q151 -458 191 -554t68 -119q30 -23 130 -34q4 -3 2 -17t-6 -16q-154 6 -274 6z" />
    <glyph glyph-name="Aacute" unicode="&#xc1;" 
d="M846 1505q0 -6 -9 -16t-145 -96t-143 -86q-8 0 -15 9t-6 13q16 25 104 123t109 109q17 -3 55 -19t44 -24t6 -13zM538 586q136 0 150 2q8 0 4 12q-92 297 -147 467q-8 0 -8 -2q-16 -43 -160 -465q0 -10 13 -12q12 -2 148 -2zM926 0q-120 0 -195 -6q-2 4 -2 15t2 18
q79 12 107 24t16 55t-133 400q-13 10 -25 11q-11 1 -163 1q-151 0 -169 -1t-22 -15q-121 -326 -125 -360t-3 -50q2 -37 57 -49q54 -12 91 -16q2 -5 2 -17t-6 -16l-233 6l-193 -6q-4 2 -4 16t4 17q106 14 143 42q36 28 89 156t346 928q20 61 27 98l57 -2h27l28 2
q14 -58 166 -517q151 -458 191 -554t68 -119q30 -23 130 -34q4 -3 2 -17t-6 -16q-154 6 -274 6z" />
    <glyph glyph-name="Acircumflex" unicode="&#xc2;" 
d="M352 1292q-8 0 -13 10t-3 17q178 140 235 197q8 8 25 8q16 -18 116 -98t136 -107q0 -6 -6 -16q-6 -11 -12 -11t-110 44q-103 44 -128 59q-14 4 -21 0q-211 -103 -219 -103zM538 586q136 0 150 2q8 0 4 12q-92 297 -147 467q-8 0 -8 -2q-16 -43 -160 -465q0 -10 13 -12
q12 -2 148 -2zM926 0q-120 0 -195 -6q-2 4 -2 15t2 18q79 12 107 24t16 55t-133 400q-13 10 -25 11q-11 1 -163 1q-151 0 -169 -1t-22 -15q-121 -326 -125 -360t-3 -50q2 -37 57 -49q54 -12 91 -16q2 -5 2 -17t-6 -16l-233 6l-193 -6q-4 2 -4 16t4 17q106 14 143 42
q36 28 89 156t346 928q20 61 27 98l57 -2h27l28 2q14 -58 166 -517q151 -458 191 -554t68 -119q30 -23 130 -34q4 -3 2 -17t-6 -16q-154 6 -274 6z" />
    <glyph glyph-name="Atilde" unicode="&#xc3;" 
d="M713 1421q68 0 133 60l6 -6q6 -16 4 -23q-23 -39 -83 -77t-98 -38q-37 -1 -113 19t-97 20q-57 0 -119 -51q-6 -6 -10 11q-4 16 -2 18q18 26 78 66t102 40q44 0 110 -20t89 -19zM538 586q136 0 150 2q8 0 4 12q-92 297 -147 467q-8 0 -8 -2q-16 -43 -160 -465
q0 -10 13 -12q12 -2 148 -2zM926 0q-120 0 -195 -6q-2 4 -2 15t2 18q79 12 107 24t16 55t-133 400q-13 10 -25 11q-11 1 -163 1q-151 0 -169 -1t-22 -15q-121 -326 -125 -360t-3 -50q2 -37 57 -49q54 -12 91 -16q2 -5 2 -17t-6 -16l-233 6l-193 -6q-4 2 -4 16t4 17
q106 14 143 42q36 28 89 156t346 928q20 61 27 98l57 -2h27l28 2q14 -58 166 -517q151 -458 191 -554t68 -119q30 -23 130 -34q4 -3 2 -17t-6 -16q-154 6 -274 6z" />
    <glyph glyph-name="Adieresis" unicode="&#xc4;" 
d="M821 1398q0 -60 -37 -75q-8 -4 -34 -7t-35 1q-39 18 -39 67q-4 31 14 53t68 21q63 0 63 -60zM512 1398q0 -60 -37 -75q-8 -4 -34 -7t-35 1q-39 18 -39 67q-3 31 15 53t67 21q63 0 63 -60zM538 586q136 0 150 2q8 0 4 12q-92 297 -147 467q-8 0 -8 -2q-16 -43 -160 -465
q0 -10 13 -12q12 -2 148 -2zM926 0q-120 0 -195 -6q-2 4 -2 15t2 18q79 12 107 24t16 55t-133 400q-13 10 -25 11q-11 1 -163 1q-151 0 -169 -1t-22 -15q-121 -326 -125 -360t-3 -50q2 -37 57 -49q54 -12 91 -16q2 -5 2 -17t-6 -16l-233 6l-193 -6q-4 2 -4 16t4 17
q106 14 143 42q36 28 89 156t346 928q20 61 27 98l57 -2h27l28 2q14 -58 166 -517q151 -458 191 -554t68 -119q30 -23 130 -34q4 -3 2 -17t-6 -16q-154 6 -274 6z" />
    <glyph glyph-name="Aring" unicode="&#xc5;" 
d="M595 1481q-93 0 -93 -74q0 -33 28 -51t68 -18q39 0 65 18q26 20 25 49q0 76 -93 76zM459 1404q-1 62 35 99t100 37t101 -37q36 -37 36 -94t-38 -93t-93 -36t-98 31t-43 93zM538 586q136 0 150 2q8 0 4 12q-92 297 -147 467q-8 0 -8 -2q-16 -43 -160 -465q0 -10 13 -12
q12 -2 148 -2zM926 0q-120 0 -195 -6q-2 4 -2 15t2 18q79 12 107 24t16 55t-133 400q-13 10 -25 11q-11 1 -163 1q-151 0 -169 -1t-22 -15q-121 -326 -125 -360t-3 -50q2 -37 57 -49q54 -12 91 -16q2 -5 2 -17t-6 -16l-233 6l-193 -6q-4 2 -4 16t4 17q106 14 143 42
q36 28 89 156t346 928q20 61 27 98l57 -2h27l28 2q14 -58 166 -517q151 -458 191 -554t68 -119q30 -23 130 -34q4 -3 2 -17t-6 -16q-154 6 -274 6z" />
    <glyph glyph-name="AE" unicode="&#xc6;" horiz-adv-x="1595" 
d="M622 627q128 0 140 1t12 11q-25 352 -41 545q-7 7 -12 2q-244 -520 -254 -545q0 -10 13 -12q14 -2 142 -2zM1198 1249q166 0 221 8q6 -4 6 -6q-23 -88 -36 -270q-3 -4 -17 -4t-18 2q-14 156 -62 195q-20 16 -66 18t-167 2t-158 -2q-12 -4 -12 -23l43 -526q0 -6 5 -11
t9 -5q220 0 274 3t71 16t31 51t19 83q3 2 19 2t18 -4q-8 -139 -8 -192l6 -178q-4 -2 -18 -2t-19 2q-8 40 -22 84q-19 60 -79 64q-60 5 -290 5q-8 0 -8 -14q30 -428 59 -463q14 -16 52 -22t247 -5q94 0 144 52t96 188q6 2 20 -2t15 -8q0 -29 -26 -129t-48 -146
q-12 -18 -82 -18l-508 6l-280 -6q-6 2 -6 15t4 18q84 6 125 17t51 36q10 24 10 64t-31 403q-4 8 -17 9t-151 1h-174q-6 0 -22 -16q-14 -31 -95 -199t-96 -215q-25 -72 49 -86q53 -10 93 -14q2 -5 2 -17t-4 -16l-234 6l-192 -6q-2 4 -2 17t2 16q104 14 143 42t92 134
q254 485 475 968q10 18 -6 25q-27 6 -92 16l-66 13q-4 4 -1 16t8 14l292 -6h412z" />
    <glyph glyph-name="Ccedilla" unicode="&#xc7;" horiz-adv-x="1312" 
d="M770 1239q-227 0 -356 -155q-129 -154 -129 -436t148 -452t407 -171q158 -1 234 73t143 197q4 2 16 -4t14 -12q-20 -78 -69 -166t-84 -107q-129 -39 -275 -43l-35 -51q66 -33 88 -55q43 -35 43 -102q-1 -67 -73 -119t-134 -52t-90 56q-2 4 0 17t5 15q55 -30 129 -30
t73 61q0 31 -33 66q-34 35 -110 59q0 10 2 16q51 72 88 119q-322 8 -497 182t-175 492q0 176 80 322q80 147 246 237t414 90q94 0 173 -9t132 -15t65 -9q-29 -143 -24 -297q-4 -4 -20 -6t-17 2q-16 115 -44 166t-79 76q-90 45 -256 45z" />
    <glyph glyph-name="Egrave" unicode="&#xc8;" horiz-adv-x="1034" 
d="M602 1319q-6 0 -146 83t-153 95q-5 10 3 22q10 11 50 35t56 25q18 -10 100 -102t113 -134q3 -4 -7 -14t-16 -10zM682 1249q164 0 215 8l6 -6q-20 -76 -37 -268q-4 -4 -17 -4t-18 2q-11 149 -55 188q-20 17 -68 21t-166 4q-116 0 -145 -4q-20 -2 -20 -29q-2 -63 -4 -253
t-1 -212q1 -24 9 -24q41 -2 156 -2t164 4t71 39q21 35 33 104q4 2 19 2t18 -2q-14 -86 -15 -184l4 -170q-4 -6 -18 -6t-16 4q-6 43 -15 71q-16 66 -82 72q-178 9 -317 2q-10 0 -12 -56t6 -413q2 -63 47 -71q61 -12 210 -13t186 25q73 45 145 217q2 2 14 -4t14 -10
q-6 -43 -36 -137t-46 -128q-10 -16 -28 -19t-92 -3l-498 6l-281 -6q-4 2 -4 15t4 18q102 8 134 17t48 33q15 25 19 103t4 459t-4 451t-15 90t-48 28q-30 11 -93 17q-4 4 -3 15t5 15l232 -6h391z" />
    <glyph glyph-name="Eacute" unicode="&#xc9;" horiz-adv-x="1034" 
d="M768 1520q0 -6 -9 -16t-145 -97q-136 -86 -143 -86q-8 0 -15 10t-5 15q17 25 105 121t108 108q18 -3 54 -19t43 -23t7 -13zM682 1249q164 0 215 8l6 -6q-20 -76 -37 -268q-4 -4 -17 -4t-18 2q-11 149 -55 188q-20 17 -68 21t-166 4q-116 0 -145 -4q-20 -2 -20 -29
q-2 -63 -4 -253t-1 -212q1 -24 9 -24q41 -2 156 -2t164 4t71 39q21 35 33 104q4 2 19 2t18 -2q-14 -86 -15 -184l4 -170q-4 -6 -18 -6t-16 4q-6 43 -15 71q-16 66 -82 72q-178 9 -317 2q-10 0 -12 -56t6 -413q2 -63 47 -71q61 -12 210 -13t186 25q73 45 145 217q2 2 14 -4
t14 -10q-6 -43 -36 -137t-46 -128q-10 -16 -28 -19t-92 -3l-498 6l-281 -6q-4 2 -4 15t4 18q102 8 134 17t48 33q15 25 19 103t4 459t-4 451t-15 90t-48 28q-30 11 -93 17q-4 4 -3 15t5 15l232 -6h391z" />
    <glyph glyph-name="Ecircumflex" unicode="&#xca;" horiz-adv-x="1034" 
d="M765 1319q-7 0 -109 44t-122 54t-42 -2t-110 -54q-89 -42 -95 -42q-7 0 -13 9t-4 18q175 135 238 196q8 8 24 8q16 -18 116 -98t136 -106q0 -6 -6 -16t-13 -11zM682 1249q164 0 215 8l6 -6q-20 -76 -37 -268q-4 -4 -17 -4t-18 2q-11 149 -55 188q-20 17 -68 21t-166 4
q-116 0 -145 -4q-20 -2 -20 -29q-2 -63 -4 -253t-1 -212q1 -24 9 -24q41 -2 156 -2t164 4t71 39q21 35 33 104q4 2 19 2t18 -2q-14 -86 -15 -184l4 -170q-4 -6 -18 -6t-16 4q-6 43 -15 71q-16 66 -82 72q-178 9 -317 2q-10 0 -12 -56t6 -413q2 -63 47 -71q61 -12 210 -13
t186 25q73 45 145 217q2 2 14 -4t14 -10q-6 -43 -36 -137t-46 -128q-10 -16 -28 -19t-92 -3l-498 6l-281 -6q-4 2 -4 15t4 18q102 8 134 17t48 33q15 25 19 103t4 459t-4 451t-15 90t-48 28q-30 11 -93 17q-4 4 -3 15t5 15l232 -6h391z" />
    <glyph glyph-name="Edieresis" unicode="&#xcb;" horiz-adv-x="1034" 
d="M696 1487q64 -1 64 -61t-37 -74q-8 -4 -34 -7q-75 -9 -75 68q-4 27 15 51t67 23zM387 1487q64 -1 64 -61t-37 -74q-8 -4 -34 -7q-71 -8 -77 68q0 29 8 45q29 29 76 29zM682 1249q164 0 215 8l6 -6q-20 -76 -37 -268q-4 -4 -17 -4t-18 2q-11 149 -55 188q-20 17 -68 21
t-166 4q-116 0 -145 -4q-20 -2 -20 -29q-2 -63 -4 -253t-1 -212q1 -24 9 -24q41 -2 156 -2t164 4t71 39q21 35 33 104q4 2 19 2t18 -2q-14 -86 -15 -184l4 -170q-4 -6 -18 -6t-16 4q-6 43 -15 71q-16 66 -82 72q-178 9 -317 2q-10 0 -12 -56t6 -413q2 -63 47 -71
q61 -12 210 -13t186 25q73 45 145 217q2 2 14 -4t14 -10q-6 -43 -36 -137t-46 -128q-10 -16 -28 -19t-92 -3l-498 6l-281 -6q-4 2 -4 15t4 18q102 8 134 17t48 33q15 25 19 103t4 459t-4 451t-15 90t-48 28q-30 11 -93 17q-4 4 -3 15t5 15l232 -6h391z" />
    <glyph glyph-name="Igrave" unicode="&#xcc;" horiz-adv-x="589" 
d="M347 1309q-5 0 -144 83t-149 93t-3 24q13 12 53 36t56 26q16 -11 99 -105t114 -133q3 -4 -9 -14t-17 -10zM51 1240q0 11 4 15l248 -6l215 6q10 -16 2 -30q-62 -8 -90 -16q-29 -9 -38 -31q-19 -48 -19 -540t7 -523q14 -60 60 -72q27 -8 101 -16q4 -5 3 -17t-5 -16l-222 6
l-260 -6q-12 12 0 33q120 10 139 43q11 20 16 86t5 462q0 394 -4 488l-4 31q0 44 -28 60q-28 17 -126 28q-4 4 -4 15z" />
    <glyph glyph-name="Iacute" unicode="&#xcd;" horiz-adv-x="589" 
d="M545 1517q0 -5 -9 -15q-8 -10 -144 -98q-136 -87 -144 -87t-16 10q-7 10 -5 14q17 25 105 121t108 109q20 -3 56 -19t43 -23q6 -7 6 -12zM51 1240q0 11 4 15l248 -6l215 6q10 -16 2 -30q-62 -8 -90 -16q-29 -9 -38 -31q-19 -48 -19 -540t7 -523q14 -60 60 -72
q27 -8 101 -16q4 -5 3 -17t-5 -16l-222 6l-260 -6q-12 12 0 33q120 10 139 43q11 20 16 86t5 462q0 394 -4 488l-4 31q0 44 -28 60q-28 17 -126 28q-4 4 -4 15z" />
    <glyph glyph-name="Icircumflex" unicode="&#xce;" horiz-adv-x="589" 
d="M537 1327q-5 0 -109 44t-129 59q-15 4 -33 -7t-109 -53t-97 -43q-6 0 -13 9q-6 9 -4 18q179 139 238 198q2 6 22 7q19 -17 117 -99t135 -106q0 -6 -6 -16t-12 -11zM51 1240q0 11 4 15l248 -6l215 6q10 -16 2 -30q-62 -8 -90 -16q-29 -9 -38 -31q-19 -48 -19 -540t7 -523
q14 -60 60 -72q27 -8 101 -16q4 -5 3 -17t-5 -16l-222 6l-260 -6q-12 12 0 33q120 10 139 43q11 20 16 86t5 462q0 394 -4 488l-4 31q0 44 -28 60q-28 17 -126 28q-4 4 -4 15z" />
    <glyph glyph-name="Idieresis" unicode="&#xcf;" horiz-adv-x="589" 
d="M522 1431q0 -58 -39 -77q-9 -4 -33 -6q-70 -6 -75 67q0 33 10 45q21 29 79 29t58 -58zM150 1489q63 0 63 -58t-39 -77q-8 -4 -34 -6t-34 2q-40 16 -40 56t8 54q25 29 76 29zM51 1240q0 11 4 15l248 -6l215 6q10 -16 2 -30q-62 -8 -90 -16q-29 -9 -38 -31
q-19 -48 -19 -540t7 -523q14 -60 60 -72q27 -8 101 -16q4 -5 3 -17t-5 -16l-222 6l-260 -6q-12 12 0 33q120 10 139 43q11 20 16 86t5 462q0 394 -4 488l-4 31q0 44 -28 60q-28 17 -126 28q-4 4 -4 15z" />
    <glyph glyph-name="Eth" unicode="&#xd0;" horiz-adv-x="1398" 
d="M665 43q182 0 296 113q158 162 157 465q0 338 -227 499q-127 88 -381 88q-78 0 -109 -10q-20 -16 -23 -58t-3 -468h166l213 2q0 -29 -9 -53l-370 2q0 -400 4 -456t41 -81q63 -43 245 -43zM31 10q0 14 4 17q112 11 132 25q40 26 44 93q6 117 6 478q-147 -4 -174 -5
q0 37 10 54h164q0 350 -4 416t-14 87q-17 37 -150 50q-2 2 0 15t4 15q147 -6 236 -6l385 8q274 0 434 -139q190 -166 190 -465q0 -354 -270 -536q-190 -131 -461 -131l-385 8h-147q-4 2 -4 16z" />
    <glyph glyph-name="Ntilde" unicode="&#xd1;" horiz-adv-x="1409" 
d="M844 1446q70 0 135 59l8 -24v-4q-23 -39 -82 -77t-99 -38t-114 19t-94 20q-59 0 -119 -51q-2 -2 -11 10t-3 18q23 29 80 68t95 39q38 1 108 -19t96 -20zM954 1240q0 11 4 15l238 -6l190 6q2 -2 2 -14t-2 -16q-43 -8 -79 -17q-63 -20 -69 -101t-7 -220q-2 -139 -3 -341
t-2 -314t3 -242q-55 4 -119 0q-77 119 -443 573q-366 455 -371 462t-8 6t-4 -81t-1 -383t3 -381t22 -106q18 -28 54 -36q36 -9 113 -17q4 -3 3 -17t-5 -16l-229 6l-209 -6q-2 2 -2 16t2 17q63 6 95 15t51 37q19 29 27 153t15 839q0 57 -42 94t-79 45q-37 9 -86 15q-2 2 0 15
t4 15l209 -6q74 0 93 2q14 -33 77 -108q526 -657 756 -928q4 2 6 4q0 784 -6 853q-6 68 -20 94q-15 26 -51 36t-128 23q-2 4 -2 15z" />
    <glyph glyph-name="Ograve" unicode="&#xd2;" horiz-adv-x="1474" 
d="M794 1352q-4 0 -144 83t-151 94t0 23t51 35t56 25q16 -10 96 -100t117 -136q4 -4 -8 -14t-17 -10zM794 27q146 0 234 77q174 150 174 478q0 168 -58 320t-177 237q-117 90 -275 90q-104 0 -196 -51q-109 -66 -162 -198t-53 -300t63 -327t183 -243q121 -84 267 -83z
M738 -37q-146 0 -265 52t-199 139q-174 193 -174 481q0 211 113 381q86 122 236 196t307 74q294 0 456 -185t162 -439t-121 -431q-88 -129 -228 -199q-141 -70 -287 -69z" />
    <glyph glyph-name="Oacute" unicode="&#xd3;" horiz-adv-x="1474" 
d="M963 1550q0 -6 -9 -16q-8 -10 -144 -96t-144 -86t-16 9q-7 9 -5 13q25 32 110 126t105 106q16 -2 60 -21q44 -20 43 -35zM794 27q146 0 234 77q174 150 174 478q0 168 -58 320t-177 237q-117 90 -275 90q-104 0 -196 -51q-109 -66 -162 -198t-53 -300t63 -327t183 -243
q121 -84 267 -83zM738 -37q-146 0 -265 52t-199 139q-174 193 -174 481q0 211 113 381q86 122 236 196t307 74q294 0 456 -185t162 -439t-121 -431q-88 -129 -228 -199q-141 -70 -287 -69z" />
    <glyph glyph-name="Ocircumflex" unicode="&#xd4;" horiz-adv-x="1474" 
d="M502 1343q-8 1 -14 11t-5 18q39 28 124 98t103 88t35 19q17 -20 115 -100t137 -105q0 -6 -6 -17t-12 -11q-7 0 -111 44t-122 54t-25 4q-211 -103 -219 -103zM794 27q146 0 234 77q174 150 174 478q0 168 -58 320t-177 237q-117 90 -275 90q-104 0 -196 -51
q-109 -66 -162 -198t-53 -300t63 -327t183 -243q121 -84 267 -83zM738 -37q-146 0 -265 52t-199 139q-174 193 -174 481q0 211 113 381q86 122 236 196t307 74q294 0 456 -185t162 -439t-121 -431q-88 -129 -228 -199q-141 -70 -287 -69z" />
    <glyph glyph-name="Otilde" unicode="&#xd5;" horiz-adv-x="1474" 
d="M852 1473q68 0 133 59l6 -6q6 -16 4 -23q-23 -39 -83 -77t-98 -38t-114 20q-76 19 -96 19q-57 0 -119 -51q-6 -6 -10 11q-4 16 -2 18q17 27 77 67t97 39q37 0 109 -19t96 -19zM794 27q146 0 234 77q174 150 174 478q0 168 -58 320t-177 237q-117 90 -275 90
q-104 0 -196 -51q-109 -66 -162 -198t-53 -300t63 -327t183 -243q121 -84 267 -83zM738 -37q-146 0 -265 52t-199 139q-174 193 -174 481q0 211 113 381q86 122 236 196t307 74q294 0 456 -185t162 -439t-121 -431q-88 -129 -228 -199q-141 -70 -287 -69z" />
    <glyph glyph-name="Odieresis" unicode="&#xd6;" horiz-adv-x="1474" 
d="M963 1460q0 -58 -37 -78q-43 -16 -70 -4q-39 16 -39 66q-4 31 8 45q20 29 79 29t59 -58zM590 1518q63 0 63 -58t-37 -78q-42 -16 -74 -2t-34 54t6 55q25 29 76 29zM794 27q146 0 234 77q174 150 174 478q0 168 -58 320t-177 237q-117 90 -275 90q-104 0 -196 -51
q-109 -66 -162 -198t-53 -300t63 -327t183 -243q121 -84 267 -83zM738 -37q-146 0 -265 52t-199 139q-174 193 -174 481q0 211 113 381q86 122 236 196t307 74q294 0 456 -185t162 -439t-121 -431q-88 -129 -228 -199q-141 -70 -287 -69z" />
    <glyph glyph-name="multiply" unicode="&#xd7;" horiz-adv-x="942" 
d="M754 813q14 18 100 18q8 -8 4 -12q-80 -104 -332 -383v-12q227 -256 324 -336q0 -14 -8 -17t-58 2t-61 15q-55 41 -264 266q-6 6 -10 2q-74 -86 -155 -171t-95 -95q-39 -25 -111 -24q-8 4 -4 14q23 18 149 153q127 135 162 177q6 10 0 16q-217 242 -301 346q0 10 19 37
q18 27 26 35q10 6 15 2q10 -16 134 -160t181 -201q203 219 285 328z" />
    <glyph glyph-name="Oslash" unicode="&#xd8;" horiz-adv-x="1474" 
d="M1204 582q0 278 -131 456l-633 -856q131 -160 357 -159q133 0 225 77q182 154 182 482zM283 682q0 -264 125 -457l634 856q-139 147 -342 148q-113 0 -196 -51q-111 -68 -166 -199t-55 -297zM774 1286q175 0 348 -102l84 114q4 4 24 0t25 -8l-2 -8l-96 -131
q217 -176 217 -504q0 -240 -121 -416q-88 -129 -228 -199t-300 -69q-205 0 -365 115l-98 -135q-2 -2 -20 4t-25 12v8l105 142q-221 195 -222 526q0 211 113 381q86 122 236 196t325 74z" />
    <glyph glyph-name="Ugrave" unicode="&#xd9;" horiz-adv-x="1355" 
d="M763 1315q-5 0 -145 84t-148 91q-7 7 -7 14t2 12q12 12 52 36t56 25q15 -11 99 -105t114 -133q2 -3 -8 -13t-15 -11zM1343 1237q0 -12 -4 -14q-55 -7 -85 -17t-44 -41t-16 -116q-10 -578 -31 -697q-57 -389 -485 -389t-473 369q-12 82 -12 397t-3 369q0 92 -51 108
q-20 9 -98 19q-4 4 -4 15t4 15l235 -6l222 6q2 -2 2 -14t-2 -16q-78 -15 -96 -21q-39 -11 -44 -110q-12 -311 0 -629q10 -186 68 -268q96 -150 326 -150q158 0 250 84t106 299q16 311 4 629q-2 85 -22 113t-53 35t-101 16q-2 4 -2 15t4 15l215 -4l186 4q4 -4 4 -16z" />
    <glyph glyph-name="Uacute" unicode="&#xda;" horiz-adv-x="1355" 
d="M965 1516q0 -6 -9 -16q-8 -10 -144 -97q-136 -86 -144 -86t-16 9q-7 9 -5 13q17 25 105 123t108 109q18 -3 55 -19t43 -23t7 -13zM1343 1237q0 -12 -4 -14q-55 -7 -85 -17t-44 -41t-16 -116q-10 -578 -31 -697q-57 -389 -485 -389t-473 369q-12 82 -12 397t-3 369
q0 92 -51 108q-20 9 -98 19q-4 4 -4 15t4 15l235 -6l222 6q2 -2 2 -14t-2 -16q-78 -15 -96 -21q-39 -11 -44 -110q-12 -311 0 -629q10 -186 68 -268q96 -150 326 -150q158 0 250 84t106 299q16 311 4 629q-2 85 -22 113t-53 35t-101 16q-2 4 -2 15t4 15l215 -4l186 4
q4 -4 4 -16z" />
    <glyph glyph-name="Ucircumflex" unicode="&#xdb;" horiz-adv-x="1355" 
d="M959 1331q-5 0 -109 44t-129 59q-14 4 -36 -7q-192 -96 -202 -96t-15 10t-3 17q161 126 235 196q8 8 25 9q15 -19 115 -99t137 -106q0 -6 -6 -16t-12 -11zM1343 1237q0 -12 -4 -14q-55 -7 -85 -17t-44 -41t-16 -116q-10 -578 -31 -697q-57 -389 -485 -389t-473 369
q-12 82 -12 397t-3 369q0 92 -51 108q-20 9 -98 19q-4 4 -4 15t4 15l235 -6l222 6q2 -2 2 -14t-2 -16q-78 -15 -96 -21q-39 -11 -44 -110q-12 -311 0 -629q10 -186 68 -268q96 -150 326 -150q158 0 250 84t106 299q16 311 4 629q-2 85 -22 113t-53 35t-101 16q-2 4 -2 15
t4 15l215 -4l186 4q4 -4 4 -16z" />
    <glyph glyph-name="Udieresis" unicode="&#xdc;" horiz-adv-x="1355" 
d="M948 1441q0 -58 -37 -77q-43 -16 -69 -4q-39 16 -39 65q-4 31 8 45q21 29 79 29t58 -58zM575 1499q64 0 64 -58t-37 -77q-43 -16 -75 -2q-31 14 -33 54t6 54q25 29 75 29zM1343 1237q0 -12 -4 -14q-55 -7 -85 -17t-44 -41t-16 -116q-10 -578 -31 -697q-57 -389 -485 -389
t-473 369q-12 82 -12 397t-3 369q0 92 -51 108q-20 9 -98 19q-4 4 -4 15t4 15l235 -6l222 6q2 -2 2 -14t-2 -16q-78 -15 -96 -21q-39 -11 -44 -110q-12 -311 0 -629q10 -186 68 -268q96 -150 326 -150q158 0 250 84t106 299q16 311 4 629q-2 85 -22 113t-53 35t-101 16
q-2 4 -2 15t4 15l215 -4l186 4q4 -4 4 -16z" />
    <glyph glyph-name="Yacute" unicode="&#xdd;" horiz-adv-x="1097" 
d="M856 1512q0 -6 -9 -17q-9 -10 -145 -96t-143 -86q-8 0 -15 9t-5 13q17 25 105 123t108 109q18 -3 55 -19t43 -23t6 -13zM-33 1240q0 11 4 15l250 -6q119 0 199 6q6 -2 6 -15t-4 -15q-14 -3 -62 -15t-22 -69q133 -274 270 -516h8q203 352 261 491q32 79 -48 92
q-14 4 -41 8t-45 9q-4 4 -3 16t8 14q160 -6 204 -6l203 6q4 -2 4 -14t-4 -16q-30 0 -84 -17q-45 -10 -72 -38t-59 -85q-215 -358 -285 -512q-16 -29 -16 -69q6 -159 6 -328q2 -68 15 -98q12 -30 54 -40q42 -9 99 -15q2 -3 0 -15t-4 -14l-258 6l-254 -6q-4 4 -4 14t4 15
q57 4 105 14t62 39q13 29 15 84q0 211 2 288t-14 109q-79 180 -193 382q-114 203 -143 231t-57 36t-42 10q-13 2 -31 5q-18 2 -32 4q-2 4 -2 15z" />
    <glyph glyph-name="Thorn" unicode="&#xde;" horiz-adv-x="1036" 
d="M47 10q0 14 4 17q104 12 121 23q39 25 42 104q3 80 3 480t-2 456t-15 82q-13 28 -49 37t-90 16q-2 4 -1 16t6 14l227 -6l215 6q4 -2 4 -14t-4 -16q-8 -2 -55 -9t-61 -25q-14 -17 -17 -83l-2 -129q0 -10 10 -10q160 6 201 6q180 0 272 -72q113 -88 113 -252
q0 -213 -187 -313q-100 -53 -204 -53t-142 14q-10 9 -10 21t4 16q45 -8 84 -8q285 0 285 290q0 311 -336 312q-49 0 -67 -7t-23 -30v-440q0 -209 3 -285t20 -98t52 -28q34 -7 64 -10t41 -5q2 -5 2 -17t-4 -16l-248 6l-252 -6q-4 2 -4 16z" />
    <glyph glyph-name="germandbls" unicode="&#xdf;" horiz-adv-x="966" 
d="M25 9q0 13 4 18q33 2 63 10q55 14 55 80l3 592l-105 6q-5 20 10 39q57 6 97 32q0 221 48 334t150 197q50 41 112 67t109 25q111 0 184 -79t72 -206q0 -68 -43 -139q-64 -93 -122 -157t-58 -82t26 -44t44 -42l54 -48q36 -31 65 -57q104 -96 104 -213t-67 -201
q-134 -168 -289 -168q-35 -1 -70 13t-47 34q-4 35 10 103q4 10 8 12q86 -78 181 -78q156 0 155 174q0 115 -123 238q-39 35 -105 88t-74 63q-9 10 -8 45q1 34 9 37q66 53 125 121q104 115 105 262q-1 99 -59 177t-137 78t-121 -43q-42 -42 -70 -173t-30 -446q-3 -315 5 -553
q2 -70 43 -86q12 -4 63 -12q4 -5 3 -17t-5 -16l-180 6q-37 0 -190 -6q-4 2 -4 15z" />
    <glyph glyph-name="agrave" unicode="&#xe0;" horiz-adv-x="772" 
d="M322 1219q33 -70 112 -310q-2 -4 -12 -8t-16 -2q-72 94 -209 299q0 4 4 12q9 6 57 10t64 -1zM483 335q0 54 -2 56t-4 0q-225 -74 -245 -93t-19 -76q0 -58 39 -100t97 -42t112 31q18 14 18 43q4 127 4 181zM688 80q39 0 70 10q0 -33 -8 -41q-66 -74 -148 -74t-108 50
q-10 18 -13 41t-10 16q-158 -106 -222 -106t-110 44q-68 68 -67 177q0 53 22 98q29 16 187 67q158 52 181 64t23 25v79q0 70 -34 117q-55 78 -162 78q-45 1 -83 -25t-73 -141q-3 -2 -21 7t-18 28q0 18 15 55q14 37 22 45q61 47 140 82t120 35q123 0 187 -102q43 -66 43 -201
l-7 -338q0 -90 74 -90z" />
    <glyph glyph-name="aacute" unicode="&#xe1;" horiz-adv-x="772" 
d="M446 1186q16 6 64 10t59 0q9 -9 4 -14q-39 -61 -231 -301q-16 0 -25 16q90 215 129 289zM483 335q0 54 -2 56t-4 0q-225 -74 -245 -93t-19 -76q0 -58 39 -100t97 -42t112 31q18 14 18 43q4 127 4 181zM688 80q39 0 70 10q0 -33 -8 -41q-66 -74 -148 -74t-108 50
q-10 18 -13 41t-10 16q-158 -106 -222 -106t-110 44q-68 68 -67 177q0 53 22 98q29 16 187 67q158 52 181 64t23 25v79q0 70 -34 117q-55 78 -162 78q-45 1 -83 -25t-73 -141q-3 -2 -21 7t-18 28q0 18 15 55q14 37 22 45q61 47 140 82t120 35q123 0 187 -102q43 -66 43 -201
l-7 -338q0 -90 74 -90z" />
    <glyph glyph-name="acircumflex" unicode="&#xe2;" horiz-adv-x="772" 
d="M365 1098q-78 -141 -121 -180q-23 -18 -38 -18t-16 5q141 227 172 307q2 4 16 10t19 5q25 -61 83 -167t83 -142q-10 -16 -63 -17q-8 6 -57 80q-48 74 -70 117q-4 4 -8 0zM483 335q0 54 -2 56t-4 0q-225 -74 -245 -93t-19 -76q0 -58 39 -100t97 -42t112 31q18 14 18 43
q4 127 4 181zM688 80q39 0 70 10q0 -33 -8 -41q-66 -74 -148 -74t-108 50q-10 18 -13 41t-10 16q-158 -106 -222 -106t-110 44q-68 68 -67 177q0 53 22 98q29 16 187 67q158 52 181 64t23 25v79q0 70 -34 117q-55 78 -162 78q-45 1 -83 -25t-73 -141q-3 -2 -21 7t-18 28
q0 18 15 55q14 37 22 45q61 47 140 82t120 35q123 0 187 -102q43 -66 43 -201l-7 -338q0 -90 74 -90z" />
    <glyph glyph-name="atilde" unicode="&#xe3;" horiz-adv-x="772" 
d="M483 1081q61 0 119 58q4 -4 4 -15q0 -38 -64 -82q-64 -45 -100 -45q-38 -1 -104 19t-90 20q-51 0 -111 -53q-2 0 -6 4q-6 25 6 31q15 24 67 62t86 38t101 -18t92 -19zM483 335q0 54 -2 56t-4 0q-225 -74 -245 -93t-19 -76q0 -58 39 -100t97 -42t112 31q18 14 18 43
q4 127 4 181zM688 80q39 0 70 10q0 -33 -8 -41q-66 -74 -148 -74t-108 50q-10 18 -13 41t-10 16q-158 -106 -222 -106t-110 44q-68 68 -67 177q0 53 22 98q29 16 187 67q158 52 181 64t23 25v79q0 70 -34 117q-55 78 -162 78q-45 1 -83 -25t-73 -141q-3 -2 -21 7t-18 28
q0 18 15 55q14 37 22 45q61 47 140 82t120 35q123 0 187 -102q43 -66 43 -201l-7 -338q0 -90 74 -90z" />
    <glyph glyph-name="adieresis" unicode="&#xe4;" horiz-adv-x="772" 
d="M610 1102q0 -59 -39 -78q-7 -4 -33 -6t-34 2q-41 16 -41 56t8 57q29 29 76 28q63 0 63 -59zM307 1102q0 -59 -39 -78q-8 -4 -34 -6t-33 2q-41 16 -41 56t8 57q29 29 76 28q63 0 63 -59zM483 335q0 54 -2 56t-4 0q-225 -74 -245 -93t-19 -76q0 -58 39 -100t97 -42t112 31
q18 14 18 43q4 127 4 181zM688 80q39 0 70 10q0 -33 -8 -41q-66 -74 -148 -74t-108 50q-10 18 -13 41t-10 16q-158 -106 -222 -106t-110 44q-68 68 -67 177q0 53 22 98q29 16 187 67q158 52 181 64t23 25v79q0 70 -34 117q-55 78 -162 78q-45 1 -83 -25t-73 -141
q-3 -2 -21 7t-18 28q0 18 15 55q14 37 22 45q61 47 140 82t120 35q123 0 187 -102q43 -66 43 -201l-7 -338q0 -90 74 -90z" />
    <glyph glyph-name="aring" unicode="&#xe5;" horiz-adv-x="772" 
d="M365 1133q-39 0 -62 -22q-23 -21 -23 -55t28 -55q28 -20 64 -20t60 19t25 51q0 82 -92 82zM372 1194q58 0 92 -39t34 -99t-37 -98t-89 -38t-93 34t-41 96q0 64 37 104q39 40 97 40zM483 335q0 54 -2 56t-4 0q-225 -74 -245 -93t-19 -76q0 -58 39 -100t97 -42t112 31
q18 14 18 43q4 127 4 181zM688 80q39 0 70 10q0 -33 -8 -41q-66 -74 -148 -74t-108 50q-10 18 -13 41t-10 16q-158 -106 -222 -106t-110 44q-68 68 -67 177q0 53 22 98q29 16 187 67q158 52 181 64t23 25v79q0 70 -34 117q-55 78 -162 78q-45 1 -83 -25t-73 -141
q-3 -2 -21 7t-18 28q0 18 15 55q14 37 22 45q61 47 140 82t120 35q123 0 187 -102q43 -66 43 -201l-7 -338q0 -90 74 -90z" />
    <glyph glyph-name="ae" unicode="&#xe6;" horiz-adv-x="1185" 
d="M781 752q-77 0 -124 -78t-43 -209q0 -14 9 -12q285 74 329 90q12 6 13 14q-11 75 -59 135t-125 60zM479 373q0 4 -6 4q-215 -63 -244 -80q-4 -2 -10 -29t-6 -39q0 -67 40 -107t103 -40q100 0 162 63q6 8 4 15q-43 104 -43 213zM260 -23q-72 0 -121 50q-68 72 -67 170
q0 51 22 96q45 28 200 72q154 45 170 51t18 26q1 20 1 88q0 70 -32 119q-51 78 -154 78q-41 0 -78 -18q-12 -5 -39 -51t-43 -93q-4 -3 -22 11q-19 14 -19 22t14 48q13 40 17 44q63 51 144 86t124 35q127 0 191 -119q2 -2 10 -2q59 59 132 90t129 31q57 0 105 -25
q105 -54 136 -200q0 -10 32 -15q-4 -14 -12 -26q-94 -33 -493 -135q-8 0 -9 -15q4 -123 81 -218t206 -95t232 94q2 -4 4 -19t0 -20q-68 -80 -154 -120t-168 -40q-168 0 -268 136q-6 6 -10 2q-168 -138 -279 -138z" />
    <glyph glyph-name="ccedilla" unicode="&#xe7;" horiz-adv-x="772" 
d="M565 -226q-1 -60 -69 -109q-68 -50 -124 -50t-91 53q-4 20 6 31q57 -31 105 -31q88 0 89 62q0 68 -131 120q-2 10 0 17q49 66 82 108h-8q-174 0 -272 134q-80 106 -80 268q0 238 196 352q138 82 244 82t164 -25q53 -27 59 -51q0 -18 -4 -24q-27 -55 -61 -72q-10 -4 -19 0
q-99 106 -209 106t-169 -83q-58 -84 -58 -201q0 -168 76 -260q86 -111 224 -111t226 94q6 0 7 -6q-1 -31 -7 -39q-115 -137 -264 -159l-37 -50q43 -24 84 -60t41 -96z" />
    <glyph glyph-name="egrave" unicode="&#xe8;" horiz-adv-x="790" 
d="M377 1208q27 -55 112 -309q-2 -4 -12 -9t-16 -3q-25 33 -112 161t-97 140q0 4 4 12q10 4 56 8t65 0zM396 758q-77 0 -126 -67t-55 -185q0 -12 6 -12q45 -4 180 1t166 13q12 6 13 16q-10 92 -58 163t-126 71zM428 -25q-162 0 -250 99q-106 115 -106 313q0 316 280 405
q63 19 105 19q88 0 150 -52q62 -53 86 -109t34 -118q4 -14 25 -16q6 -20 -9 -27q-109 -37 -522 -47q-12 0 -12 -22q4 -137 82 -233q78 -97 215 -97t227 86q8 0 10 -12t-6 -29q-147 -160 -309 -160z" />
    <glyph glyph-name="eacute" unicode="&#xe9;" horiz-adv-x="790" 
d="M492 1200q16 6 64 10t58 0q9 -9 4 -14q-39 -61 -231 -301q-16 0 -25 16q91 215 130 289zM396 758q-77 0 -126 -67t-55 -185q0 -12 6 -12q45 -4 180 1t166 13q12 6 13 16q-10 92 -58 163t-126 71zM428 -25q-162 0 -250 99q-106 115 -106 313q0 316 280 405q63 19 105 19
q88 0 150 -52q62 -53 86 -109t34 -118q4 -14 25 -16q6 -20 -9 -27q-109 -37 -522 -47q-12 0 -12 -22q4 -137 82 -233q78 -97 215 -97t227 86q8 0 10 -12t-6 -29q-147 -160 -309 -160z" />
    <glyph glyph-name="ecircumflex" unicode="&#xea;" horiz-adv-x="790" 
d="M424 1098q-78 -141 -121 -180q-23 -18 -47 -19q-10 0 -6 6q141 229 170 307q14 14 37 15q23 -59 81 -165t85 -144q-10 -16 -64 -17q-10 6 -57 80t-70 117q-4 4 -8 0zM396 758q-77 0 -126 -67t-55 -185q0 -12 6 -12q45 -4 180 1t166 13q12 6 13 16q-10 92 -58 163t-126 71
zM428 -25q-162 0 -250 99q-106 115 -106 313q0 316 280 405q63 19 105 19q88 0 150 -52q62 -53 86 -109t34 -118q4 -14 25 -16q6 -20 -9 -27q-109 -37 -522 -47q-12 0 -12 -22q4 -137 82 -233q78 -97 215 -97t227 86q8 0 10 -12t-6 -29q-147 -160 -309 -160z" />
    <glyph glyph-name="edieresis" unicode="&#xeb;" horiz-adv-x="790" 
d="M664 1102q0 -59 -39 -78q-8 -4 -34 -6t-34 2q-41 16 -41 56t8 57q29 29 76 28q64 0 64 -59zM360 1102q0 -59 -38 -78q-8 -4 -34 -6t-34 2q-41 16 -41 56t8 57q29 29 76 28q63 0 63 -59zM396 758q-77 0 -126 -67t-55 -185q0 -12 6 -12q45 -4 180 1t166 13q12 6 13 16
q-10 92 -58 163t-126 71zM428 -25q-162 0 -250 99q-106 115 -106 313q0 316 280 405q63 19 105 19q88 0 150 -52q62 -53 86 -109t34 -118q4 -14 25 -16q6 -20 -9 -27q-109 -37 -522 -47q-12 0 -12 -22q4 -137 82 -233q78 -97 215 -97t227 86q8 0 10 -12t-6 -29
q-147 -160 -309 -160z" />
    <glyph glyph-name="igrave" unicode="&#xec;" horiz-adv-x="436" 
d="M154 1206q31 -70 112 -309q-2 -4 -12 -9t-16 -3q-51 70 -209 301q2 8 4 12q11 4 57 8t64 0zM29 10q0 14 2 17q55 4 80 16q35 15 37 75t4 274q0 214 -1 244t-15 48t-81 37q-2 4 -2 16t2 15q150 16 244 61q-4 -111 -4 -357t2 -343q0 -55 43 -72q35 -10 74 -14q0 -31 -6 -33
l-187 6l-190 -6q-2 2 -2 16z" />
    <glyph glyph-name="iacute" unicode="&#xed;" horiz-adv-x="436" 
d="M299 1188q17 6 65 10t58 0q9 -9 4 -14q-39 -61 -231 -301q-16 0 -25 16q90 215 129 289zM29 10q0 14 2 17q55 4 80 16q35 15 37 75t4 274q0 214 -1 244t-15 48t-81 37q-2 4 -2 16t2 15q150 16 244 61q-4 -111 -4 -357t2 -343q0 -55 43 -72q35 -10 74 -14q0 -31 -6 -33
l-187 6l-190 -6q-2 2 -2 16z" />
    <glyph glyph-name="icircumflex" unicode="&#xee;" horiz-adv-x="436" 
d="M199 1098q-78 -141 -121 -180q-23 -18 -38 -18t-15 5q141 227 172 307q8 14 34 15q25 -61 83 -167t83 -142q-10 -16 -61 -17q-10 6 -57 80t-70 117q-6 4 -10 0zM29 10q0 14 2 17q55 4 80 16q35 15 37 75t4 274q0 214 -1 244t-15 48t-81 37q-2 4 -2 16t2 15q150 16 244 61
q-4 -111 -4 -357t2 -343q0 -55 43 -72q35 -10 74 -14q0 -31 -6 -33l-187 6l-190 -6q-2 2 -2 16z" />
    <glyph glyph-name="idieresis" unicode="&#xef;" horiz-adv-x="436" 
d="M442 1102q0 -59 -39 -78q-7 -4 -33 -6t-34 2q-41 16 -41 56t8 57q29 29 76 28q63 0 63 -59zM139 1102q0 -59 -39 -78q-8 -4 -34 -6t-33 2q-41 16 -41 56t8 57q29 29 76 28q63 0 63 -59zM29 10q0 14 2 17q55 4 80 16q35 15 37 75t4 274q0 214 -1 244t-15 48t-81 37
q-2 4 -2 16t2 15q150 16 244 61q-4 -111 -4 -357t2 -343q0 -55 43 -72q35 -10 74 -14q0 -31 -6 -33l-187 6l-190 -6q-2 2 -2 16z" />
    <glyph glyph-name="eth" unicode="&#xf0;" horiz-adv-x="927" 
d="M809 1222q0 -22 -2 -24l-166 -82q93 -114 153 -270t60 -316q0 -367 -209 -503q-80 -49 -192 -50q-178 0 -280 116q-101 116 -101 302q0 215 174 336q109 80 252 80q92 0 174 -31q-39 172 -133 289l-230 -106q-6 0 -6 23t4 26l203 98q-145 184 -385 262q-2 4 3 18t7 15
q70 -4 211 -70t264 -182l195 92q4 -1 4 -23zM229 426q0 -180 77 -294t176 -114q100 0 162 102t62 290t-32 243q-74 113 -225 113q-82 0 -151 -80t-69 -260z" />
    <glyph glyph-name="ntilde" unicode="&#xf1;" horiz-adv-x="958" 
d="M596 1081q61 0 119 58q11 -11 2 -35q-19 -33 -73 -70t-90 -37q-36 -1 -102 19t-104 20q-37 0 -96 -53q-2 -2 -8 4q0 25 6 31q14 28 66 64t88 36t102 -18t90 -19zM33 10q0 14 4 17q45 4 76 15q31 12 35 70t4 282t-4 247q-4 25 -22 37q-17 12 -75 29q-2 4 0 15t6 13
q143 18 240 78q6 1 5 -17t-4 -67t-1 -52t6 -1q168 135 284 135t181 -104q49 -76 49 -234q0 -295 2 -377q0 -39 27 -47q37 -16 88 -22q2 -7 0 -19t-6 -14l-178 6q-72 0 -201 -6q-4 2 -4 16t4 17q61 6 78 12q39 12 43 69q4 56 3 218t-11 232t-56 108q-45 45 -131 45t-160 -68
q-20 -20 -20 -74q0 -352 3 -432t38 -92q25 -10 86 -18q7 -14 -2 -33l-197 6l-186 -6q-4 2 -4 16z" />
    <glyph glyph-name="ograve" unicode="&#xf2;" horiz-adv-x="946" 
d="M410 1206q12 -27 114 -309q-2 -4 -13 -9t-15 -3q-92 117 -209 301q0 8 2 12q11 4 57 8t64 0zM514 33q203 0 203 315q0 178 -75 293t-206 115q-66 0 -102 -31q-102 -70 -102 -264t78 -311q79 -117 204 -117zM518 811q158 0 257 -113t99 -286q0 -113 -48 -210t-138 -155
q-104 -72 -232 -72t-219 66q-163 118 -163 347q0 228 174 345q112 78 270 78z" />
    <glyph glyph-name="oacute" unicode="&#xf3;" horiz-adv-x="946" 
d="M537 1188q16 6 64 10t59 -2t4 -12q-39 -61 -232 -301q-16 0 -24 16q90 215 129 289zM514 33q203 0 203 315q0 178 -75 293t-206 115q-66 0 -102 -31q-102 -70 -102 -264t78 -311q79 -117 204 -117zM518 811q158 0 257 -113t99 -286q0 -113 -48 -210t-138 -155
q-104 -72 -232 -72t-219 66q-163 118 -163 347q0 228 174 345q112 78 270 78z" />
    <glyph glyph-name="ocircumflex" unicode="&#xf4;" horiz-adv-x="946" 
d="M455 1098q-80 -145 -123 -180q-18 -18 -36 -18t-17 5q141 227 172 307q2 2 16 8t20 7q23 -61 81 -167t83 -142q-10 -16 -61 -17q-10 6 -58 80q-47 74 -69 117q-4 4 -8 0zM514 33q203 0 203 315q0 178 -75 293t-206 115q-66 0 -102 -31q-102 -70 -102 -264t78 -311
q79 -117 204 -117zM518 811q158 0 257 -113t99 -286q0 -113 -48 -210t-138 -155q-104 -72 -232 -72t-219 66q-163 118 -163 347q0 228 174 345q112 78 270 78z" />
    <glyph glyph-name="otilde" unicode="&#xf5;" horiz-adv-x="946" 
d="M592 1081q61 0 119 58q11 -11 2 -35q-19 -33 -73 -70t-90 -37q-36 -1 -102 19t-104 20q-37 0 -96 -53q-2 -2 -8 4q0 25 6 31q14 28 66 64t88 36t102 -18t90 -19zM514 33q203 0 203 315q0 178 -75 293t-206 115q-66 0 -102 -31q-102 -70 -102 -264t78 -311
q79 -117 204 -117zM518 811q158 0 257 -113t99 -286q0 -113 -48 -210t-138 -155q-104 -72 -232 -72t-219 66q-163 118 -163 347q0 228 174 345q112 78 270 78z" />
    <glyph glyph-name="odieresis" unicode="&#xf6;" horiz-adv-x="946" 
d="M698 1102q0 -59 -39 -78q-7 -4 -33 -6t-34 2q-41 16 -41 56t8 57q29 29 76 28q63 0 63 -59zM395 1102q0 -59 -39 -78q-8 -4 -34 -6t-33 2q-41 16 -41 56t8 57q29 29 76 28q63 0 63 -59zM514 33q203 0 203 315q0 178 -75 293t-206 115q-66 0 -102 -31q-102 -70 -102 -264
t78 -311q79 -117 204 -117zM518 811q158 0 257 -113t99 -286q0 -113 -48 -210t-138 -155q-104 -72 -232 -72t-219 66q-163 118 -163 347q0 228 174 345q112 78 270 78z" />
    <glyph glyph-name="divide" unicode="&#xf7;" horiz-adv-x="942" 
d="M543 204q0 -32 -25 -63q-6 -6 -38 -11t-46 3q-37 31 -37 65t11 44q28 26 70 26t54 -12q11 -20 11 -52zM297 496h571q2 0 4 -8t0 -11q-12 -61 -26 -63l-766 -4q-4 0 -1 28t19 60q8 -2 199 -2zM543 743q0 -43 -37 -84q-6 -6 -35 -9t-43 5q-31 25 -31 62t19 55q20 18 62 19
q42 0 54 -13q11 -21 11 -35z" />
    <glyph glyph-name="oslash" unicode="&#xf8;" horiz-adv-x="946" 
d="M448 756q-108 0 -166 -80t-58 -243t71 -261l328 506q-67 78 -175 78zM504 33q121 0 171 90q50 89 50 247t-74 269l-329 -508q61 -98 182 -98zM482 811q120 0 202 -41l53 82q3 2 17 -10t16 -17l-51 -77q156 -109 155 -336q0 -113 -48 -210t-138 -155q-104 -72 -224 -72
t-210 54l-55 -88q-3 0 -19 11t-18 15l55 86q-143 117 -143 340t174 340q114 78 234 78z" />
    <glyph glyph-name="ugrave" unicode="&#xf9;" horiz-adv-x="931" 
d="M385 1206q31 -70 113 -309q-2 -4 -12 -9t-15 -3q-92 117 -209 301q0 8 2 12q12 4 58 8t63 0zM281 496q0 -252 10 -293q31 -125 168 -125q86 0 159 59q20 15 24 53t3 212q0 174 -4 257q-4 49 -33 57t-135 21q-4 3 -2 17t6 16q190 0 318 31q-8 -51 -9 -217l2 -406
q0 -60 12 -80t34 -20t75 4q0 -33 -4 -35q-139 -39 -250 -82q-12 0 -12 17v116q0 4 -4 6t-8 0q-147 -129 -264 -129q-231 0 -232 273q0 354 -3 408q-4 54 -24 64t-92 17q-2 3 1 17t6 16q162 0 268 33q-10 -55 -10 -307z" />
    <glyph glyph-name="uacute" unicode="&#xfa;" horiz-adv-x="931" 
d="M530 1188q16 6 64 10t59 0q9 -9 4 -14q-39 -61 -231 -301q-16 0 -25 16q90 215 129 289zM281 496q0 -252 10 -293q31 -125 168 -125q86 0 159 59q20 15 24 53t3 212q0 174 -4 257q-4 49 -33 57t-135 21q-4 3 -2 17t6 16q190 0 318 31q-8 -51 -9 -217l2 -406q0 -60 12 -80
t34 -20t75 4q0 -33 -4 -35q-139 -39 -250 -82q-12 0 -12 17v116q0 4 -4 6t-8 0q-147 -129 -264 -129q-231 0 -232 273q0 354 -3 408q-4 54 -24 64t-92 17q-2 3 1 17t6 16q162 0 268 33q-10 -55 -10 -307z" />
    <glyph glyph-name="ucircumflex" unicode="&#xfb;" horiz-adv-x="931" 
d="M444 1098q-78 -141 -120 -180q-22 -18 -38 -18t-16 5q141 227 172 307q8 14 35 15q25 -61 83 -167t83 -142q-10 -16 -61 -17q-10 6 -58 80q-47 74 -69 117q-7 4 -11 0zM281 496q0 -252 10 -293q31 -125 168 -125q86 0 159 59q20 15 24 53t3 212q0 174 -4 257
q-4 49 -33 57t-135 21q-4 3 -2 17t6 16q190 0 318 31q-8 -51 -9 -217l2 -406q0 -60 12 -80t34 -20t75 4q0 -33 -4 -35q-139 -39 -250 -82q-12 0 -12 17v116q0 4 -4 6t-8 0q-147 -129 -264 -129q-231 0 -232 273q0 354 -3 408q-4 54 -24 64t-92 17q-2 3 1 17t6 16
q162 0 268 33q-10 -55 -10 -307z" />
    <glyph glyph-name="udieresis" unicode="&#xfc;" horiz-adv-x="931" 
d="M672 1102q0 -59 -39 -78q-8 -4 -34 -6t-34 2q-41 16 -41 56t8 57q29 29 76 28q64 0 64 -59zM369 1102q0 -59 -39 -78q-8 -4 -34 -6t-34 2q-41 16 -41 56t8 57q29 29 76 28q64 0 64 -59zM281 496q0 -252 10 -293q31 -125 168 -125q86 0 159 59q20 15 24 53t3 212
q0 174 -4 257q-4 49 -33 57t-135 21q-4 3 -2 17t6 16q190 0 318 31q-8 -51 -9 -217l2 -406q0 -60 12 -80t34 -20t75 4q0 -33 -4 -35q-139 -39 -250 -82q-12 0 -12 17v116q0 4 -4 6t-8 0q-147 -129 -264 -129q-231 0 -232 273q0 354 -3 408q-4 54 -24 64t-92 17q-2 3 1 17
t6 16q162 0 268 33q-10 -55 -10 -307z" />
    <glyph glyph-name="yacute" unicode="&#xfd;" horiz-adv-x="806" 
d="M530 1188q16 6 64 10t59 0q9 -9 4 -14q-39 -61 -231 -301q-16 0 -25 16q90 215 129 289zM350 773q0 -11 -2 -15q-55 -12 -71 -20q-17 -8 -7 -42q10 -36 94 -258t101 -256h4q147 328 174 496q8 49 -39 63q-6 2 -21 5q-15 2 -29 6t-32 6q-2 4 -1 16t5 14l166 -6q10 0 158 6
q4 -2 4 -14t-4 -16q-51 -10 -64 -17q-47 -16 -73 -84q-219 -598 -492 -1089q-63 -98 -71 -115l-11 -4q-57 14 -78 49q-6 12 -2 21q223 279 320 487q-12 29 -17 37q-208 568 -261 655q-19 34 -49 44t-70 16q-2 4 -1 16t5 14l182 -6l178 6q4 -4 4 -15z" />
    <glyph glyph-name="thorn" unicode="&#xfe;" horiz-adv-x="937" 
d="M444 715q-61 0 -143 -45q-18 -10 -22 -35q-6 -74 2 -469q0 -39 24 -68q59 -49 163 -49t175 78q70 78 70 239t-68 248q-76 101 -201 101zM559 811q137 0 223 -104q80 -92 80 -246q0 -250 -184 -379q-51 -39 -136 -70q-84 -31 -138 -35t-125 7q0 -308 4 -370t14 -78
q9 -16 37 -20q28 -5 108 -14q2 -4 0 -18t-4 -16h-92q-86 -2 -344 -25q-2 5 -2 19t2 18q47 8 82 22q43 14 47 112t4 806t-6 778t-12 80q-18 30 -121 37q-2 2 0 15t4 16q152 10 289 63q8 0 8 -14q-23 -31 -23 -367l2 -323q0 -8 11 -5q178 111 272 111z" />
    <glyph glyph-name="ydieresis" unicode="&#xff;" horiz-adv-x="806" 
d="M670 1102q0 -59 -39 -78q-8 -4 -34 -6t-34 2q-41 16 -41 56t8 57q25 29 76 28q64 0 64 -59zM367 1102q0 -59 -39 -78q-8 -4 -34 -6t-34 2q-41 16 -41 56t8 57q25 29 74 28q66 0 66 -59zM350 773q0 -11 -2 -15q-55 -12 -71 -20q-17 -8 -7 -42q10 -36 94 -258t101 -256h4
q147 328 174 496q8 49 -39 63q-6 2 -21 5q-15 2 -29 6t-32 6q-2 4 -1 16t5 14l166 -6q10 0 158 6q4 -2 4 -14t-4 -16q-51 -10 -64 -17q-47 -16 -73 -84q-219 -598 -492 -1089q-63 -98 -71 -115l-11 -4q-57 14 -78 49q-6 12 -2 21q223 279 320 487q-12 29 -17 37
q-208 568 -261 655q-19 34 -49 44t-70 16q-2 4 -1 16t5 14l182 -6l178 6q4 -4 4 -15z" />
    <glyph glyph-name="uni0100" unicode="&#x100;" 
d="M819 1434q0 -16 -11 -44t-17 -30q-31 -6 -349 -6l-71 2q1 29 28 80l101 -2h319zM538 586q136 0 150 2q8 0 4 12q-92 297 -147 467q-8 0 -8 -2q-16 -43 -160 -465q0 -10 13 -12q12 -2 148 -2zM926 0q-120 0 -195 -6q-2 4 -2 15t2 18q79 12 107 24t16 55t-133 400
q-13 10 -25 11q-11 1 -163 1q-151 0 -169 -1t-22 -15q-121 -326 -125 -360t-3 -50q2 -37 57 -49q54 -12 91 -16q2 -5 2 -17t-6 -16l-233 6l-193 -6q-4 2 -4 16t4 17q106 14 143 42q36 28 89 156t346 928q20 61 27 98l57 -2h27l28 2q14 -58 166 -517q151 -458 191 -554
t68 -119q30 -23 130 -34q4 -3 2 -17t-6 -16q-154 6 -274 6z" />
    <glyph glyph-name="uni0101" unicode="&#x101;" horiz-adv-x="772" 
d="M287 1096h291q0 -18 -10 -45t-15 -29q-23 -6 -191 -6t-182 4q7 51 25 80q12 -4 82 -4zM483 335q0 54 -2 56t-4 0q-225 -74 -245 -93t-19 -76q0 -58 39 -100t97 -42t112 31q18 14 18 43q4 127 4 181zM688 80q39 0 70 10q0 -33 -8 -41q-66 -74 -148 -74t-108 50
q-10 18 -13 41t-10 16q-158 -106 -222 -106t-110 44q-68 68 -67 177q0 53 22 98q29 16 187 67q158 52 181 64t23 25v79q0 70 -34 117q-55 78 -162 78q-45 1 -83 -25t-73 -141q-3 -2 -21 7t-18 28q0 18 15 55q14 37 22 45q61 47 140 82t120 35q123 0 187 -102q43 -66 43 -201
l-7 -338q0 -90 74 -90z" />
    <glyph glyph-name="uni0102" unicode="&#x102;" 
d="M616 1395q109 0 181 90q18 18 30 18t13 -4q-33 -78 -103 -131t-157 -53t-144 38t-57 91q0 12 22 41t35 16q37 -106 180 -106zM538 586q136 0 150 2q8 0 4 12q-92 297 -147 467q-8 0 -8 -2q-16 -43 -160 -465q0 -10 13 -12q12 -2 148 -2zM926 0q-120 0 -195 -6q-2 4 -2 15
t2 18q79 12 107 24t16 55t-133 400q-13 10 -25 11q-11 1 -163 1q-151 0 -169 -1t-22 -15q-121 -326 -125 -360t-3 -50q2 -37 57 -49q54 -12 91 -16q2 -5 2 -17t-6 -16l-233 6l-193 -6q-4 2 -4 16t4 17q106 14 143 42q36 28 89 156t346 928q20 61 27 98l57 -2h27l28 2
q14 -58 166 -517q151 -458 191 -554t68 -119q30 -23 130 -34q4 -3 2 -17t-6 -16q-154 6 -274 6z" />
    <glyph glyph-name="uni0103" unicode="&#x103;" horiz-adv-x="772" 
d="M386 1026q110 0 165 102q25 25 32 25t7 -8q-23 -86 -87 -145q-65 -58 -143 -58t-128 39t-50 102q0 33 56 68q12 0 12 -4q26 -121 136 -121zM483 335q0 54 -2 56t-4 0q-225 -74 -245 -93t-19 -76q0 -58 39 -100t97 -42t112 31q18 14 18 43q4 127 4 181zM688 80q39 0 70 10
q0 -33 -8 -41q-66 -74 -148 -74t-108 50q-10 18 -13 41t-10 16q-158 -106 -222 -106t-110 44q-68 68 -67 177q0 53 22 98q29 16 187 67q158 52 181 64t23 25v79q0 70 -34 117q-55 78 -162 78q-45 1 -83 -25t-73 -141q-3 -2 -21 7t-18 28q0 18 15 55q14 37 22 45
q61 47 140 82t120 35q123 0 187 -102q43 -66 43 -201l-7 -338q0 -90 74 -90z" />
    <glyph glyph-name="uni0104" unicode="&#x104;" 
d="M538 586q136 0 150 2q8 0 4 12q-92 297 -147 467q-8 0 -8 -2q-16 -43 -160 -465q0 -10 13 -12q12 -2 148 -2zM987 -291q49 0 94 35q2 -6 1 -22t-3 -19q-63 -98 -172 -98q-51 0 -89 33t-38 98q0 98 189 264q-164 0 -238 -6q-2 4 -2 15t2 18q79 12 107 24t16 55t-133 400
q-13 10 -25 11q-11 1 -163 1q-151 0 -169 -1t-22 -15q-121 -326 -125 -360t-3 -50q2 -37 54 -48q51 -11 94 -17q2 -5 2 -17t-6 -16l-233 6l-193 -6q-2 2 -2 16t2 17q106 14 143 42q36 28 81 134q143 346 352 944q25 76 29 104l57 -2h27l28 2q-1 -15 159 -497t198 -576
t68 -117t130 -34q2 -3 1 -17t-5 -16q-129 6 -194 6q-106 -115 -107 -215q0 -76 88 -76z" />
    <glyph glyph-name="uni0105" unicode="&#x105;" horiz-adv-x="772" 
d="M483 335q0 54 -2 56t-4 0q-225 -74 -245 -93t-19 -76q0 -58 39 -100t97 -42t112 31q18 14 18 43q4 127 4 181zM688 80q39 0 70 10q0 -33 -8 -41q-33 -35 -78 -57q-121 -100 -121 -195q0 -74 84 -73q47 0 90 32q8 -18 -2 -39q-61 -94 -164 -94q-49 0 -85 31t-36 94
q0 98 170 229q-86 -8 -114 48q-10 18 -13 41t-10 16q-158 -106 -222 -106t-110 44q-68 68 -67 177q0 53 22 98q29 16 187 67q158 52 181 64t23 25v79q0 70 -34 117q-55 78 -162 78q-45 1 -83 -25t-73 -141q-3 -2 -21 7t-18 28q0 18 15 55q14 37 22 45q61 47 140 82t120 35
q123 0 187 -102q43 -66 43 -201l-7 -338q0 -90 74 -90z" />
    <glyph glyph-name="uni0106" unicode="&#x106;" horiz-adv-x="1312" 
d="M1016 1548q0 -6 -9 -16t-145 -96t-143 -86q-8 0 -16 10q-7 10 -5 14q23 30 108 124t105 106q21 -2 57 -18t42 -24t6 -14zM770 1239q-227 0 -356 -155q-129 -154 -129 -436t148 -452t407 -171q158 0 243 81q61 61 134 189q4 2 16 -4t14 -12q-20 -78 -69 -166t-84 -107
q-139 -43 -295 -43q-332 0 -515 175t-184 499q0 176 80 322q80 147 246 237t414 90q88 0 228 -19t151 -20q-33 -131 -37 -295q-4 -8 -22 -8t-17 4q-14 115 -38 165q-60 126 -335 126z" />
    <glyph glyph-name="uni0107" unicode="&#x107;" horiz-adv-x="772" 
d="M528 1188q16 6 64 10t59 0q9 -9 4 -14q-39 -61 -231 -301q-16 0 -25 16q90 215 129 289zM428 -25q-178 0 -276 134q-80 106 -80 268q0 238 196 352q138 82 244 82t164 -25q53 -27 59 -51q0 -18 -4 -24q-27 -55 -61 -72q-10 -4 -19 0q-99 106 -209 106t-169 -83
q-58 -84 -58 -201q0 -168 76 -260q86 -111 224 -111t226 94q6 0 7 -6q-1 -31 -7 -39q-135 -164 -313 -164z" />
    <glyph glyph-name="uni0108" unicode="&#x108;" horiz-adv-x="1312" 
d="M1010 1356q-6 0 -108 44t-122 54t-42 -2t-112 -54t-96 -42t-12 10t-4 18q39 28 124 98q86 70 104 88t34 19q16 -20 114 -100t138 -105q0 -6 -6 -17t-12 -11zM770 1239q-227 0 -356 -155q-129 -154 -129 -436t148 -452t407 -171q158 0 243 81q61 61 134 189q4 2 16 -4
t14 -12q-20 -78 -69 -166t-84 -107q-139 -43 -295 -43q-332 0 -515 175t-184 499q0 176 80 322q80 147 246 237t414 90q88 0 228 -19t151 -20q-33 -131 -37 -295q-4 -8 -22 -8t-17 4q-14 115 -38 165q-60 126 -335 126z" />
    <glyph glyph-name="uni0109" unicode="&#x109;" horiz-adv-x="772" 
d="M444 1098q-24 -46 -66 -106t-58 -76t-34 -16t-18 5q141 227 172 307q2 4 16 10t21 5q23 -61 81 -167t83 -142q-10 -16 -61 -17q-10 6 -58 80q-47 74 -69 117q-5 4 -9 0zM428 -25q-178 0 -276 134q-80 106 -80 268q0 238 196 352q138 82 244 82t164 -25q53 -27 59 -51
q0 -18 -4 -24q-27 -55 -61 -72q-10 -4 -19 0q-99 106 -209 106t-169 -83q-58 -84 -58 -201q0 -168 76 -260q86 -111 224 -111t226 94q6 0 7 -6q-1 -31 -7 -39q-135 -164 -313 -164z" />
    <glyph glyph-name="uni010A" unicode="&#x10a;" horiz-adv-x="1312" 
d="M864 1475q0 -59 -41 -80q-8 -4 -37 -7q-76 -8 -84 72q0 36 20 58t59 22t67 -18q16 -16 16 -47zM770 1239q-227 0 -356 -155q-129 -154 -129 -436t148 -452t407 -171q158 0 243 81q61 61 134 189q4 2 16 -4t14 -12q-20 -78 -69 -166t-84 -107q-139 -43 -295 -43
q-332 0 -515 175t-184 499q0 176 80 322q80 147 246 237t414 90q88 0 228 -19t151 -20q-33 -131 -37 -295q-4 -8 -22 -8t-17 4q-14 115 -38 165q-60 126 -335 126z" />
    <glyph glyph-name="uni010B" unicode="&#x10b;" horiz-adv-x="772" 
d="M547 1100q0 -61 -41 -80q-8 -4 -37 -7t-41 1q-45 20 -45 65t10 58q27 31 69 31t68 -19q17 -16 17 -49zM428 -25q-178 0 -276 134q-80 106 -80 268q0 238 196 352q138 82 244 82t164 -25q53 -27 59 -51q0 -18 -4 -24q-27 -55 -61 -72q-10 -4 -19 0q-99 106 -209 106
t-169 -83q-58 -84 -58 -201q0 -168 76 -260q86 -111 224 -111t226 94q6 0 7 -6q-1 -31 -7 -39q-135 -164 -313 -164z" />
    <glyph glyph-name="uni010C" unicode="&#x10c;" horiz-adv-x="1312" 
d="M528 1587q6 0 110 -44t124 -54q18 -10 40 2t110 54q90 42 96 42t12 -9t4 -17q-156 -117 -238 -199q-6 -6 -24 -6q-16 18 -116 98t-136 107q0 6 6 16t12 10zM770 1239q-227 0 -356 -155q-129 -154 -129 -436t148 -452t407 -171q158 0 243 81q61 61 134 189q4 2 16 -4
t14 -12q-20 -78 -69 -166t-84 -107q-139 -43 -295 -43q-332 0 -515 175t-184 499q0 176 80 322q80 147 246 237t414 90q88 0 228 -19t151 -20q-33 -131 -37 -295q-4 -8 -22 -8t-17 4q-14 115 -38 165q-60 126 -335 126z" />
    <glyph glyph-name="uni010D" unicode="&#x10d;" horiz-adv-x="772" 
d="M465 1018q88 152 127 182q18 18 45 19q10 0 6 -7q-141 -229 -170 -307q-14 -14 -37 -14q-23 59 -81 165t-85 144q10 16 64 17q10 -6 55 -79t68 -120q4 -4 8 0zM428 -25q-178 0 -276 134q-80 106 -80 268q0 238 196 352q138 82 244 82t164 -25q53 -27 59 -51q0 -18 -4 -24
q-27 -55 -61 -72q-10 -4 -19 0q-99 106 -209 106t-169 -83q-58 -84 -58 -201q0 -168 76 -260q86 -111 224 -111t226 94q6 0 7 -6q-1 -31 -7 -39q-135 -164 -313 -164z" />
    <glyph glyph-name="uni010E" unicode="&#x10e;" horiz-adv-x="1398" 
d="M883 1536q-39 -28 -124 -98t-103 -88t-35 -19q-17 21 -115 101t-137 104q0 6 6 17t12 11q7 0 109 -44t120 -54t29 -6q199 104 223 105q4 -1 10 -11t5 -18zM665 43q182 0 296 113q158 162 157 465q0 338 -227 499q-127 88 -381 88q-78 0 -109 -10q-20 -16 -23 -59t-3 -478
t4 -493t41 -82q63 -43 245 -43zM31 10q0 14 4 17q112 11 132 25q40 26 44 93q6 125 6 500t-4 441t-14 89q-17 37 -150 50q-2 2 0 15t4 15q147 -6 236 -6l385 8q274 0 434 -139q190 -166 190 -465q0 -354 -270 -536q-190 -131 -461 -131l-385 8h-147q-4 2 -4 16z" />
    <glyph glyph-name="uni010F" unicode="&#x10f;" horiz-adv-x="950" 
d="M1034 1419q8 -1 8 -39t-11 -162t-21 -182q-10 -37 -26 -46t-17 1q0 168 -23 334q0 15 38 54q38 40 52 40zM457 745q-98 0 -158 -61q-80 -82 -80 -249t78 -261q77 -94 183 -94t165 49q15 12 19 46t5 198q2 253 -11 279q-13 27 -40 48q-63 45 -161 45zM662 90q0 8 -9 4
q-165 -119 -287 -119t-204 105q-90 106 -90 282q0 92 38 178t103 144q68 55 166 91t186 36q12 0 94 -10q8 0 9 6q0 383 -5 439t-49 68t-92 17q-4 14 4 31q188 0 303 47q6 -4 7 -16q-27 -52 -27 -588q0 -535 2 -609q3 -103 22 -115q19 -13 99 -1q2 -6 0 -18t-4 -13
q-33 -18 -127 -52t-123 -36q-12 0 -14 29t-2 100z" />
    <glyph glyph-name="uni0110" unicode="&#x110;" horiz-adv-x="1398" 
d="M665 43q182 0 296 113q158 162 157 465q0 338 -227 499q-127 88 -381 88q-78 0 -109 -10q-20 -16 -23 -58t-3 -468h166l213 2q0 -29 -9 -53l-370 2q0 -400 4 -456t41 -81q63 -43 245 -43zM31 10q0 14 4 17q112 11 132 25q40 26 44 93q6 117 6 478q-147 -4 -174 -5
q0 37 10 54h164q0 350 -4 416t-14 87q-17 37 -150 50q-2 2 0 15t4 15q147 -6 236 -6l385 8q274 0 434 -139q190 -166 190 -465q0 -354 -270 -536q-190 -131 -461 -131l-385 8h-147q-4 2 -4 16z" />
    <glyph glyph-name="uni0111" unicode="&#x111;" horiz-adv-x="968" 
d="M217 434q0 -162 78 -258t182 -96t164 47q19 12 23 46t5 199t-1 228q-12 148 -210 148q-97 0 -159 -68q-82 -84 -82 -246zM668 1083q0 119 -3 168t-42 64q-23 6 -103 16q0 12 6 31q158 0 303 47q6 -6 7 -12q-20 -35 -25 -185l-2 -131h76l43 2q0 -25 -8 -49h-111v-428
q0 -418 4 -476t13 -66q29 -27 130 -7q0 -23 -8 -30q-27 -14 -129 -38t-141 -28q-12 0 -14 29t-2 96q0 8 -11 4q-65 -45 -147 -80t-135 -35q-129 0 -211 105q-86 100 -86 280q0 92 38 180t103 144q68 55 170 91q101 36 181 36t95 -6q8 0 9 6v223l-228 -2q0 35 13 51h215z" />
    <glyph glyph-name="uni0112" unicode="&#x112;" horiz-adv-x="1034" 
d="M426 1456h319q0 -16 -11 -44t-17 -30q-43 -6 -348 -6l-70 4q2 12 13 43q12 31 16 37q37 -4 98 -4zM682 1249q164 0 215 8l6 -6q-20 -76 -37 -268q-4 -4 -17 -4t-18 2q-11 149 -55 188q-20 17 -68 21t-166 4q-116 0 -145 -4q-20 -2 -20 -29q-2 -63 -4 -253t-1 -212
q1 -24 9 -24q41 -2 156 -2t164 4t71 39q21 35 33 104q4 2 19 2t18 -2q-14 -86 -15 -184l4 -170q-4 -6 -18 -6t-16 4q-6 43 -15 71q-16 66 -82 72q-178 9 -317 2q-10 0 -12 -56t6 -413q2 -63 47 -71q61 -12 210 -13t186 25q73 45 145 217q2 2 14 -4t14 -10q-6 -43 -36 -137
t-46 -128q-10 -16 -28 -19t-92 -3l-498 6l-281 -6q-4 2 -4 15t4 18q102 8 134 17t48 33q15 25 19 103t4 459t-4 451t-15 90t-48 28q-30 11 -93 17q-4 4 -3 15t5 15l232 -6h391z" />
    <glyph glyph-name="uni0113" unicode="&#x113;" horiz-adv-x="790" 
d="M336 1096h291q-1 -16 -11 -44t-14 -30q-26 -6 -192 -6t-183 4q2 10 25 80q16 -4 84 -4zM396 758q-77 0 -126 -67t-55 -185q0 -12 6 -12q45 -4 180 1t166 13q12 6 13 16q-10 92 -58 163t-126 71zM428 -25q-162 0 -250 99q-106 115 -106 313q0 316 280 405q63 19 105 19
q88 0 150 -52q62 -53 86 -109t34 -118q4 -14 25 -16q6 -20 -9 -27q-109 -37 -522 -47q-12 0 -12 -22q4 -137 82 -233q78 -97 215 -97t227 86q8 0 10 -12t-6 -29q-147 -160 -309 -160z" />
    <glyph glyph-name="uni0114" unicode="&#x114;" horiz-adv-x="1034" 
d="M551 1417q61 -1 101 19t81 71q17 19 29 19t12 -6q-34 -78 -102 -130t-156 -52t-144 36q-56 37 -57 92q0 29 41 60q4 2 10 1t5 -3q39 -107 180 -107zM682 1249q164 0 215 8l6 -6q-20 -76 -37 -268q-4 -4 -17 -4t-18 2q-11 149 -55 188q-20 17 -68 21t-166 4
q-116 0 -145 -4q-20 -2 -20 -29q-2 -63 -4 -253t-1 -212q1 -24 9 -24q41 -2 156 -2t164 4t71 39q21 35 33 104q4 2 19 2t18 -2q-14 -86 -15 -184l4 -170q-4 -6 -18 -6t-16 4q-6 43 -15 71q-16 66 -82 72q-178 9 -317 2q-10 0 -12 -56t6 -413q2 -63 47 -71q61 -12 210 -13
t186 25q73 45 145 217q2 2 14 -4t14 -10q-6 -43 -36 -137t-46 -128q-10 -16 -28 -19t-92 -3l-498 6l-281 -6q-4 2 -4 15t4 18q102 8 134 17t48 33q15 25 19 103t4 459t-4 451t-15 90t-48 28q-30 11 -93 17q-4 4 -3 15t5 15l232 -6h391z" />
    <glyph glyph-name="uni0115" unicode="&#x115;" horiz-adv-x="790" 
d="M438 1026q110 0 166 102q25 25 32 25t7 -8q-23 -86 -87 -145q-65 -58 -143 -58q-77 0 -127 39t-50 102q0 33 55 68q12 0 12 -4q25 -121 135 -121zM396 758q-77 0 -126 -67t-55 -185q0 -12 6 -12q45 -4 180 1t166 13q12 6 13 16q-10 92 -58 163t-126 71zM428 -25
q-162 0 -250 99q-106 115 -106 313q0 316 280 405q63 19 105 19q88 0 150 -52q62 -53 86 -109t34 -118q4 -14 25 -16q6 -20 -9 -27q-109 -37 -522 -47q-12 0 -12 -22q4 -137 82 -233q78 -97 215 -97t227 86q8 0 10 -12t-6 -29q-147 -160 -309 -160z" />
    <glyph glyph-name="uni0116" unicode="&#x116;" horiz-adv-x="1034" 
d="M541 1501q69 0 69 -65q0 -59 -39 -80q-9 -4 -37 -7t-38 1q-45 20 -45 64t10 56q31 31 80 31zM682 1249q164 0 215 8l6 -6q-20 -76 -37 -268q-4 -4 -17 -4t-18 2q-11 149 -55 188q-20 17 -68 21t-166 4q-116 0 -145 -4q-20 -2 -20 -29q-2 -63 -4 -253t-1 -212q1 -24 9 -24
q41 -2 156 -2t164 4t71 39q21 35 33 104q4 2 19 2t18 -2q-14 -86 -15 -184l4 -170q-4 -6 -18 -6t-16 4q-6 43 -15 71q-16 66 -82 72q-178 9 -317 2q-10 0 -12 -56t6 -413q2 -63 47 -71q61 -12 210 -13t186 25q73 45 145 217q2 2 14 -4t14 -10q-6 -43 -36 -137t-46 -128
q-10 -16 -28 -19t-92 -3l-498 6l-281 -6q-4 2 -4 15t4 18q102 8 134 17t48 33q15 25 19 103t4 459t-4 451t-15 90t-48 28q-30 11 -93 17q-4 4 -3 15t5 15l232 -6h391z" />
    <glyph glyph-name="uni0117" unicode="&#x117;" horiz-adv-x="790" 
d="M508 1100q0 -59 -41 -80q-10 -4 -39 -7t-39 1q-45 20 -45 73q-4 33 16 57t76 23q72 0 72 -67zM396 758q-77 0 -126 -67t-55 -185q0 -12 6 -12q45 -4 180 1t166 13q12 6 13 16q-10 92 -58 163t-126 71zM428 -25q-162 0 -250 99q-106 115 -106 313q0 316 280 405
q63 19 105 19q88 0 150 -52q62 -53 86 -109t34 -118q4 -14 25 -16q6 -20 -9 -27q-109 -37 -522 -47q-12 0 -12 -22q4 -137 82 -233q78 -97 215 -97t227 86q8 0 10 -12t-6 -29q-147 -160 -309 -160z" />
    <glyph glyph-name="uni0118" unicode="&#x118;" horiz-adv-x="1034" 
d="M8 10q0 14 4 17q102 8 134 17t48 33q15 25 19 103t4 459t-4 451t-15 90t-48 28q-29 10 -93 17q-4 4 -3 15t5 15l232 -6h391q164 0 215 8l6 -6q-20 -74 -37 -270q-4 -4 -17 -4t-18 2q-10 153 -56 190q-22 17 -68 21q-45 4 -163 4t-147 -4q-20 -2 -20 -29q-2 -63 -4 -251
t-1 -214q1 -24 11 -24q41 -2 155 -2t158 3t65 24q22 21 44 120q4 2 19 2t18 -2q-14 -82 -15 -184l4 -170q-4 -6 -18 -6t-16 4q-8 49 -15 74q-16 63 -82 69q-182 9 -317 2q-10 0 -12 -56t6 -413q2 -63 47 -71q61 -12 210 -13t186 25q73 45 145 217q2 2 14 -4t14 -10
q-6 -35 -34 -128t-48 -137q-12 -20 -71 -22q-100 -117 -101 -209q0 -76 88 -76q49 0 95 35q8 -18 -2 -41q-63 -98 -172 -98q-51 0 -90 33q-38 33 -37 98q0 94 180 258l-508 6l-281 -6q-4 2 -4 16z" />
    <glyph glyph-name="uni0119" unicode="&#x119;" horiz-adv-x="790" 
d="M397 758q-76 0 -126 -71t-56 -187q0 -8 6 -8q293 6 352 16q8 4 9 16q-8 90 -58 162t-127 72zM434 -188q0 -74 84 -74q47 0 92 33q2 -3 0 -19t-4 -20q-59 -94 -162 -94q-49 0 -85 32t-35 94q0 94 155 218q-31 -6 -61 -7q-152 0 -240 99q-106 115 -106 313q0 246 176 361
q94 63 196 63t163 -52q62 -53 86 -109t34 -118q4 -14 25 -16q6 -20 -9 -27q-39 -14 -220 -28t-302 -19q-12 0 -12 -22q4 -137 82 -233q78 -97 215 -97t227 86q8 0 10 -12t-6 -29q-84 -94 -194 -135q-109 -92 -109 -188z" />
    <glyph glyph-name="uni011A" unicode="&#x11a;" horiz-adv-x="1034" 
d="M764 1561q8 -1 13 -11t3 -16q-161 -127 -235 -197q-8 -8 -25 -8q-16 18 -116 98t-136 107q0 6 6 16t12 10t109 -43q101 -45 121 -55t29 -4q211 103 219 103zM682 1249q164 0 215 8l6 -6q-20 -76 -37 -268q-4 -4 -17 -4t-18 2q-11 149 -55 188q-20 17 -68 21t-166 4
q-116 0 -145 -4q-20 -2 -20 -29q-2 -63 -4 -253t-1 -212q1 -24 9 -24q41 -2 156 -2t164 4t71 39q21 35 33 104q4 2 19 2t18 -2q-14 -86 -15 -184l4 -170q-4 -6 -18 -6t-16 4q-6 43 -15 71q-16 66 -82 72q-178 9 -317 2q-10 0 -12 -56t6 -413q2 -63 47 -71q61 -12 210 -13
t186 25q73 45 145 217q2 2 14 -4t14 -10q-6 -43 -36 -137t-46 -128q-10 -16 -28 -19t-92 -3l-498 6l-281 -6q-4 2 -4 15t4 18q102 8 134 17t48 33q15 25 19 103t4 459t-4 451t-15 90t-48 28q-30 11 -93 17q-4 4 -3 15t5 15l232 -6h391z" />
    <glyph glyph-name="uni011B" unicode="&#x11b;" horiz-adv-x="790" 
d="M430 1018q25 45 67 106q41 62 61 78t35 16t15 -6q-141 -227 -172 -307q-2 -4 -15 -9t-20 -5q-25 61 -83 167t-82 142q10 16 61 17q10 -6 56 -80t69 -119q4 -4 8 0zM396 758q-77 0 -126 -67t-55 -185q0 -12 6 -12q45 -4 180 1t166 13q12 6 13 16q-10 92 -58 163t-126 71z
M428 -25q-162 0 -250 99q-106 115 -106 313q0 316 280 405q63 19 105 19q88 0 150 -52q62 -53 86 -109t34 -118q4 -14 25 -16q6 -20 -9 -27q-109 -37 -522 -47q-12 0 -12 -22q4 -137 82 -233q78 -97 215 -97t227 86q8 0 10 -12t-6 -29q-147 -160 -309 -160z" />
    <glyph glyph-name="uni011C" unicode="&#x11c;" horiz-adv-x="1361" 
d="M1010 1354q-6 0 -110 44t-128 58q-14 4 -36 -7t-110 -53q-90 -42 -96 -42t-11 10t-3 16q179 140 236 197q8 8 24 8q16 -18 116 -98t136 -107q0 -6 -6 -16t-12 -10zM1315 500q0 -12 -4 -17q-47 -10 -71 -17t-33 -31q-9 -25 -15 -137t0 -158t13 -55t34 -17q2 -4 0 -16
t-4 -13q-293 -76 -426 -76q-346 0 -527 169t-182 503q0 195 94 347t264 228q169 76 390 76q90 0 229 -22t148 -21q-25 -94 -33 -299q-4 -6 -17 -7t-22 3q-8 111 -31 161t-67 75q-98 59 -281 59q-238 0 -362 -155q-124 -154 -125 -434q0 -280 144 -458t405 -178q92 0 143 20
t57 95q23 260 -15 316q-19 28 -122 38q-22 2 -41 4q-4 5 -4 17t4 16l260 -6q123 0 193 6q4 -4 4 -16z" />
    <glyph glyph-name="uni011D" unicode="&#x11d;" horiz-adv-x="829" 
d="M397 1098q-25 -46 -67 -106t-58 -76t-34 -16t-17 5q141 227 172 307q8 14 37 15q23 -61 81 -167t83 -142q-10 -16 -62 -17q-10 6 -57 80t-69 117q-5 4 -9 0zM456 -500q134 0 196 60t62 166t-106 145q-88 39 -250 39q-43 0 -73 -21q-117 -78 -117 -168t74 -155
q80 -66 214 -66zM422 238q149 0 149 233q0 113 -51 199t-160 86q-70 0 -108 -62t-37 -174q0 -110 54 -196t153 -86zM440 811q64 1 134 -27t130 -28t84 8t46 31q2 2 8 -2q6 -5 6 -13t-16 -46t-36 -52t-50 -14t-64 2q-6 0 -2 -11q25 -53 25 -135q0 -172 -117 -260
q-112 -88 -252 -88q-18 -2 -40 -18t-22 -42t24 -42t50 -20t155 -15q128 -10 179 -27q150 -49 149 -202q0 -104 -66 -194q-67 -89 -173 -145q-106 -57 -232 -57t-222 71t-97 189q0 55 14 72q35 41 203 170q0 2 -2 6q-59 16 -98 58t-39 81q0 8 4 25q145 83 145 94q0 4 -4 4
q-188 70 -188 299q0 147 112 240q49 37 119 63q69 26 133 25z" />
    <glyph glyph-name="uni011E" unicode="&#x11e;" horiz-adv-x="1361" 
d="M793 1454q59 0 99 20t81 70q17 18 29 18t12 -6q-33 -78 -102 -130q-68 -52 -156 -52t-145 37q-56 37 -56 92q0 9 14 29t27 31h7q3 0 7 -2h2q38 -107 181 -107zM1315 500q0 -12 -4 -17q-47 -10 -71 -17t-33 -31q-9 -25 -15 -137t0 -158t13 -55t34 -17q2 -4 0 -16t-4 -13
q-293 -76 -426 -76q-346 0 -527 169t-182 503q0 195 94 347t264 228q169 76 390 76q90 0 229 -22t148 -21q-25 -94 -33 -299q-4 -6 -17 -7t-22 3q-8 111 -31 161t-67 75q-98 59 -281 59q-238 0 -362 -155q-124 -154 -125 -434q0 -280 144 -458t405 -178q92 0 143 20t57 95
q23 260 -15 316q-19 28 -122 38q-22 2 -41 4q-4 5 -4 17t4 16l260 -6q123 0 193 6q4 -4 4 -16z" />
    <glyph glyph-name="uni011F" unicode="&#x11f;" horiz-adv-x="829" 
d="M440 1026q100 0 158 102q16 25 28 25t11 -8q-25 -86 -89 -145q-65 -58 -143 -58q-77 0 -127 40t-51 101q0 31 56 68q12 0 12 -4q26 -121 145 -121zM456 -500q134 0 196 60t62 166t-106 145q-88 39 -250 39q-43 0 -73 -21q-117 -78 -117 -168t74 -155q80 -66 214 -66z
M422 238q149 0 149 233q0 113 -51 199t-160 86q-70 0 -108 -62t-37 -174q0 -110 54 -196t153 -86zM440 811q64 1 134 -27t130 -28t84 8t46 31q2 2 8 -2q6 -5 6 -13t-16 -46t-36 -52t-50 -14t-64 2q-6 0 -2 -11q25 -53 25 -135q0 -172 -117 -260q-112 -88 -252 -88
q-18 -2 -40 -18t-22 -42t24 -42t50 -20t155 -15q128 -10 179 -27q150 -49 149 -202q0 -104 -66 -194q-67 -89 -173 -145q-106 -57 -232 -57t-222 71t-97 189q0 55 14 72q35 41 203 170q0 2 -2 6q-59 16 -98 58t-39 81q0 8 4 25q145 83 145 94q0 4 -4 4q-188 70 -188 299
q0 147 112 240q49 37 119 63q69 26 133 25z" />
    <glyph glyph-name="uni0120" unicode="&#x120;" horiz-adv-x="1361" 
d="M782 1532q70 0 70 -66q0 -61 -39 -80q-10 -4 -38 -7t-38 1q-45 20 -45 64t10 57q31 31 80 31zM1315 500q0 -12 -4 -17q-47 -10 -71 -17t-33 -31q-9 -25 -15 -137t0 -158t13 -55t34 -17q2 -4 0 -16t-4 -13q-293 -76 -426 -76q-346 0 -527 169t-182 503q0 195 94 347
t264 228q169 76 390 76q90 0 229 -22t148 -21q-25 -94 -33 -299q-4 -6 -17 -7t-22 3q-8 111 -31 161t-67 75q-98 59 -281 59q-238 0 -362 -155q-124 -154 -125 -434q0 -280 144 -458t405 -178q92 0 143 20t57 95q23 260 -15 316q-19 28 -122 38q-22 2 -41 4q-4 5 -4 17t4 16
l260 -6q123 0 193 6q4 -4 4 -16z" />
    <glyph glyph-name="uni0121" unicode="&#x121;" horiz-adv-x="829" 
d="M500 1100q0 -61 -41 -80q-8 -4 -37 -7t-41 1q-45 20 -45 65t10 58q27 31 68 31t69 -19q17 -16 17 -49zM456 -500q134 0 196 60t62 166t-106 145q-88 39 -250 39q-43 0 -73 -21q-117 -78 -117 -168t74 -155q80 -66 214 -66zM422 238q149 0 149 233q0 113 -51 199t-160 86
q-70 0 -108 -62t-37 -174q0 -110 54 -196t153 -86zM440 811q64 1 134 -27t130 -28t84 8t46 31q2 2 8 -2q6 -5 6 -13t-16 -46t-36 -52t-50 -14t-64 2q-6 0 -2 -11q25 -53 25 -135q0 -172 -117 -260q-112 -88 -252 -88q-18 -2 -40 -18t-22 -42t24 -42t50 -20t155 -15
q128 -10 179 -27q150 -49 149 -202q0 -104 -66 -194q-67 -89 -173 -145q-106 -57 -232 -57t-222 71t-97 189q0 55 14 72q35 41 203 170q0 2 -2 6q-59 16 -98 58t-39 81q0 8 4 25q145 83 145 94q0 4 -4 4q-188 70 -188 299q0 147 112 240q49 37 119 63q69 26 133 25z" />
    <glyph glyph-name="uni0122" unicode="&#x122;" horiz-adv-x="1361" 
d="M777 -98q26 0 56 -35q29 -35 29 -103t-55 -124q-55 -55 -141 -78q-2 0 -8 10q-5 10 -5 14q127 54 127 132t-102 106q-2 2 -2 15t38 38t63 25zM1315 500q0 -12 -4 -17q-47 -10 -71 -17t-33 -31q-9 -25 -15 -137t0 -158t13 -55t34 -17q2 -4 0 -16t-4 -13q-293 -76 -426 -76
q-346 0 -527 169t-182 503q0 195 94 347t264 228q169 76 390 76q90 0 229 -22t148 -21q-25 -94 -33 -299q-4 -6 -17 -7t-22 3q-8 111 -31 161t-67 75q-98 59 -281 59q-238 0 -362 -155q-124 -154 -125 -434q0 -280 144 -458t405 -178q92 0 143 20t57 95q23 260 -15 316
q-19 28 -122 38q-22 2 -41 4q-4 5 -4 17t4 16l260 -6q123 0 193 6q4 -4 4 -16z" />
    <glyph glyph-name="uni0123" unicode="&#x123;" horiz-adv-x="829" 
d="M456 -500q134 0 196 60t62 166t-106 145q-88 39 -250 39q-43 0 -73 -21q-117 -78 -117 -168t74 -155q80 -66 214 -66zM422 238q149 0 149 233q0 113 -51 199t-160 86q-70 0 -108 -62t-37 -174q0 -110 54 -196t153 -86zM440 811q64 1 134 -27t130 -28t84 8t46 31q2 2 8 -2
q6 -5 6 -13t-16 -46t-36 -52t-50 -14t-64 2q-6 0 -2 -11q25 -53 25 -135q0 -172 -117 -260q-112 -88 -252 -88q-18 -2 -40 -18t-22 -42t24 -42t50 -20t155 -15q128 -10 179 -27q150 -49 149 -202q0 -104 -66 -194q-67 -89 -173 -145q-106 -57 -232 -57t-222 71t-97 189
q0 55 14 72q35 41 203 170q0 2 -2 6q-59 16 -98 58t-39 81q0 8 4 25q145 83 145 94q0 4 -4 4q-188 70 -188 299q0 147 112 240q49 37 119 63q69 26 133 25zM388 922q-26 0 -56 38t-29 96q0 60 52 114t137 75q12 -4 12 -33q-125 -45 -125 -120q0 -63 113 -88v-15
q-14 -23 -46 -45t-58 -22z" />
    <glyph glyph-name="uni0124" unicode="&#x124;" horiz-adv-x="1439" 
d="M489 1341q-8 -1 -13 9t-3 18q150 111 236 197q8 8 24 8q19 -19 117 -101t135 -104q0 -6 -6 -16t-12 -10q-7 0 -109 43t-120 53t-29 6q-212 -103 -220 -103zM375 694q0 -12 11 -16q10 -4 330 -4t336 1t15 11q0 378 -4 442t-43 78q-45 12 -100 17q-4 4 -6 16q-1 12 6 16
l235 -6l225 6q12 -20 0 -32q-80 -13 -102 -21t-33 -27q-12 -19 -14 -77q-6 -233 -6 -543q0 -311 5 -385t15 -94t39 -30t111 -19q4 -5 2 -17t-6 -16l-236 6q-96 0 -244 -6q-12 16 0 33q72 8 101 16q29 9 40 29t13 78t2 440q0 14 -10 14q-31 2 -343 2t-331 -4q-8 0 -8 -12
q0 -427 4 -447t5 -32q1 -13 3 -17t5 -12q10 -28 51 -38q40 -11 98 -17q4 -3 1 -17t-7 -16q-171 6 -257 6t-227 -6q-4 2 -4 15t4 18q59 6 99 18t51 43q10 31 13 104t3 464q0 390 -5 464t-52 86q-23 7 -109 17q-12 12 0 32l248 -6q51 0 223 6q4 -4 3 -17t-5 -15
q-104 -9 -127 -42q-12 -17 -15 -86t-3 -401z" />
    <glyph glyph-name="uni0125" unicode="&#x125;" horiz-adv-x="948" 
d="M23 10q0 12 4 17q53 8 67 12q41 12 43 96q4 49 4 539t-10 579q-6 41 -41 52q-10 2 -78 10q-2 4 -2 14t2 14q158 10 281 66q8 -4 8 -18q-16 -29 -18 -179v-524q0 -6 8 -2q161 125 277 125t177 -83t62 -236q0 -305 1 -363t15 -72q27 -20 105 -30q2 -7 0 -19t-6 -14l-195 6
q-96 0 -182 -6q-4 2 -4 15t4 18q74 12 87 19q13 8 20 26t10 82q6 334 -8 403t-60 113q-45 44 -133 45q-88 0 -154 -58q-25 -18 -24 -45q0 -426 4 -477t14 -69t39 -26t68 -13q4 -3 4 -15t-4 -16l-68 2q-68 2 -137 2l-178 -6q-2 4 -2 16zM440 1407q-12 0 -115 42t-119 50
t-26 4q-193 -96 -215 -96q-4 0 -9 9t-3 16q35 20 121 84t100 75q14 12 33 17q17 -16 113 -86t131 -92q1 -23 -11 -23z" />
    <glyph glyph-name="Hbar" unicode="&#x126;" horiz-adv-x="1439" 
d="M1067 545q0 14 -10 14q-66 4 -363 4t-311 -4q-8 0 -8 -12q0 -384 4 -404t5 -32q1 -13 3 -17t5 -12q10 -28 48 -38q37 -11 101 -17q4 -3 1 -17t-7 -16q-197 6 -270 6t-214 -6q-6 2 -6 16t6 17q59 6 99 18t51 43q10 31 13 104t3 449v213h-133q0 41 12 53h121v87l-2 122
q-4 74 -55 90q-16 4 -51 8t-58 9q-12 12 0 32l248 -6q51 0 223 6q4 -4 3 -16t-5 -14q-78 -13 -96 -19t-34 -27q-15 -21 -15 -272l692 2q2 119 -4 228q-4 55 -43 69q-37 10 -100 19q-4 4 -5 15q0 11 5 15l235 -6l225 6q4 -4 4 -15t-4 -15q-70 -13 -96 -21q-53 -17 -57 -93
q-4 -77 -4 -202h133q0 -33 -8 -53h-123v-246q0 -366 5 -440t15 -94t39 -30t111 -19q4 -5 3 -17t-7 -16l-236 6q-96 0 -244 -6q-16 16 0 33q72 8 101 16q29 7 40 27t13 79t2 396zM692 629q289 0 363 4q12 0 12 16v207l-692 -2v-205q2 -10 10 -14q18 -6 307 -6z" />
    <glyph glyph-name="hbar" unicode="&#x127;" horiz-adv-x="948" 
d="M139 1083q0 85 -5 147t-36 72t-86 13q-4 2 -3 13t5 15q145 8 279 66q8 -4 8 -16q-16 -33 -18 -172l-2 -140l231 2q0 -25 -8 -49h-223l2 -346q0 -6 8 -2q161 125 277 125t177 -83t62 -236q0 -303 1 -363t15 -72q27 -23 105 -30q2 -7 0 -19t-6 -14l-195 6q-96 0 -182 -6
q-4 2 -4 15t4 18q66 12 83 18q17 5 24 25t10 84q6 334 -8 403t-61 113q-46 44 -132 45q-86 0 -156 -60q-23 -16 -22 -45q0 -424 4 -475t14 -69t37 -26t70 -13q4 -3 4 -15t-4 -16l-205 4l-178 -6q-4 2 -3 16t5 17q53 8 67 12q41 12 44 103t3 343l-2 549l-116 -2q4 41 12 51
h104z" />
    <glyph glyph-name="uni0128" unicode="&#x128;" horiz-adv-x="589" 
d="M410 1444q68 0 135 59l8 -22v-6q-21 -37 -81 -76t-102 -39t-113 20q-72 20 -93 21q-55 0 -119 -53q-5 -5 -10 10q-4 16 -2 20q17 27 77 66t101 39q41 1 107 -19t92 -20zM51 1240q0 11 4 15l248 -6l215 6q10 -16 2 -30q-62 -8 -90 -16q-29 -9 -38 -31q-19 -48 -19 -540
t7 -523q14 -60 60 -72q27 -8 101 -16q4 -5 3 -17t-5 -16l-222 6l-260 -6q-12 12 0 33q120 10 139 43q11 20 16 86t5 462q0 394 -4 488l-4 31q0 44 -28 60q-28 17 -126 28q-4 4 -4 15z" />
    <glyph glyph-name="uni0129" unicode="&#x129;" horiz-adv-x="436" 
d="M336 1081q61 0 119 58q11 -11 2 -35q-19 -33 -73 -70t-90 -37q-36 -1 -102 19t-104 20q-37 0 -96 -53q-2 -2 -8 4q0 25 6 31q14 28 66 64t88 36t102 -18t90 -19zM29 10q0 14 2 17q55 4 80 16q35 15 37 75t4 274q0 214 -1 244t-15 48t-81 37q-2 4 -2 16t2 15
q150 16 244 61q-4 -111 -4 -357t2 -343q0 -55 43 -72q35 -10 74 -14q0 -31 -6 -33l-187 6l-190 -6q-2 2 -2 16z" />
    <glyph glyph-name="uni012A" unicode="&#x12a;" horiz-adv-x="589" 
d="M520 1460q0 -18 -12 -45t-19 -29q-29 -6 -348 -6l-69 2q1 29 28 80l101 -2h319zM51 1240q0 11 4 15l248 -6l215 6q10 -16 2 -30q-62 -8 -90 -16q-29 -9 -38 -31q-19 -48 -19 -540t7 -523q14 -60 60 -72q27 -8 101 -16q4 -5 3 -17t-5 -16l-222 6l-260 -6q-12 12 0 33
q120 10 139 43q11 20 16 86t5 462q0 394 -4 488l-4 31q0 44 -28 60q-28 17 -126 28q-4 4 -4 15z" />
    <glyph glyph-name="uni012B" unicode="&#x12b;" horiz-adv-x="436" 
d="M123 1096h291q0 -16 -10 -44t-15 -30q-25 -6 -191 -6t-184 4q2 10 25 80q16 -4 84 -4zM29 10q0 14 2 17q55 4 80 16q35 15 37 75t4 274q0 214 -1 244t-15 48t-81 37q-2 4 -2 16t2 15q150 16 244 61q-4 -111 -4 -357t2 -343q0 -55 43 -72q35 -10 74 -14q0 -31 -6 -33
l-187 6l-190 -6q-2 2 -2 16z" />
    <glyph glyph-name="uni012C" unicode="&#x12c;" horiz-adv-x="589" 
d="M317 1417q106 0 181 90q18 19 29 19t12 -6q-33 -78 -102 -130t-157 -52t-144 36q-56 37 -56 92q0 29 41 60h7q3 0 7 -2h2q37 -107 180 -107zM51 1240q0 11 4 15l248 -6l215 6q10 -16 2 -30q-62 -8 -90 -16q-29 -9 -38 -31q-19 -48 -19 -540t7 -523q14 -60 60 -72
q27 -8 101 -16q4 -5 3 -17t-5 -16l-222 6l-260 -6q-12 12 0 33q120 10 139 43q11 20 16 86t5 462q0 394 -4 488l-4 31q0 44 -28 60q-28 17 -126 28q-4 4 -4 15z" />
    <glyph glyph-name="uni012D" unicode="&#x12d;" horiz-adv-x="436" 
d="M220 1026q110 0 165 102q25 25 32 25t7 -8q-23 -86 -87 -145q-65 -58 -143 -58t-128 39t-50 102q0 33 56 68q12 0 12 -4q26 -121 136 -121zM29 10q0 14 2 17q55 4 80 16q35 15 37 75t4 274q0 214 -1 244t-15 48t-81 37q-2 4 -2 16t2 15q150 16 244 61q-4 -111 -4 -357
t2 -343q0 -55 43 -72q35 -10 74 -14q0 -31 -6 -33l-187 6l-190 -6q-2 2 -2 16z" />
    <glyph glyph-name="uni012E" unicode="&#x12e;" horiz-adv-x="589" 
d="M266 -209q0 -79 96 -81q42 0 89 34q2 -6 1 -22t-3 -19q-64 -98 -173 -98q-51 0 -89 33t-37 98q0 100 169 264l-262 -6q-12 12 0 33q120 10 139 43q11 20 16 86t5 462q0 394 -4 488l-4 31q0 44 -26 59q-26 16 -128 29q-4 4 -4 15t4 15l248 -6l215 6q10 -16 2 -30
q-62 -8 -90 -16q-29 -9 -38 -31q-19 -48 -19 -540t7 -523q14 -60 60 -72q27 -8 101 -16q4 -5 3 -17t-5 -16l-181 6q-92 -113 -92 -209z" />
    <glyph glyph-name="uni012F" unicode="&#x12f;" horiz-adv-x="436" 
d="M299 1104q0 -63 -43 -84q-8 -6 -36 -9q-85 -9 -85 76q-4 29 10 50q27 31 82 30q72 0 72 -63zM180 -199q0 -77 90 -79q42 0 86 34q6 -19 -2 -39q-62 -94 -164 -94q-49 0 -85 31q-35 31 -35 92t54 134t112 120l-205 -6q-2 2 -2 16t2 17q55 4 80 16q35 15 37 75t4 274
q0 214 -1 244t-15 48t-81 37q-2 4 -2 16t2 15q150 16 244 61q-4 -111 -4 -357t2 -343q0 -55 35 -67t98 -19q0 -31 -6 -33l-156 6q-88 -109 -88 -199z" />
    <glyph glyph-name="uni0130" unicode="&#x130;" horiz-adv-x="589" 
d="M375 1448q0 -59 -39 -80q-10 -4 -38 -7t-38 1q-45 20 -45 64q-1 44 19 66t71 21q70 0 70 -65zM51 1240q0 11 4 15l248 -6l215 6q10 -16 2 -30q-62 -8 -90 -16q-29 -9 -38 -31q-19 -48 -19 -540t7 -523q14 -60 60 -72q27 -8 101 -16q4 -5 3 -17t-5 -16l-222 6l-260 -6
q-12 12 0 33q120 10 139 43q11 20 16 86t5 462q0 394 -4 488l-4 31q0 44 -28 60q-28 17 -126 28q-4 4 -4 15z" />
    <glyph glyph-name="dotlessi" unicode="&#x131;" horiz-adv-x="436" 
d="M29 10q0 14 2 17q55 4 80 16q35 15 37 75t4 274q0 214 -1 244t-15 48t-81 37q-2 4 -2 16t2 15q150 16 244 61q-4 -111 -4 -357t2 -343q0 -55 43 -72q35 -10 74 -14q0 -31 -6 -33l-187 6l-190 -6q-2 2 -2 16z" />
    <glyph glyph-name="IJ" unicode="&#x132;" horiz-adv-x="1171" 
d="M1135 1239q0 -12 -5 -14q-78 -10 -108 -25q-29 -16 -33 -84q0 -646 -8 -895q-8 -250 -73 -382t-165 -212t-196 -80q-45 1 -80 17t-45 41v24q10 70 35 109q111 -84 182 -84t115 45q70 76 69 334q4 184 2 580q-2 397 -6 447q-6 71 -11 94q-9 40 -52 52q-11 3 -111 19
q-4 4 -4 15t4 15l254 -6l234 6q2 -4 2 -16zM51 1240q0 11 4 15l248 -6l215 6q10 -16 2 -30q-62 -8 -90 -16q-29 -9 -38 -31q-19 -48 -19 -540t7 -523q14 -60 60 -72q27 -8 101 -16q4 -5 3 -17t-5 -16l-222 6l-260 -6q-12 12 0 33q120 10 139 43q11 20 16 86t5 462
q0 394 -4 488l-4 31q0 44 -28 60q-28 17 -126 28q-4 4 -4 15z" />
    <glyph glyph-name="ij" unicode="&#x133;" horiz-adv-x="872" 
d="M735 239q0 -254 -12 -335q-19 -158 -107 -289t-178 -184q-32 0 -32 24q102 74 144 185t42 325q0 641 -5 679t-34 52q-33 14 -86 21q-4 6 -4 18t4 17q165 8 276 61q-8 -320 -8 -574zM735 1099q0 -44 -28 -71q-8 -6 -41 -13t-41 -3q-47 18 -49 66t8 55q31 35 81 35t60 -13
q10 -12 10 -56zM29 10q0 14 2 17q55 4 80 16q35 15 37 75t4 274q0 214 -1 244t-15 48t-81 37q-2 4 -2 16t2 15q150 16 244 61q-4 -111 -4 -357t2 -343q0 -55 43 -72q35 -10 76 -14q0 -31 -6 -33l-189 6l-190 -6q-2 2 -2 16zM299 1104q0 -63 -43 -84q-8 -6 -36 -9
q-85 -9 -85 76q-4 29 10 50q27 31 82 30q72 0 72 -63z" />
    <glyph glyph-name="uni0134" unicode="&#x134;" horiz-adv-x="581" 
d="M60 1333q-6 0 -12 10q-5 10 -3 19q164 121 236 197q8 8 24 8q17 -21 115 -101t137 -104q0 -6 -6 -17t-12 -11q-5 0 -109 43q-104 44 -129 59q-15 4 -33 -6t-110 -54t-98 -43zM545 1240q0 -11 -4 -15q-78 -10 -109 -25q-29 -16 -32 -70t-5 -439q-2 -384 -6 -478
q-7 -242 -71 -374t-164 -212t-198 -80t-124 58v24q10 66 33 109q115 -84 184 -84t113 45q72 76 71 334q4 184 2 581t-7 458q-5 60 -10 82q-9 40 -52 52q-13 5 -111 19q-4 4 -4 15t4 15l254 -6l232 6q4 -4 4 -15z" />
    <glyph glyph-name="uni0135" unicode="&#x135;" horiz-adv-x="434" 
d="M197 1100q-82 -150 -121 -180q-18 -18 -36 -18t-17 5q139 227 172 305q2 4 15 10t19 7q25 -63 83 -169t83 -140q-3 -6 -29 -12t-34 -5q-8 6 -57 80q-48 74 -70 117q-4 4 -8 0zM-33 -550q0 3 2 5q102 74 144 185q41 111 41 325q0 641 -4 678t-34 52t-85 22q-2 6 -2 18
t2 17q161 8 276 61q-8 -182 -8 -717q-6 -133 -12 -192q-19 -158 -109 -289t-178 -184q-12 0 -22 8t-11 11z" />
    <glyph glyph-name="uni0136" unicode="&#x136;" horiz-adv-x="1222" 
d="M701 -53q26 0 56 -35t29 -90q0 -158 -198 -217q-4 2 -8 12t-2 12q124 53 124 131t-100 109q-18 18 27 48q46 30 72 30zM741 1255l201 -6q137 0 223 6q4 -4 5 -15t-5 -15q-86 -12 -128 -36t-109 -99q-281 -313 -369 -402v-6q31 -60 233 -288t291 -302q31 -27 70 -45
t147 -20q4 -3 4 -17t-6 -16q-61 -6 -176 -4q-114 2 -148 13t-102 71t-215 232q-147 173 -231 284q-12 16 -31 28q0 12 6 19q68 27 187 147t235 269q57 78 57 117t-141 55q-4 4 -3 15t5 15zM516 1241q0 -12 -4 -16q-60 -7 -84 -15q-41 -13 -48 -58q-7 -44 -7 -439
q0 -393 3 -503t16 -136t45 -33q32 -8 106 -16q4 -3 2 -15t-6 -16l-256 6l-236 -6q-2 2 -2 14t2 17q83 10 105 15q43 10 54 63t11 487t-3 502t-19 94q-16 25 -72 31t-64 8q-2 4 -2 15t2 15l236 -6l217 6q4 -2 4 -14z" />
    <glyph glyph-name="uni0137" unicode="&#x137;" horiz-adv-x="862" 
d="M482 -59q26 0 56 -35t29 -92q0 -156 -198 -215q-4 2 -9 12q-4 10 -2 12q125 53 125 131t-100 109q-18 18 27 48q46 30 72 30zM141 679q0 505 -5 563t-40 69q-20 6 -78 10q-4 4 -4 15t4 16q176 14 275 57q10 0 10 -12q-16 -29 -19 -198t-3 -781q53 12 98 49q59 53 132 136
t73 106q0 33 -119 41q-2 2 -1 16t3 16q215 0 342 19q4 -3 5 -17t-3 -18q-102 -20 -156 -76q-27 -26 -105 -106t-110 -111q-4 -8 0 -12q53 -82 162 -214t155 -169q45 -37 73 -44t77 -7q4 -1 3 -15t-5 -18q-20 -4 -188 -4q-68 2 -107 41q-35 30 -133 161q-98 132 -125 164
t-71 33q0 -193 3 -251t14 -76q12 -18 36 -23q24 -6 78 -12q8 -16 -2 -33l-199 6l-186 -6q-4 2 -5 16q0 14 5 17q55 8 71 14q39 17 42 75t3 563z" />
    <glyph glyph-name="uni0138" unicode="&#x138;" horiz-adv-x="860" 
d="M152 569q0 82 -3 108t-25 37t-85 25q-2 3 -1 15t5 14q115 4 258 39q0 -4 -6 -111v-301q77 29 189 153t112 150t-21 33q-25 10 -81 17q-4 4 -5 17q0 13 5 15q121 -2 313 8q6 -4 5 -16t-5 -16q-59 -10 -86 -24t-59 -46q-125 -139 -211 -227q-6 -6 -2 -13q66 -90 192 -242
t182 -166q27 -7 86 -11q2 -5 1 -17t-5 -16q-39 -8 -198 -8q-61 0 -91 37q-96 96 -268 327q-20 20 -53 15q0 -280 9 -299t40 -26t78 -13q2 -3 1 -17t-5 -16l-199 6l-182 -6q-4 2 -5 16t3 17q90 7 104 39q8 18 11 61l2 271v171z" />
    <glyph glyph-name="uni0139" unicode="&#x139;" horiz-adv-x="1042" 
d="M563 1522q0 -6 -10 -16t-145 -97q-136 -86 -144 -86t-14 9t-4 14q16 25 104 122t109 109q16 -2 53 -18q37 -15 44 -23t7 -14zM33 9q0 13 4 18q93 12 117 17q50 11 57 91q6 81 6 489t-3 468t-13 84q-10 23 -56 32q-4 1 -96 17q-2 2 -2 15t4 15l238 -6l227 6q4 -2 5 -15
t-5 -15q-61 -9 -90 -17t-37 -26t-10 -64l-4 -461q-4 -342 4 -528q2 -49 35 -59q28 -12 156 -16t188 0q60 3 110 63q68 76 125 219q3 4 17 0t16 -10q-12 -62 -44 -166t-52 -144q-18 -25 -82 -24l-561 8l-250 -6q-4 2 -4 15z" />
    <glyph glyph-name="uni013A" unicode="&#x13a;" horiz-adv-x="423" 
d="M442 1628q0 -6 -10 -16t-145 -96t-143 -86t-15 9q-6 9 -6 13q25 33 109 126q86 93 106 105q16 -2 53 -18q37 -15 44 -23t7 -14zM141 684q0 490 -6 544t-30 62t-82 15q-4 4 -5 14q0 10 5 14q139 14 268 76q8 -4 8 -10q-18 -63 -18 -169v-550q0 -456 5 -522t12 -85
q14 -39 112 -46q2 -3 0 -17t-4 -16l-191 6l-195 -6q-7 21 -2 33q59 6 88 21t32 80q3 66 3 556z" />
    <glyph glyph-name="uni013B" unicode="&#x13b;" horiz-adv-x="1042" 
d="M552 -74q26 0 56 -35t29 -103q0 -68 -56 -123q-56 -54 -143 -79q-2 0 -7 10t-3 15q125 53 125 131t-100 106q-19 19 27 48q46 30 72 30zM33 9q0 13 4 18q93 12 117 17q50 11 57 91q6 81 6 489t-3 468t-13 84q-10 23 -56 32q-4 1 -96 17q-2 2 -2 15t4 15l238 -6l227 6
q4 -2 5 -15t-5 -15q-61 -9 -90 -17t-37 -26t-10 -64l-4 -461q-4 -342 4 -528q2 -49 35 -59q28 -12 156 -16t188 0q60 3 110 63q68 76 125 219q3 4 17 0t16 -10q-12 -62 -44 -166t-52 -144q-18 -25 -82 -24l-561 8l-250 -6q-4 2 -4 15z" />
    <glyph glyph-name="uni013C" unicode="&#x13c;" horiz-adv-x="423" 
d="M220 -61q26 0 56 -35q30 -36 29 -104q0 -68 -55 -124t-141 -77q-2 0 -9 10q-6 10 -4 14q127 55 127 132t-102 106q-18 18 27 48q46 30 72 30zM141 684q0 490 -6 544t-30 62t-82 15q-4 4 -5 14q0 10 5 14q139 14 268 76q8 -4 8 -10q-18 -63 -18 -169v-550q0 -456 5 -522
t12 -85q14 -39 112 -46q2 -3 0 -17t-4 -16l-191 6l-195 -6q-7 21 -2 33q59 6 88 21t32 80q3 66 3 556z" />
    <glyph glyph-name="uni013D" unicode="&#x13d;" horiz-adv-x="1042" 
d="M783 1317q20 0 4 -164q-15 -164 -26 -210t-27 -55t-15 1q0 86 -23 334q0 18 38 56t49 38zM33 9q0 13 4 18q93 12 117 17q50 11 57 91q6 81 6 489t-3 468t-13 84q-10 23 -56 32q-4 1 -96 17q-2 2 -2 15t4 15l238 -6l227 6q4 -2 5 -15t-5 -15q-61 -9 -90 -17t-37 -26
t-10 -64l-4 -461q-4 -342 4 -528q2 -49 35 -59q28 -12 156 -16t188 0q60 3 110 63q68 76 125 219q3 4 17 0t16 -10q-12 -62 -44 -166t-52 -144q-18 -25 -82 -24l-561 8l-250 -6q-4 2 -4 15z" />
    <glyph glyph-name="uni013E" unicode="&#x13e;" horiz-adv-x="423" 
d="M476 1430q11 0 11 -40t-11 -164t-23 -179q-10 -33 -33 -50q-8 -4 -8 7q0 84 -23 331q0 19 38 57t49 38zM141 684q0 490 -6 544t-30 62t-82 15q-4 4 -5 14q0 10 5 14q139 14 268 76q8 -4 8 -10q-18 -63 -18 -169v-550q0 -456 5 -522t12 -85q14 -39 112 -46q2 -3 0 -17
t-4 -16l-191 6l-195 -6q-7 21 -2 33q59 6 88 21t32 80q3 66 3 556z" />
    <glyph glyph-name="Ldot" unicode="&#x13f;" horiz-adv-x="1042" 
d="M870 645q0 -59 -41 -80q-9 -6 -37 -9t-38 3q-41 19 -43 63q-4 90 80 89q79 0 79 -66zM33 9q0 13 4 18q93 12 117 17q50 11 57 91q6 81 6 489t-3 468t-13 84q-10 23 -56 32q-4 1 -96 17q-2 2 -2 15t4 15l238 -6l227 6q4 -2 5 -15t-5 -15q-61 -9 -90 -17t-37 -26t-10 -64
l-4 -461q-4 -342 4 -528q2 -49 35 -59q28 -12 156 -16t188 0q60 3 110 63q68 76 125 219q3 4 17 0t16 -10q-12 -62 -44 -166t-52 -144q-18 -25 -82 -24l-561 8l-250 -6q-4 2 -4 15z" />
    <glyph glyph-name="ldot" unicode="&#x140;" horiz-adv-x="423" 
d="M141 684q0 490 -6 544t-30 62t-82 15q-4 4 -5 14q0 10 5 14q139 14 268 76q8 -4 8 -10q-18 -63 -18 -169v-550q0 -456 5 -522t12 -85q14 -39 112 -46q2 -3 0 -17t-4 -16l-191 6l-195 -6q-7 21 -2 33q59 6 88 21t32 80q3 66 3 556zM420 815q82 0 82 -67q0 -61 -41 -80
q-8 -4 -35 -8t-37 2q-43 20 -43 71q-4 33 8 51q27 31 66 31z" />
    <glyph glyph-name="Lslash" unicode="&#x141;" horiz-adv-x="1042" 
d="M217 696q0 336 -3 396t-13 84q-10 23 -56 32q-4 0 -96 17q-2 2 -2 15t4 15l238 -6l227 6q4 -2 5 -15t-5 -15q-61 -9 -90 -17t-40 -33t-11 -538l323 141q10 -6 11 -47q-129 -53 -336 -143q0 -326 6 -459q2 -49 35 -59q28 -12 158 -16t190 0q60 3 108 63q59 63 123 219
q3 4 17 0t16 -10q-14 -68 -45 -168t-51 -142q-20 -25 -82 -24l-561 8l-250 -6q-4 2 -4 16t4 17q93 12 117 17q50 11 56 92q5 81 7 384q-81 -30 -131 -55q-4 2 -9 21t-3 26q16 6 69 29t74 30v125z" />
    <glyph glyph-name="lslash" unicode="&#x142;" horiz-adv-x="444" 
d="M41 648q0 22 4 24q45 23 115 59q0 457 -5 504t-30 55t-84 15q-2 4 -2 14t2 14q143 14 270 76q8 -4 8 -12q-18 -49 -18 -228v-368q53 25 131 69q2 -4 4 -24t0 -21l-135 -73q0 -526 5 -593t12 -86q15 -42 114 -46q4 -3 2 -17t-6 -16l-195 6l-194 -6q-4 2 -5 15t3 18
q63 8 86 18q33 18 35 76q0 20 1 281t1 282q-35 -14 -115 -59q-4 1 -4 23z" />
    <glyph glyph-name="uni0143" unicode="&#x143;" horiz-adv-x="1409" 
d="M940 1514q0 -6 -9 -15q-9 -10 -145 -97t-143 -87q-8 0 -15 10t-5 14q25 31 110 125t105 105q18 -2 60 -21q42 -20 42 -34zM954 1240q0 11 4 15l238 -6l190 6q2 -2 2 -14t-2 -16q-43 -8 -79 -17q-63 -20 -69 -101t-7 -220q-2 -139 -3 -341t-2 -314t3 -242q-55 4 -119 0
q-77 119 -443 573q-366 455 -371 462t-8 6t-4 -81t-1 -383t3 -381t22 -106q18 -28 54 -36q36 -9 113 -17q4 -3 3 -17t-5 -16l-229 6l-209 -6q-2 2 -2 16t2 17q63 6 95 15t51 37q19 29 27 153t15 839q0 57 -42 94t-79 45q-37 9 -86 15q-2 2 0 15t4 15l209 -6q74 0 93 2
q14 -33 77 -108q526 -657 756 -928q4 2 6 4q0 784 -6 853q-6 68 -20 94q-15 26 -51 36t-128 23q-2 4 -2 15z" />
    <glyph glyph-name="uni0144" unicode="&#x144;" horiz-adv-x="958" 
d="M565 1188q15 6 63 10t60 -1t4 -13q-39 -61 -231 -301q-16 0 -25 16q90 215 129 289zM33 10q0 14 4 17q45 4 76 15q31 12 35 70t4 282t-4 247q-4 25 -22 37q-17 12 -75 29q-2 4 0 15t6 13q143 18 240 78q6 1 5 -17t-4 -67t-1 -52t6 -1q168 135 284 135t181 -104
q49 -76 49 -234q0 -295 2 -377q0 -39 27 -47q37 -16 88 -22q2 -7 0 -19t-6 -14l-178 6q-72 0 -201 -6q-4 2 -4 16t4 17q61 6 78 12q39 12 43 69q4 56 3 218t-11 232t-56 108q-45 45 -131 45t-160 -68q-20 -20 -20 -74q0 -352 3 -432t38 -92q25 -10 86 -18q7 -14 -2 -33
l-197 6l-186 -6q-4 2 -4 16z" />
    <glyph glyph-name="uni0145" unicode="&#x145;" horiz-adv-x="1409" 
d="M736 -49q26 0 56 -35q30 -36 30 -104t-56 -123q-55 -55 -141 -78q-2 0 -9 10q-6 10 -4 14q127 55 127 133t-102 105q-18 18 27 48q46 30 72 30zM954 1240q0 11 4 15l238 -6l190 6q2 -2 2 -14t-2 -16q-43 -8 -79 -17q-63 -20 -69 -101t-7 -220q-2 -139 -3 -341t-2 -314
t3 -242q-55 4 -119 0q-77 119 -443 573q-366 455 -371 462t-8 6t-4 -81t-1 -383t3 -381t22 -106q18 -28 54 -36q36 -9 113 -17q4 -3 3 -17t-5 -16l-229 6l-209 -6q-2 2 -2 16t2 17q63 6 95 15t51 37q19 29 27 153t15 839q0 57 -42 94t-79 45q-37 9 -86 15q-2 2 0 15t4 15
l209 -6q74 0 93 2q14 -33 77 -108q526 -657 756 -928q4 2 6 4q0 784 -6 853q-6 68 -20 94q-15 26 -51 36t-128 23q-2 4 -2 15z" />
    <glyph glyph-name="uni0146" unicode="&#x146;" horiz-adv-x="958" 
d="M393 -134q0 18 38 43t64 25q25 0 55 -34t30 -105q0 -70 -56 -124t-141 -79q-12 6 -12 25q127 53 127 131t-103 109q-2 2 -2 9zM33 10q0 14 4 17q45 4 76 15q31 12 35 70t4 282t-4 247q-4 25 -22 37q-17 12 -75 29q-2 4 0 15t6 13q143 18 240 78q6 1 5 -17t-4 -67t-1 -52
t6 -1q168 135 284 135t181 -104q49 -76 49 -234q0 -295 2 -377q0 -39 27 -47q37 -16 88 -22q2 -7 0 -19t-6 -14l-178 6q-72 0 -201 -6q-4 2 -4 16t4 17q61 6 78 12q39 12 43 69q4 56 3 218t-11 232t-56 108q-45 45 -131 45t-160 -68q-20 -20 -20 -74q0 -352 3 -432t38 -92
q25 -10 86 -18q7 -14 -2 -33l-197 6l-186 -6q-4 2 -4 16z" />
    <glyph glyph-name="uni0147" unicode="&#x147;" horiz-adv-x="1409" 
d="M472 1554q8 0 110 -44t122 -54t40 2q22 12 111 54t95 42t12 -9t5 -17q-175 -136 -238 -197q-8 -8 -24 -8q-15 18 -115 98t-137 107q0 6 6 16t13 10zM954 1240q0 11 4 15l238 -6l190 6q2 -2 2 -14t-2 -16q-43 -8 -79 -17q-63 -20 -69 -101t-7 -220q-2 -139 -3 -341
t-2 -314t3 -242q-55 4 -119 0q-77 119 -443 573q-366 455 -371 462t-8 6t-4 -81t-1 -383t3 -381t22 -106q18 -28 54 -36q36 -9 113 -17q4 -3 3 -17t-5 -16l-229 6l-209 -6q-2 2 -2 16t2 17q63 6 95 15t51 37q19 29 27 153t15 839q0 57 -42 94t-79 45q-37 9 -86 15q-2 2 0 15
t4 15l209 -6q74 0 93 2q14 -33 77 -108q526 -657 756 -928q4 2 6 4q0 784 -6 853q-6 68 -20 94q-15 26 -51 36t-128 23q-2 4 -2 15z" />
    <glyph glyph-name="uni0148" unicode="&#x148;" horiz-adv-x="958" 
d="M483 1018q25 45 67 106q42 62 59 78t35 16t18 -6q-141 -227 -173 -307q-2 -4 -15 -9t-21 -5q-23 61 -81 167t-83 142q10 16 61 17q10 -6 56 -79t67 -120q6 -4 10 0zM33 10q0 14 4 17q45 4 76 15q31 12 35 70t4 282t-4 247q-4 25 -22 37q-17 12 -75 29q-2 4 0 15t6 13
q143 18 240 78q6 1 5 -17t-4 -67t-1 -52t6 -1q168 135 284 135t181 -104q49 -76 49 -234q0 -295 2 -377q0 -39 27 -47q37 -16 88 -22q2 -7 0 -19t-6 -14l-178 6q-72 0 -201 -6q-4 2 -4 16t4 17q61 6 78 12q39 12 43 69q4 56 3 218t-11 232t-56 108q-45 45 -131 45t-160 -68
q-20 -20 -20 -74q0 -352 3 -432t38 -92q25 -10 86 -18q7 -14 -2 -33l-197 6l-186 -6q-4 2 -4 16z" />
    <glyph glyph-name="uni0149" unicode="&#x149;" horiz-adv-x="958" 
d="M218 1212q26 0 58 -34t33 -96q0 -64 -51 -112t-133 -69q-16 8 -12 27q113 43 112 119q0 66 -112 86q-9 23 34 51q45 28 71 28zM33 10q0 14 4 17q45 4 76 15q31 12 35 70t4 282t-4 247q-4 25 -22 37q-17 12 -75 29q-2 4 0 15t6 13q143 18 240 78q6 1 5 -17t-4 -67t-1 -52
t6 -1q168 135 284 135t181 -104q49 -76 49 -234q0 -295 2 -377q0 -39 27 -47q37 -16 88 -22q2 -7 0 -19t-6 -14l-178 6q-72 0 -201 -6q-4 2 -4 16t4 17q61 6 78 12q39 12 43 69q4 56 3 218t-11 232t-56 108q-45 45 -131 45t-160 -68q-20 -20 -20 -74q0 -352 3 -432t38 -92
q25 -10 86 -18q7 -14 -2 -33l-197 6l-186 -6q-4 2 -4 16z" />
    <glyph glyph-name="Eng" unicode="&#x14a;" horiz-adv-x="1409" 
d="M1225 74q0 -262 -51 -396t-177 -135q-51 -1 -67 21t-24 69t0 55q9 9 12 9q45 -27 113 -27t95 43t27 172q0 59 -41 111q-59 88 -438 560t-381 476q-8 4 -8 -2q-2 -156 -2 -462t2 -383t19 -103t56 -36q39 -11 113 -19q4 -3 3 -17t-5 -16l-227 6l-209 -6q-2 2 -2 16t2 17
q73 12 101 19q60 15 69 130q12 180 18 895q0 57 -42 94t-78 45q-37 8 -87 15q-2 2 0 15t4 15l213 -6q72 0 91 2q6 -27 116 -161t376 -458q265 -323 341 -409l4 4q6 719 -10 867q-4 50 -18 74q-13 24 -53 35t-117 22q-4 4 -5 16q0 12 5 14l231 -6l192 6q2 -2 2 -14t-2 -16
q-43 -8 -79 -17q-63 -20 -69 -101t-7 -217q-2 -136 -3 -337t-3 -283v-196z" />
    <glyph glyph-name="eng" unicode="&#x14b;" horiz-adv-x="950" 
d="M33 8q0 12 4 19q45 4 76 15q31 12 35 70t4 282t-4 247q-4 25 -22 37q-17 12 -75 31q0 20 6 26q137 18 240 78l6 -8q-9 -123 -7 -127q3 -4 7 -2q168 135 279 135q235 0 235 -328t-5 -470q-11 -304 -124 -464q-100 -133 -203 -133q-61 0 -90 33q-2 12 13 56q14 44 22 57
q78 -47 130 -47t76 46q24 45 30 187t8 401t-9 365t-61 152t-132 45q-83 0 -155 -68q-23 -16 -22 -78q0 -348 3 -428t38 -92q35 -16 86 -18q2 -5 2 -17t-4 -16l-197 6l-186 -6q-4 2 -4 14z" />
    <glyph glyph-name="uni014C" unicode="&#x14c;" horiz-adv-x="1474" 
d="M961 1479q1 -16 -11 -45t-18 -31q-31 -4 -348 -4l-72 2q2 29 29 80l100 -2h320zM794 27q146 0 234 77q174 150 174 478q0 168 -58 320t-177 237q-117 90 -275 90q-104 0 -196 -51q-109 -66 -162 -198t-53 -300t63 -327t183 -243q121 -84 267 -83zM738 -37q-146 0 -265 52
t-199 139q-174 193 -174 481q0 211 113 381q86 122 236 196t307 74q294 0 456 -185t162 -439t-121 -431q-88 -129 -228 -199q-141 -70 -287 -69z" />
    <glyph glyph-name="uni014D" unicode="&#x14d;" horiz-adv-x="946" 
d="M383 1096h291q0 -16 -10 -44t-15 -30q-25 -6 -191 -6t-184 4q0 10 25 80q16 -4 84 -4zM514 33q203 0 203 315q0 178 -75 293t-206 115q-66 0 -102 -31q-102 -70 -102 -264t78 -311q79 -117 204 -117zM518 811q158 0 257 -113t99 -286q0 -113 -48 -210t-138 -155
q-104 -72 -232 -72t-219 66q-163 118 -163 347q0 228 174 345q112 78 270 78z" />
    <glyph glyph-name="uni014E" unicode="&#x14e;" horiz-adv-x="1474" 
d="M752 1452q109 0 180 90q18 18 30 18t11 -6q-33 -78 -102 -130t-157 -52t-144 37t-56 92q0 29 41 60h14l2 -2q38 -107 181 -107zM794 27q146 0 234 77q174 150 174 478q0 168 -58 320t-177 237q-117 90 -275 90q-104 0 -196 -51q-109 -66 -162 -198t-53 -300t63 -327
t183 -243q121 -84 267 -83zM738 -37q-146 0 -265 52t-199 139q-174 193 -174 481q0 211 113 381q86 122 236 196t307 74q294 0 456 -185t162 -439t-121 -431q-88 -129 -228 -199q-141 -70 -287 -69z" />
    <glyph glyph-name="uni014F" unicode="&#x14f;" horiz-adv-x="946" 
d="M486 1026q110 0 165 102q25 25 32 25t7 -8q-23 -86 -87 -145q-65 -58 -143 -58t-127 39q-50 39 -50 102q0 33 55 68q12 0 12 -4q26 -121 136 -121zM514 33q203 0 203 315q0 178 -75 293t-206 115q-66 0 -102 -31q-102 -70 -102 -264t78 -311q79 -117 204 -117zM518 811
q158 0 257 -113t99 -286q0 -113 -48 -210t-138 -155q-104 -72 -232 -72t-219 66q-163 118 -163 347q0 228 174 345q112 78 270 78z" />
    <glyph glyph-name="uni0150" unicode="&#x150;" horiz-adv-x="1474" 
d="M823 1370q49 189 58 215q12 6 66 14t58 -1q3 -9 1 -13q-12 -33 -154 -227q-4 -2 -15 3t-14 9zM772 1581q11 -1 1 -25q-11 -24 -146 -206q-20 0 -25 14q37 154 51 197q55 20 119 20zM794 27q146 0 234 77q174 150 174 478q0 168 -58 320t-177 237q-117 90 -275 90
q-104 0 -196 -51q-109 -66 -162 -198t-53 -300t63 -327t183 -243q121 -84 267 -83zM738 -37q-146 0 -265 52t-199 139q-174 193 -174 481q0 211 113 381q86 122 236 196t307 74q294 0 456 -185t162 -439t-121 -431q-88 -129 -228 -199q-141 -70 -287 -69z" />
    <glyph glyph-name="uni0151" unicode="&#x151;" horiz-adv-x="946" 
d="M541 926q5 15 100 299q59 16 94 6q2 -2 2 -10q-15 -33 -77 -147t-95 -161q-4 -4 -13 1t-11 12zM322 913l98 293q12 4 48 7t46 1q6 -6 2 -12q-37 -82 -170 -301q-4 -2 -13 3t-11 9zM514 33q203 0 203 315q0 178 -75 293t-206 115q-66 0 -102 -31q-102 -70 -102 -264
t78 -311q79 -117 204 -117zM518 811q158 0 257 -113t99 -286q0 -113 -48 -210t-138 -155q-104 -72 -232 -72t-219 66q-163 118 -163 347q0 228 174 345q112 78 270 78z" />
    <glyph glyph-name="OE" unicode="&#x152;" horiz-adv-x="1968" 
d="M1736 444q-15 0 -18 2q-7 94 -44 132q-19 20 -66 23t-226 3q-12 -4 -12 -12q-12 -319 -256 -508q-23 -18 4 -18q139 -10 502 -11q66 -1 100 11t64 43q66 78 110 198q4 2 18 -3t15 -11q-6 -35 -36 -139t-46 -138q-14 -26 -80 -26l-778 10q-14 0 -86 -18q-73 -18 -191 -19
q-118 0 -237 52t-199 139q-172 193 -172 481q0 217 113 385q84 122 232 194t311 72q74 0 174 -18q53 -14 121 -17h561q164 0 213 6q6 0 6 -6q-16 -68 -35 -282q-4 -4 -18 -5t-19 3q-13 139 -42 179q-30 40 -82 44t-269 4q-218 0 -238 -1t-20 -5t2 -6q244 -168 260 -500
q0 -10 6 -10q180 0 230 2t66 17q32 28 50 138q4 2 20 2t19 -4q-12 -74 -12 -194l4 -187q-4 -2 -19 -2zM281 683q-1 -167 65 -328t184 -245t264 -83q144 0 230 73q176 147 176 484q0 172 -55 322t-174 236q-119 87 -273 87q-109 0 -194 -49q-111 -68 -167 -199t-56 -298z" />
    <glyph glyph-name="oe" unicode="&#x153;" horiz-adv-x="1443" 
d="M1035 760q-73 0 -117 -65t-50 -177q0 -8 6 -8q242 14 326 35q10 4 10 20q-10 71 -56 133t-119 62zM72 401q0 209 174 328q127 82 258 82q178 0 293 -135q12 -12 12 0q53 57 130 97t148 39q172 -2 243 -172q15 -36 22 -69q0 -10 32 -14q-2 -4 -6 -16t-6 -17
q-31 -12 -493 -59q-12 0 -13 -21q4 -166 84 -263t209 -97t227 90q12 -25 11 -33q-70 -78 -163 -121t-173 -43q-155 1 -264 140q-6 6 -11 2q-136 -143 -328 -143t-289 124q-97 125 -97 301zM434 758q-61 0 -104 -33q-102 -70 -102 -263t82 -312q83 -119 208 -119q78 0 125 47
q82 78 82 266t-80 301t-211 113z" />
    <glyph glyph-name="uni0154" unicode="&#x154;" horiz-adv-x="1171" 
d="M754 1529q0 -5 -10 -15t-146 -98t-143 -87q-8 0 -15 10q-6 10 -4 15q16 25 104 121t109 108q18 -2 54 -18q35 -15 43 -23t8 -13zM451 1206q-39 0 -62 -8q-10 -4 -13 -44t-3 -511q0 -10 8 -10q176 -20 246 8q145 55 145 260q0 143 -82 224t-239 81zM49 9q0 13 6 16
q80 12 105 18t37 31t16 111t4 469q0 382 -4 464t-66 92q-45 11 -94 15q-2 4 -2 16t4 14l211 -6l318 4q168 0 258 -86t90 -221q0 -223 -238 -321q-6 -6 -2 -13q211 -346 344 -477q66 -66 105 -84t112 -24q6 -20 -6 -33q-70 -6 -162 2t-141 31t-93 73t-159 230t-134 211
t-48 30l-129 -2q-8 0 -8 -12q0 -317 3 -389t14 -94q11 -20 39 -28t108 -19q4 -5 3 -17t-5 -16l-240 6q-84 0 -162 -4l-78 -2q-6 2 -6 15z" />
    <glyph glyph-name="uni0155" unicode="&#x155;" horiz-adv-x="612" 
d="M416 1188q16 6 63 10t59 -1q13 -5 5 -13q-39 -61 -232 -301q-16 0 -24 16q90 215 129 289zM33 9q0 13 4 18q43 4 76 14q31 14 32 57q9 46 9 278t-4 259q-6 55 -101 78q0 25 6 26q133 14 232 74q8 0 8 -6q-2 -37 -2 -105t3 -68q3 -1 5 1q129 176 225 176q59 0 86 -43
q2 -2 2 -21t-24 -60q-24 -42 -39 -60q-14 -6 -16 -6q-51 55 -111 55t-113 -84q-18 -37 -18 -82q0 -336 4 -394t41 -73q49 -12 106 -16q4 -3 2 -17t-6 -16l-207 6q-92 0 -196 -6q-4 2 -4 15z" />
    <glyph glyph-name="uni0156" unicode="&#x156;" horiz-adv-x="1171" 
d="M667 -57q25 0 55 -35q30 -36 30 -104t-56 -122t-143 -79q-4 2 -8 12t-2 12q125 53 125 131t-101 107q-18 18 28 48t72 30zM451 1206q-39 0 -62 -8q-10 -4 -13 -44t-3 -511q0 -10 8 -10q176 -20 246 8q145 55 145 260q0 143 -82 224t-239 81zM49 9q0 13 6 16q80 12 105 18
t37 31t16 111t4 469q0 382 -4 464t-66 92q-45 11 -94 15q-2 4 -2 16t4 14l211 -6l318 4q168 0 258 -86t90 -221q0 -223 -238 -321q-6 -6 -2 -13q211 -346 344 -477q66 -66 105 -84t112 -24q6 -20 -6 -33q-70 -6 -162 2t-141 31t-93 73t-159 230t-134 211t-48 30l-129 -2
q-8 0 -8 -12q0 -317 3 -389t14 -94q11 -20 39 -28t108 -19q4 -5 3 -17t-5 -16l-240 6q-84 0 -162 -4l-78 -2q-6 2 -6 15z" />
    <glyph glyph-name="uni0157" unicode="&#x157;" horiz-adv-x="612" 
d="M232 -63q26 0 56 -35q30 -36 30 -104t-56 -122q-55 -54 -141 -79q-12 6 -12 24q127 53 127 131t-103 107q-2 2 -2 15q-1 13 37 38t64 25zM33 9q0 13 4 18q43 4 76 14q31 14 32 57q9 46 9 278t-4 259q-6 55 -101 78q0 25 6 26q133 14 232 74q8 0 8 -6q-2 -37 -2 -105
t3 -68q3 -1 5 1q129 176 225 176q59 0 86 -43q2 -2 2 -21t-24 -60q-24 -42 -39 -60q-14 -6 -16 -6q-51 55 -111 55t-113 -84q-18 -37 -18 -82q0 -336 4 -394t41 -73q49 -12 106 -16q4 -3 2 -17t-6 -16l-207 6q-92 0 -196 -6q-4 2 -4 15z" />
    <glyph glyph-name="uni0158" unicode="&#x158;" horiz-adv-x="1171" 
d="M725 1561q8 -1 13 -11t3 -16q-161 -127 -235 -197q-8 -8 -25 -8q-16 18 -115 98t-137 107q1 6 7 16t12 10t108 -43q102 -45 122 -55t28 -4q211 103 219 103zM451 1206q-39 0 -62 -8q-10 -4 -13 -44t-3 -511q0 -10 8 -10q176 -20 246 8q145 55 145 260q0 143 -82 224
t-239 81zM49 9q0 13 6 16q80 12 105 18t37 31t16 111t4 469q0 382 -4 464t-66 92q-45 11 -94 15q-2 4 -2 16t4 14l211 -6l318 4q168 0 258 -86t90 -221q0 -223 -238 -321q-6 -6 -2 -13q211 -346 344 -477q66 -66 105 -84t112 -24q6 -20 -6 -33q-70 -6 -162 2t-141 31t-93 73
t-159 230t-134 211t-48 30l-129 -2q-8 0 -8 -12q0 -317 3 -389t14 -94q11 -20 39 -28t108 -19q4 -5 3 -17t-5 -16l-240 6q-84 0 -162 -4l-78 -2q-6 2 -6 15z" />
    <glyph glyph-name="uni0159" unicode="&#x159;" horiz-adv-x="612" 
d="M326 1018q25 45 66 106q42 62 60 78t34 16q18 0 18 -6q-141 -227 -172 -307q-8 -14 -37 -14q-23 61 -81 167t-83 142q10 16 62 17q10 -6 55 -79t67 -120q7 -4 11 0zM33 9q0 13 4 18q43 4 76 14q31 14 32 57q9 46 9 278t-4 259q-6 55 -101 78q0 25 6 26q133 14 232 74
q8 0 8 -6q-2 -37 -2 -105t3 -68q3 -1 5 1q129 176 225 176q59 0 86 -43q2 -2 2 -21t-24 -60q-24 -42 -39 -60q-14 -6 -16 -6q-51 55 -111 55t-113 -84q-18 -37 -18 -82q0 -336 4 -394t41 -73q49 -12 106 -16q4 -3 2 -17t-6 -16l-207 6q-92 0 -196 -6q-4 2 -4 15z" />
    <glyph glyph-name="uni015A" unicode="&#x15a;" horiz-adv-x="913" 
d="M723 1550q0 -6 -9 -16q-8 -10 -144 -96t-144 -86t-15 9t-5 13q25 32 110 126t105 106q16 -2 53 -18t43 -24t6 -14zM432 12q112 0 176 60t64 162q0 104 -60 172t-203 156q-144 88 -216 176q-72 87 -72 208q0 156 109 248q110 92 278 92q100 0 179 -14t106 -17
q-25 -137 -35 -264q-2 -4 -18 -5t-17 3q-9 101 -27 147q-43 107 -215 107q-101 0 -161 -62t-62 -157q-2 -139 135 -242q45 -33 128 -82t102 -61q94 -63 148 -134t54 -173q1 -158 -117 -263t-317 -106q-82 -1 -162 19t-112 43q-14 18 -29 118q-14 100 -18 164q2 6 16 9t18 -1
q51 -190 144 -252q72 -51 184 -51z" />
    <glyph glyph-name="uni015B" unicode="&#x15b;" horiz-adv-x="655" 
d="M414 1188q16 6 64 10t59 -1t4 -13q-39 -61 -232 -301q-16 0 -24 16q90 215 129 289zM340 772q-51 0 -88 -33t-37 -91t33 -98q34 -40 146 -97t154 -109t42 -127q0 -104 -85 -173t-204 -69t-211 39q-25 90 -24 213q2 4 14 7t18 2q31 -150 125 -197q43 -23 98 -23t96 35
q40 35 40 90t-32 93q-33 38 -137 94t-150 115t-46 147t74 154t205 67q61 0 115 -9t75 -9q-16 -72 -22 -199q-3 -4 -17 -5t-16 3q-14 133 -74 160q-41 20 -92 20z" />
    <glyph glyph-name="uni015C" unicode="&#x15c;" horiz-adv-x="913" 
d="M723 1348q-7 0 -109 45t-120 54t-29 5q-33 -18 -124 -61t-97 -43t-12 10q-5 10 -3 18q164 121 236 197q8 8 24 8q17 -20 115 -100t137 -105q0 -6 -6 -17t-12 -11zM432 12q112 0 176 60t64 162q0 104 -60 172t-203 156q-144 88 -216 176q-72 87 -72 208q0 156 109 248
q110 92 278 92q100 0 179 -14t106 -17q-25 -137 -35 -264q-2 -4 -18 -5t-17 3q-9 101 -27 147q-43 107 -215 107q-101 0 -161 -62t-62 -157q-2 -139 135 -242q45 -33 128 -82t102 -61q94 -63 148 -134t54 -173q1 -158 -117 -263t-317 -106q-82 -1 -162 19t-112 43
q-14 18 -29 118q-14 100 -18 164q2 6 16 9t18 -1q51 -190 144 -252q72 -51 184 -51z" />
    <glyph glyph-name="uni015D" unicode="&#x15d;" horiz-adv-x="655" 
d="M336 1098q-25 -46 -67 -106t-58 -76q-15 -16 -33 -16t-18 5q141 227 172 307q8 14 37 15q23 -61 81 -167t82 -142q-10 -16 -61 -17q-10 6 -57 80t-70 117q-4 4 -8 0zM340 772q-51 0 -88 -33t-37 -91t33 -98q34 -40 146 -97t154 -109t42 -127q0 -104 -85 -173t-204 -69
t-211 39q-25 90 -24 213q2 4 14 7t18 2q31 -150 125 -197q43 -23 98 -23t96 35q40 35 40 90t-32 93q-33 38 -137 94t-150 115t-46 147t74 154t205 67q61 0 115 -9t75 -9q-16 -72 -22 -199q-3 -4 -17 -5t-16 3q-14 133 -74 160q-41 20 -92 20z" />
    <glyph glyph-name="uni015E" unicode="&#x15e;" horiz-adv-x="913" 
d="M432 12q112 0 176 60t64 162q0 104 -60 172t-203 156q-144 88 -216 176q-72 87 -72 208q0 156 109 248q110 92 278 92q102 0 168 -11t117 -15q-25 -137 -35 -265q-2 -4 -18 -5t-17 3q-12 172 -86 215q-55 35 -157 35t-160 -62q-60 -62 -62 -157q-2 -139 135 -242
q45 -33 128 -82t102 -61q94 -63 148 -134t54 -173q0 -138 -92 -238t-256 -123l-39 -59q66 -31 90 -55q41 -35 41 -102q-1 -67 -73 -119t-132 -52t-90 56q-2 4 -1 17t3 15q59 -30 132 -30t73 61q0 31 -35 66t-110 59q0 10 4 16q51 72 88 121q-76 -4 -165 11t-146 49
q-27 37 -47 282q2 6 16 9t18 -1q51 -195 144 -252q72 -51 184 -51z" />
    <glyph glyph-name="uni015F" unicode="&#x15f;" horiz-adv-x="655" 
d="M342 772q-53 0 -90 -33t-37 -91t33 -98q34 -40 146 -97t154 -109t42 -139q0 -85 -70 -147t-170 -78l-35 -50q51 -33 84 -59q41 -37 41 -97t-68 -109q-68 -50 -125 -50q-56 0 -91 53q-4 18 6 29q52 -31 102 -31t72 18t20 46q0 68 -133 120q-2 10 0 17q49 66 84 108
q-123 -2 -217 39q-25 90 -24 211q2 4 14 7t18 1q31 -147 123 -194q41 -23 98 -23t98 35q40 35 40 90t-32 93q-33 38 -137 94t-150 115t-46 147t74 154t205 67q63 0 119 -9t71 -9q-16 -72 -22 -197q-1 -4 -15 -5t-18 3q-14 127 -70 158q-41 20 -94 20z" />
    <glyph glyph-name="Scaron" unicode="&#x160;" horiz-adv-x="913" 
d="M248 1583q6 0 109 -44t128 -58q14 -4 33 6t111 53t98 43t11 -10t3 -17q-174 -135 -237 -196q-4 -8 -23 -8q-18 18 -116 99t-136 105q1 6 7 16t12 11zM432 12q112 0 176 60t64 162q0 104 -60 172t-203 156q-144 88 -216 176q-72 87 -72 208q0 156 109 248q110 92 278 92
q100 0 179 -14t106 -17q-25 -137 -35 -264q-2 -4 -18 -5t-17 3q-9 101 -27 147q-43 107 -215 107q-101 0 -161 -62t-62 -157q-2 -139 135 -242q45 -33 128 -82t102 -61q94 -63 148 -134t54 -173q1 -158 -117 -263t-317 -106q-82 -1 -162 19t-112 43q-14 18 -29 118
q-14 100 -18 164q2 6 16 9t18 -1q51 -190 144 -252q72 -51 184 -51z" />
    <glyph glyph-name="scaron" unicode="&#x161;" horiz-adv-x="655" 
d="M354 1018q25 45 67 106q41 62 61 78t35 16t15 -6q-141 -227 -172 -307q-8 -14 -36 -14q-23 61 -81 167t-83 142q10 16 61 17q23 -14 125 -199q4 -4 8 0zM340 772q-51 0 -88 -33t-37 -91t33 -98q34 -40 146 -97t154 -109t42 -127q0 -104 -85 -173t-204 -69t-211 39
q-25 90 -24 213q2 4 14 7t18 2q31 -150 125 -197q43 -23 98 -23t96 35q40 35 40 90t-32 93q-33 38 -137 94t-150 115t-46 147t74 154t205 67q61 0 115 -9t75 -9q-16 -72 -22 -199q-3 -4 -17 -5t-16 3q-14 133 -74 160q-41 20 -92 20z" />
    <glyph glyph-name="uni0162" unicode="&#x162;" horiz-adv-x="1230" 
d="M311 10q0 10 4 15q92 10 133 18t54 39q12 31 17 136t5 960q0 14 -20 15t-132 0q-114 -1 -155 -3t-70 -49t-77 -183q-2 -4 -18 -1t-17 8q29 145 37 311l10 4q66 -31 160 -31h753q104 0 181 25q8 0 8 -4q-25 -80 -41 -307q-3 -5 -19 -5t-18 5q-8 111 -31 165t-80 60
q-213 8 -301 2q-10 -4 -10 -19q0 -777 6 -923t22 -172t47 -34q32 -9 105 -17q4 -1 2 -15t-6 -16l-205 6l-53 -72q41 -23 84 -57q41 -37 41 -97t-69 -109q-70 -50 -126 -50t-92 53q-4 16 9 29q57 -31 104 -31t69 18t21 46q0 68 -133 120q0 10 6 22t98 128h-8l-291 -6
q-4 6 -4 16z" />
    <glyph glyph-name="uni0163" unicode="&#x163;" horiz-adv-x="538" 
d="M283 694v-430q2 -98 14 -123q25 -71 99 -71t122 32q6 -6 -4 -34q-58 -78 -158 -88l-39 -52q49 -26 87 -60t38 -94t-68 -109q-68 -50 -127 -50q-58 0 -89 53q-4 18 6 29q60 -31 106 -31t68 18t20 46q0 68 -131 120q-2 10 1 18t85 109q-109 4 -147 86q-27 53 -27 234l2 393
q0 12 -6 14t-104 9l16 49q82 14 88 17t6 12v161q29 12 73 48t56 55q6 2 25 -4q-12 -57 -12 -256q0 -12 10 -13q172 0 221 9q-12 -49 -16 -86l-205 2q-10 0 -10 -13z" />
    <glyph glyph-name="uni0164" unicode="&#x164;" horiz-adv-x="1230" 
d="M362 1556q6 0 110 -44t120 -53q18 -9 29 -5q210 102 218 102q9 0 14 -9t3 -17q-163 -121 -235 -197q-8 -8 -25 -8q-18 20 -116 101t-136 104q0 6 6 16t12 10zM311 10q0 10 4 15q92 10 133 18t54 39q12 31 17 136t5 960q0 14 -20 15t-132 0q-114 -1 -155 -3t-70 -49
t-77 -183q-2 -4 -18 -1t-17 8q29 145 37 311l10 4q66 -31 160 -31h753q104 0 181 25q8 0 8 -4q-25 -80 -41 -307q-3 -5 -19 -5t-18 5q-8 111 -31 165t-80 60q-213 8 -301 2q-10 -4 -10 -19q0 -777 6 -923t22 -172t46 -34q32 -9 106 -17q4 -1 2 -15t-6 -16l-254 6l-291 -6
q-4 6 -4 16z" />
    <glyph glyph-name="uni0165" unicode="&#x165;" horiz-adv-x="538" 
d="M508 1370q10 0 10 -39t-11 -163t-22 -181q-10 -35 -34 -51q-8 -4 -9 6q0 86 -22 334q0 10 4 16q59 78 84 78zM283 694v-430q2 -98 14 -123q25 -71 99 -71t122 32q6 -6 -4 -34q-68 -90 -188 -90t-160 85q-27 53 -27 234l2 393q0 12 -6 14t-104 9l16 49q82 14 88 17t6 12
v161q29 12 73 48t56 55q6 2 25 -4q-12 -57 -12 -256q0 -12 10 -13q172 0 221 9q-12 -49 -16 -86l-205 2q-10 0 -10 -13z" />
    <glyph glyph-name="Tbar" unicode="&#x166;" horiz-adv-x="1230" 
d="M522 621q-159 0 -219 -3q6 45 14 52h205l2 506q0 16 -20 17t-132 0t-143 -3q-55 -2 -84 -55q-33 -47 -75 -179q-4 -4 -18 0t-17 9q23 111 37 311l10 4q66 -31 160 -31h753q104 0 181 25q8 0 8 -8q-25 -78 -41 -303q-3 -5 -19 -5t-18 5q-8 109 -31 165q-20 53 -80 60
q-209 8 -301 2q-10 -4 -10 -19q0 -344 2 -501l198 2h36q0 -31 -9 -51q-115 0 -225 -3q4 -388 7 -452t19 -90t53 -35q38 -10 99 -16q2 -1 0 -15t-4 -16l-254 6q-56 0 -160 -4t-131 -2q-4 6 -3 16t5 15q84 8 128 17t57 39q12 30 16 90t4 450z" />
    <glyph glyph-name="tbar" unicode="&#x167;" horiz-adv-x="538" 
d="M459 471q0 -29 -8 -53l-170 2q0 -122 2 -188t14 -91q25 -71 99 -71t122 32q6 -6 -4 -34q-68 -90 -188 -90t-160 85q-27 53 -27 234v123l-100 -2q4 43 12 51h88q2 84 2 221q0 12 -7 14t-103 9l16 49q82 14 88 17t6 12v161q29 12 73 48t56 55q6 2 25 -4q-12 -57 -12 -256
q0 -12 10 -13q172 0 221 9q-12 -49 -16 -86l-205 2q-10 0 -10 -13l-2 -225q43 0 110 2h68z" />
    <glyph glyph-name="uni0168" unicode="&#x168;" horiz-adv-x="1355" 
d="M854 1454q70 0 133 59l6 -6q6 -16 4 -22q-23 -39 -83 -77t-98 -38t-112 20t-98 19q-57 0 -117 -51q-2 -2 -11 10t-3 18q21 29 79 68t102 39q44 1 110 -19t88 -20zM1343 1237q0 -12 -4 -14q-55 -7 -85 -17t-44 -41t-16 -116q-10 -578 -31 -697q-57 -389 -485 -389
t-473 369q-12 82 -12 397t-3 369q0 92 -51 108q-20 9 -98 19q-4 4 -4 15t4 15l235 -6l222 6q2 -2 2 -14t-2 -16q-78 -15 -96 -21q-39 -11 -44 -110q-12 -311 0 -629q10 -186 68 -268q96 -150 326 -150q158 0 250 84t106 299q16 311 4 629q-2 85 -22 113t-53 35t-101 16
q-2 4 -2 15t4 15l215 -4l186 4q4 -4 4 -16z" />
    <glyph glyph-name="uni0169" unicode="&#x169;" horiz-adv-x="931" 
d="M567 1081q61 0 119 58q11 -11 2 -35q-20 -33 -74 -70t-89 -37q-37 -1 -103 19t-102 20t-97 -53q-2 -2 -8 4q0 25 6 31q15 28 67 64t88 36t101 -18t90 -19zM281 496q0 -252 10 -293q31 -125 168 -125q86 0 159 59q20 15 24 53t3 212q0 174 -4 257q-4 49 -33 57t-135 21
q-4 3 -2 17t6 16q190 0 318 31q-8 -51 -9 -217l2 -406q0 -60 12 -80t34 -20t75 4q0 -33 -4 -35q-139 -39 -250 -82q-12 0 -12 17v116q0 4 -4 6t-8 0q-147 -129 -264 -129q-231 0 -232 273q0 354 -3 408q-4 54 -24 64t-92 17q-2 3 1 17t6 16q162 0 268 33q-10 -55 -10 -307z
" />
    <glyph glyph-name="uni016A" unicode="&#x16a;" horiz-adv-x="1355" 
d="M635 1452h319q0 -16 -11 -44t-17 -30q-43 -6 -348 -6l-70 4q2 12 13 43q12 31 16 37q37 -4 98 -4zM1343 1237q0 -12 -4 -14q-55 -7 -85 -17t-44 -41t-16 -116q-10 -578 -31 -697q-57 -389 -485 -389t-473 369q-12 82 -12 397t-3 369q0 92 -51 108q-20 9 -98 19
q-4 4 -4 15t4 15l235 -6l222 6q2 -2 2 -14t-2 -16q-78 -15 -96 -21q-39 -11 -44 -110q-12 -311 0 -629q10 -186 68 -268q96 -150 326 -150q158 0 250 84t106 299q16 311 4 629q-2 85 -22 113t-53 35t-101 16q-2 4 -2 15t4 15l215 -4l186 4q4 -4 4 -16z" />
    <glyph glyph-name="uni016B" unicode="&#x16b;" horiz-adv-x="931" 
d="M360 1096h291q0 -16 -10 -44t-14 -30q-25 -6 -192 -6t-183 4q1 10 24 80q16 -4 84 -4zM281 496q0 -252 10 -293q31 -125 168 -125q86 0 159 59q20 15 24 53t3 212q0 174 -4 257q-4 49 -33 57t-135 21q-4 3 -2 17t6 16q190 0 318 31q-8 -51 -9 -217l2 -406q0 -60 12 -80
t34 -20t75 4q0 -33 -4 -35q-139 -39 -250 -82q-12 0 -12 17v116q0 4 -4 6t-8 0q-147 -129 -264 -129q-231 0 -232 273q0 354 -3 408q-4 54 -24 64t-92 17q-2 3 1 17t6 16q162 0 268 33q-10 -55 -10 -307z" />
    <glyph glyph-name="uni016C" unicode="&#x16c;" horiz-adv-x="1355" 
d="M735 1411q109 0 180 90q19 19 31 19t12 -7q-34 -78 -102 -130t-156 -52t-144 37t-56 92q0 29 41 60q4 2 9 1t5 -3q39 -107 180 -107zM1343 1237q0 -12 -4 -14q-55 -7 -85 -17t-44 -41t-16 -116q-10 -578 -31 -697q-57 -389 -485 -389t-473 369q-12 82 -12 397t-3 369
q0 92 -51 108q-20 9 -98 19q-4 4 -4 15t4 15l235 -6l222 6q2 -2 2 -14t-2 -16q-78 -15 -96 -21q-39 -11 -44 -110q-12 -311 0 -629q10 -186 68 -268q96 -150 326 -150q158 0 250 84t106 299q16 311 4 629q-2 85 -22 113t-53 35t-101 16q-2 4 -2 15t4 15l215 -4l186 4
q4 -4 4 -16z" />
    <glyph glyph-name="uni016D" unicode="&#x16d;" horiz-adv-x="931" 
d="M458 1026q110 0 165 102q25 25 31 25t8 -8q-23 -87 -88 -145q-64 -58 -142 -58t-128 39t-50 102q0 33 55 68q12 0 13 -4q26 -121 136 -121zM281 496q0 -252 10 -293q31 -125 168 -125q86 0 159 59q20 15 24 53t3 212q0 174 -4 257q-4 49 -33 57t-135 21q-4 3 -2 17t6 16
q190 0 318 31q-8 -51 -9 -217l2 -406q0 -60 12 -80t34 -20t75 4q0 -33 -4 -35q-139 -39 -250 -82q-12 0 -12 17v116q0 4 -4 6t-8 0q-147 -129 -264 -129q-231 0 -232 273q0 354 -3 408q-4 54 -24 64t-92 17q-2 3 1 17t6 16q162 0 268 33q-10 -55 -10 -307z" />
    <glyph glyph-name="Uring" unicode="&#x16e;" horiz-adv-x="1355" 
d="M723 1524q-43 0 -67 -20t-24 -54q0 -33 30 -51q30 -19 68 -19t64 18t25 48q0 78 -96 78zM590 1446q0 61 36 98t100 37t100 -37t36 -94t-39 -93t-93 -36t-97 32t-43 93zM1343 1237q0 -12 -4 -14q-55 -7 -85 -17t-44 -41t-16 -116q-10 -578 -31 -697q-57 -389 -485 -389
t-473 369q-12 82 -12 397t-3 369q0 92 -51 108q-20 9 -98 19q-4 4 -4 15t4 15l235 -6l222 6q2 -2 2 -14t-2 -16q-78 -15 -96 -21q-39 -11 -44 -110q-12 -311 0 -629q10 -186 68 -268q96 -150 326 -150q158 0 250 84t106 299q16 311 4 629q-2 85 -22 113t-53 35t-101 16
q-2 4 -2 15t4 15l215 -4l186 4q4 -4 4 -16z" />
    <glyph glyph-name="uring" unicode="&#x16f;" horiz-adv-x="931" 
d="M444 1133q-40 0 -62 -22q-22 -23 -22 -57t27 -54t64 -19q37 0 61 19t25 51q-1 82 -93 82zM452 1194q58 0 92 -39t34 -99t-37 -98t-89 -38t-94 34q-41 34 -41 96q0 64 38 104q39 40 97 40zM281 496q0 -252 10 -293q31 -125 168 -125q86 0 159 59q20 15 24 53t3 212
q0 174 -4 257q-4 49 -33 57t-135 21q-4 3 -2 17t6 16q190 0 318 31q-8 -51 -9 -217l2 -406q0 -60 12 -80t34 -20t75 4q0 -33 -4 -35q-139 -39 -250 -82q-12 0 -12 17v116q0 4 -4 6t-8 0q-147 -129 -264 -129q-231 0 -232 273q0 354 -3 408q-4 54 -24 64t-92 17q-2 3 1 17
t6 16q162 0 268 33q-10 -55 -10 -307z" />
    <glyph glyph-name="uni0170" unicode="&#x170;" horiz-adv-x="1355" 
d="M856 1556q61 20 123 17q2 0 4 -7q7 -26 -156 -237q-12 -4 -28 12q16 51 57 215zM578 1333l53 197q12 6 55 14t62 8q6 -4 6 -16q-10 -20 -68 -103t-82 -112q-18 0 -26 12zM1343 1237q0 -12 -4 -14q-55 -7 -85 -17t-44 -41t-16 -116q-10 -578 -31 -697q-57 -389 -485 -389
t-473 369q-12 82 -12 397t-3 369q0 92 -51 108q-20 9 -98 19q-4 4 -4 15t4 15l235 -6l222 6q2 -2 2 -14t-2 -16q-78 -15 -96 -21q-39 -11 -44 -110q-12 -311 0 -629q10 -186 68 -268q96 -150 326 -150q158 0 250 84t106 299q16 311 4 629q-2 85 -22 113t-53 35t-101 16
q-2 4 -2 15t4 15l215 -4l186 4q4 -4 4 -16z" />
    <glyph glyph-name="uni0171" unicode="&#x171;" horiz-adv-x="931" 
d="M522 926q21 60 101 299q59 16 94 6q2 -2 2 -10q-15 -33 -77 -147t-95 -161q-4 -4 -13 1t-12 12zM403 1206q11 4 47 7t46 1q8 -4 4 -12q-49 -96 -172 -301q-4 -2 -14 3t-11 9q84 252 100 293zM281 496q0 -252 10 -293q31 -125 168 -125q86 0 159 59q20 15 24 53t3 212
q0 174 -4 257q-4 49 -33 57t-135 21q-4 3 -2 17t6 16q190 0 318 31q-8 -51 -9 -217l2 -406q0 -60 12 -80t34 -20t75 4q0 -33 -4 -35q-139 -39 -250 -82q-12 0 -12 17v116q0 4 -4 6t-8 0q-147 -129 -264 -129q-231 0 -232 273q0 354 -3 408q-4 54 -24 64t-92 17q-2 3 1 17
t6 16q162 0 268 33q-10 -55 -10 -307z" />
    <glyph glyph-name="uni0172" unicode="&#x172;" horiz-adv-x="1355" 
d="M1343 1237q0 -12 -4 -14q-55 -7 -85 -17t-44 -41t-16 -116q-10 -578 -31 -697q-39 -283 -276 -358q-127 -119 -127 -211q0 -74 88 -74q49 0 94 35q8 -18 -2 -41q-63 -98 -172 -98q-53 1 -90 31t-37 96q0 104 182 243q-68 -12 -137 -12q-436 0 -481 369q-12 82 -12 397
t-3 369q0 92 -51 108q-20 8 -98 19q-4 4 -4 15t4 15l235 -6l222 6q2 -2 2 -14t-2 -16q-78 -15 -96 -21q-39 -11 -44 -110q-12 -311 0 -629q10 -186 68 -268q96 -150 326 -150q158 0 250 84t106 299q16 311 4 629q-2 85 -22 113t-53 35t-101 16q-2 4 -2 15t4 15l215 -4l186 4
q4 -4 4 -16z" />
    <glyph glyph-name="uni0173" unicode="&#x173;" horiz-adv-x="931" 
d="M281 499q0 -255 10 -296q31 -125 168 -125q86 0 159 59q20 15 24 53t3 212q0 174 -4 257q-4 49 -33 57t-135 21q-4 3 -2 17t6 16q190 0 318 31q-8 -51 -9 -217l2 -406q0 -60 12 -80t34 -20t75 4q0 -33 -4 -35q-13 -4 -33 -10t-32 -10q-143 -123 -144 -230q0 -74 84 -73
q47 0 90 32q6 -19 -2 -39q-61 -94 -163 -94q-49 0 -85 31t-36 92t60 135t130 125q-80 -23 -119 -41q-12 0 -12 17v116q0 4 -4 6t-8 0q-147 -129 -264 -129q-231 0 -232 273q0 354 -3 408q-4 54 -24 64t-92 17q-2 3 1 17t6 16q141 0 268 39q-10 -55 -10 -310z" />
    <glyph glyph-name="uni0174" unicode="&#x174;" horiz-adv-x="1736" 
d="M676 1294q-6 0 -11 10t-3 17q182 144 235 199q6 6 25 6q16 -18 115 -98t137 -107q0 -6 -6 -16q-6 -11 -13 -11q-6 0 -109 44t-128 59q-14 4 -33 -6q-19 -9 -111 -53t-98 -44zM418 1241q0 -12 -2 -16q-70 -14 -84 -21q-39 -18 -21 -88q63 -258 244 -860q4 2 6 4
q268 745 320 942q35 -4 75 2q25 -104 147 -452t183 -502h4l4 2q186 592 234 817q23 115 -37 133q-57 14 -115 23q-4 4 -4 15t4 15l221 -6q82 0 205 6q4 -2 4 -14t-4 -16q-78 -15 -104 -27t-45 -41q-18 -29 -59 -143t-156 -489q-115 -374 -160 -539q-72 0 -78 -2
q-76 268 -330 962q-6 0 -8 -4q-309 -895 -327 -954q-6 2 -41 1t-43 -3q-45 195 -177 658t-175 521q-23 29 -65 41t-91 19q-4 2 -3 16t7 16l252 -8q129 2 217 6q2 -2 2 -14z" />
    <glyph glyph-name="uni0175" unicode="&#x175;" horiz-adv-x="1214" 
d="M479 883q-10 0 -6 8q135 211 170 305q14 14 37 14q23 -60 82 -166t84 -141q-4 -8 -29 -13t-35 -3q-10 6 -57 79t-70 115q-4 4 -8 0q-80 -145 -123 -180q-18 -18 -45 -18zM1270 774q0 -12 -2 -16q-4 -2 -41 -7t-56 -27q-20 -21 -49 -90q-28 -70 -116 -310t-119 -334
q-35 4 -68 -4q-29 90 -105 290t-102 259q-4 4 -8 0q-2 -6 -94 -242t-115 -303q-39 4 -67 -2q-82 322 -197 624q-27 76 -44 101t-39 31t-44 9q-21 3 -31 5q-6 13 2 30l195 -6q68 0 178 6q2 -2 3 -15t-1 -15q-57 -11 -63 -15q-31 -9 -23 -45t72 -240t82 -255q6 0 6 2
q41 94 112 280t91 258q23 -4 69 2q4 -16 49 -149q141 -379 152 -399h8q25 55 82 227t76 248q10 55 -36 67t-89 19q-2 6 0 17t6 13l178 -6q16 0 146 6q2 -2 2 -14z" />
    <glyph glyph-name="uni0176" unicode="&#x176;" horiz-adv-x="1097" 
d="M352 1339q-6 1 -11 11t-3 16q174 136 237 197q4 8 23 8q18 -17 116 -99t136 -106q0 -6 -6 -16t-12 -10t-110 43q-104 44 -128 59q-14 4 -33 -6t-111 -54t-98 -43zM-33 1240q0 11 4 15l250 -6q119 0 199 6q6 -2 6 -15t-4 -15q-14 -3 -62 -15t-22 -69q133 -274 270 -516h8
q203 352 261 491q32 79 -48 92q-14 4 -41 8t-45 9q-4 4 -3 16t8 14q160 -6 204 -6l203 6q4 -2 4 -14t-4 -16q-30 0 -84 -17q-45 -10 -72 -38t-59 -85q-215 -358 -285 -512q-16 -29 -16 -69q6 -159 6 -328q2 -68 15 -98q12 -30 54 -40q42 -9 99 -15q2 -3 0 -15t-4 -14l-258 6
l-254 -6q-4 4 -4 14t4 15q57 4 105 14t62 39q13 29 15 84q0 211 2 288t-14 109q-79 180 -193 382q-114 203 -143 231t-57 36t-42 10q-13 2 -31 5q-18 2 -32 4q-2 4 -2 15z" />
    <glyph glyph-name="uni0177" unicode="&#x177;" horiz-adv-x="806" 
d="M432 1098q-24 -46 -66 -106t-58 -76t-34 -16t-18 5q141 227 172 307q2 4 15 10t22 5q23 -61 81 -167t83 -142q-10 -16 -62 -17q-10 6 -57 80t-70 117q-4 4 -8 0zM350 773q0 -11 -2 -15q-55 -12 -71 -20q-17 -8 -7 -42q10 -36 94 -258t101 -256h4q147 328 174 496
q8 49 -39 63q-6 2 -21 5q-15 2 -29 6t-32 6q-2 4 -1 16t5 14l166 -6q10 0 158 6q4 -2 4 -14t-4 -16q-51 -10 -64 -17q-47 -16 -73 -84q-219 -598 -492 -1089q-63 -98 -71 -115l-11 -4q-57 14 -78 49q-6 12 -2 21q223 279 320 487q-12 29 -17 37q-208 568 -261 655
q-19 34 -49 44t-70 16q-2 4 -1 16t5 14l182 -6l178 6q4 -4 4 -15z" />
    <glyph glyph-name="Ydieresis" unicode="&#x178;" horiz-adv-x="1097" 
d="M760 1495q63 0 63 -58t-37 -77q-43 -16 -69 -4q-39 16 -39 67q-4 29 8 43q23 29 74 29zM451 1495q63 0 63 -58t-37 -77q-43 -16 -75 -2t-33 54q-2 40 6 54q25 29 76 29zM-33 1240q0 11 4 15l250 -6q119 0 199 6q6 -2 6 -15t-4 -15q-14 -3 -62 -15t-22 -69
q133 -274 270 -516h8q203 352 261 491q32 79 -48 92q-14 4 -41 8t-45 9q-4 4 -3 16t8 14q160 -6 204 -6l203 6q4 -2 4 -14t-4 -16q-30 0 -84 -17q-45 -10 -72 -38t-59 -85q-215 -358 -285 -512q-16 -29 -16 -69q6 -159 6 -328q2 -68 15 -98q12 -30 54 -40q42 -9 99 -15
q2 -3 0 -15t-4 -14l-258 6l-254 -6q-4 4 -4 14t4 15q57 4 105 14t62 39q13 29 15 84q0 211 2 288t-14 109q-79 180 -193 382q-114 203 -143 231t-57 36t-42 10q-13 2 -31 5q-18 2 -32 4q-2 4 -2 15z" />
    <glyph glyph-name="uni0179" unicode="&#x179;" horiz-adv-x="1128" 
d="M815 1526q0 -6 -10 -16q-9 -10 -145 -96t-144 -87q-8 0 -14 9t-4 14q16 25 104 121t109 110q16 -2 53 -18q37 -15 44 -23t7 -14zM811 1194q-459 0 -529 -5t-109 -59q-40 -54 -91 -184q-2 -2 -18 3t-17 9q43 188 53 310q10 6 21 2q41 -20 170 -21h411q236 0 312 8
q8 0 8 -16q-74 -125 -352 -575t-373 -596q-6 -11 4 -11q113 -16 524 -10q57 0 103 41q63 53 147 244q15 0 31 -10q-8 -53 -40 -170t-52 -146q-10 -16 -92 -16l-660 6q-121 0 -194 -6q-2 2 -3 11t1 11q141 188 411 614t336 554q4 12 -2 12z" />
    <glyph glyph-name="uni017A" unicode="&#x17a;" horiz-adv-x="718" 
d="M455 1188q16 6 64 10t59 -1t4 -13q-39 -61 -232 -301q-16 0 -24 16q90 215 129 289zM473 735q-221 0 -256 -4t-51 -12q-43 -22 -94 -156q-6 -2 -20 1t-17 9q31 121 49 228q47 -18 139 -19h277q96 0 151 6q4 0 4 -20q-188 -346 -403 -698q-4 -14 6 -15q70 -12 268 -12
q70 0 148 184q10 6 35 6l4 -4q-16 -72 -68 -204q-14 -35 -41 -35l-538 10q-8 4 -9 25q287 446 418 700q4 10 -2 10z" />
    <glyph glyph-name="uni017B" unicode="&#x17b;" horiz-adv-x="1128" 
d="M639 1444q0 -59 -39 -80q-10 -4 -38 -7t-38 1q-45 25 -45 74q-4 29 10 49q25 29 80 28q70 0 70 -65zM811 1194q-459 0 -529 -5t-109 -59q-40 -54 -91 -184q-2 -2 -18 3t-17 9q43 188 53 310q10 6 21 2q41 -20 170 -21h411q236 0 312 8q8 0 8 -16q-74 -125 -352 -575
t-373 -596q-6 -11 4 -11q113 -16 524 -10q57 0 103 41q63 53 147 244q15 0 31 -10q-8 -53 -40 -170t-52 -146q-10 -16 -92 -16l-660 6q-121 0 -194 -6q-2 2 -3 11t1 11q141 188 411 614t336 554q4 12 -2 12z" />
    <glyph glyph-name="uni017C" unicode="&#x17c;" horiz-adv-x="718" 
d="M453 1100q0 -61 -41 -80q-8 -4 -37 -7t-41 1q-41 18 -43 63t8 60q31 31 84 30q70 0 70 -67zM473 735q-221 0 -256 -4t-51 -12q-43 -22 -94 -156q-6 -2 -20 1t-17 9q31 121 49 228q47 -18 139 -19h277q96 0 151 6q4 0 4 -20q-188 -346 -403 -698q-4 -14 6 -15
q70 -12 268 -12q70 0 148 184q10 6 35 6l4 -4q-16 -72 -68 -204q-14 -35 -41 -35l-538 10q-8 4 -9 25q287 446 418 700q4 10 -2 10z" />
    <glyph glyph-name="Zcaron" unicode="&#x17d;" horiz-adv-x="1128" 
d="M317 1556q5 0 109 -44t129 -58q15 -4 33 6t110 53t98 43t12 -10q5 -10 3 -16q-179 -140 -236 -197q-8 -8 -24 -8q-15 18 -115 98t-137 107q0 6 6 16t12 10zM811 1194q-459 0 -529 -5t-109 -59q-40 -54 -91 -184q-2 -2 -18 3t-17 9q43 188 53 310q10 6 21 2
q41 -20 170 -21h411q236 0 312 8q8 0 8 -16q-74 -125 -352 -575t-373 -596q-6 -11 4 -11q113 -16 524 -10q57 0 103 41q63 53 147 244q15 0 31 -10q-8 -53 -40 -170t-52 -146q-10 -16 -92 -16l-660 6q-121 0 -194 -6q-2 2 -3 11t1 11q141 188 411 614t336 554q4 12 -2 12z
" />
    <glyph glyph-name="zcaron" unicode="&#x17e;" horiz-adv-x="718" 
d="M379 1018q25 45 66 106q42 62 62 78t35 16t15 -6q-141 -227 -172 -307q-8 -14 -37 -14q-23 61 -81 167t-83 142q10 16 62 17q23 -14 125 -199q4 -4 8 0zM473 735q-221 0 -256 -4t-51 -12q-43 -22 -94 -156q-6 -2 -20 1t-17 9q31 121 49 228q47 -18 139 -19h277
q96 0 151 6q4 0 4 -20q-188 -346 -403 -698q-4 -14 6 -15q70 -12 268 -12q70 0 148 184q10 6 35 6l4 -4q-16 -72 -68 -204q-14 -35 -41 -35l-538 10q-8 4 -9 25q287 446 418 700q4 10 -2 10z" />
    <glyph glyph-name="longs" unicode="&#x17f;" horiz-adv-x="438" 
d="M25 9q0 13 4 18q33 2 71 12q45 16 45 78q4 217 5 573q0 16 -9 17l-98 4q0 25 14 43q47 6 86 24q8 4 9 13q0 203 50 327t181 215q103 76 169 76t110 -23t57 -53v-16q-6 -16 -32 -52t-38 -48h-12q-104 98 -182 98q-53 0 -88 -39t-53 -133t-19 -174q-2 -80 -4 -264l2 -445
q0 -96 2 -139q2 -68 57 -82q16 -4 78 -12q2 -3 -1 -17t-5 -16l-209 6l-186 -6q-4 2 -4 15z" />
    <glyph glyph-name="uni018F" unicode="&#x18f;" horiz-adv-x="1255" 
d="M616 16q110 0 181 45q154 96 182 416q0 12 -8 12q-578 14 -666 -10q-39 -8 -39 -61q0 -213 155 -335q85 -67 195 -67zM565 -41q-213 0 -341 139t-128 326q0 14 13 76q74 33 337 39t529 6q6 0 8 12l2 45q0 301 -145 469q-117 135 -329 135q-114 0 -193 -38t-162 -173
q-4 1 -18 11t-11 14q102 172 135 194q164 76 322 76q299 0 440 -203q131 -183 131 -427q0 -246 -93 -408t-259 -240q-101 -53 -238 -53z" />
    <glyph glyph-name="florin" unicode="&#x192;" horiz-adv-x="921" 
d="M375 631q-90 0 -144 4q0 4 14 30q13 26 17 29q33 -4 117 -4q8 0 8 8q35 242 105 371t178 205q76 55 134 55t87 -22q8 -2 6 -26t-47 -97q-2 -4 -11 -5t-14 1q-59 59 -108 59q-68 0 -103 -96q-45 -135 -77 -445q0 -8 4 -8q154 0 196 6q0 -20 -10 -30q-43 -27 -88 -31
t-102 -4q-8 0 -9 -10q-8 -57 -34 -256t-43 -301t-63 -194q-75 -147 -206 -205q-49 -22 -90 -21q-82 0 -106 43q-12 18 -6 30q12 53 40 93q2 2 10 4t9 0q88 -88 154 -88q35 0 57 45t39 143q16 98 46 343t46 366q0 8 -6 8z" />
    <glyph glyph-name="uni019F" unicode="&#x19f;" horiz-adv-x="1474" 
d="M782 20q152 0 238 74q186 158 186 488v32q-51 -20 -442 -20l-475 2q-8 0 -8 -10q29 -340 239 -488q110 -78 262 -78zM736 -39q-148 0 -270 51t-200 138q-166 186 -166 485q0 219 111 381q86 126 232 198t317 72q292 0 452 -184t160 -444t-119 -431q-86 -129 -227 -197
q-142 -68 -290 -69zM696 1233q-110 -1 -206 -59t-154 -187t-62 -293q0 -25 15 -26q70 -6 464 -6t443 4q4 0 4 10q-14 147 -72 272q-57 125 -155 197q-113 88 -277 88z" />
    <glyph glyph-name="Ohorn" unicode="&#x1a0;" horiz-adv-x="1474" 
d="M1374 647q0 -240 -121 -416q-88 -129 -228 -199q-141 -70 -287 -69q-146 0 -265 52t-199 139q-174 193 -174 481q0 211 113 381q86 122 236 196t293 74t266 -45q172 -51 228 -51t56 39q0 65 -59 102q0 17 10 25t42 22t46 15q61 0 61 -83t-60 -129t-161 -40
q203 -182 203 -494zM794 27q146 0 234 77q174 150 174 478q0 168 -58 320t-177 237q-117 90 -275 90q-104 0 -196 -51q-109 -66 -162 -198t-53 -300t63 -327t183 -243q121 -84 267 -83z" />
    <glyph glyph-name="ohorn" unicode="&#x1a1;" horiz-adv-x="946" 
d="M514 33q203 0 203 315q0 178 -75 293t-206 115q-66 0 -102 -31q-102 -70 -102 -264t78 -311q79 -117 204 -117zM870 987q20 -1 39 -27t19 -82t-46 -104q-46 -47 -130 -53q123 -111 122 -309q0 -113 -48 -210t-138 -155q-104 -72 -232 -72t-219 66q-163 118 -163 347
q0 228 174 345q113 78 254 78q66 1 144 -19q78 -19 137 -20q58 0 59 43q0 27 -26 63t-48 44q-6 12 8 20q14 14 44 30t50 15z" />
    <glyph glyph-name="Uhorn" unicode="&#x1af;" horiz-adv-x="1355" 
d="M1315 1279q0 29 -28 63t-48 42q-4 14 4 23q43 43 80 43q68 0 70 -94q0 -121 -125 -156q-40 -12 -56 -41t-18 -110q-10 -578 -31 -697q-57 -389 -485 -389t-473 369q-12 82 -12 397t-3 369q0 92 -51 108q-20 9 -98 19q-4 4 -4 15t4 15l235 -6l222 6q2 -2 2 -14t-2 -16
q-78 -15 -96 -21q-39 -11 -44 -110q-12 -311 0 -629q10 -186 68 -268q96 -150 326 -150q158 0 250 84t106 299q16 311 4 629q-2 85 -22 113t-53 35t-101 16q-2 4 -2 15t4 15l215 -4l123 2q39 0 39 28z" />
    <glyph glyph-name="uhorn" unicode="&#x1b0;" horiz-adv-x="931" 
d="M281 499q0 -255 10 -296q31 -125 168 -125q86 0 159 59q20 15 24 53t3 212q0 174 -4 257q-4 49 -33 57t-135 21q-4 3 -2 17t6 16q240 0 311 16t70 54q0 28 -28 64t-48 44q-5 5 4 19q46 47 84 47t56 -28t18 -68q0 -127 -141 -170q-10 -4 -12 -19l-5 -145l2 -406
q0 -60 12 -80t34 -20t75 4q0 -33 -4 -35q-139 -39 -250 -82q-12 0 -12 17v116q0 4 -4 6t-8 0q-147 -129 -264 -129q-231 0 -232 273q0 354 -3 408q-4 54 -24 64t-92 17q-2 3 1 17t6 16q141 0 268 39q-10 -55 -10 -310z" />
    <glyph glyph-name="uni01C4" unicode="&#x1c4;" horiz-adv-x="2525" 
d="M1715 1556q7 0 109 -44t122 -54t42 2t110 54q89 42 95 42q7 0 13 -9t4 -17q-146 -109 -238 -197q-8 -8 -24 -8q-16 18 -116 98t-136 107q0 6 6 16t13 10zM2210 1194q-461 0 -531 -5q-71 -5 -107 -55t-91 -188q-5 -2 -21 3t-16 9q43 188 55 310q10 6 21 2q39 -20 170 -21
h409q238 0 314 8q6 0 6 -16q-67 -121 -345 -571t-378 -600q-4 -10 2 -11q117 -16 526 -10q57 0 100 41q63 53 148 244q19 0 33 -10q-8 -53 -40 -170t-52 -146q-10 -16 -95 -16l-659 6q-119 0 -193 -6q-2 2 -3 11t1 11q143 193 414 617q270 424 332 551q8 12 0 12zM665 43
q182 0 296 113q158 162 157 465q0 338 -227 499q-127 88 -381 88q-78 0 -109 -10q-20 -16 -23 -59t-3 -478t4 -493t41 -82q63 -43 245 -43zM31 10q0 14 4 17q112 11 132 25q40 26 44 93q6 125 6 500t-4 441t-14 89q-17 37 -150 50q-2 2 0 15t4 15q147 -6 236 -6l385 8
q274 0 434 -139q190 -166 190 -465q0 -354 -270 -536q-190 -131 -461 -131l-385 8h-147q-4 2 -4 16z" />
    <glyph glyph-name="uni01C5" unicode="&#x1c5;" horiz-adv-x="2117" 
d="M1776 1018q25 45 66 106q42 62 62 78t35 16t15 -6q-141 -227 -172 -307q-8 -14 -35 -14q-25 61 -83 167t-83 142q10 16 61 17q10 -6 56 -80t69 -119q5 -4 9 0zM1872 735q-223 0 -257 -4t-50 -12q-42 -21 -95 -156q-6 -2 -20 1t-16 9q31 121 49 228q45 -18 137 -19h278
q97 0 150 6q6 0 6 -20q-188 -346 -403 -698q-8 -14 4 -15q72 -12 270 -12q70 0 148 184q6 6 34 6l4 -4q-20 -96 -69 -204q-14 -35 -39 -35l-541 10q-6 6 -6 25q311 496 418 700q6 10 -2 10zM665 43q182 0 296 113q158 162 157 465q0 338 -227 499q-127 88 -381 88
q-78 0 -109 -10q-20 -16 -23 -59t-3 -478t4 -493t41 -82q63 -43 245 -43zM31 10q0 14 4 17q112 11 132 25q40 26 44 93q6 125 6 500t-4 441t-14 89q-17 37 -150 50q-2 2 0 15t4 15q147 -6 236 -6l385 8q274 0 434 -139q190 -166 190 -465q0 -354 -270 -536
q-190 -131 -461 -131l-385 8h-147q-4 2 -4 16z" />
    <glyph glyph-name="uni01C6" unicode="&#x1c6;" horiz-adv-x="1669" 
d="M1327 1018q88 152 127 182q18 18 45 19q8 0 6 -7q-141 -229 -170 -307q-14 -14 -37 -14q-22 59 -80 165t-85 144q10 16 63 17q10 -6 55 -79t68 -120q4 -4 8 0zM1423 735q-221 0 -256 -4t-51 -12q-43 -22 -94 -156q-6 -2 -20 1t-17 9q31 121 49 228q47 -18 140 -19h276
q99 0 152 6q4 0 4 -20q-188 -346 -404 -698q-4 -14 6 -15q70 -12 269 -12q70 0 147 184q10 6 35 6l4 -4q-16 -72 -68 -204q-14 -35 -41 -35l-538 10q-8 4 -8 25q283 440 419 700q6 10 -4 10zM457 745q-98 0 -158 -61q-80 -82 -80 -249t78 -261q77 -94 183 -94t165 49
q15 12 19 46t5 198q2 253 -11 279q-13 27 -40 48q-63 45 -161 45zM662 90q0 8 -9 4q-165 -119 -287 -119t-204 105q-90 106 -90 282q0 92 38 178t103 144q68 55 166 91t186 36q12 0 94 -10q8 0 9 6q0 383 -5 439t-49 68t-92 17q-4 14 4 31q188 0 303 47q6 -4 7 -16
q-27 -52 -27 -588q0 -535 2 -609q3 -103 22 -115q19 -13 99 -1q2 -6 0 -18t-4 -13q-33 -18 -127 -52t-123 -36q-12 0 -14 29t-2 100z" />
    <glyph glyph-name="uni01C7" unicode="&#x1c7;" horiz-adv-x="1622" 
d="M1587 1239q0 -12 -6 -14q-76 -10 -106 -25q-27 -16 -35 -84q0 -697 -9 -925t-73 -356t-164 -208t-197 -80q-45 1 -79 17t-46 41v24q16 74 35 109q115 -84 185 -84t112 45q70 74 70 334q4 186 2 623t-6 453q-4 15 -6 29q-8 51 -56 68q-14 5 -112 19q-4 4 -4 15t4 15
l254 -6l233 6q4 -4 4 -16zM33 9q0 13 4 18q93 12 117 17q50 11 57 91q6 81 6 489t-3 468t-13 84q-10 23 -56 32q-4 1 -96 17q-2 2 -2 15t4 15l238 -6l227 6q4 -2 5 -15t-5 -15q-61 -9 -90 -17t-37 -26t-10 -64l-4 -461q-4 -342 4 -528q2 -49 35 -59q28 -12 156 -16t188 0
q60 3 110 63q68 76 125 219q3 4 17 0t16 -10q-12 -62 -44 -166t-52 -144q-18 -25 -82 -24l-561 8l-250 -6q-4 2 -4 15z" />
    <glyph glyph-name="uni01C8" unicode="&#x1c8;" horiz-adv-x="1476" 
d="M1339 59q0 -74 -12 -155q-18 -158 -106 -289t-179 -184q-32 0 -32 24q102 74 144 185t42 325q0 641 -5 679t-34 52q-33 14 -86 21q-2 6 -2 18t2 17q164 8 279 61q-2 -61 -4 -207t-4 -310q-2 -163 -3 -237zM1339 1099q0 -44 -28 -71q-6 -6 -40 -13t-42 -3q-47 18 -48 66
t7 55q31 35 81 35t60 -13q10 -12 10 -56zM33 9q0 13 4 18q93 12 117 17q50 11 57 91q6 81 6 489t-3 468t-13 84q-10 23 -56 32q-4 1 -96 17q-2 2 -2 15t4 15l238 -6l227 6q4 -2 5 -15t-5 -15q-61 -9 -90 -17t-37 -26t-10 -64l-4 -461q-4 -342 4 -528q2 -49 35 -59
q28 -12 156 -16t188 0q60 3 110 63q68 76 125 219q3 4 17 0t16 -10q-12 -62 -44 -166t-52 -144q-18 -25 -82 -24l-561 8l-250 -6q-4 2 -4 15z" />
    <glyph glyph-name="uni01C9" unicode="&#x1c9;" horiz-adv-x="858" 
d="M721 248q0 -260 -10 -344q-19 -158 -109 -289t-178 -184q-33 0 -33 24q102 74 145 185q42 111 42 325q0 641 -6 679t-33 52q-33 14 -86 21q-2 6 -2 18t2 17q163 8 278 61q-10 -305 -10 -565zM723 1099q0 -42 -31 -71q-6 -6 -40 -13t-40 -3q-49 20 -50 66t7 55
q31 35 81 35t62 -14q12 -13 11 -55zM141 684q0 490 -6 544t-30 62t-82 15q-4 4 -5 14q0 10 5 14q139 14 268 76q8 -4 8 -10q-18 -63 -18 -169v-550q0 -456 5 -522t12 -85q14 -39 112 -46q2 -3 0 -17t-4 -16l-191 6l-195 -6q-7 21 -2 33q59 6 88 21t32 80q3 66 3 556z" />
    <glyph glyph-name="uni01CA" unicode="&#x1ca;" horiz-adv-x="1990" 
d="M1954 1240q0 -11 -4 -15q-78 -10 -109 -25q-29 -16 -32 -70t-5 -439q-2 -384 -6 -478q-6 -242 -70 -374t-165 -212t-199 -80t-123 58v24q10 66 33 109q115 -84 184 -84t113 45q72 76 71 334q4 184 2 581t-7 458q-5 60 -10 82q-9 40 -52 52q-13 5 -111 19q-4 4 -4 15t4 15
l254 -6l232 6q4 -4 4 -15zM954 1240q0 11 4 15l238 -6l190 6q2 -2 2 -14t-2 -16q-43 -8 -79 -17q-63 -20 -69 -101t-7 -220q-2 -139 -3 -341t-2 -314t3 -242q-55 4 -119 0q-77 119 -443 573q-366 455 -371 462t-8 6t-4 -81t-1 -383t3 -381t22 -106q18 -28 54 -36
q36 -9 113 -17q4 -3 3 -17t-5 -16l-229 6l-209 -6q-2 2 -2 16t2 17q63 6 95 15t51 37q19 29 27 153t15 839q0 57 -42 94t-79 45q-37 9 -86 15q-2 2 0 15t4 15l209 -6q74 0 93 2q14 -33 77 -108q526 -657 756 -928q4 2 6 4q0 784 -6 853q-6 68 -20 94q-15 26 -51 36t-128 23
q-2 4 -2 15z" />
    <glyph glyph-name="uni01CB" unicode="&#x1cb;" horiz-adv-x="1843" 
d="M1376 -550q0 3 2 5q102 74 144 185q41 111 41 325q0 641 -4 678t-34 52t-85 22q-2 6 -2 18t2 17q161 8 276 61q-8 -182 -8 -717q-6 -133 -12 -192q-20 -158 -110 -289t-177 -184q-21 0 -27 8t-6 11zM1708 1099q0 -42 -31 -71q-6 -6 -39 -13t-41 -3q-49 20 -50 66t7 55
q32 35 82 35t61 -14q11 -13 11 -55zM954 1240q0 11 4 15l238 -6l190 6q2 -2 2 -14t-2 -16q-43 -8 -79 -17q-63 -20 -69 -101t-7 -220q-2 -139 -3 -341t-2 -314t3 -242q-55 4 -119 0q-77 119 -443 573q-366 455 -371 462t-8 6t-4 -81t-1 -383t3 -381t22 -106q18 -28 54 -36
q36 -9 113 -17q4 -3 3 -17t-5 -16l-229 6l-209 -6q-2 2 -2 16t2 17q63 6 95 15t51 37q19 29 27 153t15 839q0 57 -42 94t-79 45q-37 9 -86 15q-2 2 0 15t4 15l209 -6q74 0 93 2q14 -33 77 -108q526 -657 756 -928q4 2 6 4q0 784 -6 853q-6 68 -20 94q-15 26 -51 36t-128 23
q-2 4 -2 15z" />
    <glyph glyph-name="uni01CC" unicode="&#x1cc;" horiz-adv-x="1392" 
d="M1114 -35q0 641 -5 679t-35 52t-85 21q-2 6 -2 18t2 17q166 8 277 61q-8 -273 -8 -541t-17 -397q-16 -129 -104 -260t-176 -184q-21 0 -29 10t-4 14q102 74 144 185t42 325zM1257 1098q0 -41 -30 -70q-6 -6 -39 -13t-41 -3q-49 20 -49 78q-6 33 8 43q27 35 77 35t62 -15
q12 -14 12 -55zM33 10q0 14 4 17q45 4 76 15q31 12 35 70t4 282t-4 247q-4 25 -22 37q-17 12 -75 29q-2 4 0 15t6 13q143 18 240 78q6 1 5 -17t-4 -67t-1 -52t6 -1q168 135 284 135t181 -104q49 -76 49 -234q0 -295 2 -377q0 -39 27 -47q37 -16 88 -22q2 -7 0 -19t-6 -14
l-178 6q-72 0 -201 -6q-4 2 -4 16t4 17q61 6 78 12q39 12 43 69q4 56 3 218t-11 232t-56 108q-45 45 -131 45t-160 -68q-20 -20 -20 -74q0 -352 3 -432t38 -92q25 -10 86 -18q7 -14 -2 -33l-197 6l-186 -6q-4 2 -4 16z" />
    </font>
</defs>
</svg>
