<?xml version="1.0" standalone="no"?>
<!DOCTYPE svg PUBLIC "-//W3C//DTD SVG 1.1//EN" "http://www.w3.org/Graphics/SVG/1.1/DTD/svg11.dtd" >
<svg xmlns="http://www.w3.org/2000/svg">
<metadata>
Created by FontPrep 20130207 at Thu Jul 13 14:06:37 2017
 By Richard Lyon
(c) 2007 Adobe Systems Incorporated. All rights reserved.
</metadata>
<defs>
<font id="7f16e9252b2d3d3134c86b3914ca4387" horiz-adv-x='1024' >
  <font-face 
    font-family="ArnoPro-BoldDisplay"
    font-weight="700"
    font-stretch="normal"
    units-per-em="2048"
    panose-1="2 2 8 2 5 5 6 2 4 3"
    ascent="1409"
    descent="-639"
    x-height="799"
    cap-height="1235"
    bbox="-323.091 -760 2893.6 1745"
    underline-thickness="102"
    underline-position="-102"
    unicode-range="U+0020-FB06"
  />
<missing-glyph 
d="M102 1227v-1034l344 518zM162 102h690l-344 516zM567 711l346 -518v1034zM508 801l344 518h-690zM0 0v1419h1014v-1419h-1014z" />
    <glyph glyph-name="f_f" unicode="ff" horiz-adv-x="1085" 
d="M383 881v-74q0 -14 10 -14h266q8 6 9 16q10 168 67 295q-98 152 -225 151q-45 0 -74 -34q-53 -64 -53 -340zM143 803q0 289 267 457q127 80 229 79q152 0 225 -82q51 47 129 85t140 38q123 0 172 -77v-27q-7 -25 -47 -73t-56 -54q-12 -12 -19 -4t-26 27q-18 19 -34 39
t-50 43q-46 32 -84 32q-47 0 -62 -59t-15 -229v-188q1 -18 12 -17q74 4 106 4t47 1q14 1 27 1q-8 -29 -17 -86l-163 2q-10 0 -11 -13q5 -500 9 -555t19 -74t44 -27t82 -15q2 -5 1 -21t-7 -16l-295 6l-215 -6q-6 6 -5 19t5 18q74 12 84 16q33 14 33 70v588q0 10 -9 10h-264
q-10 0 -10 -13q6 -384 9 -500t16 -139t50 -26q37 -4 44 -6q2 -3 1 -19t-5 -18l-242 6l-229 -6q-8 19 0 37q59 8 82 20q29 12 28 66l2 581q0 14 -10 15l-90 6q0 27 10 37q35 6 84 32q8 6 8 15z" />
    <glyph glyph-name="f_f_i" unicode="ffi" horiz-adv-x="1562" 
d="M383 881v-74q0 -14 10 -14h266q8 6 9 16q10 176 67 301q-37 70 -100 108t-115 38t-76 -27q-22 -25 -31 -45t-19 -98t-11 -205zM143 803q0 127 63 252q62 125 196 205t262 80t200 -83q53 49 138 86q86 37 180 37t160 -37t90 -90q12 -25 0 -55q-27 -63 -99 -102
q-10 -4 -28 -3q-17 1 -27 8t-91 105t-150 98t-97 -92q-28 -94 -27 -315l2 -92q0 -12 11 -12l278 2q147 0 232 24q-4 -86 -4 -349q0 -264 2 -328t10 -77t26 -19t70 -15q2 -3 0 -19t-8 -18l-223 6l-226 -6q-2 4 -2 19t2 18q29 2 61 13t34 79q6 135 6 338t-4 227t-21 27h-233
q-10 0 -11 -13q5 -460 7 -538t13 -96t33 -24t64 -13q4 -5 2 -19t-6 -18l-233 6l-238 -6q-4 2 -4 18t4 19q59 8 78 18q31 14 31 64l2 592q0 10 -9 10h-264q-10 0 -10 -13q6 -384 9 -500t16 -139t50 -26q37 -4 44 -6q2 -3 1 -19t-5 -18l-242 6l-229 -6q-8 19 0 37q59 8 82 20
q29 12 28 68l2 579q0 14 -10 15l-90 6q0 31 10 37q35 6 84 32q8 6 8 15z" />
    <glyph glyph-name="f_f_l" unicode="ffl" horiz-adv-x="1568" 
d="M379 881v-74q0 -14 10 -14h266q8 6 9 16q10 174 69 303q-109 143 -227 143q-65 0 -97 -72q-9 -19 -19 -97t-11 -205zM139 803q0 293 267 461q122 76 252 76t202 -83q51 47 130 85t166 38t157 -34q26 -15 114 34q14 -4 15 -16q-14 -57 -16 -185t-1 -578q0 -450 2 -480
q2 -59 39 -76q12 -4 40 -8t38 -6q5 -10 -4 -37l-250 6l-213 -6q-2 6 -2 19t2 18q74 8 87 38q6 15 10 74t4 487t-4 529q-6 55 -29 82q-51 61 -121 61t-94 -75t-25 -231q0 -156 1 -180t12 -23q74 0 172 6q-12 -43 -19 -88l-153 2q-10 0 -11 -13q8 -476 8 -546q1 -70 13 -87
t50 -27t52 -9q2 -3 0 -19t-4 -18l-244 6l-237 -6q-8 18 0 37q68 10 88 20q29 12 29 70l2 584q0 10 -9 10h-262q-10 0 -10 -13q8 -530 9 -573q2 -43 14 -65t50 -27q38 -4 44 -6q2 -3 1 -19t-5 -18l-242 6l-229 -6q-8 19 0 37q59 8 77 18q33 14 33 68l2 581q0 14 -10 15l-90 6
q0 27 10 37q29 4 84 32q8 4 8 15z" />
    <glyph glyph-name="longs_t" unicode="&#x17f;t" horiz-adv-x="1124" 
d="M143 803q-1 161 51 277t176 207t250 91t196 -72q71 -72 81 -173q4 -39 4 -169t-1 -150t9 -21q119 0 205 8q-6 -33 -10 -99q-100 0 -199 3q-8 0 -8 -13l-2 -368q0 -119 8 -152q17 -72 95 -72t114 25q8 -16 2 -37q-43 -59 -116 -86t-132 -27q-189 0 -214 155q-7 53 -7 177
l2 375q0 23 -12 25q-36 6 -96 6l12 59q66 10 83 18t23 53q6 44 7 242q0 117 -42 172t-106 56q-76 0 -104 -116q-28 -117 -27 -443q0 -326 8 -621q3 -51 13 -67t32 -22t48 -9q26 -2 32 -4q2 -3 1 -19t-5 -18l-256 6l-229 -6q-8 19 0 35q59 8 82 20q29 12 28 68l2 573
q0 14 -10 15l-90 6q0 33 12 45q51 8 71 23t19 24z" />
    <glyph glyph-name="R_A" unicode="RA" horiz-adv-x="2359" 
d="M1671 541h152q6 0 6 10q-90 295 -129 407h-8l-136 -405l3 -10q20 -2 112 -2zM526 1180q-23 0 -45 -9q-12 -6 -12 -30q-6 -35 -6 -500q0 -10 10 -10q168 -14 227 20q82 47 82 199t-66 241q-67 89 -190 89zM55 11q0 13 4 18q69 10 89 15q39 9 46 105q7 95 7 457t-3 465
q-3 102 -61 115q-8 2 -24 5l-32 6t-30 3q-2 4 -2 18t2 17l262 -6l375 4q182 0 271 -79t89 -203q0 -123 -66 -203q-67 -80 -171 -119q-7 -7 -2 -15q35 -68 149 -246t176 -251q62 -72 96 -72t49 13q30 26 202 494t213 591q16 59 22 90q49 -4 92 -4t88 4q2 -10 25 -96
q260 -779 305 -905t77 -156t130 -45q2 -3 0 -19t-4 -18l-275 6q-66 0 -292 -6q-8 25 0 37q82 18 96 24q31 12 20 43q-49 156 -118 346q-8 14 -22 16t-104 1h-198q-14 0 -18 -19q-104 -294 -102 -332t18 -48q31 -21 133 -31q2 -3 0 -19t-6 -18l-242 6l-264 -8q-147 0 -221 98
q-56 73 -160 252q-103 180 -107 186q-25 45 -61 45h-35q-8 0 -8 -12q0 -184 4 -409q2 -58 14 -78t42 -27t100 -16q6 -3 5 -17t-5 -20l-289 6q-168 0 -218 -3q-51 -3 -57 -3q-4 4 -4 17z" />
    <glyph glyph-name="K_A" unicode="KA" horiz-adv-x="2363" 
d="M1675 541h152q6 0 6 10q-90 295 -129 407h-8l-133 -405l2 -10q20 -2 110 -2zM928 1131q0 33 -35 45q-49 16 -117 24q-2 4 -2 18t2 17l211 -6q129 2 254 6q2 -4 2 -17t-2 -18q-10 -2 -64 -11t-70 -23q-17 -13 -42 -30t-161 -176t-204 -235v-6q68 -119 226 -317t256 -293
q43 -41 88 -41q25 0 57 75q74 168 199 510t172 490q16 59 22 90q49 -4 92 -4t89 4q2 -10 24 -96q258 -779 304 -905t78 -156t130 -45q2 -3 0 -19t-4 -18l-274 6q-66 0 -293 -6q-8 25 0 37q82 18 96 24q31 12 20 43q-49 156 -118 346q-8 14 -22 16t-124 1h-176q-14 0 -18 -19
q-106 -299 -105 -325v-12q-1 -30 9 -36q10 -7 25 -18t108 -20q2 -3 0 -19t-7 -18l-213 6l-286 -6q-127 0 -240 131t-315 432q-10 16 -27 29q0 23 6 22q160 98 355 361q94 129 94 162zM47 8q0 12 4 17q53 8 84 14q61 14 64 131q6 207 4 384t-2 330t-2 187q-4 93 -45 107
t-95 22q-6 4 -5 18t5 17l283 -6l260 6q4 -2 4 -16t-4 -19q-49 -6 -78 -14q-53 -14 -57 -120t-4 -449q0 -344 4 -472q2 -92 63 -104q39 -8 58 -10q20 -2 28 -4q2 -5 0 -19t-6 -16q-238 8 -270 8q-220 -8 -289 -8q-4 4 -4 16z" />
    <glyph glyph-name="T_T" unicode="TT" horiz-adv-x="2115" 
d="M287 10q0 14 4 19q41 4 97 13t70 40q15 31 21 153t6 908q0 18 -10 18q-81 6 -213 -2q-66 -4 -106 -62t-78 -177q-2 -4 -20 -1t-19 9q29 145 33 317q0 4 5 8t9 2q76 -27 176 -26h1593q121 0 203 26q8 0 8 -10q-25 -84 -45 -332q-2 -4 -19 -4t-20 4q-23 141 -42 177t-37 50
q-17 13 -53 15t-127 3t-101 -3t-10 -16q0 -797 8 -994q2 -84 57 -100q31 -8 97 -16q4 -3 3 -19t-5 -18l-283 6l-338 -6q-4 4 -4 18t4 19q41 4 97 13t70 40q15 31 21 153t7 908q0 18 -11 18l-573 -4q-10 -6 -10 -18q0 -797 8 -994q2 -84 57 -100q31 -8 96 -16q4 -3 3 -19
t-5 -18l-282 6l-338 -6q-4 4 -4 18z" />
    <glyph glyph-name="T_h" unicode="Th" horiz-adv-x="2045" 
d="M311 14q0 16 4 17q37 4 115 18q35 4 50 35q16 31 22 153t6 906q0 18 -10 18q-89 7 -230 -2q-70 -4 -114 -72q-43 -76 -72 -161q-6 -6 -22 -2t-19 12q27 135 33 321q14 -2 66 -15t124 -13h877q12 0 12 12l-2 86q0 4 5 11t9 8q112 7 167 24q55 16 59 16q12 0 12 -12
l-2 -129v-524q0 -14 8 -6q143 106 258 106q248 0 248 -327v-394q0 -36 44 -55q15 -6 66 -14q3 -3 3 -19t-5 -18l-239 6q-59 0 -213 -6q-2 4 -2 18t2 19q39 8 59 15q20 8 25 24q6 16 8 59q10 391 -7 445q-16 54 -58 84t-94 30t-91 -18q-12 -6 -12 -23q0 -485 6 -527t16 -57
t80 -32q10 -14 0 -37l-223 6l-229 -6q-10 14 0 37q41 6 63 14q20 7 26 27q16 50 17 542q0 492 -2 516q-3 26 -29 26q-315 6 -342 1q-10 -6 -10 -18q0 -795 8 -992q2 -84 58 -100q25 -6 104 -16q0 -33 -2 -37l-291 6l-336 -6q-4 4 -4 20z" />
    <glyph glyph-name="f_b" unicode="fb" horiz-adv-x="1533" 
d="M979 709q-18 0 -59 -9q-14 -4 -15 -26q-8 -362 6 -492q6 -57 35 -82q48 -47 112 -47q64 -1 111 61t47 237t-69 267q-64 91 -168 91zM141 801q0 168 65 294t218 222q106 63 202 63t165 -34q25 -14 114 34q14 -4 15 -16q-14 -57 -14 -175t-1 -243q0 -125 -2 -205
q0 -8 10 -4q168 84 252 84q133 0 218 -97t85 -259q0 -227 -172 -361q-57 -45 -177 -87t-185 -42q-166 0 -291 62q10 55 11 153t1 500q0 404 -3 458t-29 87q-47 66 -117 65q-37 0 -60 -18q-63 -53 -63 -309q0 -133 1 -157t11 -23q74 0 172 6q-10 -35 -18 -94l-154 2
q-10 0 -10 -13q8 -484 8 -548q1 -64 13 -81t45 -25t57 -9q2 -3 0 -19t-4 -18l-244 6l-237 -6q-2 2 -2 16t2 21q68 10 88 20q29 12 28 72l2 567q0 14 -10 15l-90 6q0 35 14 49q37 6 78 26q8 6 8 15z" />
    <glyph glyph-name="f_f_b" unicode="ffb" horiz-adv-x="2060" 
d="M1509 709q-12 0 -63 -11q-14 -4 -14 -26q-8 -358 6 -486q6 -57 35 -82q57 -57 131 -57q45 0 84 51q55 72 55 252t-66 270t-168 89zM383 881v-74q0 -14 10 -14h266q8 6 9 16q10 174 69 303q-109 143 -227 143q-65 0 -97 -72q-9 -19 -19 -97t-11 -205zM143 803
q0 293 267 461q122 76 252 76t202 -83q51 47 131 85t166 38t156 -34q25 -14 115 34q14 -4 14 -16q-14 -57 -15 -185t-1 -440q0 -2 4 -4t6 0q172 86 248 86q135 0 221 -98t86 -258q0 -238 -162 -363q-59 -45 -163 -86t-184 -41q-81 -1 -159 19t-139 2q-2 -2 -8 2t-6 8
q8 74 8 564t-4 589q-6 55 -29 82q-49 59 -121 59t-96 -74t-23 -255l2 -166q0 -12 11 -12q74 0 172 6q-12 -43 -19 -88l-153 2q-10 0 -11 -13q9 -536 9 -576t12 -57t50 -27t52 -9q2 -3 0 -19t-4 -18l-244 6l-237 -6q-8 18 0 37q68 10 88 20q29 12 29 70l2 584q0 10 -9 10
h-262q-10 0 -10 -13q8 -530 9 -573t14 -66t50 -26q37 -4 44 -6q2 -3 1 -19t-5 -18l-242 6l-229 -6q-8 19 0 37q59 8 77 18q33 14 33 68l2 581q0 14 -10 15l-90 6q0 27 10 37q27 4 84 32q8 4 8 15z" />
    <glyph glyph-name="f_f_h" unicode="ffh" horiz-adv-x="2074" 
d="M27 12q0 14 2 19q59 8 77 18q33 14 33 68l2 581q0 14 -10 15l-90 6q0 27 10 37q27 4 84 32q8 4 8 15q0 293 267 461q122 76 252 76t202 -83q55 55 136 89t170 34t147 -34q25 -14 115 34q14 -4 14 -16q-14 -57 -15 -185t-1 -458q0 -14 8 -6q143 106 258 106
q248 0 248 -327v-394q0 -36 44 -55q15 -6 66 -14q4 -3 3 -19t-5 -18l-240 6q-59 0 -213 -6q-2 4 -2 18t2 19q39 8 59 15q20 8 26 24t8 59q10 395 -8 449t-58 85q-41 29 -92 29t-92 -18q-12 -6 -12 -23q0 -489 6 -531t16 -57t80 -32q10 -14 0 -37l-223 6l-226 -6q-10 14 0 37
q33 6 57 14q24 9 30 29t12 105t0 517q0 362 -4 463q-6 55 -29 82q-51 61 -121 61t-94 -75q-24 -76 -25 -256l2 -166q0 -12 11 -12q74 0 172 6q-12 -43 -19 -88l-153 2q-10 0 -11 -13q9 -536 9 -576t12 -57t50 -27t52 -9q2 -3 0 -19t-4 -18l-244 6l-237 -6q-8 18 0 37
q68 10 88 20q29 12 29 70l2 584q0 10 -9 10h-262q-10 0 -10 -13q8 -530 9 -573t14 -66t50 -26q37 -4 44 -6q2 -3 1 -19t-5 -18l-242 6l-229 -6q-2 4 -2 18zM383 881v-74q0 -14 10 -14h266q8 6 9 16q10 174 69 303q-37 61 -100 102t-117 41t-76 -26q-22 -25 -31 -45t-19 -98
t-11 -205z" />
    <glyph glyph-name="f_f_j" unicode="ffj" horiz-adv-x="1556" 
d="M379 881v-74q0 -14 10 -14h266q8 6 9 16q10 174 69 303q-109 143 -223 143q-69 0 -101 -72q-9 -19 -19 -97t-11 -205zM139 803q0 127 63 252q62 125 196 205t262 80t200 -83q53 49 138 86q86 37 180 37t160 -37t89 -90q12 -25 0 -55q-27 -63 -98 -102q-11 -4 -29 -3
t-26 8t-80 93t-102 98t-56 13q-72 1 -100 -93t-27 -315l4 -92q0 -12 11 -12l278 2q137 0 232 26v-333q0 -252 -3 -382t-24 -225q-35 -155 -145 -273t-195 -149q-10 1 -21 9t-14 10q-4 10 0 14q82 37 114 117t32 268q0 662 -11 815q-4 20 -18 23h-225l-13 -13q5 -460 7 -538
t13 -96t33 -24t64 -13q4 -5 2 -19t-6 -18l-233 6l-238 -6q-4 2 -4 18t4 19q59 8 78 18q31 14 31 64l2 592q0 10 -9 10h-264q-10 0 -10 -13q6 -384 9 -500q4 -116 16 -138t50 -27q38 -4 44 -6q2 -3 1 -19t-5 -18l-242 6l-229 -6q-8 19 0 37q59 8 81 20q29 12 29 68l2 579
q0 14 -10 15l-90 6q0 31 10 37q35 6 84 32q8 6 8 15z" />
    <glyph glyph-name="f_f_k" unicode="ffk" horiz-adv-x="2019" 
d="M383 881v-74q0 -14 10 -14h266q8 6 9 16q14 184 69 303q-84 143 -225 143q-67 0 -99 -72q-9 -19 -19 -97t-11 -205zM143 803q0 293 267 461q122 76 252 76t202 -83q51 47 132 85t166 38t155 -34q25 -14 115 34q14 -4 14 -16q-14 -58 -14 -154q0 -531 -7 -792
q75 12 213 184q62 76 62 103t-33 34q-61 16 -98 17q-2 6 0 20t4 17q168 -6 371 14q2 -4 2 -17t-2 -20q-100 -20 -152 -72q-82 -82 -170 -188v-8q28 -57 144 -212t184 -216q35 -33 116 -43q2 -3 0 -19t-4 -18q-36 -4 -148 -7t-160 0t-91 52q-83 97 -155 217t-83 127
q3 -197 5 -249t13 -69t42 -23t55 -11q6 -17 -4 -37l-248 6l-209 -6q-2 4 -2 19t2 18q41 6 68 16q27 9 31 73t4 499t-4 536q-6 55 -29 82q-51 61 -121 61t-94 -74t-25 -228q0 -156 1 -180t12 -23q74 0 172 6q-12 -43 -19 -88l-153 2q-10 0 -11 -13q9 -536 9 -576t12 -57
t50 -27t52 -9q2 -3 0 -19t-4 -18l-244 6l-237 -6q-8 18 0 37q68 10 88 20q29 12 29 70l2 584q0 10 -9 10h-262q-10 0 -10 -13q8 -530 9 -573t14 -66t50 -26q37 -4 44 -6q2 -3 1 -19t-5 -18l-242 6l-229 -6q-8 19 0 37q59 8 77 18q33 14 33 68l2 581q0 14 -10 15l-90 6
q0 27 10 37q27 4 84 32q8 4 8 15z" />
    <glyph glyph-name="f_f_t" unicode="fft" horiz-adv-x="1644" 
d="M139 803q0 155 65 273t174 186q108 68 208 68t133 -56v-27q-4 -18 -35 -66t-51 -61q-12 -4 -25 2q-102 125 -147 125t-63 -50t-19 -203q0 -153 1 -177t11 -24h266q8 6 9 16q16 348 268 506q104 66 186 65q119 0 160 -67v-27q-18 -49 -92 -123h-21q-2 2 -28 29
q-92 92 -160 92q-23 0 -41 -17t-26 -79q-7 -62 -7 -185q0 -124 4 -198q0 -12 11 -12l245 2q10 4 11 12v170q61 18 130 51t93 55q16 4 31 4q-6 -98 -7 -276q0 -18 11 -18q119 0 204 8q-6 -39 -10 -88l-198 2q-8 0 -9 -13l-2 -380q0 -117 8 -150q17 -72 95 -72t114 25
q8 -16 2 -37q-44 -59 -116 -86t-131 -27q-139 0 -191 93q-22 39 -24 96q-2 58 -2 143l2 383q0 23 -13 25h-243q-10 0 -11 -13q0 -377 11 -561q2 -49 17 -68t44 -27t82 -15q2 -5 1 -21t-7 -16l-295 6l-209 -6q-6 6 -5 19t5 18q66 10 78 16q33 14 33 70v588q0 10 -9 10h-264
q-10 0 -10 -13q6 -384 9 -500q4 -116 16 -138t50 -27q38 -4 44 -6q2 -3 1 -19t-5 -18l-242 6l-229 -6q-8 19 0 37q59 8 81 20q29 12 29 68l2 579q0 14 -10 15l-92 6q0 25 12 37q43 6 84 32q8 6 8 15z" />
    <glyph glyph-name="f_h" unicode="fh" horiz-adv-x="1550" 
d="M141 799q0 168 64 295q63 127 217 221q194 116 366 31q27 -14 117 34q14 -4 15 -16q-14 -57 -15 -203v-440q0 -14 8 -6q143 106 258 106q248 0 248 -327v-394q0 -34 44 -55q15 -6 67 -14q4 -3 3 -19t-5 -18l-240 6q-59 0 -213 -6q-2 4 -2 18t2 19q39 8 59 15q20 8 26 24
q7 16 9 59q10 391 -8 449t-59 87t-92 29t-92 -18q-12 -6 -13 -23q0 -491 6 -533t17 -57t80 -32q10 -14 0 -37l-224 6l-229 -6q-10 14 0 37q41 6 63 14q37 12 39 100q5 157 5 569t-2 452t-31 73q-51 61 -123 61q-37 0 -60 -20q-63 -53 -63 -336q0 -104 1 -128t11 -23
q74 0 172 6q-10 -35 -18 -94l-154 2q-10 0 -10 -13q8 -484 8 -548q1 -64 13 -81t45 -25t57 -9q2 -3 0 -19t-4 -18l-244 6l-237 -6q-2 6 -2 18t2 19q68 10 88 20q29 12 28 72l2 567q0 14 -10 15l-90 6q0 31 14 45q39 6 78 28q8 6 8 15z" />
    <glyph glyph-name="f_i" unicode="fi" horiz-adv-x="1034" 
d="M25 12q0 16 4 19q59 8 77 18q33 15 34 67t1 582q0 14 -10 15l-90 6q0 27 10 37q35 6 84 32q8 6 8 15q0 332 279 506q115 71 220 71t172 -37t89 -90q12 -25 0 -55q-35 -70 -98 -102q-11 -4 -29 -3t-26 7q-6 6 -86 102t-158 96q-39 0 -68 -34q-53 -63 -53 -369q0 -55 1 -79
t11 -23l279 2q147 0 231 24q-4 -86 -4 -349q0 -264 2 -328t10 -77q9 -13 27 -19t70 -15q2 -3 0 -19t-8 -18l-224 6l-225 -6q-2 4 -2 19t2 18q29 2 61 13t33 79q6 135 6 338t-4 227t-20 27h-234q-10 0 -10 -13q8 -532 9 -574q0 -42 12 -60t32 -24t64 -13q4 -5 2 -19t-6 -18
l-234 6l-237 -6q-4 2 -4 18z" />
    <glyph glyph-name="f_j" unicode="fj" horiz-adv-x="1030" 
d="M25 12q0 16 4 19q59 8 77 18q33 15 34 67t1 582q0 14 -10 15l-90 6q0 27 10 37q35 6 84 32q8 6 8 15q0 332 281 508q111 69 217 69t173 -37t89 -90q12 -25 0 -55q-35 -70 -98 -102q-11 -4 -29 -3t-27 8t-87 103q-80 96 -154 96q-43 0 -76 -40q-47 -55 -47 -365l2 -90
q0 -12 10 -12l279 2q137 0 231 26v-333q0 -252 -3 -382t-23 -225q-35 -155 -146 -273t-194 -149q-20 4 -35 19q-4 10 0 14q82 37 114 117t31 268q0 662 -10 815q-4 20 -18 23h-226q-10 0 -10 -13q8 -532 9 -574q0 -42 12 -60t32 -24t64 -13q4 -5 2 -19t-6 -18l-234 6
l-237 -6q-4 2 -4 18z" />
    <glyph glyph-name="f_k" unicode="fk" horiz-adv-x="1495" 
d="M141 799q0 168 64 295q63 127 217 221q108 65 230 65q65 0 139 -34q25 -14 114 34q14 -4 15 -16q-14 -58 -16 -198t-1 -750q47 8 107 68t106 128q45 66 45 93t-33 34q-61 16 -100 17q-2 6 0 20t4 17q168 -6 371 14q2 -4 2 -17t-2 -20q-67 -14 -95 -28t-63 -52
q-35 -39 -143 -174v-8q26 -57 146 -217t188 -221q31 -29 114 -39q2 -3 0 -19t-4 -18q-34 -4 -148 -7t-162 0t-93 55t-135 193t-105 146q2 -193 4 -246q1 -53 13 -70t43 -23t55 -11q6 -17 -4 -37l-248 6l-205 -6q-2 4 -2 19t2 18q41 6 68 16q27 9 31 73t2 540q0 476 -4 512
q-4 38 -29 67q-51 61 -125 61q-35 0 -58 -20q-63 -53 -63 -328q0 -113 1 -136t11 -23q74 0 172 6q-10 -35 -18 -94l-154 2q-10 0 -10 -13q8 -484 8 -548q1 -64 13 -81t45 -25t57 -9q2 -3 0 -19t-4 -18l-244 6l-237 -6q-2 6 -2 18t2 19q68 10 88 20q29 12 28 72l2 567
q0 14 -10 15l-90 6q0 35 12 47q88 14 88 41z" />
    <glyph glyph-name="f_l" unicode="fl" horiz-adv-x="1048" 
d="M143 801q0 168 64 295q63 127 217 221q106 63 200 63t169 -34q25 -14 114 34q14 -4 15 -16q-14 -57 -16 -185t-1 -578q0 -449 2 -493t39 -61q12 -4 42 -9t36 -7q5 -10 -4 -37l-250 6l-211 -6q-2 6 -2 19t2 18q75 7 87 37q7 16 10 75t3 489t-4 529q-6 55 -28 82
q-47 57 -123 57q-35 0 -58 -18q-63 -53 -63 -309q0 -133 1 -157t11 -23q76 0 174 6q-10 -35 -18 -94l-156 2q-10 0 -10 -13q6 -526 8 -568q3 -42 15 -60t45 -26t57 -9q2 -3 0 -19t-4 -18l-244 6l-237 -6q-8 19 0 37q68 10 88 20q29 12 28 72l2 567q0 14 -10 15l-90 6
q0 33 12 45q41 6 80 28q8 6 8 17z" />
    <glyph glyph-name="f_t" unicode="ft" horiz-adv-x="1110" 
d="M25 12q0 16 4 19q61 10 86 21t24 71v571q0 14 -8 15l-90 6q0 31 14 45q88 15 88 39q0 176 62 299q61 123 209 217q162 101 292 43q48 -22 66 -53v-27q-20 -57 -96 -139h-21q-39 47 -63 73q-73 76 -135 74q-27 0 -43 -20q-31 -46 -31 -236t1 -214t11 -23h234q10 6 10 12
v172q61 18 130 51t93 55q16 4 31 4q-6 -98 -6 -276q0 -18 10 -18q111 0 197 8q-6 -33 -11 -99q-91 0 -190 3q-8 0 -8 -13l-2 -370q0 -119 8 -152q17 -72 87 -72t107 25q8 -18 2 -39q-80 -109 -226 -109q-192 0 -217 155q-7 53 -7 177l2 379q0 23 -12 25h-232q-10 0 -10 -13
q4 -356 8 -480q3 -124 15 -144t34 -26t95 -17q2 -3 -2 -19t-7 -18l-290 6l-209 -6q-4 2 -4 18z" />
    <glyph glyph-name="longs_b" unicode="&#x17f;b" horiz-adv-x="1523" 
d="M969 709q-18 0 -60 -9q-14 -4 -14 -26q-8 -362 6 -492q6 -57 35 -82q48 -47 112 -47q64 -1 111 61t47 237t-69 267q-64 91 -168 91zM141 799q0 346 281 516q188 114 358 31q25 -14 115 34q14 -4 14 -16q-14 -57 -15 -175t-1 -243v-205q0 -8 10 -4q168 84 252 84
q133 0 218 -97t85 -259q0 -227 -172 -361q-57 -45 -177 -87t-185 -42q-166 0 -291 62q10 55 11 153t1 502q0 406 -3 462t-30 85q-51 61 -110 61q-27 0 -49 -18q-68 -55 -68 -364v-218q6 -454 6 -534t13 -98q14 -18 52 -28t54 -9q2 -3 -1 -19t-5 -18l-244 6l-237 -6
q-8 19 0 35q68 10 88 20q29 12 28 72l2 569q0 14 -10 15l-90 6q0 33 14 47q37 6 78 26q8 6 8 15z" />
    <glyph glyph-name="longs_h" unicode="&#x17f;h" horiz-adv-x="1554" 
d="M21 12q0 12 2 19q68 10 83 18q33 14 33 72l2 569q0 14 -10 15l-90 6q0 33 14 47q37 6 78 26q8 6 8 15q0 168 64 296q63 128 217 222q106 63 193 63t169 -34q25 -14 115 34q14 -4 14 -16q-14 -57 -15 -175t-1 -253v-215q0 -14 8 -6q143 106 258 106q248 0 248 -327v-394
q0 -36 44 -55q15 -6 67 -14q4 -3 3 -19t-5 -18l-240 6q-59 0 -213 -6q-4 4 -4 18t2 19q43 8 61 15q18 8 25 24q6 16 8 59q10 395 -7 449t-58 85q-40 29 -92 29t-93 -18q-12 -6 -12 -23q0 -497 5 -535t18 -54t84 -31q8 -12 -5 -37l-223 6l-229 -6q-10 14 0 37q41 6 63 14
q20 9 28 29t11 86q4 66 4 474t-5 493t-32 114q-51 61 -112 62q-29 0 -51 -19q-70 -57 -70 -385l2 -194q8 -476 8 -548q1 -73 13 -91t45 -26t49 -9q2 -3 0 -19t-4 -18l-236 6l-237 -6q-2 6 -2 18z" />
    <glyph glyph-name="longs_i" unicode="&#x17f;i" horiz-adv-x="1032" 
d="M649 138q4 84 4 300t-10 226q-12 29 -72 55q-2 2 -2 17t2 18q43 0 154 20t180 47l-4 -338q0 -267 2 -333t10 -81q15 -28 97 -38q0 -31 -9 -37l-223 6l-231 -6q-2 2 -3 18t1 19q39 4 69 14t35 93zM25 12q0 16 4 19q59 8 77 18q33 14 33 62l2 581q0 12 -10 13l-90 6
q0 33 12 45q45 8 82 30q8 6 8 17q0 330 281 506q115 71 219 71t171 -37t89 -90q12 -25 0 -55q-27 -63 -98 -102q-11 -4 -29 -3t-27 8t-87 102t-158 95q-41 0 -68 -36q-53 -76 -51 -428q4 -544 8 -646t18 -123t87 -34q4 -5 2 -19t-6 -18l-228 6l-237 -6q-4 2 -4 18z" />
    <glyph glyph-name="longs_k" unicode="&#x17f;k" horiz-adv-x="1497" 
d="M141 799q0 168 64 296q63 128 217 222q106 63 193 63t169 -34q25 -14 115 34q14 -4 14 -16q-14 -57 -15 -175t-1 -406v-367q47 8 107 68t107 128q46 66 46 93t-33 34q-61 16 -102 17q-2 6 0 20t4 17q168 -6 371 14q4 -4 4 -17t-4 -20q-67 -14 -95 -28t-63 -52
q-35 -39 -143 -174q-12 -12 127 -199q139 -186 207 -247q35 -33 114 -43q2 -3 0 -17t-4 -16q-34 -4 -148 -7t-162 0t-93 55t-135 193t-105 146q2 -193 4 -246t13 -70q10 -17 42 -23t56 -11q6 -17 -4 -37l-248 6l-209 -6q-2 4 -2 19t2 18q41 6 67 16q26 9 31 73q4 64 4 494
t-5 514t-32 113q-51 61 -112 62q-29 0 -51 -19q-70 -57 -70 -391l2 -188q8 -476 8 -548q1 -73 13 -90t50 -27t44 -9q2 -3 0 -19t-4 -18l-236 6l-237 -6q-2 6 -2 18t2 19q66 10 86 20q31 14 30 70l2 569q0 14 -10 15l-90 6q0 33 12 45q35 6 80 28q8 6 8 15z" />
    <glyph glyph-name="longs_l" unicode="&#x17f;l" horiz-adv-x="1044" 
d="M139 799q0 342 285 518q106 63 200 63t164 -34q25 -14 115 34q14 -4 15 -16q-14 -57 -16 -215q-2 -159 -1 -557q0 -398 3 -452t11 -69q7 -15 25 -23t44 -11q26 -4 34 -6q5 -10 -4 -37l-250 6l-217 -6q-2 6 -2 19t2 18q51 8 69 16q18 7 26 27t9 96q2 76 2 505t-3 482
t-29 84q-51 61 -119 62q-29 0 -53 -21q-63 -53 -64 -428v-170q4 -242 4 -382t2 -178q2 -40 13 -57t48 -27t44 -9q2 -3 0 -19t-4 -18l-234 6l-238 -6q-8 19 0 37q62 10 90 22t27 68l2 569q0 14 -10 15l-90 6q0 33 14 47q37 6 78 26q8 6 8 15z" />
    <glyph glyph-name="longs_longs" unicode="&#x17f;&#x17f;" horiz-adv-x="1038" 
d="M653 690q0 14 -10 15l-92 6q0 33 14 47q33 6 84 30q6 6 6 19q6 168 66 303q-104 145 -207 145q-70 0 -100 -85t-29 -310q0 -428 8 -723q2 -51 15 -73t49 -27q36 -4 43 -6q2 -3 1 -19t-5 -18l-238 6l-229 -6q-8 19 0 37q55 8 75 18q35 16 35 68l2 573q0 14 -10 15l-90 6
q0 33 12 45q47 8 84 30q6 6 6 21q12 295 281 463q111 70 195 70t112 -11q28 -10 49 -17t30 -13q10 -7 26 -16t20 -13t12 2q119 108 240 108t162 -67v-27q-18 -49 -92 -123h-21q-6 6 -36 37q-87 90 -148 90q-78 0 -74 -430q10 -710 11 -740q2 -60 61 -77q45 -10 57 -12
q2 -5 1 -21t-7 -16l-270 6l-205 -6q-6 6 -5 19t5 18q59 8 74 16q33 14 32 70v573z" />
    <glyph glyph-name="longs_longs_i" unicode="&#x17f;&#x17f;i" horiz-adv-x="1554" 
d="M1092 738q0 13 2 16q44 0 154 20t179 47q-4 -51 -4 -329t2 -342q3 -66 11 -81q16 -28 96 -38q0 -31 -8 -37l-224 6l-225 -6q-2 2 -3 18t1 19q31 2 63 13t36 94t4 304q1 221 -11 232q-10 23 -71 49q-2 2 -2 15zM668 117v573q0 14 -11 15l-92 6q0 33 15 47q45 8 82 30
q8 6 8 17q6 188 65 305q-39 74 -99 110t-110 36t-79 -26q-64 -58 -64 -391q0 -731 20 -771q12 -24 101 -37q2 -3 1 -19t-5 -18l-242 6l-229 -6q-8 19 0 37q59 8 82 20q29 12 28 66l2 573q0 14 -10 15l-92 6q0 33 14 47q51 8 71 22t19 25q13 155 69 263t196 194q52 34 122 56
q182 58 316 -40q22 -16 28 -10q150 113 297 112q98 0 165 -37t89 -90q12 -25 0 -55q-27 -63 -98 -102q-11 -4 -29 -3t-27 8t-61 71t-69 81q-48 48 -98 49q-51 1 -79 -37t-41 -131q-13 -94 -11 -268t3 -428q2 -254 5 -303q4 -49 12 -66q14 -29 94 -38q2 -5 1 -21t-7 -16
l-254 6l-205 -6q-6 6 -5 19t5 18q59 8 74 16q33 14 33 70z" />
    <glyph glyph-name="longs_longs_l" unicode="&#x17f;&#x17f;l" horiz-adv-x="1554" 
d="M1423 630q0 -436 3 -490t13 -73t36 -24q27 -4 41 -7t24 -5q5 -10 -4 -37l-250 6l-211 -6q-2 6 -2 19t2 18q77 11 90 47t13 537t-4 553t-25 69q-49 66 -121 66q-88 0 -110 -166q-12 -91 -10 -269t2 -339q1 -161 3 -259t3 -140t15 -64t95 -35q2 -5 1 -21t-7 -16l-254 6
l-207 -6q-6 6 -5 19t5 18q45 6 76 21t31 65l2 573q0 14 -11 15l-90 6q0 33 15 47q88 21 88 45q6 184 55 291q8 16 2 26q-23 51 -87 93t-132 42q-68 1 -96 -79t-29 -306q0 -438 8 -733q2 -51 15 -72t104 -34q2 -3 1 -19t-5 -18l-250 6l-229 -6q-2 6 -2 18t2 19q66 10 82 18
q29 12 28 68l2 573q0 14 -10 15l-90 6q0 33 12 45q88 14 88 47q7 155 69 265t192 191t238 81q109 0 166 -36q16 -10 38 -26t28 -10q86 66 150 90t146 22q83 0 145 -37l20 5q59 14 101 32q8 -8 8 -18q-14 -25 -16 -161q-2 -135 -1 -571z" />
    <glyph glyph-name="t_t" unicode="tt" horiz-adv-x="1146" 
d="M1022 98q70 0 104 23q8 -16 2 -35q-82 -111 -228 -111t-198 93q-22 39 -24 96q-2 58 -2 143l2 377q0 25 -12 25h-277q-8 0 -8 -13l-2 -374q0 -119 8 -152q18 -72 88 -72t105 23q8 -16 2 -35q-82 -111 -228 -111q-192 0 -218 155q-7 53 -7 177l2 379q0 23 -12 25
q-36 6 -86 6q8 41 10 43q35 6 78 26q10 4 10 17v174q61 18 132 51t93 55q16 4 31 4q-6 -98 -6 -272q0 -18 10 -18h277q10 6 10 16v193q61 18 132 51t93 55q16 4 31 4q-6 -98 -6 -301q0 -18 10 -18q111 0 197 8q-6 -33 -11 -98l-188 2q-8 0 -8 -13l-2 -374q0 -119 8 -152
q18 -72 88 -72z" />
    <glyph glyph-name="u021A_u0068" unicode="&#x21a;h" horiz-adv-x="2045" 
d="M662 -74q32 0 64 -37t32 -98q0 -170 -246 -254q-2 0 -8 14t-6 19q80 37 108 72t29 79q0 72 -113 113q-2 2 -2 12t9 20t55 36q46 24 78 24zM311 14q0 16 4 17q37 4 115 18q35 4 50 35q16 31 22 153t6 906q0 18 -10 18q-89 7 -230 -2q-70 -4 -114 -72q-43 -76 -72 -161
q-6 -6 -22 -2t-19 12q27 135 33 321q14 -2 66 -15t124 -13h877q12 0 12 12l-2 86q0 4 5 11t9 8q112 7 167 24q55 16 59 16q12 0 12 -12l-2 -129v-524q0 -14 8 -6q143 106 258 106q248 0 248 -327v-394q0 -36 44 -55q15 -6 66 -14q3 -3 3 -19t-5 -18l-239 6q-59 0 -213 -6
q-2 4 -2 18t2 19q39 8 59 15q20 8 25 24q6 16 8 59q10 391 -7 445q-16 54 -58 84t-94 30t-91 -18q-12 -6 -12 -23q0 -485 6 -527t16 -57t80 -32q10 -14 0 -37l-223 6l-229 -6q-10 14 0 37q41 6 63 14q20 7 26 27q16 50 17 542q0 492 -2 516q-3 26 -29 26q-315 6 -342 1
q-10 -6 -10 -18q0 -795 8 -992q2 -84 58 -100q25 -6 104 -16q0 -33 -2 -37l-291 6l-336 -6q-4 4 -4 20z" />
    <glyph glyph-name="Tcaron_h" unicode="&#x164;h" horiz-adv-x="2045" 
d="M653 1452q6 0 21 9t119 57t111 47q8 -1 14 -13t4 -16q-238 -198 -252 -216t-33 -17q-20 23 -128 115t-147 118q0 6 6 17t14 11q7 0 121 -47q114 -49 129 -57t21 -8zM311 14q0 16 4 17q37 4 115 18q35 4 50 35q16 31 22 153t6 906q0 18 -10 18q-89 7 -230 -2
q-70 -4 -114 -72q-43 -76 -72 -161q-6 -6 -22 -2t-19 12q27 135 33 321q14 -2 66 -15t124 -13h877q12 0 12 12l-2 86q0 4 5 11t9 8q112 7 167 24q55 16 59 16q12 0 12 -12l-2 -129v-524q0 -14 8 -6q143 106 258 106q248 0 248 -327v-394q0 -36 44 -55q15 -6 66 -14
q3 -3 3 -19t-5 -18l-239 6q-59 0 -213 -6q-2 4 -2 18t2 19q39 8 59 15q20 8 25 24q6 16 8 59q10 391 -7 445q-16 54 -58 84t-94 30t-91 -18q-12 -6 -12 -23q0 -485 6 -527t16 -57t80 -32q10 -14 0 -37l-223 6l-229 -6q-10 14 0 37q41 6 63 14q20 7 26 27q16 50 17 542
q0 492 -2 516q-3 26 -29 26q-315 6 -342 1q-10 -6 -10 -18q0 -795 8 -992q2 -84 58 -100q25 -6 104 -16q0 -33 -2 -37l-291 6l-336 -6q-4 4 -4 20z" />
    <glyph glyph-name="gamma_gamma" unicode="&#x3b3;&#x3b3;" horiz-adv-x="1716" 
d="M322 819q135 0 188 -135t39 -489q0 -5 6 -7t8 7q90 346 215 497q113 127 238 127q96 0 152 -45t87 -181t23 -376q0 -4 6 -6t8 6q86 379 191 514q68 90 131 90q26 -1 70 -31t57 -57q-2 -6 -2 -15t-2 -16q-86 -4 -178 -112q-91 -108 -155 -251q-103 -229 -106 -394
q0 -453 -4 -464t-36 -11t-103 42q-70 42 -70 76t99 353q28 82 1 302t-112 293q-49 42 -121 42q-127 0 -213 -132t-151 -362q-18 -66 -20 -133q-10 -425 -23 -500q-4 -18 -37 -18t-104 47q-70 47 -70 84t51 176q51 140 67 192t18 160q3 272 -122 411q-72 79 -172 79t-162 -33
q-4 2 -6 19t2 24q52 102 148 164t164 63z" />
    <glyph glyph-name="u03BB_u03BB" unicode="&#x3bb;&#x3bb;" horiz-adv-x="1564" 
d="M662 -29q-64 0 -96 25t-67 106t-83 286q-47 206 -51 218h-11q-98 -225 -141 -479q-14 -63 -8 -164l-6 -4q-53 0 -113 24t-59 44q0 61 118 307t179 379q18 53 -35 203q-53 151 -103 197t-110 46q-59 0 -105 -18q-6 4 -10 15t0 18q39 57 115 101t145 44q111 0 166 -92
t145 -387q109 -378 158 -518t94 -140q31 0 64 64t117 281q84 216 77 266q-12 97 -55 207t-102 155t-145 45t-148 -35q-6 5 -10 15t-2 16q49 76 138 130t165 54q117 0 193 -104t155 -379q127 -453 166 -567t71 -148q59 -60 138 -14q4 -2 6 -15t-2 -20q-39 -63 -113 -110
q-73 -47 -147 -47t-119 90q-45 91 -93 307q-49 217 -51 223l-8 2q-115 -300 -182 -416t-119 -164t-116 -47z" />
    <glyph glyph-name=".notdef" 
d="M102 1227v-1034l344 518zM162 102h690l-344 516zM567 711l346 -518v1034zM508 801l344 518h-690zM0 0v1419h1014v-1419h-1014z" />
    <glyph glyph-name=".null" horiz-adv-x="0" 
 />
    <glyph glyph-name="nonmarkingreturn" horiz-adv-x="681" 
 />
    <glyph glyph-name="space" unicode=" " horiz-adv-x="307" 
 />
    <glyph glyph-name="exclam" unicode="!" horiz-adv-x="561" 
d="M317 260q53 0 97 -40t43 -101q0 -61 -37 -105q-42 -41 -104 -41t-101 40q-39 41 -39 99t45 109q43 39 96 39zM145 1116q-5 12 7 40t40 39t105 19q76 8 108 5q32 -2 54 -25q-2 -51 -127 -811q-4 -2 -22 0t-23 6q-4 29 -70 348t-72 379z" />
    <glyph glyph-name="quotedbl" unicode="&#x22;" horiz-adv-x="616" 
d="M528 1267q0 -85 -17 -201q-27 -186 -72 -230q-25 -25 -36 -11q-8 356 -41 455q12 14 68 51t68 37q14 0 22 -4q8 -12 8 -97zM254 1263q0 -77 -15 -205t-31 -171t-54 -78q-14 -10 -23 -2q-11 387 -43 473q10 10 66 43t73 35l19 -6q8 -12 8 -89z" />
    <glyph glyph-name="numbersign" unicode="#" horiz-adv-x="825" 
d="M344 825q-8 0 -14 -10l-41 -178q0 -12 6 -12h178l45 200h-174zM610 950q135 0 185 6q4 -12 -13 -53q-20 -33 -74 -55t-124 -23q-10 0 -11 -8l-41 -184q0 -8 9 -8q125 0 178 10q6 -20 -6 -47q-70 -96 -201 -96q-8 0 -12 -25t-24 -124t-25 -126q-5 -6 -11 -6t-23 16t-20 21
q2 12 25 111t29 133h-181q-8 0 -16 -46t-30 -134q-21 -88 -23 -99q-1 -4 -11 -3t-26 17t-19 21q35 143 58 244q-150 0 -174 6q-4 6 14 68t27 65q43 -6 161 -6l45 200q-145 0 -170 6q-4 7 16 65t30 60q78 -4 149 -4l49 228q0 2 27 13t30 11t7 -8l-52 -233q0 -10 7 -11l176 -2
l51 248q23 18 57 25q6 -4 6 -6l-55 -259q0 -8 6 -8z" />
    <glyph glyph-name="dollar" unicode="$" horiz-adv-x="991" 
d="M139 883q-1 139 103 228t278 93q10 0 10 6l13 140q5 4 27 9t28 3l-16 -150q0 -8 4 -8q80 -6 162 -18t104 -12q-33 -166 -41 -236q-4 -4 -18 -6t-19 2q-4 121 -42 168t-150 57q-6 0 -7 -6l-36 -403q2 -8 10 -13q188 -111 242 -162q100 -95 100 -235t-110 -230t-310 -104
q-8 0 -8 -6l-12 -141q-13 -13 -54 -13l15 150q0 8 -9 8q-78 4 -258 59q-16 29 -30 115t-17 141q4 12 35 13q45 -152 112 -211t165 -70q4 0 8 6l39 412q-2 12 -8 14q-168 101 -239 181t-71 219zM506 444l-37 -389q0 -6 4 -6q70 2 129 47q60 45 60 126t-32 129t-118 100
q-2 3 -4 -1t-2 -6zM336 979q0 -117 143 -205q6 -6 10 4l35 377q0 6 -6 6q-182 -26 -182 -182z" />
    <glyph glyph-name="percent" unicode="%" horiz-adv-x="1355" 
d="M362 1151q-94 0 -94 -277q0 -124 35 -198t82 -74q98 0 98 244q0 143 -30 224q-32 81 -91 81zM319 551q-109 0 -175 79q-66 80 -64 232q0 152 95 242t218 90t183 -80t61 -203q0 -188 -115 -282q-94 -78 -203 -78zM999 676q-87 0 -89 -276q0 -124 35 -198q36 -74 83 -75
q96 0 96 244q0 139 -32 222q-34 83 -93 83zM1028 721q118 0 183 -85t65 -202q0 -197 -107 -284q-89 -74 -203 -74t-180 84t-65 209q0 174 98 268q91 84 209 84zM305 29q-4 0 -14 13t-6 40q129 196 373 570t372 569q23 14 66 20q6 -4 6 -10q-39 -49 -386 -584t-405 -616
q-2 -2 -6 -2z" />
    <glyph glyph-name="ampersand" unicode="&#x26;" horiz-adv-x="1478" 
d="M498 -31q-164 1 -280 101t-116 262q0 84 52 142t206 157q14 7 2 12q-108 119 -108 257t99 230t237 91q138 0 221 -75q84 -75 84 -163t-58 -144t-186 -130q-4 -4 0 -9q131 -121 361 -280q6 -6 12 0q82 131 117 248q10 37 2 53q-14 29 -129 47q-8 2 -7 15t7 18l174 -6
l207 6q4 -5 3 -17t-5 -16q-121 -24 -157 -83t-94 -159t-72 -116t-5 -25q266 -174 324 -240q-1 -37 -53 -121t-83 -114q-16 -8 -34 0q-25 39 -72 70q-184 145 -246 190q-8 4 -12 0q-188 -201 -391 -201zM334 424q0 -108 101 -198q101 -91 221 -91t196 66q4 4 0 8
q-271 217 -455 391q-4 6 -10 0q-53 -68 -53 -176zM705 975q1 87 -39 145t-96 58t-90 -40t-34 -126q0 -139 166 -275q4 -4 11 2q82 96 82 236z" />
    <glyph glyph-name="quotesingle" unicode="'" horiz-adv-x="346" 
d="M258 1264q0 -74 -18 -201t-34 -171t-61 -83q-18 -6 -22 -2q2 131 -9 281t-26 192q10 10 79 49t85 18q6 -9 6 -83z" />
    <glyph glyph-name="parenleft" unicode="(" horiz-adv-x="743" 
d="M143 555q0 334 142 594q141 260 366 407q5 -2 13 -12t6 -12q-180 -162 -270 -381t-89 -559q0 -666 336 -973q2 -4 -7 -15t-13 -14q-57 25 -134 101q-206 203 -294 490q-56 179 -56 374z" />
    <glyph glyph-name="parenright" unicode=")" horiz-adv-x="741" 
d="M598 586q0 -334 -139 -591t-365 -405q-6 0 -15 12t-7 17q190 195 275 414t85 522q0 672 -340 975q-2 4 6 15t15 11q98 -39 240 -218t207 -439q38 -151 38 -313z" />
    <glyph glyph-name="asterisk" unicode="*" horiz-adv-x="647" 
d="M309 707h-8q-23 -1 -40 33t-13 82t28 153q-168 -55 -239 -78q-10 0 -10 8q35 55 67 67t79 28q48 17 83 30q-16 10 -72 64t-76 76q-18 20 -6 30q47 35 74 35q31 -41 131 -133q39 184 43 193t39 15t46 7q11 -1 5 -19t-19 -73t-23 -101t-13 -47q4 2 231 92l5 -12
q-33 -53 -39 -57q-78 -43 -179 -80q27 -29 97 -86t98 -70q0 -10 -8 -16q-10 -4 -39 -6t-45 2q-45 24 -93 60t-57 40q-47 -203 -47 -237z" />
    <glyph glyph-name="plus" unicode="+" horiz-adv-x="942" 
d="M780 406h-131q-78 0 -125 -3q-12 0 -12 -14v-129q0 -86 1 -131t-1 -68q-2 -8 -82 -34l-14 2v374h-342v17q12 66 20 84q8 -2 199 -2h123v116q0 172 -4 222q61 20 92 20q8 0 8 -36v-306q0 -16 10 -16h346v-21q-18 -71 -26 -73t-62 -2z" />
    <glyph glyph-name="comma" unicode="," horiz-adv-x="419" 
d="M35 -324q-4 -2 -16 4t-15 14q-4 7 -2 9q94 93 127 153t31 128t-84 182q23 29 90 84q84 69 113 49q47 -39 51 -165t-96 -266q-100 -142 -199 -192z" />
    <glyph glyph-name="hyphen" unicode="-" horiz-adv-x="555" 
d="M96 471q215 10 393 10q9 -17 -11 -71q-19 -54 -25 -56q-13 -2 -183 -7t-202 -3q-6 0 -7 21q19 106 35 106z" />
    <glyph glyph-name="period" unicode="." horiz-adv-x="419" 
d="M212 266q56 0 97 -39t41 -104t-40 -107t-100 -41q-60 0 -99 41q-41 36 -41 100t43 107t99 43z" />
    <glyph glyph-name="slash" unicode="/" horiz-adv-x="888" 
d="M795 1403l4 -4q-15 -59 -291 -761t-352 -841q-4 -6 -27 -22q-23 -15 -35 -17t-12 4q96 207 336 812t313 810q2 4 26 12t38 7z" />
    <glyph glyph-name="zero" unicode="0" horiz-adv-x="991" 
d="M481 1174q-151 0 -151 -531q0 -623 186 -623q41 0 66 25q82 78 82 539q0 274 -48 432q-47 158 -135 158zM514 1217q190 0 289 -134q125 -152 125 -465q0 -440 -221 -581q-96 -61 -235 -61t-224 65q-184 139 -185 567q1 146 47 290t148 232t256 87z" />
    <glyph glyph-name="one" unicode="1" horiz-adv-x="991" 
d="M211 12q0 16 4 19q49 6 84 13q50 10 65 74q6 34 11 402q4 367 -2 453t-54 96q-43 10 -79 16q-2 7 -2 21t4 18q197 10 381 93q4 1 11 -3t7 -8q-4 -176 -4 -512q0 -468 8 -542q8 -75 26 -90q35 -31 122 -31q4 -3 3 -19t-8 -20l-305 8l-268 -8q-4 4 -4 20z" />
    <glyph glyph-name="two" unicode="2" horiz-adv-x="991" 
d="M559 752q0 120 -56 200t-179 80t-220 -119q-4 -3 -17 11t-11 18q80 133 189 204t229 71q120 -1 218 -97t97 -266q0 -203 -231 -430q-8 -8 -213 -201q-2 -2 -1 -6t5 -4q233 -16 413 -8q27 2 46 10t50 44q30 36 60 99q6 2 21 -3t16 -9q-17 -74 -59 -188t-68 -144
q-18 -18 -102 -20t-264 2q-179 4 -246 4l-148 -4q-4 4 -5 19t3 20q229 182 350 350q123 178 123 367z" />
    <glyph glyph-name="three" unicode="3" horiz-adv-x="991" 
d="M498 1217q129 0 211 -77t82 -202t-197 -244q-6 -6 -2 -10q297 -90 297 -332q0 -96 -54 -190t-143 -152q-139 -98 -332 -98q-109 0 -172 29q-102 52 -102 235q2 4 15 9t20 3q79 -223 315 -223q80 0 143 65q62 66 62 196t-73 217t-201 87q-27 0 -66 -4q-2 10 14 42t27 40
q129 37 181 85t52 135t-53 155q-52 68 -162 68t-219 -109q-8 -2 -17 9t-7 20q168 246 381 246z" />
    <glyph glyph-name="four" unicode="4" horiz-adv-x="991" 
d="M358 451h134q8 0 8 10l6 500q0 8 -6 2q-37 -47 -161 -227q-193 -280 -177 -281q33 -4 196 -4zM766 457q119 0 195 6q-15 -51 -19 -119q-106 4 -174 4q-6 0 -6 -8l2 -373q-35 0 -131 -10t-137 -18l4 401q0 10 -8 10l-252 2q-143 0 -205 -2q2 23 12 58q389 563 555 782
q12 6 77 17t75 10l4 -748q0 -12 8 -12z" />
    <glyph glyph-name="five" unicode="5" horiz-adv-x="991" 
d="M587 967q-71 0 -154 7t-92 7t-52 -119q0 -16 12 -20q273 -117 373 -172t155 -127t56 -191q0 -190 -164 -315t-363 -125q-150 0 -239 86q-37 37 -37 72t55 120q8 8 23 9q141 -209 338 -209q80 0 127 53t47 135q0 162 -158 264q-62 41 -198 109t-148 76q-6 39 -2 57
q33 106 99 269q67 163 95 206t54 43q174 -10 230 -10t78 5t46 28q27 0 27 -17q-2 -20 -32 -87t-67 -111q-38 -44 -109 -43z" />
    <glyph glyph-name="six" unicode="6" horiz-adv-x="991" 
d="M444 662q-74 0 -86 -39q-20 -70 -20 -183q0 -213 53 -315t144 -102q61 -1 101 75t40 224t-65 244t-167 96zM640 776q110 0 199 -90t89 -240t-68 -266q-68 -115 -190 -170q-80 -37 -189 -37q-211 0 -311 131t-100 324q0 297 237 552q238 255 596 345q5 -1 11 -17t4 -18
q-232 -104 -366 -265t-175 -320q-5 -15 8 -11q145 82 255 82z" />
    <glyph glyph-name="seven" unicode="7" horiz-adv-x="991" 
d="M536 958q-204 0 -309 -6q-43 -4 -69 -28t-70 -105q0 -7 -16 3q-16 9 -19 14q76 223 97 368q66 -12 145 -12h446q168 0 201 2q11 -11 -11 -65t-208 -445t-363 -747q-17 -22 -53 14q-8 12 -2 26q258 492 477 963q0 14 -2 14q-40 4 -244 4z" />
    <glyph glyph-name="eight" unicode="8" horiz-adv-x="991" 
d="M283 315q-1 -113 69 -203t156 -89q86 0 131 44q45 45 45 127t-64 158q-65 76 -235 180q-4 4 -10 -2q-92 -102 -92 -215zM499 1176q-77 0 -121 -52t-44 -128t53 -136t219 -164q4 -2 8 2q70 84 70 203t-53 197q-54 78 -132 78zM512 1217q150 0 244 -81q92 -81 92 -210
t-201 -250q-4 -4 0 -8q131 -86 191 -160t59 -176q0 -142 -116 -248t-307 -106q-192 0 -286 92t-94 213q0 69 56 133t194 139q4 4 0 6q-209 147 -209 315t119 252q108 89 258 89z" />
    <glyph glyph-name="nine" unicode="9" horiz-adv-x="991" 
d="M459 1169q-63 0 -111 -69q-47 -70 -47 -224t75 -244q75 -91 177 -91q37 0 65 14q42 13 43 202t-51 301t-151 111zM362 422q-133 0 -218 104t-85 252q0 260 234 385q100 53 221 54q196 -1 304 -139t108 -347q0 -283 -214 -517t-573 -320q-4 0 -10 17t-4 21
q389 170 506 578q0 6 -4 8q-57 -40 -139 -68t-126 -28z" />
    <glyph glyph-name="colon" unicode=":" horiz-adv-x="542" 
d="M273 731q54 0 93 -37q40 -37 40 -98t-38 -100t-96 -39t-96 39q-39 33 -39 92t41 104q41 39 95 39zM273 250q54 0 93 -37q40 -37 40 -98t-38 -101t-96 -39q-58 0 -96 39q-39 32 -39 92t41 105q41 39 95 39z" />
    <glyph glyph-name="semicolon" unicode=";" horiz-adv-x="542" 
d="M98 -324q-4 -2 -16 4t-16 14q-5 7 -3 9q95 93 129 153t32 128t-85 182q23 29 90 84t89 53t24 -4q47 -39 51 -159t-97 -268t-198 -196zM282 731q54 0 93 -37t39 -98t-38 -100t-96 -39t-94 37q-41 35 -41 94t41 104q42 39 96 39z" />
    <glyph glyph-name="less" unicode="&#x3c;" horiz-adv-x="942" 
d="M797 735q-35 -33 -516 -278q-8 -2 -5 -11q18 -10 272 -134t286 -156q4 -4 -10 -39t-20 -43q-5 -8 -18 -8q-55 41 -309 171t-371 177q0 6 12 36q11 30 15 31q133 63 388 197t294 166q6 0 10 -8q0 -23 -10 -58t-18 -43z" />
    <glyph glyph-name="equal" unicode="=" horiz-adv-x="942" 
d="M295 344h571q4 0 4 -12t-9 -46t-17 -36l-764 -4q-14 9 16 102q10 -4 199 -4zM76 572q0 12 8 48t12 42q10 -4 199 -5h571q6 -2 6 -13t-10 -45t-18 -36l-762 -4q-6 2 -6 13z" />
    <glyph glyph-name="greater" unicode="&#x3e;" horiz-adv-x="942" 
d="M145 174q35 33 517 279q8 2 4 10q-18 10 -273 136t-284 155q-4 4 10 39t19 43t18 8q55 -41 309 -171t371 -177q0 -6 -12 -36t-15 -32q-133 -62 -388 -196t-294 -166q-6 0 -10 8q0 24 10 58t18 42z" />
    <glyph glyph-name="question" unicode="?" horiz-adv-x="692" 
d="M336 260q55 0 97 -39t42 -101t-37 -106q-41 -41 -103 -41t-101 40q-39 39 -39 99t38 105q48 43 103 43zM367 632q0 -18 18 -58q18 -38 43 -64q12 -14 -3 -30t-63 -45q-48 -28 -74 -36t-48 7q-37 20 -61 57q-23 37 -23 79t26 58q8 4 98 55t115 70q47 31 47 78
q0 125 -239 203q-33 12 -47 15q-33 7 -33 33t32 76q31 50 55 73q24 22 56 22q113 0 217 -80q137 -102 138 -230q0 -77 -39 -119t-183 -126q-32 -20 -32 -38z" />
    <glyph glyph-name="at" unicode="@" horiz-adv-x="1531" 
d="M664 158q90 0 172 178q33 70 51 153q35 121 41 199q-25 25 -88 25q-121 0 -185 -181q-45 -126 -45 -250t54 -124zM1081 94q62 0 158 84q49 43 82 132t33 208q0 272 -154 418t-342 147q-188 0 -337 -99q-89 -58 -157 -146t-114 -238q-45 -150 -45 -324q0 -419 212 -581
q42 -33 75 -42t77 -9q8 -4 4 -17q-20 -20 -63 -20q-84 0 -189 84q-61 47 -113 115t-89 184q-37 115 -37 252q0 346 237 624q115 137 276 212t318 75q237 0 387 -165t150 -384q0 -154 -59 -280t-147 -201q-88 -74 -181 -113q-92 -39 -166 -37q-102 0 -76 183q2 8 5 34
q2 26 6 38t-2 12t-7 -4q-74 -100 -168 -180t-163 -81q-100 0 -101 183q0 108 45 230q44 122 114 198t191 140t229 64t181 -26q-25 -53 -39 -123q-72 -342 -78 -475q-4 -72 47 -72z" />
    <glyph glyph-name="A" unicode="A" horiz-adv-x="1159" 
d="M360 543q20 -2 95 -2h168q6 0 6 10q-90 294 -129 407h-8l-134 -405zM-74 12q0 16 2 19q104 14 141 38q36 25 89 153t173 460t163 461q16 59 22 90q49 -4 92 -4t88 4q2 -10 25 -96q258 -779 304 -905t78 -156t130 -45q2 -3 0 -19t-4 -18l-275 6q-66 0 -292 -6q-8 25 0 37
q82 18 96 24q31 12 20 43q-49 156 -119 346q-8 14 -22 16q-15 2 -103 1h-196q-14 0 -19 -19q-106 -299 -104 -325q4 -55 57 -68q78 -16 95 -18q2 -3 0 -19t-7 -18l-233 6l-199 -6q-2 2 -2 18z" />
    <glyph glyph-name="B" unicode="B" horiz-adv-x="1204" 
d="M627 31q100 0 153 80q54 80 54 222t-76 222t-213 80q-53 0 -65 -1t-13 -9q0 -354 4 -471q0 -33 26 -63t68 -45t62 -15zM518 1176q-45 0 -45 -35q-6 -160 -6 -439q0 -10 14 -11q15 -1 95 -1t116 21q88 49 88 179t-66 208q-67 78 -196 78zM201 626q0 414 -4 476t-50 80
q-28 12 -98 18q-2 4 -2 18t4 17l266 -6l355 4q129 0 236 -50q60 -28 96 -87q36 -60 36 -146t-60 -158t-187 -102q-8 -4 0 -8q336 -49 335 -309q0 -225 -223 -328q-139 -61 -334 -61l-540 10q-2 6 -1 20t3 17q76 8 110 20q43 14 51 88q8 73 7 487z" />
    <glyph glyph-name="C" unicode="C" horiz-adv-x="1306" 
d="M856 35q154 0 232 76t137 196q6 0 18 -6t14 -12q-16 -63 -62 -157t-83 -124q-150 -45 -309 -45q-342 0 -525 169t-184 497q0 174 81 319q81 146 243 232t418 86q66 0 216 -14t179 -17q-35 -156 -39 -322q-6 -11 -23 -8q-18 4 -18 6q-12 97 -34 155q-56 150 -342 150
q-167 0 -271 -142t-104 -418t114 -448q115 -173 342 -173z" />
    <glyph glyph-name="D" unicode="D" horiz-adv-x="1417" 
d="M696 39q126 0 209 113q123 168 123 458q0 158 -55 298q-109 278 -412 278q-59 0 -73 -10t-17 -35q-2 -49 -2 -472t8 -507q0 -35 27 -62q66 -61 192 -61zM203 599q0 380 -8 503q-4 54 -40 70t-124 28q-2 4 0 18t4 17q123 -6 284 -6l388 8q428 0 565 -333q51 -126 51 -265
q0 -295 -174 -465q-199 -188 -563 -188l-508 8h-55q-2 2 -3 18q0 16 3 19q90 8 120 18q41 12 51 91t9 459z" />
    <glyph glyph-name="E" unicode="E" horiz-adv-x="1083" 
d="M0 13q0 15 2 18q100 10 135 20q55 16 59 120q4 103 5 477q0 374 -5 436t-19 76q-15 14 -37 22t-91 18q-2 6 -2 18t2 17l285 -6h375q180 0 245 10q4 -4 4 -6q-23 -86 -34 -295q-6 -4 -20 -5t-17 1q-25 209 -112 220q-39 5 -149 6t-137 -3q-6 -2 -13 -14t-7 -19v-446
q0 -14 10 -14q256 0 287 2q77 2 100 147q4 2 20 2t17 -2l-10 -186l6 -193q-2 -2 -18 -3t-19 1q-2 12 -18 76q-20 63 -80 72q-35 4 -283 4q-12 0 -12 -17v-422q0 -61 43 -67q66 -10 188 -10t153 9q89 25 177 245q18 6 35 -11q-4 -35 -31 -143t-47 -148q-9 -18 -29 -24t-84 -6
l-538 10l-334 -6q-2 4 -2 19z" />
    <glyph glyph-name="F" unicode="F" horiz-adv-x="1036" 
d="M201 610q0 394 -3 461t-18 88t-139 41q-2 4 -2 18t2 17l285 -6h436q152 0 205 14q14 0 10 -12q-23 -106 -31 -303q-4 -2 -18 -2t-19 2q-18 119 -55 182q-25 41 -76 45t-152 4t-132 -4q-20 -4 -21 -29q-4 -96 -4 -471q0 -8 10 -8q197 0 271 5q74 4 97 56q22 52 30 97
q2 2 17 3t17 -1q-8 -94 -8 -205l4 -190q-2 -4 -16 -5t-19 1q-6 49 -24 94q-20 55 -86 60t-283 5q-10 0 -10 -12l2 -379q0 -101 30 -118t138 -27q2 -3 1 -19t-5 -18l-279 6l-303 -6q-2 2 -3 18t1 19q12 2 39 5q28 3 54 9t36 29t16 83q6 59 5 453z" />
    <glyph glyph-name="G" unicode="G" horiz-adv-x="1378" 
d="M1331 503q0 -15 -2 -20q-18 -4 -50 -14t-41 -34t-9 -155q0 -132 5 -160t40 -44q2 -2 0 -16t-4 -17q-240 -80 -469 -80q-705 0 -705 660q0 203 95 353q185 290 667 290q121 0 247 -22t152 -23q-37 -147 -36 -320q-1 -6 -21 -7t-22 3q-18 178 -82 231q-100 86 -280 86
t-297 -131q-118 -131 -118 -427t121 -470t314 -174q53 0 86 14t39 62q12 116 6 222q-5 106 -21 128q-25 35 -162 43q-4 3 -4 19t4 20q33 2 145 -2t171 -4l229 6q2 -2 2 -17z" />
    <glyph glyph-name="H" unicode="H" horiz-adv-x="1468" 
d="M45 10q0 16 2 21q41 4 81 11t54 35t18 98t5 461q0 390 -3 444q-2 54 -16 74t-44 28t-93 16q-2 6 -2 20t2 17l289 -6l274 6q4 -7 2 -21t-6 -16q-68 -10 -88 -17t-32 -30q-11 -23 -13 -80t-2 -373q0 -10 10 -14q37 -4 253 -4t253 2q10 0 10 14q0 340 -5 408t-47 80
q-42 10 -89 14q-4 4 -5 18t5 19l293 -6l260 6q2 -4 2 -18t-4 -19q-8 -2 -55 -8t-62 -27q-16 -20 -18 -61q-6 -142 -6 -496t4 -428t12 -96q8 -23 31 -31t115 -20q2 -3 -2 -19t-5 -18l-270 6l-295 -6q-4 4 -4 18t4 19q105 10 121 40q16 29 18 109t2 400q0 16 -12 16
q-43 2 -270 1t-235 -5t-9 -12q0 -299 2 -386t13 -113q10 -26 52 -35t89 -15q2 -3 -1 -19t-5 -18l-287 6l-287 -6q-4 0 -4 16z" />
    <glyph glyph-name="I" unicode="I" horiz-adv-x="671" 
d="M203 630q0 372 -5 454t-53 98q-33 10 -94 18q-4 4 -4 18t4 17l285 -6l276 6q4 -4 4 -17t-4 -18q-117 -18 -130 -54q-7 -20 -10 -80q-3 -62 -3 -450t3 -444t9 -78q10 -41 58 -49q27 -6 88 -14q4 -3 3 -19t-5 -18l-275 6l-299 -6q-4 2 -5 17t5 20q55 6 88 15t45 31
q12 21 16 101t3 452z" />
    <glyph glyph-name="J" unicode="J" horiz-adv-x="643" 
d="M612 1218q0 -13 -2 -18q-52 -8 -76 -19t-34 -35t-10 -62t-3 -374q-2 -335 -10 -472q-10 -201 -96 -353q-88 -147 -197 -226t-208 -79t-132 45v35q16 80 54 147q63 -47 131 -77q67 -30 99 -31q32 0 52 22q29 37 33 249t2 665q-2 454 -11 478q-1 3 -2 14t-3 15t-8 15
q-6 12 -37 25q-42 12 -103 18q-4 4 -4 18t4 17l305 -6l254 6q2 -4 2 -17z" />
    <glyph glyph-name="K" unicode="K" horiz-adv-x="1306" 
d="M1243 1218q0 -13 -2 -18q-10 -2 -64 -11t-70 -23q-17 -13 -42 -30t-161 -176t-204 -235v-6q66 -119 222 -313t260 -302q49 -45 82 -56t92 -17q2 -5 2 -19t-4 -18q-82 -10 -219 -4t-192 24t-139 118q-84 98 -304 425q-10 16 -27 29q0 23 6 22q164 100 357 361
q92 125 92 160t-35 47q-49 16 -117 24q-2 4 -2 18t2 17l211 -6q129 2 254 6q2 -4 2 -17zM606 1219q0 -14 -4 -19q-49 -6 -78 -14q-53 -14 -57 -120t-4 -449q0 -344 4 -472q2 -92 63 -104q39 -8 58 -10q20 -2 28 -4q2 -5 0 -19t-6 -16q-238 8 -270 8q-220 -8 -289 -8
q-4 4 -4 16t4 17q53 8 84 14q61 14 64 131q6 207 4 384t-2 330t-2 187q-4 93 -45 107t-95 22q-6 4 -5 18t5 17l283 -6l260 6q4 -2 4 -16z" />
    <glyph glyph-name="L" unicode="L" horiz-adv-x="1067" 
d="M33 12q0 16 4 19q82 10 102 16q45 12 54 92q10 113 10 496q0 447 -7 490t-47 55q-41 12 -96 20q-2 4 -2 18t4 17l271 -6q109 0 280 6q4 -4 4 -17t-4 -18q-68 -12 -92 -20t-31 -28q-8 -20 -12 -67l-4 -409q-4 -406 6 -531q4 -57 39 -63q102 -14 248 -10q61 0 104 41
t89 113t73 141q4 4 20 1t17 -10q-8 -53 -46 -178t-65 -164q-14 -25 -149 -24l-473 8l-293 -6q-4 2 -4 18z" />
    <glyph glyph-name="M" unicode="M" horiz-adv-x="1593" 
d="M1012 13q0 15 2 18q66 8 102 21t37 121q2 109 2 393t-4 407l-4 -2h-4q-352 -780 -410 -967q-12 -2 -40 -3t-29 1q-25 96 -61 188t-52 134t-100 249q-84 206 -168 418l-7 -4q-10 -76 -27 -387t-17 -396t16 -112q18 -27 57 -39t119 -22q4 -5 3 -19t-5 -18l-227 6l-234 -6
q-2 4 -2 19t2 18q73 12 101 19t48 35q19 28 33 122t41 406t33 454q4 80 -51 104q-25 11 -129 29q-6 23 6 35l442 -6q4 -59 31 -119t146 -330q119 -271 155 -346q6 -4 10 0q41 76 195 412t154 383l403 6q10 -6 0 -37q-131 -10 -155 -57q-12 -23 -13 -97q-2 -74 6 -419
q7 -344 13 -427t19 -113t62 -40t88 -14q2 -3 0 -17t-6 -20l-315 6l-264 -6q-2 4 -2 19z" />
    <glyph glyph-name="N" unicode="N" horiz-adv-x="1343" 
d="M4 13q0 15 4 18q88 12 114 20t40 32t22 81q23 180 23 868q0 45 -23 87t-59 57q-64 20 -111 24q-2 4 -2 18t4 17q40 2 144 -2t168 -4t94 4q8 -25 67 -103q342 -463 619 -802q2 0 2 1t4 321t-7 396q-11 74 -29 98q-30 39 -177 56q-2 4 -2 18t4 17l254 -6l201 6q4 -4 4 -17
t-4 -18q-70 -12 -80 -16q-43 -14 -58 -43q-14 -29 -24 -151t-14 -724l2 -274q-92 4 -178 -2q-45 70 -369 504t-352 475q-8 8 -9 -2q-4 -168 -3 -451t5 -345t25 -89t59 -34t115 -17q4 -5 4 -19t-4 -18l-229 6l-240 -6q-4 4 -4 19z" />
    <glyph glyph-name="O" unicode="O" horiz-adv-x="1501" 
d="M798 18q114 0 180 72t98 203t32 285t-45 310t-135 240t-200 84t-177 -57q-158 -127 -158 -469q0 -170 48 -333q47 -163 145 -249t212 -86zM745 -37q-307 0 -481 187q-86 92 -128 218t-42 248q0 231 115 390q190 260 549 260q307 0 478 -180t171 -442q0 -263 -121 -423
q-181 -258 -541 -258z" />
    <glyph glyph-name="P" unicode="P" horiz-adv-x="1132" 
d="M43 12q0 16 4 19q57 8 92 15t45 29q17 37 17 516t-10 532t-52 62q-43 9 -88 15q-2 4 -2 18t2 17q13 0 111 -4t262 -1t252 3q170 0 260 -62q137 -92 137 -286q0 -109 -46 -193t-120 -129q-119 -74 -264 -74q-53 1 -86 9q-6 2 -27 30q-4 10 7 15q17 -4 69 -4t99 28
q94 68 92 271q-2 152 -72 246t-186 96q-35 0 -49 -8t-18 -53q-3 -45 -3 -447t6 -505t51 -117t121 -19q2 -3 1 -19t-5 -18l-291 6l-305 -6q-4 2 -4 18z" />
    <glyph glyph-name="Q" unicode="Q" horiz-adv-x="1501" 
d="M1108 569q0 357 -167 541q-93 102 -239 102t-228 -148q-81 -148 -81 -353t41 -351t141 -245q99 -101 245 -101t217 160t71 395zM1392 -383q-119 0 -235 66q-57 31 -181 117t-183 122q-59 35 -123 43q-190 23 -320 112t-192 233q-61 144 -62 304q0 238 109 387
q190 264 571 265q295 0 463 -186t168 -460q0 -276 -162 -448q-88 -96 -252 -166q61 -18 291 -112t340 -94q109 0 195 42q4 -2 10 -18t4 -21q-82 -92 -202 -139t-239 -47z" />
    <glyph glyph-name="R" unicode="R" horiz-adv-x="1218" 
d="M526 1180q-23 0 -45 -9q-12 -6 -12 -30q-6 -35 -6 -500q0 -10 12 -10q159 -13 233 25t74 192t-66 243q-67 89 -190 89zM55 11q0 13 4 18q69 10 89 15q39 9 46 105q7 95 7 457t-3 465q-3 102 -61 115q-8 2 -24 5l-32 6t-30 3q-2 4 -2 18t2 17l262 -6l375 4q178 0 269 -76
t91 -203q0 -126 -66 -206q-67 -80 -171 -119q-7 -7 -2 -15q43 -84 156 -258t177 -235t89 -73t92 -17q4 -16 -6 -37q-90 -12 -211 -6t-179 30t-96 78q-53 63 -156 241q-102 179 -108 191q-25 45 -61 45h-35q-8 0 -8 -12q0 -184 4 -409q2 -58 14 -78t42 -27t100 -16
q6 -3 5 -17t-5 -20l-289 6q-168 0 -218 -3q-51 -3 -57 -3q-4 4 -4 17z" />
    <glyph glyph-name="S" unicode="S" horiz-adv-x="931" 
d="M434 12q98 0 146 49q47 49 47 133t-46 147q-47 61 -193 159t-216 187t-70 220q0 168 121 263t299 96q82 0 184 -14t121 -17q-27 -143 -34 -285q-5 -4 -19 -6t-18 2q-10 98 -30 148t-62 80q-66 45 -156 45q-90 -1 -141 -53t-52 -134q0 -123 121 -213q62 -49 125 -88
q62 -39 90 -59q111 -74 163 -151t52 -177q0 -172 -125 -276t-344 -105q-86 1 -173 21t-115 39q-27 41 -52 303q5 6 19 9t18 -1q31 -109 69 -168t97 -103q76 -51 174 -51z" />
    <glyph glyph-name="T" unicode="T" horiz-adv-x="1255" 
d="M287 10q0 14 4 19q84 4 121 15t51 38q14 26 18 138t4 929q1 12 -17 13q-84 5 -206 -3q-66 -4 -106 -65q-49 -86 -78 -174q-2 -4 -20 -1t-19 9q27 137 33 317q0 4 5 8t7 2q78 -27 178 -26h733q115 0 203 26q6 0 10 -10q-25 -84 -45 -332q-2 -4 -19 -4t-20 4
q-30 191 -77 225q-17 13 -53 16t-130 4t-104 -1q-8 -4 -8 -14q0 -801 8 -998q2 -84 57 -100q30 -8 96 -16q4 -3 3 -19t-5 -18l-282 6l-338 -6q-4 4 -4 18z" />
    <glyph glyph-name="U" unicode="U" horiz-adv-x="1351" 
d="M1368 1218q0 -13 -4 -18q-70 -14 -74 -16q-41 -12 -55 -39t-17 -79q-4 -52 -6 -154q-2 -101 -5 -224t-5 -172q-8 -291 -137 -422t-373 -131q-444 0 -502 354q-18 115 -18 371v393q0 90 -70 105q-51 10 -82 14q-2 4 -2 18t5 17l280 -6l299 6q4 -2 4 -16t-4 -19
q-16 -2 -81 -13t-68 -104q-2 -47 -2 -548q0 -154 20 -240q53 -229 331 -229t310 315q27 246 6 666q-2 73 -22 101q-30 42 -158 52q-4 4 -4 18t4 17l211 -6l215 6q4 -4 4 -17z" />
    <glyph glyph-name="V" unicode="V" horiz-adv-x="1200" 
d="M-59 1235l299 -6l280 6q2 -2 1 -17t-3 -18q-90 -16 -105 -34t-1 -63q14 -43 89 -231t143 -360t71 -176h8q39 88 137 353t120 342t15 104q-8 27 -45 41t-119 24q-3 4 1 20t6 17l221 -8l205 6q4 -2 5 -16t-3 -19q-51 -4 -86 -20q-70 -29 -115 -152q-29 -80 -192 -493
t-203 -545q-68 8 -133 0q-70 205 -228 614t-183 461q-47 99 -103 117q-37 12 -86 18q-8 30 4 35z" />
    <glyph glyph-name="W" unicode="W" horiz-adv-x="1708" 
d="M520 1219q0 -14 -4 -19q-80 -14 -100 -28t-13 -52q76 -272 228 -733q2 -2 5 -2t5 4q199 512 274 774q35 -4 84 2q37 -117 150 -401t162 -395h6l2 2q147 465 194 682q20 94 -47 116q-25 10 -133 31q-4 4 -4 18t4 17l246 -6l203 6q2 -4 2 -16t-2 -19q-78 -20 -98 -29
q-39 -18 -84 -146q-46 -128 -178 -550t-156 -498q-68 8 -99 -2q-51 143 -158 423q-108 280 -149 370q-4 4 -8 -4q-236 -621 -293 -787q-10 2 -51 1t-53 -3q-59 229 -183 630t-172 497q-6 14 -25 38t-49 35t-102 25q-4 4 -2 18t6 17l295 -6l293 6q4 -2 4 -16z" />
    <glyph glyph-name="X" unicode="X" horiz-adv-x="1155" 
d="M300 46q56 -13 87 -15q2 -8 -4 -35l-231 4q-61 0 -215 -6q-2 4 -3 18q0 14 3 19q13 2 37 5t56 9t63 31q31 26 133 154t233 331q2 4 2 9q1 5 -57 113q-58 107 -154 269t-124 192q-46 49 -151 56q-4 2 -3 18t3 17l275 -6q176 0 293 6q2 -2 2 -16t-2 -19q-47 -6 -82 -16
q-29 -10 -16 -42t196 -354q6 -6 10 0q205 291 205 349q0 25 -30 35t-105 24q-2 6 0 19t4 16l203 -2l215 6q2 -4 2 -17t-2 -18q-108 -17 -151 -49q-42 -33 -78 -83t-230 -333q-6 -6 -2 -14q296 -530 369 -613q35 -42 77 -56t95 -21q4 -3 3 -19t-5 -18l-344 6l-256 -6
q-4 2 -6 18q-1 16 3 19q92 18 108 28t3 29q-80 162 -225 410l-12 2q-72 -111 -122 -185q-126 -183 -126 -220q0 -36 56 -49z" />
    <glyph glyph-name="Y" unicode="Y" horiz-adv-x="1105" 
d="M258 12q0 16 4 19q70 8 101 15q53 12 59 69q6 56 6 383q0 51 -22 98q-117 246 -212 402t-138 178q-15 8 -52 16t-51 8q-4 4 -4 18t4 17l276 -6q176 0 281 6q4 -4 4 -17t-2 -18q-8 0 -70 -16q-39 -12 -20 -54q88 -193 242 -466q4 -4 10 0q47 78 119 221t93 199t12 71
q-8 17 -36 25t-98 20q-2 6 0 20t4 15l213 -6l193 6q4 -2 4 -16t-4 -19q-53 -8 -72 -14q-82 -25 -148 -137q-170 -297 -237 -437q-23 -45 -23 -93t6 -355q2 -51 16 -79t49 -37q36 -9 103 -17q2 -3 0 -19t-4 -18l-313 6l-289 -6q-4 2 -4 18z" />
    <glyph glyph-name="Z" unicode="Z" horiz-adv-x="1132" 
d="M287 1229h426q215 0 331 6q4 -4 5 -27q-71 -117 -343 -609t-292 -527q-6 -12 6 -13q45 -6 377 -6q61 0 106 33q72 55 170 258q3 2 17 -2t18 -8q-8 -51 -41 -164t-53 -158q-12 -23 -146 -22l-610 10q-114 0 -195 -6q-2 2 -4 12t0 12q74 98 344 564t320 575q6 10 -6 10
q-73 2 -225 0t-216 -9t-108 -66q-37 -55 -86 -174q-4 -2 -20 2t-19 8q49 203 61 327q78 -26 183 -26z" />
    <glyph glyph-name="bracketleft" unicode="[" horiz-adv-x="675" 
d="M215 1524h360q4 -68 -18 -70q-59 -4 -254 -4q-12 0 -12 -14q-12 -122 -12 -822t10 -858q0 -35 20 -41q35 -10 283 -10q4 -12 -2 -42t-21 -30q-199 -4 -269 0t-95 19v1859q0 13 10 13z" />
    <glyph glyph-name="backslash" unicode="\" horiz-adv-x="854" 
d="M131 1415l2 -2h2q475 -1294 633 -1632q0 -14 -38 1t-44 25q-60 114 -314 785q-255 672 -300 784q9 14 59 39z" />
    <glyph glyph-name="bracketright" unicode="]" horiz-adv-x="675" 
d="M119 -303q19 0 79 2t109 3t65 2t15 15q10 79 10 831t-8 853q-6 39 -20 41q-66 6 -285 6q-4 12 2 40t20 28q176 4 340 4q18 0 25 -13v-1865q0 -13 -10 -13l-361 -4q-4 70 19 70z" />
    <glyph glyph-name="asciicircum" unicode="^" horiz-adv-x="761" 
d="M162 614q-20 -27 -82 -26q-20 0 -21 14q25 33 140 267t149 315q2 2 29 10t33 8q42 -100 152 -316t140 -259q-2 -11 -9 -17t-44 -16t-41 -6q-28 28 -125 225q-98 198 -106 213q-10 4 -12 0q-68 -154 -130 -276q-61 -122 -73 -136z" />
    <glyph glyph-name="underscore" unicode="_" horiz-adv-x="1024" 
d="M1141 -373v-104h-1166v104h1166z" />
    <glyph glyph-name="grave" unicode="`" horiz-adv-x="819" 
d="M375 1200q6 -8 45 -138t47 -165q-2 -6 -14 -12t-19 -4q-31 31 -120 139t-117 151q-4 8 6 19q18 8 87 11t85 -1z" />
    <glyph glyph-name="a" unicode="a" horiz-adv-x="841" 
d="M475 310q0 90 -3 96t-12 2t-75 -24t-81 -36t-15 -84t41 -112t81 -46q40 0 51 12t12 56q1 45 1 136zM764 104q31 0 59 11q0 -37 -10 -54q-75 -86 -193 -86t-139 68q-2 4 -8 31l-8 2q-125 -100 -201 -100t-127 47q-74 70 -74 198q1 19 13 57t22 54q23 14 171 58t190 63
q16 7 17 27t1 28q0 63 -28 108q-45 74 -135 74t-119 -26q-6 -4 -36 -56t-30 -55q-6 -2 -23 10q-16 11 -16 19t18 56q17 48 23 52q74 53 163 92t132 39q158 0 233 -119q47 -78 48 -213l-2 -294q0 -33 14 -62t45 -29z" />
    <glyph glyph-name="b" unicode="b" horiz-adv-x="1003" 
d="M442 700q-12 0 -53 -8q-14 -4 -14 -26q-8 -352 6 -478q6 -57 35 -82q61 -57 135 -57q43 0 80 49q55 72 55 251t-68 267q-59 84 -176 84zM633 821q133 0 219 -98t86 -258q0 -238 -162 -363q-58 -45 -162 -86t-185 -41q-81 -1 -166 21t-132 8q-2 -2 -8 2t-6 8q8 74 8 596
t-7 571q-8 48 -16 59q-8 10 -25 16t-79 16q-2 4 -2 16t4 17q82 5 204 27t181 48q10 -10 10 -22q-20 -33 -20 -275q-2 -80 -2 -175v-175q0 -8 10 -4q164 92 250 92z" />
    <glyph glyph-name="c" unicode="c" horiz-adv-x="817" 
d="M66 391q0 103 50 197t142 145q55 35 141 62q168 53 312 2q57 -25 69 -56q8 -36 -33 -87q-41 -52 -56 -59t-23 -3q-4 4 -46 53t-86 77q-44 29 -103 31q-59 1 -97 -67t-39 -198t69 -240q70 -111 208 -111t210 74q6 0 9 -6q3 -22 -7 -45q-140 -184 -334 -184t-298 126
q-88 106 -88 289z" />
    <glyph glyph-name="d" unicode="d" horiz-adv-x="1015" 
d="M563 117q74 0 74 39q8 285 -2 454q-3 68 -55 110t-109 42t-96 -49q-55 -67 -55 -227t67 -264q68 -104 176 -105zM993 98q0 -27 -8 -35q-55 -29 -178 -63t-145 -35q-22 0 -21 17q-4 29 -4 102q0 8 -8 4q-68 -43 -145 -76t-124 -32q-127 0 -208 104q-86 104 -86 289
q0 96 40 187t106 140t174 85t187 36h54q10 0 10 8q4 217 -6 359q-8 63 -41 78q-49 18 -94 22q-2 4 -1 18t5 17q88 0 215 18t184 39q2 -2 8 -18q-18 -37 -20 -210q-2 -172 -2 -496t4 -418t12 -115q7 -21 27 -23t65 -2z" />
    <glyph glyph-name="e" unicode="e" horiz-adv-x="851" 
d="M425 768q-54 0 -86 -70t-32 -188q1 -8 21 -9t104 2t109 9q8 4 8 18q-4 102 -37 170t-87 68zM587 141q132 0 216 76q8 -1 10 -17t-6 -32q-72 -86 -166 -139t-192 -54q-170 0 -267 97q-117 117 -116 331q0 115 52 208t138 145q100 66 234 66t207 -88q73 -87 91 -197
q4 -10 25 -19q2 -4 -1 -16t-7 -15q-37 -10 -490 -47q-8 0 -8 -18q4 -111 76 -196t204 -85z" />
    <glyph glyph-name="f" unicode="f" horiz-adv-x="561" 
d="M33 12q0 16 2 19q53 8 79 20t25 72v567q0 14 -8 15l-90 6q0 6 5 24t7 21q90 21 90 45q0 170 63 293q62 123 202 217q104 70 192 69q129 0 174 -77q4 -11 -1 -27t-44 -68t-52 -62q-13 -11 -24 -3q-119 143 -194 143q-27 0 -43 -20q-33 -47 -33 -237t1 -213t11 -23
q47 2 89 3t60 2t34 1q-10 -35 -19 -94l-164 2q-10 0 -10 -13q4 -350 8 -475q3 -125 15 -145t41 -28t79 -15q2 -3 -2 -19t-6 -18l-256 6l-229 -6q-2 2 -2 18z" />
    <glyph glyph-name="g" unicode="g" horiz-adv-x="901" 
d="M725 -305q0 182 -389 182q-43 0 -66 -16q-61 -41 -61 -119q-1 -78 69 -148t202 -69q132 0 189 48q56 48 56 122zM442 256q101 0 101 225q-1 127 -33 210t-102 83q-100 0 -100 -177t36 -259q37 -82 98 -82zM289 214q0 3 -2 3q-219 61 -219 293q0 156 129 242
q102 69 245 69q88 -1 182 -31t150 -30t81 7q26 7 38 21q13 14 21 11q8 -2 8 -14q0 -11 -16 -54t-36 -62q-19 -19 -112 -12q-7 1 4 -21q12 -22 12 -99q0 -174 -125 -261q-98 -68 -241 -67q-40 0 -52 2t-25 -11t-14 -24q0 -53 72 -63q301 -35 338 -45q166 -51 166 -222
q0 -117 -78 -211q-77 -94 -191 -147t-244 -53q-212 0 -307 140q-34 50 -34 101t12 80q20 18 185 127v11q-63 27 -105 72q-41 46 -43 102q6 18 6 32q6 4 100 54q94 51 95 60z" />
    <glyph glyph-name="h" unicode="h" horiz-adv-x="1019" 
d="M131 631q0 515 -10 588q-8 29 -35 43q-17 6 -72 14q-2 6 -2 18t2 17q227 12 373 69q10 -10 8 -22q-20 -37 -20 -197v-440q0 -14 8 -6q143 106 258 106q248 0 248 -327v-394q-1 -31 19 -45t79 -24q4 -3 2 -19t-6 -18l-225 6q-59 0 -213 -6q-4 4 -4 18t4 19q39 8 59 15
q20 8 25 24q6 16 8 59q10 395 -7 449q-16 54 -58 85q-42 29 -94 29t-91 -18q-12 -6 -12 -23q0 -489 6 -531t16 -57t80 -32q10 -14 0 -37l-223 6l-229 -6q-10 14 0 37q41 6 63 14q20 9 28 29q16 42 15 557z" />
    <glyph glyph-name="i" unicode="i" horiz-adv-x="520" 
d="M141 408q0 188 -4 224t-18 51t-60 36q-2 2 -2 17t2 18q43 0 155 22t179 53l-4 -346q0 -267 2 -333t13 -87t88 -32q0 -31 -9 -37l-217 6l-231 -6q-2 2 -3 18t1 19q39 4 69 14t35 93q4 82 4 270zM389 1084q0 -56 -49 -93q-16 -10 -64 -16t-73 2q-43 17 -53 81t12 95
q14 13 55 25t86 12t70 -25q16 -25 16 -81z" />
    <glyph glyph-name="j" unicode="j" horiz-adv-x="524" 
d="M25 742q0 15 4 20q222 10 372 67q0 -447 -4 -650t-24 -298q-35 -155 -146 -273t-194 -149q-20 4 -31 19q-4 10 0 14q82 37 112 115t29 266q0 696 -4 750q-5 55 -33 73t-77 25q-4 6 -4 21zM385 1092q0 -62 -49 -97q-8 -6 -62 -16t-65 -4q-74 39 -68 125q1 27 13 41t58 31
q46 18 97 18t62 -19q14 -17 14 -79z" />
    <glyph glyph-name="k" unicode="k" horiz-adv-x="962" 
d="M27 13q0 15 2 18q41 6 67 16q26 9 31 73q4 64 3 550t-5 537t-38 61t-62 14q-2 6 -2 18t2 17q221 10 358 63q12 -6 12 -20q-14 -37 -17 -201t-3 -741q70 11 217 186q63 76 63 102t-32 33q-62 17 -99 17q-2 6 0 20t4 17q168 -6 371 14q2 -4 2 -17t-2 -20q-100 -20 -151 -72
q-115 -115 -175 -186v-8q27 -57 145 -218t160 -199t62 -45t70 -11q2 -3 0 -19t-4 -18q-35 -4 -148 -7q-114 -3 -162 0t-98 62t-178 273q-33 51 -45 61q2 -197 4 -249t13 -69t42 -23t55 -11q6 -17 -4 -37l-247 6l-209 -6q-2 4 -2 19z" />
    <glyph glyph-name="l" unicode="l" horiz-adv-x="507" 
d="M25 12q0 14 4 19q41 6 61 15t30 36t11 521q0 494 -8 593q-6 47 -29 57t-65 17q-4 4 -4 16t4 17q77 3 191 29t165 48q10 -10 10 -14q-16 -29 -17 -172q-1 -144 -1 -572t3 -482t14 -74t87 -35q5 -10 -4 -37l-84 2q-82 4 -153 4l-211 -6q-4 4 -4 18z" />
    <glyph glyph-name="m" unicode="m" horiz-adv-x="1538" 
d="M37 14q0 14 2 17q18 2 59 16q35 15 39 87t4 256t-6 228q0 68 -94 89q0 25 6 36q233 27 342 86q6 -2 6 -12q-6 -49 -6 -123q0 -4 5 -5t7 1q160 131 284 131t192 -137q6 -4 10 0q172 137 284 137t174 -83q62 -82 62 -242t6 -394q0 -24 11 -38t92 -33q0 -27 -7 -37l-231 6
q-115 0 -219 -6q-2 4 -3 19t1 18q53 12 65 16q29 12 33 94q8 295 -8 404q-8 47 -44 87q-37 40 -99 40t-111 -33v-18q8 -49 8 -237t1 -247t18 -71q31 -27 100 -35q2 -5 0 -19t-4 -18q-246 6 -278 6t-199 -6q-2 4 -2 18t2 19q63 8 77 14q25 10 31 76q6 375 -6 438
q-25 119 -143 119q-47 0 -88 -27q-18 -12 -19 -37l2 -493q0 -39 11 -56t47 -26l49 -8q2 -5 1 -19t-5 -18q-233 6 -252 6l-205 -6q-2 6 -2 20z" />
    <glyph glyph-name="n" unicode="n" horiz-adv-x="1032" 
d="M555 13q0 15 2 18q71 10 80 28q8 17 12 61t4 218t-14 234q-25 110 -141 110q-47 0 -92 -27q-16 -8 -17 -24q0 -425 3 -489t19 -84t87 -27q2 -5 1 -19t-3 -18q-228 6 -274 6t-181 -6q-10 17 -2 37q37 6 55 10q41 9 44 105t3 268t-3 200t-5 35t-22 27t-60 33q0 27 6 32
q219 25 332 88q6 -6 6 -14q-6 -49 -6 -85t3 -37t5 1q156 127 260 127q133 0 199 -110q45 -76 45 -234q0 -361 1 -379t13 -30q37 -31 89 -37q0 -29 -9 -37l-202 6q-27 0 -236 -6q-2 4 -2 19z" />
    <glyph glyph-name="o" unicode="o" horiz-adv-x="999" 
d="M471 772q-135 0 -135 -315q0 -209 54 -322t140 -112q41 0 64 22q68 69 68 277t-50 329t-141 121zM512 821q194 1 308 -115t114 -300q0 -250 -189 -365q-98 -66 -247 -66q-209 0 -321 122t-111 309q0 225 178 339q112 76 268 76z" />
    <glyph glyph-name="p" unicode="p" 
d="M473 684q-49 0 -76 -18q-18 -8 -20 -39t-2 -197t4 -234t51 -110q46 -41 106 -41t97 45q63 80 63 257t-64 257t-159 80zM381 707q0 -6 8 -2q167 117 279 117t188 -91q92 -104 92 -270q0 -324 -331 -447q-108 -39 -156 -39t-76 5q-6 0 -6 -11q0 -271 5 -339t52 -81
q23 -6 101 -14q4 -4 3 -20t-8 -19h-38q-281 0 -492 -24q-10 29 0 39q63 14 82 22q39 14 43 90t4 503t-4 481q-4 53 -31 65t-78 20q-2 2 0 18t5 19q78 10 183 48t165 69q4 2 9 -4t3 -29t-2 -106z" />
    <glyph glyph-name="q" unicode="q" horiz-adv-x="1015" 
d="M486 754q-160 0 -160 -289q0 -186 77 -282q78 -95 177 -95q41 0 52 7t11 22q0 494 -9 540t-28 60q-46 37 -120 37zM643 -167q0 220 -2 222q-1 1 -27 -15t-104 -40t-127 -25q-135 0 -227 111t-93 289q0 313 352 415q229 67 498 -12q-14 -39 -19 -95t-6 -387t5 -509
t17 -201t33 -30t55 -12q34 -5 46 -7q0 -35 -4 -39q-221 0 -375 -12q-153 -12 -167 -12q-8 16 -2 37q6 2 35 8t57 14t36 28q19 52 19 272z" />
    <glyph glyph-name="r" unicode="r" horiz-adv-x="724" 
d="M29 12q0 14 4 19q59 10 69 14q31 14 33 86q6 55 6 257q0 236 -9 263q-9 28 -81 58q0 29 8 32q205 20 322 88q12 0 12 -8q-10 -82 -10 -168q0 -10 8 -2q61 68 113 119t122 51q68 0 101 -57q2 -2 2 -20t-3 -32q-3 -16 -31 -74t-50 -87q-2 -6 -20 -6q-80 84 -160 84
q-43 1 -61 -17t-17 -37q-2 -71 0 -247t5 -207t11 -48q7 -17 29 -25t94 -17q2 -5 0 -19t-6 -18l-272 6l-215 -6q-4 4 -4 18z" />
    <glyph glyph-name="s" unicode="s" horiz-adv-x="731" 
d="M589 569q-13 0 -18 4q-20 139 -94 183q-41 22 -89 22t-80 -26t-32 -74q0 -47 35 -82t156 -96q121 -62 162 -116t41 -136q0 -123 -102 -198t-240 -75q-136 0 -252 43q0 190 -4 248q8 8 32 8q35 -170 127 -225q51 -29 107 -29t92 26q35 26 35 71t-30 76t-139 90t-161 121
q-51 62 -51 166t82 178t237 73q63 0 129 -9t99 -9q-16 -61 -25 -230q-4 -4 -17 -4z" />
    <glyph glyph-name="t" unicode="t" horiz-adv-x="600" 
d="M475 102q70 0 105 23q8 -18 2 -39q-82 -111 -228 -111q-192 0 -218 155q-7 53 -7 177l2 375q0 23 -12 25q-36 6 -86 6q0 37 14 55q68 10 76 14t8 17v174q61 18 132 51t93 55q16 4 31 4q-6 -98 -6 -272q0 -18 10 -18q111 0 197 8q-13 -66 -15 -99q-85 0 -184 3
q-8 0 -8 -13l-2 -366q0 -119 8 -152q18 -72 88 -72z" />
    <glyph glyph-name="u" unicode="u" horiz-adv-x="999" 
d="M371 504q0 -250 10 -289q23 -92 127 -92q57 0 94 29q10 8 16 36q6 55 0 471q0 51 -30 61t-107 21q-4 23 4 35q215 0 387 29q-4 -86 -4 -232v-391q4 -74 39 -76q29 -2 72 0q0 -31 -6 -38q-72 -29 -187 -63t-149 -34q-19 17 -19 93q-1 54 -10 45q-143 -131 -260 -132
q-225 0 -225 250q0 371 -2 416t-8 60q-11 27 -93 36q-6 25 7 37q272 12 356 33q-12 -55 -12 -305z" />
    <glyph glyph-name="v" unicode="v" horiz-adv-x="851" 
d="M897 780q0 -14 -2 -18l-23 -4q-25 -6 -36 -10q-55 -18 -88 -91q-100 -213 -176 -413t-91 -250q-18 4 -52 3t-48 -5q-40 116 -151 399t-133 314t-50 41t-59 16q-2 4 1 19t5 18q143 -6 221 -6t213 6q2 -5 2 -19t-2 -18q-59 -14 -66 -20t-8 -23q55 -164 166 -428q4 -4 6 0
q116 283 136 357t-19 91q-41 16 -90 25q-2 4 0 18t4 17l172 -6q43 0 166 6q2 -5 2 -19z" />
    <glyph glyph-name="w" unicode="w" horiz-adv-x="1271" 
d="M1323 780q0 -14 -4 -18q-53 -10 -74 -21q-43 -23 -74 -92q-174 -420 -247 -655q-45 6 -111 -4q-35 100 -98 262t-75 182t-19 15q-98 -227 -185 -455q-49 8 -106 -2q-188 607 -241 702q-19 34 -45 48t-79 20q-2 4 -2 17t2 20l262 -6q61 0 203 6q4 -3 5 -17t-1 -20
q-64 -13 -70 -28q-6 -14 1 -42t59 -190t68 -207q2 -2 8 0q125 303 166 465q14 -2 54 -2t52 2q55 -167 184 -475q6 -6 9 0q86 207 131 379q8 25 2 43q-14 41 -137 55q-2 4 -2 18q1 14 6 19l192 -6q20 0 162 6q4 -5 4 -19z" />
    <glyph glyph-name="x" unicode="x" horiz-adv-x="827" 
d="M602 715q0 31 -98 45q-8 30 4 39l151 -6q88 0 175 6q6 -3 6 -19t-4 -20q-72 -12 -95 -22t-44 -34t-175 -225q-4 -4 0 -14q23 -37 68 -120q127 -235 180 -277q35 -29 109 -37q2 -5 0 -19t-5 -18l-253 6q-140 0 -182 -3t-50 -3q-8 29 0 37q72 14 75 28t-3 27
q-45 86 -115 205q-2 8 -10 0q-125 -174 -125 -203t22 -39q23 -8 93 -18q2 -5 1 -19t-3 -18l-191 6q-86 0 -178 -6q-4 6 -4 20t4 17q75 10 105 27q64 36 247 286q4 6 0 12q-121 211 -163 283t-65 90q-24 18 -102 29q-2 4 -1 21t6 20l251 -6l211 6q4 -3 6 -21t-6 -20
q-7 -2 -30 -7t-27 -8q-23 -9 -2 -51t96 -164q4 -4 8 0q113 147 113 187z" />
    <glyph glyph-name="y" unicode="y" horiz-adv-x="876" 
d="M0 799l231 -6q51 0 218 6q8 -25 2 -37q-59 -14 -62 -17q-20 -10 -12 -38q39 -125 174 -428h6q41 88 85 223q44 134 45 158t2 36q2 28 -38 43q-41 14 -100 23q-2 4 1 19t5 18l178 -6q63 0 180 6q3 -3 3 -17t-3 -20q-63 -10 -88 -27q-35 -27 -69 -121q-186 -500 -475 -1009
q-24 -44 -72 -115l-12 -8q-86 18 -105 59q-2 3 -1 13t3 12q221 258 310 430q-43 86 -164 376t-143 326t-53 48t-54 16q-2 4 2 19t6 18z" />
    <glyph glyph-name="z" unicode="z" horiz-adv-x="794" 
d="M430 735q-124 0 -182 -4t-88 -36t-82 -156q-4 -2 -20 3t-21 9q37 152 47 260q45 -18 166 -18h274q101 0 191 4q2 0 2 -27q-39 -86 -169 -337t-192 -359q-21 -21 201 -21q91 0 176 207q8 4 43 8l6 -2q-14 -109 -67 -237q-14 -35 -37 -35l-629 6q-9 18 3 39
q293 487 384 686q6 10 -6 10z" />
    <glyph glyph-name="braceleft" unicode="{" horiz-adv-x="827" 
d="M489 308q0 -74 -12 -200t-12 -171q0 -133 71 -195t203 -76q4 -4 1 -18t-7 -19q-172 -2 -295 82t-123 240q1 72 11 193q10 120 14 202q9 174 -242 209q-4 5 -1 19t9 16q109 4 160 49t55 117q3 72 -9 184t-13 168q0 389 420 426q6 -2 6 -37q-156 -23 -216 -99t-60 -202
l24 -346q0 -86 -54 -165t-192 -110v-6q81 -8 137 -38q56 -31 80 -73q44 -76 45 -150z" />
    <glyph glyph-name="bar" unicode="|" horiz-adv-x="507" 
d="M188 1454h131v-2089h-131v2089z" />
    <glyph glyph-name="braceright" unicode="}" horiz-adv-x="823" 
d="M524 51q0 -389 -420 -426q-4 3 -7 19t1 18q158 28 217 100t60 201q0 47 -13 159q-12 112 -12 165q0 213 252 278v6q-163 16 -216 101q-52 85 -52 159q0 75 12 209t12 183q0 133 -70 194q-71 61 -204 76q-6 25 6 37q172 2 295 -82t123 -240q0 -72 -10 -194t-14 -206
q-4 -85 52 -145q58 -60 191 -79q2 -6 -1 -22t-9 -17q-109 -2 -161 -47t-53 -117q-1 -71 10 -183t11 -147z" />
    <glyph glyph-name="asciitilde" unicode="~" horiz-adv-x="942" 
d="M856 575q16 0 16 -6q0 -35 -12 -65q-30 -50 -102 -100t-138 -50t-186 62q-80 37 -131 37t-115 -40t-96 -75q-8 -8 -14 8q0 43 18 72q37 47 118 95t136 48q54 0 156 -48t149 -48q100 0 197 110h4z" />
    <glyph glyph-name="uni00A0" unicode="&#xa0;" horiz-adv-x="307" 
 />
    <glyph glyph-name="exclamdown" unicode="&#xa1;" horiz-adv-x="507" 
d="M225 532q-53 0 -96 40t-43 102t37 104q41 41 103 41t102 -40t39 -98q0 -58 -45 -110q-44 -39 -97 -39zM390 -364q-11 -28 -40 -38q-28 -10 -104 -18t-108 -6t-54 25q2 51 127 811q4 2 22 0t23 -7q4 -29 70 -348t71 -379q4 -12 -7 -40z" />
    <glyph glyph-name="cent" unicode="&#xa2;" horiz-adv-x="991" 
d="M129 604q0 104 58 198t157 146q98 59 250 76l14 156q35 14 51 10l-18 -164q97 0 161 -24t77 -54q-1 -23 -7 -37t-28 -37t-33 -28h-14q-7 6 -27 28q-68 75 -125 95q-6 2 -10 -8l-55 -617q77 -17 163 13q85 31 123 69q2 -2 8 -17t5 -18q-104 -147 -304 -188q-8 0 -12 -8
l-14 -168q-2 -5 -25 -7t-30 3l18 170q0 8 -8 8q-186 10 -285 125q-90 98 -90 278zM528 356l60 609q0 8 -8 8q-84 -10 -146 -93t-61 -218q-1 -228 155 -306z" />
    <glyph glyph-name="sterling" unicode="&#xa3;" horiz-adv-x="991" 
d="M584 1149q-31 0 -54 -37q-35 -61 -34 -436v-49q0 -8 10 -9q141 0 225 7q4 -14 -2 -25q-31 -33 -75 -41t-158 -8q-6 0 -7 -8q-51 -225 -213 -336q74 11 228 -11t228 -22q75 0 115 25t81 131q15 15 30 -27q-55 -176 -137 -265t-176 -89q-93 0 -235 44t-216 44t-139 -70
q-18 6 -24 17q6 27 26 86t27 65q25 18 88 53q70 35 53 365q-123 0 -151 4q-6 6 -3 13l13 26t13 22t126 0q-4 274 103 408q82 100 186 145t164 45t122 -17q62 -18 62 -48q-6 -53 -55 -133q-4 -4 -14 -5t-15 3q-102 133 -192 133z" />
    <glyph glyph-name="currency" unicode="&#xa4;" horiz-adv-x="991" 
d="M711 573q-1 109 -61 186t-152 77t-138 -65t-47 -177q0 -112 65 -180q65 -66 159 -66q174 0 174 225zM534 928q102 0 181 -49q8 -4 12 0q80 90 96 99t84 9q6 -6 6 -14q-41 -43 -133 -158q54 -92 54 -206t-68 -208q-2 -12 0 -20q102 -119 139 -152q0 -16 -10 -26
q-90 -14 -117 2q-51 35 -108 104q-80 -63 -186 -63t-191 67q-76 -66 -135 -137q-6 -6 -17 2q-12 70 4 86q18 25 50 59q31 34 41 48v12q-43 91 -43 197t61 190q-8 10 -31 36t-40 46t-29 33q-4 12 -4 22t17 47q17 36 23 44t15 8q10 0 14 -2q93 -120 107 -132t24 -6
q82 62 184 62z" />
    <glyph glyph-name="yen" unicode="&#xa5;" horiz-adv-x="991" 
d="M203 12q0 16 4 19q57 6 84 12q61 14 61 123q4 74 4 207q0 6 -6 6q-152 -4 -157 -4q0 41 12 53h13l56 -2h78q4 4 4 6v113q0 14 -10 14q-78 -2 -153 -2q0 39 12 51l76 -2h67q4 0 4 10q-47 139 -182 416q-31 63 -54 87q-42 42 -122 42q-4 5 -2 19t6 18l248 -6q141 0 246 6
q4 -4 4 -18t-2 -19q-4 0 -58 -12q-33 -10 -16 -57q80 -205 168 -390q4 -6 10 0q119 250 156 363q23 66 -45 82q-14 4 -33 6t-45 8q0 33 4 37l186 -8l178 8q2 -2 2 -17t-2 -20q-49 -6 -79 -14q-66 -18 -121 -137q-177 -384 -181 -390t-1 -10t8 -4l151 2q0 -29 -8 -49l-145 2
q-6 -4 -7 -8v-119q0 -8 7 -8l153 2q0 -31 -8 -51l-143 2q-6 0 -7 -8l3 -209q2 -51 15 -80t50 -37t90 -14q2 -3 0 -19t-4 -18l-309 6l-256 -6q-4 2 -4 18z" />
    <glyph glyph-name="brokenbar" unicode="&#xa6;" horiz-adv-x="509" 
d="M186 260h136v-727h-136v727zM186 1292h136v-712h-136v712z" />
    <glyph glyph-name="section" unicode="&#xa7;" horiz-adv-x="870" 
d="M662 86q0 143 -62 254t-115 192q-142 215 -151 336q-6 80 26 150q-72 -8 -126 -89t-54 -177q0 -174 146 -408q93 -139 120 -184q77 -126 76 -203q7 -74 -20 -123q76 33 118 103q42 69 42 149zM403 -178q27 0 27 53t-47 121q-41 70 -141 217q-160 245 -160 427t135 331
q45 53 119 95t133 42q133 0 213 -80q23 -24 23 -56t-35 -71q-8 -8 -17 -2q-35 29 -101 72t-95 43t-29 -29l-2 -29q0 -46 34 -116t191 -312q117 -172 117 -301t-62 -239t-164 -181q-101 -72 -173 -71q-137 0 -232 88q-25 28 -25 56t33 81l11 2q57 -69 134 -105t113 -36z" />
    <glyph glyph-name="dieresis" unicode="&#xa8;" horiz-adv-x="819" 
d="M668 1078q0 -48 -41 -79q-8 -8 -49 -11t-54 1q-43 29 -53 72q-4 55 10 76q12 12 48 24q36 13 71 13q36 0 52 -24t16 -72zM336 1080q0 -46 -41 -81q-8 -8 -49 -11t-53 1q-49 31 -53 78t7 70q14 12 50 24q99 33 125 -11q14 -24 14 -70z" />
    <glyph glyph-name="copyright" unicode="&#xa9;" horiz-adv-x="1427" 
d="M778 975q-111 0 -163 -95q-52 -94 -52 -236q-1 -142 57 -242t183 -99q96 0 192 137q5 0 21 -16q-10 -37 -46 -88t-50 -62q-74 -20 -154 -20q-200 0 -310 98t-110 268t111 280t313 110q57 0 137 -10t101 -11q-16 -135 -19 -196q-2 -5 -14 -5t-14 5q-13 113 -63 147
t-120 35zM714 1225q-230 0 -393 -171t-163 -418t165 -418t395 -171t391 172t161 417t-163 417t-393 172zM718 1268q259 0 433 -184t174 -449t-178 -451t-434 -186t-433 181q-178 181 -178 451t178 454t438 184z" />
    <glyph glyph-name="ordfeminine" unicode="&#xaa;" horiz-adv-x="546" 
d="M264 553q31 0 31 33q4 82 4 110t-6 27q-70 -27 -86 -43t-17 -45q0 -82 74 -82zM506 545q23 0 43 6q0 -31 -8 -39q-47 -59 -158 -59q-35 0 -57 16q-32 23 -31 59h-6q-92 -74 -130 -74t-75 31q-47 47 -47 127q0 33 22 64q11 8 105 36t125 44q10 0 11 15t1 40t-16 55
q-31 47 -91 47t-75 -16l-39 -59q-2 -2 -12 6t-10 11t11 32t15 33q49 36 106 60t95 24q37 0 81 -24q96 -53 97 -194l-6 -186q0 -55 49 -55z" />
    <glyph glyph-name="guillemotleft" unicode="&#xab;" horiz-adv-x="1212" 
d="M1059 119q2 -1 2 -27t-2 -26t-2 -3q-49 45 -233 157t-287 147q2 6 10 22q193 80 433 232q71 45 107 71l3 -2v-20q0 -18 -24 -42t-136 -108t-191 -131v-8q49 -27 159 -118t161 -144zM643 119q2 -1 2 -27t-2 -26t-2 -3q-47 45 -231 157t-287 147q0 6 8 22q106 39 277 135
t264 168q4 -4 4 -22t-24 -42t-135 -107q-112 -83 -191 -132v-8q48 -29 158 -120t159 -142z" />
    <glyph glyph-name="logicalnot" unicode="&#xac;" horiz-adv-x="942" 
d="M834 133q-59 -18 -83 -18t-24 12v352q0 51 -29 51h-546q-61 0 -62 11q18 78 31 94q27 -6 215 -6h251l173 2h47q24 0 24 -13l-2 -327q0 -113 5 -158z" />
    <glyph glyph-name="uni00AD" unicode="&#xad;" horiz-adv-x="555" 
d="M96 471q215 10 393 10q9 -17 -11 -71q-19 -54 -25 -56q-13 -2 -183 -7t-202 -3q-6 0 -7 21q19 106 35 106z" />
    <glyph glyph-name="registered" unicode="&#xae;" horiz-adv-x="499" 
d="M233 1014q44 0 46 35q0 43 -37 43q-8 0 -9 -11v-67zM176 1075q0 16 -26 19q-2 2 -2 7q1 5 4 5h120q59 0 60 -47q0 -31 -39 -47q31 -50 45 -68t37 -20q3 -3 -4 -13q-47 0 -65 4t-27 21q-17 25 -27 45t-19 20v-53q-1 -12 5 -15t22 -7q4 -4 0 -13l-55 2l-55 -2q-2 8 0 13
q27 4 26 20v129zM248 1176q-72 0 -117 -50t-45 -124t48 -124t120 -50t118 50t46 122t-49 124t-121 52zM251 1204q83 0 141 -59t58 -143t-58 -144q-58 -59 -142 -59t-141 58t-57 143q0 84 58 144t141 60z" />
    <glyph glyph-name="macron" unicode="&#xaf;" horiz-adv-x="819" 
d="M213 1110q37 -4 148 -4h274q0 -23 -12 -65t-19 -44q-29 -6 -221 -6t-201 4q2 17 14 63t17 52z" />
    <glyph glyph-name="degree" unicode="&#xb0;" horiz-adv-x="552" 
d="M375 977q-1 57 -37 99t-96 42t-100 -38q-38 -38 -38 -100t41 -96t99 -34q131 0 131 127zM248 1210q96 0 151 -66t55 -162t-62 -160q-64 -64 -154 -64t-153 59q-62 59 -62 164t64 167q65 62 161 62z" />
    <glyph glyph-name="plusminus" unicode="&#xb1;" horiz-adv-x="942" 
d="M512 565v-303q0 -8 -47 -26t-47 -3q0 170 -2 340h-338q-4 0 -4 17q8 49 20 86q16 -6 209 -6h113v116q0 141 -4 191q51 23 92 22q8 0 8 -61v-256q0 -12 10 -12h344q7 -15 -9 -53q-15 -38 -23 -39l-312 -5q-10 0 -10 -8zM293 158h575v-21q-18 -72 -26 -74l-768 -6v19
q12 66 20 84q8 -2 199 -2z" />
    <glyph glyph-name="two.k" unicode="&#xb2;" horiz-adv-x="671" 
d="M350 1231q0 63 -36 106t-107 43q-72 0 -144 -80q-2 -2 -13 8t-11 13q57 96 136 147q79 52 160 52t143 -62t62 -174q0 -111 -155 -248q-57 -49 -106 -90q0 -4 2 -6q73 -4 161 -1t98 6q31 9 70 81q2 2 16 -3t13 -9q-47 -178 -72 -215q-16 -29 -71 -31q-56 -2 -178 1t-171 3
l-100 -2q-6 12 4 37q147 106 223 196t76 228z" />
    <glyph glyph-name="three.k" unicode="&#xb3;" horiz-adv-x="634" 
d="M326 1518q82 0 134 -48t52 -128t-119 -144q-6 -2 -2 -6q92 -29 139 -74t48 -121q0 -121 -138 -204q-96 -57 -219 -57t-146 56q-23 58 -24 117q2 5 12 9t15 2q33 -80 89 -110t109 -30q115 0 115 138q0 80 -46 129t-120 49q-14 0 -39 -2q-2 6 10 25q11 19 17 24
q88 23 116 45q27 22 27 73q0 52 -35 93q-36 41 -99 41t-136 -66q-4 0 -10 7t-6 14q121 168 256 168z" />
    <glyph glyph-name="acute" unicode="&#xb4;" horiz-adv-x="819" 
d="M449 1196q9 6 81 11t91 1q2 -2 4 -9t0 -9q-18 -41 -250 -303q-5 -4 -19 1t-14 13q44 129 107 295z" />
    <glyph glyph-name="mu" unicode="&#xb5;" horiz-adv-x="935" 
d="M856 166q29 0 72 20q2 -2 4 -15t0 -21q-46 -88 -110 -132t-103 -43q-105 0 -124 86q-13 60 -13 100t-2 40t-5 -2q-53 -117 -119 -170t-105 -53q-40 0 -76 16q-36 18 -48 45q-8 -74 -8 -211q0 -102 77 -158t179 -69q2 -3 -1 -19t-5 -18q-20 -27 -98 -69t-121 -42
q-94 0 -110 252t-19 435q-2 184 -6 354t-6 260q6 8 94 30q140 34 157 19q0 -10 -8 -171t-8 -265q0 -105 8 -123q25 -68 86 -68q94 0 131 102q10 27 11 58v424q10 12 118 33t125 8q-16 -125 -18 -312l-2 -200q0 -121 53 -121z" />
    <glyph glyph-name="paragraph" unicode="&#xb6;" horiz-adv-x="1112" 
d="M537 743q0 -379 217 -411q-8 168 -8 473t32 364q-119 -13 -180 -111t-61 -315zM503 -430q-99 0 -136 74q-10 20 -17 67q-6 47 -4 74q4 12 14 16q98 -94 222 -94q78 0 112 41t49 162q14 121 13 385q-100 -41 -168 -43q-231 27 -361 165q-129 138 -129 339q0 106 43 190
t114 137q140 104 316 125q101 12 269 22t196 13q10 -12 -6 -45q-125 0 -157 -39t-29 -360l-2 -649q0 -160 -37 -281t-93 -181q-110 -118 -209 -118z" />
    <glyph glyph-name="periodcentered" unicode="&#xb7;" horiz-adv-x="501" 
d="M399 392q0 -68 -43 -113t-105 -45q-61 0 -105 41t-44 107t46 112t105 47q58 0 97 -39q49 -42 49 -110z" />
    <glyph glyph-name="cedilla" unicode="&#xb8;" horiz-adv-x="817" 
d="M545 -219q0 -76 -74 -130q-75 -54 -139 -54t-92 59q-6 18 8 33q63 -35 129 -35t65 63q0 72 -141 115q0 10 2 16l137 160h45l-65 -84q53 -30 89 -62t36 -81z" />
    <glyph glyph-name="one.k" unicode="&#xb9;" horiz-adv-x="585" 
d="M78 783q0 11 2 16q37 4 58 7q36 5 43 39q3 13 7 48q12 311 2 481q-4 45 -34 51q-25 6 -56 11q-2 2 -2 14t2 14q168 8 297 60q10 0 11 -4q-13 -358 -5 -506q7 -148 9 -160q7 -40 41 -47q12 -2 55 -8q2 -1 1 -15t-5 -16l-225 4l-199 -4q-2 4 -2 15z" />
    <glyph glyph-name="ordmasculine" unicode="&#xba;" horiz-adv-x="677" 
d="M326 965q-88 0 -88 -199q0 -135 32 -204t84 -68q86 0 86 198q1 273 -114 273zM360 1004q118 0 193 -77q76 -77 76 -194q0 -158 -125 -233q-68 -45 -188 -45q-120 -1 -193 73q-74 74 -74 212t117 212q76 52 194 52z" />
    <glyph glyph-name="guillemotright" unicode="&#xbb;" horiz-adv-x="1212" 
d="M152 662q0 24 4 28v2q51 -47 238 -161t282 -142q-2 -6 -10 -22q-142 -61 -310 -159t-231 -145q0 2 -1 22t5 26q43 41 154 125t188 131v8q-49 27 -158 118t-159 144q-2 1 -2 25zM567 659q0 20 2 29v2l2 2q47 -46 235 -158t284 -145q0 -6 -9 -22q-104 -39 -273 -133
t-267 -171l-4 7l8 41q39 41 151 123t189 133v8q-49 29 -158 119t-158 143q-2 2 -2 22z" />
    <glyph glyph-name="onequarter" unicode="&#xbc;" horiz-adv-x="1515" 
d="M879 276l91 -2h111l4 7l2 278q-2 2 -4 0q-78 -96 -204 -276v-7zM1276 723q0 -283 2 -436q0 -8 6 -8h64q31 0 48 1t21 1q-14 -52 -16 -93h-18l-99 2q-4 -4 -4 -6l2 -227q-82 0 -199 -18l2 245q0 6 -4 6h-133l-160 -2q0 39 9 60q33 41 139 179t219 278q8 4 60 11t61 7z
M756 606q385 672 389 677q5 5 27 4t28 -3q2 -4 2 -6q-14 -20 -396 -688t-411 -713q-2 -2 -10 -2q-27 33 -21 46t392 685zM115 480q0 11 2 16q37 4 58 7q36 5 43 39q3 13 7 48q11 288 2 481q-4 45 -34 51q-25 6 -56 11q-2 2 -2 14t2 14q168 8 297 60q10 0 10 -4
q-4 -111 -4 -371t9 -297q9 -38 40 -45q13 -2 56 -8q2 -2 1 -16t-5 -15l-226 4l-198 -4q-2 4 -2 15z" />
    <glyph glyph-name="onehalf" unicode="&#xbd;" horiz-adv-x="1515" 
d="M1137 430q0 62 -36 106t-108 44t-143 -80q-2 -2 -13 7t-12 13q57 96 137 148t160 51t142 -63t63 -160q0 -123 -156 -260q-57 -49 -106 -91q0 -4 2 -6q73 -4 161 -1t98 6q32 9 71 81q2 2 15 -3t13 -9q-47 -178 -67 -211t-76 -35t-177 1q-122 3 -171 3l-100 -2q-2 5 0 19
t4 18q147 106 223 196t76 228zM717 606q385 672 389 677t27 4t28 -3q2 -4 2 -6q-14 -20 -396 -688t-411 -713q-2 -2 -10 -2q-26 33 -20 46t391 685zM94 480q0 11 2 16q36 4 58 7q34 5 44 39q3 13 7 48q11 288 2 481q-4 45 -35 51q-25 6 -55 11q-2 2 -2 14t2 14q168 8 297 60
q10 0 10 -4q-4 -111 -4 -315q0 -302 7 -347q7 -44 42 -51q12 -2 55 -8q2 -2 1 -16t-5 -15l-225 4l-199 -4q-2 4 -2 15z" />
    <glyph glyph-name="threequarters" unicode="&#xbe;" horiz-adv-x="1515" 
d="M879 276l91 -2h111l4 7l2 278q-2 2 -4 0q-78 -96 -204 -276v-7zM1276 723q0 -283 2 -436q0 -8 6 -8h64q31 0 48 1t21 1q-14 -52 -16 -93h-18l-99 2q-4 -4 -4 -6l2 -227q-82 0 -199 -18l2 245q0 6 -4 6h-133l-160 -2q0 39 9 60q33 41 139 179t219 278q8 4 60 11t61 7z
M766 606q385 672 389 677t27 4t28 -3q2 -4 2 -6q-14 -20 -396 -688t-410 -713q-2 -2 -11 -2q-27 33 -21 46t392 685zM393 1214q82 0 134 -48q53 -48 53 -128t-119 -143q-6 -2 -2 -6q92 -29 139 -74t47 -121q0 -121 -137 -205q-96 -57 -220 -57t-146 58q-23 58 -23 116
q2 6 12 9t14 1q33 -80 89 -110t110 -29q115 0 115 137q0 80 -46 129t-120 50q-14 0 -39 -2q-2 6 9 25t18 24q87 22 115 44t28 74t-36 92q-36 42 -98 42t-136 -66q-4 0 -10 7t-7 14q121 167 256 167z" />
    <glyph glyph-name="questiondown" unicode="&#xbf;" horiz-adv-x="630" 
d="M346 532q-53 0 -96 40t-43 102t37 104q41 41 103 41t101 -40t39 -98t-45 -110q-43 -39 -96 -39zM311 164q0 20 -17 55q-18 35 -36 55t-3 37q15 16 64 45t75 37t48 -6q37 -20 61 -57q23 -37 23 -75t-26 -54q-96 -58 -145 -86q-48 -29 -68 -43q-47 -31 -47 -82
q0 -125 239 -203q33 -12 47 -15q14 -4 24 -14t9 -28q0 -18 -32 -68q-31 -51 -55 -73t-56 -21q-113 0 -217 80q-137 102 -138 229q0 76 35 115q37 39 180 131q35 21 35 41z" />
    <glyph glyph-name="Agrave" unicode="&#xc0;" horiz-adv-x="1159" 
d="M660 1274q-6 0 -148 76t-172 94q-2 2 -2 14t5 22t57 46q52 37 73 39q8 -2 98 -112t115 -148q2 -3 -9 -17t-17 -14zM360 543q20 -2 95 -2h168q6 0 6 10q-90 294 -129 407h-8l-134 -405zM-74 12q0 16 2 19q104 14 141 38q36 25 89 153t173 460t163 461q16 59 22 90
q49 -4 92 -4t88 4q2 -10 25 -96q258 -779 304 -905t78 -156t130 -45q2 -3 0 -19t-4 -18l-275 6q-66 0 -292 -6q-8 25 0 37q82 18 96 24q31 12 20 43q-49 156 -119 346q-8 14 -22 16q-15 2 -103 1h-196q-14 0 -19 -19q-106 -299 -104 -325q4 -55 57 -68q78 -16 95 -18
q2 -3 0 -19t-7 -18l-233 6l-199 -6q-2 2 -2 18z" />
    <glyph glyph-name="Aacute" unicode="&#xc1;" horiz-adv-x="1159" 
d="M881 1474q0 -10 -9 -20t-166 -94t-164 -84t-16 9q-8 9 -8 20q34 45 124 145t108 109q18 0 69 -30t57 -38t5 -17zM360 543q20 -2 95 -2h168q6 0 6 10q-90 294 -129 407h-8l-134 -405zM-74 12q0 16 2 19q104 14 141 38q36 25 89 153t173 460t163 461q16 59 22 90
q49 -4 92 -4t88 4q2 -10 25 -96q258 -779 304 -905t78 -156t130 -45q2 -3 0 -19t-4 -18l-275 6q-66 0 -292 -6q-8 25 0 37q82 18 96 24q31 12 20 43q-49 156 -119 346q-8 14 -22 16q-15 2 -103 1h-196q-14 0 -19 -19q-106 -299 -104 -325q4 -55 57 -68q78 -16 95 -18
q2 -3 0 -19t-7 -18l-233 6l-199 -6q-2 2 -2 18z" />
    <glyph glyph-name="Acircumflex" unicode="&#xc2;" horiz-adv-x="1159" 
d="M595 1366q-5 0 -21 -9t-119 -57t-111 -47t-14 13t-4 16q236 198 250 216t34 18q20 -23 128 -115t147 -119q0 -6 -6 -17q-5 -11 -13 -11t-122 48t-129 56t-20 8zM360 543q20 -2 95 -2h168q6 0 6 10q-90 294 -129 407h-8l-134 -405zM-74 12q0 16 2 19q104 14 141 38
q36 25 89 153t173 460t163 461q16 59 22 90q49 -4 92 -4t88 4q2 -10 25 -96q258 -779 304 -905t78 -156t130 -45q2 -3 0 -19t-4 -18l-275 6q-66 0 -292 -6q-8 25 0 37q82 18 96 24q31 12 20 43q-49 156 -119 346q-8 14 -22 16q-15 2 -103 1h-196q-14 0 -19 -19
q-106 -299 -104 -325q4 -55 57 -68q78 -16 95 -18q2 -3 0 -19t-7 -18l-233 6l-199 -6q-2 2 -2 18z" />
    <glyph glyph-name="Atilde" unicode="&#xc3;" horiz-adv-x="1159" 
d="M754 1413q76 0 143 70q6 6 10 -10q6 -14 4 -23q-23 -43 -91 -92t-120 -49q-51 0 -135 24t-106 25q-55 0 -125 -60q-9 -4 -13 11q-4 16 -2 20q23 35 85 84t104 49t128 -24q87 -24 118 -25zM360 543q20 -2 95 -2h168q6 0 6 10q-90 294 -129 407h-8l-134 -405zM-74 12
q0 16 2 19q104 14 141 38q36 25 89 153t173 460t163 461q16 59 22 90q49 -4 92 -4t88 4q2 -10 25 -96q258 -779 304 -905t78 -156t130 -45q2 -3 0 -19t-4 -18l-275 6q-66 0 -292 -6q-8 25 0 37q82 18 96 24q31 12 20 43q-49 156 -119 346q-8 14 -22 16q-15 2 -103 1h-196
q-14 0 -19 -19q-106 -299 -104 -325q4 -55 57 -68q78 -16 95 -18q2 -3 0 -19t-7 -18l-233 6l-199 -6q-2 2 -2 18z" />
    <glyph glyph-name="Adieresis" unicode="&#xc4;" horiz-adv-x="1159" 
d="M868 1363q0 -42 -41 -77q-10 -6 -50 -9t-52 1q-41 25 -50 75t9 68q28 37 90 37t80 -24q14 -29 14 -71zM446 1458q64 0 78 -26t13 -69q0 -42 -41 -77q-10 -6 -50 -9t-51 1q-49 29 -55 76t10 67q32 37 96 37zM360 543q20 -2 95 -2h168q6 0 6 10q-90 294 -129 407h-8
l-134 -405zM-74 12q0 16 2 19q104 14 141 38q36 25 89 153t173 460t163 461q16 59 22 90q49 -4 92 -4t88 4q2 -10 25 -96q258 -779 304 -905t78 -156t130 -45q2 -3 0 -19t-4 -18l-275 6q-66 0 -292 -6q-8 25 0 37q82 18 96 24q31 12 20 43q-49 156 -119 346q-8 14 -22 16
q-15 2 -103 1h-196q-14 0 -19 -19q-106 -299 -104 -325q4 -55 57 -68q78 -16 95 -18q2 -3 0 -19t-7 -18l-233 6l-199 -6q-2 2 -2 18z" />
    <glyph glyph-name="Aring" unicode="&#xc5;" horiz-adv-x="1159" 
d="M606 1477q-100 0 -100 -74q0 -37 31 -56t71 -19t69 20q30 20 30 49q-1 80 -101 80zM451 1395q1 71 41 111t113 40t113 -40t40 -106t-43 -105q-43 -40 -105 -40t-110 35q-49 35 -49 105zM360 543q20 -2 95 -2h168q6 0 6 10q-90 294 -129 407h-8l-134 -405zM-74 12
q0 16 2 19q104 14 141 38q36 25 89 153t173 460t163 461q16 59 22 90q49 -4 92 -4t88 4q2 -10 25 -96q258 -779 304 -905t78 -156t130 -45q2 -3 0 -19t-4 -18l-275 6q-66 0 -292 -6q-8 25 0 37q82 18 96 24q31 12 20 43q-49 156 -119 346q-8 14 -22 16q-15 2 -103 1h-196
q-14 0 -19 -19q-106 -299 -104 -325q4 -55 57 -68q78 -16 95 -18q2 -3 0 -19t-7 -18l-233 6l-199 -6q-2 2 -2 18z" />
    <glyph glyph-name="AE" unicode="&#xc6;" horiz-adv-x="1628" 
d="M748 633q8 0 8 10q-7 277 -27 502h-12l-236 -500q0 -10 6 -10l117 -2h144zM1231 1229q188 0 256 16l6 -6q-23 -98 -39 -301q-4 -6 -20 -7t-21 7q-10 104 -49 174q-25 39 -63 45q-37 6 -153 6t-131 -3q-30 -6 -30 -34q5 -78 17 -256t16 -223q4 -14 12 -14q233 0 266 2
t59 21t50 130q2 4 18 4t19 -4q-12 -147 -12 -188l4 -195q-4 -6 -18 -7t-21 5q-14 68 -23 93q-18 55 -76 59q-37 4 -260 4q-10 0 -10 -14q18 -283 24 -361t18 -94q11 -16 40 -21t170 -5t195 62q54 63 102 187q6 4 20 1t17 -11q-2 -41 -29 -140t-47 -145q-12 -25 -111 -24
l-497 8l-334 -6q-6 2 -6 18t4 19q86 8 125 20q59 18 59 111q-4 201 -16 379q-4 10 -17 11t-141 1h-153q-14 0 -19 -12q-184 -377 -190 -411t3 -50q15 -26 152 -49q6 -5 3 -19t-9 -18l-252 6l-207 -6q-6 2 -6 18t6 19q72 12 102 21q76 23 132 126q111 199 279 537
q169 338 210 434q4 14 -6 20q-62 17 -164 31q-4 6 -2 20t9 17l350 -8h389z" />
    <glyph glyph-name="Ccedilla" unicode="&#xc7;" horiz-adv-x="1306" 
d="M856 35q154 0 230 74t139 198q6 0 18 -6t14 -12q-16 -63 -62 -157t-83 -124q-154 -43 -299 -45l-33 -49q66 -35 88 -51q52 -39 52 -109t-78 -127t-138 -57t-104 61q-2 7 1 19t7 14q70 -37 127 -37q78 0 78 68q0 76 -149 123q0 10 2 16q61 78 102 129q-328 10 -501 178
t-173 488q0 174 81 319q81 146 243 232t418 86q100 0 233 -14t150 -13q-23 -145 -19 -328q-4 -4 -22 -4t-19 4q-23 181 -123 243t-263 62t-268 -142t-105 -418t114 -448q115 -173 342 -173z" />
    <glyph glyph-name="Egrave" unicode="&#xc8;" horiz-adv-x="1083" 
d="M315 1478q0 12 5 22q5 9 58 46t73 39q8 -1 98 -111t115 -149q2 -2 -10 -16q-12 -15 -17 -15q-7 0 -149 76t-171 94q-2 2 -2 14zM0 13q0 15 2 18q100 10 135 20q55 16 59 120q4 103 5 477q0 374 -5 436t-19 76q-15 14 -37 22t-91 18q-2 6 -2 18t2 17l285 -6h375
q180 0 245 10q4 -4 4 -6q-23 -86 -34 -295q-6 -4 -20 -5t-17 1q-25 209 -112 220q-39 5 -149 6t-137 -3q-6 -2 -13 -14t-7 -19v-446q0 -14 10 -14q256 0 287 2q77 2 100 147q4 2 20 2t17 -2l-10 -186l6 -193q-2 -2 -18 -3t-19 1q-2 12 -18 76q-20 63 -80 72q-35 4 -283 4
q-12 0 -12 -17v-422q0 -61 43 -67q66 -10 188 -10t153 9q89 25 177 245q18 6 35 -11q-4 -35 -31 -143t-47 -148q-9 -18 -29 -24t-84 -6l-538 10l-334 -6q-2 4 -2 19z" />
    <glyph glyph-name="Eacute" unicode="&#xc9;" horiz-adv-x="1083" 
d="M846 1498q0 -9 -2 -11q-16 -19 -173 -103t-164 -84t-15 10t-9 19q35 45 125 145t107 109q18 0 69 -30q50 -30 56 -38t6 -17zM0 13q0 15 2 18q100 10 135 20q55 16 59 120q4 103 5 477q0 374 -5 436t-19 76q-15 14 -37 22t-91 18q-2 6 -2 18t2 17l285 -6h375q180 0 245 10
q4 -4 4 -6q-23 -86 -34 -295q-6 -4 -20 -5t-17 1q-25 209 -112 220q-39 5 -149 6t-137 -3q-6 -2 -13 -14t-7 -19v-446q0 -14 10 -14q256 0 287 2q77 2 100 147q4 2 20 2t17 -2l-10 -186l6 -193q-2 -2 -18 -3t-19 1q-2 12 -18 76q-20 63 -80 72q-35 4 -283 4q-12 0 -12 -17
v-422q0 -61 43 -67q66 -10 188 -10t153 9q89 25 177 245q18 6 35 -11q-4 -35 -31 -143t-47 -148q-9 -18 -29 -24t-84 -6l-538 10l-334 -6q-2 4 -2 19z" />
    <glyph glyph-name="Ecircumflex" unicode="&#xca;" horiz-adv-x="1083" 
d="M812 1305q-7 0 -121 48t-129 56t-20 8t-21 -9t-120 -56t-111 -47t-14 12q-6 12 -4 16q238 199 252 217t33 17q20 -23 128 -115t146 -119q0 -6 -6 -17t-13 -11zM0 13q0 15 2 18q100 10 135 20q55 16 59 120q4 103 5 477q0 374 -5 436t-19 76q-15 14 -37 22t-91 18
q-2 6 -2 18t2 17l285 -6h375q180 0 245 10q4 -4 4 -6q-23 -86 -34 -295q-6 -4 -20 -5t-17 1q-25 209 -112 220q-39 5 -149 6t-137 -3q-6 -2 -13 -14t-7 -19v-446q0 -14 10 -14q256 0 287 2q77 2 100 147q4 2 20 2t17 -2l-10 -186l6 -193q-2 -2 -18 -3t-19 1q-2 12 -18 76
q-20 63 -80 72q-35 4 -283 4q-12 0 -12 -17v-422q0 -61 43 -67q66 -10 188 -10t153 9q89 25 177 245q18 6 35 -11q-4 -35 -31 -143t-47 -148q-9 -18 -29 -24t-84 -6l-538 10l-334 -6q-2 4 -2 19z" />
    <glyph glyph-name="Edieresis" unicode="&#xcb;" horiz-adv-x="1083" 
d="M819 1410q0 -42 -41 -77q-10 -6 -50 -9t-52 1q-41 25 -50 75t9 68q29 37 90 37t80 -24q14 -29 14 -71zM398 1505q64 -1 76 -27q13 -26 13 -68t-41 -77q-10 -6 -50 -9t-50 1q-49 29 -55 76t10 67q33 37 97 37zM0 13q0 15 2 18q100 10 135 20q55 16 59 120q4 103 5 477
q0 374 -5 436t-19 76q-15 14 -37 22t-91 18q-2 6 -2 18t2 17l285 -6h375q180 0 245 10q4 -4 4 -6q-23 -86 -34 -295q-6 -4 -20 -5t-17 1q-25 209 -112 220q-39 5 -149 6t-137 -3q-6 -2 -13 -14t-7 -19v-446q0 -14 10 -14q256 0 287 2q77 2 100 147q4 2 20 2t17 -2l-10 -186
l6 -193q-2 -2 -18 -3t-19 1q-2 12 -18 76q-20 63 -80 72q-35 4 -283 4q-12 0 -12 -17v-422q0 -61 43 -67q66 -10 188 -10t153 9q89 25 177 245q18 6 35 -11q-4 -35 -31 -143t-47 -148q-9 -18 -29 -24t-84 -6l-538 10l-334 -6q-2 4 -2 19z" />
    <glyph glyph-name="Igrave" unicode="&#xcc;" horiz-adv-x="671" 
d="M402 1284q-6 0 -149 76q-142 76 -171 94q-2 4 -2 16t5 20t57 46q52 37 73 39q8 -2 98 -112t115 -148q2 -3 -9 -17t-17 -14zM203 630q0 372 -5 454t-53 98q-33 10 -94 18q-4 4 -4 18t4 17l285 -6l276 6q4 -4 4 -17t-4 -18q-117 -18 -130 -54q-7 -20 -10 -80
q-3 -62 -3 -450t3 -444t9 -78q10 -41 58 -49q27 -6 88 -14q4 -3 3 -19t-5 -18l-275 6l-299 -6q-4 2 -5 17t5 20q55 6 88 15t45 31q12 21 16 101t3 452z" />
    <glyph glyph-name="Iacute" unicode="&#xcd;" horiz-adv-x="671" 
d="M633 1487q0 -8 -2 -10q-16 -19 -173 -103t-164 -84t-15 9t-9 20q34 45 124 145t108 109q18 0 69 -30t57 -39t5 -17zM203 630q0 372 -5 454t-53 98q-33 10 -94 18q-4 4 -4 18t4 17l285 -6l276 6q4 -4 4 -17t-4 -18q-117 -18 -130 -54q-7 -20 -10 -80q-3 -62 -3 -450
t3 -444t9 -78q10 -41 58 -49q27 -6 88 -14q4 -3 3 -19t-5 -18l-275 6l-299 -6q-4 2 -5 17t5 20q55 6 88 15t45 31q12 21 16 101t3 452z" />
    <glyph glyph-name="Icircumflex" unicode="&#xce;" horiz-adv-x="671" 
d="M321 1405q-5 0 -21 -9q-16 -8 -120 -56t-111 -48t-13 12t-5 17q237 197 251 215t34 18q20 -22 128 -114t146 -119q0 -6 -6 -17q-6 -12 -13 -12t-121 48t-129 56t-20 9zM203 630q0 372 -5 454t-53 98q-33 10 -94 18q-4 4 -4 18t4 17l285 -6l276 6q4 -4 4 -17t-4 -18
q-117 -18 -130 -54q-7 -20 -10 -80q-3 -62 -3 -450t3 -444t9 -78q10 -41 58 -49q27 -6 88 -14q4 -3 3 -19t-5 -18l-275 6l-299 -6q-4 2 -5 17t5 20q55 6 88 15t45 31q12 21 16 101t3 452z" />
    <glyph glyph-name="Idieresis" unicode="&#xcf;" horiz-adv-x="671" 
d="M594 1410q0 -42 -41 -77q-10 -6 -50 -9t-52 1q-41 25 -52 72q-8 53 11 71q29 37 90 37t80 -24q14 -29 14 -71zM172 1505q62 -1 76 -27t14 -68t-41 -77q-10 -6 -50 -9t-50 1q-49 29 -55 76t10 67q33 37 96 37zM203 630q0 372 -5 454t-53 98q-33 10 -94 18q-4 4 -4 18t4 17
l285 -6l276 6q4 -4 4 -17t-4 -18q-117 -18 -130 -54q-7 -20 -10 -80q-3 -62 -3 -450t3 -444t9 -78q10 -41 58 -49q27 -6 88 -14q4 -3 3 -19t-5 -18l-275 6l-299 -6q-4 2 -5 17t5 20q55 6 88 15t45 31q12 21 16 101t3 452z" />
    <glyph glyph-name="Eth" unicode="&#xd0;" horiz-adv-x="1417" 
d="M696 39q126 0 209 113q123 168 123 458q0 158 -55 298q-109 278 -412 278q-59 0 -73 -10t-17 -35q-2 -47 -2 -473h178l103 2q0 -33 -9 -54l-272 2q0 -374 8 -456q0 -35 27 -62q66 -61 192 -61zM47 614q0 41 14 56h142q0 311 -8 432q-4 54 -40 70t-124 28q-2 4 0 18t4 17
q123 -6 284 -6l388 8q428 0 565 -333q51 -126 51 -265q0 -295 -174 -465q-199 -188 -563 -188l-508 8h-55q-2 2 -3 18q0 16 3 19q90 8 120 18q41 12 51 89t9 480q-147 -4 -156 -4z" />
    <glyph glyph-name="Ntilde" unicode="&#xd1;" horiz-adv-x="1343" 
d="M874 1444q76 0 144 69q6 6 10 -10q6 -14 4 -22q-24 -43 -92 -92t-119 -49t-143 28q-76 20 -98 21q-55 0 -125 -60q-4 -2 -12 9t-3 22q23 35 85 84q61 49 103 49q42 -1 128 -25t118 -24zM4 13q0 15 4 18q88 12 114 20t40 32t22 81q23 180 23 868q0 45 -23 87t-59 57
q-64 20 -111 24q-2 4 -2 18t4 17q40 2 144 -2t168 -4t94 4q8 -25 67 -103q342 -463 619 -802q2 0 2 1t4 321t-7 396q-11 74 -29 98q-30 39 -177 56q-2 4 -2 18t4 17l254 -6l201 6q4 -4 4 -17t-4 -18q-70 -12 -80 -16q-43 -14 -58 -43q-14 -29 -24 -151t-14 -724l2 -274
q-92 4 -178 -2q-45 70 -369 504t-352 475q-8 8 -9 -2q-4 -168 -3 -451t5 -345t25 -89t59 -34t115 -17q4 -5 4 -19t-4 -18l-229 6l-240 -6q-4 4 -4 19z" />
    <glyph glyph-name="Ograve" unicode="&#xd2;" horiz-adv-x="1501" 
d="M811 1329q-6 0 -148 76t-171 94q-2 5 -2 17t2 14q8 14 60 51t73 39q8 -2 98 -112t115 -148q2 -2 -10 -16t-17 -15zM798 18q114 0 180 72t98 203t32 285t-45 310t-135 240t-200 84t-177 -57q-158 -127 -158 -469q0 -170 48 -333q47 -163 145 -249t212 -86zM745 -37
q-307 0 -481 187q-86 92 -128 218t-42 248q0 231 115 390q190 260 549 260q307 0 478 -180t171 -442q0 -263 -121 -423q-181 -258 -541 -258z" />
    <glyph glyph-name="Oacute" unicode="&#xd3;" horiz-adv-x="1501" 
d="M1001 1524q0 -8 -9 -18t-166 -95q-157 -84 -164 -84t-15 9t-8 20q35 46 124 146t107 108q18 0 70 -30t56 -39q5 -9 5 -17zM798 18q114 0 180 72t98 203t32 285t-45 310t-135 240t-200 84t-177 -57q-158 -127 -158 -469q0 -170 48 -333q47 -163 145 -249t212 -86zM745 -37
q-307 0 -481 187q-86 92 -128 218t-42 248q0 231 115 390q190 260 549 260q307 0 478 -180t171 -442q0 -263 -121 -423q-181 -258 -541 -258z" />
    <glyph glyph-name="Ocircumflex" unicode="&#xd4;" horiz-adv-x="1501" 
d="M1005 1311q-7 0 -121 48t-130 56t-20 8t-20 -9t-120 -56t-112 -47t-13 12q-6 12 -4 16q237 199 251 217t34 17q20 -23 128 -115t146 -119q0 -6 -6 -17t-13 -11zM798 18q114 0 180 72t98 203t32 285t-45 310t-135 240t-200 84t-177 -57q-158 -127 -158 -469
q0 -170 48 -333q47 -163 145 -249t212 -86zM745 -37q-307 0 -481 187q-86 92 -128 218t-42 248q0 231 115 390q190 260 549 260q307 0 478 -180t171 -442q0 -263 -121 -423q-181 -258 -541 -258z" />
    <glyph glyph-name="Otilde" unicode="&#xd5;" horiz-adv-x="1501" 
d="M893 1470q76 0 143 70q6 6 12 -9t3 -24q-23 -43 -92 -92t-119 -49t-144 29q-76 20 -98 20q-55 0 -125 -59q-4 -2 -12 9t-2 21q23 35 85 84q62 50 103 50t128 -25t118 -25zM798 18q114 0 180 72t98 203t32 285t-45 310t-135 240t-200 84t-177 -57q-158 -127 -158 -469
q0 -170 48 -333q47 -163 145 -249t212 -86zM745 -37q-307 0 -481 187q-86 92 -128 218t-42 248q0 231 115 390q190 260 549 260q307 0 478 -180t171 -442q0 -263 -121 -423q-181 -258 -541 -258z" />
    <glyph glyph-name="Odieresis" unicode="&#xd6;" horiz-adv-x="1501" 
d="M930 1528q78 0 78 -84q0 -53 -41 -88q-11 -6 -51 -9t-52 1q-41 24 -50 74t9 69q29 37 107 37zM586 1528q64 0 76 -26q14 -26 14 -69q0 -42 -41 -77q-10 -6 -50 -9t-50 1q-49 30 -55 76t9 67q33 37 97 37zM798 18q114 0 180 72t98 203t32 285t-45 310t-135 240t-200 84
t-177 -57q-158 -127 -158 -469q0 -170 48 -333q47 -163 145 -249t212 -86zM745 -37q-307 0 -481 187q-86 92 -128 218t-42 248q0 231 115 390q190 260 549 260q307 0 478 -180t171 -442q0 -263 -121 -423q-181 -258 -541 -258z" />
    <glyph glyph-name="multiply" unicode="&#xd7;" horiz-adv-x="942" 
d="M743 809q10 14 113 22q14 -6 6 -18q-92 -121 -325 -379v-12q250 -281 313 -334q0 -12 -4 -16q-16 -4 -70 3t-78 25t-233 244q-8 8 -12 2q-201 -227 -240 -256q-39 -25 -121 -24q-14 4 -8 18q24 18 146 152t159 176q6 10 0 16q-219 240 -295 334q0 10 23 42t33 42
q8 4 16 0q8 -16 126 -154t177 -200q149 163 274 317z" />
    <glyph glyph-name="Oslash" unicode="&#xd8;" horiz-adv-x="1501" 
d="M811 16q194 0 269 278q36 134 36 271q0 254 -82 420l-547 -766q111 -203 324 -203zM387 686q0 -240 76 -414l549 768q-51 80 -118 126t-171 47t-172 -56q-164 -131 -164 -471zM758 1266q203 0 356 -86l82 116q4 4 24 1t29 -7v-6l-92 -131q250 -186 250 -520
q0 -252 -121 -412q-180 -258 -541 -258q-214 0 -374 98l-99 -137q-6 -6 -45 19v8l101 139q-106 80 -170 223q-63 143 -64 303q0 231 115 390q190 260 549 260z" />
    <glyph glyph-name="Ugrave" unicode="&#xd9;" horiz-adv-x="1351" 
d="M481 1474q0 12 5 22q6 9 58 46t72 39q8 -2 98 -112t115 -148q2 -2 -9 -16q-11 -15 -17 -15q-7 0 -149 76t-171 94q-2 2 -2 14zM1368 1218q0 -13 -4 -18q-70 -14 -74 -16q-41 -12 -55 -39t-17 -79q-4 -52 -6 -154q-2 -101 -5 -224t-5 -172q-8 -291 -137 -422t-373 -131
q-444 0 -502 354q-18 115 -18 371v393q0 90 -70 105q-51 10 -82 14q-2 4 -2 18t5 17l280 -6l299 6q4 -2 4 -16t-4 -19q-16 -2 -81 -13t-68 -104q-2 -47 -2 -548q0 -154 20 -240q53 -229 331 -229t310 315q27 246 6 666q-2 73 -22 101q-30 42 -158 52q-4 4 -4 18t4 17l211 -6
l215 6q4 -4 4 -17z" />
    <glyph glyph-name="Uacute" unicode="&#xda;" horiz-adv-x="1351" 
d="M1044 1498q0 -9 -2 -11q-16 -19 -173 -103t-164 -84t-15 10t-8 19q35 45 124 145t107 109q17 0 69 -30t57 -38t5 -17zM1368 1218q0 -13 -4 -18q-70 -14 -74 -16q-41 -12 -55 -39t-17 -79q-4 -52 -6 -154q-2 -101 -5 -224t-5 -172q-8 -291 -137 -422t-373 -131
q-444 0 -502 354q-18 115 -18 371v393q0 90 -70 105q-51 10 -82 14q-2 4 -2 18t5 17l280 -6l299 6q4 -2 4 -16t-4 -19q-16 -2 -81 -13t-68 -104q-2 -47 -2 -548q0 -154 20 -240q53 -229 331 -229t310 315q27 246 6 666q-2 73 -22 101q-30 42 -158 52q-4 4 -4 18t4 17l211 -6
l215 6q4 -4 4 -17z" />
    <glyph glyph-name="Ucircumflex" unicode="&#xdb;" horiz-adv-x="1351" 
d="M1023 1307q-7 0 -121 48t-129 56t-21 8t-21 -9t-119 -56t-111 -47t-14 12q-6 12 -4 16q237 199 251 217t34 17q20 -23 128 -115t146 -119q0 -6 -6 -17t-13 -11zM1368 1218q0 -13 -4 -18q-70 -14 -74 -16q-41 -12 -55 -39t-17 -79q-4 -52 -6 -154q-2 -101 -5 -224t-5 -172
q-8 -291 -137 -422t-373 -131q-444 0 -502 354q-18 115 -18 371v393q0 90 -70 105q-51 10 -82 14q-2 4 -2 18t5 17l280 -6l299 6q4 -2 4 -16t-4 -19q-16 -2 -81 -13t-68 -104q-2 -47 -2 -548q0 -154 20 -240q53 -229 331 -229t310 315q27 246 6 666q-2 73 -22 101
q-30 42 -158 52q-4 4 -4 18t4 17l211 -6l215 6q4 -4 4 -17z" />
    <glyph glyph-name="Udieresis" unicode="&#xdc;" horiz-adv-x="1351" 
d="M1022 1421q0 -42 -41 -78q-10 -6 -50 -9t-52 1q-41 25 -52 72q-8 53 11 72q29 37 90 37t80 -25q14 -28 14 -70zM600 1516q62 0 76 -26t14 -69q0 -42 -41 -78q-10 -6 -50 -9t-50 1q-49 29 -55 76t10 68q33 37 96 37zM1368 1218q0 -13 -4 -18q-70 -14 -74 -16
q-41 -12 -55 -39t-17 -79q-4 -52 -6 -154q-2 -101 -5 -224t-5 -172q-8 -291 -137 -422t-373 -131q-444 0 -502 354q-18 115 -18 371v393q0 90 -70 105q-51 10 -82 14q-2 4 -2 18t5 17l280 -6l299 6q4 -2 4 -16t-4 -19q-16 -2 -81 -13t-68 -104q-2 -47 -2 -548
q0 -154 20 -240q53 -229 331 -229t310 315q27 246 6 666q-2 73 -22 101q-30 42 -158 52q-4 4 -4 18t4 17l211 -6l215 6q4 -4 4 -17z" />
    <glyph glyph-name="Yacute" unicode="&#xdd;" horiz-adv-x="1105" 
d="M944 1494q0 -9 -2 -11q-16 -19 -173 -103t-164 -84t-15 10t-8 19q35 45 124 145t107 109q17 0 69 -30t57 -38t5 -17zM258 12q0 16 4 19q70 8 101 15q53 12 59 69q6 56 6 383q0 51 -22 98q-117 246 -212 402t-138 178q-15 8 -52 16t-51 8q-4 4 -4 18t4 17l276 -6
q176 0 281 6q4 -4 4 -17t-2 -18q-8 0 -70 -16q-39 -12 -20 -54q88 -193 242 -466q4 -4 10 0q47 78 119 221t93 199t12 71q-8 17 -36 25t-98 20q-2 6 0 20t4 15l213 -6l193 6q4 -2 4 -16t-4 -19q-53 -8 -72 -14q-82 -25 -148 -137q-170 -297 -237 -437q-23 -45 -23 -93
t6 -355q2 -51 16 -79t49 -37q36 -9 103 -17q2 -3 0 -19t-4 -18l-313 6l-289 -6q-4 2 -4 18z" />
    <glyph glyph-name="Thorn" unicode="&#xde;" horiz-adv-x="1126" 
d="M198 164q4 59 3 489q-1 429 -7 461q-12 59 -57 72q-45 12 -78 14q-4 4 -2 18t6 17q5 2 107 -3t160 -3l266 8q4 -4 4 -18t-4 -19q-63 -10 -87 -17t-30 -27t-10 -91v-90q0 -14 10 -14h4q98 4 166 4q195 0 283 -58q127 -89 127 -279t-160 -286q-109 -68 -227 -68t-150 15
q-4 6 -4 19t4 18q25 -4 74 -4t90 24q100 59 100 262q0 145 -65 225q-66 79 -182 78q-37 0 -53 -8t-16 -42q-1 -34 -1 -312q0 -277 6 -383t60 -117q35 -10 106 -18q4 -3 3 -19t-7 -18l-285 6l-305 -6q-4 4 -5 18t5 19q71 10 99 18t38 32t14 83z" />
    <glyph glyph-name="germandbls" unicode="&#xdf;" horiz-adv-x="1046" 
d="M139 129v576l-98 6q-2 8 2 26t8 21q57 10 90 33q0 326 205 487q131 102 265 102t215 -83t81 -186t-35 -138q-32 -43 -108 -113t-76 -86t35 -49t87 -77t73 -64q102 -98 102 -224q0 -215 -258 -354q-57 -31 -115 -31t-104 29q-8 41 6 131q0 12 8 12q111 -86 191 -86
q90 -1 90 107t-127 225q-144 126 -178 166q-8 11 -2 65t12 60q72 57 118 100q46 42 73 100q26 58 26 160t-58 190q-57 87 -143 87t-114 -124q-28 -123 -27 -393q0 -270 10 -679q1 -66 27 -77t67 -17q5 -3 5 -19t-5 -18l-256 6l-206 -6q-4 2 -5 18q0 16 5 19q91 4 106 41
q8 18 8 57z" />
    <glyph glyph-name="agrave" unicode="&#xe0;" horiz-adv-x="841" 
d="M385 1200q6 -8 45 -138t47 -165q-2 -6 -14 -12t-19 -4q-32 31 -120 139t-117 151q-4 8 6 19q18 8 87 11t85 -1zM475 310q0 90 -3 96t-12 2t-75 -24t-81 -36t-15 -84t41 -112t81 -46q40 0 51 12t12 56q1 45 1 136zM764 104q31 0 59 11q0 -37 -10 -54q-75 -86 -193 -86
t-139 68q-2 4 -8 31l-8 2q-125 -100 -201 -100t-127 47q-74 70 -74 198q1 19 13 57t22 54q23 14 171 58t190 63q16 7 17 27t1 28q0 63 -28 108q-45 74 -135 74t-119 -26q-6 -4 -36 -56t-30 -55q-6 -2 -23 10q-16 11 -16 19t18 56q17 48 23 52q74 53 163 92t132 39
q158 0 233 -119q47 -78 48 -213l-2 -294q0 -33 14 -62t45 -29z" />
    <glyph glyph-name="aacute" unicode="&#xe1;" horiz-adv-x="841" 
d="M438 1196q8 6 81 11t91 1q2 -2 4 -9t0 -9q-18 -41 -249 -303q-5 -4 -19 1t-14 13q43 129 106 295zM475 310q0 90 -3 96t-12 2t-75 -24t-81 -36t-15 -84t41 -112t81 -46q40 0 51 12t12 56q1 45 1 136zM764 104q31 0 59 11q0 -37 -10 -54q-75 -86 -193 -86t-139 68
q-2 4 -8 31l-8 2q-125 -100 -201 -100t-127 47q-74 70 -74 198q1 19 13 57t22 54q23 14 171 58t190 63q16 7 17 27t1 28q0 63 -28 108q-45 74 -135 74t-119 -26q-6 -4 -36 -56t-30 -55q-6 -2 -23 10q-16 11 -16 19t18 56q17 48 23 52q74 53 163 92t132 39q158 0 233 -119
q47 -78 48 -213l-2 -294q0 -33 14 -62t45 -29z" />
    <glyph glyph-name="acircumflex" unicode="&#xe2;" horiz-adv-x="841" 
d="M228 891q-23 0 -25 4q-3 3 15 29t84 141q67 115 85 158q3 6 21 12t26 6q86 -188 184 -319q-4 -8 -38 -20t-48 -11q-14 6 -61 76t-65 108q-7 4 -11 0q-82 -139 -113 -161t-54 -23zM475 310q0 90 -3 96t-12 2t-75 -24t-81 -36t-15 -84t41 -112t81 -46q40 0 51 12t12 56
q1 45 1 136zM764 104q31 0 59 11q0 -37 -10 -54q-75 -86 -193 -86t-139 68q-2 4 -8 31l-8 2q-125 -100 -201 -100t-127 47q-74 70 -74 198q1 19 13 57t22 54q23 14 171 58t190 63q16 7 17 27t1 28q0 63 -28 108q-45 74 -135 74t-119 -26q-6 -4 -36 -56t-30 -55q-6 -2 -23 10
q-16 11 -16 19t18 56q17 48 23 52q74 53 163 92t132 39q158 0 233 -119q47 -78 48 -213l-2 -294q0 -33 14 -62t45 -29z" />
    <glyph glyph-name="atilde" unicode="&#xe3;" horiz-adv-x="841" 
d="M532 1085q76 0 132 60q4 4 9 -4t-3 -33q-20 -43 -80 -91t-112 -48t-122 21q-70 22 -112 22q-43 0 -103 -56q-2 -2 -6 2t-4 21t10 27q17 36 73 78t101 42t117 -20t100 -21zM475 310q0 90 -3 96t-12 2t-75 -24t-81 -36t-15 -84t41 -112t81 -46q40 0 51 12t12 56q1 45 1 136
zM764 104q31 0 59 11q0 -37 -10 -54q-75 -86 -193 -86t-139 68q-2 4 -8 31l-8 2q-125 -100 -201 -100t-127 47q-74 70 -74 198q1 19 13 57t22 54q23 14 171 58t190 63q16 7 17 27t1 28q0 63 -28 108q-45 74 -135 74t-119 -26q-6 -4 -36 -56t-30 -55q-6 -2 -23 10
q-16 11 -16 19t18 56q17 48 23 52q74 53 163 92t132 39q158 0 233 -119q47 -78 48 -213l-2 -294q0 -33 14 -62t45 -29z" />
    <glyph glyph-name="adieresis" unicode="&#xe4;" horiz-adv-x="841" 
d="M678 1078q0 -48 -41 -79q-8 -8 -49 -11t-53 1q-43 29 -54 72q-4 55 11 76q12 12 48 24q91 30 126 -14q12 -21 12 -69zM346 1080q0 -46 -41 -81q-8 -8 -49 -11t-53 1q-49 31 -53 78t8 70q14 12 49 24q35 13 73 13t52 -27q14 -21 14 -67zM475 310q0 90 -3 96t-12 2t-75 -24
t-81 -36t-15 -84t41 -112t81 -46q40 0 51 12t12 56q1 45 1 136zM764 104q31 0 59 11q0 -37 -10 -54q-75 -86 -193 -86t-139 68q-2 4 -8 31l-8 2q-125 -100 -201 -100t-127 47q-74 70 -74 198q1 19 13 57t22 54q23 14 171 58t190 63q16 7 17 27t1 28q0 63 -28 108
q-45 74 -135 74t-119 -26q-6 -4 -36 -56t-30 -55q-6 -2 -23 10q-16 11 -16 19t18 56q17 48 23 52q74 53 163 92t132 39q158 0 233 -119q47 -78 48 -213l-2 -294q0 -33 14 -62t45 -29z" />
    <glyph glyph-name="aring" unicode="&#xe5;" horiz-adv-x="841" 
d="M408 1145q-39 0 -63 -23q-23 -24 -23 -58t26 -56t64 -21q36 0 62 22t26 52q0 84 -92 84zM414 1219q68 0 104 -44t37 -112q0 -68 -42 -110t-102 -42t-104 36q-43 36 -43 110t41 118t109 44zM475 310q0 90 -3 96t-12 2t-75 -24t-81 -36t-15 -84t41 -112t81 -46q40 0 51 12
t12 56q1 45 1 136zM764 104q31 0 59 11q0 -37 -10 -54q-75 -86 -193 -86t-139 68q-2 4 -8 31l-8 2q-125 -100 -201 -100t-127 47q-74 70 -74 198q1 19 13 57t22 54q23 14 171 58t190 63q16 7 17 27t1 28q0 63 -28 108q-45 74 -135 74t-119 -26q-6 -4 -36 -56t-30 -55
q-6 -2 -23 10q-16 11 -16 19t18 56q17 48 23 52q74 53 163 92t132 39q158 0 233 -119q47 -78 48 -213l-2 -294q0 -33 14 -62t45 -29z" />
    <glyph glyph-name="ae" unicode="&#xe6;" horiz-adv-x="1247" 
d="M804 756q-54 0 -85 -67t-21 -197q0 -10 11 -11q74 10 231 54q8 4 8 18q-6 83 -48 143t-96 60zM475 383q0 12 -14 6t-74 -21t-77 -33q-17 -17 -17 -80t43 -101t95 -39q52 0 91 26q6 4 4 11q-51 104 -51 231zM477 524q0 42 -20 78q-53 90 -154 90q-66 0 -102 -26
q-12 -8 -49 -82l-17 -29q-6 -2 -22 10q-17 11 -17 19t18 57q17 49 23 53q74 53 160 90t140 37q53 -1 113 -27t91 -71q141 98 252 98q175 0 250 -161q14 -30 20 -56q10 -16 33 -24q2 -6 0 -18t-8 -15q-313 -78 -471 -113q-10 0 -10 -20q4 -106 75 -195q80 -92 202 -92t216 86
q4 -4 10 -16t4 -17q-61 -92 -160 -148t-210 -57q-188 0 -291 134q-2 2 -5 2t-5 -2q-162 -130 -277 -134q-70 0 -134 61t-64 183q0 57 26 98q31 21 186 65q156 44 185 54q10 4 11 25t1 63z" />
    <glyph glyph-name="ccedilla" unicode="&#xe7;" horiz-adv-x="817" 
d="M590 -219q0 -76 -74 -130t-132 -54t-97 57q-6 18 8 33q63 -35 129 -35t65 63q0 74 -143 117q0 10 2 16q66 78 109 127h-17q-182 0 -286 127q-88 106 -88 289q0 103 50 197t142 145q55 35 141 62q168 53 312 2q57 -25 69 -56q8 -36 -33 -87q-41 -52 -56 -59t-23 -3
q-4 4 -46 53t-86 77q-44 29 -103 31q-59 1 -97 -67t-39 -198t69 -240q70 -111 208 -111t210 74q6 0 9 -6q3 -22 -7 -45q-115 -154 -282 -178l-43 -56q57 -32 93 -64t36 -81z" />
    <glyph glyph-name="egrave" unicode="&#xe8;" horiz-adv-x="851" 
d="M420 1210q6 -8 45 -138t47 -165q-2 -6 -14 -12t-19 -4q-31 31 -120 139t-117 152q-4 8 6 18q18 8 87 11t85 -1zM425 768q-54 0 -86 -70t-32 -188q1 -8 21 -9t104 2t109 9q8 4 8 18q-4 102 -37 170t-87 68zM587 141q132 0 216 76q8 -1 10 -17t-6 -32q-72 -86 -166 -139
t-192 -54q-170 0 -267 97q-117 117 -116 331q0 115 52 208t138 145q100 66 234 66t207 -88q73 -87 91 -197q4 -10 25 -19q2 -4 -1 -16t-7 -15q-37 -10 -490 -47q-8 0 -8 -18q4 -111 76 -196t204 -85z" />
    <glyph glyph-name="eacute" unicode="&#xe9;" horiz-adv-x="851" 
d="M489 1196q8 6 81 11t92 1q2 -2 4 -9t0 -9q-18 -41 -250 -303q-6 -4 -20 1t-13 13q43 129 106 295zM425 768q-54 0 -86 -70t-32 -188q1 -8 21 -9t104 2t109 9q8 4 8 18q-4 102 -37 170t-87 68zM587 141q132 0 216 76q8 -1 10 -17t-6 -32q-72 -86 -166 -139t-192 -54
q-170 0 -267 97q-117 117 -116 331q0 115 52 208t138 145q100 66 234 66t207 -88q73 -87 91 -197q4 -10 25 -19q2 -4 -1 -16t-7 -15q-37 -10 -490 -47q-8 0 -8 -18q4 -111 76 -196t204 -85z" />
    <glyph glyph-name="ecircumflex" unicode="&#xea;" horiz-adv-x="851" 
d="M260 891q-10 0 -6 10q33 49 99 164q67 115 85 158q2 6 20 12t27 6q86 -188 185 -319q-4 -8 -39 -20t-47 -11q-14 6 -62 76q-47 70 -65 108q-7 4 -11 0q-82 -139 -112 -161t-74 -23zM425 768q-54 0 -86 -70t-32 -188q1 -8 21 -9t104 2t109 9q8 4 8 18q-4 102 -37 170
t-87 68zM587 141q132 0 216 76q8 -1 10 -17t-6 -32q-72 -86 -166 -139t-192 -54q-170 0 -267 97q-117 117 -116 331q0 115 52 208t138 145q100 66 234 66t207 -88q73 -87 91 -197q4 -10 25 -19q2 -4 -1 -16t-7 -15q-37 -10 -490 -47q-8 0 -8 -18q4 -111 76 -196t204 -85z
" />
    <glyph glyph-name="edieresis" unicode="&#xeb;" horiz-adv-x="851" 
d="M709 1078q0 -48 -41 -79q-8 -8 -50 -11t-53 1q-43 29 -53 72q-4 55 10 76q12 12 48 24q36 13 71 13t51 -24t17 -72zM377 1080q0 -46 -41 -81q-8 -8 -49 -11t-54 1q-49 31 -53 78t8 70q14 12 50 24q100 34 124 -14q15 -21 15 -67zM425 768q-54 0 -86 -70t-32 -188
q1 -8 21 -9t104 2t109 9q8 4 8 18q-4 102 -37 170t-87 68zM587 141q132 0 216 76q8 -1 10 -17t-6 -32q-72 -86 -166 -139t-192 -54q-170 0 -267 97q-117 117 -116 331q0 115 52 208t138 145q100 66 234 66t207 -88q73 -87 91 -197q4 -10 25 -19q2 -4 -1 -16t-7 -15
q-37 -10 -490 -47q-8 0 -8 -18q4 -111 76 -196t204 -85z" />
    <glyph glyph-name="igrave" unicode="&#xec;" horiz-adv-x="520" 
d="M225 1200q6 -8 45 -138t47 -165q-2 -6 -14 -12t-18 -4q-31 31 -120 139t-118 151q-4 8 6 19q18 8 87 11t85 -1zM141 408q0 188 -4 224t-18 51t-60 36q-2 2 -2 17t2 18q43 0 155 22t179 53l-4 -346q0 -267 2 -333t10 -81q15 -28 97 -38q0 -31 -9 -37l-223 6l-231 -6
q-2 2 -3 18t1 19q39 4 69 14t35 93q4 82 4 270z" />
    <glyph glyph-name="iacute" unicode="&#xed;" horiz-adv-x="520" 
d="M299 1196q8 6 81 11t91 1q2 -2 4 -9t0 -9q-18 -41 -250 -303q-6 -4 -19 1t-13 13q43 129 106 295zM141 408q0 188 -4 224t-18 51t-60 36q-2 2 -2 17t2 18q43 0 155 22t179 53l-4 -346q0 -267 2 -333t10 -81q15 -28 97 -38q0 -31 -9 -37l-223 6l-231 -6q-2 2 -3 18t1 19
q39 4 69 14t35 93q4 82 4 270z" />
    <glyph glyph-name="icircumflex" unicode="&#xee;" horiz-adv-x="520" 
d="M59 891q-10 0 -6 10q33 49 100 164t85 158q2 6 20 12t27 6q86 -188 184 -319q-4 -8 -39 -20t-47 -11q-14 6 -61 76t-66 108q-6 4 -10 0q-82 -139 -113 -161t-74 -23zM141 408q0 188 -4 224t-18 51t-60 36q-2 2 -2 17t2 18q43 0 155 22t179 53l-4 -346q0 -267 2 -333
t10 -81q15 -28 97 -38q0 -31 -9 -37l-223 6l-231 -6q-2 2 -3 18t1 19q39 4 69 14t35 93q4 82 4 270z" />
    <glyph glyph-name="idieresis" unicode="&#xef;" horiz-adv-x="520" 
d="M518 1078q0 -48 -41 -79q-8 -8 -49 -11t-53 1q-43 29 -53 72q-4 55 10 76q12 12 48 24q91 30 126 -14q12 -21 12 -69zM186 1080q0 -46 -41 -81q-8 -8 -49 -11t-53 1q-49 31 -53 78t8 70q14 12 49 24q35 13 73 13t52 -27q14 -21 14 -67zM141 408q0 188 -4 224t-18 51
t-60 36q-2 2 -2 17t2 18q43 0 155 22t179 53l-4 -346q0 -267 2 -333t10 -81q15 -28 97 -38q0 -31 -9 -37l-223 6l-231 -6q-2 2 -3 18t1 19q39 4 69 14t35 93q4 82 4 270z" />
    <glyph glyph-name="eth" unicode="&#xf0;" horiz-adv-x="978" 
d="M909 507q0 -339 -223 -476q-86 -53 -223 -54q-201 0 -299 124t-98 298q0 225 172 342q113 80 268 80q57 0 106 -12q-23 115 -92 227l-221 -98q-4 0 -5 25t1 26l199 92q-133 193 -365 267q-2 2 4 17t10 17q103 -6 249 -72t257 -163l205 90q2 0 5 -11q3 -10 2 -24t-5 -16
l-168 -80q221 -260 221 -599zM520 23q66 0 104 99t38 277t-33 260q-51 117 -156 117q-59 0 -100 -82t-41 -261t52 -295t136 -115z" />
    <glyph glyph-name="ntilde" unicode="&#xf1;" horiz-adv-x="1032" 
d="M649 1085q76 0 131 60q4 4 9 -4t-3 -33q-20 -43 -80 -91t-112 -48t-120 21q-70 21 -99 22q-59 0 -117 -56q-2 -2 -6 2t-4 21t10 27q18 36 74 78t100 42q46 0 118 -20t99 -21zM555 13q0 15 2 18q71 10 80 28q8 17 12 61t4 218t-14 234q-25 110 -141 110q-47 0 -92 -27
q-16 -8 -17 -24q0 -425 3 -489t19 -84t87 -27q2 -5 1 -19t-3 -18q-228 6 -274 6t-181 -6q-10 17 -2 37q37 6 55 10q41 9 44 105t3 268t-3 200t-5 35t-22 27t-60 33q0 27 6 32q219 25 332 88q6 -6 6 -14q-6 -49 -6 -85t3 -37t5 1q156 127 260 127q133 0 199 -110
q45 -76 45 -234q0 -361 1 -379t13 -30q37 -31 89 -37q0 -29 -9 -37l-202 6q-27 0 -236 -6q-2 4 -2 19z" />
    <glyph glyph-name="ograve" unicode="&#xf2;" horiz-adv-x="999" 
d="M465 1200q6 -8 45 -138t47 -165q-2 -6 -14 -12t-19 -4q-31 31 -120 139t-117 151q-4 8 6 19q18 8 87 11t85 -1zM471 772q-135 0 -135 -315q0 -209 54 -322t140 -112q41 0 64 22q68 69 68 277t-50 329t-141 121zM512 821q194 1 308 -115t114 -300q0 -250 -189 -365
q-98 -66 -247 -66q-209 0 -321 122t-111 309q0 225 178 339q112 76 268 76z" />
    <glyph glyph-name="oacute" unicode="&#xf3;" horiz-adv-x="999" 
d="M528 1196q8 6 81 11t91 1q2 -2 4 -9t1 -9q-18 -41 -250 -303q-5 -4 -19 1t-14 13q43 129 106 295zM471 772q-135 0 -135 -315q0 -209 54 -322t140 -112q41 0 64 22q68 69 68 277t-50 329t-141 121zM512 821q194 1 308 -115t114 -300q0 -250 -189 -365q-98 -66 -247 -66
q-209 0 -321 122t-111 309q0 225 178 339q112 76 268 76z" />
    <glyph glyph-name="ocircumflex" unicode="&#xf4;" horiz-adv-x="999" 
d="M289 891q-10 0 -6 10q33 49 99 164q67 115 85 158q2 6 20 12t27 6q86 -188 184 -319q-4 -8 -39 -20t-47 -11q-14 6 -61 76t-66 108q-6 4 -10 0q-82 -139 -113 -161t-73 -23zM471 772q-135 0 -135 -315q0 -209 54 -322t140 -112q41 0 64 22q68 69 68 277t-50 329t-141 121
zM512 821q194 1 308 -115t114 -300q0 -250 -189 -365q-98 -66 -247 -66q-209 0 -321 122t-111 309q0 225 178 339q112 76 268 76z" />
    <glyph glyph-name="otilde" unicode="&#xf5;" horiz-adv-x="999" 
d="M633 1085q76 0 131 60q4 4 9 -4t-3 -33q-20 -43 -80 -91t-112 -48t-121 21q-69 22 -113 22t-102 -56q-2 -2 -6 2t-4 21t10 27q18 36 73 78t101 42t118 -20t99 -21zM471 772q-135 0 -135 -315q0 -209 54 -322t140 -112q41 0 64 22q68 69 68 277t-50 329t-141 121zM512 821
q194 1 308 -115t114 -300q0 -250 -189 -365q-98 -66 -247 -66q-209 0 -321 122t-111 309q0 225 178 339q112 76 268 76z" />
    <glyph glyph-name="odieresis" unicode="&#xf6;" horiz-adv-x="999" 
d="M758 1078q0 -48 -41 -79q-8 -8 -49 -11t-54 1q-43 29 -53 72q-4 55 10 76q12 12 49 24q94 31 122 -11q16 -24 16 -72zM426 1080q0 -46 -41 -81q-8 -8 -49 -11t-53 1q-49 31 -53 78t8 70q14 12 49 24q35 13 73 13t52 -24t14 -70zM471 772q-135 0 -135 -315q0 -209 54 -322
t140 -112q41 0 64 22q68 69 68 277t-50 329t-141 121zM512 821q194 1 308 -115t114 -300q0 -250 -189 -365q-98 -66 -247 -66q-209 0 -321 122t-111 309q0 225 178 339q112 76 268 76z" />
    <glyph glyph-name="divide" unicode="&#xf7;" horiz-adv-x="942" 
d="M475 281q55 1 67 -15t11 -59q0 -43 -31 -76q-6 -6 -44 -11t-54 3q-43 35 -43 74q-2 7 3 29t9 26q27 29 82 29zM293 502h575q6 -2 6 -14t-12 -46q-12 -32 -20 -34l-768 -5q-4 2 -2 28t22 73q8 -2 199 -2zM480 803q50 0 62 -15t11 -53q0 -38 -43 -86q-6 -6 -42 -10t-50 6
q-37 27 -37 72q-2 5 3 29t9 28q37 29 87 29z" />
    <glyph glyph-name="oslash" unicode="&#xf8;" horiz-adv-x="999" 
d="M486 772q-86 0 -122 -89t-36 -223t20 -222l273 424q-50 110 -135 110zM528 18q88 0 115 92t27 238t-29 252l-276 -426q52 -156 163 -156zM512 821q104 0 195 -39l55 90q2 2 18 -11t19 -17l-49 -84q184 -112 184 -358t-189 -361q-98 -66 -239 -66t-238 52l-59 -90
q-3 0 -19 13t-18 17l55 86q-161 119 -161 349t178 343q112 76 268 76z" />
    <glyph glyph-name="ugrave" unicode="&#xf9;" horiz-adv-x="999" 
d="M467 1200q6 -8 45 -138t47 -165q-2 -6 -14 -12t-19 -4q-32 31 -120 139t-117 151q-4 8 6 19q18 8 87 11t85 -1zM371 504q0 -250 10 -289q23 -92 127 -92q57 0 94 29q10 8 16 36q6 55 0 471q0 51 -30 61t-107 21q-4 23 4 35q215 0 387 29q-4 -86 -4 -232v-391
q4 -74 39 -76q29 -2 72 0q0 -31 -6 -38q-72 -29 -187 -63t-149 -34q-19 17 -19 93q-1 54 -10 45q-143 -131 -260 -132q-225 0 -225 250q0 371 -2 416t-8 60q-11 27 -93 36q-6 25 7 37q272 12 356 33q-12 -55 -12 -305z" />
    <glyph glyph-name="uacute" unicode="&#xfa;" horiz-adv-x="999" 
d="M541 1196q8 6 81 11t91 1q2 -2 4 -9t0 -9q-18 -41 -250 -303q-5 -4 -19 1t-14 13q44 129 107 295zM371 504q0 -250 10 -289q23 -92 127 -92q57 0 94 29q10 8 16 36q6 55 0 471q0 51 -30 61t-107 21q-4 23 4 35q215 0 387 29q-4 -86 -4 -232v-391q4 -74 39 -76q29 -2 72 0
q0 -31 -6 -38q-72 -29 -187 -63t-149 -34q-19 17 -19 93q-1 54 -10 45q-143 -131 -260 -132q-225 0 -225 250q0 371 -2 416t-8 60q-11 27 -93 36q-6 25 7 37q272 12 356 33q-12 -55 -12 -305z" />
    <glyph glyph-name="ucircumflex" unicode="&#xfb;" horiz-adv-x="999" 
d="M310 891q-23 0 -25 4q-3 3 15 29t84 141q67 115 85 158q2 6 20 12t27 6q86 -188 184 -319q-4 -8 -38 -20t-48 -11q-14 6 -61 76t-66 108q-6 4 -10 0q-82 -139 -113 -161t-54 -23zM371 504q0 -250 10 -289q23 -92 127 -92q57 0 94 29q10 8 16 36q6 55 0 471q0 51 -30 61
t-107 21q-4 23 4 35q215 0 387 29q-4 -86 -4 -232v-391q4 -74 39 -76q29 -2 72 0q0 -31 -6 -38q-72 -29 -187 -63t-149 -34q-19 17 -19 93q-1 54 -10 45q-143 -131 -260 -132q-225 0 -225 250q0 371 -2 416t-8 60q-11 27 -93 36q-6 25 7 37q272 12 356 33q-12 -55 -12 -305z
" />
    <glyph glyph-name="udieresis" unicode="&#xfc;" horiz-adv-x="999" 
d="M760 1078q0 -48 -41 -79q-8 -8 -49 -11t-54 1q-43 29 -53 72q-4 55 10 76q13 12 49 24q92 30 126 -14q12 -21 12 -69zM428 1080q0 -46 -41 -81q-8 -8 -49 -11t-53 1q-49 31 -53 78t8 70q14 12 49 24q35 13 73 13t52 -27q14 -21 14 -67zM371 504q0 -250 10 -289
q23 -92 127 -92q57 0 94 29q10 8 16 36q6 55 0 471q0 51 -30 61t-107 21q-4 23 4 35q215 0 387 29q-4 -86 -4 -232v-391q4 -74 39 -76q29 -2 72 0q0 -31 -6 -38q-72 -29 -187 -63t-149 -34q-19 17 -19 93q-1 54 -10 45q-143 -131 -260 -132q-225 0 -225 250q0 371 -2 416
t-8 60q-11 27 -93 36q-6 25 7 37q272 12 356 33q-12 -55 -12 -305z" />
    <glyph glyph-name="yacute" unicode="&#xfd;" horiz-adv-x="876" 
d="M549 1196q8 6 81 11t91 1q2 -2 4 -9t0 -9q-18 -41 -250 -303q-6 -4 -19 1t-14 13q44 129 107 295zM0 799l231 -6q51 0 218 6q8 -25 2 -37q-59 -14 -62 -17q-20 -10 -12 -38q39 -125 174 -428h6q41 88 85 223q44 134 45 158t2 36q2 28 -38 43q-41 14 -100 23q-2 4 1 19
t5 18l178 -6q63 0 180 6q3 -3 3 -17t-3 -20q-63 -10 -88 -27q-35 -27 -69 -121q-186 -500 -475 -1009q-24 -44 -72 -115l-12 -8q-86 18 -105 59q-2 3 -1 13t3 12q221 258 310 430q-43 86 -164 376t-143 326t-53 48t-54 16q-2 4 2 19t6 18z" />
    <glyph glyph-name="thorn" unicode="&#xfe;" horiz-adv-x="1003" 
d="M449 705q-8 0 -60 -11q-14 -4 -14 -26q-8 -356 6 -484q6 -57 35 -82q48 -47 112 -47q64 -1 111 61t47 236t-70 266q-61 87 -167 87zM489 -504q-281 0 -491 -24q-2 4 -2 20t2 21q63 14 85 23t29 31t11 66q6 171 5 833t-11 736q-6 43 -47 55q-16 4 -68 13q-4 16 2 35
q82 5 203 27t180 48q8 -8 8 -20q-23 -37 -22 -275v-348q0 -8 10 -4q176 88 252 88q133 0 218 -97t85 -259q0 -227 -172 -361q-56 -42 -162 -82t-182 -47l-47 -2q0 -279 4 -342t51 -77q37 -8 102 -17q2 -2 0 -20t-4 -21h-39z" />
    <glyph glyph-name="ydieresis" unicode="&#xff;" horiz-adv-x="876" 
d="M745 1078q0 -48 -40 -79q-7 -8 -49 -11t-54 1q-43 29 -53 72q-4 55 10 76q12 12 48 24q93 31 126 -14q12 -21 12 -69zM414 1080q0 -46 -41 -81q-8 -8 -49 -11t-54 1q-49 31 -53 78t8 70q14 12 49 24q100 34 125 -14q15 -21 15 -67zM0 799l231 -6q51 0 218 6q8 -25 2 -37
q-59 -14 -62 -17q-20 -10 -12 -38q39 -125 174 -428h6q41 88 85 223q44 134 45 158t2 36q2 28 -38 43q-41 14 -100 23q-2 4 1 19t5 18l178 -6q63 0 180 6q3 -3 3 -17t-3 -20q-63 -10 -88 -27q-35 -27 -69 -121q-186 -500 -475 -1009q-24 -44 -72 -115l-12 -8q-86 18 -105 59
q-2 3 -1 13t3 12q221 258 310 430q-43 86 -164 376t-143 326t-53 48t-54 16q-2 4 2 19t6 18z" />
    <glyph glyph-name="uni0100" unicode="&#x100;" horiz-adv-x="1159" 
d="M506 1442h348q0 -23 -15 -61t-22 -40q-43 -8 -379 -8l-80 4q2 15 16 59t19 50q41 -4 113 -4zM360 543q20 -2 95 -2h168q6 0 6 10q-90 294 -129 407h-8l-134 -405zM-74 12q0 16 2 19q104 14 141 38q36 25 89 153t173 460t163 461q16 59 22 90q49 -4 92 -4t88 4
q2 -10 25 -96q258 -779 304 -905t78 -156t130 -45q2 -3 0 -19t-4 -18l-275 6q-66 0 -292 -6q-8 25 0 37q82 18 96 24q31 12 20 43q-49 156 -119 346q-8 14 -22 16q-15 2 -103 1h-196q-14 0 -19 -19q-106 -299 -104 -325q4 -55 57 -68q78 -16 95 -18q2 -3 0 -19t-7 -18
l-233 6l-199 -6q-2 2 -2 18z" />
    <glyph glyph-name="uni0101" unicode="&#x101;" horiz-adv-x="841" 
d="M324 1106h321q0 -23 -12 -65t-19 -44q-29 -6 -221 -6t-200 4q2 17 14 63t16 52q37 -4 101 -4zM475 310q0 90 -3 96t-12 2t-75 -24t-81 -36t-15 -84t41 -112t81 -46q40 0 51 12t12 56q1 45 1 136zM764 104q31 0 59 11q0 -37 -10 -54q-75 -86 -193 -86t-139 68q-2 4 -8 31
l-8 2q-125 -100 -201 -100t-127 47q-74 70 -74 198q1 19 13 57t22 54q23 14 171 58t190 63q16 7 17 27t1 28q0 63 -28 108q-45 74 -135 74t-119 -26q-6 -4 -36 -56t-30 -55q-6 -2 -23 10q-16 11 -16 19t18 56q17 48 23 52q74 53 163 92t132 39q158 0 233 -119
q47 -78 48 -213l-2 -294q0 -33 14 -62t45 -29z" />
    <glyph glyph-name="uni0102" unicode="&#x102;" horiz-adv-x="1159" 
d="M649 1397q94 0 172 96q13 20 29 20t16 -4q-32 -94 -110 -153q-78 -60 -173 -60t-155 45q-59 45 -59 107q0 27 57 65q18 9 18 -2q27 -61 69 -87t136 -27zM360 543q20 -2 95 -2h168q6 0 6 10q-90 294 -129 407h-8l-134 -405zM-74 12q0 16 2 19q104 14 141 38q36 25 89 153
t173 460t163 461q16 59 22 90q49 -4 92 -4t88 4q2 -10 25 -96q258 -779 304 -905t78 -156t130 -45q2 -3 0 -19t-4 -18l-275 6q-66 0 -292 -6q-8 25 0 37q82 18 96 24q31 12 20 43q-49 156 -119 346q-8 14 -22 16q-15 2 -103 1h-196q-14 0 -19 -19q-106 -299 -104 -325
q4 -55 57 -68q78 -16 95 -18q2 -3 0 -19t-7 -18l-233 6l-199 -6q-2 2 -2 18z" />
    <glyph glyph-name="uni0103" unicode="&#x103;" horiz-adv-x="841" 
d="M455 1044q106 0 172 109q16 25 27 25t12 -7q-20 -97 -92 -165t-165 -68q-92 0 -148 43t-56 113q0 16 24 42q25 26 50 42q14 4 14 -2q27 -132 162 -132zM475 310q0 90 -3 96t-12 2t-75 -24t-81 -36t-15 -84t41 -112t81 -46q40 0 51 12t12 56q1 45 1 136zM764 104
q31 0 59 11q0 -37 -10 -54q-75 -86 -193 -86t-139 68q-2 4 -8 31l-8 2q-125 -100 -201 -100t-127 47q-74 70 -74 198q1 19 13 57t22 54q23 14 171 58t190 63q16 7 17 27t1 28q0 63 -28 108q-45 74 -135 74t-119 -26q-6 -4 -36 -56t-30 -55q-6 -2 -23 10q-16 11 -16 19t18 56
q17 48 23 52q74 53 163 92t132 39q158 0 233 -119q47 -78 48 -213l-2 -294q0 -33 14 -62t45 -29z" />
    <glyph glyph-name="uni0104" unicode="&#x104;" horiz-adv-x="1159" 
d="M360 543q20 -2 95 -2h168q6 0 6 10q-90 294 -129 407h-8l-134 -405zM866 -240q0 -40 25 -64t65 -24t103 33q12 -23 -4 -47q-39 -59 -99 -87t-113 -28q-54 0 -97 37q-42 37 -42 111q0 73 72 157t158 152q-57 0 -272 -6q-8 25 0 37q82 18 96 24q31 12 20 43
q-49 156 -119 346q-8 14 -22 16q-15 2 -103 1h-196q-14 0 -19 -19q-106 -299 -104 -325q4 -55 57 -68q78 -16 95 -18q2 -3 0 -19t-7 -18l-233 6l-199 -6q-2 2 -2 18t2 19q104 14 141 38q36 25 89 153t173 460t163 461q16 59 22 90q49 -4 92 -4t88 4q2 -10 25 -96
q258 -779 304 -905t78 -156t130 -45q2 -3 0 -19t-4 -18l-248 6q-115 -129 -115 -240z" />
    <glyph glyph-name="uni0105" unicode="&#x105;" horiz-adv-x="841" 
d="M475 310q0 90 -3 96t-12 2t-75 -24t-81 -36t-15 -84t41 -112t81 -46q40 0 51 12t12 56q1 45 1 136zM764 104q31 0 59 11q0 -37 -10 -54q-43 -47 -94 -65q-72 -50 -106 -114q-63 -118 -10 -171q55 -52 161 8q10 -23 -4 -45q-37 -57 -93 -83q-57 -25 -109 -25t-92 35
t-40 101t66 142t145 133q-133 -12 -156 66q-2 4 -8 31l-8 2q-125 -100 -201 -100t-127 47q-74 70 -74 198q1 19 13 57t22 54q23 14 171 58t190 63q16 7 17 27t1 28q0 63 -28 108q-45 74 -135 74t-119 -26q-6 -4 -36 -56t-30 -55q-6 -2 -23 10q-16 11 -16 19t18 56
q17 48 23 52q74 53 163 92t132 39q158 0 233 -119q47 -78 48 -213l-2 -294q0 -33 14 -62t45 -29z" />
    <glyph glyph-name="uni0106" unicode="&#x106;" horiz-adv-x="1306" 
d="M1061 1527q0 -9 -2 -11q-16 -18 -173 -102t-164 -85q-7 0 -15 9t-9 20q34 46 124 146t108 108q18 0 69 -30t57 -38t5 -17zM856 35q154 0 232 76t137 196q6 0 18 -6t14 -12q-16 -63 -62 -157t-83 -124q-150 -45 -309 -45q-342 0 -525 169t-184 497q0 174 81 319
q81 146 243 232t418 86q66 0 216 -14t179 -17q-35 -156 -39 -322q-6 -11 -23 -8q-18 4 -18 6q-12 97 -34 155q-56 150 -342 150q-167 0 -271 -142t-104 -418t114 -448q115 -173 342 -173z" />
    <glyph glyph-name="uni0107" unicode="&#x107;" horiz-adv-x="817" 
d="M528 1196q8 6 81 11t91 1q2 -2 4 -9t1 -9q-18 -41 -250 -303q-5 -4 -19 1t-14 13q43 129 106 295zM66 391q0 103 50 197t142 145q55 35 141 62q168 53 312 2q57 -25 69 -56q8 -36 -33 -87q-41 -52 -56 -59t-23 -3q-4 4 -46 53t-86 77q-44 29 -103 31q-59 1 -97 -67
t-39 -198t69 -240q70 -111 208 -111t210 74q6 0 9 -6q3 -22 -7 -45q-140 -184 -334 -184t-298 126q-88 106 -88 289z" />
    <glyph glyph-name="uni0108" unicode="&#x108;" horiz-adv-x="1306" 
d="M1044 1323q-7 0 -121 48q-113 49 -129 57t-22 8t-20 -9t-119 -57q-103 -48 -111 -47q-8 0 -14 12t-4 17q238 198 252 216t32 17q20 -23 128 -115t147 -118q0 -6 -6 -18t-13 -11zM856 35q154 0 232 76t137 196q6 0 18 -6t14 -12q-16 -63 -62 -157t-83 -124
q-150 -45 -309 -45q-342 0 -525 169t-184 497q0 174 81 319q81 146 243 232t418 86q66 0 216 -14t179 -17q-35 -156 -39 -322q-6 -11 -23 -8q-18 4 -18 6q-12 97 -34 155q-56 150 -342 150q-167 0 -271 -142t-104 -418t114 -448q115 -173 342 -173z" />
    <glyph glyph-name="uni0109" unicode="&#x109;" horiz-adv-x="817" 
d="M298 891q-23 0 -26 4q-2 3 16 29t84 141q67 115 85 158q2 6 20 12t27 6q86 -188 184 -319q-4 -8 -39 -20t-47 -11q-14 6 -61 76t-66 108q-6 4 -10 0q-82 -139 -113 -161t-54 -23zM66 391q0 103 50 197t142 145q55 35 141 62q168 53 312 2q57 -25 69 -56q8 -36 -33 -87
q-41 -52 -56 -59t-23 -3q-4 4 -46 53t-86 77q-44 29 -103 31q-59 1 -97 -67t-39 -198t69 -240q70 -111 208 -111t210 74q6 0 9 -6q3 -22 -7 -45q-140 -184 -334 -184t-298 126q-88 106 -88 289z" />
    <glyph glyph-name="uni010A" unicode="&#x10a;" horiz-adv-x="1306" 
d="M911 1449q0 -52 -45 -85q-14 -8 -61 -13t-57 1q-58 33 -66 86t22 85t117 31q35 0 74 -28q16 -25 16 -77zM856 35q154 0 232 76t137 196q6 0 18 -6t14 -12q-16 -63 -62 -157t-83 -124q-150 -45 -309 -45q-342 0 -525 169t-184 497q0 174 81 319q81 146 243 232t418 86
q66 0 216 -14t179 -17q-35 -156 -39 -322q-6 -11 -23 -8q-18 4 -18 6q-12 97 -34 155q-56 150 -342 150q-167 0 -271 -142t-104 -418t114 -448q115 -173 342 -173z" />
    <glyph glyph-name="uni010B" unicode="&#x10b;" horiz-adv-x="817" 
d="M612 1081q0 -54 -49 -92q-14 -8 -64 -13t-63 1q-59 33 -68 91t13 81q43 43 135 43q47 0 78 -31q18 -26 18 -80zM66 391q0 103 50 197t142 145q55 35 141 62q168 53 312 2q57 -25 69 -56q8 -36 -33 -87q-41 -52 -56 -59t-23 -3q-4 4 -46 53t-86 77q-44 29 -103 31
q-59 1 -97 -67t-39 -198t69 -240q70 -111 208 -111t210 74q6 0 9 -6q3 -22 -7 -45q-140 -184 -334 -184t-298 126q-88 106 -88 289z" />
    <glyph glyph-name="uni010C" unicode="&#x10c;" horiz-adv-x="1306" 
d="M517 1585q7 0 121 -48t129 -56t21 -8t21 9t119 56t111 47t13 -12t5 -17q-237 -198 -251 -216t-34 -17q-20 23 -128 115t-146 118q0 6 6 18t13 11zM856 35q154 0 232 76t137 196q6 0 18 -6t14 -12q-16 -63 -62 -157t-83 -124q-150 -45 -309 -45q-342 0 -525 169t-184 497
q0 174 81 319q81 146 243 232t418 86q66 0 216 -14t179 -17q-35 -156 -39 -322q-6 -11 -23 -8q-18 4 -18 6q-12 97 -34 155q-56 150 -342 150q-167 0 -271 -142t-104 -418t114 -448q115 -173 342 -173z" />
    <glyph glyph-name="uni010D" unicode="&#x10d;" horiz-adv-x="817" 
d="M664 1235q24 0 26 -4q2 -5 -14 -29t-84 -141t-86 -160q-2 -6 -20 -12t-27 -6q-88 195 -185 321q4 8 39 20t47 11q14 -6 62 -77t65 -109q7 -4 11 0q88 145 116 165q26 20 50 21zM66 391q0 103 50 197t142 145q55 35 141 62q168 53 312 2q57 -25 69 -56q8 -36 -33 -87
q-41 -52 -56 -59t-23 -3q-4 4 -46 53t-86 77q-44 29 -103 31q-59 1 -97 -67t-39 -198t69 -240q70 -111 208 -111t210 74q6 0 9 -6q3 -22 -7 -45q-140 -184 -334 -184t-298 126q-88 106 -88 289z" />
    <glyph glyph-name="uni010E" unicode="&#x10e;" horiz-adv-x="1417" 
d="M368 1575q8 0 120 -48q114 -49 130 -57t20 -8t20 9t120 57t112 47q8 0 13 -12q6 -12 4 -17q-237 -198 -251 -216t-33 -17q-20 23 -128 115t-147 118q0 6 6 18t14 11zM696 39q126 0 209 113q123 168 123 458q0 158 -55 298q-109 278 -412 278q-59 0 -73 -10t-17 -35
q-2 -49 -2 -472t8 -507q0 -35 27 -62q66 -61 192 -61zM203 599q0 380 -8 503q-4 54 -40 70t-124 28q-2 4 0 18t4 17q123 -6 284 -6l388 8q428 0 565 -333q51 -126 51 -265q0 -295 -174 -465q-199 -188 -563 -188l-508 8h-55q-2 2 -3 18q0 16 3 19q90 8 120 18q41 12 51 91
t9 459z" />
    <glyph glyph-name="uni010F" unicode="&#x10f;" horiz-adv-x="1015" 
d="M1124 1386q14 0 16 -38t-12 -166q-12 -127 -26 -185q-2 -10 -31 -41t-31 -10q0 152 -26 346q0 19 57 64q39 30 53 30zM563 117q74 0 74 39q8 285 -2 454q-3 68 -55 110t-109 42t-96 -49q-55 -67 -55 -227t67 -264q68 -104 176 -105zM993 98q0 -27 -8 -35
q-55 -29 -178 -63t-145 -35q-22 0 -21 17q-4 29 -4 102q0 8 -8 4q-68 -43 -145 -76t-124 -32q-127 0 -208 104q-86 104 -86 289q0 96 40 187t106 140t174 85t187 36h54q10 0 10 8q4 217 -6 359q-8 63 -41 78q-49 18 -94 22q-2 4 -1 18t5 17q88 0 215 18t184 39q2 -2 8 -18
q-18 -37 -20 -210q-2 -172 -2 -496t4 -418t12 -115q7 -21 27 -23t65 -2z" />
    <glyph glyph-name="uni0110" unicode="&#x110;" horiz-adv-x="1417" 
d="M696 39q126 0 209 113q123 168 123 458q0 158 -55 298q-109 278 -412 278q-59 0 -73 -10t-17 -35q-2 -47 -2 -473h178l103 2q0 -33 -9 -54l-272 2q0 -374 8 -456q0 -35 27 -62q66 -61 192 -61zM47 614q0 41 14 56h142q0 311 -8 432q-4 54 -40 70t-124 28q-2 4 0 18t4 17
q123 -6 284 -6l388 8q428 0 565 -333q51 -126 51 -265q0 -295 -174 -465q-199 -188 -563 -188l-508 8h-55q-2 2 -3 18q0 16 3 19q90 8 120 18q41 12 51 89t9 480q-147 -4 -156 -4z" />
    <glyph glyph-name="uni0111" unicode="&#x111;" horiz-adv-x="1042" 
d="M563 115q74 0 74 39q8 287 -2 456q-3 68 -55 110t-109 42t-96 -49q-55 -67 -55 -227t67 -266q68 -106 176 -105zM885 596q0 -467 15 -506q7 -18 27 -20t89 -2q0 -27 -8 -35q-56 -20 -184 -44t-156 -24t-27 17q-4 29 -4 102q0 8 -8 4q-68 -43 -145 -76t-124 -32
q-127 0 -208 104q-86 105 -86 289q0 96 40 187t106 140t174 85t187 36h54q10 0 10 8v191q-133 -2 -207 -2q0 39 16 55h191q0 76 -3 124t-44 67q-31 10 -94 24q-4 8 4 35q88 0 216 18t185 39q4 -2 8 -16q-23 -45 -24 -250v-43l133 2q0 -35 -8 -55l-125 2v-424z" />
    <glyph glyph-name="uni0112" unicode="&#x112;" horiz-adv-x="1083" 
d="M459 1475h348q0 -23 -15 -61t-22 -40q-43 -8 -379 -8l-80 4q3 16 17 60t18 49q41 -4 113 -4zM0 13q0 15 2 18q100 10 135 20q55 16 59 120q4 103 5 477q0 374 -5 436t-19 76q-15 14 -37 22t-91 18q-2 6 -2 18t2 17l285 -6h375q180 0 245 10q4 -4 4 -6q-23 -86 -34 -295
q-6 -4 -20 -5t-17 1q-25 209 -112 220q-39 5 -149 6t-137 -3q-6 -2 -13 -14t-7 -19v-446q0 -14 10 -14q256 0 287 2q77 2 100 147q4 2 20 2t17 -2l-10 -186l6 -193q-2 -2 -18 -3t-19 1q-2 12 -18 76q-20 63 -80 72q-35 4 -283 4q-12 0 -12 -17v-422q0 -61 43 -67
q66 -10 188 -10t153 9q89 25 177 245q18 6 35 -11q-4 -35 -31 -143t-47 -148q-9 -18 -29 -24t-84 -6l-538 10l-334 -6q-2 4 -2 19z" />
    <glyph glyph-name="uni0113" unicode="&#x113;" horiz-adv-x="851" 
d="M274 1110q37 -4 148 -4h274q0 -23 -12 -65t-18 -44q-30 -6 -222 -6t-200 4q2 17 14 63t16 52zM425 768q-54 0 -86 -70t-32 -188q1 -8 21 -9t104 2t109 9q8 4 8 18q-4 102 -37 170t-87 68zM587 141q132 0 216 76q8 -1 10 -17t-6 -32q-72 -86 -166 -139t-192 -54
q-170 0 -267 97q-117 117 -116 331q0 115 52 208t138 145q100 66 234 66t207 -88q73 -87 91 -197q4 -10 25 -19q2 -4 -1 -16t-7 -15q-37 -10 -490 -47q-8 0 -8 -18q4 -111 76 -196t204 -85z" />
    <glyph glyph-name="uni0114" unicode="&#x114;" horiz-adv-x="1083" 
d="M396 1536q7 0 7 -4q27 -61 69 -88t136 -27t172 96q14 21 30 21t15 -4q-31 -94 -109 -154q-79 -59 -174 -59t-155 45q-59 45 -59 106q0 27 57 66q4 2 11 2zM0 13q0 15 2 18q100 10 135 20q55 16 59 120q4 103 5 477q0 374 -5 436t-19 76q-15 14 -37 22t-91 18q-2 6 -2 18
t2 17l285 -6h375q180 0 245 10q4 -4 4 -6q-23 -86 -34 -295q-6 -4 -20 -5t-17 1q-25 209 -112 220q-39 5 -149 6t-137 -3q-6 -2 -13 -14t-7 -19v-446q0 -14 10 -14q256 0 287 2q77 2 100 147q4 2 20 2t17 -2l-10 -186l6 -193q-2 -2 -18 -3t-19 1q-2 12 -18 76q-20 63 -80 72
q-35 4 -283 4q-12 0 -12 -17v-422q0 -61 43 -67q66 -10 188 -10t153 9q89 25 177 245q18 6 35 -11q-4 -35 -31 -143t-47 -148q-9 -18 -29 -24t-84 -6l-538 10l-334 -6q-2 4 -2 19z" />
    <glyph glyph-name="uni0115" unicode="&#x115;" horiz-adv-x="851" 
d="M496 1044q106 0 172 109q16 25 27 25t12 -7q-21 -97 -93 -165t-164 -68t-148 43t-56 113q0 16 24 42q25 26 49 42q14 4 15 -2q27 -132 162 -132zM425 768q-54 0 -86 -70t-32 -188q1 -8 21 -9t104 2t109 9q8 4 8 18q-4 102 -37 170t-87 68zM587 141q132 0 216 76
q8 -1 10 -17t-6 -32q-72 -86 -166 -139t-192 -54q-170 0 -267 97q-117 117 -116 331q0 115 52 208t138 145q100 66 234 66t207 -88q73 -87 91 -197q4 -10 25 -19q2 -4 -1 -16t-7 -15q-37 -10 -490 -47q-8 0 -8 -18q4 -111 76 -196t204 -85z" />
    <glyph glyph-name="uni0116" unicode="&#x116;" horiz-adv-x="1083" 
d="M664 1419q0 -51 -46 -86q-14 -8 -61 -13t-57 1q-58 33 -66 86t22 85t117 32q35 0 74 -29q17 -25 17 -76zM0 13q0 15 2 18q100 10 135 20q55 16 59 120q4 103 5 477q0 374 -5 436t-19 76q-15 14 -37 22t-91 18q-2 6 -2 18t2 17l285 -6h375q180 0 245 10q4 -4 4 -6
q-23 -86 -34 -295q-6 -4 -20 -5t-17 1q-25 209 -112 220q-39 5 -149 6t-137 -3q-6 -2 -13 -14t-7 -19v-446q0 -14 10 -14q256 0 287 2q77 2 100 147q4 2 20 2t17 -2l-10 -186l6 -193q-2 -2 -18 -3t-19 1q-2 12 -18 76q-20 63 -80 72q-35 4 -283 4q-12 0 -12 -17v-422
q0 -61 43 -67q66 -10 188 -10t153 9q89 25 177 245q18 6 35 -11q-4 -35 -31 -143t-47 -148q-9 -18 -29 -24t-84 -6l-538 10l-334 -6q-2 4 -2 19z" />
    <glyph glyph-name="uni0117" unicode="&#x117;" horiz-adv-x="851" 
d="M573 1081q0 -54 -49 -92q-14 -8 -64 -13t-63 1q-59 33 -68 91t13 81q43 43 135 43q47 0 78 -31q18 -26 18 -80zM425 768q-54 0 -86 -70t-32 -188q1 -8 21 -9t104 2t109 9q8 4 8 18q-4 102 -37 170t-87 68zM587 141q132 0 216 76q8 -1 10 -17t-6 -32q-72 -86 -166 -139
t-192 -54q-170 0 -267 97q-117 117 -116 331q0 115 52 208t138 145q100 66 234 66t207 -88q73 -87 91 -197q4 -10 25 -19q2 -4 -1 -16t-7 -15q-37 -10 -490 -47q-8 0 -8 -18q4 -111 76 -196t204 -85z" />
    <glyph glyph-name="uni0118" unicode="&#x118;" horiz-adv-x="1083" 
d="M0 14q0 16 2 17q100 10 135 20q55 16 59 120q4 103 5 477q0 374 -5 436t-19 76q-15 14 -37 22t-91 18q-2 6 -2 18t2 17l285 -6h375q180 0 245 10q4 -4 4 -6q-23 -86 -34 -295q-6 -4 -20 -5t-17 1q-14 119 -42 166t-68 53q-41 6 -151 7t-137 -3q-6 -2 -13 -14t-7 -19v-446
q0 -14 10 -14q254 0 286 2t59 25t42 122q4 2 20 2t17 -2l-10 -186l6 -193q-2 -2 -18 -3t-19 1q-2 12 -20 84q-20 55 -80 64q-35 4 -281 4q-12 0 -12 -17v-422q0 -61 43 -67q66 -10 188 -10t153 9q89 25 177 245q18 6 35 -11q-4 -35 -31 -143t-42 -136q-15 -30 -31 -35
t-66 -7q-106 -129 -107 -230q0 -40 25 -64t66 -24t102 33q12 -23 -4 -47q-39 -59 -98 -87t-113 -28t-97 37q-42 37 -42 113q0 121 213 297l-504 10l-334 -6q-2 4 -2 20z" />
    <glyph glyph-name="uni0119" unicode="&#x119;" horiz-adv-x="851" 
d="M425 768q-54 0 -86 -70t-32 -188q1 -8 21 -9t104 2t109 9q8 4 8 18q-4 102 -37 170t-87 68zM479 -199q0 -41 25 -65q24 -24 66 -23q42 0 96 31q10 -23 -4 -45q-38 -57 -94 -83t-108 -26t-92 35t-40 99t54 133q54 68 128 125q-31 -6 -61 -7q-170 0 -267 97
q-117 117 -116 331q0 115 52 208t138 145q100 66 234 66t207 -88q73 -87 91 -197q4 -10 25 -19q2 -4 -1 -16t-7 -15q-37 -10 -490 -47q-8 0 -8 -18q4 -111 76 -196t204 -85t216 76q8 -1 10 -17t-6 -32q-96 -117 -219 -164q-109 -82 -109 -203z" />
    <glyph glyph-name="uni011A" unicode="&#x11a;" horiz-adv-x="1083" 
d="M288 1556q8 0 121 -48q114 -48 129 -56t21 -8q7 0 21 9t118 56t112 47t13 -12q6 -12 4 -16q-237 -198 -251 -216t-33 -18q-20 23 -128 115t-147 119q0 6 6 17t14 11zM0 13q0 15 2 18q100 10 135 20q55 16 59 120q4 103 5 477q0 374 -5 436t-19 76q-15 14 -37 22t-91 18
q-2 6 -2 18t2 17l285 -6h375q180 0 245 10q4 -4 4 -6q-23 -86 -34 -295q-6 -4 -20 -5t-17 1q-25 209 -112 220q-39 5 -149 6t-137 -3q-6 -2 -13 -14t-7 -19v-446q0 -14 10 -14q256 0 287 2q77 2 100 147q4 2 20 2t17 -2l-10 -186l6 -193q-2 -2 -18 -3t-19 1q-2 12 -18 76
q-20 63 -80 72q-35 4 -283 4q-12 0 -12 -17v-422q0 -61 43 -67q66 -10 188 -10t153 9q89 25 177 245q18 6 35 -11q-4 -35 -31 -143t-47 -148q-9 -18 -29 -24t-84 -6l-538 10l-334 -6q-2 4 -2 19z" />
    <glyph glyph-name="uni011B" unicode="&#x11b;" horiz-adv-x="851" 
d="M640 1235q24 0 26 -4q2 -5 -14 -29t-85 -141q-68 -117 -86 -160q-2 -6 -20 -12t-27 -6q-88 195 -184 321q4 8 39 20t47 11q14 -6 61 -77t66 -109q6 -4 10 0q88 145 116 165t51 21zM425 768q-54 0 -86 -70t-32 -188q1 -8 21 -9t104 2t109 9q8 4 8 18q-4 102 -37 170
t-87 68zM587 141q132 0 216 76q8 -1 10 -17t-6 -32q-72 -86 -166 -139t-192 -54q-170 0 -267 97q-117 117 -116 331q0 115 52 208t138 145q100 66 234 66t207 -88q73 -87 91 -197q4 -10 25 -19q2 -4 -1 -16t-7 -15q-37 -10 -490 -47q-8 0 -8 -18q4 -111 76 -196t204 -85z
" />
    <glyph glyph-name="uni011C" unicode="&#x11c;" horiz-adv-x="1378" 
d="M1046 1325q-7 0 -121 48q-113 49 -129 57t-21 8t-21 -9t-119 -57t-111 -47q-8 0 -14 12t-4 17q236 198 250 216t35 17q20 -23 128 -115t146 -118q0 -6 -6 -18t-13 -11zM1331 503q0 -15 -2 -20q-18 -4 -50 -14t-41 -34t-9 -155q0 -132 5 -160t40 -44q2 -2 0 -16t-4 -17
q-240 -80 -469 -80q-705 0 -705 660q0 203 95 353q185 290 667 290q121 0 247 -22t152 -23q-37 -147 -36 -320q-1 -6 -21 -7t-22 3q-18 178 -82 231q-100 86 -280 86t-297 -131q-118 -131 -118 -427t121 -470t314 -174q53 0 86 14t39 62q12 116 6 222q-5 106 -21 128
q-25 35 -162 43q-4 3 -4 19t4 20q33 2 145 -2t171 -4l229 6q2 -2 2 -17z" />
    <glyph glyph-name="uni011D" unicode="&#x11d;" horiz-adv-x="901" 
d="M265 891q-23 0 -25 4q-2 3 16 29t83 141q67 115 85 158q2 6 20 12t27 6q86 -188 184 -319q-4 -8 -39 -20t-47 -11q-14 6 -61 76t-66 108q-6 4 -10 0q-82 -139 -113 -161t-54 -23zM725 -305q0 182 -389 182q-43 0 -66 -16q-61 -41 -61 -119q-1 -78 69 -148t202 -69
q132 0 189 48q56 48 56 122zM442 256q101 0 101 225q-1 127 -33 210t-102 83q-100 0 -100 -177t36 -259q37 -82 98 -82zM289 214q0 3 -2 3q-219 61 -219 293q0 156 129 242q102 69 245 69q88 -1 182 -31t150 -30t81 7q26 7 38 21q13 14 21 11q8 -2 8 -14q0 -11 -16 -54
t-36 -62q-19 -19 -112 -12q-7 1 4 -21q12 -22 12 -99q0 -174 -125 -261q-98 -68 -241 -67q-40 0 -52 2t-25 -11t-14 -24q0 -53 72 -63q301 -35 338 -45q166 -51 166 -222q0 -117 -78 -211q-77 -94 -191 -147t-244 -53q-212 0 -307 140q-34 50 -34 101t12 80q20 18 185 127
v11q-63 27 -105 72q-41 46 -43 102q6 18 6 32q6 4 100 54q94 51 95 60z" />
    <glyph glyph-name="uni011E" unicode="&#x11e;" horiz-adv-x="1378" 
d="M827 1444q94 0 172 96q13 20 29 20t16 -4q-32 -94 -110 -153t-173 -59t-155 44q-60 46 -59 107q0 27 57 66q18 8 19 -2q27 -61 68 -89q42 -26 136 -26zM1331 503q0 -15 -2 -20q-18 -4 -50 -14t-41 -34t-9 -155q0 -132 5 -160t40 -44q2 -2 0 -16t-4 -17q-240 -80 -469 -80
q-705 0 -705 660q0 203 95 353q185 290 667 290q121 0 247 -22t152 -23q-37 -147 -36 -320q-1 -6 -21 -7t-22 3q-18 178 -82 231q-100 86 -280 86t-297 -131q-118 -131 -118 -427t121 -470t314 -174q53 0 86 14t39 62q12 116 6 222q-5 106 -21 128q-25 35 -162 43
q-4 3 -4 19t4 20q33 2 145 -2t171 -4l229 6q2 -2 2 -17z" />
    <glyph glyph-name="uni011F" unicode="&#x11f;" horiz-adv-x="901" 
d="M481 1044q106 0 172 109q15 25 27 25t12 -7q-20 -97 -92 -165t-164 -68t-148 43t-57 113q0 16 25 42t49 42q14 4 14 -2q27 -132 162 -132zM725 -305q0 182 -389 182q-43 0 -66 -16q-61 -41 -61 -119q-1 -78 69 -148t202 -69q132 0 189 48q56 48 56 122zM442 256
q101 0 101 225q-1 127 -33 210t-102 83q-100 0 -100 -177t36 -259q37 -82 98 -82zM289 214q0 3 -2 3q-219 61 -219 293q0 156 129 242q102 69 245 69q88 -1 182 -31t150 -30t81 7q26 7 38 21q13 14 21 11q8 -2 8 -14q0 -11 -16 -54t-36 -62q-19 -19 -112 -12q-7 1 4 -21
q12 -22 12 -99q0 -174 -125 -261q-98 -68 -241 -67q-40 0 -52 2t-25 -11t-14 -24q0 -53 72 -63q301 -35 338 -45q166 -51 166 -222q0 -117 -78 -211q-77 -94 -191 -147t-244 -53q-212 0 -307 140q-34 50 -34 101t12 80q20 18 185 127v11q-63 27 -105 72q-41 46 -43 102
q6 18 6 32q6 4 100 54q94 51 95 60z" />
    <glyph glyph-name="uni0120" unicode="&#x120;" horiz-adv-x="1378" 
d="M905 1449q0 -52 -45 -85q-14 -8 -61 -13t-58 1q-59 33 -63 82q-10 57 18 89t119 31q35 0 74 -28q16 -25 16 -77zM1331 503q0 -15 -2 -20q-18 -4 -50 -14t-41 -34t-9 -155q0 -132 5 -160t40 -44q2 -2 0 -16t-4 -17q-240 -80 -469 -80q-705 0 -705 660q0 203 95 353
q185 290 667 290q121 0 247 -22t152 -23q-37 -147 -36 -320q-1 -6 -21 -7t-22 3q-18 178 -82 231q-100 86 -280 86t-297 -131q-118 -131 -118 -427t121 -470t314 -174q53 0 86 14t39 62q12 116 6 222q-5 106 -21 128q-25 35 -162 43q-4 3 -4 19t4 20q33 2 145 -2t171 -4
l229 6q2 -2 2 -17z" />
    <glyph glyph-name="uni0121" unicode="&#x121;" horiz-adv-x="901" 
d="M580 1081q0 -54 -50 -92q-14 -8 -64 -13t-63 1q-59 33 -68 91t13 81q43 43 135 43q47 0 78 -31q19 -26 19 -80zM725 -305q0 182 -389 182q-43 0 -66 -16q-61 -41 -61 -119q-1 -78 69 -148t202 -69q132 0 189 48q56 48 56 122zM442 256q101 0 101 225q-1 127 -33 210
t-102 83q-100 0 -100 -177t36 -259q37 -82 98 -82zM289 214q0 3 -2 3q-219 61 -219 293q0 156 129 242q102 69 245 69q88 -1 182 -31t150 -30t81 7q26 7 38 21q13 14 21 11q8 -2 8 -14q0 -11 -16 -54t-36 -62q-19 -19 -112 -12q-7 1 4 -21q12 -22 12 -99q0 -174 -125 -261
q-98 -68 -241 -67q-40 0 -52 2t-25 -11t-14 -24q0 -53 72 -63q301 -35 338 -45q166 -51 166 -222q0 -117 -78 -211q-77 -94 -191 -147t-244 -53q-212 0 -307 140q-34 50 -34 101t12 80q20 18 185 127v11q-63 27 -105 72q-41 46 -43 102q6 18 6 32q6 4 100 54q94 51 95 60z
" />
    <glyph glyph-name="uni0122" unicode="&#x122;" horiz-adv-x="1378" 
d="M799 -96q31 0 63 -37t33 -98q0 -170 -246 -254q-2 0 -8 14t-6 18q81 37 109 72t28 80q0 72 -113 113q-2 2 -2 11t2 13q17 18 63 43t77 25zM1331 503q0 -15 -2 -20q-18 -4 -50 -14t-41 -34t-9 -155q0 -132 5 -160t40 -44q2 -2 0 -16t-4 -17q-240 -80 -469 -80
q-705 0 -705 660q0 203 95 353q185 290 667 290q121 0 247 -22t152 -23q-37 -147 -36 -320q-1 -6 -21 -7t-22 3q-18 178 -82 231q-100 86 -280 86t-297 -131q-118 -131 -118 -427t121 -470t314 -174q53 0 86 14t39 62q12 116 6 222q-5 106 -21 128q-25 35 -162 43
q-4 3 -4 19t4 20q33 2 145 -2t171 -4l229 6q2 -2 2 -17z" />
    <glyph glyph-name="uni0123" unicode="&#x123;" horiz-adv-x="901" 
d="M725 -305q0 182 -389 182q-43 0 -66 -16q-61 -41 -61 -119q-1 -78 69 -148t202 -69q132 0 189 48q56 48 56 122zM442 256q101 0 101 225q-1 127 -33 210t-102 83q-100 0 -100 -177t36 -259q37 -82 98 -82zM289 214q0 3 -2 3q-219 61 -219 293q0 156 129 242
q102 69 245 69q88 -1 182 -31t150 -30t81 7q26 7 38 21q13 14 21 11q8 -2 8 -14q0 -11 -16 -54t-36 -62q-19 -19 -112 -12q-7 1 4 -21q12 -22 12 -99q0 -174 -125 -261q-98 -68 -241 -67q-40 0 -52 2t-25 -11t-14 -24q0 -53 72 -63q301 -35 338 -45q166 -51 166 -222
q0 -117 -78 -211q-77 -94 -191 -147t-244 -53q-212 0 -307 140q-34 50 -34 101t12 80q20 18 185 127v11q-63 27 -105 72q-41 46 -43 102q6 18 6 32q6 4 100 54q94 51 95 60zM423 918q-32 0 -64 43q-31 43 -31 115t58 131q58 60 159 89q18 -8 14 -34q-139 -57 -139 -138
q0 -68 129 -102q4 -2 4 -10t-4 -11q-18 -27 -56 -55t-70 -28z" />
    <glyph glyph-name="uni0124" unicode="&#x124;" horiz-adv-x="1468" 
d="M1009 1309q-7 0 -121 48t-130 56t-20 8t-20 -9t-120 -56t-112 -47t-13 12q-6 12 -4 16q237 199 251 217t34 17q20 -23 128 -115t146 -119q0 -6 -6 -17t-13 -11zM45 10q0 16 2 21q41 4 81 11t54 35t18 98t5 461q0 390 -3 444q-2 54 -16 74t-44 28t-93 16q-2 6 -2 20t2 17
l289 -6l274 6q4 -7 2 -21t-6 -16q-68 -10 -88 -17t-32 -30q-11 -23 -13 -80t-2 -373q0 -10 10 -14q37 -4 253 -4t253 2q10 0 10 14q0 340 -5 408t-47 80q-42 10 -89 14q-4 4 -5 18t5 19l293 -6l260 6q2 -4 2 -18t-4 -19q-8 -2 -55 -8t-62 -27q-16 -20 -18 -61
q-6 -142 -6 -496t4 -428t12 -96q8 -23 31 -31t115 -20q2 -3 -2 -19t-5 -18l-270 6l-295 -6q-4 4 -4 18t4 19q105 10 121 40q16 29 18 109t2 400q0 16 -12 16q-43 2 -270 1t-235 -5t-9 -12q0 -299 2 -386t13 -113q10 -26 52 -35t89 -15q2 -3 -1 -19t-5 -18l-287 6l-287 -6
q-4 0 -4 16z" />
    <glyph glyph-name="uni0125" unicode="&#x125;" horiz-adv-x="1019" 
d="M131 631q0 515 -10 588q-8 29 -35 43q-17 6 -72 14q-2 6 -2 18t2 17q227 12 373 69q10 -10 8 -22q-20 -37 -20 -197v-440q0 -14 8 -6q143 106 258 106q248 0 248 -327v-394q-1 -31 19 -45t79 -24q4 -3 2 -19t-6 -18l-225 6q-59 0 -213 -6q-4 4 -4 18t4 19q39 8 59 15
q20 8 25 24q6 16 8 59q10 395 -7 449q-16 54 -58 85q-42 29 -94 29t-91 -18q-12 -6 -12 -23q0 -489 6 -531t16 -57t80 -32q10 -14 0 -37l-223 6l-229 -6q-10 14 0 37q41 6 63 14q20 9 28 29q16 42 15 557zM-33 1378q-8 0 -13 10t-3 19q47 31 149 105t125 98q4 2 25 6
q24 -23 136 -105t153 -106q1 -29 -13 -27t-138 48t-144 59q-10 4 -29 -5q-19 -10 -129 -56t-119 -46z" />
    <glyph glyph-name="Hbar" unicode="&#x126;" horiz-adv-x="1468" 
d="M41 12q0 18 6 19q41 4 81 11t54 35t18 98t5 403v258h-131q0 39 16 55h115q0 137 -3 190q-4 53 -16 73t-41 26q-29 8 -96 16q-6 4 -4 19t6 20l287 -6l274 6q4 -4 2 -18t-6 -17q-68 -12 -88 -18t-32 -29q-11 -23 -13 -80t-2 -182h526q0 186 -4 234q-4 47 -47 59t-90 16
q-4 4 -4 18t4 17l293 -6l262 6q4 -2 3 -17t-7 -18q-8 -2 -56 -9t-63 -26q-16 -21 -19 -77t-3 -197h137q0 -33 -8 -53h-129v-301q0 -409 12 -443t35 -43q23 -8 117 -20q4 -5 1 -19t-10 -18l-270 6l-295 -6q-8 4 -7 18t7 19q37 4 75 11t50 31q23 46 16 466q0 16 -12 16
q-43 2 -270 1t-236 -3q-8 0 -8 -12q0 -261 2 -371t50 -122t104 -17q4 -3 2 -19t-8 -18l-287 6l-287 -6q-8 0 -8 18zM999 838h-526v-187q4 -8 10 -14q37 -4 235 -4t271 4q10 0 10 14v187z" />
    <glyph glyph-name="hbar" unicode="&#x127;" horiz-adv-x="1019" 
d="M127 1073q0 41 -4 107t-34 80q-30 12 -75 16q-8 12 0 35q86 3 198 25t175 44q12 -6 8 -22q-20 -41 -20 -244v-43l235 2q0 -35 -8 -55l-227 2v-299q0 -14 8 -6q143 106 258 106q248 0 248 -327v-394q0 -27 8 -34q25 -23 90 -35q4 -3 2 -19t-6 -18l-225 6q-59 0 -213 -6
q-4 4 -4 18t4 19q39 8 59 15q20 8 25 24q6 16 8 59q10 391 -7 449q-16 58 -58 86t-94 28t-91 -18q-12 -6 -12 -23q0 -489 6 -531t16 -57t80 -32q10 -14 0 -37l-223 6l-229 -6q-10 14 0 37q41 6 63 14q20 7 26 27q16 50 17 458l-2 490l-106 -2q0 39 16 55h88z" />
    <glyph glyph-name="uni0128" unicode="&#x128;" horiz-adv-x="671" 
d="M479 1438q76 0 144 69q6 6 10 -10q6 -14 4 -22q-23 -43 -91 -93q-69 -49 -120 -49t-143 29q-76 20 -99 20q-55 0 -125 -59q-4 -2 -11 8t-3 23q23 35 85 84t104 49q42 -1 128 -25t117 -24zM203 630q0 372 -5 454t-53 98q-33 10 -94 18q-4 4 -4 18t4 17l285 -6l276 6
q4 -4 4 -17t-4 -18q-117 -18 -130 -54q-7 -20 -10 -80q-3 -62 -3 -450t3 -444t9 -78q10 -41 58 -49q27 -6 88 -14q4 -3 3 -19t-5 -18l-275 6l-299 -6q-4 2 -5 17t5 20q55 6 88 15t45 31q12 21 16 101t3 452z" />
    <glyph glyph-name="uni0129" unicode="&#x129;" horiz-adv-x="520" 
d="M393 1085q76 0 131 60q4 4 9 -4t-3 -33q-20 -43 -80 -91t-112 -48t-120 21q-70 22 -113 22t-103 -56q-2 -2 -6 2t-4 21t10 27q18 36 74 78t100 42q46 0 118 -20t99 -21zM141 408q0 188 -4 224t-18 51t-60 36q-2 2 -2 17t2 18q43 0 155 22t179 53l-4 -346q0 -267 2 -333
t10 -81q15 -28 97 -38q0 -31 -9 -37l-223 6l-231 -6q-2 2 -3 18t1 19q39 4 69 14t35 93q4 82 4 270z" />
    <glyph glyph-name="uni012A" unicode="&#x12a;" horiz-adv-x="671" 
d="M233 1462h349q0 -22 -16 -60t-21 -40q-43 -8 -379 -8l-80 4q2 16 16 59q15 43 19 49q41 -4 112 -4zM203 630q0 372 -5 454t-53 98q-33 10 -94 18q-4 4 -4 18t4 17l285 -6l276 6q4 -4 4 -17t-4 -18q-117 -18 -130 -54q-7 -20 -10 -80q-3 -62 -3 -450t3 -444t9 -78
q10 -41 58 -49q27 -6 88 -14q4 -3 3 -19t-5 -18l-275 6l-299 -6q-4 2 -5 17t5 20q55 6 88 15t45 31q12 21 16 101t3 452z" />
    <glyph glyph-name="uni012B" unicode="&#x12b;" horiz-adv-x="520" 
d="M164 1106h321q0 -23 -12 -65t-18 -44q-29 -6 -221 -6t-201 4q2 17 14 63t16 52q37 -4 101 -4zM141 408q0 188 -4 224t-18 51t-60 36q-2 2 -2 17t2 18q43 0 155 22t179 53l-4 -346q0 -267 2 -333t10 -81q15 -28 97 -38q0 -31 -9 -37l-223 6l-231 -6q-2 2 -3 18t1 19
q39 4 69 14t35 93q4 82 4 270z" />
    <glyph glyph-name="uni012C" unicode="&#x12c;" horiz-adv-x="671" 
d="M375 1411q94 0 172 96q13 21 29 21t16 -4q-31 -94 -110 -154t-174 -59q-95 0 -154 45t-60 106q0 27 58 66q18 8 18 -2q27 -61 69 -88t136 -27zM203 630q0 372 -5 454t-53 98q-33 10 -94 18q-4 4 -4 18t4 17l285 -6l276 6q4 -4 4 -17t-4 -18q-117 -18 -130 -54
q-7 -20 -10 -80q-3 -62 -3 -450t3 -444t9 -78q10 -41 58 -49q27 -6 88 -14q4 -3 3 -19t-5 -18l-275 6l-299 -6q-4 2 -5 17t5 20q55 6 88 15t45 31q12 21 16 101t3 452z" />
    <glyph glyph-name="uni012D" unicode="&#x12d;" horiz-adv-x="520" 
d="M287 1044q106 0 172 109q15 25 27 25t12 -7q-20 -97 -92 -165t-164 -68t-149 43q-56 43 -56 113q0 16 24 42q25 26 50 42q14 4 14 -2q27 -132 162 -132zM141 408q0 188 -4 224t-18 51t-60 36q-2 2 -2 17t2 18q43 0 155 22t179 53l-4 -346q0 -267 2 -333t10 -81
q15 -28 97 -38q0 -31 -9 -37l-223 6l-231 -6q-2 2 -3 18t1 19q39 4 69 14t35 93q4 82 4 270z" />
    <glyph glyph-name="uni012E" unicode="&#x12e;" horiz-adv-x="671" 
d="M412 -328q41 0 102 33q12 -23 -4 -47q-38 -59 -98 -87t-114 -28t-96 37t-42 113q0 115 198 307l-307 -6q-4 2 -5 17t5 20q55 6 88 15t45 31q12 21 16 101t3 452q0 372 -5 454t-53 98q-33 10 -94 18q-4 4 -4 18t4 17l285 -6l276 6q4 -4 4 -17t-4 -18q-117 -18 -130 -54
q-7 -20 -10 -80q-3 -62 -3 -450t3 -444t9 -78q10 -41 58 -49q27 -6 88 -14q4 -3 3 -19t-5 -18l-217 6q-92 -131 -93 -233q0 -41 28 -68t69 -27z" />
    <glyph glyph-name="uni012F" unicode="&#x12f;" horiz-adv-x="520" 
d="M389 1084q0 -56 -49 -93q-16 -10 -64 -16t-73 2q-43 17 -53 81t12 95q14 13 55 25t86 12t70 -25q16 -25 16 -81zM250 -223q0 -39 24 -64q54 -55 162 6q10 -23 -4 -45q-37 -56 -93 -82t-108 -26t-93 35q-40 35 -40 101t64 152t135 146l-262 -6q-2 2 -3 18t1 19q39 4 69 14
t35 93q4 82 4 270t-4 224t-18 51t-60 36q-2 2 -2 17t2 18q43 0 155 22t179 53l-4 -346q0 -267 2 -333t10 -81q15 -28 97 -38q0 -31 -9 -37l-155 6q-84 -121 -84 -223z" />
    <glyph glyph-name="uni0130" unicode="&#x130;" horiz-adv-x="671" 
d="M451 1424q0 -51 -45 -87q-14 -8 -62 -13t-57 1q-59 33 -67 86t22 85q29 32 118 32q35 0 74 -29q17 -24 17 -75zM203 630q0 372 -5 454t-53 98q-33 10 -94 18q-4 4 -4 18t4 17l285 -6l276 6q4 -4 4 -17t-4 -18q-117 -18 -130 -54q-7 -20 -10 -80q-3 -62 -3 -450t3 -444
t9 -78q10 -41 58 -49q27 -6 88 -14q4 -3 3 -19t-5 -18l-275 6l-299 -6q-4 2 -5 17t5 20q55 6 88 15t45 31q12 21 16 101t3 452z" />
    <glyph glyph-name="dotlessi" unicode="&#x131;" horiz-adv-x="520" 
d="M141 408q0 188 -4 224t-18 51t-60 36q-2 2 -2 17t2 18q43 0 155 22t179 53l-4 -346q0 -267 2 -333t10 -81q15 -28 97 -38q0 -31 -9 -37l-223 6l-231 -6q-2 2 -3 18t1 19q39 4 69 14t35 93q4 82 4 270z" />
    <glyph glyph-name="IJ" unicode="&#x132;" horiz-adv-x="1314" 
d="M1284 1218q0 -13 -2 -18q-53 -8 -77 -19q-44 -19 -44 -97q0 -640 -11 -844q-11 -203 -97 -355q-88 -147 -197 -226t-208 -79t-132 45v35q16 80 53 147q63 -47 131 -77t100 -31q32 0 52 22q29 37 33 249t2 665q-2 454 -11 478q-1 3 -3 14q-1 11 -3 15t-9 16
q-15 30 -138 42q-4 4 -4 18t4 17l305 -6l254 6q2 -4 2 -17zM203 630q0 372 -5 454t-53 98q-33 10 -94 18q-4 4 -4 18t4 17l285 -6l276 6q4 -4 4 -17t-4 -18q-117 -18 -130 -54q-7 -20 -10 -80q-3 -62 -3 -450t3 -444t9 -78q10 -41 58 -49q27 -6 88 -14q4 -3 3 -19t-5 -18
l-275 6l-299 -6q-4 2 -5 17t5 20q55 6 88 15t45 31q12 21 16 101t3 452z" />
    <glyph glyph-name="ij" unicode="&#x133;" horiz-adv-x="1044" 
d="M664 -127q0 696 -4 750q-4 55 -34 73q-28 18 -77 25q-4 6 -4 21t4 20q223 10 373 67q0 -447 -4 -650t-25 -298q-35 -155 -145 -273t-195 -149q-20 4 -31 19q-4 10 0 14q82 37 112 115t30 266zM905 1092q0 -62 -49 -97q-8 -6 -61 -16t-66 -4q-73 39 -67 125q2 27 13 41
t57 31q46 18 97 18t62 -19q14 -17 14 -79zM141 408q0 188 -4 224t-18 51t-60 36q-2 2 -2 17t2 18q43 0 155 22t179 53l-4 -346q0 -267 2 -333t13 -87t88 -32q0 -31 -9 -37l-217 6l-231 -6q-2 2 -3 18t1 19q39 4 69 14t35 93q4 82 4 270zM389 1084q0 -56 -49 -93
q-16 -10 -64 -16t-73 2q-43 17 -53 81t12 95q14 13 55 25t86 12t70 -25q16 -25 16 -81z" />
    <glyph glyph-name="uni0134" unicode="&#x134;" horiz-adv-x="643" 
d="M591 1315q-7 0 -121 48t-129 56t-20 8t-21 -9t-120 -56t-111 -47t-14 12q-6 12 -4 16q237 199 251 217t34 17q20 -23 128 -115t146 -119q0 -6 -6 -17t-13 -11zM612 1218q0 -13 -2 -18q-52 -8 -76 -19t-34 -35t-10 -62t-3 -374q-2 -335 -10 -472q-10 -201 -96 -353
q-88 -147 -197 -226t-208 -79t-132 45v35q16 80 54 147q63 -47 131 -77q67 -30 99 -31q32 0 52 22q29 37 33 249t2 665q-2 454 -11 478q-1 3 -2 14t-3 15t-8 15q-6 12 -37 25q-42 12 -103 18q-4 4 -4 18t4 17l305 -6l254 6q2 -4 2 -17z" />
    <glyph glyph-name="uni0135" unicode="&#x135;" horiz-adv-x="524" 
d="M55 897q-10 0 -6 10q33 49 99 164q67 115 85 158q3 6 21 12t27 6q86 -188 184 -319q-4 -8 -39 -20t-47 -11q-14 6 -62 76q-47 70 -65 108q-6 4 -10 0q-82 -139 -113 -161t-74 -23zM25 742q0 15 4 20q222 10 372 67q0 -447 -4 -650t-24 -298q-35 -155 -146 -273t-194 -149
q-11 1 -19 9t-12 10q-4 10 0 14q82 37 112 115t29 266q0 696 -4 750q-5 55 -33 73t-77 25q-4 6 -4 21z" />
    <glyph glyph-name="uni0136" unicode="&#x136;" horiz-adv-x="1306" 
d="M737 -47q31 0 64 -37t33 -98q0 -170 -246 -254q-2 0 -8 14t-7 19q80 37 109 71t29 80q0 72 -113 113q-2 2 -2 11t2 13q16 18 62 43t77 25zM1243 1218q0 -13 -2 -18q-10 -2 -64 -11t-70 -23q-17 -13 -42 -30t-161 -176t-204 -235v-6q66 -119 222 -313t260 -302
q49 -45 82 -56t92 -17q2 -5 2 -19t-4 -18q-82 -10 -219 -4t-192 24t-139 118q-84 98 -304 425q-10 16 -27 29q0 23 6 22q164 100 357 361q92 125 92 160t-35 47q-49 16 -117 24q-2 4 -2 18t2 17l211 -6q129 2 254 6q2 -4 2 -17zM606 1219q0 -14 -4 -19q-49 -6 -78 -14
q-53 -14 -57 -120t-4 -449q0 -344 4 -472q2 -92 63 -104q39 -8 58 -10q20 -2 28 -4q2 -5 0 -19t-6 -16q-238 8 -270 8q-220 -8 -289 -8q-4 4 -4 16t4 17q53 8 84 14q61 14 64 131q6 207 4 384t-2 330t-2 187q-4 93 -45 107t-95 22q-6 4 -5 18t5 17l283 -6l260 6q4 -2 4 -16z
" />
    <glyph glyph-name="uni0137" unicode="&#x137;" horiz-adv-x="962" 
d="M541 -76q31 0 63 -37t33 -98q0 -170 -246 -254q-2 0 -8 14t-6 19q81 37 109 72t28 79q0 72 -113 113q-2 2 -2 11t2 14q17 19 63 43t77 24zM27 13q0 15 2 18q41 6 67 16q26 9 31 73q4 64 3 550t-5 537t-38 61t-62 14q-2 6 -2 18t2 17q221 10 358 63q12 -6 12 -20
q-14 -37 -17 -201t-3 -741q70 11 217 186q63 76 63 102t-32 33q-62 17 -99 17q-2 6 0 20t4 17q168 -6 371 14q2 -4 2 -17t-2 -20q-100 -20 -151 -72q-115 -115 -175 -186v-8q27 -57 145 -218t160 -199t62 -45t70 -11q2 -3 0 -19t-4 -18q-35 -4 -148 -7q-114 -3 -162 0
t-98 62t-178 273q-33 51 -45 61q2 -197 4 -249t13 -69t42 -23t55 -11q6 -17 -4 -37l-247 6l-209 -6q-2 4 -2 19z" />
    <glyph glyph-name="uni0138" unicode="&#x138;" horiz-adv-x="952" 
d="M551 760q0 18 4 20q115 -2 348 11q2 -5 2 -21t-2 -18q-69 -10 -101 -26t-65 -50q-102 -113 -149 -170q-4 -4 0 -12q236 -360 301 -420q31 -29 119 -43q2 -5 1 -19t-5 -18q-29 -6 -287 -6q-49 0 -69 10t-59 64q-38 54 -169 278q-12 18 -35 22q0 -268 14 -292
q13 -23 39 -29t60 -10q6 -3 6 -17t-6 -20l-230 6l-235 -6q-6 4 -5 18t5 19q27 2 59 10q45 14 45 86q4 467 -2 539q-8 43 -35 55q-4 2 -65 18q-2 5 -1 17t5 14q190 0 354 41q-2 -20 -8 -158v-254q80 31 180 149q101 118 101 144t-20 36q-20 9 -91 15q-4 -1 -4 17z" />
    <glyph glyph-name="uni0139" unicode="&#x139;" horiz-adv-x="1067" 
d="M633 1490q0 -9 -2 -11q-16 -19 -173 -103t-164 -84t-15 10t-9 19q34 45 124 145t108 109q18 0 69 -30t57 -38t5 -17zM33 12q0 16 4 19q82 10 102 16q45 12 54 92q10 113 10 496q0 447 -7 490t-47 55q-41 12 -96 20q-2 4 -2 18t4 17l271 -6q109 0 280 6q4 -4 4 -17t-4 -18
q-68 -12 -92 -20t-31 -28q-8 -20 -12 -67l-4 -409q-4 -406 6 -531q4 -57 39 -63q102 -14 248 -10q61 0 104 41t89 113t73 141q4 4 20 1t17 -10q-8 -53 -46 -178t-65 -164q-14 -25 -149 -24l-473 8l-293 -6q-4 2 -4 18z" />
    <glyph glyph-name="uni013A" unicode="&#x13a;" horiz-adv-x="507" 
d="M518 1596q0 -10 -2 -11q-16 -18 -173 -102t-164 -84t-15 9t-8 19q35 45 124 145t107 109q17 1 69 -29t57 -38t5 -18zM25 12q0 14 4 19q41 6 61 15t30 36t11 521q0 494 -8 593q-6 47 -29 57t-65 17q-4 4 -4 16t4 17q77 3 191 29t165 48q10 -10 10 -14q-16 -29 -17 -172
q-1 -144 -1 -572t3 -482t14 -74t87 -35q5 -10 -4 -37l-84 2q-82 4 -153 4l-211 -6q-4 4 -4 18z" />
    <glyph glyph-name="uni013B" unicode="&#x13b;" horiz-adv-x="1067" 
d="M561 -63q31 0 64 -37t32 -99q0 -170 -245 -254q-2 1 -8 15t-7 18q80 37 109 72t29 80q0 72 -113 112q-2 2 -2 12t2 13q16 18 62 43t77 25zM33 12q0 16 4 19q82 10 102 16q45 12 54 92q10 113 10 496q0 447 -7 490t-47 55q-41 12 -96 20q-2 4 -2 18t4 17l271 -6
q109 0 280 6q4 -4 4 -17t-4 -18q-68 -12 -92 -20t-31 -28q-8 -20 -12 -67l-4 -409q-4 -406 6 -531q4 -57 39 -63q102 -14 248 -10q61 0 104 41t89 113t73 141q4 4 20 1t17 -10q-8 -53 -46 -178t-65 -164q-14 -25 -149 -24l-473 8l-293 -6q-4 2 -4 18z" />
    <glyph glyph-name="uni013C" unicode="&#x13c;" horiz-adv-x="507" 
d="M268 -68q31 0 64 -36t33 -99q0 -170 -246 -254q-7 0 -15 33q80 37 109 72t29 80q0 72 -113 112q-2 2 -2 12t2 13q16 19 62 43t77 24zM25 12q0 14 4 19q41 6 61 15t30 36t11 521q0 494 -8 593q-6 47 -29 57t-65 17q-4 4 -4 16t4 17q77 3 191 29t165 48q10 -10 10 -14
q-16 -29 -17 -172q-1 -144 -1 -572t3 -482t14 -74t87 -35q5 -10 -4 -37l-84 2q-82 4 -153 4l-211 -6q-4 4 -4 18z" />
    <glyph glyph-name="uni013D" unicode="&#x13d;" horiz-adv-x="1067" 
d="M887 1284q14 0 15 -39t-11 -166q-13 -127 -21 -161t-26 -54t-30 -25t-11 5q0 152 -27 346q0 10 9 21t49 42t53 31zM33 12q0 16 4 19q82 10 102 16q45 12 54 92q10 113 10 496q0 447 -7 490t-47 55q-41 12 -96 20q-2 4 -2 18t4 17l271 -6q109 0 280 6q4 -4 4 -17t-4 -18
q-68 -12 -92 -20t-31 -28q-8 -20 -12 -67l-4 -409q-4 -406 6 -531q4 -57 39 -63q102 -14 248 -10q61 0 104 41t89 113t73 141q4 4 20 1t17 -10q-8 -53 -46 -178t-65 -164q-14 -25 -149 -24l-473 8l-293 -6q-4 2 -4 18z" />
    <glyph glyph-name="uni013E" unicode="&#x13e;" horiz-adv-x="507" 
d="M588 1389q14 0 15 -39t-11 -166t-23 -173t-55 -69q-10 -4 -10 6q0 152 -27 346q1 19 49 57t62 38zM25 12q0 14 4 19q41 6 61 15t30 36t11 521q0 494 -8 593q-6 47 -29 57t-65 17q-4 4 -4 16t4 17q77 3 191 29t165 48q10 -10 10 -14q-16 -29 -17 -172q-1 -144 -1 -572
t3 -482t14 -74t87 -35q5 -10 -4 -37l-84 2q-82 4 -153 4l-211 -6q-4 4 -4 18z" />
    <glyph glyph-name="Ldot" unicode="&#x13f;" horiz-adv-x="1067" 
d="M932 618q0 -52 -45 -86q-13 -8 -61 -13t-58 1q-59 33 -63 82q-11 57 19 89t118 32q35 0 73 -29q17 -24 17 -76zM33 12q0 16 4 19q82 10 102 16q45 12 54 92q10 113 10 496q0 447 -7 490t-47 55q-41 12 -96 20q-2 4 -2 18t4 17l271 -6q109 0 280 6q4 -4 4 -17t-4 -18
q-68 -12 -92 -20t-31 -28q-8 -20 -12 -67l-4 -409q-4 -406 6 -531q4 -57 39 -63q102 -14 248 -10q61 0 104 41t89 113t73 141q4 4 20 1t17 -10q-8 -53 -46 -178t-65 -164q-14 -25 -149 -24l-473 8l-293 -6q-4 2 -4 18z" />
    <glyph glyph-name="ldot" unicode="&#x140;" horiz-adv-x="507" 
d="M25 12q0 14 4 19q41 6 61 15t30 36t11 521q0 494 -8 593q-6 47 -29 57t-65 17q-4 4 -4 16t4 17q77 3 191 29t165 48q10 -10 10 -14q-16 -29 -17 -172q-1 -144 -1 -572t3 -482t14 -74t87 -35q5 -10 -4 -37l-84 2q-82 4 -153 4l-211 -6q-4 4 -4 18zM614 708q0 -52 -43 -87
q-12 -7 -54 -13t-52 0q-49 33 -58 90t9 82q41 43 116 43q37 0 68 -30q14 -33 14 -85z" />
    <glyph glyph-name="Lslash" unicode="&#x141;" horiz-adv-x="1067" 
d="M33 12q0 16 4 19q82 10 102 16q45 12 54 92q8 143 10 385q-57 -25 -107 -49q-4 2 -9 26t-3 29q18 8 59 26t60 26v96q0 404 -5 436t-23 52q-18 19 -122 34q-2 4 -2 18t4 17l271 -6q109 0 280 6q4 -4 4 -17t-4 -18q-68 -12 -92 -20t-31 -28q-8 -20 -12 -81q-4 -62 -4 -379
q130 56 256 115q10 -6 10 -55q-20 -8 -112 -48t-154 -67q-4 -381 6 -492q4 -57 39 -63q102 -14 246 -10q66 0 114 49q94 94 154 246q4 4 20 0t17 -11q-12 -72 -47 -184t-64 -154q-14 -27 -149 -26l-473 8l-293 -6q-4 2 -4 18z" />
    <glyph glyph-name="lslash" unicode="&#x142;" horiz-adv-x="528" 
d="M35 13q0 13 2 18q61 10 76 16q35 14 37 107q0 20 1 243t1 244q-39 -16 -107 -47q-4 4 -5 26t6 25t106 47q0 406 -9 504q-5 47 -27 57t-73 17q-2 4 -2 16t2 17q80 3 196 29t167 48q8 -8 8 -18q-14 -25 -15 -211l-2 -344l119 57q4 -6 6 -24t-2 -23l-123 -63q0 -560 3 -614
t13 -73t36 -24q26 -4 40 -7t25 -5q5 -10 -4 -37l-250 6l-223 -6q-2 6 -2 19z" />
    <glyph glyph-name="uni0143" unicode="&#x143;" horiz-adv-x="1343" 
d="M1001 1486q0 -9 -2 -11q-16 -19 -173 -103t-164 -84t-15 9t-8 20q35 45 124 145t107 109q18 0 70 -30t56 -38q5 -8 5 -17zM4 13q0 15 4 18q88 12 114 20t40 32t22 81q23 180 23 868q0 45 -23 87t-59 57q-64 20 -111 24q-2 4 -2 18t4 17q40 2 144 -2t168 -4t94 4
q8 -25 67 -103q342 -463 619 -802q2 0 2 1t4 321t-7 396q-11 74 -29 98q-30 39 -177 56q-2 4 -2 18t4 17l254 -6l201 6q4 -4 4 -17t-4 -18q-70 -12 -80 -16q-43 -14 -58 -43q-14 -29 -24 -151t-14 -724l2 -274q-92 4 -178 -2q-45 70 -369 504t-352 475q-8 8 -9 -2
q-4 -168 -3 -451t5 -345t25 -89t59 -34t115 -17q4 -5 4 -19t-4 -18l-229 6l-240 -6q-4 4 -4 19z" />
    <glyph glyph-name="uni0144" unicode="&#x144;" horiz-adv-x="1032" 
d="M580 1196q8 6 80 11t92 1q2 -2 4 -9t0 -9q-18 -41 -250 -303q-6 -4 -20 1t-13 13q44 129 107 295zM555 13q0 15 2 18q71 10 80 28q8 17 12 61t4 218t-14 234q-25 110 -141 110q-47 0 -92 -27q-16 -8 -17 -24q0 -425 3 -489t19 -84t87 -27q2 -5 1 -19t-3 -18
q-228 6 -274 6t-181 -6q-10 17 -2 37q37 6 55 10q41 9 44 105t3 268t-3 200t-5 35t-22 27t-60 33q0 27 6 32q219 25 332 88q6 -6 6 -14q-6 -49 -6 -85t3 -37t5 1q156 127 260 127q133 0 199 -110q45 -76 45 -234q0 -361 1 -379t13 -30q37 -31 89 -37q0 -29 -9 -37l-202 6
q-27 0 -236 -6q-2 4 -2 19z" />
    <glyph glyph-name="uni0145" unicode="&#x145;" horiz-adv-x="1343" 
d="M705 -55q31 0 63 -37t33 -98q0 -170 -246 -254q-2 0 -8 14t-6 18q81 37 109 72t28 80q0 72 -113 113q-2 2 -2 11t2 13q17 18 63 43t77 25zM4 13q0 15 4 18q88 12 114 20t40 32t22 81q23 180 23 868q0 45 -23 87t-59 57q-64 20 -111 24q-2 4 -2 18t4 17q40 2 144 -2
t168 -4t94 4q8 -25 67 -103q342 -463 619 -802q2 0 2 1t4 321t-7 396q-11 74 -29 98q-30 39 -177 56q-2 4 -2 18t4 17l254 -6l201 6q4 -4 4 -17t-4 -18q-70 -12 -80 -16q-43 -14 -58 -43q-14 -29 -24 -151t-14 -724l2 -274q-92 4 -178 -2q-45 70 -369 504t-352 475
q-8 8 -9 -2q-4 -168 -3 -451t5 -345t25 -89t59 -34t115 -17q4 -5 4 -19t-4 -18l-229 6l-240 -6q-4 4 -4 19z" />
    <glyph glyph-name="uni0146" unicode="&#x146;" horiz-adv-x="1032" 
d="M545 -76q31 0 63 -37t33 -98q0 -170 -246 -254q-2 0 -8 14t-6 19q81 37 109 72t28 79q0 72 -112 113q-2 2 -3 11q-1 22 55 51q56 30 87 30zM555 13q0 15 2 18q71 10 80 28q8 17 12 61t4 218t-14 234q-25 110 -141 110q-47 0 -92 -27q-16 -8 -17 -24q0 -425 3 -489t19 -84
t87 -27q2 -5 1 -19t-3 -18q-228 6 -274 6t-181 -6q-10 17 -2 37q37 6 55 10q41 9 44 105t3 268t-3 200t-5 35t-22 27t-60 33q0 27 6 32q219 25 332 88q6 -6 6 -14q-6 -49 -6 -85t3 -37t5 1q156 127 260 127q133 0 199 -110q45 -76 45 -234q0 -361 1 -379t13 -30
q37 -31 89 -37q0 -29 -9 -37l-202 6q-27 0 -236 -6q-2 4 -2 19z" />
    <glyph glyph-name="uni0147" unicode="&#x147;" horiz-adv-x="1343" 
d="M439 1534q7 0 121 -48t129 -56t21 -9q6 0 22 9q14 8 118 56t112 48t13 -12q6 -12 4 -17q-237 -197 -251 -215t-34 -18q-20 22 -128 114t-146 119q0 5 6 17t13 12zM4 13q0 15 4 18q88 12 114 20t40 32t22 81q23 180 23 868q0 45 -23 87t-59 57q-64 20 -111 24q-2 4 -2 18
t4 17q40 2 144 -2t168 -4t94 4q8 -25 67 -103q342 -463 619 -802q2 0 2 1t4 321t-7 396q-11 74 -29 98q-30 39 -177 56q-2 4 -2 18t4 17l254 -6l201 6q4 -4 4 -17t-4 -18q-70 -12 -80 -16q-43 -14 -58 -43q-14 -29 -24 -151t-14 -724l2 -274q-92 4 -178 -2q-45 70 -369 504
t-352 475q-8 8 -9 -2q-4 -168 -3 -451t5 -345t25 -89t59 -34t115 -17q4 -5 4 -19t-4 -18l-229 6l-240 -6q-4 4 -4 19z" />
    <glyph glyph-name="uni0148" unicode="&#x148;" horiz-adv-x="1032" 
d="M706 1235q24 0 25 -4q1 -5 -15 -29t-84 -141t-85 -160q-3 -6 -21 -12t-26 -6q-88 195 -185 321q4 8 39 20t47 11q13 -6 61 -77t66 -109q7 -4 11 0q87 145 115 165t52 21zM555 13q0 15 2 18q71 10 80 28q8 17 12 61t4 218t-14 234q-25 110 -141 110q-47 0 -92 -27
q-16 -8 -17 -24q0 -425 3 -489t19 -84t87 -27q2 -5 1 -19t-3 -18q-228 6 -274 6t-181 -6q-10 17 -2 37q37 6 55 10q41 9 44 105t3 268t-3 200t-5 35t-22 27t-60 33q0 27 6 32q219 25 332 88q6 -6 6 -14q-6 -49 -6 -85t3 -37t5 1q156 127 260 127q133 0 199 -110
q45 -76 45 -234q0 -361 1 -379t13 -30q37 -31 89 -37q0 -29 -9 -37l-202 6q-27 0 -236 -6q-2 4 -2 19z" />
    <glyph glyph-name="uni0149" unicode="&#x149;" horiz-adv-x="1032" 
d="M257 1229q29 0 61 -38q32 -37 32 -103t-57 -122t-150 -83q-16 8 -12 30q69 31 91 60t22 63t-26 57q-26 22 -89 40q-8 15 4 31t53 40t71 25zM555 13q0 15 2 18q71 10 80 28q8 17 12 61t4 218t-14 234q-25 110 -141 110q-47 0 -92 -27q-16 -8 -17 -24q0 -425 3 -489t19 -84
t87 -27q2 -5 1 -19t-3 -18q-228 6 -274 6t-181 -6q-10 17 -2 37q37 6 55 10q41 9 44 105t3 268t-3 200t-5 35t-22 27t-60 33q0 27 6 32q219 25 332 88q6 -6 6 -14q-6 -49 -6 -85t3 -37t5 1q156 127 260 127q133 0 199 -110q45 -76 45 -234q0 -361 1 -379t13 -30
q37 -31 89 -37q0 -29 -9 -37l-202 6q-27 0 -236 -6q-2 4 -2 19z" />
    <glyph glyph-name="Eng" unicode="&#x14a;" horiz-adv-x="1343" 
d="M4 14q0 16 4 17q80 10 109 19t44 33t23 81q23 180 23 872q0 45 -23 85t-59 55q-63 20 -111 24q-2 4 -2 18t4 17q41 2 156 -2q116 -4 176 -4t74 4q17 -53 191 -266t313 -382t184 -225q2 0 2 1t3 301t-8 380t-29 103q-30 38 -177 55q-4 4 -4 18t4 17l244 -6l213 6v-35
q-70 -12 -80 -16q-43 -14 -58 -41t-20 -82q-20 -281 -20 -667t-5 -456q-27 -378 -249 -374q-80 0 -109 43q-6 10 -10 57t4 78l14 8q59 -33 129 -33t108 42t38 112q0 35 -46 101t-388 503q-342 438 -383 496q-8 8 -9 -2q-4 -168 -3 -452t5 -345t26 -89t52 -33t121 -19
q8 -10 0 -37l-221 6l-246 -6q-4 4 -4 20z" />
    <glyph glyph-name="eng" unicode="&#x14b;" horiz-adv-x="1017" 
d="M141 414q0 172 -3 200t-5 35t-22 27t-60 33q0 27 6 32q215 25 332 88l6 -14q-6 -49 -6 -85t3 -37t38 29t106 64q71 35 115 35q135 0 203 -112q47 -78 47 -226q0 -301 -5 -438t-41 -239q-35 -102 -99 -187q-64 -84 -142 -134t-144 -50t-91 28q-4 17 1 71t17 83l45 -31
q90 -61 136 -61q45 0 56 50q17 77 17 509q6 338 -8 442q-21 156 -147 156q-44 0 -88 -23q-18 -8 -19 -38q0 -415 4 -479t20 -84t87 -27q2 -5 1 -19t-3 -18q-226 6 -276 6t-185 -6q-10 17 -2 37q45 6 59 10q41 9 44 105t3 268z" />
    <glyph glyph-name="uni014C" unicode="&#x14c;" horiz-adv-x="1501" 
d="M647 1483h348q0 -23 -15 -61t-22 -40q-43 -8 -378 -8l-80 4q2 16 16 60t19 49q41 -4 112 -4zM798 18q114 0 180 72t98 203t32 285t-45 310t-135 240t-200 84t-177 -57q-158 -127 -158 -469q0 -170 48 -333q47 -163 145 -249t212 -86zM745 -37q-307 0 -481 187
q-86 92 -128 218t-42 248q0 231 115 390q190 260 549 260q307 0 478 -180t171 -442q0 -263 -121 -423q-181 -258 -541 -258z" />
    <glyph glyph-name="uni014D" unicode="&#x14d;" horiz-adv-x="999" 
d="M403 1106h322q0 -23 -12 -65t-19 -44q-29 -6 -221 -6t-201 4q2 17 14 63t17 52q37 -4 100 -4zM471 772q-135 0 -135 -315q0 -209 54 -322t140 -112q41 0 64 22q68 69 68 277t-50 329t-141 121zM512 821q194 1 308 -115t114 -300q0 -250 -189 -365q-98 -66 -247 -66
q-209 0 -321 122t-111 309q0 225 178 339q112 76 268 76z" />
    <glyph glyph-name="uni014E" unicode="&#x14e;" horiz-adv-x="1501" 
d="M562 1565q7 0 7 -4q27 -61 69 -88t136 -27t172 96q14 20 30 20t15 -3q-31 -94 -109 -154q-79 -59 -174 -59t-155 45q-59 45 -59 106q0 27 57 66q4 2 11 2zM798 18q114 0 180 72t98 203t32 285t-45 310t-135 240t-200 84t-177 -57q-158 -127 -158 -469q0 -170 48 -333
q47 -163 145 -249t212 -86zM745 -37q-307 0 -481 187q-86 92 -128 218t-42 248q0 231 115 390q190 260 549 260q307 0 478 -180t171 -442q0 -263 -121 -423q-181 -258 -541 -258z" />
    <glyph glyph-name="uni014F" unicode="&#x14f;" horiz-adv-x="999" 
d="M516 1044q106 0 172 109q16 25 28 25t11 -7q-20 -97 -92 -165t-164 -68t-148 43t-57 113q0 16 25 42t49 42q14 4 14 -2q27 -132 162 -132zM471 772q-135 0 -135 -315q0 -209 54 -322t140 -112q41 0 64 22q68 69 68 277t-50 329t-141 121zM512 821q194 1 308 -115
t114 -300q0 -250 -189 -365q-98 -66 -247 -66q-209 0 -321 122t-111 309q0 225 178 339q112 76 268 76z" />
    <glyph glyph-name="uni0150" unicode="&#x150;" horiz-adv-x="1501" 
d="M887 1585q19 8 77 12t76 0q8 -7 -1 -25t-80 -115t-97 -124q-4 -2 -16 5t-17 12q38 184 58 235zM627 1556q20 8 74 14t75 3q10 -11 4 -23t-76 -104t-96 -121q-16 0 -30 14q33 180 49 217zM798 18q114 0 180 72t98 203t32 285t-45 310t-135 240t-200 84t-177 -57
q-158 -127 -158 -469q0 -170 48 -333q47 -163 145 -249t212 -86zM745 -37q-307 0 -481 187q-86 92 -128 218t-42 248q0 231 115 390q190 260 549 260q307 0 478 -180t171 -442q0 -263 -121 -423q-181 -258 -541 -258z" />
    <glyph glyph-name="uni0151" unicode="&#x151;" horiz-adv-x="999" 
d="M567 926q16 48 92 315q19 6 63 7t66 -5q4 -4 0 -12q-96 -180 -192 -320q-6 -2 -16 3t-13 12zM317 913q46 162 93 308q12 4 63 7t66 1q6 -6 2 -17q-41 -76 -195 -313q-6 -2 -16 3t-13 11zM471 772q-135 0 -135 -315q0 -209 54 -322t140 -112q41 0 64 22q68 69 68 277
t-50 329t-141 121zM512 821q194 1 308 -115t114 -300q0 -250 -189 -365q-98 -66 -247 -66q-209 0 -321 122t-111 309q0 225 178 339q112 76 268 76z" />
    <glyph glyph-name="OE" unicode="&#x152;" horiz-adv-x="1949" 
d="M754 -39q-315 0 -488 186q-86 95 -130 221t-44 248q0 231 115 390q90 124 232 192t323 68q88 0 176 -17q53 -14 141 -20h496q197 0 242 10q6 0 6 -6q-16 -55 -31 -293q-27 -12 -39 -4q-32 208 -119 221q-40 6 -246 7t-235 -3l-4 -10q231 -145 250 -477q0 -12 10 -12
q168 0 200 2t54 25t43 130q4 6 19 5t20 -5l-4 -71q-4 -72 -4 -126t8 -186q-5 -6 -21 -7t-20 5q-8 53 -18 80q-20 59 -80 68q-33 4 -203 4q-8 0 -8 -11q-2 -297 -230 -481q-6 -6 -4 -12t10 -8q98 -10 431 -11q86 1 122 13q103 36 174 246q6 4 20 0t17 -11q-5 -31 -31 -137
t-38 -135t-34 -39t-83 -10l-715 10q-4 0 -96 -20t-184 -19zM798 16q112 0 174 69q64 69 100 206t36 291t-45 311q-45 158 -139 240q-94 81 -200 81t-169 -53q-166 -133 -166 -473q0 -166 52 -333q53 -167 149 -253t208 -86z" />
    <glyph glyph-name="oe" unicode="&#x153;" horiz-adv-x="1458" 
d="M1022 770q-51 0 -83 -64t-32 -165q0 -13 8 -13q41 -3 122 9t104 18q8 4 8 18q-6 69 -41 133t-86 64zM1076 821q130 0 205 -79t85 -146q14 -23 31 -29q0 -27 -8 -35q-18 -4 -469 -53q-12 0 -13 -20q0 -139 80 -235t207 -95q127 0 219 84q4 -2 9 -19t3 -22
q-70 -86 -171 -140t-201 -55q-162 1 -262 101q-123 -100 -313 -100t-301 120q-112 121 -111 308q0 223 178 337q117 78 268 78q162 -8 283 -106q6 -6 14 2q137 104 267 104zM467 772q-33 0 -61 -24q-74 -66 -74 -281t56 -328t142 -112q39 0 64 20q72 61 72 273t-50 332
t-149 120z" />
    <glyph glyph-name="uni0154" unicode="&#x154;" horiz-adv-x="1218" 
d="M838 1499q0 -8 -2 -10q-16 -19 -173 -103t-164 -84t-16 10q-8 9 -8 19q35 45 125 145t107 109q18 0 69 -30q50 -30 56 -39t6 -17zM526 1180q-23 0 -45 -9q-12 -6 -12 -30q-6 -35 -6 -500q0 -10 12 -10q159 -13 233 25t74 192t-66 243q-67 89 -190 89zM55 11q0 13 4 18
q69 10 89 15q39 9 46 105q7 95 7 457t-3 465q-3 102 -61 115q-8 2 -24 5l-32 6t-30 3q-2 4 -2 18t2 17l262 -6l375 4q178 0 269 -76t91 -203q0 -126 -66 -206q-67 -80 -171 -119q-7 -7 -2 -15q43 -84 156 -258t177 -235t89 -73t92 -17q4 -16 -6 -37q-90 -12 -211 -6t-179 30
t-96 78q-53 63 -156 241q-102 179 -108 191q-25 45 -61 45h-35q-8 0 -8 -12q0 -184 4 -409q2 -58 14 -78t42 -27t100 -16q6 -3 5 -17t-5 -20l-289 6q-168 0 -218 -3q-51 -3 -57 -3q-4 4 -4 17z" />
    <glyph glyph-name="uni0155" unicode="&#x155;" horiz-adv-x="724" 
d="M444 1196q8 6 81 11t91 1q2 -2 4 -9t1 -9q-18 -41 -250 -303q-5 -4 -19 1t-14 13q43 129 106 295zM29 12q0 14 4 19q59 10 69 14q31 14 33 86q6 55 6 257q0 236 -9 263q-9 28 -81 58q0 29 8 32q205 20 322 88q12 0 12 -8q-10 -82 -10 -168q0 -10 8 -2q61 68 113 119
t122 51q68 0 101 -57q2 -2 2 -20t-3 -32q-3 -16 -31 -74t-50 -87q-2 -6 -20 -6q-80 84 -160 84q-43 1 -61 -17t-17 -37q-2 -71 0 -247t5 -207t11 -48q7 -17 29 -25t94 -17q2 -5 0 -19t-6 -18l-272 6l-215 -6q-4 4 -4 18z" />
    <glyph glyph-name="uni0156" unicode="&#x156;" horiz-adv-x="1218" 
d="M702 -61q31 0 64 -37t33 -99q0 -170 -246 -254q-2 1 -8 15t-6 18q81 37 109 72t28 80q0 72 -113 112q-2 2 -2 12t9 21q9 10 55 35t77 25zM526 1180q-23 0 -45 -9q-12 -6 -12 -30q-6 -35 -6 -500q0 -10 12 -10q159 -13 233 25t74 192t-66 243q-67 89 -190 89zM55 11
q0 13 4 18q69 10 89 15q39 9 46 105q7 95 7 457t-3 465q-3 102 -61 115q-8 2 -24 5l-32 6t-30 3q-2 4 -2 18t2 17l262 -6l375 4q178 0 269 -76t91 -203q0 -126 -66 -206q-67 -80 -171 -119q-7 -7 -2 -15q43 -84 156 -258t177 -235t89 -73t92 -17q4 -16 -6 -37
q-90 -12 -211 -6t-179 30t-96 78q-53 63 -156 241q-102 179 -108 191q-25 45 -61 45h-35q-8 0 -8 -12q0 -184 4 -409q2 -58 14 -78t42 -27t100 -16q6 -3 5 -17t-5 -20l-289 6q-168 0 -218 -3q-51 -3 -57 -3q-4 4 -4 17z" />
    <glyph glyph-name="uni0157" unicode="&#x157;" horiz-adv-x="724" 
d="M276 -59q31 0 64 -37t33 -99q0 -170 -246 -254q-2 1 -8 15t-6 18q81 37 109 72t28 80q0 72 -113 112q-2 2 -2 12t2 13q16 18 62 43t77 25zM29 12q0 14 4 19q59 10 69 14q31 14 33 86q6 55 6 257q0 236 -9 263q-9 28 -81 58q0 29 8 32q205 20 322 88q12 0 12 -8
q-10 -82 -10 -168q0 -10 8 -2q61 68 113 119t122 51q68 0 101 -57q2 -2 2 -20t-3 -32q-3 -16 -31 -74t-50 -87q-2 -6 -20 -6q-80 84 -160 84q-43 1 -61 -17t-17 -37q-2 -71 0 -247t5 -207t11 -48q7 -17 29 -25t94 -17q2 -5 0 -19t-6 -18l-272 6l-215 -6q-4 4 -4 18z" />
    <glyph glyph-name="uni0158" unicode="&#x158;" horiz-adv-x="1218" 
d="M556 1450q4 0 20 9t120 57t112 47t13 -13q6 -12 4 -16q-237 -198 -251 -216t-33 -18q-20 23 -128 115t-147 119q0 6 6 17t14 11t121 -48q114 -48 129 -56t20 -8zM526 1180q-23 0 -45 -9q-12 -6 -12 -30q-6 -35 -6 -500q0 -10 12 -10q159 -13 233 25t74 192t-66 243
q-67 89 -190 89zM55 11q0 13 4 18q69 10 89 15q39 9 46 105q7 95 7 457t-3 465q-3 102 -61 115q-8 2 -24 5l-32 6t-30 3q-2 4 -2 18t2 17l262 -6l375 4q178 0 269 -76t91 -203q0 -126 -66 -206q-67 -80 -171 -119q-7 -7 -2 -15q43 -84 156 -258t177 -235t89 -73t92 -17
q4 -16 -6 -37q-90 -12 -211 -6t-179 30t-96 78q-53 63 -156 241q-102 179 -108 191q-25 45 -61 45h-35q-8 0 -8 -12q0 -184 4 -409q2 -58 14 -78t42 -27t100 -16q6 -3 5 -17t-5 -20l-289 6q-168 0 -218 -3q-51 -3 -57 -3q-4 4 -4 17z" />
    <glyph glyph-name="uni0159" unicode="&#x159;" horiz-adv-x="724" 
d="M567 1235q10 0 6 -10q-31 -47 -99 -164t-85 -160q-2 -6 -20 -12t-27 -6q-88 195 -184 321q4 8 39 20t47 11q14 -6 61 -77t66 -109q6 -4 10 0q88 145 116 165t70 21zM29 12q0 14 4 19q59 10 69 14q31 14 33 86q6 55 6 257q0 236 -9 263q-9 28 -81 58q0 29 8 32
q205 20 322 88q12 0 12 -8q-10 -82 -10 -168q0 -10 8 -2q61 68 113 119t122 51q68 0 101 -57q2 -2 2 -20t-3 -32q-3 -16 -31 -74t-50 -87q-2 -6 -20 -6q-80 84 -160 84q-43 1 -61 -17t-17 -37q-2 -71 0 -247t5 -207t11 -48q7 -17 29 -25t94 -17q2 -5 0 -19t-6 -18l-272 6
l-215 -6q-4 4 -4 18z" />
    <glyph glyph-name="uni015A" unicode="&#x15a;" horiz-adv-x="931" 
d="M770 1524q0 -8 -9 -18t-166 -95q-157 -84 -164 -84t-15 9t-8 20q35 46 124 146t107 108q17 0 69 -30t57 -39t5 -17zM434 12q98 0 146 49q47 49 47 133t-46 147q-47 61 -193 159t-216 187t-70 220q0 168 121 263t299 96q82 0 184 -14t121 -17q-27 -143 -34 -285
q-5 -4 -19 -6t-18 2q-10 98 -30 148t-62 80q-66 45 -156 45q-90 -1 -141 -53t-52 -134q0 -123 121 -213q62 -49 125 -88q62 -39 90 -59q111 -74 163 -151t52 -177q0 -172 -125 -276t-344 -105q-86 1 -173 21t-115 39q-27 41 -52 303q5 6 19 9t18 -1q31 -109 69 -168t97 -103
q76 -51 174 -51z" />
    <glyph glyph-name="uni015B" unicode="&#x15b;" horiz-adv-x="731" 
d="M406 1196q8 6 80 11t92 1q2 -2 4 -9t0 -9q-18 -41 -250 -303q-6 -4 -20 1t-13 13q44 129 107 295zM589 569q-13 0 -18 4q-20 139 -94 183q-41 22 -89 22t-80 -26t-32 -74q0 -47 35 -82t156 -96q121 -62 162 -116t41 -136q0 -123 -102 -198t-240 -75q-136 0 -252 43
q0 190 -4 248q8 8 32 8q35 -170 127 -225q51 -29 107 -29t92 26q35 26 35 71t-30 76t-139 90t-161 121q-51 62 -51 166t82 178t237 73q63 0 129 -9t99 -9q-16 -61 -25 -230q-4 -4 -17 -4z" />
    <glyph glyph-name="uni015C" unicode="&#x15c;" horiz-adv-x="931" 
d="M753 1323q-7 0 -121 48q-114 49 -130 57t-21 8q-7 0 -21 -9t-118 -57t-112 -47q-8 0 -13 12q-6 12 -4 17q237 198 251 216t34 17q20 -23 128 -115t146 -118q0 -6 -6 -18t-13 -11zM434 12q98 0 146 49q47 49 47 133t-46 147q-47 61 -193 159t-216 187t-70 220
q0 168 121 263t299 96q82 0 184 -14t121 -17q-27 -143 -34 -285q-5 -4 -19 -6t-18 2q-10 98 -30 148t-62 80q-66 45 -156 45q-90 -1 -141 -53t-52 -134q0 -123 121 -213q62 -49 125 -88q62 -39 90 -59q111 -74 163 -151t52 -177q0 -172 -125 -276t-344 -105q-86 1 -173 21
t-115 39q-27 41 -52 303q5 6 19 9t18 -1q31 -109 69 -168t97 -103q76 -51 174 -51z" />
    <glyph glyph-name="uni015D" unicode="&#x15d;" horiz-adv-x="731" 
d="M196 891q-24 0 -26 4q-2 3 16 29t83 141q67 115 85 158q2 6 20 12t27 6q86 -188 185 -319q-4 -8 -39 -20t-47 -11q-14 6 -62 76q-47 70 -65 108q-7 4 -11 0q-82 -139 -112 -161t-54 -23zM589 569q-13 0 -18 4q-20 139 -94 183q-41 22 -89 22t-80 -26t-32 -74
q0 -47 35 -82t156 -96q121 -62 162 -116t41 -136q0 -123 -102 -198t-240 -75q-136 0 -252 43q0 190 -4 248q8 8 32 8q35 -170 127 -225q51 -29 107 -29t92 26q35 26 35 71t-30 76t-139 90t-161 121q-51 62 -51 166t82 178t237 73q63 0 129 -9t99 -9q-16 -61 -25 -230
q-4 -4 -17 -4z" />
    <glyph glyph-name="uni015E" unicode="&#x15e;" horiz-adv-x="931" 
d="M434 12q98 0 146 49q47 49 47 133t-46 147q-47 61 -193 159t-216 187t-70 220q0 168 121 263t299 96q74 0 157 -10t148 -15q-27 -143 -34 -285q-5 -4 -19 -6t-18 2q-26 174 -90 220t-155 46t-143 -52t-53 -134q0 -123 121 -213q62 -49 125 -88q62 -39 90 -59
q111 -74 163 -151t52 -177q0 -156 -101 -256t-286 -121l-35 -53q66 -35 88 -51q52 -39 52 -109t-78 -127t-138 -57t-104 61q-2 7 1 19t7 14q70 -37 127 -37q78 0 78 68q0 76 -149 123q0 10 2 16q61 78 102 129q-72 -4 -173 12t-150 48q-27 41 -52 303q5 6 19 9t18 -1
q31 -111 68 -169t96 -102q78 -51 176 -51z" />
    <glyph glyph-name="uni015F" unicode="&#x15f;" horiz-adv-x="731" 
d="M276 677q0 -46 35 -81t156 -96q121 -62 162 -116t41 -136q0 -119 -88 -187t-201 -81l-41 -54q57 -32 93 -64t36 -81q0 -76 -74 -130t-132 -54t-97 57q-6 18 8 33q63 -35 129 -35t66 63q0 74 -144 117q0 10 2 16q68 80 109 127q-135 -2 -260 43q0 182 -4 240q8 8 32 8
q33 -162 121 -215q55 -31 113 -31t92 26q35 26 35 71t-30 76t-139 90t-161 121q-51 62 -51 166t82 178t237 73q63 0 129 -9t99 -9q-16 -63 -25 -225q-4 -4 -17 -4t-18 4q-20 139 -88 178q-41 22 -90 22t-83 -28t-34 -73z" />
    <glyph glyph-name="Scaron" unicode="&#x160;" horiz-adv-x="931" 
d="M244 1579q8 0 122 -48q114 -49 129 -57t20 -8t21 9t119 57t111 47q8 0 14 -12t4 -17q-236 -198 -250 -216t-34 -17q-20 23 -128 115t-147 118q0 6 6 18q5 12 13 11zM434 12q98 0 146 49q47 49 47 133t-46 147q-47 61 -193 159t-216 187t-70 220q0 168 121 263t299 96
q82 0 184 -14t121 -17q-27 -143 -34 -285q-5 -4 -19 -6t-18 2q-10 98 -30 148t-62 80q-66 45 -156 45q-90 -1 -141 -53t-52 -134q0 -123 121 -213q62 -49 125 -88q62 -39 90 -59q111 -74 163 -151t52 -177q0 -172 -125 -276t-344 -105q-86 1 -173 21t-115 39q-27 41 -52 303
q5 6 19 9t18 -1q31 -109 69 -168t97 -103q76 -51 174 -51z" />
    <glyph glyph-name="scaron" unicode="&#x161;" horiz-adv-x="731" 
d="M566 1235q24 0 26 -4q2 -5 -14 -29t-84 -141t-86 -160q-2 -6 -20 -12t-28 -6q-88 195 -184 321q4 8 39 20t47 11q14 -6 62 -77t65 -109q6 -4 10 0q88 145 116 165q27 20 51 21zM589 569q-13 0 -18 4q-20 139 -94 183q-41 22 -89 22t-80 -26t-32 -74q0 -47 35 -82t156 -96
q121 -62 162 -116t41 -136q0 -123 -102 -198t-240 -75q-136 0 -252 43q0 190 -4 248q8 8 32 8q35 -170 127 -225q51 -29 107 -29t92 26q35 26 35 71t-30 76t-139 90t-161 121q-51 62 -51 166t82 178t237 73q63 0 129 -9t99 -9q-16 -61 -25 -230q-4 -4 -17 -4z" />
    <glyph glyph-name="uni0162" unicode="&#x162;" horiz-adv-x="1255" 
d="M287 10q0 14 4 19q84 4 121 15t51 38q14 26 18 138t4 929q1 12 -17 13q-84 5 -206 -3q-66 -4 -106 -65q-49 -86 -78 -174q-2 -4 -20 -1t-19 9q27 137 33 317q0 4 5 8t7 2q78 -26 178 -26h733q115 0 203 26q6 0 10 -10q-25 -84 -45 -332q-2 -4 -19 -4t-20 4
q-30 191 -77 225q-17 13 -53 16t-130 4t-104 -1q-8 -4 -8 -14q0 -801 8 -998q2 -84 57 -100q31 -8 96 -16q4 -3 3 -19t-5 -18l-229 6l-57 -74q53 -30 89 -62t36 -81q0 -76 -74 -130t-138 -54t-94 59q-6 18 9 33q63 -35 129 -35t65 63q0 72 -141 115q0 10 4 19t127 147h-8
l-338 -6q-4 4 -4 18z" />
    <glyph glyph-name="uni0163" unicode="&#x163;" horiz-adv-x="600" 
d="M475 102q70 0 105 23q8 -18 2 -39q-66 -90 -189 -106l-43 -56q53 -30 89 -62t36 -81q0 -76 -74 -130q-75 -54 -139 -54t-92 59q-6 18 8 33q63 -35 129 -35t66 63q0 72 -142 115q0 10 2 15t109 128q-182 5 -206 155q-7 53 -7 177l2 375q0 23 -12 25q-36 6 -86 6
q0 37 14 55q68 10 76 14t8 17v174q61 18 132 51t93 55q16 4 31 4q-6 -98 -6 -272q0 -18 10 -18q111 0 197 8q-12 -66 -15 -99q-85 0 -184 3q-8 0 -8 -13l-2 -366q0 -119 8 -152q18 -72 88 -72z" />
    <glyph glyph-name="uni0164" unicode="&#x164;" horiz-adv-x="1255" 
d="M626 1448q6 0 20 9q16 9 120 56t112 47t13 -12q6 -12 4 -16q-237 -198 -251 -216t-34 -18q-20 23 -128 115t-146 119q0 6 6 17t13 11t121 -48t129 -56t21 -8zM287 10q0 14 4 19q84 4 121 15t51 38q14 26 18 138t4 929q1 12 -17 13q-84 5 -206 -3q-66 -4 -106 -65
q-49 -86 -78 -174q-2 -4 -20 -1t-19 9q27 137 33 317q0 4 5 8t7 2q78 -27 178 -26h733q115 0 203 26q6 0 10 -10q-25 -84 -45 -332q-2 -4 -19 -4t-20 4q-30 191 -77 225q-17 13 -53 16t-130 4t-104 -1q-8 -4 -8 -14q0 -801 8 -998q2 -84 57 -100q30 -8 96 -16q4 -3 3 -19
t-5 -18l-282 6l-338 -6q-4 4 -4 18z" />
    <glyph glyph-name="uni0165" unicode="&#x165;" horiz-adv-x="600" 
d="M627 1386q14 0 15 -38t-11 -166q-12 -127 -23 -173t-55 -69q-10 -4 -10 6q0 152 -27 346q0 19 57 64q40 30 54 30zM475 102q70 0 105 23q8 -18 2 -39q-82 -111 -228 -111q-192 0 -218 155q-7 53 -7 177l2 375q0 23 -12 25q-36 6 -86 6q0 37 14 55q68 10 76 14t8 17v174
q61 18 132 51t93 55q16 4 31 4q-6 -98 -6 -272q0 -18 10 -18q111 0 197 8q-13 -66 -15 -99q-85 0 -184 3q-8 0 -8 -13l-2 -366q0 -119 8 -152q18 -72 88 -72z" />
    <glyph glyph-name="Tbar" unicode="&#x166;" horiz-adv-x="1255" 
d="M289 10q0 14 6 19q88 8 120 16t45 33q25 48 25 540q-100 -2 -186 -2q0 39 14 54l90 -2h82v475q0 18 -10 18q-81 6 -213 -2q-72 -4 -112 -74t-72 -167q-2 -2 -20 1t-19 7q27 135 33 319q0 4 6 8t8 2q78 -27 176 -26h733q115 0 205 26q6 -2 8 -8q-25 -82 -45 -334
q-2 -4 -19 -4t-20 2q-22 135 -46 187t-66 55q-42 4 -142 5q-98 1 -108 -3t-10 -16l2 -471l211 2q0 -33 -9 -54l-67 2h-135q4 -444 6 -471q2 -86 50 -99t103 -19q4 -3 3 -19t-5 -18l-282 8l-334 -8q-6 4 -6 18z" />
    <glyph glyph-name="tbar" unicode="&#x167;" horiz-adv-x="600" 
d="M379 326q0 -119 8 -152q18 -72 88 -72t105 23q8 -18 2 -39q-82 -111 -228 -111q-192 0 -218 155q-7 53 -7 177v119h-78q0 39 17 55l61 -2q2 78 2 203q0 23 -12 25l-86 6q0 37 14 55q68 10 76 14t8 17v174q61 18 132 51t93 55q16 4 31 4q-6 -98 -6 -272q0 -18 10 -18
q111 0 197 8q-13 -66 -15 -99q-85 0 -184 3q-8 0 -8 -13l-2 -213l164 2q0 -35 -8 -55l-156 2v-102z" />
    <glyph glyph-name="uni0168" unicode="&#x168;" horiz-adv-x="1351" 
d="M920 1446q76 0 143 70q6 6 10 -11q6 -14 4 -22q-23 -43 -91 -92t-120 -49q-51 0 -143 28q-76 20 -98 21q-55 0 -125 -60q-4 -2 -12 9t-3 22q23 35 85 84t104 49q42 -1 128 -25q87 -24 118 -24zM1368 1218q0 -13 -4 -18q-70 -14 -74 -16q-41 -12 -55 -39t-17 -79
q-4 -52 -6 -154q-2 -101 -5 -224t-5 -172q-8 -291 -137 -422t-373 -131q-444 0 -502 354q-18 115 -18 371v393q0 90 -70 105q-51 10 -82 14q-2 4 -2 18t5 17l280 -6l299 6q4 -2 4 -16t-4 -19q-16 -2 -81 -13t-68 -104q-2 -47 -2 -548q0 -154 20 -240q53 -229 331 -229
t310 315q27 246 6 666q-2 73 -22 101q-30 42 -158 52q-4 4 -4 18t4 17l211 -6l215 6q4 -4 4 -17z" />
    <glyph glyph-name="uni0169" unicode="&#x169;" horiz-adv-x="999" 
d="M631 1085q76 0 131 60q4 4 9 -4t-3 -33q-20 -43 -80 -91t-112 -48t-122 21q-70 22 -112 22q-43 0 -102 -56q-2 -2 -7 2q-4 4 -4 21t11 27q18 36 73 78t101 42t118 -20t99 -21zM371 504q0 -250 10 -289q23 -92 127 -92q57 0 94 29q10 8 16 36q6 55 0 471q0 51 -30 61
t-107 21q-4 23 4 35q215 0 387 29q-4 -86 -4 -232v-391q4 -74 39 -76q29 -2 72 0q0 -31 -6 -38q-72 -29 -187 -63t-149 -34q-19 17 -19 93q-1 54 -10 45q-143 -131 -260 -132q-225 0 -225 250q0 371 -2 416t-8 60q-11 27 -93 36q-6 25 7 37q272 12 356 33q-12 -55 -12 -305z
" />
    <glyph glyph-name="uni016A" unicode="&#x16a;" horiz-adv-x="1351" 
d="M659 1462h349q0 -22 -16 -60t-21 -40q-43 -8 -379 -8l-80 4q2 16 16 59q15 43 19 49q41 -4 112 -4zM1368 1218q0 -13 -4 -18q-70 -14 -74 -16q-41 -12 -55 -39t-17 -79q-4 -52 -6 -154q-2 -101 -5 -224t-5 -172q-8 -291 -137 -422t-373 -131q-444 0 -502 354
q-18 115 -18 371v393q0 90 -70 105q-51 10 -82 14q-2 4 -2 18t5 17l280 -6l299 6q4 -2 4 -16t-4 -19q-16 -2 -81 -13t-68 -104q-2 -47 -2 -548q0 -154 20 -240q53 -229 331 -229t310 315q27 246 6 666q-2 73 -22 101q-30 42 -158 52q-4 4 -4 18t4 17l211 -6l215 6
q4 -4 4 -17z" />
    <glyph glyph-name="uni016B" unicode="&#x16b;" horiz-adv-x="999" 
d="M305 1110q37 -4 148 -4h274q0 -23 -12 -65t-19 -44q-29 -6 -221 -6t-201 4q2 17 14 63t17 52zM371 504q0 -250 10 -289q23 -92 127 -92q57 0 94 29q10 8 16 36q6 55 0 471q0 51 -30 61t-107 21q-4 23 4 35q215 0 387 29q-4 -86 -4 -232v-391q4 -74 39 -76q29 -2 72 0
q0 -31 -6 -38q-72 -29 -187 -63t-149 -34q-19 17 -19 93q-1 54 -10 45q-143 -131 -260 -132q-225 0 -225 250q0 371 -2 416t-8 60q-11 27 -93 36q-6 25 7 37q272 12 356 33q-12 -55 -12 -305z" />
    <glyph glyph-name="uni016C" unicode="&#x16c;" horiz-adv-x="1351" 
d="M798 1419q94 0 173 97q13 20 29 20t16 -4q-31 -94 -110 -154t-174 -59q-95 0 -154 45t-60 106q0 27 57 66q18 8 19 -2q26 -61 68 -88t136 -27zM1368 1218q0 -13 -4 -18q-70 -14 -74 -16q-41 -12 -55 -39t-17 -79q-4 -52 -6 -154q-2 -101 -5 -224t-5 -172
q-8 -291 -137 -422t-373 -131q-444 0 -502 354q-18 115 -18 371v393q0 90 -70 105q-51 10 -82 14q-2 4 -2 18t5 17l280 -6l299 6q4 -2 4 -16t-4 -19q-16 -2 -81 -13t-68 -104q-2 -47 -2 -548q0 -154 20 -240q53 -229 331 -229t310 315q27 246 6 666q-2 73 -22 101
q-30 42 -158 52q-4 4 -4 18t4 17l211 -6l215 6q4 -4 4 -17z" />
    <glyph glyph-name="uni016D" unicode="&#x16d;" horiz-adv-x="999" 
d="M516 1044q106 0 172 109q16 25 28 25t11 -7q-20 -97 -92 -165t-164 -68t-148 43t-57 113q0 16 25 42t49 42q14 4 14 -2q27 -132 162 -132zM371 504q0 -250 10 -289q23 -92 127 -92q57 0 94 29q10 8 16 36q6 55 0 471q0 51 -30 61t-107 21q-4 23 4 35q215 0 387 29
q-4 -86 -4 -232v-391q4 -74 39 -76q29 -2 72 0q0 -31 -6 -38q-72 -29 -187 -63t-149 -34q-19 17 -19 93q-1 54 -10 45q-143 -131 -260 -132q-225 0 -225 250q0 371 -2 416t-8 60q-11 27 -93 36q-6 25 7 37q272 12 356 33q-12 -55 -12 -305z" />
    <glyph glyph-name="Uring" unicode="&#x16e;" horiz-adv-x="1351" 
d="M766 1522q-100 0 -100 -74q0 -37 30 -56q30 -20 71 -20q40 0 70 20t29 50q0 80 -100 80zM610 1440q0 70 41 110t114 41q73 0 113 -40q40 -39 40 -105t-44 -106t-104 -40q-61 0 -111 35q-49 35 -49 105zM1368 1218q0 -13 -4 -18q-70 -14 -74 -16q-41 -12 -55 -39t-17 -79
q-4 -52 -6 -154q-2 -101 -5 -224t-5 -172q-8 -291 -137 -422t-373 -131q-444 0 -502 354q-18 115 -18 371v393q0 90 -70 105q-51 10 -82 14q-2 4 -2 18t5 17l280 -6l299 6q4 -2 4 -16t-4 -19q-16 -2 -81 -13t-68 -104q-2 -47 -2 -548q0 -154 20 -240q53 -229 331 -229
t310 315q27 246 6 666q-2 73 -22 101q-30 42 -158 52q-4 4 -4 18t4 17l211 -6l215 6q4 -4 4 -17z" />
    <glyph glyph-name="uring" unicode="&#x16f;" horiz-adv-x="999" 
d="M510 1145q-39 0 -63 -23q-23 -24 -23 -58t27 -56t63 -21q36 0 63 22q26 22 25 52q0 84 -92 84zM367 1057q1 74 41 118t108 44t105 -44t37 -112t-43 -110q-42 -42 -102 -42t-103 36t-43 110zM371 504q0 -250 10 -289q23 -92 127 -92q57 0 94 29q10 8 16 36q6 55 0 471
q0 51 -30 61t-107 21q-4 23 4 35q215 0 387 29q-4 -86 -4 -232v-391q4 -74 39 -76q29 -2 72 0q0 -31 -6 -38q-72 -29 -187 -63t-149 -34q-19 17 -19 93q-1 54 -10 45q-143 -131 -260 -132q-225 0 -225 250q0 371 -2 416t-8 60q-11 27 -93 36q-6 25 7 37q272 12 356 33
q-12 -55 -12 -305z" />
    <glyph glyph-name="uni0170" unicode="&#x170;" horiz-adv-x="1351" 
d="M911 1554q19 8 77 12t77 1q8 -8 -1 -26t-80 -115t-97 -123q-5 -2 -17 5t-16 11q37 184 57 235zM651 1526q21 8 75 14t75 2q9 -9 4 -22q-6 -12 -76 -104t-96 -122q-16 0 -31 15q33 180 49 217zM1368 1218q0 -13 -4 -18q-70 -14 -74 -16q-41 -12 -55 -39t-17 -79
q-4 -52 -6 -154q-2 -101 -5 -224t-5 -172q-8 -291 -137 -422t-373 -131q-444 0 -502 354q-18 115 -18 371v393q0 90 -70 105q-51 10 -82 14q-2 4 -2 18t5 17l280 -6l299 6q4 -2 4 -16t-4 -19q-16 -2 -81 -13t-68 -104q-2 -47 -2 -548q0 -154 20 -240q53 -229 331 -229
t310 315q27 246 6 666q-2 73 -22 101q-30 42 -158 52q-4 4 -4 18t4 17l211 -6l215 6q4 -4 4 -17z" />
    <glyph glyph-name="uni0171" unicode="&#x171;" horiz-adv-x="999" 
d="M565 926q16 48 92 315q19 6 63 7t66 -5q4 -4 0 -12q-96 -180 -192 -320q-6 -2 -16 3t-13 12zM315 913q46 162 93 308q12 4 63 7t66 1q6 -6 2 -17q-41 -76 -195 -313q-6 -2 -16 3t-13 11zM371 504q0 -250 10 -289q23 -92 127 -92q57 0 94 29q10 8 16 36q6 55 0 471
q0 51 -30 61t-107 21q-4 23 4 35q215 0 387 29q-4 -86 -4 -232v-391q4 -74 39 -76q29 -2 72 0q0 -31 -6 -38q-72 -29 -187 -63t-149 -34q-19 17 -19 93q-1 54 -10 45q-143 -131 -260 -132q-225 0 -225 250q0 371 -2 416t-8 60q-11 27 -93 36q-6 25 7 37q272 12 356 33
q-12 -55 -12 -305z" />
    <glyph glyph-name="uni0172" unicode="&#x172;" horiz-adv-x="1351" 
d="M1368 1218q0 -13 -4 -18q-70 -14 -74 -16q-41 -12 -55 -39t-17 -79q-4 -52 -6 -154q-2 -101 -5 -224t-5 -172q-12 -442 -321 -528q-129 -129 -129 -228q0 -40 24 -64t66 -24q41 0 102 33q12 -23 -4 -47q-38 -59 -98 -87t-114 -28t-96 37t-42 113q0 104 219 278
q-74 -8 -117 -8q-444 0 -502 354q-18 115 -18 371v393q0 90 -70 105q-51 10 -82 14q-2 4 -2 18t5 17l280 -6l299 6q4 -2 4 -16t-4 -19q-16 -2 -81 -13t-68 -104q-2 -47 -2 -548q0 -154 20 -240q53 -229 331 -229t310 315q27 246 6 666q-2 73 -22 101q-30 42 -158 52
q-4 4 -4 18t4 17l211 -6l215 6q4 -4 4 -17z" />
    <glyph glyph-name="uni0173" unicode="&#x173;" horiz-adv-x="999" 
d="M371 504q0 -250 10 -289q23 -92 127 -92q57 0 94 29q10 8 16 36q6 55 0 471q0 51 -30 61t-107 21q-4 23 4 35q215 0 387 29q-4 -86 -4 -232v-391q4 -74 39 -76q29 -2 72 0q0 -31 -6 -38q-14 -6 -45 -16t-45 -17q-154 -141 -154 -262q0 -39 24 -62q54 -52 160 8
q10 -23 -4 -45q-37 -57 -93 -83q-123 -57 -201 10q-40 35 -40 103t72 158q72 89 156 148q-135 -39 -166 -39q-19 17 -19 93q-1 54 -10 45q-143 -131 -260 -132q-225 0 -225 250q0 371 -2 416t-8 60q-11 27 -93 36q-6 25 7 37q272 12 356 33q-12 -55 -12 -305z" />
    <glyph glyph-name="uni0174" unicode="&#x174;" horiz-adv-x="1708" 
d="M1208 1288q-8 0 -122 48t-129 56t-21 9q-6 0 -20 -9q-14 -8 -119 -56q-103 -48 -111 -48t-14 12t-4 17q238 197 252 215t32 18q20 -22 128 -114t147 -119q0 -5 -6 -17q-5 -12 -13 -12zM520 1219q0 -14 -4 -19q-80 -14 -100 -28t-13 -52q76 -272 228 -733q2 -2 5 -2t5 4
q199 512 274 774q35 -4 84 2q37 -117 150 -401t162 -395h6l2 2q147 465 194 682q20 94 -47 116q-25 10 -133 31q-4 4 -4 18t4 17l246 -6l203 6q2 -4 2 -16t-2 -19q-78 -20 -98 -29q-39 -18 -84 -146q-46 -128 -178 -550t-156 -498q-68 8 -99 -2q-51 143 -158 423
q-108 280 -149 370q-4 4 -8 -4q-236 -621 -293 -787q-10 2 -51 1t-53 -3q-59 229 -183 630t-172 497q-6 14 -25 38t-49 35t-102 25q-4 4 -2 18t6 17l295 -6l293 6q4 -2 4 -16z" />
    <glyph glyph-name="uni0175" unicode="&#x175;" horiz-adv-x="1271" 
d="M526 891q-10 0 -6 10q33 49 100 164t85 158q2 6 20 12t27 6q86 -188 184 -319q-4 -8 -39 -20t-47 -11q-14 6 -62 76q-47 70 -65 108q-6 4 -10 0q-82 -139 -113 -161t-74 -23zM1323 780q0 -14 -4 -18q-53 -10 -74 -21q-43 -23 -74 -92q-174 -420 -247 -655q-45 6 -111 -4
q-35 100 -98 262t-75 182t-19 15q-98 -227 -185 -455q-49 8 -106 -2q-188 607 -241 702q-19 34 -45 48t-79 20q-2 4 -2 17t2 20l262 -6q61 0 203 6q4 -3 5 -17t-1 -20q-64 -13 -70 -28q-6 -14 1 -42t59 -190t68 -207q2 -2 8 0q125 303 166 465q14 -2 54 -2t52 2
q55 -167 184 -475q6 -6 9 0q86 207 131 379q8 25 2 43q-14 41 -137 55q-2 4 -2 18q1 14 6 19l192 -6q20 0 162 6q4 -5 4 -19z" />
    <glyph glyph-name="uni0176" unicode="&#x176;" horiz-adv-x="1105" 
d="M878 1317q-7 0 -121 48t-133 58t-36 -1t-121 -58q-103 -47 -111 -47t-14 12t-4 17q236 198 250 216t35 17q20 -23 128 -115t146 -118q0 -6 -6 -18t-13 -11zM258 12q0 16 4 19q70 8 101 15q53 12 59 69q6 56 6 383q0 51 -22 98q-117 246 -212 402t-138 178q-15 8 -52 16
t-51 8q-4 4 -4 18t4 17l276 -6q176 0 281 6q4 -4 4 -17t-2 -18q-8 0 -70 -16q-39 -12 -20 -54q88 -193 242 -466q4 -4 10 0q47 78 119 221t93 199t12 71q-8 17 -36 25t-98 20q-2 6 0 20t4 15l213 -6l193 6q4 -2 4 -16t-4 -19q-53 -8 -72 -14q-82 -25 -148 -137
q-170 -297 -237 -437q-23 -45 -23 -93t6 -355q2 -51 16 -79t49 -37q36 -9 103 -17q2 -3 0 -19t-4 -18l-313 6l-289 -6q-4 2 -4 18z" />
    <glyph glyph-name="uni0177" unicode="&#x177;" horiz-adv-x="876" 
d="M309 891q-10 0 -6 10q33 49 99 164q67 115 85 158q3 6 21 12t27 6q86 -188 184 -319q-4 -8 -39 -20t-47 -11q-14 6 -62 76q-47 70 -65 108q-6 4 -10 0q-82 -139 -113 -161t-74 -23zM0 799l231 -6q51 0 218 6q8 -25 2 -37q-59 -14 -62 -17q-20 -10 -12 -38
q39 -125 174 -428h6q41 88 85 223q44 134 45 158t2 36q2 28 -38 43q-41 14 -100 23q-2 4 1 19t5 18l178 -6q63 0 180 6q3 -3 3 -17t-3 -20q-63 -10 -88 -27q-35 -27 -69 -121q-186 -500 -475 -1009q-24 -44 -72 -115l-12 -8q-86 18 -105 59q-2 3 -1 13t3 12q221 258 310 430
q-43 86 -164 376t-143 326t-53 48t-54 16q-2 4 2 19t6 18z" />
    <glyph glyph-name="Ydieresis" unicode="&#x178;" horiz-adv-x="1105" 
d="M883 1419q0 -42 -41 -78q-10 -6 -50 -9t-53 1q-41 25 -50 75t9 69q28 37 90 37t80 -25q15 -28 15 -70zM551 1419q0 -42 -41 -78q-10 -6 -50 -9t-50 1q-50 29 -56 76t11 68q33 37 96 37t77 -27q14 -26 13 -68zM258 12q0 16 4 19q70 8 101 15q53 12 59 69q6 56 6 383
q0 51 -22 98q-117 246 -212 402t-138 178q-15 8 -52 16t-51 8q-4 4 -4 18t4 17l276 -6q176 0 281 6q4 -4 4 -17t-2 -18q-8 0 -70 -16q-39 -12 -20 -54q88 -193 242 -466q4 -4 10 0q47 78 119 221t93 199t12 71q-8 17 -36 25t-98 20q-2 6 0 20t4 15l213 -6l193 6q4 -2 4 -16
t-4 -19q-53 -8 -72 -14q-82 -25 -148 -137q-170 -297 -237 -437q-23 -45 -23 -93t6 -355q2 -51 16 -79t49 -37q36 -9 103 -17q2 -3 0 -19t-4 -18l-313 6l-289 -6q-4 2 -4 18z" />
    <glyph glyph-name="uni0179" unicode="&#x179;" horiz-adv-x="1132" 
d="M870 1506q0 -10 -2 -11q-16 -18 -173 -102t-164 -84t-15 9t-8 19q35 45 124 145t107 109q17 1 69 -29t57 -38t5 -18zM287 1229h426q215 0 331 6q4 -4 5 -27q-71 -117 -343 -609t-292 -527q-6 -12 6 -13q45 -6 377 -6q61 0 106 33q72 55 170 258q3 2 17 -2t18 -8
q-8 -51 -41 -164t-53 -158q-12 -23 -146 -22l-610 10q-114 0 -195 -6q-2 2 -4 12t0 12q74 98 344 564t320 575q6 10 -6 10q-73 2 -225 0t-216 -9t-108 -66q-37 -55 -86 -174q-4 -2 -20 2t-19 8q49 203 61 327q78 -26 183 -26z" />
    <glyph glyph-name="uni017A" unicode="&#x17a;" horiz-adv-x="794" 
d="M463 1196q8 6 81 11t91 1q2 -2 4 -9t0 -9q-18 -41 -250 -303q-6 -4 -19 1t-14 13q44 129 107 295zM430 735q-124 0 -182 -4t-88 -36t-82 -156q-4 -2 -20 3t-21 9q37 152 47 260q45 -18 166 -18h274q101 0 191 4q2 0 2 -27q-39 -86 -169 -337t-192 -359q-21 -21 201 -21
q91 0 176 207q8 4 43 8l6 -2q-14 -109 -67 -237q-14 -35 -37 -35l-629 6q-9 18 3 39q293 487 384 686q6 10 -6 10z" />
    <glyph glyph-name="uni017B" unicode="&#x17b;" horiz-adv-x="1132" 
d="M684 1424q0 -51 -45 -87q-14 -8 -61 -13t-58 1q-59 33 -63 82q-9 57 19 89t118 32q35 0 74 -29q16 -24 16 -75zM287 1229h426q215 0 331 6q4 -4 5 -27q-71 -117 -343 -609t-292 -527q-6 -12 6 -13q45 -6 377 -6q61 0 106 33q72 55 170 258q3 2 17 -2t18 -8
q-8 -51 -41 -164t-53 -158q-12 -23 -146 -22l-610 10q-114 0 -195 -6q-2 2 -4 12t0 12q74 98 344 564t320 575q6 10 -6 10q-73 2 -225 0t-216 -9t-108 -66q-37 -55 -86 -174q-4 -2 -20 2t-19 8q49 203 61 327q78 -26 183 -26z" />
    <glyph glyph-name="uni017C" unicode="&#x17c;" horiz-adv-x="794" 
d="M520 1081q0 -54 -49 -92q-14 -8 -64 -13t-63 1q-58 33 -68 91t13 81q43 43 135 43q47 0 78 -31q18 -26 18 -80zM430 735q-124 0 -182 -4t-88 -36t-82 -156q-4 -2 -20 3t-21 9q37 152 47 260q45 -18 166 -18h274q101 0 191 4q2 0 2 -27q-39 -86 -169 -337t-192 -359
q-21 -21 201 -21q91 0 176 207q8 4 43 8l6 -2q-14 -109 -67 -237q-14 -35 -37 -35l-629 6q-9 18 3 39q293 487 384 686q6 10 -6 10z" />
    <glyph glyph-name="Zcaron" unicode="&#x17d;" horiz-adv-x="1132" 
d="M308 1556q7 0 121 -48t129 -56q16 -8 22 -8t20 9t119 56q104 47 111 47q8 0 14 -12t4 -16q-238 -198 -252 -216t-33 -18q-20 23 -128 115t-146 119q0 6 6 17t13 11zM287 1229h426q215 0 331 6q4 -4 5 -27q-71 -117 -343 -609t-292 -527q-6 -12 6 -13q45 -6 377 -6
q61 0 106 33q72 55 170 258q3 2 17 -2t18 -8q-8 -51 -41 -164t-53 -158q-12 -23 -146 -22l-610 10q-114 0 -195 -6q-2 2 -4 12t0 12q74 98 344 564t320 575q6 10 -6 10q-73 2 -225 0t-216 -9t-108 -66q-37 -55 -86 -174q-4 -2 -20 2t-19 8q49 203 61 327q78 -26 183 -26z
" />
    <glyph glyph-name="zcaron" unicode="&#x17e;" horiz-adv-x="794" 
d="M596 1235q10 0 6 -10q-30 -47 -98 -164t-86 -160q-2 -6 -20 -12t-27 -6q-88 195 -185 321q4 8 39 20t47 11q14 -6 62 -77t65 -109q7 -4 11 0q88 145 116 165t70 21zM430 735q-124 0 -182 -4t-88 -36t-82 -156q-4 -2 -20 3t-21 9q37 152 47 260q45 -18 166 -18h274
q101 0 191 4q2 0 2 -27q-39 -86 -169 -337t-192 -359q-21 -21 201 -21q91 0 176 207q8 4 43 8l6 -2q-14 -109 -67 -237q-14 -35 -37 -35l-629 6q-9 18 3 39q293 487 384 686q6 10 -6 10z" />
    <glyph glyph-name="longs" unicode="&#x17f;" horiz-adv-x="516" 
d="M25 11q0 15 4 20q61 10 86 21t24 71v567q0 14 -8 15l-90 6q0 37 16 53q9 2 25 6l32 8t21 6q8 6 8 15q0 174 63 298q62 124 210 218q113 72 186 65q62 0 108 -22t64 -53v-27q-16 -45 -100 -137h-19q-2 2 -35 40q-94 105 -148 105t-69 -49q-14 -57 -17 -147t-1 -411t8 -532
q3 -90 42 -101q17 -5 33 -7t32 -5q18 -3 20 -3q2 -3 -2 -19t-6 -18l-274 6l-209 -6q-4 2 -4 17z" />
    <glyph glyph-name="uni018F" unicode="&#x18f;" horiz-adv-x="1286" 
d="M647 12q86 0 145 77q102 136 111 407q0 4 -8 4q-399 10 -487 -11q-16 -4 -30 -26q-13 -23 -13 -49q-1 -164 67 -283t215 -119zM584 -37q-236 0 -366 137t-130 328q0 29 10 80q78 41 447 51q100 2 356 2q4 0 6 6v31q0 606 -391 606q-121 0 -209 -51q-43 -25 -86 -88
t-71 -129q-6 -2 -20 4t-13 10l86 242q10 2 132 37t275 36q152 1 267 -53q207 -96 281 -340q34 -109 34 -227q0 -209 -84 -373t-256 -249q-114 -60 -268 -60z" />
    <glyph glyph-name="florin" unicode="&#x192;" horiz-adv-x="991" 
d="M367 696q10 0 10 9q53 373 289 534q104 72 183 72t114 -29q32 -16 -18 -104q-26 -46 -38 -62q-14 -14 -26 -2q-94 117 -140 117q-27 0 -45 -53q-31 -100 -69 -467q0 -14 6 -15q121 0 182 6q2 -10 -20 -45q-43 -23 -81 -27t-89 -3q-1 0 -7 -6t-6 -11q-70 -465 -73 -491
q-25 -125 -82 -222t-125 -147q-134 -100 -232 -99t-133 52q-11 22 -6 35q23 82 55 125q2 2 14 4t16 -4q5 -6 44 -54t63 -66q24 -17 40 -17t26 7q25 17 43 126q18 108 51 373t49 386q0 8 -6 9q-82 0 -135 4q0 4 15 34q14 30 18 33q6 -2 113 -2z" />
    <glyph glyph-name="uni019F" unicode="&#x19f;" horiz-adv-x="1499" 
d="M744 578q-314 0 -343 4q-8 0 -8 -11q18 -330 168 -462q100 -90 240 -91q102 0 172 70q141 143 141 487v15q-56 -12 -370 -12zM750 -37q-324 0 -498 191q-158 172 -158 462q0 238 111 390q90 124 232 192t321 68q305 0 476 -180t171 -446q0 -267 -119 -423
q-178 -254 -536 -254zM401 662q82 -8 378 -8h313q18 1 18 5q-27 338 -184 476q-80 78 -209 77q-94 0 -166 -57q-156 -125 -164 -467q0 -27 14 -26z" />
    <glyph glyph-name="Ohorn" unicode="&#x1a0;" horiz-adv-x="1501" 
d="M1364 1382q72 0 72 -90t-69 -136t-167 -36q207 -178 207 -487q0 -252 -121 -412q-180 -258 -541 -258q-307 0 -481 187q-86 92 -128 218t-42 248q0 231 115 390q190 260 549 260q110 0 280 -47t218 -47t49 32q-1 56 -62 105l6 20q15 17 55 35t60 18zM798 18q114 0 180 72
t98 203t32 285t-45 310t-135 240t-200 84t-177 -57q-158 -127 -158 -469q0 -170 48 -333q47 -163 145 -249t212 -86z" />
    <glyph glyph-name="ohorn" unicode="&#x1a1;" horiz-adv-x="999" 
d="M471 772q-135 0 -135 -315q0 -209 54 -322t140 -112q41 0 64 22q68 69 68 277t-50 329t-141 121zM983 878q0 -62 -50 -107q-50 -44 -132 -48q133 -121 133 -317q0 -250 -189 -365q-98 -66 -247 -66q-209 0 -321 122t-111 309q0 225 178 339q113 76 268 76q58 0 86 -7
q28 -8 93 -24t134 -16q49 4 49 36t-32 74q-33 42 -60 52q0 8 6 20q18 18 56 36t64 20q26 0 50 -36t25 -98z" />
    <glyph glyph-name="Uhorn" unicode="&#x1af;" horiz-adv-x="1351" 
d="M1278 1229q55 0 55 35q1 36 -29 74t-55 48l6 21q19 17 55 35t62 18t47 -30q20 -30 21 -76q0 -125 -150 -185q-43 -16 -56 -36t-16 -70q-4 -50 -6 -151t-5 -224t-5 -172q-8 -291 -137 -422t-373 -131q-444 0 -502 354q-18 115 -18 371v393q0 90 -70 105q-51 10 -82 14
q-2 4 -2 18t5 17l280 -6l299 6q4 -2 4 -16t-4 -19q-16 -2 -81 -13t-68 -104q-2 -47 -2 -548q0 -154 20 -240q53 -229 331 -229t310 315q27 246 6 666q-2 73 -22 101q-30 42 -158 52q-4 4 -4 18t4 17l215 -6h125z" />
    <glyph glyph-name="uhorn" unicode="&#x1b0;" horiz-adv-x="999" 
d="M371 504q0 -250 10 -289q23 -92 127 -92q57 0 94 29q10 8 16 36q6 55 0 471q0 51 -30 61t-107 21q-4 23 4 35q327 0 414 25q39 11 39 44q0 32 -33 74t-59 52l6 20q18 19 55 37t64 18t49 -32q22 -33 22 -80q0 -145 -153 -184q-12 -4 -19 -21l-2 -156v-391q4 -74 39 -76
q29 -2 72 0q0 -31 -6 -38q-72 -29 -187 -63t-149 -34q-19 17 -19 93q-1 54 -10 45q-143 -131 -260 -132q-225 0 -225 250q0 371 -2 416t-8 60q-11 27 -93 36q-6 25 7 37q272 12 356 33q-12 -55 -12 -305z" />
    <glyph glyph-name="uni01C4" unicode="&#x1c4;" horiz-adv-x="2549" 
d="M1725 1556q7 0 121 -48t130 -56t21 -8q7 0 21 9t118 56t112 47t13 -12q6 -12 4 -16q-237 -198 -251 -216t-34 -18q-20 23 -128 115t-146 119q0 6 6 17t13 11zM1704 1229h426q215 0 332 6q4 -4 4 -27q-40 -65 -327 -583q-288 -518 -308 -553q-6 -12 6 -13q47 -6 377 -6
q61 0 106 33q72 55 170 258q2 2 16 -2t19 -8q-8 -51 -41 -164t-53 -158q-12 -23 -145 -22l-611 10q-116 0 -194 -6q-2 2 -4 12t0 12q74 98 344 564t319 575q6 10 -6 10q-72 2 -224 0t-216 -9t-109 -66q-37 -55 -86 -174q-4 -2 -20 2t-19 8q49 203 62 327q78 -26 182 -26z
M696 39q126 0 209 113q123 168 123 458q0 158 -55 298q-109 278 -412 278q-59 0 -73 -10t-17 -35q-2 -49 -2 -472t8 -507q0 -35 27 -62q66 -61 192 -61zM203 599q0 380 -8 503q-4 54 -40 70t-124 28q-2 4 0 18t4 17q123 -6 284 -6l388 8q428 0 565 -333q51 -126 51 -265
q0 -295 -174 -465q-199 -188 -563 -188l-508 8h-55q-2 2 -3 18q0 16 3 19q90 8 120 18q41 12 51 91t9 459z" />
    <glyph glyph-name="uni01C5" unicode="&#x1c5;" horiz-adv-x="2211" 
d="M2013 1235q10 0 6 -10q-31 -47 -99 -164t-85 -160q-2 -6 -20 -12t-27 -6q-88 195 -184 321q4 8 38 20t48 11q14 -6 61 -77t66 -109q6 -4 10 0q88 145 116 165t70 21zM1847 735q-123 0 -181 -4t-90 -36q-30 -32 -81 -156q-4 -2 -20 3t-21 9q37 152 47 260q47 -18 166 -18
h275q100 0 190 4q2 0 2 -27q-39 -86 -169 -337t-191 -359q-21 -21 200 -21q91 0 176 207q8 4 43 8l7 -2q-14 -109 -68 -237q-14 -35 -37 -35l-629 6q-9 18 3 39q293 487 384 686q6 10 -6 10zM696 39q126 0 209 113q123 168 123 458q0 158 -55 298q-109 278 -412 278
q-59 0 -73 -10t-17 -35q-2 -49 -2 -472t8 -507q0 -35 27 -62q66 -61 192 -61zM203 599q0 380 -8 503q-4 54 -40 70t-124 28q-2 4 0 18t4 17q123 -6 284 -6l388 8q428 0 565 -333q51 -126 51 -265q0 -295 -174 -465q-199 -188 -563 -188l-508 8h-55q-2 2 -3 18q0 16 3 19
q90 8 120 18q41 12 51 91t9 459z" />
    <glyph glyph-name="uni01C6" unicode="&#x1c6;" horiz-adv-x="1810" 
d="M1612 1235q10 0 6 -10q-30 -47 -98 -164t-86 -160q-2 -6 -20 -12t-28 -6q-88 195 -184 321q4 8 39 20t47 11q14 -6 62 -77t65 -109q6 -4 10 0q88 145 116 165t71 21zM1446 735q-124 0 -182 -4t-88 -36t-82 -156q-4 -2 -20 3t-21 9q37 152 47 260q45 -18 166 -18h274
q101 0 191 4q2 0 2 -27q-39 -86 -169 -337t-192 -359q-21 -21 201 -21q91 0 176 207q8 4 43 8l6 -2q-14 -109 -67 -237q-14 -35 -37 -35l-629 6q-9 18 3 39q293 487 384 686q6 10 -6 10zM563 117q74 0 74 39q8 285 -2 454q-3 68 -55 110t-109 42t-96 -49q-55 -67 -55 -227
t67 -264q68 -104 176 -105zM993 98q0 -27 -8 -35q-55 -29 -178 -63t-145 -35q-22 0 -21 17q-4 29 -4 102q0 8 -8 4q-68 -43 -145 -76t-124 -32q-127 0 -208 104q-86 104 -86 289q0 96 40 187t106 140t174 85t187 36h54q10 0 10 8q4 217 -6 359q-8 63 -41 78q-49 18 -94 22
q-2 4 -1 18t5 17q88 0 215 18t184 39q2 -2 8 -18q-18 -37 -20 -210q-2 -172 -2 -496t4 -418t12 -115q7 -21 27 -23t65 -2z" />
    <glyph glyph-name="uni01C7" unicode="&#x1c7;" horiz-adv-x="1710" 
d="M1679 1218q0 -13 -2 -18q-53 -8 -77 -19t-33 -35q-11 -24 -11 -62t-2 -374q-2 -335 -10 -472q-10 -201 -96 -353q-88 -147 -197 -226t-208 -79t-132 45v35q16 80 54 147q63 -47 131 -77t100 -31q32 0 51 22q29 37 33 249t2 665q-2 454 -11 478q-1 3 -2 14t-3 15t-8 15
q-6 12 -37 25q-42 12 -103 18q-4 4 -4 18t4 17l305 -6l254 6q2 -4 2 -17zM33 12q0 16 4 19q82 10 102 16q45 12 54 92q10 113 10 496q0 447 -7 490t-47 55q-41 12 -96 20q-2 4 -2 18t4 17l271 -6q109 0 280 6q4 -4 4 -17t-4 -18q-68 -12 -92 -20t-31 -28q-8 -20 -12 -67
l-4 -409q-4 -406 6 -531q4 -57 39 -63q102 -14 248 -10q61 0 104 41t89 113t73 141q4 4 20 1t17 -10q-8 -53 -46 -178t-65 -164q-14 -25 -149 -24l-473 8l-293 -6q-4 2 -4 18z" />
    <glyph glyph-name="uni01C8" unicode="&#x1c8;" horiz-adv-x="1591" 
d="M1092 742q0 15 4 20q222 10 372 67q0 -447 -4 -650t-24 -298q-35 -155 -146 -273t-194 -149q-20 4 -31 19q-4 10 0 14q82 37 112 115t29 266q0 696 -4 750q-4 55 -32 73t-78 25q-4 6 -4 21zM1452 1092q0 -62 -49 -97q-7 -6 -61 -16t-66 -4q-74 39 -68 125q2 27 14 41
t57 31q46 18 98 18t61 -19q14 -17 14 -79zM33 12q0 16 4 19q82 10 102 16q45 12 54 92q10 113 10 496q0 447 -7 490t-47 55q-41 12 -96 20q-2 4 -2 18t4 17l271 -6q109 0 280 6q4 -4 4 -17t-4 -18q-68 -12 -92 -20t-31 -28q-8 -20 -12 -67l-4 -409q-4 -406 6 -531
q4 -57 39 -63q102 -14 248 -10q61 0 104 41t89 113t73 141q4 4 20 1t17 -10q-8 -53 -46 -178t-65 -164q-14 -25 -149 -24l-473 8l-293 -6q-4 2 -4 18z" />
    <glyph glyph-name="uni01C9" unicode="&#x1c9;" horiz-adv-x="1032" 
d="M909 829q0 -447 -4 -650t-24 -298q-35 -155 -146 -273t-194 -149q-20 4 -31 19q-4 10 0 14q82 37 112 115t29 266q0 696 -4 750q-4 55 -33 73t-77 25q-4 6 -5 21q0 15 5 20q222 10 372 67zM893 1092q0 -62 -49 -97q-8 -6 -62 -16t-65 -4q-74 39 -68 125q2 27 13 41
q12 14 58 31q46 18 97 18t62 -19q14 -17 14 -79zM25 12q0 14 4 19q41 6 61 15t30 36t11 521q0 494 -8 593q-6 47 -29 57t-65 17q-4 4 -4 16t4 17q77 3 191 29t165 48q10 -10 10 -14q-16 -29 -17 -172q-1 -144 -1 -572t3 -482t14 -74t87 -35q5 -10 -4 -37l-84 2q-82 4 -153 4
l-211 -6q-4 4 -4 18z" />
    <glyph glyph-name="uni01CA" unicode="&#x1ca;" horiz-adv-x="1986" 
d="M1956 1218q0 -13 -2 -18q-53 -8 -77 -19q-44 -19 -44 -97q0 -640 -11 -844q-10 -202 -98 -352t-196 -229t-208 -79q-99 0 -132 45v35q16 80 53 147q63 -47 131 -77t100 -31q32 0 52 22q28 37 32 249t2 663q-2 452 -11 480q-1 3 -2 14t-3 15t-8 15q-15 30 -139 43
q-4 4 -4 18t4 17l305 -6l254 6q2 -4 2 -17zM4 13q0 15 4 18q88 12 114 20t40 32t22 81q23 180 23 868q0 45 -23 87t-59 57q-64 20 -111 24q-2 4 -2 18t4 17q40 2 144 -2t168 -4t94 4q8 -25 67 -103q342 -463 619 -802q2 0 2 1t4 321t-7 396q-11 74 -29 98q-30 39 -177 56
q-2 4 -2 18t4 17l254 -6l201 6q4 -4 4 -17t-4 -18q-70 -12 -80 -16q-43 -14 -58 -43q-14 -29 -24 -151t-14 -724l2 -274q-92 4 -178 -2q-45 70 -369 504t-352 475q-8 8 -9 -2q-4 -168 -3 -451t5 -345t25 -89t59 -34t115 -17q4 -5 4 -19t-4 -18l-229 6l-240 -6q-4 4 -4 19z
" />
    <glyph glyph-name="uni01CB" unicode="&#x1cb;" horiz-adv-x="1867" 
d="M1487 -127q0 696 -4 750q-4 55 -33 73t-78 25q-4 6 -4 21t4 20q223 10 373 67q0 -447 -4 -650t-25 -298q-36 -155 -146 -273t-194 -149q-20 4 -30 19q-4 10 0 14q82 37 111 115q30 78 30 266zM1729 1092q0 -62 -50 -97q-8 -6 -61 -16t-66 -4q-73 39 -67 125q2 27 13 41
t57 31q46 18 97 18t62 -19q15 -17 15 -79zM4 13q0 15 4 18q88 12 114 20t40 32t22 81q23 180 23 868q0 45 -23 87t-59 57q-64 20 -111 24q-2 4 -2 18t4 17q40 2 144 -2t168 -4t94 4q8 -25 67 -103q342 -463 619 -802q2 0 2 1t4 321t-7 396q-11 74 -29 98q-30 39 -177 56
q-2 4 -2 18t4 17l254 -6l201 6q4 -4 4 -17t-4 -18q-70 -12 -80 -16q-43 -14 -58 -43q-14 -29 -24 -151t-14 -724l2 -274q-92 4 -178 -2q-45 70 -369 504t-352 475q-8 8 -9 -2q-4 -168 -3 -451t5 -345t25 -89t59 -34t115 -17q4 -5 4 -19t-4 -18l-229 6l-240 -6q-4 4 -4 19z
" />
    <glyph glyph-name="uni01CC" unicode="&#x1cc;" horiz-adv-x="1556" 
d="M1176 -127q0 696 -4 750q-4 55 -34 73q-28 18 -77 25q-4 6 -4 21t4 20q223 10 373 67q0 -447 -4 -650t-25 -298q-35 -155 -145 -273t-195 -149q-20 4 -31 19q-4 10 0 14q82 37 112 115t30 266zM1417 1092q0 -62 -49 -97q-8 -6 -61 -16t-66 -4q-73 39 -67 125q2 27 13 41
t57 31q46 18 97 18t62 -19q14 -17 14 -79zM555 13q0 15 2 18q71 10 80 28q8 17 12 61t4 218t-14 234q-25 110 -141 110q-47 0 -92 -27q-16 -8 -17 -24q0 -425 3 -489t19 -84t87 -27q2 -5 1 -19t-3 -18q-228 6 -274 6t-181 -6q-10 17 -2 37q37 6 55 10q41 9 44 105t3 268
t-3 200t-5 35t-22 27t-60 33q0 27 6 32q219 25 332 88q6 -6 6 -14q-6 -49 -6 -85t3 -37t5 1q156 127 260 127q133 0 199 -110q45 -76 45 -234q0 -361 1 -379t13 -30q37 -31 89 -37q0 -29 -9 -37l-202 6q-27 0 -236 -6q-2 4 -2 19z" />
    <glyph glyph-name="uni01F1" unicode="&#x1f1;" horiz-adv-x="2549" 
d="M1704 1229h426q215 0 332 6q4 -4 4 -27q-40 -65 -327 -583q-288 -518 -308 -553q-6 -12 6 -13q47 -6 377 -6q61 0 106 33q72 55 170 258q2 2 16 -2t19 -8q-8 -51 -41 -164t-53 -158q-12 -23 -145 -22l-611 10q-116 0 -194 -6q-2 2 -4 12t0 12q74 98 344 564t319 575
q6 10 -6 10q-72 2 -224 0t-216 -9t-109 -66q-37 -55 -86 -174q-4 -2 -20 2t-19 8q49 203 62 327q78 -26 182 -26zM696 39q126 0 209 113q123 168 123 458q0 158 -55 298q-109 278 -412 278q-59 0 -73 -10t-17 -35q-2 -49 -2 -472t8 -507q0 -35 27 -62q66 -61 192 -61z
M203 599q0 380 -8 503q-4 54 -40 70t-124 28q-2 4 0 18t4 17q123 -6 284 -6l388 8q428 0 565 -333q51 -126 51 -265q0 -295 -174 -465q-199 -188 -563 -188l-508 8h-55q-2 2 -3 18q0 16 3 19q90 8 120 18q41 12 51 91t9 459z" />
    </font>
</defs>
</svg>
