<?xml version="1.0" standalone="no"?>
<!DOCTYPE svg PUBLIC "-//W3C//DTD SVG 1.1//EN" "http://www.w3.org/Graphics/SVG/1.1/DTD/svg11.dtd" >
<svg xmlns="http://www.w3.org/2000/svg">
<metadata>
Created by FontPrep 20130207 at Tue Jul 18 09:02:18 2017
 By Richard Lyon
Copyright  2005, Joshua Darden &#38; Phil's Fonts, Inc. All rights reserved. Published by Garagefonts USA 301-260-2285 www.garagefonts.com
</metadata>
<defs>
<font id="3c1032f30cc858d6dd1fdf56390c125f" horiz-adv-x='1024' >
  <font-face 
    font-family="FreightDispBookSC"
    font-weight="400"
    font-stretch="normal"
    units-per-em="2048"
    panose-1="2 0 6 3 8 0 0 2 0 4"
    ascent="1536"
    descent="-512"
    x-height="952"
    cap-height="1280"
    bbox="-109 -555 2576 1761"
    underline-thickness="40"
    underline-position="-299"
    unicode-range="U+0020-FB02"
  />
<missing-glyph horiz-adv-x="1024" 
 />
    <glyph glyph-name=".notdef" horiz-adv-x="1024" 
 />
    <glyph glyph-name=".null" horiz-adv-x="0" 
 />
    <glyph glyph-name=".null" horiz-adv-x="0" 
 />
    <glyph glyph-name="nonmarkingreturn" horiz-adv-x="681" 
 />
    <glyph glyph-name="space" unicode=" " horiz-adv-x="284" 
 />
    <glyph glyph-name="exclam" unicode="!" horiz-adv-x="507" 
d="M257 -31q-48 0 -81 34t-33 75t33 72.5t81 31.5t78 -31.5t30 -72.5t-30 -75t-78 -34zM250 1311h16q77 0 79.5 -42t0.5 -61l-76 -831q-2 -10 -12 -10t-12 10l-78 831q-8 73 21.5 88t60.5 15z" />
    <glyph glyph-name="quotedbl" unicode="&#x22;" horiz-adv-x="641" 
d="M262 1315l68 -27l-299 -463h-23zM541 1323h2l106 -45l-319 -453h-21z" />
    <glyph glyph-name="numbersign" unicode="#" horiz-adv-x="1052" 
d="M-23 387v33h287l115 434h-279v35h289l107 405h36l-108 -405h342l108 405h37l-106 -405h278v-35h-288l-113 -434h276v-33h-286l-105 -397h-37l105 397h-342l-105 -397h-36l104 397h-279zM643 420l115 434h-340l-117 -434h342z" />
    <glyph glyph-name="dollar" unicode="$" horiz-adv-x="940" 
d="M762 287q0 117 -75 184.5t-212 116.5l-6 -24q-6 -24 -16.5 -62.5t-23.5 -89t-37 -138.5t-64 -245q136 -42 251 1t149 120t34 137zM488 1270q-119 0 -192 -69t-73 -171q0 -146 102.5 -197t159.5 -73l129 487q-62 23 -126 23zM464 -29q-86 0 -149 9l-84 -318h-34l84 322
q-123 18 -209 49l-23 315h33l84 -207q49 -66 129 -100l147 559q0 2 -2 2h-4q-160 55 -250 135.5t-90 221.5q0 140 108 244t290 104q50 0 135 -11l57 217h35l-59 -223q60 -16 77 -22l90 26l13 -338h-33l-109 246q-23 16 -53 31l-9 -36q-15 -59 -44 -163t-43 -158.5t-24 -91.5
l-9 -36h2q176 -60 277.5 -148.5t101.5 -244.5t-92 -238t-174.5 -114t-168.5 -32z" />
    <glyph glyph-name="percent" unicode="%" horiz-adv-x="1216" 
d="M1047 1311h47l-926 -1340h-49zM913.5 -35q-65.5 0 -117 22.5t-87 61.5t-55 90t-19.5 108.5t19.5 110t55 91t87 62.5t117 24t117.5 -24t88 -62.5t55.5 -91t19.5 -110t-19.5 -108.5t-55.5 -90t-88 -61.5t-117.5 -22.5zM913.5 6q110.5 0 173 70.5t62.5 172.5t-64.5 173.5
t-171.5 71.5t-170 -72.5t-63 -173.5q0 -100 61.5 -171t172 -71zM99.5 1234q76.5 83 201.5 83t204 -83t79 -203t-78 -201.5t-205 -81.5q-126 0 -202 81.5t-76 201.5t76.5 203zM302 788q110 0 173.5 71t63.5 172t-65.5 173t-170.5 72t-170 -71t-65 -173t62 -173t172 -71z" />
    <glyph glyph-name="ampersand" unicode="&#x26;" horiz-adv-x="1183" 
d="M25 268q0 119 80.5 209t211.5 133q-159 84 -159 217q0 98 86 174t201 76t186 -59t71 -134q0 -156 -210 -227q131 -64 203.5 -159t95.5 -138q81 107 111 162.5t30 67.5q4 49 -109 53l-32 4l-7 29h394l-7 -29l-36 -4q-79 -12 -115.5 -50t-63.5 -71l-147 -190
q79 -154 124.5 -209t100.5 -55t89 23.5t63 49.5l16 -22q-115 -144 -217 -144t-160.5 63.5t-111.5 178.5q-96 -115 -184.5 -178.5t-176.5 -63.5q-158 0 -242.5 87t-84.5 206zM392 84q94 0 163.5 43t138.5 123q-121 252 -350 346q-180 -93 -184 -270q0 -102 69 -172t163 -70z
M461 672q121 59 121 185t-56.5 156.5t-93.5 30.5q-70 0 -111.5 -49t-41.5 -119t45 -116.5t137 -87.5z" />
    <glyph glyph-name="quotesingle" unicode="'" horiz-adv-x="329" 
d="M262 1315l68 -27l-299 -463h-23z" />
    <glyph glyph-name="parenleft" unicode="(" horiz-adv-x="696" 
d="M131 393.5q0 186.5 53.5 342t133 275t174 202.5t176.5 126l20 -32q-80 -43 -169 -126t-215 -278.5t-126 -510.5q0 -316 126 -510.5t215 -277.5t169 -126l-20 -33q-82 45 -176.5 129t-174 204t-133 274.5t-53.5 341z" />
    <glyph glyph-name="parenright" unicode=")" horiz-adv-x="696" 
d="M518 392q0 175 -50 323.5t-126 265.5t-165 200t-169 126l21 32q82 -43 176 -126t174 -202.5t133 -275t53 -342t-53 -341t-133 -274.5t-174 -204t-176 -129l-21 33q80 43 169 126t165 199.5t126 265t50 323.5z" />
    <glyph glyph-name="asterisk" unicode="*" horiz-adv-x="647" 
d="M295 985q0 6 -4 10l-191 68l-59 111q-2 4 2 10t8 6l131 -14l117 -172q2 -4 10 -1t8 7l9 211l88 84q3 3 16 -5l27 -122l-127 -172q-2 -4 3 -11.5t7 -5.5l203 64l106 -64q4 2 4 -6t-4 -10l-106 -60l-203 64q-2 2 -7 -5t-3 -11l121 -173l-23 -118q0 -6 -18 -6l-93 90l-2 204
q0 4 -6 7.5t-8 -0.5l-119 -162l-127 -21q-2 0 -7 6.5t-5 8.5l57 116l191 62q4 4 4 10z" />
    <glyph glyph-name="plus" unicode="+" horiz-adv-x="915" 
d="M434 461h-405l6 45h399v405h47v-405h400l6 -45h-404l-2 -412h-47v412z" />
    <glyph glyph-name="comma" unicode="," horiz-adv-x="370" 
d="M213 3.5q0 56.5 -56 87.5t-91 7q-18 45 12 86t94 41t109 -43.5t45 -107.5q0 -107 -77.5 -198t-178.5 -136l-19 16q105 54 133.5 122.5t28.5 125z" />
    <glyph glyph-name="hyphen" unicode="-" horiz-adv-x="602" 
d="M53 524h502l-2 -75h-506z" />
    <glyph glyph-name="period" unicode="." horiz-adv-x="403" 
d="M203 -27q-49 0 -82 33t-33 77t33 77t82 33t79.5 -33t30.5 -77t-30.5 -77t-79.5 -33z" />
    <glyph glyph-name="slash" unicode="/" horiz-adv-x="528" 
d="M461 1311h43l-432 -1794h-43z" />
    <glyph glyph-name="zero" unicode="0" horiz-adv-x="1052" 
d="M526 -25q-201 0 -332 187.5t-131 466.5t96.5 422t182.5 195t186 52q197 0 328 -187.5t131 -474.5t-93 -423.5t-179.5 -187t-188.5 -50.5zM525 10q136 0 218 152t82 468t-81.5 474t-219.5 158t-218.5 -158t-80.5 -469t82 -468t218 -157z" />
    <glyph glyph-name="one" unicode="1" horiz-adv-x="813" 
d="M500 78q0 -14 16 -22.5t80 -12.5l100 -12l6 -31h-555l7 31l118 12q45 4 62.5 12t17.5 25l-2 1110l-235 24l6 25l379 55v-1216z" />
    <glyph glyph-name="two" unicode="2" horiz-adv-x="923" 
d="M592 123q100 0 146.5 41t88.5 158l17 47l30 -2l-71 -367h-762l-8 41q154 152 268.5 269.5t229 266.5t114.5 336q0 139 -75 213t-178 74t-176 -51t-138 -152l-17 21q170 291 406 291q143 0 236.5 -89.5t93.5 -228.5q0 -183 -128 -339t-244 -271t-257 -254l14 -4h410z" />
    <glyph glyph-name="three" unicode="3" horiz-adv-x="878" 
d="M264 0q28 -14 92 -14q137 0 232.5 89t95.5 234t-79 225t-216 80q-93 0 -192 -43l-11 23q92 59 167 104t156 113.5t81 170.5q0 101 -57.5 158.5t-161.5 57.5q-186 0 -291 -178l-19 20q66 121 167.5 195t221.5 74t202.5 -73.5t82.5 -180.5q0 -152 -125 -229.5t-184 -112.5
v-4q173 16 283 -76.5t110 -260.5t-156.5 -300.5t-369.5 -132.5q-113 0 -178.5 38.5t-65.5 90.5q0 104 101 104q48 0 84 -50t30 -122z" />
    <glyph glyph-name="four" unicode="4" horiz-adv-x="966" 
d="M709 1305v-830h229l-31 -106h-198v-369h-140l-2 369h-542l-2 26l626 910h60zM567 475v639h-6l-438 -639h444z" />
    <glyph glyph-name="five" unicode="5" horiz-adv-x="862" 
d="M37 70q0 50 25.5 76t58.5 26q57 0 93 -50.5t44 -111.5q45 -20 101 -20q118 0 211.5 97.5t93.5 251.5q0 153 -142.5 255t-396.5 135l137 547h522l-26 -143h-492l-67 -277q261 -33 424 -152t163 -306t-150 -321t-368 -134q-112 0 -171.5 38.5t-59.5 88.5z" />
    <glyph glyph-name="six" unicode="6" horiz-adv-x="993" 
d="M68 473q0 325 178 504.5t332.5 255.5t334.5 98l7 -26q-283 -55 -455 -239.5t-232 -436.5l5 -4q63 68 151 113.5t175 45.5q165 0 265.5 -108t100.5 -286t-127.5 -297.5t-303.5 -119.5q-91 0 -172 38t-170 141t-89 321zM714.5 102.5q73.5 94.5 73.5 247.5t-83 254t-221 101
t-255 -119q-14 -49 -14 -135q0 -185 84 -314t213 -129t202.5 94.5z" />
    <glyph glyph-name="seven" unicode="7" horiz-adv-x="886" 
d="M367 1145q-139 0 -176 -19.5t-51.5 -46t-26.5 -69.5l-9 -25q-4 -10 -7 -17t-3 -10l-16 3h-12l38 319h752l4 -33l-551 -1251h-112l575 1141l-2 8h-403z" />
    <glyph glyph-name="eight" unicode="8" horiz-adv-x="966" 
d="M188.5 66.5q-116.5 97.5 -116.5 240.5q0 110 85.5 197.5t225.5 130.5v4q-129 65 -199.5 139t-70.5 195t108.5 229.5t266.5 108.5t263 -91.5t105 -232.5q0 -92 -75.5 -169t-188.5 -124v-4q148 -75 224.5 -153.5t76.5 -213.5t-120 -244.5t-294 -109.5t-290.5 97.5zM778 260
q0 176 -148.5 253t-217.5 108q-90 -45 -148.5 -124t-58.5 -199t83 -207t214 -87q128 0 202 72.5t74 183.5zM725 981q0 118 -71.5 207.5t-183.5 89.5t-175.5 -72t-63.5 -170q0 -158 133 -229t201 -102q160 104 160 276z" />
    <glyph glyph-name="nine" unicode="9" horiz-adv-x="993" 
d="M428 496q-163 0 -266 109t-103 286t126 297.5t308 120.5t306.5 -143.5t124.5 -358.5q0 -164 -64.5 -309.5t-241.5 -322t-540 -224.5l-8 29q284 54 455 235t231 436l-4 2q-63 -68 -150.5 -112.5t-173.5 -44.5zM776 828q0 185 -84 316.5t-214 131.5t-202.5 -94.5
t-72.5 -248.5t84.5 -256t224.5 -102q139 0 250 119q14 49 14 134z" />
    <glyph glyph-name="colon" unicode=":" horiz-adv-x="399" 
d="M203 -27q-49 0 -82 33t-33 76t33 74.5t82 31.5t79.5 -31.5t30.5 -74.5t-30.5 -76t-79.5 -33zM203 602q-49 0 -82 35t-33 77t33 73.5t82 31.5t79.5 -31.5t30.5 -73.5t-30.5 -77t-79.5 -35z" />
    <glyph glyph-name="semicolon" unicode=";" horiz-adv-x="370" 
d="M213 1.5q0 54.5 -55.5 88t-91.5 8.5q-18 45 11 85t94 40t110 -44.5t45 -106.5q0 -106 -76 -194.5t-180 -135.5l-19 14q107 62 134.5 126.5t27.5 119zM192 602q-48 0 -81 34t-33 77t33 74.5t81 31.5t79.5 -31.5t31.5 -74.5t-31.5 -77t-79.5 -34z" />
    <glyph glyph-name="less" unicode="&#x3c;" horiz-adv-x="897" 
d="M25 467v31l817 395l14 -43l-756 -365v-4l756 -368l-14 -43z" />
    <glyph glyph-name="equal" unicode="=" horiz-adv-x="909" 
d="M53 326h803l6 -45h-815zM47 684h815l-6 -47h-803z" />
    <glyph glyph-name="greater" unicode="&#x3e;" horiz-adv-x="897" 
d="M41 113l756 368v4l-756 365l14 43l817 -395v-31l-817 -397z" />
    <glyph glyph-name="question" unicode="?" horiz-adv-x="645" 
d="M298 -29q-48 0 -80 33t-32 75t32 72.5t80 30.5t78 -30.5t30 -72.5t-30 -75t-78 -33zM131 611q0 74 44 116.5t157 91.5q114 49 163.5 81t49.5 72q0 81 -80 140t-236 59q-64 0 -139 -18q-20 27 -20 78q0 80 149 80t257 -112t108 -253q0 -106 -40 -149.5t-119 -80.5
q-79 -36 -109.5 -49.5t-67.5 -38.5t-37 -90t111 -171h-31q-100 80 -130 143t-30 101z" />
    <glyph glyph-name="at" unicode="@" horiz-adv-x="1337" 
d="M671 -188q-271 0 -445.5 169t-170.5 435q2 137 54.5 259t142.5 212t210 142t249 52q252 0 417.5 -154.5t161.5 -387.5q-4 -185 -119 -319t-264 -134q-94 0 -135 41t-37 90q0 28 13.5 79.5t20.5 82.5t13 43h-8q-98 -160 -168 -242t-133 -82t-109.5 46t-46.5 104
q0 106 70 232t162 214t180 88q51 0 82 -44t35 -105h6l61 170l109 -4l-107 -287l-55 -219q-53 -147 92 -148q117 0 209 116t92 278q4 224 -151.5 368t-386.5 144q-127 0 -241 -50.5t-199 -136.5t-135 -201.5t-51 -243.5q-2 -254 162.5 -414.5t418.5 -160.5q195 0 292 85
t128 130l16 -24q-66 -96 -181.5 -159.5t-253.5 -63.5zM520 180q48 0 138.5 112t124.5 198t33 102q-2 33 -44.5 79t-86.5 46t-83 -33q-91 -91 -125.5 -219.5t-34.5 -177.5t25.5 -78t52.5 -29z" />
    <glyph glyph-name="A" unicode="A" horiz-adv-x="1261" 
d="M758 571l-178 543h-7q-80 -222 -125 -354.5t-58 -164.5l-9 -24h377zM369 530l-97 -270q-50 -136 -40 -167.5t37.5 -40.5t80.5 -15l66 -6l6 -31h-438l6 31l51 6q39 6 64.5 17.5t58 59.5t115.5 277l272 762l-16 59q40 11 74 46.5t40 48.5h23l379 -1121q33 -93 55 -119
t78 -30l78 -6l6 -31h-529l6 31l84 6q53 4 68.5 31.5t-6.5 99.5l-119 362h-403z" />
    <glyph glyph-name="B" unicode="B" horiz-adv-x="1159" 
d="M236 70v1144q0 10 -15.5 16.5t-81.5 12.5l-71 6l-7 31h496q236 0 348.5 -77t112.5 -199q0 -178 -133 -233.5t-230 -70.5v-6q206 -12 316 -108t110 -246t-135 -245t-387 -95h-500l7 31l88 8q82 7 82 31zM830.5 134q76.5 87 76.5 220t-102.5 225.5t-274.5 92.5h-8l-125 -4
v-600l152 -33l47 4h4q154 8 230.5 95zM842 975q0 266 -328 266h-117v-532h123q162 4 242 81.5t80 184.5z" />
    <glyph glyph-name="C" unicode="C" horiz-adv-x="1363" 
d="M794 1311q169 0 320 -74l121 47l12 -387h-33l-133 297q-104 80 -305 80q-243 0 -387.5 -178t-144.5 -455q0 -278 149 -455.5t372 -177.5t304.5 88t118.5 142l59 143h35l-68 -334l-73 -2q-59 -27 -163 -51.5t-232 -24.5t-257 47t-275 183t-146 434t200 488t526 190z" />
    <glyph glyph-name="D" unicode="D" horiz-adv-x="1347" 
d="M236 70v1147q0 10 -15.5 15t-81.5 11l-71 6l-7 31l488 6q344 4 539.5 -165.5t195.5 -456.5t-205 -475.5t-571 -188.5h-449l7 31l88 8q82 7 82 31zM959 1070.5q-151 174.5 -443 174.5h-119v-1175l160 -33q264 8 408.5 174.5t144.5 425.5t-151 433.5z" />
    <glyph glyph-name="E" unicode="E" horiz-adv-x="1181" 
d="M236 70v1147q0 10 -15.5 15t-79.5 11l-75 6l-7 31h955l26 -365h-32l-21 84q-23 63 -47.5 109.5t-82 91.5t-253.5 45h-207v-563l142 2q138 4 174.5 21.5t50.5 42t27 63.5l20 59l29 -2l-41 -413l-29 2l-4 57q-4 81 -45 104t-193 27l-131 2v-604l224 -6q288 0 347.5 102.5
t82.5 159.5l24 80l35 -2l-70 -377h-983l6 31l89 8q84 8 84 31z" />
    <glyph glyph-name="F" unicode="F" horiz-adv-x="1118" 
d="M236 70v1147q0 10 -14.5 15t-78.5 11l-77 6l-7 31h959l29 -371h-35l-19 80q-20 63 -43.5 111.5t-87.5 96.5t-270 48h-195v-575l131 2q142 4 176.5 21.5t49 42t26.5 63.5l21 57h28l-41 -414l-28 2l-4 58q-4 81 -45.5 104t-192.5 27l-121 2v-567q0 -12 15.5 -19.5
t79.5 -11.5l118 -6l6 -31h-559l6 31l93 8q80 7 80 31z" />
    <glyph glyph-name="G" unicode="G" horiz-adv-x="1417" 
d="M768 -29q-306 0 -503 178t-197 479t203 492t515 191q185 0 326 -72l119 45l6 -385h-33l-125 295q-99 80 -303 80q-239 0 -385.5 -180t-146.5 -456t150.5 -453t389.5 -177q78 0 154 19.5t121 48.5v420q0 20 -101 26l-98 8l-6 29h535l-7 -29l-88 -10q-80 -7 -80 -31v-385
l115 5l2 -23q-339 -115 -563 -115z" />
    <glyph glyph-name="H" unicode="H" horiz-adv-x="1480" 
d="M236 70v1147q0 10 -15.5 15t-81.5 11l-71 6l-7 31h517l-7 -31l-94 -8q-80 -7 -80 -31v-538h686v545q0 10 -16 15t-80 11l-78 6l-6 31h516l-6 -31l-88 -8q-82 -7 -82 -31v-1147q0 -10 16.5 -15t79.5 -11l72 -6l6 -31h-514l6 31l92 8q82 7 82 31v563h-686v-570
q0 -10 15.5 -15t79.5 -11l77 -6l6 -31h-516l7 31l88 8q82 7 82 31z" />
    <glyph glyph-name="I" unicode="I" horiz-adv-x="673" 
d="M256 70v1147q0 10 -15.5 15t-78.5 11l-84 6l-6 31h532l-6 -31l-98 -8q-82 -7 -82 -31v-1147q0 -10 16.5 -15t79.5 -11l82 -6l6 -31h-532l6 31l100 8q80 7 80 31z" />
    <glyph glyph-name="J" unicode="J" horiz-adv-x="665" 
d="M279 176v1041q0 10 -15.5 16t-81.5 10l-86 6l-6 31h533l-7 -31l-96 -8q-82 -7 -82 -31v-1050q0 -57 -29.5 -128t-113 -175.5t-225.5 -104.5q-72 0 -118 33t-46 79t27.5 74.5t68.5 28.5q72 0 99 -59.5t-7 -112.5q185 0 185 381z" />
    <glyph glyph-name="K" unicode="K" horiz-adv-x="1331" 
d="M236 70v1147q0 20 -95 26l-73 6l-7 31h523l-6 -31l-101 -8q-80 -7 -80 -31v-651l379 387q185 185 199 228t-11.5 54t-78.5 15l-90 6l-4 31h489l-6 -31l-45 -4q-45 -4 -74 -11t-68.5 -39.5t-255.5 -252.5l-137 -139l416 -641q54 -86 74 -102t78 -25l57 -4l6 -31h-496l7 31
l65 6q53 4 55 34.5t-34 94.5l-334 530l-191 -190v-443q0 -10 15.5 -15t79.5 -11l83 -6l7 -31h-523l7 31l90 8q80 7 80 31z" />
    <glyph glyph-name="L" unicode="L" horiz-adv-x="1120" 
d="M236 70v1147q0 10 -14.5 15t-78.5 11l-75 6l-7 31h551l-6 -31l-129 -8q-80 -7 -80 -31v-1167l183 -6q203 0 271.5 53t95 103.5t50.5 111.5l27 94h37l-70 -399h-932l7 31l92 8q78 7 78 31z" />
    <glyph glyph-name="M" unicode="M" horiz-adv-x="1683" 
d="M43 31l78 6q66 4 91.5 25.5t29.5 84.5l30 1041q-23 43 -104 53l-86 8l-6 31h377l397 -1042h4l406 1042h370l-6 -31l-119 -6q-66 -6 -71 -35l22 -1087q2 -47 17.5 -63.5t74.5 -20.5l84 -6l6 -31h-524l6 31l111 8q41 4 55 22.5t12 63.5l-24 1061h-6l-463 -1174h-33
l-428 1127q-6 14 -17.5 26.5t-15.5 20.5l-24 -1041q-4 -59 28.5 -81.5t114.5 -26.5l68 -6l6 -31h-467z" />
    <glyph glyph-name="N" unicode="N" horiz-adv-x="1427" 
d="M293 1141h-4l2 -994q0 -59 28.5 -80.5t104.5 -29.5l70 -6l6 -31h-445l6 31l72 6q55 6 86 27.5t31 87.5l2 991q-42 81 -148 100l-57 8l-6 31h344l784 -1034h5l-3 887q0 59 -28.5 78.5t-104.5 29.5l-69 6l-6 31h442l-6 -31l-70 -6q-57 -6 -87 -27.5t-30 -85.5l-2 -1140h-39
z" />
    <glyph glyph-name="O" unicode="O" horiz-adv-x="1476" 
d="M733 -29q-141 0 -264 48.5t-262 186t-139 429.5q0 133 53 255t145 215t215 148.5t263 55.5q282 0 474.5 -187t192.5 -481q0 -133 -53 -255t-145.5 -214t-215.5 -146.5t-264 -54.5zM1098.5 177q134.5 169 134.5 456t-142.5 464t-358.5 177t-352 -170.5t-136 -459.5
t142.5 -462.5t359.5 -173.5q218 0 352.5 169z" />
    <glyph glyph-name="P" unicode="P" horiz-adv-x="1112" 
d="M591 592q-89 0 -194 12v-541q0 -10 15.5 -16t79.5 -10l118 -6l6 -31h-577l6 31l109 8q82 7 82 31v1147q0 10 -15.5 15t-79.5 11l-94 6l-6 31h543q242 0 359.5 -86t117.5 -242t-101.5 -231.5t-190.5 -102t-178 -26.5zM573 627q150 0 233 79.5t83 227.5q0 317 -346 309
h-146v-594q77 -22 176 -22z" />
    <glyph glyph-name="Q" unicode="Q" horiz-adv-x="1476" 
d="M1513 -334q-111 -33 -271 -33q-378 0 -517 338q-287 4 -472 191t-185 473q0 133 53 255t145 215t215 148.5t263 55.5q282 0 474.5 -187t192.5 -481q0 -222 -141.5 -402.5t-358.5 -242.5q97 -210 232 -268.5t366 -32.5zM1098.5 177q134.5 169 134.5 456t-142.5 464
t-358.5 177t-352 -170.5t-136 -459.5t142.5 -462.5t359.5 -173.5q218 0 352.5 169z" />
    <glyph glyph-name="R" unicode="R" horiz-adv-x="1253" 
d="M236 70v1147q0 10 -15.5 15t-81.5 11l-92 6l-6 31h526q238 0 359 -85t121 -239q0 -121 -89 -212t-229 -123l295 -453q54 -78 88.5 -102.5t91.5 -28.5l47 -6l9 -31h-320l-35 61l-340 551q-14 2 -36.5 4t-47 6.5t-47 8.5t-37.5 10v-578q0 -14 95 -26l94 -6l6 -31h-553l6 31
l109 8q82 11 82 31zM874 949q0 140 -91 221t-273 73h-4l-109 -4v-559q77 -29 199 -27q121 2 199.5 79t78.5 217z" />
    <glyph glyph-name="S" unicode="S" horiz-adv-x="999" 
d="M543 1309q113 0 227 -39l90 24l12 -338h-30l-111 250q-98 66 -218 66t-189.5 -68.5t-69.5 -167.5q0 -155 119 -207.5t191 -78.5q167 -59 267.5 -145t100.5 -242t-130 -274t-325 -118q-177 -4 -375 66l-22 311h33l55 -155q98 -185 319 -185q138 0 222 80t84 203
q0 171 -121 230t-196 85q-165 56 -257 136t-92 223t110 243.5t306 100.5z" />
    <glyph glyph-name="T" unicode="T" horiz-adv-x="1280" 
d="M559 70v1175h-96q-235 -6 -340 -231l-27 -88h-37l70 354h1038l43 -354h-32l-21 86q-52 127 -124.5 178t-215.5 55h-96v-1182q0 -10 15.5 -15t78.5 -11l103 -6l6 -31h-568l6 31l115 8q82 7 82 31z" />
    <glyph glyph-name="U" unicode="U" horiz-adv-x="1390" 
d="M711 -29q-246 0 -367 108.5t-121 362.5v775q0 10 -16.5 15t-79.5 11l-92 8l-6 31h549l-7 -31l-106 -8q-82 -7 -82 -33v-747q0 -223 100.5 -319.5t288.5 -96.5q379 0 379 438v326q0 143 -2 324q0 59 -34 80.5t-109 27.5l-70 8l-6 31h452l-6 -31l-71 -8q-57 -6 -86 -27.5
t-29 -85.5l-2 -649q0 -510 -477 -510z" />
    <glyph glyph-name="V" unicode="V" horiz-adv-x="1275" 
d="M201 1096q-31 90 -49.5 111.5t-36 27.5t-47.5 8l-80 8l-6 31h526l-6 -31l-90 -6q-55 -2 -70.5 -23.5t10.5 -95.5l348 -948h7l290 815q27 78 39.5 125t4 74t-38 37t-84.5 16l-60 6l-6 31h442l-6 -31l-53 -8q-37 -4 -60.5 -14t-54.5 -52.5t-102 -242.5l-344 -957h-56z" />
    <glyph glyph-name="W" unicode="W" horiz-adv-x="1980" 
d="M203 1096q-33 94 -56.5 118.5t-78.5 28.5l-78 6l-6 31h524l-6 -31l-84 -4q-51 -2 -68.5 -23.5t8.5 -95.5l328 -942h4l293 770l-51 142q-33 89 -57 116t-82 31l-78 6l-6 31h522l-6 -31l-84 -4q-53 -4 -67.5 -25.5t7.5 -93.5l336 -938h4l271 797q57 153 45.5 190t-41 48.5
t-84.5 17.5l-66 8l-6 31h442l-6 -31l-49 -6q-37 -6 -60.5 -16t-46 -44t-100.5 -249l-331 -957h-48l-335 924h-2l-353 -924h-49z" />
    <glyph glyph-name="X" unicode="X" horiz-adv-x="1284" 
d="M-4 31l55 4q80 8 116 38.5t66.5 70.5t75.5 104l262 379l-317 467q-51 80 -80 112.5t-76 36.5l-73 6l-9 31h525l-4 -29l-91 -4q-59 -4 -61 -34.5t57 -125.5l230 -346h2l203 303q108 161 61 177t-88 22l-74 6l-8 31h471l-6 -31l-57 -4q-72 -4 -119 -40.5t-133 -164.5
l-228 -329l383 -566q37 -60 61 -82t68 -26l72 -6l6 -31h-522l6 31l88 4q59 4 65.5 30.5t-34.5 86.5l-293 442h-2q-20 -28 -44.5 -65.5t-74.5 -108.5l-119 -176q-76 -119 -70.5 -151t30 -41t65.5 -13l72 -8l6 -31h-469z" />
    <glyph glyph-name="Y" unicode="Y" horiz-adv-x="1243" 
d="M543 70v493l-328 559q-35 63 -64.5 90t-84.5 31l-70 6l-6 31h524l-6 -31l-78 -4q-66 -4 -70 -32.5t39 -102.5l277 -483h6l221 401q67 123 61 156t-29.5 44t-70.5 17l-65 4l-6 31h440l-6 -31l-58 -4q-66 -8 -105 -43t-110 -166l-252 -446v-527q0 -10 16.5 -15t82.5 -11
l100 -6l6 -31h-569l6 31l117 8q82 7 82 31z" />
    <glyph glyph-name="Z" unicode="Z" horiz-adv-x="1150" 
d="M879 1245h-304q-287 0 -343 -99t-76 -159l-19 -76h-33l29 369h936v-27l-809 -1210v-6l322 -2q225 0 298.5 56t101.5 109.5t52 121.5l25 84h39l-60 -406h-972v25l813 1214v6z" />
    <glyph glyph-name="bracketleft" unicode="[" horiz-adv-x="665" 
d="M135 1296h504v-39h-459v-1706h459v-38h-504v1783z" />
    <glyph glyph-name="backslash" unicode="\" horiz-adv-x="503" 
d="M-2 1311h43l432 -1794h-43z" />
    <glyph glyph-name="bracketright" unicode="]" horiz-adv-x="665" 
d="M27 -449h456v1706h-456v39h503v-1783h-503v38z" />
    <glyph glyph-name="asciicircum" unicode="^" 
d="M375 1391h26l263 -390h-23l-250 240h-4l-252 -240h-22z" />
    <glyph glyph-name="underscore" unicode="_" horiz-adv-x="927" 
d="M29 2h870l6 -74h-882z" />
    <glyph glyph-name="grave" unicode="`" 
d="M94 1397h170l215 -379h-18z" />
    <glyph glyph-name="a" unicode="a" horiz-adv-x="974" 
d="M565 422l-127 393h-8l-137 -393h272zM395 893q82 27 109 82h20l279 -815q22 -73 41.5 -97t64.5 -28l60 -4l4 -31h-428l4 31l65 4q41 4 51.5 26.5t-8.5 81.5l-79 244h-297l-60 -174q-40 -111 -33 -135.5t29.5 -31.5t63.5 -11l47 -4l4 -31h-344l6 31l43 4q31 4 49 11t39 39
t88 214l195 551z" />
    <glyph glyph-name="b" unicode="b" horiz-adv-x="909" 
d="M180 59v836q0 10 -11 14t-58 9l-54 8l-4 26h385q277 0 319 -82t42 -125q0 -82 -66.5 -142t-208.5 -81v-6q158 -10 239 -79.5t81 -181.5t-100.5 -183.5t-303.5 -71.5h-389l4 29l66 8q59 6 59 22zM451 35h14q111 4 168 66.5t57 164.5t-75.5 166t-196.5 64h-41q-41 0 -53 -4
v-437l108 -22q10 2 19 2zM643 723q0 197 -240 197h-79v-392l86 2q115 2 174 56.5t59 136.5z" />
    <glyph glyph-name="c" unicode="c" horiz-adv-x="1038" 
d="M601 973q128 0 239 -51l98 34l8 -303h-28l-111 232q-84 55 -194 55q-196 0 -300 -129t-104 -335t108.5 -336t276.5 -130q109 0 176.5 46t122.5 126l47 113h31l-47 -262l-60 -2q-135 -54 -265 -54t-228.5 35t-169 98.5t-110.5 154.5t-40 202t40 204t111.5 160.5t171 104.5
t227.5 37z" />
    <glyph glyph-name="d" unicode="d" horiz-adv-x="1030" 
d="M180 61v834q0 8 -11 12t-58 8l-60 9l-4 28q111 2 195 2h192q260 4 404.5 -124t144.5 -339t-154.5 -351t-422.5 -140h-361l6 31l70 6q59 8 59 24zM722 793.5q-107 126.5 -314 126.5h-84v-861l112 -22q187 0 290 120.5t103 315.5q0 194 -107 320.5z" />
    <glyph glyph-name="e" unicode="e" horiz-adv-x="940" 
d="M180 61v834q0 8 -11 12t-58 8l-60 9l-4 28h762l16 -286l-30 -2l-17 59q-39 111 -80 142.5t-89 43t-126 11.5h-159v-414l108 2q102 0 139.5 20t55.5 80l14 47l27 -2l-33 -329l-25 2l-6 45q-4 63 -37.5 82.5t-142.5 19.5l-100 4v-440l176 -4q217 0 262 82t63 127l17 55h35
l-50 -297h-782l4 31l70 6q61 8 61 24z" />
    <glyph glyph-name="f" unicode="f" horiz-adv-x="880" 
d="M180 61v834q0 8 -10 12t-55 8l-64 9l-4 28h754l20 -290l-30 -3l-17 60q-37 112 -78 144t-92 44.5t-135 12.5h-145v-424l98 2q105 4 132.5 17t39.5 32.5t22 50.5l15 47l26 -2l-32 -328h-27l-6 45q-4 64 -34.5 82.5t-145.5 22.5h-88v-406q0 -10 11 -14t56 -8l92 -6l6 -31
h-444l4 31l76 6q55 7 55 24z" />
    <glyph glyph-name="g" unicode="g" horiz-adv-x="1079" 
d="M784 369q0 8 -15 11t-60 7l-78 10l-4 29h430l-4 -29l-74 -10q-57 -7 -57 -25v-282l86 6l2 -18q-133 -56 -258 -74.5t-207 -18.5t-179.5 35t-167 99.5t-108.5 154.5t-39 258t151 310.5t392 142.5q133 0 244 -51l94 32l4 -301h-31l-100 230q-79 55 -192 55
q-199 0 -301.5 -131t-102.5 -335t108.5 -334t289.5 -130q97 0 177 45v314z" />
    <glyph glyph-name="h" unicode="h" horiz-adv-x="1132" 
d="M180 61v834q0 8 -11 12t-58 8l-60 9l-4 28h414l-4 -28l-76 -9q-57 -8 -57 -24v-387h483v391q0 10 -10.5 13t-55.5 7l-65 9l-4 28h415l-4 -28l-73 -9q-57 -8 -58 -24v-832q0 -10 11.5 -14t58.5 -8l59 -6l4 -31h-415l6 31l76 6q55 7 55 24v406h-483v-408q0 -10 11 -14
t56 -8l64 -6l6 -31h-416l6 31l70 6q59 8 59 24z" />
    <glyph glyph-name="i" unicode="i" horiz-adv-x="542" 
d="M199 895q0 14 -68 20l-70 9l-4 28h428l-4 -28l-82 -9q-57 -8 -57 -24v-832q0 -10 11.5 -14t56.5 -8l69 -6l6 -31h-430l6 31l80 6q57 8 58 24v834z" />
    <glyph glyph-name="j" unicode="j" horiz-adv-x="501" 
d="M-102 -165q0 38 23.5 61.5t56.5 23.5q59 0 82 -48.5t-7 -96.5q133 4 133 288v832q0 8 -11 12t-58 8l-70 9l-4 28h426l-4 -28l-78 -9q-57 -7 -57 -24v-830q0 -104 -94 -212.5t-204 -108.5q-58 0 -96 28.5t-38 66.5z" />
    <glyph glyph-name="k" unicode="k" horiz-adv-x="1034" 
d="M180 61v834q0 8 -10 12t-55 8l-64 9l-4 28h422l-4 -28l-84 -9q-57 -8 -57 -24v-467l264 266q141 141 151.5 174t-10 42t-63.5 12l-58 6l-4 28h387l-4 -28l-43 -4q-66 -8 -108 -39t-193 -187l-90 -88l305 -473q41 -68 59.5 -81t59.5 -17l47 -4l4 -31h-403l4 31l51 4
q41 4 41 26.5t-35 83.5l-229 363l-133 -131v-318q0 -10 11 -14t56 -8l72 -6l4 -31h-422l6 31l74 6q55 7 55 24z" />
    <glyph glyph-name="l" unicode="l" horiz-adv-x="864" 
d="M180 61v832q0 10 -10 14t-55 8l-64 7l-4 30h438l-4 -30l-100 -9q-57 -2 -57 -22v-854l122 -2q153 0 212 49t108 168l16 63h35l-49 -315h-723l4 31l76 8q55 7 55 22z" />
    <glyph glyph-name="m" unicode="m" horiz-adv-x="1275" 
d="M33 31l57 4q53 4 70.5 19.5t21.5 62.5l19 774q-20 23 -74 27l-66 6l-4 28h305l273 -749h6l293 749h303l-4 -28l-90 -9q-53 -6 -53 -24l16 -797q0 -35 12 -44t56 -13l67 -6l4 -31h-422l6 31l84 6q31 4 41.5 15t10.5 44l-17 778h-6l-336 -864h-45l-307 840q-5 13 -18 29
l-17 -766q0 -43 20.5 -58.5t86.5 -19.5l51 -4l4 -31h-352z" />
    <glyph glyph-name="n" unicode="n" horiz-adv-x="1099" 
d="M233 831v-712q0 -45 21.5 -62.5t79.5 -21.5l53 -4l4 -31h-338l4 31l54 4q43 4 64.5 21.5t21.5 64.5l4 717q-34 67 -113 77l-47 9l-4 28h289l567 -741h4v623q0 47 -20.5 63t-79.5 21l-52 6l-6 28h342l-6 -28l-53 -6q-43 -4 -64.5 -21.5t-21.5 -67.5l-6 -839h-41l-649 841
h-7z" />
    <glyph glyph-name="o" unicode="o" horiz-adv-x="1120" 
d="M51 471q0 100 41 191.5t152 201t326 109.5q214 0 354.5 -140.5t140.5 -349.5t-150.5 -357.5t-360.5 -148.5q-218 0 -360.5 138.5t-142.5 355.5zM814 132q95 120 95 336t-100.5 344t-253.5 128q-154 0 -249 -122t-95 -338t99.5 -342t254.5 -126q154 0 249 120z" />
    <glyph glyph-name="p" unicode="p" horiz-adv-x="884" 
d="M458 434q-86 0 -134 8v-383q0 -10 11 -14t56 -8l92 -6l4 -31h-454l6 31l82 6q59 8 59 24v834q0 8 -11 12t-58 8l-72 9l-6 28h436q186 0 279.5 -66.5t93.5 -181.5t-106.5 -192.5t-277.5 -77.5zM688 690q0 234 -258 230h-53q-23 0 -53 -2v-437q44 -14 142 -14
q99 0 160.5 59.5t61.5 163.5z" />
    <glyph glyph-name="q" unicode="q" horiz-adv-x="1120" 
d="M51 471q0 100 41 191.5t152 201t324 109.5t355 -140t142 -358q0 -160 -103 -292.5t-262 -182.5q71 -153 170 -196.5t269 -22.5l6 -29q-69 -26 -167 -26q-178 0 -279.5 53t-161.5 198q-210 4 -348 144t-138 350zM814 132q95 120 95 336t-100.5 344t-253.5 128
q-154 0 -249 -122t-95 -338t99.5 -342t254.5 -126q154 0 249 120z" />
    <glyph glyph-name="r" unicode="r" horiz-adv-x="985" 
d="M180 61v834q0 8 -11 12t-58 8l-72 9l-6 28h426q186 2 278 -63.5t92 -169.5t-65.5 -170t-173.5 -88l213 -326q42 -61 68 -78.5t69 -21.5l37 -4l6 -31h-262l-275 449q-10 2 -53.5 9.5t-68.5 12.5v-412q0 -16 67 -22l78 -6l6 -31h-442l6 31l82 6q59 10 59 24zM676 702
q0 102 -66.5 161t-201.5 55l-84 -3v-411q193 -50 272.5 23t79.5 175z" />
    <glyph glyph-name="s" unicode="s" 
d="M414 973q84 0 184 -31l70 21l6 -267h-29l-88 195q-76 49 -162 49t-140 -49t-54 -105t17.5 -86t57.5 -60.5t127 -60.5q164 -56 239 -121t75 -185q0 -119 -100.5 -207.5t-248.5 -88.5t-288 48l-17 245h29l49 -125q78 -133 236 -133q104 0 164.5 56.5t60.5 145.5
t-63.5 136.5t-147.5 75.5q-148 49 -222.5 112.5t-74.5 171.5t84 185.5t236 77.5z" />
    <glyph glyph-name="t" unicode="t" horiz-adv-x="989" 
d="M424 61v859h-64q-141 -5 -191 -78.5t-67 -108.5l-20 -63h-33l49 282h807l29 -282h-29l-16 61q-39 92 -93.5 138t-164.5 51h-64v-861q0 -10 11.5 -14t56.5 -8l80 -6l6 -31h-451l4 31l91 6q59 6 59 24z" />
    <glyph glyph-name="u" unicode="u" horiz-adv-x="1058" 
d="M542 -27q-188 0 -281 82t-93 269v571q0 8 -10.5 12t-57.5 8l-71 9l-6 28h438l-6 -28l-84 -9q-58 -7 -58 -24v-541q0 -162 71 -234.5t208 -72.5t206.5 84t69.5 244v463q0 47 -22.5 63t-79.5 21l-55 6l-4 28h344l-4 -28l-56 -6q-43 -4 -64.5 -21.5t-21.5 -67.5l-2 -467
q0 -182 -86.5 -285.5t-274.5 -103.5z" />
    <glyph glyph-name="v" unicode="v" horiz-adv-x="980" 
d="M164 797q-34 83 -49.5 99t-61.5 22l-59 6l-4 28h426l-6 -28l-70 -6q-47 -4 -55.5 -19.5t14.5 -75.5l244 -659h8l201 563q46 119 39 145.5t-29.5 36t-65.5 11.5l-47 4l-4 28h344l-4 -28l-43 -6q-55 -4 -80 -38t-84 -188l-258 -706h-51z" />
    <glyph glyph-name="w" unicode="w" horiz-adv-x="1503" 
d="M156 797q-28 74 -46 94.5t-63 26.5l-61 6l-4 28h426l-7 -28l-65 -6q-43 -4 -54.5 -19.5t9.5 -69.5l235 -661h9l204 547l-28 82q-29 72 -48.5 95t-62.5 26l-59 6l-6 28h428l-5 -28l-63 -6q-45 -2 -56.5 -18.5t9.5 -72.5l231 -659h8l193 557q46 119 39.5 146.5t-29 35.5
t-63.5 11l-49 6l-4 28h344l-7 -28l-43 -6q-52 -4 -79 -42t-78 -184l-254 -710h-49l-242 677h-6l-258 -677h-49z" />
    <glyph glyph-name="x" unicode="x" horiz-adv-x="1007" 
d="M6 31l51 4q58 8 92.5 38t106.5 130l182 254l-225 334q-25 35 -40 58t-32.5 43t-54.5 26l-59 6l-7 28h429l-5 -28l-67 -4q-43 -4 -47 -26t41 -93l164 -242h2l135 199q66 92 61.5 116.5t-23 31.5t-51.5 12l-59 6l-4 28h371l-4 -28l-50 -6q-52 -4 -89.5 -34.5t-108.5 -129.5
l-160 -222l276 -407q36 -56 52.5 -71t50.5 -19l57 -4l6 -31h-426l4 31l70 4q43 2 48 19.5t-23 60.5l-209 317h-4l-158 -233q-91 -129 -55.5 -144.5t65.5 -19.5l60 -4l4 -31h-371z" />
    <glyph glyph-name="y" unicode="y" horiz-adv-x="942" 
d="M399 61v355l-235 405q-29 51 -51.5 71.5t-63.5 25.5l-53 6l-4 28h424l-6 -28l-58 -6q-53 -4 -57 -25t27 -74l198 -354h4l152 278q57 100 54 127t-21.5 35t-55.5 13l-53 6l-6 28h346l-4 -28l-49 -6q-45 -4 -78.5 -38t-89.5 -139l-174 -311v-371q0 -10 11 -14t56 -8l80 -6
l4 -31h-448l4 31l90 6q57 7 57 24z" />
    <glyph glyph-name="z" unicode="z" horiz-adv-x="897" 
d="M827 952v-26l-602 -889v-2h211q177 0 247.5 52.5t111.5 170.5l18 59h33l-43 -317h-746v27l598 888v3l-202 2q-158 0 -224.5 -48.5t-101.5 -152.5l-14 -55h-29l20 288h723z" />
    <glyph glyph-name="braceleft" unicode="{" horiz-adv-x="622" 
d="M276 212q0 48 -20 78q-53 80 -268 93l-11 23l11 22q132 10 185 35q105 50 103 133q0 65 -28 160q-28 96 -42 152q-13 56 -13 123q0 134 109 216t284 88l4 -26q-152 -19 -215 -71t-63 -135t30 -176t44 -149t13 -119q0 -101 -89 -167t-224 -82v-9q135 -18 224 -83t89 -164
t-43 -228t-44 -214q-2 -85 62 -138t216 -72l-4 -26q-273 12 -365 183q-50 94 -15 246q13 56 28 107q14 52 28 102t14 98z" />
    <glyph glyph-name="bar" unicode="|" horiz-adv-x="389" 
d="M174 1327h41v-1796h-41v1796z" />
    <glyph glyph-name="braceright" unicode="}" horiz-adv-x="622" 
d="M201 146q0 153 187 226q56 22 124 29v9q-211 25 -288 156q-53 93 20 320q42 135 42 218q0 82 -62 134t-214 71l2 26q180 -8 288 -89t108 -216q0 -90 -30 -186t-42 -146q-14 -50 -14 -98q0 -49 24 -80q61 -77 264 -92l11 -22l-11 -23q-139 -9 -193 -36q-55 -27 -75 -57
t-20 -88t30 -150q30 -91 42 -147q14 -56 14 -124q1 -131 -109 -215q-109 -84 -287 -90l-2 26q152 18 214 72t62 132q0 79 -28 175q-30 95 -44 151t-13 114z" />
    <glyph glyph-name="asciitilde" unicode="~" 
d="M86 334q26 209 142 209q56 0 100.5 -20.5t88.5 -44t82.5 -44t70.5 -20.5t58.5 21.5t39.5 92.5h22q-28 -211 -140 -211q-56 0 -101.5 20.5t-88.5 45.5t-81.5 45.5t-71.5 20.5t-58.5 -20.5t-39.5 -94.5h-23z" />
    <glyph glyph-name="nonbreakingspace" unicode="&#xa0;" horiz-adv-x="284" 
 />
    <glyph glyph-name="exclamdown" unicode="&#xa1;" horiz-adv-x="507" 
d="M246 -39q-78 0 -78 41t2 59l72 836q2 8 12 8t12 -8l74 -836q11 -100 -76 -100h-18zM254 1087q-47 0 -79 32t-32 74t32 74.5t79 32.5t79 -32.5t32 -74.5t-32 -74t-79 -32z" />
    <glyph glyph-name="cent" unicode="&#xa2;" horiz-adv-x="851" 
d="M459 -29q-23 0 -47 4l-82 -303h-35l84 310q-143 27 -237.5 152.5t-94.5 289.5q0 203 131.5 344t331.5 141q63 0 113 -12q15 44 98 358h35l-101 -368q66 -23 103 -62t37 -83t-27.5 -68.5t-61.5 -24.5t-58.5 22.5t-31.5 61.5l-174 -643q60 -12 84 -12q88 0 152.5 36
t120.5 122l22 -13q-66 -117 -152.5 -184.5t-209.5 -67.5zM201 499q0 -157 58 -256.5t151 -140.5l200 744q-42 28 -106 28q-128 0 -215.5 -109t-87.5 -266z" />
    <glyph glyph-name="sterling" unicode="&#xa3;" horiz-adv-x="1019" 
d="M303 805q0 90 32 180t125.5 198.5t295.5 108.5q98 0 157.5 -39t59.5 -106q0 -35 -26.5 -62.5t-60.5 -27.5q-62 0 -82 52.5t5 102.5q-43 37 -104 37q-115 0 -188 -84t-73 -237q0 -72 11.5 -149t21.5 -163h264l7 -36h-267q8 -66 8 -134q0 -133 -77 -270q86 -27 173 -54.5
t169 -27.5t130 49.5t68 186.5l25 -4q-4 -156 -80 -255.5t-185 -99.5t-194.5 41t-159.5 84q-102 -125 -213 -125q-61 0 -99 31t-38 87t46 95t128 39t178 -30q21 61 21 121q0 61 -15.5 127.5t-31.5 138.5h-223l6 36h209q-23 99 -23 189zM158 178q-59 0 -90 -24.5t-31 -66.5
t30.5 -64.5t79.5 -22.5q100 0 177 117q-107 61 -166 61z" />
    <glyph glyph-name="currency" unicode="&#xa4;" horiz-adv-x="999" 
d="M666 74q193 0 299 178l22 -14q-66 -119 -157 -193t-224 -74q-170 0 -299 131t-166 349h-131l6 36h119q-6 61 -6 119t8 107h-127l6 39h127q40 245 190.5 393.5t344.5 148.5q127 0 206 -47t79 -121q0 -37 -27 -63.5t-63 -26.5q-65 0 -86.5 58t8.5 104q-47 59 -129 59
q-152 0 -256.5 -140.5t-124.5 -364.5h415l7 -39h-426l-2 -70q0 -76 12 -156h409l7 -36h-408q55 -269 179 -323t188 -54z" />
    <glyph glyph-name="yen" unicode="&#xa5;" horiz-adv-x="1228" 
d="M541 72v252h-387l6 36h381v228h-383l-2 37h366l-295 499q-37 59 -65.5 87t-83.5 32l-70 6l-6 31h520l-6 -31l-78 -4q-66 -4 -71 -32.5t41 -102.5l268 -465h6l213 393q61 119 54 150t-32.5 41t-70.5 16l-66 4l-6 31h440l-6 -31l-55 -4q-33 -4 -55.5 -10t-52.5 -33.5
t-99 -150.5q-68 -124 -104 -189t-71 -127.5t-50 -91.5l-10 -18h368l-2 -37h-379v-228h377l6 -36h-383v-256q0 -20 93 -29l106 -8l6 -31h-567l6 31l121 10q78 7 78 31z" />
    <glyph glyph-name="section" unicode="&#xa7;" horiz-adv-x="821" 
d="M784 555q0 -148 -182 -246q55 -63 55 -129q0 -121 -84.5 -201.5t-200.5 -80.5t-185.5 42t-69.5 101q0 33 21.5 58.5t53.5 25.5t50 -13.5t27.5 -35t9.5 -47t-11 -49.5q48 -48 124 -48t122.5 52.5t46.5 106.5t-20.5 87t-66.5 71t-131 84q-154 84 -230 156t-76 164
q0 159 182 248q-53 65 -53 131q0 120 81.5 199.5t196.5 79.5t177.5 -42t62.5 -102q0 -33 -23.5 -58.5t-54.5 -25.5t-49 13.5t-27.5 35t-9.5 47t8 50.5q-41 47 -93 47q-86 0 -131.5 -52t-45.5 -105q0 -52 20.5 -86t56.5 -62.5t81 -55t95 -55.5q137 -79 205 -144t68 -161z
M688 483q0 109 -84 164t-142 88t-119.5 69t-104.5 79q-41 -23 -74 -64t-33 -86q0 -77 52.5 -132.5t142.5 -106.5q90 -50 151.5 -86.5t108.5 -79.5q102 67 102 155z" />
    <glyph glyph-name="dieresis" unicode="&#xa8;" 
d="M198 1059q-50 0 -74 32.5t-24 65.5t24 69t74 36t74.5 -36t24.5 -69t-24.5 -65.5t-74.5 -32.5zM579 1059q-50 0 -75 32.5t-25 65.5t24.5 69t74.5 36t74 -36t24 -69t-23.5 -65.5t-73.5 -32.5z" />
    <glyph glyph-name="copyright" unicode="&#xa9;" horiz-adv-x="1460" 
d="M731 -29q-139 0 -261 52.5t-213 143.5t-143.5 213t-52.5 261t52.5 261t143.5 213t213 144.5t261 53.5t261 -53.5t213 -144.5t143.5 -213t52.5 -261t-52.5 -261t-143.5 -213t-213 -143.5t-261 -52.5zM731 4q131 0 246 50t201 137.5t136 203t50 246.5t-50 247t-136 203
t-201 137t-246 50t-246.5 -50t-201.5 -137t-136.5 -203t-50.5 -247t50.5 -246.5t136.5 -203t201.5 -137.5t246.5 -50zM762 1034q104 0 190 -43l74 29l8 -236h-20l-86 174q-69 50 -160 50q-155 0 -239.5 -102t-84.5 -263t88.5 -268t227.5 -107q88 0 140 37t93 103l41 84h21
l-39 -207l-45 -4q-98 -39 -204 -39q-107 0 -184 28.5t-131.5 79.5t-85 124t-30.5 159t30.5 159.5t85 128t130.5 84t180 29.5z" />
    <glyph glyph-name="ordfeminine" unicode="&#xaa;" horiz-adv-x="645" 
d="M201 586q-66 0 -112 44t-46 114t88 134t295 111l4 70q0 153 -66.5 172.5t-105.5 19.5t-72.5 -19.5t-33.5 -31.5q0 -6 16 -27.5t16 -47.5t-19 -45t-51 -19t-52.5 19.5t-20.5 49.5q0 60 107.5 116.5t199.5 56.5q207 0 199 -220l-15 -348q-2 -76 52 -76q29 0 75 41l7 -12
q-76 -102 -144 -102q-94 0 -104 121q-116 -121 -217 -121zM268 664q73 0 152 71l6 228q-212 -49 -236 -104.5t-24 -94.5t28.5 -69.5t73.5 -30.5z" />
    <glyph glyph-name="guillemotleft" unicode="&#xab;" horiz-adv-x="874" 
d="M395 436v35l422 340l10 -16l-278 -340l278 -340l-10 -19zM35 436v35l414 311l10 -16l-266 -311l268 -314l-10 -16z" />
    <glyph glyph-name="registered" unicode="&#xae;" horiz-adv-x="1460" 
d="M731 -29q-139 0 -261 52.5t-213 143.5t-143.5 213t-52.5 261t52.5 261t143.5 213t213 144.5t261 53.5t261 -53.5t213 -144.5t143.5 -213t52.5 -261t-52.5 -261t-143.5 -213t-213 -143.5t-261 -52.5zM731 4q131 0 246 50t201 137.5t136 203t50 246.5t-50 247t-136 203
t-201 137t-246 50t-246.5 -50t-201.5 -137t-136.5 -203t-50.5 -247t50.5 -246.5t136.5 -203t201.5 -137.5t246.5 -50zM510 319v652q0 8 -8 11t-45 7l-60 6l-6 27h322q141 0 213.5 -53.5t72.5 -133.5t-52 -134t-134 -72l170 -260q31 -47 51.5 -58.5t55.5 -15.5l32 -4l6 -25
h-198l-19 35l-200 322q-70 9 -101 16v-324q0 -12 56 -18l63 -6l4 -25h-342l4 25l70 8q45 6 45 20zM893 824q0 83 -55.5 128t-163.5 39l-64 -2v-319q48 -19 116 -17q69 2 118 45t49 126z" />
    <glyph glyph-name="macron" unicode="&#xaf;" horiz-adv-x="774" 
d="M139 1139h508l-8 -60h-512z" />
    <glyph glyph-name="degree" unicode="&#xb0;" horiz-adv-x="659" 
d="M332 750q-64 0 -117 22.5t-90 61t-56.5 90t-19.5 109t19.5 109.5t55.5 91t88 61.5t117.5 22.5t118 -22.5t88 -61.5t55 -91t19.5 -109.5t-19.5 -109t-55 -90t-87.5 -61t-116 -22.5zM329.5 788q110.5 0 175 71t64.5 173t-66 174t-173 72t-171.5 -72t-64.5 -174t62.5 -173
t173 -71z" />
    <glyph glyph-name="acute" unicode="&#xb4;" 
d="M512 1397h170l-365 -379h-20z" />
    <glyph glyph-name="paragraph" unicode="&#xb6;" horiz-adv-x="894" 
d="M535 559q-227 0 -350.5 97.5t-123.5 270.5t119 263t348 90h244v-1346h-43v641q-82 -16 -194 -16z" />
    <glyph glyph-name="periodcentered" unicode="&#xb7;" horiz-adv-x="403" 
d="M203 338q-49 0 -82 33t-33 77t33 76.5t82 32.5t79.5 -32.5t30.5 -76.5t-30.5 -77t-79.5 -33z" />
    <glyph glyph-name="cedilla" unicode="&#xb8;" 
d="M502 -328q0 55 -46 83t-116 28t-135 -21v21l201 225h40l-129 -143q118 16 199.5 -27t81.5 -127q0 -150 -158.5 -190.5t-238.5 -48.5l-8 18q309 49 309 182z" />
    <glyph glyph-name="ordmasculine" unicode="&#xba;" horiz-adv-x="774" 
d="M133 1194.5q102 108.5 255 108.5q154 0 253.5 -103.5t99.5 -254.5t-101 -256t-254.5 -105t-254 102.5t-100.5 251t102 257zM170 958q0 -208 92 -298q50 -48 135 -48t144 91.5t59 203.5q0 229 -80 307q-56 60 -144 60t-147 -91.5t-59 -224.5z" />
    <glyph glyph-name="guillemotright" unicode="&#xbb;" horiz-adv-x="880" 
d="M47 115l279 340l-277 340l10 16l420 -340v-35l-422 -340zM416 141l266 314l-266 311l10 16l416 -311v-35l-416 -311z" />
    <glyph glyph-name="questiondown" unicode="&#xbf;" horiz-adv-x="645" 
d="M578 51q0 -80 -150 -80t-257.5 112t-107.5 255q0 104 40 147.5t137 88.5q96 45 145 73.5t49 95.5t-108 170h30q50 -36 105 -107.5t55 -121.5q0 -87 -44 -129.5t-158 -91.5q-115 -49 -163.5 -80t-48.5 -71q0 -83 80 -142t236 -59q69 0 141 18q19 -24 19 -78zM349 1100
q-48 0 -77.5 30.5t-29.5 72.5t29.5 75t77.5 33t80 -33t32 -75t-32 -72.5t-80 -30.5z" />
    <glyph glyph-name="Agrave" unicode="&#xc0;" horiz-adv-x="1261" 
d="M758 571l-178 543h-7q-97 -269 -135 -382q-38 -114 -48 -137l-9 -24h377zM369 530l-97 -270q-49 -132 -40 -166q9 -33 37 -42t81 -15l66 -6l6 -31h-438l6 31l51 6q39 6 65 17q49 21 101 150q29 69 72 187l272 762l-16 59q20 6 61 38t53 57h23l379 -1121q34 -96 57 -121
t76 -28l78 -6l6 -31h-529l6 31l84 6q53 4 69 32q15 28 -7 99l-119 362h-403zM301 1741h170l215 -379h-18z" />
    <glyph glyph-name="Aacute" unicode="&#xc1;" horiz-adv-x="1261" 
d="M758 571l-178 543h-7q-97 -269 -135 -382q-38 -114 -48 -137l-9 -24h377zM369 530l-97 -270q-49 -132 -40 -166q9 -33 37 -42t81 -15l66 -6l6 -31h-438l6 31l51 6q39 6 65 17q49 21 101 150q29 69 72 187l272 762l-16 59q20 6 61 38t53 57h23l379 -1121q34 -96 57 -121
t76 -28l78 -6l6 -31h-529l6 31l84 6q53 4 69 32q15 28 -7 99l-119 362h-403zM768 1741h170l-365 -379h-20z" />
    <glyph glyph-name="Acircumflex" unicode="&#xc2;" horiz-adv-x="1261" 
d="M758 571l-178 543h-7q-97 -269 -135 -382q-38 -114 -48 -137l-9 -24h377zM369 530l-97 -270q-49 -132 -40 -166q9 -33 37 -42t81 -15l66 -6l6 -31h-438l6 31l51 6q39 6 65 17q49 21 101 150q29 69 72 187l272 762l-16 59q20 6 61 38t53 57h23l379 -1121q34 -96 57 -121
t76 -28l78 -6l6 -31h-529l6 31l84 6q53 4 69 32q15 28 -7 99l-119 362h-403zM627 1735h26l262 -389h-22l-250 239h-4l-252 -239h-22z" />
    <glyph glyph-name="Atilde" unicode="&#xc3;" horiz-adv-x="1261" 
d="M758 571l-178 543h-7q-97 -269 -135 -382q-38 -114 -48 -137l-9 -24h377zM369 530l-97 -270q-49 -132 -40 -166q9 -33 37 -42t81 -15l66 -6l6 -31h-438l6 31l51 6q39 6 65 17q49 21 101 150q29 69 72 187l272 762l-16 59q20 6 61 38t53 57h23l379 -1121q34 -96 57 -121
t76 -28l78 -6l6 -31h-529l6 31l84 6q53 4 69 32q15 28 -7 99l-119 362h-403zM790 1376q-56 0 -102 20q-45 20 -122 66q-77 45 -115 45q-37 0 -63 -20t-40 -94h-22q26 207 141 209q55 0 100 -20t89 -45q44 -24 83 -44t71 -20q32 -1 58 21t39 93h23q-27 -211 -140 -211z" />
    <glyph glyph-name="Adieresis" unicode="&#xc4;" horiz-adv-x="1261" 
d="M758 571l-178 543h-7q-97 -269 -135 -382q-38 -114 -48 -137l-9 -24h377zM369 530l-97 -270q-49 -132 -40 -166q9 -33 37 -42t81 -15l66 -6l6 -31h-438l6 31l51 6q39 6 65 17q49 21 101 150q29 69 72 187l272 762l-16 59q20 6 61 38t53 57h23l379 -1121q34 -96 57 -121
t76 -28l78 -6l6 -31h-529l6 31l84 6q53 4 69 32q15 28 -7 99l-119 362h-403zM537 1495q0 -33 -25 -65t-75 -33q-49 0 -73 33q-24 34 -24 66t24 68t74 36t74 -36q25 -36 25 -69zM818 1397q-50 0 -75 33q-48 63 0 134q25 36 75 36t74 -36q46 -70 0 -134q-24 -32 -74 -33z" />
    <glyph glyph-name="Aring" unicode="&#xc5;" horiz-adv-x="1261" 
d="M758 571l-178 545h-7l-192 -545h377zM449 1438q0 70 48 124t134 54t134 -54.5t48 -121.5t-32.5 -115.5t-92.5 -64.5l363 -1074q33 -93 55 -119t78 -30l78 -6l6 -31h-529l6 31l84 6q53 4 68.5 31.5t-6.5 99.5l-119 360h-405l-95 -268q-50 -136 -40 -167.5t37.5 -40.5
t80.5 -15l66 -6l6 -31h-438l6 31l51 6q39 6 64.5 17.5t58 59.5t115.5 277l309 864q-66 16 -102.5 64.5t-36.5 118.5zM630 1278q71 0 110.5 45t39.5 107t-40 109.5t-110 47.5t-109.5 -47t-39.5 -109t39 -107.5t110 -45.5z" />
    <glyph glyph-name="AE" unicode="&#xc6;" horiz-adv-x="1710" 
d="M1155 1243h-201v-561l119 2q140 4 174.5 21.5t50 42t27.5 63.5l21 61l26 -4l-41 -413l-26 2l-7 57q-4 82 -44.5 104.5t-190.5 26.5l-109 2v-604l185 -6q213 4 304.5 68.5t141.5 193.5l23 80l34 -2l-69 -377h-971l6 31l111 12q78 7 78 33v452h-400l-135 -241
q-82 -147 -82 -182t20.5 -48.5t65.5 -19.5l82 -8l6 -29h-463l7 31l86 8q53 9 105 63.5t149 225.5l481 843q16 31 -0.5 47.5t-104.5 22.5l-88 6l-6 33h1026l27 -365h-31l-20 84q-23 63 -44.5 109.5t-78 90.5t-244.5 44zM797 571v650h-9l-366 -650h375z" />
    <glyph glyph-name="Ccedilla" unicode="&#xc7;" horiz-adv-x="1363" 
d="M730 -217q-69 0 -136 -21v21l166 186q-305 4 -498.5 185t-193.5 479t200.5 488t513.5 190q181 0 332 -74l121 47l12 -387h-33l-133 297q-104 80 -305 80q-243 0 -387.5 -178t-144.5 -455q0 -278 149 -455.5t372 -177.5t304.5 88t118.5 142l59 143h35l-68 -334l-73 -2
q-154 -68 -340 -76l-94 -104q117 16 198.5 -27t81.5 -127q0 -150 -158.5 -190.5t-238.5 -48.5l-8 18q309 49 309 182q0 55 -46 83t-115 28z" />
    <glyph glyph-name="Egrave" unicode="&#xc8;" horiz-adv-x="1181" 
d="M236 70v1147q0 10 -16 15t-79 11l-75 6l-7 31h955l26 -365h-32l-21 84q-23 63 -47 109q-51 97 -169 123q-65 14 -167 14h-207v-563l142 2q139 4 175 21q36 18 50 43t27 63l20 59l29 -2l-41 -413l-29 2l-4 57q-4 84 -46 105q-42 22 -192 26l-131 2v-604l224 -6
q288 0 379 158q28 47 51 104l24 80l35 -2l-70 -377h-983l6 31l89 8q84 8 84 31zM293 1741h170l215 -379h-19z" />
    <glyph glyph-name="Eacute" unicode="&#xc9;" horiz-adv-x="1181" 
d="M236 70v1147q0 10 -16 15t-79 11l-75 6l-7 31h955l26 -365h-32l-21 84q-23 63 -47 109q-51 97 -169 123q-65 14 -167 14h-207v-563l142 2q139 4 175 21q36 18 50 43t27 63l20 59l29 -2l-41 -413l-29 2l-4 57q-4 84 -46 105q-42 22 -192 26l-131 2v-604l224 -6
q288 0 379 158q28 47 51 104l24 80l35 -2l-70 -377h-983l6 31l89 8q84 8 84 31zM748 1741h170l-365 -379h-21z" />
    <glyph glyph-name="Ecircumflex" unicode="&#xca;" horiz-adv-x="1181" 
d="M236 70v1147q0 10 -16 15t-79 11l-75 6l-7 31h955l26 -365h-32l-21 84q-23 63 -47 109q-51 97 -169 123q-65 14 -167 14h-207v-563l142 2q139 4 175 21q36 18 50 43t27 63l20 59l29 -2l-41 -413l-29 2l-4 57q-4 84 -46 105q-42 22 -192 26l-131 2v-604l224 -6
q288 0 379 158q28 47 51 104l24 80l35 -2l-70 -377h-983l6 31l89 8q84 8 84 31zM575 1735h27l262 -389h-22l-250 239h-4l-252 -239h-23z" />
    <glyph glyph-name="Edieresis" unicode="&#xcb;" horiz-adv-x="1181" 
d="M236 70v1147q0 10 -16 15t-79 11l-75 6l-7 31h955l26 -365h-32l-21 84q-23 63 -47 109q-51 97 -169 123q-65 14 -167 14h-207v-563l142 2q139 4 175 21q36 18 50 43t27 63l20 59l29 -2l-41 -413l-29 2l-4 57q-4 84 -46 105q-42 22 -192 26l-131 2v-604l224 -6
q288 0 379 158q28 47 51 104l24 80l35 -2l-70 -377h-983l6 31l89 8q84 8 84 31zM390 1397q-50 0 -74 33q-46 63 0 134q24 36 74 36t75 -36q47 -70 -1 -134q-24 -32 -74 -33zM771 1397q-50 0 -75 33q-48 63 0 134q25 36 75 36t74 -36q45 -70 -1 -134q-24 -32 -73 -33z" />
    <glyph glyph-name="Igrave" unicode="&#xcc;" horiz-adv-x="673" 
d="M256 70v1147q0 10 -15 15t-79 11l-84 6l-6 31h532l-6 -31l-98 -8q-82 -7 -82 -31v-1147q0 -10 16 -15t80 -11l82 -6l6 -31h-532l6 31l100 8q80 7 80 31zM25 1741h170l215 -379h-19z" />
    <glyph glyph-name="Iacute" unicode="&#xcd;" horiz-adv-x="673" 
d="M256 70v1147q0 10 -15 15t-79 11l-84 6l-6 31h532l-6 -31l-98 -8q-82 -7 -82 -31v-1147q0 -10 16 -15t80 -11l82 -6l6 -31h-532l6 31l100 8q80 7 80 31zM479 1741h170l-364 -379h-21z" />
    <glyph glyph-name="Icircumflex" unicode="&#xce;" horiz-adv-x="673" 
d="M256 70v1147q0 10 -15 15t-79 11l-84 6l-6 31h532l-6 -31l-98 -8q-82 -7 -82 -31v-1147q0 -10 16 -15t80 -11l82 -6l6 -31h-532l6 31l100 8q80 7 80 31zM326 1735h26l262 -389h-22l-250 239h-4l-252 -239h-23z" />
    <glyph glyph-name="Idieresis" unicode="&#xcf;" horiz-adv-x="673" 
d="M256 70v1147q0 10 -15 15t-79 11l-84 6l-6 31h532l-6 -31l-98 -8q-82 -7 -82 -31v-1147q0 -10 16 -15t80 -11l82 -6l6 -31h-532l6 31l100 8q80 7 80 31zM250 1497q0 -33 -24 -65t-75 -33q-50 0 -74 33q-24 34 -24 66t24 68t74 36q51 0 75 -36t24 -69zM629 1497
q0 -33 -24 -65t-74 -33q-51 0 -75 33q-24 34 -24 66t25 68t75 36t73 -36q24 -36 24 -69z" />
    <glyph glyph-name="Eth" unicode="&#xd0;" horiz-adv-x="1363" 
d="M236 668v544q0 18 -93 29l-86 8l-6 31l494 6q347 4 542 -167t195 -458t-205.5 -474t-570.5 -187h-457l6 31l103 10q78 7 78 31v555h-181l6 41h175zM395 627v-557l160 -33q264 4 409.5 171.5t145.5 427.5t-151 434.5t-445 174.5h-119v-577h299l6 -41h-305z" />
    <glyph glyph-name="Ntilde" unicode="&#xd1;" horiz-adv-x="1427" 
d="M293 1141h-4l2 -994q1 -59 29 -81t104 -29l70 -6l6 -31h-445l6 31l72 6q55 6 86 28t31 87l2 991q-42 81 -148 100l-57 8l-6 31h344l784 -1034h5l-3 887q0 59 -28 78q-29 19 -105 30l-69 6l-6 31h442l-6 -31l-70 -6q-57 -6 -87 -28t-30 -85l-2 -1140h-39zM902 1376
q-56 0 -101 20t-122 66q-77 45 -115 45t-64 -20t-39 -94h-23q26 207 142 209q56 0 100 -20q45 -20 89 -45q44 -24 83 -44t71 -20q33 -1 59 21t38 93h22q-28 -211 -140 -211z" />
    <glyph glyph-name="Ograve" unicode="&#xd2;" horiz-adv-x="1476" 
d="M733 -29q-291 0 -478 186t-187 478q0 133 53 255t145 215t215 148t263 55q285 1 476 -186q191 -188 191 -481q0 -133 -53 -255q-54 -122 -146 -214t-215 -146t-264 -55zM746 8q217 0 352 168t135 456q0 287 -143 464q-143 178 -357 178q-215 0 -352 -170t-137 -458
t142 -463q143 -175 360 -175zM416 1741h170l215 -379h-19z" />
    <glyph glyph-name="Oacute" unicode="&#xd3;" horiz-adv-x="1476" 
d="M733 -29q-291 0 -478 186t-187 478q0 133 53 255t145 215t215 148t263 55q285 1 476 -186q191 -188 191 -481q0 -133 -53 -255q-54 -122 -146 -214t-215 -146t-264 -55zM746 8q217 0 352 168t135 456q0 287 -143 464q-143 178 -357 178q-215 0 -352 -170t-137 -458
t142 -463q143 -175 360 -175zM881 1741h170l-365 -379h-20z" />
    <glyph glyph-name="Ocircumflex" unicode="&#xd4;" horiz-adv-x="1476" 
d="M733 -29q-291 0 -478 186t-187 478q0 133 53 255t145 215t215 148t263 55q285 1 476 -186q191 -188 191 -481q0 -133 -53 -255q-54 -122 -146 -214t-215 -146t-264 -55zM746 8q217 0 352 168t135 456q0 287 -143 464q-143 178 -357 178q-215 0 -352 -170t-137 -458
t142 -463q143 -175 360 -175zM727 1735h27l262 -389h-23l-250 239h-4l-252 -239h-22z" />
    <glyph glyph-name="Otilde" unicode="&#xd5;" horiz-adv-x="1476" 
d="M733 -29q-291 0 -478 186t-187 478q0 133 53 255t145 215t215 148t263 55q285 1 476 -186q191 -188 191 -481q0 -133 -53 -255q-54 -122 -146 -214t-215 -146t-264 -55zM746 8q217 0 352 168t135 456q0 287 -143 464q-143 178 -357 178q-215 0 -352 -170t-137 -458
t142 -463q143 -175 360 -175zM904 1376q-56 0 -101 20t-122 66q-77 45 -115 45t-64 -20t-39 -94h-23q26 207 142 209q56 0 100 -20q45 -20 89 -45q44 -24 83 -44t71 -20q33 -1 59 21t38 93h22q-28 -211 -140 -211z" />
    <glyph glyph-name="Odieresis" unicode="&#xd6;" horiz-adv-x="1476" 
d="M733 -29q-291 0 -478 186t-187 478q0 133 53 255t145 215t215 148t263 55q285 1 476 -186q191 -188 191 -481q0 -133 -53 -255q-54 -122 -146 -214t-215 -146t-264 -55zM746 8q217 0 352 168t135 456q0 287 -143 464q-143 178 -357 178q-215 0 -352 -170t-137 -458
t142 -463q143 -175 360 -175zM552 1397q-50 0 -74 33q-46 63 0 134q24 36 74 36t75 -36q47 -70 -1 -134q-24 -32 -74 -33zM933 1397q-50 0 -75 33q-48 63 0 134q25 36 75 36t74 -36q45 -70 -1 -134q-24 -32 -73 -33z" />
    <glyph glyph-name="Oslash" unicode="&#xd8;" horiz-adv-x="1476" 
d="M1411 641q0 -133 -53 -255t-145.5 -214t-215.5 -146.5t-279 -54.5t-298 70l-111 -191h-43l121 209q-147 82 -233 230.5t-86 345.5q0 133 53 255t145 215t215 148.5t281 55.5t303 -76q32 58 104 178h43l-114 -197q143 -86 228 -233t85 -340zM1233 643q0 154 -48 281
t-132 213l-594 -1028q123 -100 284 -101q221 0 355.5 169t134.5 466zM733 1272q-217 0 -353 -170.5t-136 -477.5t186 -489q166 287 259 449t147.5 255t96.5 164.5t66 115.5l25 44q-121 109 -291 109z" />
    <glyph glyph-name="Ugrave" unicode="&#xd9;" horiz-adv-x="1390" 
d="M711 -29q-246 0 -367 109t-121 362v775q0 10 -16 15t-80 11l-92 8l-6 31h549l-7 -31l-106 -8q-82 -7 -82 -33v-747q0 -223 100 -319q101 -96 289 -97q380 0 379 438v326q0 143 -2 324q0 59 -34 81t-109 27l-70 8l-6 31h452l-6 -31l-71 -8q-57 -6 -86 -28t-29 -85l-2 -649
q0 -510 -477 -510zM422 1741h170l215 -379h-19z" />
    <glyph glyph-name="Uacute" unicode="&#xda;" horiz-adv-x="1390" 
d="M711 -29q-246 0 -367 109t-121 362v775q0 10 -16 15t-80 11l-92 8l-6 31h549l-7 -31l-106 -8q-82 -7 -82 -33v-747q0 -223 100 -319q101 -96 289 -97q380 0 379 438v326q0 143 -2 324q0 59 -34 81t-109 27l-70 8l-6 31h452l-6 -31l-71 -8q-57 -6 -86 -28t-29 -85l-2 -649
q0 -510 -477 -510zM864 1741h170l-364 -379h-21z" />
    <glyph glyph-name="Ucircumflex" unicode="&#xdb;" horiz-adv-x="1390" 
d="M711 -29q-246 0 -367 109t-121 362v775q0 10 -16 15t-80 11l-92 8l-6 31h549l-7 -31l-106 -8q-82 -7 -82 -33v-747q0 -223 100 -319q101 -96 289 -97q380 0 379 438v326q0 143 -2 324q0 59 -34 81t-109 27l-70 8l-6 31h452l-6 -31l-71 -8q-57 -6 -86 -28t-29 -85l-2 -649
q0 -510 -477 -510zM719 1735h26l263 -389h-23l-250 239h-4l-252 -239h-22z" />
    <glyph glyph-name="Udieresis" unicode="&#xdc;" horiz-adv-x="1390" 
d="M711 -29q-246 0 -367 109t-121 362v775q0 10 -16 15t-80 11l-92 8l-6 31h549l-7 -31l-106 -8q-82 -7 -82 -33v-747q0 -223 100 -319q101 -96 289 -97q380 0 379 438v326q0 143 -2 324q0 59 -34 81t-109 27l-70 8l-6 31h452l-6 -31l-71 -8q-57 -6 -86 -28t-29 -85l-2 -649
q0 -510 -477 -510zM556 1397q-50 0 -74 33q-46 63 0 134q24 36 74 36t75 -36q47 -70 -1 -134q-24 -32 -74 -33zM937 1397q-50 0 -75 33q-48 63 0 134q25 36 75 36t74 -36q45 -70 -1 -134q-24 -32 -73 -33z" />
    <glyph glyph-name="Yacute" unicode="&#xdd;" horiz-adv-x="1243" 
d="M702 63q0 -10 16 -15t83 -11l100 -6l6 -31h-569l6 31l117 8q80 7 82 31v493l-328 559q-35 63 -64 90q-30 27 -85 31l-70 6l-6 31h524l-6 -31l-78 -4q-66 -4 -70 -33t39 -102l277 -483h6l221 401q65 121 61 155q-5 34 -29 45t-71 17l-65 4l-6 31h440l-6 -31l-58 -4
q-68 -8 -107 -45t-108 -164l-252 -446v-527zM803 1745h170l-365 -379h-20z" />
    <glyph glyph-name="Thorn" unicode="&#xde;" horiz-adv-x="1122" 
d="M598 305q-82 0 -201 17v-259q0 -10 15.5 -16t79.5 -10l118 -6l6 -31h-577l6 31l109 8q82 7 82 31v1147q0 10 -15.5 15t-79.5 11l-94 6l-6 31h551l-6 -31l-109 -8q-80 -8 -80 -31v-196h109q37 0 78 -2q242 0 359.5 -91.5t117.5 -246.5t-101.5 -234.5t-190.5 -107
t-171 -27.5zM575 344q150 0 232 83t82 233t-84 235.5t-273 81.5h-65q-31 0 -70 -2v-608q101 -23 178 -23z" />
    <glyph glyph-name="germandbls" unicode="&#xdf;" horiz-adv-x="1552" 
d="M414 973q84 0 184 -31l70 21l6 -267h-29l-88 195q-76 49 -162 49t-140 -49t-54 -105t17.5 -86t57.5 -60.5t127 -60.5q164 -56 239 -121t75 -185q0 -119 -100.5 -207.5t-248.5 -88.5t-288 48l-17 245h29l49 -125q78 -133 236 -133q104 0 164.5 56.5t60.5 145.5
t-63.5 136.5t-147.5 75.5q-148 49 -222.5 112.5t-74.5 171.5t84 185.5t236 77.5zM1190 973q84 0 184 -31l70 21l6 -267h-29l-88 195q-76 49 -162 49t-140 -49t-54 -105t17.5 -86t58 -61.5t126.5 -60.5q165 -56 239.5 -120.5t74.5 -183.5t-99.5 -208t-247.5 -89t-290 48
l-16 245h26l49 -125q78 -133 238 -133q104 0 164.5 56.5t60.5 145.5t-63 136.5t-147 75.5q-150 49 -224 112.5t-74 171.5t84 185.5t236 77.5z" />
    <glyph glyph-name="agrave" unicode="&#xe0;" horiz-adv-x="974" 
d="M565 422l-127 393h-8l-137 -393h272zM395 893q79 26 109 82h20l279 -815q24 -78 43 -100q19 -21 63 -25l60 -4l4 -31h-428l4 31l65 4q41 4 52 26q10 23 -9 82l-79 244h-297l-60 -174q-39 -108 -33 -134q6 -25 29 -33t64 -11l47 -4l4 -31h-344l6 31l43 4q31 4 49 11
q33 13 64 88q30 75 63 165l195 551zM156 1440h170l215 -379h-19z" />
    <glyph glyph-name="aacute" unicode="&#xe1;" horiz-adv-x="974" 
d="M565 422l-127 393h-8l-137 -393h272zM395 893q79 26 109 82h20l279 -815q24 -78 43 -100q19 -21 63 -25l60 -4l4 -31h-428l4 31l65 4q41 4 52 26q10 23 -9 82l-79 244h-297l-60 -174q-39 -108 -33 -134q6 -25 29 -33t64 -11l47 -4l4 -31h-344l6 31l43 4q31 4 49 11
q33 13 64 88q30 75 63 165l195 551zM627 1440h170l-365 -379h-20z" />
    <glyph glyph-name="acircumflex" unicode="&#xe2;" horiz-adv-x="974" 
d="M565 422l-127 393h-8l-137 -393h272zM395 893q79 26 109 82h20l279 -815q24 -78 43 -100q19 -21 63 -25l60 -4l4 -31h-428l4 31l65 4q41 4 52 26q10 23 -9 82l-79 244h-297l-60 -174q-39 -108 -33 -134q6 -25 29 -33t64 -11l47 -4l4 -31h-344l6 31l43 4q31 4 49 11
q33 13 64 88q30 75 63 165l195 551zM485 1434h27l262 -390h-22l-250 240h-4l-252 -240h-23z" />
    <glyph glyph-name="atilde" unicode="&#xe3;" horiz-adv-x="974" 
d="M565 422l-127 393h-8l-137 -393h272zM395 893q79 26 109 82h20l279 -815q24 -78 43 -100q19 -21 63 -25l60 -4l4 -31h-428l4 31l65 4q41 4 52 26q10 23 -9 82l-79 244h-297l-60 -174q-39 -108 -33 -134q6 -25 29 -33t64 -11l47 -4l4 -31h-344l6 31l43 4q31 4 49 11
q33 13 64 88q30 75 63 165l195 551zM188 1092q26 208 142 208q55 0 100 -20t89 -44t83 -44q80 -41 129 1q27 22 39 93h23q-27 -211 -141 -211q-56 1 -101 21t-122 65t-115 45t-64 -20t-39 -94h-23z" />
    <glyph glyph-name="adieresis" unicode="&#xe4;" horiz-adv-x="974" 
d="M565 422l-127 393h-8l-137 -393h272zM395 893q79 26 109 82h20l279 -815q24 -78 43 -100q19 -21 63 -25l60 -4l4 -31h-428l4 31l65 4q41 4 52 26q10 23 -9 82l-79 244h-297l-60 -174q-39 -108 -33 -134q6 -25 29 -33t64 -11l47 -4l4 -31h-344l6 31l43 4q31 4 49 11
q33 13 64 88q30 75 63 165l195 551zM298 1102q-50 0 -74 33q-46 63 0 134q24 36 74 36t75 -36t25 -69q0 -34 -26 -66q-24 -32 -74 -32zM679 1102q-50 0 -75 33q-48 63 0 134q25 36 75 36t74 -36q23 -36 23 -69q0 -34 -24 -66t-73 -32z" />
    <glyph glyph-name="aring" unicode="&#xe5;" horiz-adv-x="974" 
d="M565 422l-127 393h-8l-137 -393h272zM305 1116q0 68 48 123t134 55t134.5 -55t48.5 -123t-35 -117t-96 -65l11 -33q11 -33 31 -88t84 -246q64 -192 107 -319q55 -163 73.5 -186t63.5 -27l60 -4l4 -31h-428l4 31l65 4q41 4 51.5 26.5t-8.5 81.5l-79 244h-297l-60 -174
q-40 -111 -33 -135.5t29.5 -31.5t63.5 -11l47 -4l4 -31h-344l6 31l43 4q31 4 50 11t42.5 42t83.5 211l225 633q-66 16 -99.5 66t-33.5 118zM486 954q71 0 111 46.5t40 108.5t-40 109.5t-111 47.5t-109.5 -47.5t-38.5 -109.5t38.5 -108.5t109.5 -46.5z" />
    <glyph glyph-name="ae" unicode="&#xe6;" horiz-adv-x="1333" 
d="M614 424v481h-4l-272 -481h276zM166 81q0 -40 65 -46l60 -6l4 -29h-356l6 31l63 6q41 5 80 47.5t109 167.5l346 608q14 28 4 40t-72 18l-72 4l-6 30h805l17 -286h-29l-14 57q-39 111 -77 142.5t-85 43t-125 11.5h-133v-414l88 2q97 0 129.5 20t48.5 80l14 47l27 -2
l-33 -327h-26l-5 45q-2 33 -7 52t-27 33.5t-131 18.5l-78 2v-440l149 -4q156 0 213 49t103 158l16 57l35 -2l-49 -295h-758l4 31l88 8q57 7 57 22v328h-297l-94 -168q-57 -100 -57 -140z" />
    <glyph glyph-name="ccedilla" unicode="&#xe7;" horiz-adv-x="1038" 
d="M531 -217q-69 0 -136 -21v21l174 194q-228 4 -373 138.5t-145 353.5t150.5 361.5t392.5 142.5q136 0 246 -51l98 34l8 -303h-28l-111 232q-84 55 -194 55q-196 0 -300 -129t-104 -335t108.5 -336t276.5 -130q109 0 176.5 46t122.5 126l47 113h31l-47 -262l-60 -2
q-105 -42 -254 -54l-102 -112q119 16 199.5 -27t80.5 -127q0 -150 -158.5 -190.5t-238.5 -48.5l-8 18q309 49 309 182q0 55 -46 83t-115 28z" />
    <glyph glyph-name="egrave" unicode="&#xe8;" horiz-adv-x="940" 
d="M180 61v834q0 8 -11 12t-58 8l-60 9l-4 28h762l16 -286l-30 -2l-17 59q-39 112 -94 153q-54 42 -201 44h-159v-414l108 2q102 0 131 15t42 35t22 50l14 47l27 -2l-33 -329l-25 2l-6 45q-4 62 -37 82q-34 20 -143 20l-100 4v-440l176 -4q218 0 285 125q22 39 40 84l17 55
h35l-50 -297h-782l4 31l70 6q61 8 61 24zM154 1440h170l215 -379h-19z" />
    <glyph glyph-name="eacute" unicode="&#xe9;" horiz-adv-x="940" 
d="M180 61v834q0 8 -11 12t-58 8l-60 9l-4 28h762l16 -286l-30 -2l-17 59q-39 112 -94 153q-54 42 -201 44h-159v-414l108 2q102 0 131 15t42 35t22 50l14 47l27 -2l-33 -329l-25 2l-6 45q-4 62 -37 82q-34 20 -143 20l-100 4v-440l176 -4q218 0 285 125q22 39 40 84l17 55
h35l-50 -297h-782l4 31l70 6q61 8 61 24zM623 1440h170l-365 -379h-20z" />
    <glyph glyph-name="ecircumflex" unicode="&#xea;" horiz-adv-x="940" 
d="M180 61v834q0 8 -11 12t-58 8l-60 9l-4 28h762l16 -286l-30 -2l-17 59q-39 112 -94 153q-54 42 -201 44h-159v-414l108 2q102 0 131 15t42 35t22 50l14 47l27 -2l-33 -329l-25 2l-6 45q-4 62 -37 82q-34 20 -143 20l-100 4v-440l176 -4q218 0 285 125q22 39 40 84l17 55
h35l-50 -297h-782l4 31l70 6q61 8 61 24zM444 1434h27l262 -390h-22l-250 240h-4l-252 -240h-23z" />
    <glyph glyph-name="edieresis" unicode="&#xeb;" horiz-adv-x="940" 
d="M180 61v834q0 8 -11 12t-58 8l-60 9l-4 28h762l16 -286l-30 -2l-17 59q-39 112 -94 153q-54 42 -201 44h-159v-414l108 2q102 0 131 15t42 35t22 50l14 47l27 -2l-33 -329l-25 2l-6 45q-4 62 -37 82q-34 20 -143 20l-100 4v-440l176 -4q218 0 285 125q22 39 40 84l17 55
h35l-50 -297h-782l4 31l70 6q61 8 61 24zM365 1200q0 -34 -25 -66t-75 -32t-74 33q-46 63 0 134q24 36 74 36t75 -36t25 -69zM646 1102q-50 0 -75 33q-48 63 0 134q25 36 75 36t74 -36t24 -69q0 -34 -24 -66t-74 -32z" />
    <glyph glyph-name="igrave" unicode="&#xec;" horiz-adv-x="542" 
d="M199 895q0 14 -68 20l-70 9l-4 28h428l-4 -28l-82 -9q-57 -8 -57 -24v-832q0 -10 11 -14t57 -8l69 -6l6 -31h-430l6 31l80 6q57 8 58 24v834zM-45 1440h170l215 -379h-18z" />
    <glyph glyph-name="iacute" unicode="&#xed;" horiz-adv-x="542" 
d="M199 895q0 14 -68 20l-70 9l-4 28h428l-4 -28l-82 -9q-57 -8 -57 -24v-832q0 -10 11 -14t57 -8l69 -6l6 -31h-430l6 31l80 6q57 8 58 24v834zM416 1440h170l-365 -379h-20z" />
    <glyph glyph-name="icircumflex" unicode="&#xee;" horiz-adv-x="542" 
d="M199 895q0 14 -68 20l-70 9l-4 28h428l-4 -28l-82 -9q-57 -8 -57 -24v-832q0 -10 11 -14t57 -8l69 -6l6 -31h-430l6 31l80 6q57 8 58 24v834zM260 1434h27l262 -390h-23l-250 240h-4l-252 -240h-22z" />
    <glyph glyph-name="idieresis" unicode="&#xef;" horiz-adv-x="542" 
d="M199 895q0 14 -68 20l-70 9l-4 28h428l-4 -28l-82 -9q-57 -8 -57 -24v-832q0 -10 11 -14t57 -8l69 -6l6 -31h-430l6 31l80 6q57 8 58 24v834zM83 1102q-50 0 -74 33q-46 63 0 134q24 36 74 36t75 -36q24 -36 24 -69q0 -34 -24 -66t-75 -32zM464 1102q-50 0 -75 33
q-48 63 0 134q25 36 75 36t74 -36t24 -69q0 -34 -24 -66t-74 -32z" />
    <glyph glyph-name="eth" unicode="&#xf0;" horiz-adv-x="1048" 
d="M190 500v395q0 14 -69 20l-70 9l-4 28l397 2q260 4 404.5 -123t144.5 -340t-155 -352t-422 -139h-371l6 31l80 6q59 8 59 24v400h-145l4 39h141zM334 461v-402l112 -22q185 0 288.5 121.5t103.5 314.5t-107.5 320t-314.5 127h-82v-420h223l6 -39h-229z" />
    <glyph glyph-name="ntilde" unicode="&#xf1;" horiz-adv-x="1099" 
d="M233 831v-712q0 -45 22 -63t79 -21l53 -4l4 -31h-338l4 31l54 4q43 4 65 21t21 65l4 717q-35 68 -113 77l-47 9l-4 28h289l567 -741h4v623q0 47 -20 63t-80 21l-52 6l-6 28h342l-6 -28l-53 -6q-43 -4 -65 -22t-21 -67l-6 -839h-41l-649 841h-7zM281 1092q26 208 141 208
q55 0 100 -20t89 -44t83 -44q80 -41 129 1q27 22 39 93h23q-27 -211 -141 -211q-56 1 -101 21t-122 65t-115 45q-37 0 -63 -20t-40 -94h-22z" />
    <glyph glyph-name="ograve" unicode="&#xf2;" horiz-adv-x="1120" 
d="M193 116q-142 139 -142 355q0 99 41 191t111 160q154 150 367 151q213 0 354 -140t141 -350t-150 -357q-151 -149 -366 -149q-214 0 -356 139zM814 132q95 120 95 336t-100 344t-254 128t-249 -122t-95 -336t100 -345q100 -125 254 -125t249 120zM236 1440h170l215 -379
h-19z" />
    <glyph glyph-name="oacute" unicode="&#xf3;" horiz-adv-x="1120" 
d="M193 116q-142 139 -142 355q0 99 41 191t111 160q154 150 367 151q213 0 354 -140t141 -350t-150 -357q-151 -149 -366 -149q-214 0 -356 139zM814 132q95 120 95 336t-100 344t-254 128t-249 -122t-95 -336t100 -345q100 -125 254 -125t249 120zM717 1440h170l-365 -379
h-20z" />
    <glyph glyph-name="ocircumflex" unicode="&#xf4;" horiz-adv-x="1120" 
d="M193 116q-142 139 -142 355q0 99 41 191t111 160q154 150 367 151q213 0 354 -140t141 -350t-150 -357q-151 -149 -366 -149q-214 0 -356 139zM814 132q95 120 95 336t-100 344t-254 128t-249 -122t-95 -336t100 -345q100 -125 254 -125t249 120zM551 1434h27l262 -390
h-23l-250 240h-4l-252 -240h-22z" />
    <glyph glyph-name="otilde" unicode="&#xf5;" horiz-adv-x="1120" 
d="M193 116q-142 139 -142 355q0 99 41 191t111 160q154 150 367 151q213 0 354 -140t141 -350t-150 -357q-151 -149 -366 -149q-214 0 -356 139zM814 132q95 120 95 336t-100 344t-254 128t-249 -122t-95 -336t100 -345q100 -125 254 -125t249 120zM260 1092
q26 208 142 208q56 0 100 -20q45 -20 89 -44t83 -44q140 -72 168 94h22q-28 -211 -140 -211q-56 1 -101 21t-122 65t-115 45t-64 -20t-39 -94h-23z" />
    <glyph glyph-name="odieresis" unicode="&#xf6;" horiz-adv-x="1120" 
d="M193 116q-142 139 -142 355q0 99 41 191t111 160q154 150 367 151q213 0 354 -140t141 -350t-150 -357q-151 -149 -366 -149q-214 0 -356 139zM814 132q95 120 95 336t-100 344t-254 128t-249 -122t-95 -336t100 -345q100 -125 254 -125t249 120zM376 1102q-50 0 -74 33
q-46 63 0 134q24 36 74 36t75 -36t25 -69q0 -34 -26 -66q-24 -32 -74 -32zM854 1200q0 -34 -24 -66t-73 -32q-50 0 -75 33t-25 65t25 69q25 36 75 36q49 0 73 -36t24 -69z" />
    <glyph glyph-name="oslash" unicode="&#xf8;" horiz-adv-x="1120" 
d="M1065 498q0 -224 -150 -372.5t-358 -148.5q-129 0 -233 50l-80 -140h-41l88 156q-111 61 -175.5 172t-64.5 233q0 225 152 375t360 150q127 0 236 -51l73 127h43l-84 -146q109 -63 171.5 -172.5t62.5 -232.5zM563 12q156 0 251 120t95 344t-118 358l-433 -748
q90 -74 205 -74zM555 938q-154 0 -249 -121t-95 -351t121 -353l432 747q-88 78 -209 78z" />
    <glyph glyph-name="ugrave" unicode="&#xf9;" horiz-adv-x="1058" 
d="M542 -27q-188 0 -281 82t-93 269v571q0 8 -10 12t-58 8l-71 9l-6 28h438l-6 -28l-84 -9q-56 -7 -58 -24v-541q0 -162 71 -234t208 -73q137 0 207 84t69 244v463q0 47 -22 63q-23 16 -80 21l-55 6l-4 28h344l-4 -28l-56 -6q-43 -4 -65 -22t-21 -67l-2 -467
q0 -182 -87 -286q-86 -104 -274 -103zM258 1440h170l215 -379h-18z" />
    <glyph glyph-name="uacute" unicode="&#xfa;" horiz-adv-x="1058" 
d="M542 -27q-188 0 -281 82t-93 269v571q0 8 -10 12t-58 8l-71 9l-6 28h438l-6 -28l-84 -9q-56 -7 -58 -24v-541q0 -162 71 -234t208 -73q137 0 207 84t69 244v463q0 47 -22 63q-23 16 -80 21l-55 6l-4 28h344l-4 -28l-56 -6q-43 -4 -65 -22t-21 -67l-2 -467
q0 -182 -87 -286q-86 -104 -274 -103zM707 1440h170l-365 -379h-20z" />
    <glyph glyph-name="ucircumflex" unicode="&#xfb;" horiz-adv-x="1058" 
d="M542 -27q-188 0 -281 82t-93 269v571q0 8 -10 12t-58 8l-71 9l-6 28h438l-6 -28l-84 -9q-56 -7 -58 -24v-541q0 -162 71 -234t208 -73q137 0 207 84t69 244v463q0 47 -22 63q-23 16 -80 21l-55 6l-4 28h344l-4 -28l-56 -6q-43 -4 -65 -22t-21 -67l-2 -467
q0 -182 -87 -286q-86 -104 -274 -103zM543 1434h26l262 -390h-22l-250 240h-4l-252 -240h-22z" />
    <glyph glyph-name="udieresis" unicode="&#xfc;" horiz-adv-x="1058" 
d="M542 -27q-188 0 -281 82t-93 269v571q0 8 -10 12t-58 8l-71 9l-6 28h438l-6 -28l-84 -9q-56 -7 -58 -24v-541q0 -162 71 -234t208 -73q137 0 207 84t69 244v463q0 47 -22 63q-23 16 -80 21l-55 6l-4 28h344l-4 -28l-56 -6q-43 -4 -65 -22t-21 -67l-2 -467
q0 -182 -87 -286q-86 -104 -274 -103zM378 1102q-50 0 -74 33q-46 63 0 134q24 36 74 36t75 -36t25 -69q0 -34 -26 -66q-24 -32 -74 -32zM759 1102q-50 0 -75 33t-25 65t25 69q25 36 75 36t74 -36q23 -36 23 -69q0 -34 -24 -66t-73 -32z" />
    <glyph glyph-name="yacute" unicode="&#xfd;" horiz-adv-x="942" 
d="M399 61v355l-235 405q-29 51 -51 72q-23 20 -64 25l-53 6l-4 28h424l-6 -28l-58 -6q-53 -4 -57 -24t27 -75l198 -354h4l152 278q57 99 54 127q-3 27 -21 35t-56 13l-53 6l-6 28h346l-4 -28l-49 -6q-43 -4 -77 -37t-91 -140l-174 -311v-371q0 -10 11 -14t56 -8l80 -6
l4 -31h-448l4 31l90 6q57 7 57 24zM649 1397h170l-364 -379h-21z" />
    <glyph glyph-name="thorn" unicode="&#xfe;" horiz-adv-x="882" 
d="M330 59q0 -10 11 -14t56 -8l90 -6l7 -31h-455l6 31l84 8q55 7 55 22v834q0 8 -10 12t-57 8l-78 9l-4 28h446l-4 -28l-90 -11q-57 -6 -57 -22v-131h133q186 2 277 -68.5t91 -187.5t-105.5 -197t-267.5 -80q-79 0 -128 11v-179zM470 262q87 0 147.5 61t60.5 169
t-59.5 173.5t-194.5 61.5h-47q-20 0 -47 -2v-449q53 -14 140 -14z" />
    <glyph glyph-name="ydieresis" unicode="&#xff;" horiz-adv-x="942" 
d="M399 61v355l-235 405q-29 51 -51 72q-23 20 -64 25l-53 6l-4 28h424l-6 -28l-58 -6q-53 -4 -57 -24t27 -75l198 -354h4l152 278q57 99 54 127q-3 27 -21 35t-56 13l-53 6l-6 28h346l-4 -28l-49 -6q-43 -4 -77 -37t-91 -140l-174 -311v-371q0 -10 11 -14t56 -8l80 -6
l4 -31h-448l4 31l90 6q57 7 57 24zM290 1102q-50 0 -74 33q-46 63 0 134q24 36 74 36t75 -36t25 -69q0 -34 -26 -66q-24 -32 -74 -32zM768 1200q0 -34 -24 -66t-73 -32q-50 0 -75 33t-25 65t25 69q25 36 75 36q49 0 73 -36t24 -69z" />
    <glyph glyph-name="dotlessi" unicode="&#x131;" horiz-adv-x="542" 
d="M199 895q0 14 -68 20l-70 9l-4 28h428l-4 -28l-82 -9q-57 -8 -57 -24v-832q0 -10 11.5 -14t56.5 -8l69 -6l6 -31h-430l6 31l80 6q57 8 58 24v834z" />
    <glyph glyph-name="Lslash" unicode="&#x141;" horiz-adv-x="1126" 
d="M236 1212q0 20 -93 29l-86 8l-6 31h561l-6 -31l-133 -10q-76 -7 -76 -33v-581l215 67l4 -41l-219 -67v-541l183 -6q204 0 271 53t93.5 103.5t52.5 111.5l25 94h39l-70 -399h-942l6 31l103 10q78 7 78 31v463l-197 -62v43l197 59v637z" />
    <glyph glyph-name="lslash" unicode="&#x142;" horiz-adv-x="876" 
d="M190 893q0 10 -11 14t-58 8l-70 7l-4 30h449l-4 -30l-101 -9q-57 -6 -57 -22v-389l168 51v-39l-168 -53v-424l121 -2q152 0 212.5 50t106.5 167l19 63h34l-49 -315h-733l6 31l80 8q59 6 59 24v353l-155 -47l2 41l153 47v436z" />
    <glyph glyph-name="OE" unicode="&#x152;" horiz-adv-x="1884" 
d="M271.5 1093q203.5 185 574.5 185l870 2l27 -365h-29l-22 84q-23 63 -47.5 109.5t-87 90.5t-254.5 44h-191v-561l125 2q141 4 178 21.5t52.5 42t27.5 63.5l23 59l26 -2l-41 -413l-26 2l-7 57q-4 82 -48.5 104.5t-196.5 26.5l-113 2v-604l207 -6q296 5 355 105t81 157
l25 80l35 -2l-72 -377h-940q-345 -4 -540 165.5t-195 456.5q0 286 203.5 471zM954 41v1169l-157 31q-266 -4 -411.5 -168t-145.5 -426t152 -434t444 -172h118z" />
    <glyph glyph-name="oe" unicode="&#x153;" horiz-adv-x="1441" 
d="M600 0q-261 0 -405 126.5t-144 336.5t152 350.5t428 140.5l680 -2l16 -286h-31l-14 57q-34 112 -88 154.5t-203 42.5h-137v-414l90 2q95 0 124.5 16.5t40.5 35t21 48.5l15 47l26 -2l-32 -327h-27l-4 45q-4 63 -32 81.5t-142 22.5l-80 2v-440l154 -4q216 0 259.5 81
t61.5 126l19 57l30 -2l-47 -295h-731zM713 35v862l-115 23q-185 0 -288 -123t-103 -301q0 -326 156.5 -393.5t265.5 -67.5h84z" />
    <glyph glyph-name="Scaron" unicode="&#x160;" horiz-adv-x="999" 
d="M543 1309q113 0 227 -39l90 24l12 -338h-30l-111 250q-95 64 -217 65q-120 1 -190 -68t-70 -167q0 -156 182 -235q55 -25 128 -51q267 -93 339 -241q29 -60 29 -141t-34 -152q-70 -147 -236 -212q-85 -33 -181 -34q-182 -2 -379 67l-22 311h33l55 -155q98 -185 319 -185
q133 0 223 81q83 79 83 202q0 172 -183 260q-59 29 -134 55q-159 54 -254 135t-95 223t109 244q109 101 307 101zM242 1761h22l252 -243h4l250 243h23l-263 -389h-26z" />
    <glyph glyph-name="scaron" unicode="&#x161;" 
d="M417 973q88 0 181 -31l70 21l6 -267h-29l-88 195q-76 49 -162 49t-140 -49t-54 -105q0 -92 65 -140q47 -36 172 -79t181 -90q55 -47 77 -93t21 -106q0 -122 -100 -211q-100 -90 -248 -90q-149 0 -289 48l-17 245h29l49 -125q78 -133 236 -133q105 0 165 56t60 146
q0 89 -63 137q-63 47 -147 75t-133 52q-165 82 -165 229q0 53 21 101q42 100 157 144q57 22 145 21zM129 1419h23l251 -243h5l249 243h23l-262 -389h-27z" />
    <glyph glyph-name="Ydieresis" unicode="&#x178;" horiz-adv-x="1243" 
d="M702 63q0 -10 16 -15t83 -11l100 -6l6 -31h-569l6 31l117 8q80 7 82 31v493l-328 559q-35 63 -64 90q-30 27 -85 31l-70 6l-6 31h524l-6 -31l-78 -4q-66 -4 -70 -33t39 -102l277 -483h6l221 401q65 121 61 155q-5 34 -29 45t-71 17l-65 4l-6 31h440l-6 -31l-58 -4
q-68 -8 -107 -45t-108 -164l-252 -446v-527zM545 1499q0 -33 -25 -65t-75 -33q-49 0 -73 33q-24 34 -24 66t24 68t74 36t74 -36q25 -36 25 -69zM924 1499q0 -33 -24 -65t-74 -33q-50 0 -74 33q-24 34 -25 66q0 32 25 68q24 36 74 36t74 -36t24 -69z" />
    <glyph glyph-name="Zcaron" unicode="&#x17d;" horiz-adv-x="1150" 
d="M879 1245h-304q-288 0 -372 -151q-27 -47 -47 -107l-19 -76h-33l29 369h936v-27l-809 -1210v-6l322 -2q228 0 324 76q48 37 76 90t52 121l25 84h39l-60 -406h-972v25l813 1214v6zM307 1739h23l252 -244h4l250 244h22l-262 -389h-27z" />
    <glyph glyph-name="zcaron" unicode="&#x17e;" horiz-adv-x="897" 
d="M827 952v-26l-602 -889v-2h211q177 0 249 53t110 170l18 59h33l-43 -317h-746v27l598 888v3l-202 2q-159 0 -225 -50t-101 -151l-14 -55h-29l20 288h723zM176 1405h23l252 -244h4l250 244h22l-262 -389h-27z" />
    <glyph glyph-name="florin" unicode="&#x192;" horiz-adv-x="999" 
d="M150 -113q-70 0 -112 33t-42 76t25.5 69.5t57.5 26.5q60 0 84.5 -45.5t-7.5 -101.5q8 -4 37.5 1t50.5 8q49 7 95 131.5t103 418.5l43 235l-206 4l18 64l207 12q68 279 182 389q97 97 221 97q72 0 117 -34t45 -80t-28.5 -72.5t-59.5 -26.5q-61 0 -82 48t21 101
q-40 10 -91 10q-70 -12 -108.5 -124.5t-79.5 -311.5h254l-6 -74h-260l-43 -180q-96 -452 -234 -590q-80 -84 -202 -84z" />
    <glyph glyph-name="circumflex" unicode="&#x2c6;" 
d="M375 1391h26l263 -390h-23l-250 240h-4l-252 -240h-22z" />
    <glyph glyph-name="caron" unicode="&#x2c7;" 
d="M113 1391h22l252 -244h4l250 244h23l-263 -390h-26z" />
    <glyph glyph-name="breve" unicode="&#x2d8;" 
d="M390 1008q-118 0 -169 91.5t-88 254.5h19q43 -117 99 -183.5t140 -66.5t140.5 66.5t99.5 183.5h20q-38 -167 -73 -226t-78 -89.5t-110 -30.5z" />
    <glyph glyph-name="dotaccent" unicode="&#x2d9;" 
d="M389 1085q-51 0 -75.5 34t-24.5 68t24.5 68.5t75.5 34.5t74.5 -34.5t23.5 -68.5t-23.5 -68t-74.5 -34z" />
    <glyph glyph-name="ring" unicode="&#x2da;" 
d="M389 1030q-86 0 -134 54.5t-48 130t48 130t134 54.5t134 -54.5t48 -130t-48 -130t-134 -54.5zM388 1059q71 0 110 46t39 109.5t-39 109.5t-110 46t-109.5 -46t-38.5 -109.5t38.5 -109.5t109.5 -46z" />
    <glyph glyph-name="ogonek" unicode="&#x2db;" 
d="M293 -254q0 -68 41 -110t96 -42t88 20t62 46l10 -18q-96 -113 -205 -113q-82 0 -138 53q-57 53 -58 121q-2 114 107 211q85 75 196 119h47q-246 -120 -246 -287z" />
    <glyph glyph-name="tilde" unicode="&#x2dc;" 
d="M86 1049q26 208 142 208q56 0 100.5 -20t88.5 -44t82.5 -44.5t70.5 -20.5t58.5 21.5t39.5 93.5h22q-28 -211 -140 -211q-56 0 -101.5 20.5t-88.5 45t-81.5 45t-71.5 20.5t-58.5 -20.5t-39.5 -93.5h-23z" />
    <glyph glyph-name="hungarumlaut" unicode="&#x2dd;" 
d="M352 1397h156l-338 -379h-23zM649 1397h154l-334 -379h-25z" />
    <glyph glyph-name="pi" unicode="&#x3c0;" horiz-adv-x="1460" 
d="M731 -29q-139 0 -261 52.5t-213 143.5t-143.5 213t-52.5 261t52.5 261t143.5 213t213 144.5t261 53.5t261 -53.5t213 -144.5t143.5 -213t52.5 -261t-52.5 -261t-143.5 -213t-213 -143.5t-261 -52.5zM731 4q131 0 246 50t201 137.5t136 203t50 246.5t-50 247t-136 203
t-201 137t-246 50t-246.5 -50t-201.5 -137t-136.5 -203t-50.5 -247t50.5 -246.5t136.5 -203t201.5 -137.5t246.5 -50zM790 590q-40 0 -120 8v-293q0 -15 53 -18l76 -6l4 -27h-352l2 27l69 6q47 6 47 20v654q0 8 -9 11t-46 7l-59 6l-4 25h327q143 0 213 -53.5t70 -145.5
t-61.5 -140t-115.5 -64.5t-94 -16.5zM772 616q90 0 137 49.5t47 137.5q0 180 -206 180l-80 -2v-350q75 -15 102 -15z" />
    <glyph glyph-name="endash" unicode="&#x2013;" horiz-adv-x="1024" 
d="M0 520h1024v-74h-1024v74z" />
    <glyph glyph-name="emdash" unicode="&#x2014;" horiz-adv-x="2048" 
d="M0 520h2048v-74h-2048v74z" />
    <glyph glyph-name="quoteleft" unicode="&#x2018;" horiz-adv-x="376" 
d="M164 1115.5q0 -101.5 58.5 -130t96.5 -22.5q9 -40 -21 -75.5t-91 -35.5q-62 0 -108 44t-46 108q0 106 74 194.5t184 138.5l17 -14q-164 -106 -164 -207.5z" />
    <glyph glyph-name="quoteright" unicode="&#x2019;" horiz-adv-x="374" 
d="M211 1090q0 75 -55 102t-99 27q-4 40 24 76t89 36t106.5 -46.5t45.5 -110.5q0 -107 -73 -193t-181 -137l-19 16q162 101 162 230z" />
    <glyph glyph-name="quotesinglbase" unicode="&#x201a;" horiz-adv-x="374" 
d="M211 -14q0 75 -55 102t-99 27q-4 40 24 76t89 36t106.5 -46.5t45.5 -110.5q0 -107 -73 -193t-181 -137l-19 16q162 101 162 230z" />
    <glyph glyph-name="quotedblleft" unicode="&#x201c;" horiz-adv-x="718" 
d="M512 1115.5q0 -101.5 58 -130t96 -22.5q9 -38 -20 -74.5t-90 -36.5q-62 0 -108.5 44t-46.5 108q0 108 75.5 196t180.5 137l19 -14q-164 -106 -164 -207.5zM164 1115.5q0 -101.5 58.5 -130t96.5 -22.5q9 -40 -21 -75.5t-91 -35.5q-62 0 -108 44t-46 108q0 106 74 194.5
t184 138.5l17 -14q-164 -106 -164 -207.5z" />
    <glyph glyph-name="quotedblright" unicode="&#x201d;" horiz-adv-x="716" 
d="M211 1090q0 75 -55 102t-99 27q-4 40 24 76t89 36t106.5 -46.5t45.5 -110.5q0 -107 -73 -193t-181 -137l-19 16q162 101 162 230zM559 1090q0 75 -55 102t-98 27q-8 69 34.5 90.5t73.5 21.5q66 0 111 -46.5t45 -110.5q0 -107 -74 -194t-182 -136l-17 16q162 101 162 230z
" />
    <glyph glyph-name="quotedblbase" unicode="&#x201e;" horiz-adv-x="716" 
d="M211 -14q0 75 -55 102t-99 27q-4 40 24 76t89 36t106.5 -46.5t45.5 -110.5q0 -107 -73 -193t-181 -137l-19 16q162 101 162 230zM559 -14q0 75 -55 102t-98 27q-8 69 34.5 90.5t73.5 21.5q66 0 111 -46.5t45 -110.5q0 -107 -74 -194t-182 -136l-17 16q162 101 162 230z
" />
    <glyph glyph-name="dagger" unicode="&#x2020;" horiz-adv-x="909" 
d="M436 836h-401l-2 36h403v408h39v-408h406l-4 -36h-402v-1155h-39v1155z" />
    <glyph glyph-name="daggerdbl" unicode="&#x2021;" horiz-adv-x="909" 
d="M436 63h-403l2 39h401v754h-401l-2 39h403v385h39v-385h406l-4 -39h-402v-754h402l4 -39h-406v-382h-39v382z" />
    <glyph glyph-name="bullet" unicode="&#x2022;" horiz-adv-x="888" 
d="M446 80q-22 0 -63 12t-84 29.5t-80 38t-51 37t-34.5 53.5t-39 80t-31 83t-12.5 73.5t43.5 134.5t66.5 125q37 39 139.5 80.5t135.5 41.5q54 0 159 -42.5t130 -71.5q48 -42 81.5 -149t33.5 -139t-42 -135t-72 -135t-103.5 -62t-114 -42t-62.5 -12z" />
    <glyph glyph-name="ellipsis" unicode="&#x2026;" horiz-adv-x="1206" 
d="M883 -27q-49 0 -81 33t-32 77t32 77t81 33t79.5 -33t30.5 -77t-30.5 -77t-79.5 -33zM325.5 -27q-49.5 0 -81 33t-31.5 77t31.5 77t81 33t80 -33t30.5 -77t-30.5 -77t-80 -33zM604 -27q-49 0 -80.5 33t-31.5 77t31.5 77t80.5 33t80 -33t31 -77t-31 -77t-80 -33z" />
    <glyph glyph-name="perthousand" unicode="&#x2030;" horiz-adv-x="1863" 
d="M1047 1311h47l-926 -1340h-49zM1560.5 -35q-65.5 0 -117.5 22.5t-88 61.5t-55.5 90t-19.5 108.5t19.5 110t55.5 91t88 62.5t117.5 24t118 -24t88 -62.5t55 -91t19.5 -110t-19.5 -108.5t-55 -90t-88 -61.5t-118 -22.5zM1560 4q110 0 173 70.5t63 173.5t-66 175.5
t-170 72.5q-105 0 -170 -73t-65 -175t62.5 -173t172.5 -71zM913.5 -35q-65.5 0 -117 22.5t-87 61.5t-55 90t-19.5 108.5t19.5 110t55 91t87 62.5t117 24t117.5 -24t88 -62.5t55.5 -91t19.5 -110t-19.5 -108.5t-55.5 -90t-88 -61.5t-117.5 -22.5zM913.5 4q110.5 0 173 70.5
t62.5 173.5t-65.5 175.5t-170.5 72.5t-169 -73.5t-64 -175.5q0 -101 61.5 -172t172 -71zM99.5 1234q76.5 83 201.5 83t204 -83t79 -203t-78 -201.5t-205 -81.5q-126 0 -202 81.5t-76 201.5t76.5 203zM475.5 858q63.5 72 63.5 173t-66 174t-170 73t-169.5 -72t-65.5 -176.5
t65.5 -174t171.5 -69.5q107 0 170.5 72z" />
    <glyph glyph-name="guilsinglleft" unicode="&#x2039;" horiz-adv-x="524" 
d="M41 436v35l420 340l10 -16l-276 -340l276 -340l-8 -19z" />
    <glyph glyph-name="guilsinglright" unicode="&#x203a;" horiz-adv-x="524" 
d="M53 115l277 340l-277 340l13 16l419 -340v-35l-422 -340z" />
    <glyph glyph-name="fraction" unicode="&#x2044;" horiz-adv-x="997" 
d="M958 1311h54l-973 -1340h-53z" />
    <glyph glyph-name="Euro" unicode="&#x20ac;" horiz-adv-x="999" 
d="M666 74q193 0 299 178l22 -14q-66 -119 -157 -193t-224 -74q-170 0 -299 131t-166 349h-131l6 36h119q-6 61 -6 119t8 107h-127l6 39h127q40 245 190.5 393.5t344.5 148.5q127 0 206 -47t79 -121q0 -37 -27 -63.5t-63 -26.5q-65 0 -86.5 58t8.5 104q-47 59 -129 59
q-152 0 -256.5 -140.5t-124.5 -364.5h415l7 -39h-426l-2 -70q0 -76 12 -156h409l7 -36h-408q55 -269 179 -323t188 -54z" />
    <glyph glyph-name="trademark" unicode="&#x2122;" horiz-adv-x="1136" 
d="M223 1257h-20q-57 -2 -83 -25.5t-44 -64.5l-10 -32h-19l16 145h402l8 -145h-18l-9 34q-18 45 -41.5 66.5t-82.5 21.5h-23v-395q0 -4 5 -5t22 -5l43 -4l2 -23h-224l5 23l49 4q23 2 22 12v393zM897 825v23l43 4q12 4 16.5 8t1.5 19l-6 360h-6l-151 -405h-29l-135 397h-4
q-2 0 -2 1t-2 1l-9 -326q0 -37 7.5 -46t31.5 -11l33 -2l2 -23h-172l4 23l33 2q23 2 30 11t7 48l10 326q-9 15 -31 18l-39 7l-2 20h162l113 -344h8l123 344h166l-4 -20l-45 -7q-20 -2 -21 -12l8 -364q2 -14 6.5 -17.5t22.5 -7.5l37 -4l2 -23h-209z" />
    <glyph glyph-name="Omega" unicode="&#x2126;" horiz-adv-x="1761" 
d="M180 61v834q0 8 -10 12t-55 8l-64 9l-4 28h754l20 -290l-30 -3l-17 60q-37 112 -78 144t-92 44.5t-135 12.5h-145v-424l98 2q105 4 132.5 17t39.5 32.5t22 50.5l15 47l26 -2l-32 -328h-27l-6 45q-4 64 -34.5 82.5t-145.5 22.5h-88v-406q0 -10 11 -14t56 -8l92 -6l6 -31
h-444l4 31l76 6q55 7 55 24zM1061 61v834q0 8 -9.5 12t-56.5 8l-65 9l-4 28h757l19 -290l-33 -3l-14 60q-35 108 -92.5 154.5t-210.5 46.5h-148v-424l99 2q101 4 138.5 21.5t53.5 78.5l14 47l29 -2l-35 -328h-24l-6 45q-4 63 -35 82t-144 23h-90v-406q0 -10 11.5 -14
t56.5 -8l92 -6l4 -31h-444l4 31l78 6q55 7 55 24z" />
    <glyph glyph-name="Delta" unicode="&#x2206;" horiz-adv-x="710" 
d="M418 250v643q0 10 -11.5 14t-58.5 8l-82 7l-4 30h447l-4 -30l-89 -9q-57 -2 -57 -22v-653q0 -94 -92 -176t-236 -82t-174 61t-30 95t24.5 58.5t61.5 24.5t59.5 -23.5t22.5 -56.5q0 -59 -54 -78q30 -49 115 -49q86 0 124 54.5t38 183.5z" />
    <glyph glyph-name="radical" unicode="&#x221a;" horiz-adv-x="2623" 
d="M180 61v834q0 8 -10 12t-55 8l-64 9l-4 28h754l20 -290l-30 -3l-17 60q-37 112 -78 144t-92 44.5t-135 12.5h-145v-424l98 2q105 4 132.5 17t39.5 32.5t22 50.5l15 47l26 -2l-32 -328h-27l-6 45q-4 64 -34.5 82.5t-145.5 22.5h-88v-406q0 -10 11 -14t56 -8l92 -6l6 -31
h-444l4 31l76 6q55 7 55 24zM1939 61v832q0 10 -9 14t-54 8l-66 7l-4 30h441l-4 -30l-101 -9q-59 -4 -59 -22v-854l123 -2q152 0 212.5 50t106.5 167l19 63h32l-49 -315h-723l4 31l78 8q53 7 53 22zM1061 61v834q0 8 -9.5 12t-56.5 8l-65 9l-4 28h757l19 -290l-33 -3l-14 60
q-35 108 -92.5 154.5t-210.5 46.5h-148v-424l99 2q101 4 138.5 21.5t53.5 78.5l14 47l29 -2l-35 -328h-24l-6 45q-4 63 -35 82t-144 23h-90v-406q0 -10 11.5 -14t56.5 -8l92 -6l4 -31h-444l4 31l78 6q55 7 55 24z" />
    <glyph glyph-name="approxequal" unicode="&#x2248;" horiz-adv-x="2301" 
d="M180 61v834q0 8 -10 12t-55 8l-64 9l-4 28h754l20 -290l-30 -3l-17 60q-37 112 -78 144t-92 44.5t-135 12.5h-145v-424l98 2q105 4 132.5 17t39.5 32.5t22 50.5l15 47l26 -2l-32 -328h-27l-6 45q-4 64 -34.5 82.5t-145.5 22.5h-88v-406q0 -10 11 -14t56 -8l92 -6l6 -31
h-444l4 31l76 6q55 7 55 24zM1960 61v834q0 14 -68 20l-69 9l-4 28h428l-4 -28l-82 -9q-58 -7 -58 -24v-832q0 -10 11.5 -14t56.5 -8l70 -6l4 -31h-428l6 31l80 6q57 8 57 24zM1061 61v834q0 8 -9.5 12t-56.5 8l-65 9l-4 28h757l19 -290l-33 -3l-14 60q-35 108 -92.5 154.5
t-210.5 46.5h-148v-424l99 2q101 4 138.5 21.5t53.5 78.5l14 47l29 -2l-35 -328h-24l-6 45q-4 63 -35 82t-144 23h-90v-406q0 -10 11.5 -14t56.5 -8l92 -6l4 -31h-444l4 31l78 6q55 7 55 24z" />
    <glyph glyph-name="apple" unicode="&#xf8ff;" horiz-adv-x="1552" 
d="M602 236l-383 -140l139 383l-370 176l370 170l-139 387l383 -141l176 371l170 -371l387 141l-141 -387l369 -168l-369 -174l141 -387l-387 142l-174 -371zM905 346l361 -180l-179 362l377 129l-377 125l179 361l-361 -178l-127 378l-131 -378l-358 178l178 -361
l-381 -127l381 -131l-178 -358l358 180l127 -381z" />
    <glyph glyph-name="fi" unicode="&#xfb01;" horiz-adv-x="1421" 
d="M180 61v834q0 8 -10 12t-55 8l-64 9l-4 28h754l20 -290l-30 -3l-17 60q-37 112 -78 144t-92 44.5t-135 12.5h-145v-424l98 2q105 4 132.5 17t39.5 32.5t22 50.5l15 47l26 -2l-32 -328h-27l-6 45q-4 64 -34.5 82.5t-145.5 22.5h-88v-406q0 -10 11 -14t56 -8l92 -6l6 -31
h-444l4 31l76 6q55 7 55 24zM1079 61v834q0 14 -67 20l-70 9l-6 28h430l-4 -28l-82 -9q-57 -8 -57 -24v-832q0 -10 11 -14t58 -8l68 -6l6 -31h-430l6 31l80 6q57 7 57 24z" />
    <glyph glyph-name="fl" unicode="&#xfb02;" horiz-adv-x="1742" 
d="M180 61v834q0 8 -10 12t-55 8l-64 9l-4 28h754l20 -290l-30 -3l-17 60q-37 112 -78 144t-92 44.5t-135 12.5h-145v-424l98 2q105 4 132.5 17t39.5 32.5t22 50.5l15 47l26 -2l-32 -328h-27l-6 45q-4 64 -34.5 82.5t-145.5 22.5h-88v-406q0 -10 11 -14t56 -8l92 -6l6 -31
h-444l4 31l76 6q55 7 55 24zM1061 61v832q0 10 -9.5 14t-56.5 8l-65 7l-4 30h440l-4 -30l-100 -9q-57 -2 -58 -22v-854l121 -2q152 0 211.5 49t108.5 168l18 63h33l-49 -315h-723l4 31l78 8q55 7 55 22z" />
    </font>
</defs>
</svg>
