<?xml version="1.0" standalone="no"?>
<!DOCTYPE svg PUBLIC "-//W3C//DTD SVG 1.1//EN" "http://www.w3.org/Graphics/SVG/1.1/DTD/svg11.dtd" >
<svg xmlns="http://www.w3.org/2000/svg">
<metadata>
Created by FontPrep 20130207 at Tue Jul 18 09:02:15 2017
 By Richard Lyon
Copyright  2005, Joshua Darden &#38; Phil's Fonts, Inc. All rights reserved. Published by Garagefonts USA 301-260-2285 www.garagefonts.com
</metadata>
<defs>
<font id="3e90ade512f1f57e334098083696daf9" horiz-adv-x='1024' >
  <font-face 
    font-family="FreightDispBold"
    font-weight="400"
    font-stretch="normal"
    units-per-em="2048"
    panose-1="2 0 8 3 9 0 0 2 0 4"
    ascent="1536"
    descent="-512"
    x-height="891"
    cap-height="1280"
    bbox="-193 -557 2050 1772"
    underline-thickness="40"
    underline-position="-299"
    unicode-range="U+0020-FB02"
  />
<missing-glyph horiz-adv-x="1024" 
 />
    <glyph glyph-name=".notdef" horiz-adv-x="1024" 
 />
    <glyph glyph-name=".null" horiz-adv-x="0" 
 />
    <glyph glyph-name=".null" horiz-adv-x="0" 
 />
    <glyph glyph-name="nonmarkingreturn" horiz-adv-x="681" 
 />
    <glyph glyph-name="space" unicode=" " horiz-adv-x="284" 
 />
    <glyph glyph-name="exclam" unicode="!" horiz-adv-x="567" 
d="M284.5 -29q-59.5 0 -99.5 41.5t-40 97.5t40 96t99.5 40t99.5 -41t40 -95t-40 -96.5t-99.5 -42.5zM283 1309h6q90 0 113.5 -39t15.5 -88l-117 -783q-4 -10 -15.5 -10t-15.5 10l-116 783q-20 127 129 127z" />
    <glyph glyph-name="quotedbl" unicode="&#x22;" horiz-adv-x="724" 
d="M221 1321h4l158 -64l-346 -432h-35zM573 1321h2l158 -64l-344 -432h-35z" />
    <glyph glyph-name="numbersign" unicode="#" horiz-adv-x="1067" 
d="M-16 385v41h284l113 424h-277v41h287l107 403h47l-109 -403h330l106 403h48l-107 -403h274v-41h-286l-111 -424h275v-41h-285l-105 -395h-47l105 395h-328l-106 -395h-45l104 395h-274zM645 426l111 424h-330l-113 -424h332z" />
    <glyph glyph-name="dollar" unicode="$" horiz-adv-x="1026" 
d="M508 20q123 0 195.5 68t72.5 174q0 151 -104.5 200.5t-159.5 69.5l-129 -489q63 -23 125 -23zM508 1257q-86 0 -149.5 -58t-63.5 -144q0 -132 96 -178t148 -64l57 213q10 41 27 102t28 109q-57 20 -143 20zM520 -27q-88 0 -153 4l-80 -307h-47l82 314q-125 14 -230 53
l-22 350h51l112 -248q51 -49 109 -78l127 488q-20 0 -120.5 46t-178.5 114.5t-78 220.5t124.5 263.5t322.5 111.5q57 0 127 -9l57 215h45l-29 -110q-28 -113 -30 -113q47 -6 112 -26l90 28l4 -377h-45l-147 293q-8 4 -15.5 8.5t-15.5 8.5l-110 -426q202 -73 273 -133
t101.5 -123.5t30.5 -148.5t-34.5 -159.5t-99.5 -132t-155 -92.5t-178 -35z" />
    <glyph glyph-name="percent" unicode="%" horiz-adv-x="1216" 
d="M1044 1311h50l-924 -1340h-51zM913.5 -35q-65.5 0 -117 22.5t-87 61.5t-55 90t-19.5 108.5t19.5 110t55 91t87 62.5t117 24t117.5 -24t88 -62.5t55.5 -91t19.5 -110t-19.5 -108.5t-55.5 -90t-88 -61.5t-117.5 -22.5zM913.5 8q108.5 0 171 69.5t62.5 170.5t-64.5 172.5
t-169.5 71.5t-168 -72.5t-63 -172.5q0 -99 61.5 -169t170 -70zM99.5 1234q76.5 83 201.5 83t204 -83t79 -203t-78 -201.5t-205 -81.5q-126 0 -202 81.5t-76 201.5t76.5 203zM471 859q66 68 66 170q0 101 -62.5 173t-172.5 72t-171 -72t-61 -173t64 -169.5t167 -68.5
q104 0 170 68z" />
    <glyph glyph-name="ampersand" unicode="&#x26;" horiz-adv-x="1484" 
d="M418 707q-160 -105 -160 -273q0 -135 83.5 -216t226.5 -81t274 137q-63 147 -171 260t-253 173zM713 1051q0 83 -30 130.5t-59.5 66t-70.5 18.5q-72 0 -114 -53.5t-42 -131.5q1 -153 226 -243q90 62 90 213zM858 236q-230 -265 -422 -265q-194 0 -299.5 103t-105.5 249
t95.5 248.5t256.5 151.5q-86 41 -142.5 112.5t-56.5 150.5q0 139 120 229t269 90t249 -68t100 -188t-105.5 -167.5t-159.5 -60.5q153 -72 242.5 -188.5t118.5 -165.5q138 185 141 252q14 80 -135 96l-31 6l-6 33h512l-6 -33l-37 -6q-71 -4 -123 -41.5t-127 -136.5l-166 -211
q86 -180 131.5 -229.5t82 -66.5t79.5 -17q84 0 160 73l20 -20q-79 -85 -157 -140t-186 -55q-107 0 -182 67.5t-130 197.5z" />
    <glyph glyph-name="quotesingle" unicode="'" horiz-adv-x="376" 
d="M221 1321h4l158 -64l-346 -432h-35z" />
    <glyph glyph-name="parenleft" unicode="(" horiz-adv-x="696" 
d="M129 401.5q0 186.5 53.5 342t134 275.5t175 204t176.5 127l24 -37q-80 -43 -170 -126t-216 -278.5t-126 -510.5t126 -508t216 -276t170 -126l-24 -35q-82 43 -176.5 127t-175 205t-134 275.5t-53.5 341z" />
    <glyph glyph-name="parenright" unicode=")" horiz-adv-x="696" 
d="M514 400q0 175 -50 322.5t-125 264.5t-165 200t-170 126l25 37q82 -43 176 -127t175 -204t134 -275.5t53 -342t-53 -341t-134 -275.5t-175 -205t-176 -127l-25 35q80 43 170 126t165 198.5t125 264t50 323.5z" />
    <glyph glyph-name="asterisk" unicode="*" horiz-adv-x="665" 
d="M301 974q0 7 -4 11l-238 70l-26 131q0 4 5 9t9 5l137 8l121 -213q2 -4 10.5 -2t8.5 4l-11 254l117 64q4 4 19 -6l51 -117l-164 -197q-2 -2 3 -10t7 -6l236 92l98 -88q2 -4 2 -12t-2 -8l-98 -89l-236 95q-2 0 -7 -8.5t-3 -12.5l162 -192l-52 -117q-2 -2 -10 -6t-8 -2
l-115 65l11 250q0 4 -7.5 8t-9.5 0l-123 -211l-135 7q-9 0 -16 14l26 133l238 66q4 4 4 11z" />
    <glyph glyph-name="plus" unicode="+" horiz-adv-x="915" 
d="M432 459h-405l6 51h399v403h53v-403h400l4 -51h-404v-410h-53v410z" />
    <glyph glyph-name="comma" unicode="," horiz-adv-x="428" 
d="M238 -27q0 83 -67.5 121.5t-117.5 14.5q-17 54 23.5 110.5t124.5 56.5t136 -56t52 -124q0 -122 -85 -225.5t-222 -165.5l-23 23q179 98 179 245z" />
    <glyph glyph-name="hyphen" unicode="-" horiz-adv-x="606" 
d="M53 532h508l-4 -94h-510z" />
    <glyph glyph-name="period" unicode="." horiz-adv-x="450" 
d="M225.5 -27q-61.5 0 -103.5 43.5t-42 101.5t42 100t103.5 42t102.5 -43t41 -100t-41 -100.5t-102.5 -43.5z" />
    <glyph glyph-name="slash" unicode="/" horiz-adv-x="528" 
d="M459 1323h47l-432 -1796h-49z" />
    <glyph glyph-name="zero" unicode="0" horiz-adv-x="1171" 
d="M211 116.5q-145 143.5 -145 371.5t153.5 374t376 146t366.5 -146t144 -370t-151.5 -371.5t-375 -147.5t-368.5 143.5zM856 494q0 212 -71.5 339.5t-194.5 127.5t-199 -130t-76 -346q0 -217 70 -341t194 -124t200.5 131t76.5 343z" />
    <glyph glyph-name="one" unicode="1" horiz-adv-x="737" 
d="M262 80v790l-201 25l7 31l434 75v-925q0 -26 94 -33l70 -8l6 -35h-570l7 35l73 8q41 4 60.5 11t19.5 26z" />
    <glyph glyph-name="two" unicode="2" horiz-adv-x="974" 
d="M543 652q0 79 -59.5 137.5t-146.5 58.5t-146.5 -40t-106.5 -122l-25 12q59 147 168 227.5t246 80.5t222 -76.5t85 -197.5t-106.5 -217.5t-205.5 -167.5t-226 -163v-6h403q97 0 145 42.5t101 162.5l20 43l35 -4l-80 -422h-813l-10 82q296 223 369 300t102 134t29 136z" />
    <glyph glyph-name="three" unicode="3" horiz-adv-x="886" 
d="M305 850q-164 0 -246 -164q-4 0 -24 12q55 145 161.5 226.5t243.5 81.5t224.5 -74.5t87.5 -183.5q0 -156 -119 -230t-178 -106v-4q172 0 276.5 -102.5t104.5 -250.5q0 -190 -157 -328.5t-376 -138.5q-129 0 -208 50.5t-79 121.5q0 47 34 80t77 33q77 0 123.5 -68
t38.5 -155q20 -10 67 -10q99 0 175.5 88t76.5 228t-77.5 226t-206.5 86q-73 0 -172 -41l-13 35q219 124 300 192t81 171q0 104 -60.5 164.5t-154.5 60.5z" />
    <glyph glyph-name="four" unicode="4" horiz-adv-x="1042" 
d="M561 16h-534l-4 37l651 934h112v-815h242l-39 -156h-203v-393h-225v393zM561 172v573h-4l-401 -573h405z" />
    <glyph glyph-name="five" unicode="5" horiz-adv-x="862" 
d="M575 -59q0 325 -503 389l164 643h569l-35 -215h-541l-57 -228q309 -38 456.5 -161.5t147.5 -307.5t-158 -327.5t-386 -143.5q-122 0 -190.5 46.5t-68.5 123.5q0 49 34 83t78 34q75 0 118 -67t35 -146q40 -20 90 -20q104 0 175.5 84t71.5 213z" />
    <glyph glyph-name="six" unicode="6" horiz-adv-x="1083" 
d="M344 696q147 119 309 119t265.5 -107.5t103.5 -290.5t-138 -314.5t-346 -131.5q-207 0 -342 148t-135 370q0 174 73 326t200 266.5t299 187t371 87.5l8 -35q-267 -37 -439 -213t-233 -408zM774 366.5q0 165.5 -73 257t-181 91.5t-178 -70q-20 -40 -20 -152
q0 -226 63 -351.5t174 -125.5q110 0 162.5 92.5t52.5 258z" />
    <glyph glyph-name="seven" unicode="7" horiz-adv-x="948" 
d="M795 774h-326q-211 0 -262 -20.5t-69.5 -47t-31.5 -71.5l-20 -49h-37l47 389h819l7 -37l-572 -1315h-188l633 1145v6z" />
    <glyph glyph-name="eight" unicode="8" horiz-adv-x="1038" 
d="M66 311q0 151 117.5 214t181.5 79v2q-130 64 -179 117t-70.5 101t-21.5 114q0 145 114 259t305 114t309 -88t118 -230q0 -98 -80 -166.5t-196 -105.5v-2q149 -69 230 -151.5t81 -209.5q0 -161 -130 -275t-322 -114q-199 0 -328 95.5t-129 246.5zM772 222q0 79 -28.5 130
t-96 107t-239.5 127q-117 -81 -121 -264q0 -118 71 -214t181 -96q111 0 172 65.5t61 144.5zM723 975q0 118 -61.5 208.5t-157.5 90.5t-150.5 -65t-54.5 -139t23.5 -119.5t76 -93t222.5 -120.5q102 78 102 238z" />
    <glyph glyph-name="nine" unicode="9" horiz-adv-x="1083" 
d="M735 285q-143 -119 -306 -119q-164 0 -268 106t-104 293t142 316t347 129t338.5 -149t133.5 -367q0 -174 -73 -326t-198.5 -266.5t-298 -187t-370.5 -89.5l-8 35q268 37 441.5 217t227.5 406zM758 488q0 209 -61.5 343t-184.5 134q-92 0 -149.5 -89.5t-57.5 -250.5
t71.5 -259t180.5 -98t180 68q21 48 21 152z" />
    <glyph glyph-name="colon" unicode=":" horiz-adv-x="446" 
d="M225.5 -25q-61.5 0 -103.5 41.5t-42 99.5t42 100t103.5 42t102.5 -42t41 -99t-41 -99.5t-102.5 -42.5zM225.5 586q-61.5 0 -103.5 43t-42 100t42 99t103.5 42t102.5 -42t41 -99t-41 -100t-102.5 -43z" />
    <glyph glyph-name="semicolon" unicode=";" horiz-adv-x="428" 
d="M238 -27q0 83 -67.5 121.5t-117.5 14.5q-18 55 24.5 111t124.5 56q83 0 135 -57t52 -123q0 -122 -86 -224.5t-221 -164.5l-23 23q179 98 179 243zM216 586q-60 0 -103 42t-43 100t43 100t103 42t101 -43t41 -100t-41 -99t-101 -42z" />
    <glyph glyph-name="less" unicode="&#x3c;" horiz-adv-x="897" 
d="M23 465v35l821 395l16 -47l-756 -363v-4l756 -366l-16 -47z" />
    <glyph glyph-name="equal" unicode="=" horiz-adv-x="909" 
d="M51 328h807l6 -49h-819zM45 684h819l-6 -49h-807z" />
    <glyph glyph-name="greater" unicode="&#x3e;" horiz-adv-x="897" 
d="M39 115l754 366v4l-754 363l14 47l821 -395v-35l-821 -397z" />
    <glyph glyph-name="question" unicode="?" horiz-adv-x="702" 
d="M327.5 -27q-59.5 0 -99.5 41t-40 96.5t40 95.5t99.5 40t98.5 -41t39 -95t-39 -95.5t-98.5 -41.5zM274 1102q-58 0 -163 -21q-48 38 -51 98t35 95t170 35t252 -127.5t120 -290.5q0 -112 -40 -163.5t-137 -90.5t-144.5 -61.5t-47.5 -63.5t22.5 -70.5t61.5 -66.5l-35 -4
q-109 81 -139.5 146t-30.5 101q0 74 59.5 117.5t172.5 80.5q112 38 158.5 64.5t46.5 67.5q0 59 -82 106.5t-228 47.5z" />
    <glyph glyph-name="at" unicode="@" horiz-adv-x="1634" 
d="M869 1325q312 0 512 -186.5t196 -474.5q0 -227 -144.5 -394.5t-344.5 -167.5q-104 0 -161 51.5t-53 122.5q0 36 22 108.5t30 90.5h-11q-122 -196 -196.5 -279t-158.5 -83q-85 0 -143.5 56.5t-59.5 130.5q-2 132 75.5 273t192.5 250q134 138 262 138q66 0 97.5 -58.5
t29.5 -136.5h8l82 225l192 -6l-131 -342l-86 -272q-54 -170 125 -170q123 0 225.5 133t106.5 330q4 270 -183 446t-479 176q-158 0 -297 -62.5t-243.5 -170t-166 -251.5t-62.5 -300q-2 -309 198.5 -505t517.5 -196q167 0 314.5 79.5t226.5 205.5l20 -29q-83 -129 -234 -212
t-329 -83q-332 0 -547 209t-211 529q2 170 67 320.5t175.5 263t258 177t307.5 64.5zM658 246q42 0 115 85t151 228q24 43 39.5 90t13.5 65q-5 44 -54.5 97t-94.5 53t-75 -30q-64 -64 -125 -212t-61 -230t24.5 -114t66.5 -32z" />
    <glyph glyph-name="A" unicode="A" horiz-adv-x="1329" 
d="M557 1038h-8l-168 -481h332zM307 344q-31 -92 -47 -148.5t-10 -89t35.5 -46t91.5 -19.5l47 -6l6 -35h-457l7 35l38 6q45 6 75 19.5t66 67t132 318.5l233 650l-16 69q79 19 127.5 72t58.5 78h37l365 -1065q47 -130 71.5 -158.5t46 -37.5t52.5 -11l61 -8l6 -35h-635l7 35
l59 6q72 8 81 48.5t-28 146.5l-90 276h-362z" />
    <glyph glyph-name="B" unicode="B" horiz-adv-x="1251" 
d="M217 78v1130q0 13 -18 18t-88 13l-58 6l-6 35h551q412 0 470 -109.5t58 -175.5q0 -115 -95 -188.5t-273 -101.5v-7q205 -16 317.5 -107t112.5 -243t-140.5 -250t-433.5 -98h-569l6 33l76 8q90 11 90 37zM618 43q130 8 209.5 93.5t79.5 220.5t-97.5 222t-248.5 87h-33
q-34 0 -45 -4v-592l109 -31zM551 705q137 0 218 70.5t81 198.5t-81 194.5t-224 66.5h-62v-530h68z" />
    <glyph glyph-name="C" unicode="C" horiz-adv-x="1419" 
d="M801 -27q-329 0 -532 180.5t-203 477.5q0 296 204.5 487t546.5 191q96 0 186.5 -22.5t137.5 -47.5l147 43l10 -424h-51l-172 342q-94 62 -231 62q-136 0 -222.5 -47.5t-177 -171.5t-90.5 -402t129.5 -450.5t331.5 -172.5q139 0 229.5 59.5t157.5 170.5l76 178h55
l-61 -381h-88q-112 -47 -221 -59.5t-162 -12.5z" />
    <glyph glyph-name="D" unicode="D" horiz-adv-x="1427" 
d="M631 1284q349 4 542 -165t193 -453t-208 -475t-554 -191h-559l6 33l76 8q90 11 90 37v1130q0 12 -18.5 18.5t-87.5 12.5l-58 8l-6 33q166 0 295 2h51zM952 1070.5q-125 166.5 -372 166.5h-97v-1161l140 -35q211 0 332.5 165t121.5 432q0 266 -125 432.5z" />
    <glyph glyph-name="E" unicode="E" horiz-adv-x="1267" 
d="M217 78v1130q0 19 -36 24t-70 7l-58 8l-6 33h1067l14 -420h-53l-18 68q-51 179 -141 244t-295 65l-138 -2v-561l76 2q121 4 181.5 36.5t86.5 116.5l23 66h43l-51 -492l-41 3l-8 63q-8 90 -58.5 124t-189.5 38l-62 2v-584l170 -6q288 0 364.5 121t102.5 194l21 62h53
l-53 -420h-1096l6 33l74 8q92 11 92 37z" />
    <glyph glyph-name="F" unicode="F" horiz-adv-x="1193" 
d="M217 78v1130q0 19 -35 24t-69 7l-60 8l-6 33h1063l14 -403h-51l-20 67q-58 167 -147 230t-288 63l-135 -2v-573l78 2q121 4 181.5 34.5t86.5 114.5l25 68h41l-51 -492l-41 2l-6 64q-8 92 -59.5 126.5t-190.5 34.5l-64 2v-546q0 -12 16.5 -19.5t86.5 -11.5l94 -8l6 -33
h-641l6 33l78 8q88 10 88 37z" />
    <glyph glyph-name="G" unicode="G" horiz-adv-x="1478" 
d="M788 -33q-329 0 -525.5 186t-196.5 480t204.5 485t546.5 191q200 0 330 -68l145 41l4 -422h-53l-166 338q-92 66 -264 66q-214 0 -335.5 -172.5t-121.5 -455.5t129.5 -453.5t319.5 -170.5q68 0 129 19.5t90 38.5v422q0 25 -121 32l-74 6l-6 35h625l-6 -35l-84 -8
q-80 -7 -80 -30v-371l119 10l4 -25q-201 -92 -371 -115.5t-242 -23.5z" />
    <glyph glyph-name="H" unicode="H" horiz-adv-x="1536" 
d="M217 78v1130q0 19 -36 24t-70 7l-58 8l-6 33h606l-6 -33l-76 -8q-90 -11 -90 -37v-528h574v534q0 12 -17.5 18.5t-87.5 12.5l-59 8l-6 33h606l-6 -33l-76 -8q-88 -11 -88 -37v-1130q0 -12 17.5 -18.5t86.5 -12.5l58 -8l6 -33h-606l6 33l78 8q88 11 88 37v551h-574v-557
q0 -12 17.5 -18.5t87.5 -12.5l59 -8l6 -33h-606l6 33l76 8q90 11 90 37z" />
    <glyph glyph-name="I" unicode="I" horiz-adv-x="747" 
d="M242 78v1130q0 19 -36 24t-71 7l-67 8l-7 33h625l-6 -33l-84 -8q-51 -4 -70.5 -15.5t-19.5 -21.5v-1130q0 -12 18.5 -18.5t85.5 -12.5l68 -8l6 -33h-623l7 33l84 8q90 8 90 37z" />
    <glyph glyph-name="J" unicode="J" horiz-adv-x="745" 
d="M254 156v1052q0 12 -17.5 19.5t-86.5 11.5l-74 8l-6 33h626l-6 -33l-80 -8q-90 -11 -90 -37v-1012q0 -80 -41 -166.5t-107.5 -160.5t-151.5 -121t-175 -47t-148.5 43t-58.5 102t38 97t89 38q95 0 130 -75.5t-11 -157.5q170 12 170 414z" />
    <glyph glyph-name="K" unicode="K" horiz-adv-x="1417" 
d="M217 78v1130q0 19 -35 24t-69 7l-60 8l-6 33h617l-7 -33l-86 -8q-49 -4 -69.5 -15.5t-20.5 -21.5v-614l320 327q183 187 191.5 237t-21 65.5t-88.5 21.5l-64 8l-4 33h549l-6 -33l-55 -8q-92 -11 -154 -57.5t-120 -105t-148 -150.5l-82 -80l395 -639q61 -104 89 -128
t49.5 -30t49.5 -10l39 -6l6 -33h-598l5 33l40 8q31 4 47.5 13t15 38t-70.5 152l-250 420l-135 -136v-456q0 -12 18.5 -18.5t88.5 -12.5l67 -8l7 -33h-617l6 33l78 8q88 11 88 37z" />
    <glyph glyph-name="L" unicode="L" horiz-adv-x="1181" 
d="M217 78v1128q0 15 -25.5 22.5t-78.5 10.5l-60 8l-6 33h631l-6 -33l-101 -10q-90 -6 -90 -35v-1153l117 -8q180 0 256 60.5t115 126t80 157.5l24 68h53l-59 -453h-1022l6 33l78 10q88 7 88 35z" />
    <glyph glyph-name="M" unicode="M" horiz-adv-x="1755" 
d="M37 33l59 6q81 8 102 35.5t27 61.5t8 87l27 932q-37 70 -125 82l-74 8l-6 35h492l327 -922h7l333 922h494l-6 -35l-111 -8q-82 -8 -82 -43l23 -1016q0 -82 15.5 -101.5t35 -24.5t49.5 -9l74 -10l6 -33h-629l7 33l100 10q43 4 58.5 32.5t13.5 106.5l-25 994h-8l-430 -1164
h-68l-405 1116q-4 8 -11.5 14.5t-9.5 10.5l-22 -942q-4 -98 17.5 -125t51 -35t76.5 -12l59 -6l7 -33h-463z" />
    <glyph glyph-name="N" unicode="N" horiz-adv-x="1452" 
d="M289 1067h-6l2 -850q0 -99 24.5 -126.5t54 -36.5t72.5 -13l62 -8l6 -33h-463l6 33l57 8q74 6 101.5 44t27.5 142l7 867q-72 123 -179 141l-43 12l-6 33h457l713 -895h6l-2 676q0 100 -30.5 135t-121.5 43l-59 8l-6 33h461l-7 -33l-57 -8q-72 -6 -100.5 -44t-28.5 -144
l-6 -1063h-72z" />
    <glyph glyph-name="O" unicode="O" horiz-adv-x="1527" 
d="M750 -29q-299 0 -491.5 184.5t-192.5 479.5q0 137 56 259t152.5 214t226 145.5t277.5 53.5q299 0 491.5 -184.5t192.5 -481.5q0 -137 -56 -259t-152.5 -213t-226 -144.5t-277.5 -53.5zM770 16q188 0 293.5 154t105.5 458t-112.5 469t-300.5 165t-295 -154t-107 -460
t114 -469t302 -163z" />
    <glyph glyph-name="P" unicode="P" horiz-adv-x="1212" 
d="M634 586q-97 0 -151 8v-522q0 -12 16.5 -19.5t86.5 -11.5l90 -8l6 -33h-647l6 33l86 8q90 11 90 37v1130q0 19 -36 24t-70 7l-68 8l-6 33h588q270 0 403 -83t133 -246t-113.5 -238.5t-215 -101t-198.5 -25.5zM602 627q123 0 199 82t76 219q0 311 -289 311h-60
q-23 0 -45 -2v-596q87 -14 119 -14z" />
    <glyph glyph-name="Q" unicode="Q" horiz-adv-x="1525" 
d="M908 -294q-132 77 -222 269q-277 20 -448.5 205t-171.5 387.5t56 324.5t152.5 213t225 145.5t278.5 54.5t277 -50.5t267 -187.5t140 -426q0 -212 -131.5 -382t-339.5 -241q95 -205 217.5 -270.5t352.5 -40.5l6 -31q-135 -47 -331 -47t-328 77zM1063.5 169
q105.5 155 105.5 459t-112.5 469t-300.5 165t-295 -156t-107 -458t112.5 -468t301.5 -166q190 0 295.5 155z" />
    <glyph glyph-name="R" unicode="R" horiz-adv-x="1368" 
d="M1167 958q0 -119 -83 -204.5t-226 -120.5l266 -420q64 -101 101.5 -133.5t103.5 -40.5l33 -6l8 -33h-430l-37 72l-305 542q-20 4 -58 10.5t-57 14.5v-567q0 -23 103 -31l73 -8l7 -33h-631l6 33l86 8q90 9 90 37v1130q0 19 -36 24t-70 7l-68 8l-6 33l610 2q520 0 520 -324
zM885 949q0 138 -83 216t-237 74h-43q-18 0 -39 -2v-557q72 -16 109 -16q137 4 215 75.5t78 209.5z" />
    <glyph glyph-name="S" unicode="S" horiz-adv-x="1075" 
d="M567 1307q116 0 267 -43l90 28l6 -379h-45l-148 295q-87 54 -193 54q-107 0 -171 -58.5t-64 -144.5q0 -141 118.5 -189t190.5 -74q180 -63 277.5 -151t97.5 -254t-134.5 -292t-345.5 -128t-409 70l-22 348h49l86 -203q111 -168 305 -168q129 2 199 71t70 177
q0 160 -124 215t-196 79q-176 60 -268 140.5t-92 234.5t123 263t333 109z" />
    <glyph glyph-name="T" unicode="T" horiz-adv-x="1359" 
d="M547 78v1161h-49q-243 -7 -365 -283l-22 -73h-56l54 397h1159l26 -395h-49l-22 71q-118 283 -357 283h-53v-1167q0 -12 18.5 -18.5t86.5 -12.5l79 -8l7 -33h-648l6 33l97 8q88 7 88 37z" />
    <glyph glyph-name="U" unicode="U" horiz-adv-x="1435" 
d="M827 74q361 0 361 420l-2 567q0 100 -30.5 135t-121.5 43l-61 8l-6 33h463l-7 -33l-57 -8q-72 -6 -100.5 -44t-28.5 -144l-4 -570q-2 -246 -121 -381t-381 -135t-393 106.5t-131 338.5v800q0 23 -103 29l-69 8l-6 33h624l-6 -33l-86 -8q-88 -7 -88 -35v-733
q0 -397 354 -397z" />
    <glyph glyph-name="V" unicode="V" horiz-adv-x="1339" 
d="M219 1040q-59 138 -82.5 165.5t-85.5 31.5l-63 10l-4 33h624l-4 -33l-72 -6q-80 -4 -86 -30.5t5.5 -61.5t31.5 -90l295 -766h13l225 616q75 206 67 250.5t-40.5 60t-94.5 21.5l-45 6l-6 33h463l-6 -33l-39 -8q-43 -6 -73 -17.5t-66 -61t-119 -281.5l-338 -893h-90z" />
    <glyph glyph-name="W" unicode="W" horiz-adv-x="2015" 
d="M207 1040q-47 121 -68.5 149t-43 37t-52.5 11l-59 8l-7 35h627l-6 -35l-72 -4q-74 -4 -81 -34.5t24 -121.5l283 -790h8l244 645l-35 100q-40 111 -64 142.5t-44.5 42t-51.5 12.5l-68 8l-6 35h635l-6 -35l-70 -4q-73 -4 -83 -33.5t22 -128.5l264 -774h8l203 580
q76 213 67.5 262t-41 66.5t-98.5 25.5l-51 6l-6 35h471l-6 -35l-37 -6q-45 -8 -74.5 -21.5t-61.5 -60.5t-114 -276l-323 -904h-80l-320 900h-6l-342 -900h-82z" />
    <glyph glyph-name="X" unicode="X" horiz-adv-x="1339" 
d="M969 1166.5q0 39.5 -27 53t-80 19.5l-53 8l-6 33h483l-6 -33l-57 -10q-78 -8 -136 -62.5t-184 -226.5l-143 -198l356 -549q68 -101 92 -127.5t68 -30.5l57 -10l8 -33h-618l4 33l66 6q68 4 74.5 38t-40.5 103l-239 375h-4q2 0 -23.5 -36t-57.5 -85q-32 -48 -83 -120
t-77 -124.5t-25 -83t28 -45t76 -20.5l53 -8l6 -33h-487l6 33l63 10q75 7 128 60t174 219l196 268l-291 440q-81 128 -112 164.5t-76 40.5l-72 12l-8 33h631l-4 -33l-66 -6q-66 -4 -70 -42t66 -142l170 -273h4l125 183q111 160 111 199.5z" />
    <glyph glyph-name="Y" unicode="Y" horiz-adv-x="1300" 
d="M518 78v487l-295 516q-57 93 -87 121t-87 35l-47 8l-6 35h618l-6 -35l-45 -4q-82 -10 -91 -44t36 -112l242 -438h8l162 299q94 171 91 214.5t-32 58t-86 20.5l-47 6l-6 35h460l-6 -35l-51 -8q-77 -13 -126.5 -66t-143.5 -229l-189 -338v-532q0 -12 18.5 -18.5t86.5 -12.5
l78 -8l6 -33h-645l6 33l96 8q88 7 88 37z" />
    <glyph glyph-name="Z" unicode="Z" horiz-adv-x="1234" 
d="M838 1235h-197q-286 0 -359 -113.5t-100 -189.5l-16 -62h-51l18 410h1018v-37l-786 -1190v-6l215 -4q231 -4 316 58.5t127 131t81 162.5l22 64h54l-60 -459h-1054v35l772 1194v6z" />
    <glyph glyph-name="bracketleft" unicode="[" horiz-adv-x="665" 
d="M131 1305h510v-43h-459v-1700h459v-43h-510v1786z" />
    <glyph glyph-name="backslash" unicode="\" horiz-adv-x="503" 
d="M-6 1323h49l432 -1796h-47z" />
    <glyph glyph-name="bracketright" unicode="]" horiz-adv-x="665" 
d="M23 -438h458v1700h-458v43h509v-1786h-509v43z" />
    <glyph glyph-name="asciicircum" unicode="^" horiz-adv-x="776" 
d="M369 1409h39l278 -403h-31l-264 200h-4l-268 -200h-29z" />
    <glyph glyph-name="underscore" unicode="_" horiz-adv-x="927" 
d="M29 0h872l6 -74h-884z" />
    <glyph glyph-name="grave" unicode="`" horiz-adv-x="819" 
d="M80 1399h248l202 -379h-34z" />
    <glyph glyph-name="a" unicode="a" horiz-adv-x="946" 
d="M555 150q-153 -175 -261 -175q-107 0 -174 59.5t-67 149.5q0 117 118 198.5t392 147.5l2 54q4 131 -50 197.5t-153 66.5q-55 0 -93 -16.5t-38 -32.5q0 -6 9.5 -17.5t29 -41.5t19.5 -66q0 -35 -33 -68t-84 -33t-86 27t-35 74t44 92t149.5 100.5t264.5 55.5t230.5 -77
t61.5 -267l-17 -369q-8 -107 67 -107q34 0 89 58l21 -21q-76 -105 -137.5 -135.5t-115.5 -30.5t-96.5 44t-52.5 130zM404 119q78 0 149 69l12 306q-228 -53 -255 -123.5t-27 -122.5t37 -90.5t84 -38.5z" />
    <glyph glyph-name="b" unicode="b" horiz-adv-x="1079" 
d="M111 -43v1184q0 55 -14.5 75.5t-55.5 32.5l-64 23l3 24l362 97v-656l8 -2q59 74 139.5 125t166.5 51q164 0 269 -124.5t105 -311.5q0 -226 -147.5 -365t-356.5 -139q-103 0 -260 60h-2l-137 -74h-16zM561 14q100 0 156.5 110.5t56.5 273.5t-67 265.5t-172 102.5
q-106 0 -193 -82v-491q43 -76 103.5 -127.5t115.5 -51.5z" />
    <glyph glyph-name="c" unicode="c" horiz-adv-x="903" 
d="M170 97.5q-121 128.5 -121 332.5t139.5 348t352.5 144q138 0 229.5 -56.5t91.5 -148.5q0 -57 -35 -91t-91 -34t-91 44t-31 103q0 33 18.5 55.5t16.5 36.5t-33.5 30t-72.5 16q-104 0 -173 -98.5t-69 -275.5t81 -279.5t218 -102.5q164 0 254 151l25 -12
q-128 -291 -404 -291q-184 0 -305 128.5z" />
    <glyph glyph-name="d" unicode="d" horiz-adv-x="1099" 
d="M425 -29q-162 0 -269 126t-107 317q0 228 147 362.5t351 134.5q109 0 184 -30h2v278q0 55 -13 76.5t-54 32.5l-84 22l4 23l381 78v-1217q0 -53 10 -70.5t41 -27.5l84 -21l-4 -24l-365 -62v178l-4 3q-59 -74 -139 -126.5t-165 -52.5zM519 866q-103 0 -159.5 -108.5
t-56.5 -272.5t68 -267t173 -103t189 84v493q-41 76 -100.5 125t-113.5 49z" />
    <glyph glyph-name="e" unicode="e" horiz-adv-x="933" 
d="M475 -31q-186 0 -306 131.5t-120 334.5t137 346t344 143q163 0 255 -86t92 -213q0 -29 -7 -58q-150 0 -270 2l-299 6q-4 -16 -4 -21v-56q0 -169 85 -273t220 -104q166 0 260 151l25 -12q-128 -291 -412 -291zM504 879q-72 0 -129.5 -74t-71.5 -195l344 2q0 182 -52 224.5
t-91 42.5z" />
    <glyph glyph-name="f" unicode="f" horiz-adv-x="673" 
d="M172 70v706l-162 4l37 107h123l4 94q12 178 146 287.5t298 109.5q98 0 145.5 -37t47.5 -87t-35 -82.5t-84 -32.5q-106 0 -143 159l-4 13l-41 8q-55 -25 -75.5 -92.5t-20.5 -210.5v-129h260l-29 -107h-231v-712q0 -14 15 -21.5t79 -11.5l73 -2l7 -33h-537l6 33l41 2
q43 4 61.5 10t18.5 25z" />
    <glyph glyph-name="g" unicode="g" horiz-adv-x="987" 
d="M944 -102q0 -172 -158 -286t-395 -114q-180 0 -274 54.5t-94 158.5q0 134 239 228v4q-92 10 -151.5 60.5t-59.5 104.5q0 85 63.5 142.5t157.5 85.5q0 2 2 4q-82 31 -135 95.5t-53 148.5q0 151 108.5 243.5t258.5 92.5t258 -68l278 35l-16 -121l-203 31l-2 -9
q72 -67 72 -150q0 -148 -108.5 -237.5t-278.5 -89.5q-75 0 -131 15q-43 -10 -72 -37t-29 -62q0 -80 156 -80l262 7q139 0 222 -69t83 -187zM786 -231q0 86 -67.5 135.5t-200.5 41t-209 -13.5q-47 -18 -75.5 -63t-28.5 -107q0 -92 80 -150t210 -58t210.5 64.5t80.5 150.5z
M461 881q-146 0 -146 -260q0 -133 39 -203t107 -70q153 0 153 266t-153 267z" />
    <glyph glyph-name="h" unicode="h" horiz-adv-x="1101" 
d="M553 764q-88 0 -176 -62v-634q0 -14 15.5 -21.5t72.5 -11.5l37 -2l6 -33h-488l7 33l34 2q45 4 62.5 10t17.5 25v1069q0 55 -12 75.5t-53 32.5l-66 23l4 24l365 97v-641l4 -2q205 172 346 172q96 0 166 -66q68 -72 68 -229v-555q0 -10 15 -18.5t85 -16.5l29 -2l6 -33h-486
l6 33l39 2q51 4 61.5 13t10.5 22v499q0 111 -44 153t-132 42z" />
    <glyph glyph-name="i" unicode="i" horiz-adv-x="559" 
d="M164 70v551q0 94 -16 121t-70 40l-43 11l2 24l362 101v-850q0 -14 16.5 -20.5t80.5 -12.5l28 -2l6 -33h-489l6 33l35 2q45 4 63.5 10t18.5 25zM267 1057q-71 0 -108.5 46t-37.5 99t38.5 99.5t108.5 46.5t108 -46.5t38 -99.5t-38 -99t-109 -46z" />
    <glyph glyph-name="j" unicode="j" horiz-adv-x="536" 
d="M158 -127v748q0 90 -17 119.5t-69 41.5l-45 11l2 24l362 101v-961q-4 -162 -101 -276.5t-170 -158.5t-147 -44t-120 36t-46 90t36 87t77 33q73 0 108.5 -55.5t22.5 -123.5q107 15 107 328zM261 1057q-71 0 -108.5 46t-37.5 99t37.5 99.5t108.5 46.5t108 -46.5t37 -99.5
t-37 -99t-108 -46z" />
    <glyph glyph-name="k" unicode="k" horiz-adv-x="1060" 
d="M141 70v1069q0 55 -12 75.5t-53 32.5l-66 23l4 24l365 97v-957l135 125q184 173 184 227q0 32 -23.5 48t-90.5 22l-25 2l-4 33h461l-6 -33l-37 -6q-68 -8 -128.5 -49t-189.5 -164q-21 -16 -22.5 -20.5t-11.5 -14.5l256 -438q48 -78 71 -99.5t74 -29.5l31 -4l6 -33h-367
l-39 78l-204 368l-70 -63v-315q0 -14 16.5 -20.5t75.5 -12.5l35 -2l4 -33h-485l6 33l32 2q43 6 60.5 11t17.5 24z" />
    <glyph glyph-name="l" unicode="l" horiz-adv-x="546" 
d="M154 70v1044q0 74 -13.5 97.5t-54.5 35.5l-61 23l2 24l364 97v-1323q0 -14 16.5 -20.5t71.5 -12.5l33 -2l6 -33h-481l6 33l35 2q45 4 60.5 10t15.5 25z" />
    <glyph glyph-name="m" unicode="m" horiz-adv-x="1667" 
d="M1294 565q0 199 -152 199q-66 0 -113.5 -21.5t-63.5 -50.5v-12l-1 -13l-1 -599q0 -12 13 -18.5t77 -14.5l32 -2l7 -33h-480l6 33l37 2q74 6 74 35v495q0 113 -43 156t-122 43t-167 -59v-637q0 -14 14.5 -21.5t73.5 -11.5l35 -2l6 -33h-487l6 33l35 2q45 4 63.5 10
t18.5 25v548q0 97 -16 124t-70 40l-43 11l2 24l364 101l-4 -170h6q183 172 328 172q96 0 166 -66q41 -43 55 -111l6 -2q72 70 156 124.5t181 54.5t167 -66q68 -72 68 -260v-524q0 -13 16 -20t82 -15l29 -2l6 -33h-485l6 33l39 2q51 4 62 13t11 22v495z" />
    <glyph glyph-name="n" unicode="n" horiz-adv-x="1122" 
d="M572 764q-87 0 -175 -62v-634q0 -14 14.5 -21.5t71.5 -11.5l39 -2l4 -33h-487l6 33l35 2q45 4 63.5 10t18.5 25v548q0 97 -16 124t-70 40l-43 11l2 24l364 101l-4 -170h6q96 80 178.5 126t175.5 46t161 -68t67 -227v-555q0 -13 19 -20.5t79 -14.5l29 -2l6 -33h-483l6 33
l37 2q51 4 62.5 13t11.5 22v495q0 115 -45.5 157t-132.5 42z" />
    <glyph glyph-name="o" unicode="o" 
d="M49 393.5q0 149.5 37 236.5t103.5 151.5t157.5 102.5t253 38t296 -134t134 -336t-142 -341.5t-358 -139.5t-348.5 136.5t-132.5 286zM309 473q0 -461 230 -461q106 0 166.5 117t60.5 282q0 312 -102 414q-54 54 -118 54q-116 0 -176.5 -113t-60.5 -293z" />
    <glyph glyph-name="p" unicode="p" horiz-adv-x="1101" 
d="M369 4v-453q0 -12 16 -19t80 -9l72 -4l6 -33h-539l6 33l43 4q43 4 62.5 9t19.5 24v1065q0 89 -13 113t-29.5 33t-43.5 15l-45 11l2 24l365 101l-2 -181l6 -2q145 176 308 176t267.5 -124.5t104.5 -311.5q0 -230 -149 -367t-350 -137q-101 0 -183 33h-4zM587 14
q99 0 155.5 110.5t56.5 272.5t-67.5 264.5t-174 102.5t-188.5 -80v-494q43 -78 103.5 -127t114.5 -49z" />
    <glyph glyph-name="q" unicode="q" horiz-adv-x="1087" 
d="M573 911q120 0 240 -59h2l137 76h15v-1374q0 -16 19.5 -21.5t66.5 -9.5l39 -4l6 -33h-537l6 33l74 4q61 2 76.5 9t15.5 19v596l-4 3q-59 -74 -139 -126.5t-165 -52.5q-162 0 -269 126t-107 317q0 230 146 363.5t378 133.5zM519 866q-104 0 -160 -107.5t-56 -271.5
t69 -268t173 -104t188 84v491q-41 76 -100.5 126t-113.5 50z" />
    <glyph glyph-name="r" unicode="r" horiz-adv-x="831" 
d="M397 68q0 -14 17.5 -21.5t81.5 -11.5l53 -2l6 -33h-514l6 33l33 2q45 4 63.5 10t18.5 25v548q0 97 -16 124t-70 40l-43 11l2 24l364 101l-4 -304h6q53 147 118 226.5t159 79.5q63 0 105 -37t42 -93t-34.5 -97.5t-88.5 -41.5t-90.5 33t-48.5 86q-95 -27 -166 -252v-450z
" />
    <glyph glyph-name="s" unicode="s" horiz-adv-x="804" 
d="M425 920q91 0 187 -33l84 20l11 -276l-48 -2l-122 205q-70 45 -137 45q-66 0 -107 -38t-41 -107t60 -104.5t134 -63.5q155 -57 228.5 -118.5t73.5 -181.5t-98.5 -207.5t-272.5 -87.5t-307 52l-13 262l49 -2l52 -117q45 -74 97 -114t130 -40t126 43t48 113q0 92 -87 132
t-136 58q-125 46 -194.5 106t-69.5 180t93 198t260 78z" />
    <glyph glyph-name="t" unicode="t" horiz-adv-x="729" 
d="M547 102q84 0 164 60l8 -25q-155 -164 -313 -164q-254 0 -246 271l10 530l-166 4l31 70l330 256l34 -4l-2 -211h314l-27 -109h-289l-10 -497q-2 -98 38 -139.5t124 -41.5z" />
    <glyph glyph-name="u" unicode="u" horiz-adv-x="1081" 
d="M545 129q86 0 170 59v611q0 31 -17.5 42t-79.5 15l-36 2l-9 33h375v-694q0 -53 10.5 -70.5t40.5 -28.5l84 -20l-4 -23l-364 -88l2 178h-4q-195 -174 -346 -174q-90 0 -164 70q-70 74 -66 229l2 555q0 14 -15.5 18.5t-84.5 12.5l-33 2l-6 33h377l-6 -567q-2 -111 43 -153
t131 -42z" />
    <glyph glyph-name="v" unicode="v" horiz-adv-x="985" 
d="M129 748q-31 81 -58.5 91.5t-50.5 12.5l-36 6l-9 33h517l-5 -33l-43 -6q-53 -4 -65 -24.5t4 -67.5l207 -518l149 393q47 118 33 162.5t-96 52.5l-43 8l-6 33h370l-6 -33l-39 -6q-61 -8 -83.5 -41.5t-84.5 -185.5l-249 -645h-84z" />
    <glyph glyph-name="w" unicode="w" horiz-adv-x="1521" 
d="M133 733q-30 75 -49.5 95t-65.5 24l-36 6l-5 33h500l-4 -33l-43 -6q-47 -4 -59.5 -22.5t6.5 -65.5l194 -526l166 426l-32 88q-25 59 -47.5 76.5t-63.5 23.5l-37 6l-6 33h502l-4 -33l-43 -6q-51 -6 -59.5 -25.5t5.5 -62.5l197 -520l129 381q44 117 30 165t-102 60l-37 8
l-6 33h369l-6 -33l-37 -8q-60 -4 -84.5 -39.5t-77.5 -187.5l-225 -643h-86l-254 626l-248 -626h-86z" />
    <glyph glyph-name="x" unicode="x" horiz-adv-x="999" 
d="M420 817q0 -29 39 -86l116 -178h3l86 117q76 103 74.5 132t-21 38.5t-60.5 11.5l-32 6l-7 33h373l-6 -33l-49 -10q-61 -12 -104.5 -50t-126.5 -147l-103 -131l232 -342q47 -72 80.5 -102.5t68.5 -36.5l33 -6l6 -33h-508l6 33l35 6q51 4 51 33.5t-37 83.5l-137 209h-2
l-106 -144q-79 -103 -77.5 -132.5t21 -38.5t58.5 -13l36 -4l7 -33h-371l6 33l45 8q59 11 103 48t131 151l125 157l-213 316q-49 72 -83 103.5t-75 35.5l-33 6l-6 33h514l-6 -33l-39 -6q-47 -6 -47 -35z" />
    <glyph glyph-name="y" unicode="y" horiz-adv-x="983" 
d="M209 -528q-55 0 -99 33t-44 87t32.5 88.5t88.5 34.5t88 -32.5t42 -73.5q35 10 58.5 48t50.5 116l70 198h-19l-348 777q-27 59 -47.5 78.5t-65.5 23.5l-36 8l-7 33h512l-6 -33l-41 -6q-53 -6 -64.5 -25.5t9.5 -66.5l215 -506l139 385q46 121 34.5 152.5t-35 42t-66.5 16.5
l-41 8l-6 33h370l-6 -33l-41 -6q-57 -4 -83 -42t-81 -183l-227 -604l-92 -281q-47 -137 -105.5 -203.5t-148.5 -66.5z" />
    <glyph glyph-name="z" unicode="z" horiz-adv-x="929" 
d="M82 545v346h774v-31l-543 -817h99q233 6 298.5 91t90.5 132l43 84h43l-70 -350h-774v29l537 821l-91 -2q-145 -4 -213 -50.5t-110 -150.5l-41 -102h-43z" />
    <glyph glyph-name="braceleft" unicode="{" horiz-adv-x="673" 
d="M483 684q0 -227 -377 -266v-10q377 -39 377 -267q0 -81 -35.5 -179.5t-52 -151t-16.5 -101.5q0 -78 64.5 -129t199.5 -67l-2 -31q-199 12 -328 103.5t-129 228.5q0 80 36 176t52.5 143t16.5 90q0 82 -64.5 117t-206.5 47l-10 27l10 26q127 12 199 46t72 118
q0 41 -16.5 89t-52.5 145t-36 170q0 138 127.5 231t329.5 107l2 -31q-135 -16 -199.5 -68.5t-64.5 -130.5q0 -49 16.5 -100t52 -152t35.5 -180z" />
    <glyph glyph-name="bar" unicode="|" horiz-adv-x="387" 
d="M172 1346h45v-1797h-45v1797z" />
    <glyph glyph-name="braceright" unicode="}" horiz-adv-x="673" 
d="M170 684q0 76 36 178.5t52 153.5t16 100q0 78 -64.5 130t-199.5 69l4 31q199 -12 327 -106t128 -226q0 -79 -36 -176t-52 -145t-16 -89q0 -84 73.5 -117.5t198.5 -46.5l8 -26l-8 -27q-141 -12 -206.5 -47t-65.5 -117q0 -43 16 -90t52 -143t36 -170q0 -142 -128 -234
t-327 -104l-4 31q135 16 199.5 67t64.5 123t-35.5 170t-52 154.5t-16.5 113.5q0 227 377 267v10q-377 39 -377 266z" />
    <glyph glyph-name="asciitilde" unicode="~" horiz-adv-x="804" 
d="M121 536.5q39 57.5 116 57.5t166 -46t132 -66.5t75.5 -20.5t56 19.5t35.5 94.5h33q-12 -143 -51 -201.5t-118 -58.5t-204 67t-165 67t-60 -20.5t-33 -94.5h-36q14 145 53 202.5z" />
    <glyph glyph-name="nonbreakingspace" unicode="&#xa0;" horiz-adv-x="284" 
 />
    <glyph glyph-name="exclamdown" unicode="&#xa1;" horiz-adv-x="567" 
d="M283 -33q-88 0 -113 39t-16 88l114 783q4 10 15.5 10t15.5 -10l113 -783q20 -127 -125 -127h-4zM284.5 1030q-59.5 0 -99.5 41t-40 95t40 96.5t99.5 42.5t99.5 -42t40 -97.5t-40 -95.5t-99.5 -40z" />
    <glyph glyph-name="cent" unicode="&#xa2;" horiz-adv-x="899" 
d="M477 -31q-20 0 -31 2l-79 -297h-41l77 301q-152 23 -253 148.5t-101 302.5q0 214 140 356t352 142q26 0 110 -13l90 344h45l-96 -354q78 -23 125 -71t47 -107t-33.5 -94t-78.5 -35t-75 23.5t-42 58.5l-141 -529q53 -27 110 -26q160 0 254 151l25 -10q-59 -137 -161 -215
t-243 -78zM301 532q0 -268 152 -366l182 682q-47 31 -92 31q-104 0 -173 -99.5t-69 -247.5z" />
    <glyph glyph-name="sterling" unicode="&#xa3;" horiz-adv-x="1126" 
d="M297 834q0 89 39 175.5t147 183.5t332 97q123 0 187.5 -46t64.5 -132q0 -47 -38 -85t-86 -38q-87 0 -118 77.5t13 147.5q-32 31 -82 31q-95 0 -154 -68.5t-59 -213.5q0 -59 13 -145.5t22 -186.5h266l6 -43h-268q2 -16 2 -20v-52q0 -124 -74 -266q90 -31 178 -58.5
t150 -27.5t128 19.5t89 213.5l28 -6q0 -174 -83.5 -298t-224.5 -124t-233.5 53.5t-131.5 77.5q-118 -131 -246 -131q-72 0 -118 41t-46 114t65.5 128t164.5 55t196 -31q2 10 2 67t-76 245h-227l6 43h205q-39 114 -39 203zM39 114q0 -50 37 -79t90 -29t108.5 34t94.5 87
q-134 92 -198 92t-98 -27.5t-34 -77.5z" />
    <glyph glyph-name="currency" unicode="&#xa4;" horiz-adv-x="1058" 
d="M129 617q0 58 10 106h-129l6 43h129q49 238 210 381t364 143q141 0 223 -47t82 -133q0 -47 -37 -83t-85 -36q-89 0 -121.5 76.5t12.5 144.5q-16 10 -36.5 20.5t-72.5 10.5t-161.5 -73t-141.5 -404h393l6 -43h-403v-68q0 -86 10 -151h387l6 -43h-383q37 -160 128 -248
t223 -88q183 0 284 160l23 -15q-143 -297 -422 -297q-184 0 -319 131t-173 357h-131l6 43h119q-6 55 -6 113z" />
    <glyph glyph-name="yen" unicode="&#xa5;" horiz-adv-x="1271" 
d="M508 84v233h-373l6 43h369v220h-371l-2 45h350l-11 20q-17 30 -57 99t-65 112l-135 229q-52 85 -87 116.5t-93 35.5l-51 8l-8 35h634l-6 -35l-55 -4q-72 -4 -81 -44t40 -126l231 -428h5l124 238q110 217 108.5 268t-32 67.5t-90.5 24.5l-45 6l-8 33h473l-6 -33l-43 -8
q-70 -13 -122.5 -63.5t-116.5 -170.5q-64 -121 -94 -177t-48.5 -88.5t-33 -61.5t-30.5 -53h367l-2 -45h-375v-220h373l6 -43h-379v-237q0 -14 16.5 -21.5t81.5 -13.5l89 -10l6 -35h-652l7 35l104 12q82 7 82 37z" />
    <glyph glyph-name="section" unicode="&#xa7;" horiz-adv-x="860" 
d="M414 1268q-52 0 -90.5 -43t-38.5 -89q0 -75 64 -124.5t156 -93.5q171 -83 253 -153t82 -164q0 -159 -181 -257q70 -70 70 -146q0 -136 -108.5 -218t-233.5 -82t-199.5 41t-74.5 118q0 43 28.5 77t70.5 34q80 0 111.5 -60t6.5 -141q47 -26 106 -26q60 0 101 45t41 90
q0 75 -61 121t-154 94q-94 49 -217 117t-123 205q0 94 54 154t126 99q-68 72 -68 146q0 132 104 214.5t230 82.5q125 0 196.5 -40t71.5 -118q0 -45 -31.5 -78t-73.5 -33q-75 0 -105.5 58.5t-12.5 142.5q-48 27 -100 27zM702 482q0 73 -63.5 121t-165.5 97q-70 39 -135.5 73
t-112.5 75q-65 -52 -65 -121q0 -70 63.5 -118t149.5 -92t151.5 -78t114.5 -77q63 47 63 120z" />
    <glyph glyph-name="dieresis" unicode="&#xa8;" horiz-adv-x="808" 
d="M200.5 1053q-61.5 0 -95 40t-33.5 86t33.5 88t95 42t93.5 -42t32 -88t-32 -86t-93.5 -40zM610.5 1053q-61.5 0 -93.5 40t-32 86t32 88t93.5 42t93 -42t31.5 -88t-31.5 -86t-93 -40z" />
    <glyph glyph-name="copyright" unicode="&#xa9;" horiz-adv-x="1480" 
d="M741.5 -43q-141.5 0 -266.5 53t-218 146.5t-146.5 217.5t-53.5 266t53.5 267t146.5 218.5t218 147.5t266.5 54t266.5 -54t218 -147.5t146 -218.5t53 -267t-53 -266t-146 -217.5t-218 -146.5t-266.5 -53zM741 -8q133 0 250 51t205 139t138 206t50 251t-50 252t-138 208
t-205 140t-250 51t-250.5 -51t-204.5 -140t-138.5 -208t-51.5 -252t51.5 -251t138.5 -206t204.5 -139t250.5 -51zM784 1038q112 0 181 -41l88 27l6 -260h-31l-104 201q-53 43 -135 43q-142 0 -214.5 -100.5t-72.5 -265.5q0 -164 77.5 -270t207.5 -106t212 142l50 106h30
l-35 -231l-53 -2q-97 -43 -212 -43q-214 0 -331.5 113.5t-117.5 285.5t123 286.5t331 114.5z" />
    <glyph glyph-name="ordfeminine" unicode="&#xaa;" horiz-adv-x="733" 
d="M209 578q-68 0 -116 44t-48 118q0 159 399 253l2 56q2 94 -46 143t-107 49t-79.5 -15.5t-20.5 -23.5t18 -33.5t18 -57.5t-27.5 -55.5t-67.5 -23.5t-67.5 22.5t-27.5 60.5t38 73t126.5 76t203.5 41q116 0 175 -58.5t53 -175.5l-12 -297q-2 -92 55 -92q37 0 72 35l8 -17
q-85 -122 -187 -122q-113 0 -131 139h-4q-112 -139 -227 -139zM231 831q0 -81 27 -111t75 -30t103 58l8 215q-213 -51 -213 -132z" />
    <glyph glyph-name="guillemotleft" unicode="&#xab;" horiz-adv-x="950" 
d="M442 426v57l465 346l13 -16l-265 -360l263 -357l-11 -16zM35 426v57l454 324l11 -16l-244 -338l244 -336l-11 -17z" />
    <glyph glyph-name="registered" unicode="&#xae;" horiz-adv-x="1480" 
d="M741.5 -43q-141.5 0 -266.5 53t-218 146.5t-146.5 218.5t-53.5 266t53.5 266t146.5 218.5t218 147.5t266.5 54t266.5 -54t218 -147.5t146 -218.5t53 -266t-53 -266t-146 -218.5t-218 -146.5t-266.5 -53zM741 -6q133 0 251 51t205 139t137 206t50 251t-50 252t-137 207
t-205 139t-251 51t-250.5 -51t-204.5 -139t-138.5 -207t-51.5 -252t51.5 -251t138.5 -206t204.5 -139t250.5 -51zM717 1024q332 0 332 -197q0 -72 -51.5 -125t-137.5 -73l154 -238q37 -59 64.5 -74.5t66.5 -23.5l22 -4l4 -31h-268l-20 41l-185 322q-12 4 -34.5 8t-36.5 8
v-324q0 -12 57 -18l49 -6l4 -31h-379l7 31l53 6q51 6 51 22v650q0 14 -59 20l-45 8l-5 29h357zM881 826q0 85 -55.5 126t-147.5 37h-51v-317q28 -11 90 -19q76 2 120 45t44 128z" />
    <glyph glyph-name="macron" unicode="&#xaf;" horiz-adv-x="774" 
d="M129 1180h537l-17 -97h-543z" />
    <glyph glyph-name="degree" unicode="&#xb0;" horiz-adv-x="659" 
d="M332 750q-64 0 -117 22.5t-90 61t-56.5 90t-19.5 109t19.5 109.5t55.5 91t88 61.5t117.5 22.5t118 -22.5t88 -61.5t55 -91t19.5 -109.5t-19.5 -109t-55 -90t-87.5 -61t-116 -22.5zM329.5 791q108.5 0 172 70.5t63.5 172.5t-65 172t-169.5 70t-169.5 -70.5t-65 -171.5
q0 -102 62.5 -172.5t171 -70.5z" />
    <glyph glyph-name="plusminus" unicode="&#xb1;" horiz-adv-x="733" 
d="M250 80v819q0 26 -90 33l-72 8l-6 35h571l-6 -35l-74 -8q-41 -4 -62.5 -11.5t-21.5 -25.5v-819q0 -26 91 -33l71 -8l6 -35h-571l6 35l76 8q41 4 61.5 11t20.5 26z" />
    <glyph glyph-name="acute" unicode="&#xb4;" horiz-adv-x="819" 
d="M492 1399h245l-413 -379h-37z" />
    <glyph glyph-name="paragraph" unicode="&#xb6;" horiz-adv-x="919" 
d="M564 500q-228 0 -368.5 104t-140.5 283q0 393 543 393h205v-1346h-55v580q-76 -14 -184 -14z" />
    <glyph glyph-name="periodcentered" unicode="&#xb7;" horiz-adv-x="452" 
d="M225.5 336q-61.5 0 -103.5 43t-42 101t42 100.5t103.5 42.5t102.5 -42.5t41 -100.5t-41 -101t-102.5 -43z" />
    <glyph glyph-name="cedilla" unicode="&#xb8;" horiz-adv-x="802" 
d="M508 -360q0 118 -174 118q-78 0 -150 -22v22l232 248h47l-127 -133q131 16 223 -32.5t92 -137.5q0 -216 -450 -260l-11 22q318 52 318 175z" />
    <glyph glyph-name="ordmasculine" unicode="&#xba;" horiz-adv-x="831" 
d="M139.5 675.5q-104.5 104.5 -104.5 257.5t107.5 261.5t276.5 108.5t272.5 -105.5t103.5 -259.5q0 -153 -107 -260t-275.5 -107t-273 104.5zM580 922q0 346 -167 346t-167 -332t178 -332q66 0 111 89.5t45 228.5z" />
    <glyph glyph-name="guillemotright" unicode="&#xbb;" horiz-adv-x="948" 
d="M37 96l262 357l-260 360l10 16l467 -346v-57l-467 -346zM457 117l241 336l-239 338l8 16l455 -324v-57l-455 -326z" />
    <glyph glyph-name="questiondown" unicode="&#xbf;" horiz-adv-x="702" 
d="M428 178q77 0 166 23q45 -36 48 -98q6 -132 -167 -132t-290 127.5t-117 294.5q0 112 40.5 162.5t136.5 88.5q97 38 143 61.5t46 64.5t-21.5 70.5t-62.5 64.5l35 6q109 -81 139.5 -146t30.5 -101q0 -72 -58.5 -116t-171.5 -82q-114 -38 -159 -65.5t-45 -66.5
q0 -61 81 -108.5t226 -47.5zM376 1034q-58 0 -98 41t-40 95t40 96.5t98 42.5t99 -41.5t41 -97.5t-41 -96t-99 -40z" />
    <glyph glyph-name="Agrave" unicode="&#xc0;" horiz-adv-x="1329" 
d="M557 1038h-8l-168 -481h332zM307 344q-31 -92 -47 -148t-10 -90t36 -46q30 -13 91 -19l47 -6l6 -35h-457l7 35l38 6q45 6 75 19q57 25 117 173q32 78 81 213l233 650l-16 69q49 12 109 59q61 48 77 91h37l365 -1065q48 -132 78 -167q30 -36 92 -40l61 -8l6 -35h-635l7 35
l59 6q71 8 81 47q9 42 -28 148l-90 276h-362zM279 1741h247l203 -379h-35z" />
    <glyph glyph-name="Aacute" unicode="&#xc1;" horiz-adv-x="1329" 
d="M557 1038h-8l-168 -481h332zM307 344q-31 -92 -47 -148t-10 -90t36 -46q30 -13 91 -19l47 -6l6 -35h-457l7 35l38 6q45 6 75 19q57 25 117 173q32 78 81 213l233 650l-16 69q49 12 109 59q61 48 77 91h37l365 -1065q48 -132 78 -167q30 -36 92 -40l61 -8l6 -35h-635l7 35
l59 6q71 8 81 47q9 42 -28 148l-90 276h-362zM760 1741h246l-414 -379h-37z" />
    <glyph glyph-name="Acircumflex" unicode="&#xc2;" horiz-adv-x="1329" 
d="M557 1038h-8l-168 -481h332zM307 344q-31 -92 -47 -148t-10 -90t36 -46q30 -13 91 -19l47 -6l6 -35h-457l7 35l38 6q45 6 75 19q57 25 117 173q32 78 81 213l233 650l-16 69q49 12 109 59q61 48 77 91h37l365 -1065q48 -132 78 -167q30 -36 92 -40l61 -8l6 -35h-635l7 35
l59 6q71 8 81 47q9 42 -28 148l-90 276h-362zM651 1751h39l279 -403h-31l-264 200h-4l-269 -200h-28z" />
    <glyph glyph-name="Atilde" unicode="&#xc3;" horiz-adv-x="1329" 
d="M557 1038h-8l-168 -481h332zM307 344q-31 -92 -47 -148t-10 -90t36 -46q30 -13 91 -19l47 -6l6 -35h-457l7 35l38 6q45 6 75 19q57 25 117 173q32 78 81 213l233 650l-16 69q49 12 109 59q61 48 77 91h37l365 -1065q48 -132 78 -167q30 -36 92 -40l61 -8l6 -35h-635l7 35
l59 6q71 8 81 47q9 42 -28 148l-90 276h-362zM867 1522q38 0 62 19t36 95h32q-12 -144 -51 -202t-119 -58t-202 66q-123 66 -165 67q-42 0 -62 -21t-31 -93h-37q14 145 53 202q80 117 322 -9q124 -66 162 -66z" />
    <glyph glyph-name="Adieresis" unicode="&#xc4;" horiz-adv-x="1329" 
d="M557 1038h-8l-168 -481h332zM307 344q-31 -92 -47 -148t-10 -90t36 -46q30 -13 91 -19l47 -6l6 -35h-457l7 35l38 6q45 6 75 19q57 25 117 173q32 78 81 213l233 650l-16 69q49 12 109 59q61 48 77 91h37l365 -1065q48 -132 78 -167q30 -36 92 -40l61 -8l6 -35h-635l7 35
l59 6q71 8 81 47q9 42 -28 148l-90 276h-362zM461 1395q-61 0 -95 40t-34 86t34 88t95 42t93 -42t32 -88t-32 -86t-93 -40zM870 1395q-61 0 -93 40t-32 86t32 88t93 42q62 0 94 -42q68 -87 0 -174q-33 -40 -94 -40z" />
    <glyph glyph-name="Aring" unicode="&#xc5;" horiz-adv-x="1329" 
d="M713 557l-6 21q-6 20 -27.5 84t-44.5 137l-78 241h-8l-168 -483h332zM473 1434q0 78 49.5 134t137.5 56t138 -56.5t50 -121.5q0 -132 -98 -178l346 -1018q47 -130 71.5 -158.5t46 -37.5t52.5 -11l61 -8l6 -35h-635l7 35l59 6q72 8 81 48.5t-28 146.5l-88 274h-364
l-58 -166q-31 -92 -47 -148.5t-10 -89t35.5 -46t91.5 -19.5l47 -6l6 -35h-457l7 35l38 6q45 6 76 19.5t65 64t132 321.5l295 816q-113 47 -113 172zM661.5 1276q71.5 0 111.5 47t40 110.5t-40 110.5t-111.5 47t-112.5 -47t-41 -110.5t41 -110.5t112.5 -47z" />
    <glyph glyph-name="AE" unicode="&#xc6;" horiz-adv-x="1796" 
d="M778 84v432h-383l-90 -172q-85 -161 -79.5 -225.5t96.5 -77.5l57 -6l6 -35h-481l6 35l67 8q69 13 127.5 77.5t176.5 280.5l389 725q29 56 11 80.5t-110 32.5l-75 8l-7 33h1156l14 -420h-51l-19 68q-51 181 -135.5 245t-286.5 64l-127 -2v-561l60 2q122 4 164.5 29.5
t63 53t32.5 70.5l22 66h43l-53 -492l-39 3l-6 63q-8 89 -56 123.5t-188 38.5l-43 2v-584l144 -6q289 0 365.5 121t103.5 194l18 62h53l-51 -420h-1085l6 33l102 12q82 11 82 39zM778 563v654h-8l-348 -654h356z" />
    <glyph glyph-name="Ccedilla" unicode="&#xc7;" horiz-adv-x="1419" 
d="M588 -535q317 51 317 175q0 118 -174 118q-78 0 -149 -22v22l200 215q-320 4 -518 184.5t-198 470.5q0 298 204.5 489.5t546.5 191.5q96 0 186.5 -22.5t137.5 -47.5l147 43l10 -424h-51l-172 342q-94 62 -231 62q-136 0 -222.5 -47.5t-177 -171.5t-90.5 -402
t129.5 -450.5t331.5 -172.5q139 0 229.5 59.5t157.5 170.5l76 178h55l-61 -381h-88q-87 -39 -196 -54.5t-159 -17.5l-96 -100q131 16 223.5 -32.5t92.5 -137.5q0 -118 -130.5 -179.5t-320.5 -80.5z" />
    <glyph glyph-name="Egrave" unicode="&#xc8;" horiz-adv-x="1267" 
d="M217 1208q0 19 -36 24t-70 7l-58 8l-6 33h1067l14 -420h-53l-18 68q-50 176 -140 242q-90 67 -296 67l-138 -2v-561l76 2q121 4 181 37t87 116l23 66h43l-51 -492l-41 3l-8 63q-8 92 -60 125t-188 37l-62 2v-584l170 -6q287 0 404 183q37 58 63 132l21 62h53l-53 -420
h-1096l6 33l74 8q94 12 92 37v1130zM291 1741h248l202 -379h-34z" />
    <glyph glyph-name="Eacute" unicode="&#xc9;" horiz-adv-x="1267" 
d="M217 1208q0 19 -36 24t-70 7l-58 8l-6 33h1067l14 -420h-53l-18 68q-50 176 -140 242q-90 67 -296 67l-138 -2v-561l76 2q121 4 181 37t87 116l23 66h43l-51 -492l-41 3l-8 63q-8 92 -60 125t-188 37l-62 2v-584l170 -6q287 0 404 183q37 58 63 132l21 62h53l-53 -420
h-1096l6 33l74 8q94 12 92 37v1130zM733 1741h246l-414 -379h-37z" />
    <glyph glyph-name="Ecircumflex" unicode="&#xca;" horiz-adv-x="1267" 
d="M217 1208q0 19 -36 24t-70 7l-58 8l-6 33h1067l14 -420h-53l-18 68q-50 176 -140 242q-90 67 -296 67l-138 -2v-561l76 2q121 4 181 37t87 116l23 66h43l-51 -492l-41 3l-8 63q-8 92 -60 125t-188 37l-62 2v-584l170 -6q287 0 404 183q37 58 63 132l21 62h53l-53 -420
h-1096l6 33l74 8q94 12 92 37v1130zM623 1751h39l278 -403h-31l-264 200h-4l-268 -200h-29z" />
    <glyph glyph-name="Edieresis" unicode="&#xcb;" horiz-adv-x="1267" 
d="M217 1208q0 19 -36 24t-70 7l-58 8l-6 33h1067l14 -420h-53l-18 68q-50 176 -140 242q-90 67 -296 67l-138 -2v-561l76 2q121 4 181 37t87 116l23 66h43l-51 -492l-41 3l-8 63q-8 92 -60 125t-188 37l-62 2v-584l170 -6q287 0 404 183q37 58 63 132l21 62h53l-53 -420
h-1096l6 33l74 8q94 12 92 37v1130zM436 1395q-61 0 -95 40t-34 86t34 88t95 42t93 -42t32 -88t-32 -86t-93 -40zM846 1395q-61 0 -93 40t-32 86t32 88t93 42t93 -42t32 -88t-32 -86t-93 -40z" />
    <glyph glyph-name="Igrave" unicode="&#xcc;" horiz-adv-x="747" 
d="M242 78v1130q0 19 -36 24t-71 7l-67 8l-7 33h625l-6 -33l-84 -8q-90 -7 -90 -37v-1130q0 -12 18 -18t86 -13l68 -8l6 -33h-623l7 33l84 8q90 8 90 37zM18 1741h248l203 -379h-35z" />
    <glyph glyph-name="Iacute" unicode="&#xcd;" horiz-adv-x="747" 
d="M242 78v1130q0 19 -36 24t-71 7l-67 8l-7 33h625l-6 -33l-84 -8q-90 -7 -90 -37v-1130q0 -12 18 -18t86 -13l68 -8l6 -33h-623l7 33l84 8q90 8 90 37zM489 1741h246l-413 -379h-37z" />
    <glyph glyph-name="Icircumflex" unicode="&#xce;" horiz-adv-x="747" 
d="M242 78v1130q0 19 -36 24t-71 7l-67 8l-7 33h625l-6 -33l-84 -8q-90 -7 -90 -37v-1130q0 -12 18 -18t86 -13l68 -8l6 -33h-623l7 33l84 8q90 8 90 37zM356 1751h39l279 -403h-31l-264 200h-4l-269 -200h-28z" />
    <glyph glyph-name="Idieresis" unicode="&#xcf;" horiz-adv-x="747" 
d="M242 78v1130q0 19 -36 24t-71 7l-67 8l-7 33h625l-6 -33l-84 -8q-90 -7 -90 -37v-1130q0 -12 18 -18t86 -13l68 -8l6 -33h-623l7 33l84 8q90 8 90 37zM174 1395q-61 0 -95 40t-34 86t34 88t95 42t93 -42t32 -88t-32 -86t-93 -40zM584 1395q-61 0 -94 40q-67 83 0 174
q32 42 94 42t93 -42q32 -42 32 -88t-32 -86t-93 -40z" />
    <glyph glyph-name="Eth" unicode="&#xd0;" horiz-adv-x="1421" 
d="M1364 659q0 -135 -53.5 -255.5t-208.5 -262t-500 -141.5h-567l6 33l94 14q82 7 82 37v537h-176l6 47h170v532q0 25 -96 35l-78 12l-6 33q168 0 299 2h51l240 2q351 4 544 -165t193 -460zM481 621v-543l140 -35q216 0 336 163t120 406q0 447 -186 536t-316 89h-94v-569
h252l6 -47h-258z" />
    <glyph glyph-name="Ntilde" unicode="&#xd1;" horiz-adv-x="1452" 
d="M289 1067h-6l2 -850q0 -99 30 -133t121 -43l62 -8l6 -33h-463l6 33l57 8q74 6 102 44t27 142l7 867q-72 123 -179 141l-43 12l-6 33h457l713 -895h6l-2 676q0 102 -31 136t-121 42l-59 8l-6 33h461l-7 -33l-57 -8q-72 -6 -100 -44t-29 -144l-6 -1063h-72zM960 1522
q38 0 62 19t35 95h33q-12 -144 -52 -202t-119 -58q-80 0 -202 66q-123 66 -165 67q-42 0 -62 -21t-31 -93h-37q14 145 53 202q80 117 322 -9q125 -66 163 -66z" />
    <glyph glyph-name="Ograve" unicode="&#xd2;" horiz-adv-x="1527" 
d="M750 -29q-301 0 -492 184q-192 184 -192 480q0 137 56 259q116 252 378 359q130 53 278 53q299 1 491 -183q193 -185 193 -482q0 -137 -56 -259t-152 -213t-226 -145t-278 -53zM770 16q188 0 294 154q105 154 105 457t-112 469t-300 166q-189 0 -295 -154t-108 -460
q0 -306 114 -469t302 -163zM410 1741h247l203 -379h-35z" />
    <glyph glyph-name="Oacute" unicode="&#xd3;" horiz-adv-x="1527" 
d="M750 -29q-301 0 -492 184q-192 184 -192 480q0 137 56 259q116 252 378 359q130 53 278 53q299 1 491 -183q193 -185 193 -482q0 -137 -56 -259t-152 -213t-226 -145t-278 -53zM770 16q188 0 294 154q105 154 105 457t-112 469t-300 166q-189 0 -295 -154t-108 -460
q0 -306 114 -469t302 -163zM881 1741h245l-413 -379h-37z" />
    <glyph glyph-name="Ocircumflex" unicode="&#xd4;" horiz-adv-x="1527" 
d="M750 -29q-301 0 -492 184q-192 184 -192 480q0 137 56 259q116 252 378 359q130 53 278 53q299 1 491 -183q193 -185 193 -482q0 -137 -56 -259t-152 -213t-226 -145t-278 -53zM770 16q188 0 294 154q105 154 105 457t-112 469t-300 166q-189 0 -295 -154t-108 -460
q0 -306 114 -469t302 -163zM745 1751h39l279 -403h-31l-264 200h-4l-268 -200h-29z" />
    <glyph glyph-name="Otilde" unicode="&#xd5;" horiz-adv-x="1527" 
d="M750 -29q-301 0 -492 184q-192 184 -192 480q0 137 56 259q116 252 378 359q130 53 278 53q299 1 491 -183q193 -185 193 -482q0 -137 -56 -259t-152 -213t-226 -145t-278 -53zM770 16q188 0 294 154q105 154 105 457t-112 469t-300 166q-189 0 -295 -154t-108 -460
q0 -306 114 -469t302 -163zM939 1376q-79 0 -203 66t-165 67q-42 0 -61 -20t-33 -94h-37q14 145 54 202q82 118 321 -9q124 -66 163 -66q38 0 62 19t35 95h33q-12 -144 -51 -202t-118 -58z" />
    <glyph glyph-name="Odieresis" unicode="&#xd6;" horiz-adv-x="1527" 
d="M750 -29q-301 0 -492 184q-192 184 -192 480q0 137 56 259q116 252 378 359q130 53 278 53q299 1 491 -183q193 -185 193 -482q0 -137 -56 -259t-152 -213t-226 -145t-278 -53zM770 16q188 0 294 154q105 154 105 457t-112 469t-300 166q-189 0 -295 -154t-108 -460
q0 -306 114 -469t302 -163zM559 1395q-61 0 -95 40t-34 86t34 88t95 42t93 -42t32 -88t-32 -86t-93 -40zM969 1395q-61 0 -93 40t-32 86t32 88t93 42t93 -42t32 -88t-32 -86t-93 -40z" />
    <glyph glyph-name="Oslash" unicode="&#xd8;" horiz-adv-x="1527" 
d="M1462 641q0 -137 -56 -259t-152.5 -213t-225 -144.5t-286.5 -53.5t-298 62l-106 -185h-49l117 203q-158 80 -249 230.5t-91 353.5q0 137 56 259t152.5 214t226 145.5t289.5 53.5t304 -66l98 168h49l-108 -188q154 -82 241.5 -231.5t87.5 -348.5zM770 16q188 0 293.5 154
t105.5 454t-110 470l-555 -959q106 -119 266 -119zM354 645q0 -307 121 -475l555 960q-102 132 -282 132t-287 -155t-107 -462z" />
    <glyph glyph-name="Ugrave" unicode="&#xd9;" horiz-adv-x="1435" 
d="M827 74q361 0 361 420l-2 567q0 102 -31 136t-121 42l-61 8l-6 33h463l-7 -33l-57 -8q-72 -6 -100 -44t-29 -144l-4 -570q-2 -246 -121 -381t-381 -135q-262 1 -393 107t-131 338v800q0 23 -103 29l-69 8l-6 33h624l-6 -33l-86 -8q-86 -7 -88 -35v-733q0 -397 354 -397z
M397 1741h248l203 -379h-35z" />
    <glyph glyph-name="Uacute" unicode="&#xda;" horiz-adv-x="1435" 
d="M827 74q361 0 361 420l-2 567q0 102 -31 136t-121 42l-61 8l-6 33h463l-7 -33l-57 -8q-72 -6 -100 -44t-29 -144l-4 -570q-2 -246 -121 -381t-381 -135q-262 1 -393 107t-131 338v800q0 23 -103 29l-69 8l-6 33h624l-6 -33l-86 -8q-86 -7 -88 -35v-733q0 -397 354 -397z
M897 1741h246l-414 -379h-37z" />
    <glyph glyph-name="Ucircumflex" unicode="&#xdb;" horiz-adv-x="1435" 
d="M827 74q361 0 361 420l-2 567q0 102 -31 136t-121 42l-61 8l-6 33h463l-7 -33l-57 -8q-72 -6 -100 -44t-29 -144l-4 -570q-2 -246 -121 -381t-381 -135q-262 1 -393 107t-131 338v800q0 23 -103 29l-69 8l-6 33h624l-6 -33l-86 -8q-86 -7 -88 -35v-733q0 -397 354 -397z
M756 1751h39l278 -403h-31l-264 200h-4l-268 -200h-29z" />
    <glyph glyph-name="Udieresis" unicode="&#xdc;" horiz-adv-x="1435" 
d="M827 74q361 0 361 420l-2 567q0 102 -31 136t-121 42l-61 8l-6 33h463l-7 -33l-57 -8q-72 -6 -100 -44t-29 -144l-4 -570q-2 -246 -121 -381t-381 -135q-262 1 -393 107t-131 338v800q0 23 -103 29l-69 8l-6 33h624l-6 -33l-86 -8q-86 -7 -88 -35v-733q0 -397 354 -397z
M582 1395q-61 0 -96 40q-71 84 0 174q34 42 96 42t93 -42q32 -42 32 -88t-32 -86t-93 -40zM991 1395q-61 0 -93 40t-32 86t32 88t93 42t93 -42t32 -88t-32 -86t-93 -40z" />
    <glyph glyph-name="Yacute" unicode="&#xdd;" horiz-adv-x="1300" 
d="M518 78v487l-295 516q-57 94 -87 121t-87 35l-47 8l-6 35h618l-6 -35l-45 -4q-82 -10 -91 -44t36 -112l242 -438h8l162 299q93 171 90 226q-2 32 -31 46t-86 21l-47 6l-6 35h460l-6 -35l-51 -8q-78 -13 -114 -52q-63 -68 -156 -243l-189 -338v-532q0 -12 18 -18t87 -13
l78 -8l6 -33h-645l6 33l96 8q88 7 88 37zM793 1741h245l-413 -379h-37z" />
    <glyph glyph-name="Thorn" unicode="&#xde;" horiz-adv-x="1228" 
d="M223 78v1128q0 12 -17.5 18.5t-86.5 12.5l-68 6l-6 37h623l-6 -37l-84 -8q-88 -8 -89 -33v-188h82q25 0 54 -2q270 0 403 -87t133 -251t-152.5 -267.5t-396.5 -103.5q-76 0 -123 10v-239q0 -12 17.5 -19.5t87.5 -11.5l90 -6l6 -37h-647l6 37l86 8q88 7 88 33zM608 348
q119 0 194 84t75 227t-73 227.5t-226 86.5h-43q-20 0 -46 -2v-609q81 -14 119 -14z" />
    <glyph glyph-name="germandbls" unicode="&#xdf;" horiz-adv-x="1150" 
d="M998 91q-108 -118 -253 -118q-111 0 -177 49.5t-66 113.5t36.5 101t90 37t81 -27.5t31.5 -64.5t-12 -72.5t-51 -50.5q4 -14 25 -28.5t73 -14.5t93.5 50.5t41.5 135.5q0 169 -99 323.5t-298 265.5v53q135 33 193.5 94.5t58.5 166.5t-49 165.5t-137 60.5t-130 -65.5
t-42 -229.5v-1036h-363l6 37l43 2q41 4 59.5 9t18.5 24v704l-162 4l37 109l125 -2l4 92q12 180 133 289.5t299 109.5t279.5 -73t101.5 -187t-71 -171.5t-177 -80.5q149 -72 257 -209.5t108 -292.5t-108 -273z" />
    <glyph glyph-name="agrave" unicode="&#xe0;" horiz-adv-x="946" 
d="M961 139q-121 -166 -253 -166q-54 0 -96 44q-43 44 -53 130l-4 3q-152 -174 -261 -175t-174 59t-66 133q-1 75 26 123q80 143 483 240l2 54q4 132 -50 198t-153 66q-55 0 -93 -16t-38 -33q-1 -5 9 -17q48 -59 49 -101q0 -42 -33 -75t-84 -33t-86 27t-35 74t44 92
q91 93 256 135q79 20 149 21q168 0 240 -77t61 -267l-17 -369q-8 -107 67 -107q34 0 89 58zM283 248q0 -52 37 -90t84 -39q80 0 149 69l12 306q-86 -20 -140 -47q-105 -51 -130 -117q-12 -30 -12 -82zM115 1399h247l203 -379h-35z" />
    <glyph glyph-name="aacute" unicode="&#xe1;" horiz-adv-x="946" 
d="M961 139q-121 -166 -253 -166q-54 0 -96 44q-43 44 -53 130l-4 3q-152 -174 -261 -175t-174 59t-66 133q-1 75 26 123q80 143 483 240l2 54q4 132 -50 198t-153 66q-55 0 -93 -16t-38 -33q-1 -5 9 -17q48 -59 49 -101q0 -42 -33 -75t-84 -33t-86 27t-35 74t44 92
q91 93 256 135q79 20 149 21q168 0 240 -77t61 -267l-17 -369q-8 -107 67 -107q34 0 89 58zM283 248q0 -52 37 -90t84 -39q80 0 149 69l12 306q-86 -20 -140 -47q-105 -51 -130 -117q-12 -30 -12 -82zM565 1399h246l-414 -379h-37z" />
    <glyph glyph-name="acircumflex" unicode="&#xe2;" horiz-adv-x="946" 
d="M961 139q-121 -166 -253 -166q-54 0 -96 44q-43 44 -53 130l-4 3q-152 -174 -261 -175t-174 59t-66 133q-1 75 26 123q80 143 483 240l2 54q4 132 -50 198t-153 66q-55 0 -93 -16t-38 -33q-1 -5 9 -17q48 -59 49 -101q0 -42 -33 -75t-84 -33t-86 27t-35 74t44 92
q91 93 256 135q79 20 149 21q168 0 240 -77t61 -267l-17 -369q-8 -107 67 -107q34 0 89 58zM283 248q0 -52 37 -90t84 -39q80 0 149 69l12 306q-86 -20 -140 -47q-105 -51 -130 -117q-12 -30 -12 -82zM432 1409h39l279 -403h-31l-264 200h-4l-269 -200h-28z" />
    <glyph glyph-name="atilde" unicode="&#xe3;" horiz-adv-x="946" 
d="M961 139q-121 -166 -253 -166q-54 0 -96 44q-43 44 -53 130l-4 3q-152 -174 -261 -175t-174 59t-66 133q-1 75 26 123q80 143 483 240l2 54q4 132 -50 198t-153 66q-55 0 -93 -16t-38 -33q-1 -5 9 -17q48 -59 49 -101q0 -42 -33 -75t-84 -33t-86 27t-35 74t44 92
q91 93 256 135q79 20 149 21q168 0 240 -77t61 -267l-17 -369q-8 -107 67 -107q34 0 89 58zM283 248q0 -52 37 -90t84 -39q80 0 149 69l12 306q-86 -20 -140 -47q-105 -51 -130 -117q-12 -30 -12 -82zM657 1180q37 0 61 19t36 95h32q-12 -144 -51 -202t-119 -58t-202 66
q-123 66 -165 67q-42 0 -62 -21t-31 -93h-37q14 145 53 202q80 117 322 -9q125 -66 163 -66z" />
    <glyph glyph-name="adieresis" unicode="&#xe4;" horiz-adv-x="946" 
d="M961 139q-121 -166 -253 -166q-54 0 -96 44q-43 44 -53 130l-4 3q-152 -174 -261 -175t-174 59t-66 133q-1 75 26 123q80 143 483 240l2 54q4 132 -50 198t-153 66q-55 0 -93 -16t-38 -33q-1 -5 9 -17q48 -59 49 -101q0 -42 -33 -75t-84 -33t-86 27t-35 74t44 92
q91 93 256 135q79 20 149 21q168 0 240 -77t61 -267l-17 -369q-8 -107 67 -107q34 0 89 58zM283 248q0 -52 37 -90t84 -39q80 0 149 69l12 306q-86 -20 -140 -47q-105 -51 -130 -117q-12 -30 -12 -82zM244 1053q-61 0 -96 40q-71 84 0 174q34 42 96 42t93 -42q32 -42 32 -88
t-32 -86t-93 -40zM653 1053q-61 0 -93 40t-32 86t32 88t93 42t93 -42t32 -88t-32 -86t-93 -40z" />
    <glyph glyph-name="aring" unicode="&#xe5;" horiz-adv-x="946" 
d="M961 139q-121 -166 -253 -166q-54 0 -96 44q-43 44 -53 130l-4 3q-152 -174 -261 -175t-174 59t-66 133q-1 75 26 123q80 143 483 240l2 54q4 132 -50 198t-153 66q-55 0 -93 -16t-38 -33q-1 -5 9 -17q48 -59 49 -101q0 -42 -33 -75t-84 -33t-86 27t-35 74t44 92
q91 93 256 135q79 20 149 21q168 0 240 -77t61 -267l-17 -369q-8 -107 67 -107q34 0 89 58zM283 248q0 -52 37 -90t84 -39q80 0 149 69l12 306q-86 -20 -140 -47q-105 -51 -130 -117q-12 -30 -12 -82zM442 1030q-88 0 -138 56t-50 134t50 135q50 56 138 56t138 -56t51 -134
q0 -78 -50 -135q-51 -56 -139 -56zM442 1063q72 0 112 46q40 47 40 111t-40 111t-112 47t-112 -47t-41 -111q1 -64 41 -111q40 -46 112 -46z" />
    <glyph glyph-name="ae" unicode="&#xe6;" horiz-adv-x="1439" 
d="M53 184q0 117 119 199t391 147l2 56q6 129 -49 195.5t-154 66.5q-55 0 -93 -16.5t-38 -32.5q0 -6 9.5 -17.5t29 -41.5t19.5 -66q0 -35 -33 -68t-84 -33t-86 27t-35 74t43 92t148.5 100.5t265.5 55.5q161 0 223 -107q128 109 296 109t261.5 -85t93.5 -214q0 -28 -8 -58
q-147 0 -268 2l-303 6q-2 -16 -2 -21v-56q0 -167 84 -270t221 -103q171 0 262 151l23 -12q-61 -141 -166 -216t-241 -75t-231.5 60.5t-142.5 161.5q-179 -222 -336 -222q-88 0 -154.5 61t-66.5 150zM559 449q0 21 4 43q-230 -63 -255 -131t-25 -118t37.5 -89t105.5 -39
t168 108q-35 88 -35 226zM979 612h172q0 182 -52 224.5t-93 42.5q-72 0 -128.5 -73t-70.5 -196q96 2 172 2z" />
    <glyph glyph-name="ccedilla" unicode="&#xe7;" horiz-adv-x="903" 
d="M287 -535q317 51 317 175q0 118 -174 118q-78 0 -149 -22v22l196 211h-2q-184 0 -305 128.5t-121 332.5t139.5 348t352.5 144q138 0 229.5 -56.5t91.5 -148.5q0 -57 -35 -91t-91 -34t-91 44t-31 103q0 33 18.5 55.5t16.5 36.5t-33.5 30t-72.5 16q-104 0 -173 -98.5
t-69 -275.5t81 -279.5t218 -102.5q164 0 254 151l25 -12q-114 -259 -353 -289l-94 -98q131 16 223.5 -32.5t92.5 -137.5q0 -118 -130.5 -179.5t-320.5 -80.5z" />
    <glyph glyph-name="egrave" unicode="&#xe8;" horiz-adv-x="933" 
d="M475 -31q-186 0 -306 131t-120 334t137 347q137 143 344 143q162 0 255 -86q92 -86 92 -213q0 -29 -7 -58q-150 0 -270 2l-299 6q-4 -17 -4 -39v-38q0 -169 86 -274t219 -103q168 0 260 151l25 -12q-128 -291 -412 -291zM504 879q-72 0 -129 -74t-72 -195l344 2
q0 184 -77 244q-28 23 -66 23zM152 1399h247l203 -379h-35z" />
    <glyph glyph-name="eacute" unicode="&#xe9;" horiz-adv-x="933" 
d="M475 -31q-186 0 -306 131t-120 334t137 347q137 143 344 143q162 0 255 -86q92 -86 92 -213q0 -29 -7 -58q-150 0 -270 2l-299 6q-4 -17 -4 -39v-38q0 -169 86 -274t219 -103q168 0 260 151l25 -12q-128 -291 -412 -291zM504 879q-72 0 -129 -74t-72 -195l344 2
q0 184 -77 244q-28 23 -66 23zM596 1399h246l-414 -379h-37z" />
    <glyph glyph-name="ecircumflex" unicode="&#xea;" horiz-adv-x="933" 
d="M475 -31q-186 0 -306 131t-120 334t137 347q137 143 344 143q162 0 255 -86q92 -86 92 -213q0 -29 -7 -58q-150 0 -270 2l-299 6q-4 -17 -4 -39v-38q0 -169 86 -274t219 -103q168 0 260 151l25 -12q-128 -291 -412 -291zM504 879q-72 0 -129 -74t-72 -195l344 2
q0 184 -77 244q-28 23 -66 23zM473 1409h39l279 -403h-31l-264 200h-4l-269 -200h-28z" />
    <glyph glyph-name="edieresis" unicode="&#xeb;" horiz-adv-x="933" 
d="M475 -31q-186 0 -306 131t-120 334t137 347q137 143 344 143q162 0 255 -86q92 -86 92 -213q0 -29 -7 -58q-150 0 -270 2l-299 6q-4 -17 -4 -39v-38q0 -169 86 -274t219 -103q168 0 260 151l25 -12q-128 -291 -412 -291zM504 879q-72 0 -129 -74t-72 -195l344 2
q0 184 -77 244q-28 23 -66 23zM285 1053q-61 0 -96 40q-71 84 0 174q33 42 95 42t94 -42t32 -88t-32 -86t-93 -40zM694 1053q-61 0 -93 40t-32 86t32 88t93 42t93 -42t32 -88t-32 -86t-93 -40z" />
    <glyph glyph-name="igrave" unicode="&#xec;" horiz-adv-x="559" 
d="M164 621q0 94 -16 122q-16 27 -70 39l-43 11l2 24l362 101v-850q1 -14 17 -20t80 -13l28 -2l6 -33h-489l6 33l35 2q45 4 63 10t19 25v551zM-49 1399h248l202 -379h-34z" />
    <glyph glyph-name="iacute" unicode="&#xed;" horiz-adv-x="559" 
d="M164 621q0 94 -16 122q-16 27 -70 39l-43 11l2 24l362 101v-850q1 -14 17 -20t80 -13l28 -2l6 -33h-489l6 33l35 2q45 4 63 10t19 25v551zM371 1399h245l-413 -379h-37z" />
    <glyph glyph-name="icircumflex" unicode="&#xee;" horiz-adv-x="559" 
d="M164 70v551q0 94 -16 121t-70 40l-43 11l2 24l362 101v-850q0 -14 16.5 -20.5t80.5 -12.5l28 -2l6 -33h-489l6 33l35 2q45 4 63.5 10t18.5 25zM266 1409h39l264 -403h-30l-252 200h-4l-250 -200h-33z" />
    <glyph glyph-name="idieresis" unicode="&#xef;" horiz-adv-x="559" 
d="M164 621q0 94 -16 122q-16 27 -70 39l-43 11l2 24l362 101v-850q1 -14 17 -20t80 -13l28 -2l6 -33h-489l6 33l35 2q45 4 63 10t19 25v551zM86 1053q-61 0 -95 40t-34 86t34 88t95 42t93 -42t32 -88t-32 -86t-93 -40zM496 1053q-61 0 -94 40q-67 83 0 174q32 42 94 42
t93 -42q32 -42 32 -88t-32 -86t-93 -40z" />
    <glyph glyph-name="eth" unicode="&#xf0;" horiz-adv-x="1058" 
d="M1010 502q0 -225 -134 -377t-349 -152t-346.5 135.5t-131.5 338.5t131 340t334 137q79 0 148 -21q-75 142 -193 230l-41 -14q-43 -13 -94 -29l-135 -46l4 48l221 73q-109 72 -262 103l12 30q201 -20 365 -96l241 80l4 -47l-188 -61q300 -165 357 -364.5t57 -307.5z
M537 16q106 0 161.5 104.5t55.5 308.5t-64.5 330t-169.5 126q-152 0 -182.5 -159t-30.5 -249q1 -461 230 -461z" />
    <glyph glyph-name="ntilde" unicode="&#xf1;" horiz-adv-x="1122" 
d="M573 764q-87 0 -176 -62v-634q1 -14 15 -22t71 -11l39 -2l4 -33h-487l6 33l35 2q45 4 63 10t19 25v548q0 97 -16 125q-16 27 -70 39l-43 11l2 24l364 101l-4 -170h6q96 81 151 111q107 59 201 60q95 1 163 -67t67 -227v-555q0 -13 18 -21q18 -7 80 -14l29 -2l6 -33h-483
l6 33l37 2q51 4 62 13t12 22v495q0 115 -45 157t-132 42zM769 1180q37 0 61 19t36 95h33q-12 -144 -51 -202t-118 -58t-203 66t-165 67q-42 0 -61 -20t-33 -94h-37q13 145 53 202q82 118 322 -9q125 -66 163 -66z" />
    <glyph glyph-name="ograve" unicode="&#xf2;" 
d="M49 446q0 199 143 338q143 138 357 138t348 -134q133 -134 133 -336q0 -201 -142 -341t-358 -140t-349 138q-132 138 -132 337zM539 12q105 0 166 115t61 297q0 450 -229 455q-107 0 -169 -117q-57 -104 -59 -289q0 -461 230 -461zM172 1399h248l203 -379h-35z" />
    <glyph glyph-name="oacute" unicode="&#xf3;" 
d="M49 446q0 199 143 338q143 138 357 138t348 -134q133 -134 133 -336q0 -201 -142 -341t-358 -140t-349 138q-132 138 -132 337zM539 12q105 0 166 115t61 297q0 450 -229 455q-107 0 -169 -117q-57 -104 -59 -289q0 -461 230 -461zM651 1399h246l-414 -379h-37z" />
    <glyph glyph-name="ocircumflex" unicode="&#xf4;" 
d="M49 446q0 199 143 338q143 138 357 138t348 -134q133 -134 133 -336q0 -201 -142 -341t-358 -140t-349 138q-132 138 -132 337zM539 12q105 0 166 115t61 297q0 450 -229 455q-107 0 -169 -117q-57 -104 -59 -289q0 -461 230 -461zM518 1409h39l279 -403h-31l-264 200h-4
l-269 -200h-28z" />
    <glyph glyph-name="otilde" unicode="&#xf5;" 
d="M49 446q0 199 143 338q143 138 357 138t348 -134q133 -134 133 -336q0 -201 -142 -341t-358 -140t-349 138q-132 138 -132 337zM539 12q105 0 166 115t61 297q0 450 -229 455q-107 0 -169 -117q-57 -104 -59 -289q0 -461 230 -461zM740 1180q38 0 62 19t36 95h32
q-12 -144 -51 -202t-119 -58t-202 66q-123 66 -165 67q-42 0 -62 -21t-31 -93h-37q14 145 53 202q80 117 322 -9q124 -66 162 -66z" />
    <glyph glyph-name="odieresis" unicode="&#xf6;" 
d="M49 446q0 199 143 338q143 138 357 138t348 -134q133 -134 133 -336q0 -201 -142 -341t-358 -140t-349 138q-132 138 -132 337zM539 12q105 0 166 115t61 297q0 450 -229 455q-107 0 -169 -117q-57 -104 -59 -289q0 -461 230 -461zM334 1053q-61 0 -95 40t-34 86t34 88
t95 42t93 -42t32 -88t-32 -86t-93 -40zM743 1053q-61 0 -93 40t-32 86t32 88t93 42t93 -42q68 -87 1 -174q-33 -40 -94 -40z" />
    <glyph glyph-name="divide" unicode="&#xf7;" horiz-adv-x="1148" 
d="M573.5 -27q-110.5 0 -202.5 37t-159 104.5t-104.5 163t-37.5 210t37.5 210t105.5 165t161 107.5t203.5 38t202.5 -38t160 -105.5t105.5 -162t37.5 -209t-38.5 -211t-106.5 -165t-161 -106.5t-203.5 -38zM893.5 166.5q124.5 127.5 124.5 325.5t-124.5 326t-317.5 128
t-317 -129.5t-124 -327.5t122.5 -324t317 -126t319 127.5z" />
    <glyph glyph-name="oslash" unicode="&#xf8;" 
d="M1030 470q0 -220 -142 -359.5t-358 -139.5q-129 0 -225 49l-166 -284h-45l176 303q-106 61 -163.5 168t-57.5 221q0 217 142.5 355.5t357.5 138.5q113 0 207 -41l178 307h45q-96 -164 -188 -324q115 -59 177 -168.5t62 -225.5zM698 780q-60 101 -163 101t-164.5 -112.5
t-61.5 -299.5q0 -186 39 -295zM766 435q0 190 -47 302l-352 -610q55 -114 167 -114q111 -1 171.5 115.5t60.5 306.5z" />
    <glyph glyph-name="ugrave" unicode="&#xf9;" horiz-adv-x="1081" 
d="M547 129q88 0 168 59v611q1 31 -17 42t-80 15l-36 2l-9 33h375v-694q0 -53 10 -71t41 -28l84 -20l-4 -23l-364 -88l2 178h-4q-192 -171 -346 -174q-90 0 -164 70q-68 72 -66 229l2 555q0 14 -16 18q-16 5 -84 13l-33 2l-6 33h377l-6 -567q-2 -111 43 -153t133 -42z
M174 1399h248l203 -379h-35z" />
    <glyph glyph-name="uacute" unicode="&#xfa;" horiz-adv-x="1081" 
d="M547 129q88 0 168 59v611q1 31 -17 42t-80 15l-36 2l-9 33h375v-694q0 -53 10 -71t41 -28l84 -20l-4 -23l-364 -88l2 178h-4q-192 -171 -346 -174q-90 0 -164 70q-68 72 -66 229l2 555q0 14 -16 18q-16 5 -84 13l-33 2l-6 33h377l-6 -567q-2 -111 43 -153t133 -42z
M643 1399h246l-414 -379h-37z" />
    <glyph glyph-name="ucircumflex" unicode="&#xfb;" horiz-adv-x="1081" 
d="M547 129q88 0 168 59v611q1 31 -17 42t-80 15l-36 2l-9 33h375v-694q0 -53 10 -71t41 -28l84 -20l-4 -23l-364 -88l2 178h-4q-192 -171 -346 -174q-90 0 -164 70q-68 72 -66 229l2 555q0 14 -16 18q-16 5 -84 13l-33 2l-6 33h377l-6 -567q-2 -111 43 -153t133 -42z
M512 1409h39l278 -403h-30l-264 200h-5l-268 -200h-29z" />
    <glyph glyph-name="udieresis" unicode="&#xfc;" horiz-adv-x="1081" 
d="M547 129q88 0 168 59v611q1 31 -17 42t-80 15l-36 2l-9 33h375v-694q0 -53 10 -71t41 -28l84 -20l-4 -23l-364 -88l2 178h-4q-192 -171 -346 -174q-90 0 -164 70q-68 72 -66 229l2 555q0 14 -16 18q-16 5 -84 13l-33 2l-6 33h377l-6 -567q-2 -111 43 -153t133 -42z
M346 1053q-61 0 -95 40t-34 86t34 88t95 42t93 -42t32 -88t-32 -86t-93 -40zM756 1053q-61 0 -93 40t-32 86t32 88t93 42t93 -42t32 -88t-32 -86t-93 -40z" />
    <glyph glyph-name="yacute" unicode="&#xfd;" horiz-adv-x="983" 
d="M209 -528q-55 0 -99 34t-44 86q0 54 32 89q33 35 89 35t88 -34q32 -32 42 -73q35 10 59 48t50 116l70 198h-19l-348 777q-27 60 -48 79t-65 23l-36 8l-7 33h512l-6 -33l-41 -6q-53 -6 -64 -26t9 -66l215 -506l139 385q45 121 34 153t-35 42t-66 16l-41 8l-6 33h370
l-6 -33l-41 -6q-58 -4 -84 -42t-80 -183l-227 -604l-92 -281q-47 -138 -105 -204t-149 -66zM621 1399h245l-413 -379h-37z" />
    <glyph glyph-name="thorn" unicode="&#xfe;" 
d="M342 4v-453q0 -23 98 -26l70 -2l6 -37h-536l6 37l43 2q43 4 62.5 9t19.5 26v1579q0 55 -14.5 75.5t-55.5 32.5l-64 23l3 24l362 97v-654l8 -2q59 74 139.5 125t166.5 51q164 0 269 -124.5t105 -313.5q0 -230 -148.5 -366t-350.5 -136q-100 0 -183 33h-6zM561 14
q100 0 156.5 110.5t56.5 273.5t-67 265.5t-172 102.5q-106 0 -193 -82v-494q43 -78 103.5 -127t115.5 -49z" />
    <glyph glyph-name="ydieresis" unicode="&#xff;" horiz-adv-x="983" 
d="M209 -528q-55 0 -99 34t-44 86q0 54 32 89q33 35 89 35t88 -34q32 -32 42 -73q35 10 59 48t50 116l70 198h-19l-348 777q-27 60 -48 79t-65 23l-36 8l-7 33h512l-6 -33l-41 -6q-53 -6 -64 -26t9 -66l215 -506l139 385q45 121 34 153t-35 42t-66 16l-41 8l-6 33h370
l-6 -33l-41 -6q-58 -4 -84 -42t-80 -183l-227 -604l-92 -281q-47 -138 -105 -204t-149 -66zM301 1053q-61 0 -95 40t-34 86t34 88t95 42t93 -42t32 -88t-32 -86t-93 -40zM711 1053q-61 0 -94 40q-67 83 0 174q31 42 93 42t94 -42t32 -88t-32 -86t-93 -40z" />
    <glyph glyph-name="dotlessi" unicode="&#x131;" horiz-adv-x="559" 
d="M164 70v551q0 94 -16 121t-70 40l-43 11l2 24l362 101v-850q0 -14 16.5 -20.5t80.5 -12.5l28 -2l6 -33h-489l6 33l35 2q45 4 63.5 10t18.5 25z" />
    <glyph glyph-name="Lslash" unicode="&#x141;" horiz-adv-x="1185" 
d="M219 1198q0 14 -16.5 20.5t-79.5 14.5l-74 10l-6 37h639l-6 -37l-111 -12q-82 -9 -82 -37v-541l207 64l4 -47l-211 -66v-555l119 -8q181 0 273 75t178 267l22 70h53l-57 -453h-1030l6 37l90 12q82 7 82 37v436l-190 -59l2 49l188 59v627z" />
    <glyph glyph-name="lslash" unicode="&#x142;" horiz-adv-x="546" 
d="M154 1112q0 74 -13.5 97.5t-54.5 35.5l-61 23l2 24l364 101v-785l150 47l2 -47l-152 -47v-483q0 -14 15.5 -19.5t70.5 -15.5l39 -8l6 -35h-485l6 35l37 8q41 6 57.5 12t16.5 25v407l-150 -45l2 47l148 46v577z" />
    <glyph glyph-name="OE" unicode="&#x152;" horiz-adv-x="1978" 
d="M791 0q-347 0 -536 166.5t-189 449.5t207 473.5t554 190.5h998l14 -418h-49l-21 70q-52 178 -143 241.5t-299 63.5l-119 -2v-561l66 2q123 4 182.5 36.5t85.5 114.5l25 68l39 -2l-52 -487h-38l-7 65q-8 89 -59 122.5t-190 37.5l-52 2v-584l156 -6q296 0 369 120t100 193
l20 64l52 -2l-52 -418h-1062zM946 45v1163l-139 29q-218 0 -338.5 -165t-120.5 -427t125.5 -431t378.5 -169h94z" />
    <glyph glyph-name="oe" unicode="&#x153;" horiz-adv-x="1652" 
d="M885 111q-144 -144 -359 -144t-346 135.5t-131 338.5t142 343t362 140t350 -150q139 150 346 150q163 0 255.5 -86.5t92.5 -212.5q0 -28 -8 -58q-150 0 -270 2l-303 6q-4 -33 -4 -97t23.5 -134t87.5 -146.5t198 -76.5q165 0 262 151l23 -12q-128 -291 -414 -291
q-180 0 -307 142zM309 467q0 -459 230 -459q104 0 164.5 117t60.5 297q0 459 -227 459q-108 0 -168 -116t-60 -298zM1192 612h172q0 184 -51 225.5t-92 41.5q-72 0 -129.5 -73t-73.5 -196q98 2 174 2z" />
    <glyph glyph-name="Scaron" unicode="&#x160;" horiz-adv-x="1075" 
d="M569 1307q118 0 265 -43l90 28l6 -379h-45l-148 295q-84 52 -192 53q-107 1 -171 -57t-64 -130q0 -70 23 -110q45 -74 157 -120q54 -22 127 -48q182 -64 267 -141q111 -100 110 -264t-135 -291t-345 -129q-210 -2 -410 70l-22 348h49l86 -203q111 -168 305 -168
q129 2 199 71t70 177q0 164 -191 244q-57 26 -129 50q-73 24 -139 54q-224 103 -221 314q0 78 30 146q63 140 227 202q82 31 201 31zM250 1772h29l268 -203h4l266 203h29l-279 -404h-39z" />
    <glyph glyph-name="scaron" unicode="&#x161;" horiz-adv-x="804" 
d="M252 734q0 -68 59 -104t171 -77t165 -84q101 -82 101 -201t-98 -208t-273 -89q-174 0 -307 52l-13 262l49 -2l52 -117q45 -74 97 -114t130 -40t126 43t48 113q0 94 -134 154q-40 18 -89 36t-98 42q-168 83 -166 239q0 125 92 202t260 79q91 0 188 -33l84 20l11 -276
l-48 -2l-122 205q-68 43 -135 44q-68 1 -109 -37t-41 -107zM100 1391h29l268 -203h4l267 203h28l-278 -404h-39z" />
    <glyph glyph-name="Ydieresis" unicode="&#x178;" horiz-adv-x="1300" 
d="M518 78v487l-295 516q-57 94 -87 121t-87 35l-47 8l-6 35h618l-6 -35l-45 -4q-82 -10 -91 -44t36 -112l242 -438h8l162 299q93 171 90 226q-2 32 -31 46t-86 21l-47 6l-6 35h460l-6 -35l-51 -8q-78 -13 -114 -52q-63 -68 -156 -243l-189 -338v-532q0 -12 18 -18t87 -13
l78 -8l6 -33h-645l6 33l96 8q88 7 88 37zM467 1395q-61 0 -95 40t-34 86t34 88t95 42t93 -42t32 -88t-32 -86t-93 -40zM877 1395q-61 0 -94 40q-67 83 0 174q31 42 93 42t94 -42q67 -88 0 -174q-32 -40 -93 -40z" />
    <glyph glyph-name="Zcaron" unicode="&#x17d;" horiz-adv-x="1234" 
d="M838 1235h-197q-286 0 -396 -171q-36 -56 -63 -132l-16 -62h-51l18 410h1018v-37l-786 -1190v-6l215 -4q233 -4 343 78q58 43 100 111t81 163l22 64h54l-60 -459h-1054v35l772 1194v6zM326 1757h28l269 -203h4l266 203h29l-279 -403h-39z" />
    <glyph glyph-name="zcaron" unicode="&#x17e;" horiz-adv-x="929" 
d="M82 545v346h774v-31l-543 -817h99q232 6 332 135q32 41 57 88l43 84h43l-70 -350h-774v29l537 821l-91 -2q-147 -4 -214 -50t-109 -151l-41 -102h-43zM170 1382h29l268 -202h4l266 202h29l-279 -403h-38z" />
    <glyph glyph-name="florin" unicode="&#x192;" horiz-adv-x="1130" 
d="M201 -113q-96 0 -155.5 41.5t-59.5 99.5t32 96t80 38t76.5 -17.5t43.5 -45t15 -64.5t-24 -74q64 -8 78 -8q48 11 83 124.5t95 411.5l39 222l-213 8l33 86l204 22q69 261 172 367q113 113 299 113q90 0 147.5 -44.5t57.5 -106.5t-37 -99t-85 -37t-76.5 21.5t-39 52
t-1 67.5t42.5 68q-64 16 -78 16q-77 -15 -113.5 -179.5t-54.5 -244.5h252l-10 -102h-261l-47 -197q-85 -376 -214 -505q-130 -130 -281 -130z" />
    <glyph glyph-name="circumflex" unicode="&#x2c6;" horiz-adv-x="776" 
d="M369 1409h39l278 -403h-31l-264 200h-4l-268 -200h-29z" />
    <glyph glyph-name="caron" unicode="&#x2c7;" horiz-adv-x="776" 
d="M90 1409h29l268 -203h4l266 203h29l-278 -403h-39z" />
    <glyph glyph-name="breve" unicode="&#x2d8;" horiz-adv-x="804" 
d="M360.5 1159q131.5 0 198 57.5t105.5 167.5h32q-47 -271 -135.5 -322.5t-154.5 -51.5q-123 0 -190 98.5t-103 275.5h37q79 -225 210.5 -225z" />
    <glyph glyph-name="dotaccent" unicode="&#x2d9;" horiz-adv-x="817" 
d="M411 1073q-67 0 -104 44t-37 95.5t37 96.5t104 45t100.5 -45t33.5 -96.5t-33.5 -95.5t-100.5 -44z" />
    <glyph glyph-name="ring" unicode="&#x2da;" horiz-adv-x="776" 
d="M389 1030q-88 0 -138 56.5t-50 134t50 134t138 56.5t138.5 -56.5t50.5 -134t-50.5 -134t-138.5 -56.5zM389 1063q72 0 112 46.5t40 110.5t-40 111t-112 47t-112.5 -47t-40.5 -111t40.5 -110.5t112.5 -46.5z" />
    <glyph glyph-name="ogonek" unicode="&#x2db;" horiz-adv-x="813" 
d="M484 -393q74 0 157 61l10 -20q-73 -93 -142 -117.5t-112 -24.5q-90 0 -154.5 57.5t-64.5 132.5q0 74 30 124.5t90.5 106t207.5 114.5h61q-129 -59 -189.5 -134t-60.5 -146t46.5 -112.5t120.5 -41.5z" />
    <glyph glyph-name="tilde" unicode="&#x2dc;" horiz-adv-x="804" 
d="M361.5 1100.5q-126.5 66.5 -166.5 66.5t-59 -20t-32 -94h-36q14 145 53 202.5t116 57.5t166 -46t132 -66.5t75.5 -20.5t56 19.5t35.5 94.5h33q-12 -143 -51 -201.5t-118 -58.5q-78 0 -204.5 66.5z" />
    <glyph glyph-name="hungarumlaut" unicode="&#x2dd;" horiz-adv-x="860" 
d="M338 1399h233l-399 -379h-37zM698 1399h234l-402 -379h-34z" />
    <glyph glyph-name="pi" unicode="&#x3c0;" horiz-adv-x="1480" 
d="M741.5 -43q-141.5 0 -266.5 53t-218 146.5t-146.5 217.5t-53.5 266t53.5 267t146.5 218.5t218 147.5t266.5 54t266.5 -54t218 -147.5t146 -218.5t53 -267t-53 -266t-146 -217.5t-218 -146.5t-266.5 -53zM741 -8q133 0 250 51t205 139t138 206t50 251t-50 252t-138 208
t-205 140t-250 51t-250.5 -51t-204.5 -140t-138.5 -208t-51.5 -252t51.5 -251t138.5 -206t204.5 -139t250.5 -51zM784 1014q322 0 322 -208q0 -99 -89 -163.5t-235 -64.5q-29 0 -77 6v-279q0 -15 57 -18l59 -8l4 -29h-389l4 29l56 6q49 7 49 24v649q0 10 -10.5 13.5
t-47.5 7.5l-47 6l-4 29h348zM776 608q72 0 117 51.5t45 137.5t-43 136t-131 52l-59 -2v-365q40 -10 71 -10z" />
    <glyph glyph-name="endash" unicode="&#x2013;" horiz-adv-x="901" 
d="M31 528h839l4 -86h-849z" />
    <glyph glyph-name="emdash" unicode="&#x2014;" horiz-adv-x="1861" 
d="M31 528h1802l6 -86h-1814z" />
    <glyph glyph-name="quoteleft" unicode="&#x2018;" horiz-adv-x="428" 
d="M201 1073q0 -90 62.5 -119.5t90 -35t27.5 -9.5q0 -50 -37.5 -95.5t-118.5 -45.5t-132.5 60.5t-51.5 154.5t85 193.5t230 164.5l25 -24q-180 -96 -180 -244z" />
    <glyph glyph-name="quoteright" unicode="&#x2019;" horiz-adv-x="428" 
d="M229 1023q0 62 -27.5 93t-61.5 47.5t-62.5 22.5t-28.5 8q0 51 37.5 96t117.5 45q81 0 133 -60.5t52 -155.5t-85 -192.5t-230 -162.5l-25 22q88 47 134 111t46 126z" />
    <glyph glyph-name="quotesinglbase" unicode="&#x201a;" horiz-adv-x="428" 
d="M229 -36q0 62 -27.5 93t-61.5 47.5t-62.5 22.5t-28.5 8q0 51 37.5 96t117.5 45q81 0 133 -60t52 -156t-85 -192.5t-230 -162.5l-25 23q88 47 134 110.5t46 125.5z" />
    <glyph glyph-name="quotedblleft" unicode="&#x201c;" horiz-adv-x="829" 
d="M449 983q0 94 83.5 193.5t229.5 164.5l24 -24q-86 -47 -134 -111t-48 -126t29 -93t62.5 -47t62 -21.5t28.5 -9.5q0 -52 -38 -96.5t-118 -44.5q-79 0 -130 60.5t-51 154.5zM201 1073q0 -90 62.5 -119.5t90 -35t27.5 -9.5q0 -50 -37.5 -95.5t-118.5 -45.5t-132.5 60.5
t-51.5 154.5t85 193.5t230 164.5l25 -24q-180 -96 -180 -244z" />
    <glyph glyph-name="quotedblright" unicode="&#x201d;" horiz-adv-x="829" 
d="M229 1023q0 62 -27.5 93t-61.5 47.5t-62.5 22.5t-28.5 8q0 51 37.5 96t117.5 45q81 0 133 -60.5t52 -155.5t-85 -192.5t-230 -162.5l-25 22q88 47 134 111t46 126zM635 1023q0 62 -27.5 93t-61.5 47.5t-62.5 22.5t-28.5 8q0 54 39 97.5t118 43.5q78 0 130.5 -60.5
t52.5 -155.5t-85 -192.5t-231 -162.5l-24 22q88 47 134 111t46 126z" />
    <glyph glyph-name="quotedblbase" unicode="&#x201e;" horiz-adv-x="825" 
d="M229 -36q0 62 -27.5 93t-61.5 47.5t-62.5 22.5t-28.5 8q0 51 37.5 96t117.5 45q81 0 133 -60t52 -156t-85 -192.5t-230 -162.5l-25 23q88 47 134 110.5t46 125.5zM635 -36q0 62 -27.5 93t-61.5 47.5t-62.5 22.5t-28.5 8q0 54 39 97.5t118 43.5q78 0 130.5 -60t52.5 -156
t-85 -192.5t-231 -162.5l-24 23q88 47 134 110.5t46 125.5z" />
    <glyph glyph-name="dagger" unicode="&#x2020;" horiz-adv-x="909" 
d="M434 831h-401l-2 43h403v406h43v-406h406l-4 -43h-402v-1150h-43v1150z" />
    <glyph glyph-name="daggerdbl" unicode="&#x2021;" horiz-adv-x="909" 
d="M434 63h-403l2 43h401v746h-401l-2 43h403v385h43v-385h406l-4 -43h-402v-746h402l4 -43h-406v-382h-43v382z" />
    <glyph glyph-name="bullet" unicode="&#x2022;" horiz-adv-x="888" 
d="M446 80q-45 0 -146.5 41t-123.5 66q-22 24 -42.5 62t-39 81t-31 83t-12.5 73.5t43.5 134.5t66.5 125q37 39 139.5 80.5t135.5 41.5q54 0 159 -42.5t130 -71.5q48 -42 81.5 -149t33.5 -139t-42.5 -136.5t-64.5 -126.5t-60 -43t-110 -50.5t-117 -29.5z" />
    <glyph glyph-name="ellipsis" unicode="&#x2026;" horiz-adv-x="1347" 
d="M1131 -27q-60 0 -102 43.5t-42 101.5t42 100t102 42t101.5 -43t41.5 -100t-41.5 -100.5t-101.5 -43.5zM220 -27q-60 0 -102 43.5t-42 101.5t42 100t102 42t101 -43t41 -100t-41 -100.5t-101 -43.5zM675 -27q-60 0 -102.5 43.5t-42.5 101.5t42 100t102 42t102.5 -43
t42.5 -100t-42 -100.5t-102 -43.5z" />
    <glyph glyph-name="perthousand" unicode="&#x2030;" horiz-adv-x="1863" 
d="M913.5 6q108.5 0 171 69.5t62.5 172.5t-64.5 174.5t-169.5 71.5t-168 -72.5t-63 -174.5q0 -101 61.5 -171t170 -70zM1560.5 6q108.5 0 171 69.5t62.5 172.5t-64.5 174.5t-169 71.5t-169 -72t-64.5 -174t62.5 -172t171 -70zM471.5 1204.5q-65.5 71.5 -170.5 71.5
t-168 -71.5t-63 -174t63.5 -172.5t167.5 -70t170 70t66 172.5t-65.5 174zM913.5 -35q-65.5 0 -117 22.5t-87 61.5t-55 90t-19.5 108.5t19.5 110t55 91t87 62.5t117 24t117.5 -24t88 -62.5t55.5 -91t19.5 -110t-19.5 -108.5t-55.5 -90t-88 -61.5t-117.5 -22.5zM1560.5 -35
q-65.5 0 -117.5 22.5t-88 61.5t-55.5 90t-19.5 108.5t19.5 110t55.5 91t88 62.5t117.5 24t118 -24t88 -62.5t55 -91t19.5 -110t-19.5 -108.5t-55 -90t-88 -61.5t-118 -22.5zM1044 1311h50l-924 -1340h-51zM99.5 1234q76.5 83 201.5 83t204 -83t79 -203t-78 -201.5
t-205 -81.5q-126 0 -202 81.5t-76 201.5t76.5 203z" />
    <glyph glyph-name="guilsinglleft" unicode="&#x2039;" horiz-adv-x="575" 
d="M37 426v57l481 346l10 -16l-260 -360l262 -357l-12 -16z" />
    <glyph glyph-name="guilsinglright" unicode="&#x203a;" horiz-adv-x="577" 
d="M49 96l264 357l-264 360l12 16l482 -346v-57l-482 -346z" />
    <glyph glyph-name="fraction" unicode="&#x2044;" horiz-adv-x="980" 
d="M940 1311h59l-958 -1340h-59z" />
    <glyph glyph-name="Euro" unicode="&#x20ac;" horiz-adv-x="1058" 
d="M129 617q0 58 10 106h-129l6 43h129q49 238 210 381t364 143q141 0 223 -47t82 -133q0 -47 -37 -83t-85 -36q-89 0 -121.5 76.5t12.5 144.5q-16 10 -36.5 20.5t-72.5 10.5t-161.5 -73t-141.5 -404h393l6 -43h-403v-68q0 -86 10 -151h387l6 -43h-383q37 -160 128 -248
t223 -88q183 0 284 160l23 -15q-143 -297 -422 -297q-184 0 -319 131t-173 357h-131l6 43h119q-6 55 -6 113z" />
    <glyph glyph-name="trademark" unicode="&#x2122;" horiz-adv-x="1165" 
d="M211 868v387h-10q-49 0 -77 -35.5t-46 -86.5l-8 -19h-27l12 166h428l6 -166h-26q-23 72 -49.5 106.5t-79.5 34.5h-15v-389q0 -6 29 -12l33 -4l2 -25h-236v25l41 4q23 2 23 14zM901 825v25l39 4q14 4 18.5 11t2.5 32l-7 338h-6l-139 -401h-49l-119 389h-8l-6 -283
q-2 -59 5 -72.5t36 -15.5l26 -2l2 -25h-170l4 25l25 2q27 2 33 15.5t8 76.5l8 281q-10 25 -35 26l-32 6l-2 23h194l90 -317h8l105 317h196l-2 -23l-36 -6q-27 -2 -27 -14l8 -342q0 -25 6 -31t25 -10l31 -4l4 -25h-236z" />
    <glyph glyph-name="Omega" unicode="&#x2126;" horiz-adv-x="1251" 
d="M1196 1374q100 0 146.5 -37t46.5 -87t-34 -82.5t-81 -32.5q-111 0 -146 159v9q0 4 -2 6l-43 8q-55 -25 -76.5 -92.5t-21.5 -210.5v-125h262l-28 -109h-234v-712q0 -14 16.5 -21.5t79.5 -11.5l74 -2l6 -33h-530l6 33l39 2q47 4 61.5 10t14.5 25v714h-344v-714
q0 -14 13 -21.5t66 -11.5l64 -4l6 -33h-512l6 33l45 4q41 4 58.5 10t17.5 25v708l-162 6l37 103l123 -2l4 59q19 201 156 306.5t317 105.5q88 0 139.5 -37t51.5 -96q0 -11 -4 -31q66 86 164 133t198 47zM714 1112q-52 0 -92 48t-51 134l-47 11q-59 -23 -87.5 -91.5
t-28.5 -214.5v-110l340 -2l6 92q6 84 45 160q-33 -27 -85 -27z" />
    <glyph glyph-name="Delta" unicode="&#x2206;" horiz-adv-x="1030" 
d="M31 197q0 66 43 106.5t102.5 40.5t99 -36t39.5 -82q0 -100 -75 -138q16 -29 57 -50.5t90 -21.5q100 0 144 68t44 235v883q0 29 -96 35l-98 10l-6 33h649l-6 -33l-94 -12q-82 -7 -82 -37v-858q0 -135 -141.5 -251t-318.5 -116t-264 65.5t-87 158.5z" />
    <glyph glyph-name="radical" unicode="&#x221a;" horiz-adv-x="1718" 
d="M985 993v-104h342v250q-59 10 -95 57t-44 111l-72 18q-66 -27 -98.5 -102.5t-32.5 -229.5zM1561 68q0 -14 16 -19.5t80 -13.5l29 -2l6 -33h-484l6 33l37 2q47 4 61.5 10t14.5 25v714h-342v-716q0 -14 14.5 -21.5t71.5 -11.5l59 -2l5 -33h-504l6 33l39 2q47 4 61.5 10
t14.5 25v714h-344v-714q0 -14 13 -21.5t66 -11.5l64 -4l6 -33h-512l6 33l45 4q41 4 58.5 10t17.5 25v708l-162 6l37 103l123 -2l4 59q19 201 156 306.5t317 105.5q88 0 139.5 -37t51.5 -96q0 -27 -9 -43q70 98 185.5 151t229.5 53t173 -47l144 52v-1323zM721 1112
q-125 0 -150 182l-47 11q-59 -23 -87.5 -91.5t-28.5 -214.5v-110l340 -2l6 84q7 95 55 180q-35 -39 -88 -39z" />
    <glyph glyph-name="approxequal" unicode="&#x2248;" horiz-adv-x="1724" 
d="M1250 1386q112 0 173.5 -41t61.5 -101t-36.5 -96t-96.5 -36t-102 55.5t-54 139.5l-72 18q-68 -27 -103.5 -100.5t-35.5 -225.5v-110h416l160 26v-847q0 -16 18 -21.5t78 -11.5l31 -2l6 -33h-486l6 35l39 2q43 4 58.5 10t15.5 25v712h-342v-716q0 -14 14.5 -21.5
t71.5 -11.5l59 -2l5 -33h-504l6 33l39 2q47 4 61.5 10t14.5 25v714h-344v-714q0 -14 13 -21.5t66 -11.5l64 -4l6 -33h-512l6 33l45 4q41 4 58.5 10t17.5 25v708l-162 6l37 103l123 -2l4 59q19 201 156 306.5t317 105.5q88 0 139.5 -37t51.5 -96q-1 -24 -11 -49
q72 102 191.5 156t231.5 54zM718 1112q-58 0 -97 54.5t-50 127.5l-47 11q-59 -23 -87.5 -91.5t-28.5 -214.5v-110l340 -2l6 84q10 102 59 184q-37 -43 -95 -43z" />
    <glyph glyph-name="apple" unicode="&#xf8ff;" horiz-adv-x="1552" 
d="M602 236l-383 -140l139 383l-370 176l370 170l-139 387l383 -141l176 371l170 -371l387 141l-141 -387l369 -168l-369 -174l141 -387l-387 142l-174 -371zM905 346l361 -180l-179 362l377 129l-377 125l179 361l-361 -178l-127 378l-131 -378l-358 178l178 -361
l-381 -127l381 -131l-178 -358l358 180l127 -381z" />
    <glyph glyph-name="fi" unicode="&#xfb01;" horiz-adv-x="1146" 
d="M172 70v708l-162 8l37 101h123l6 84q11 185 162.5 300t347.5 115q98 0 158.5 -41t60.5 -101t-34.5 -96t-95.5 -36t-103.5 55.5t-53.5 139.5l-73 18q-66 -27 -101.5 -100.5t-35.5 -225.5v-112h415l160 28v-847q0 -16 18.5 -21.5t77.5 -11.5l29 -2l6 -33h-485l4 33l41 2
q47 4 61.5 10t14.5 25v714h-342v-716q0 -14 14 -21.5t70 -11.5l57 -2l6 -33h-510l6 33l41 2q43 4 61.5 10t18.5 25z" />
    <glyph glyph-name="fl" unicode="&#xfb02;" horiz-adv-x="1138" 
d="M408 999v-112h342v252q-61 8 -99.5 55t-44.5 113l-69 18q-66 -27 -97.5 -100.5t-31.5 -225.5zM983 68q0 -14 16.5 -19.5t79.5 -13.5l29 -2l6 -33h-485l6 33l33 2q43 4 62.5 10t19.5 25v714h-342v-716q0 -14 14 -21.5t70 -11.5l57 -2l6 -33h-510l6 33l41 2q43 4 61.5 10
t18.5 25v708l-162 6l37 103h123l6 84q11 187 159 301t339 114q104 0 162 -47l147 52v-1323z" />
    </font>
</defs>
</svg>
